{
  "header": {
    "formatType": 1,
    "trackCount": 17,
    "ticksPerBeat": 480
  },
  "tracks": [
    [
      {
        "deltaTime": 0,
        "type": "meta",
        "subtype": "trackName",
        "text": "untitled"
      },
      {
        "deltaTime": 0,
        "type": "meta",
        "subtype": "smpteOffset",
        "frameRate": 30,
        "hour": 0,
        "min": 0,
        "sec": 3,
        "frame": 0,
        "subframe": 0
      },
      {
        "deltaTime": 0,
        "type": "meta",
        "subtype": "timeSignature",
        "numerator": 4,
        "denominator": 4,
        "metronome": 24,
        "thirtyseconds": 8
      },
      {
        "deltaTime": 0,
        "type": "meta",
        "subtype": "keySignature",
        "key": 0,
        "scale": 0
      },
      {
        "deltaTime": 0,
        "type": "meta",
        "subtype": "setTempo",
        "microsecondsPerBeat": 600000
      },
      {
        "deltaTime": 0,
        "type": "meta",
        "subtype": "marker",
        "text": "A"
      },
      {
        "deltaTime": 34560,
        "type": "meta",
        "subtype": "marker",
        "text": "1."
      },
      {
        "deltaTime": 1920,
        "type": "meta",
        "subtype": "marker",
        "text": "A'"
      },
      {
        "deltaTime": 34560,
        "type": "meta",
        "subtype": "marker",
        "text": "2."
      },
      {
        "deltaTime": 1920,
        "type": "meta",
        "subtype": "marker",
        "text": "B"
      },
      {
        "deltaTime": 50880,
        "type": "meta",
        "subtype": "setTempo",
        "microsecondsPerBeat": 1200000
      },
      {
        "deltaTime": 0,
        "type": "meta",
        "subtype": "endOfTrack"
      }
    ],
    [
      {
        "deltaTime": 0,
        "type": "meta",
        "subtype": "unknown",
        "data": "\u0000"
      },
      {
        "deltaTime": 0,
        "type": "meta",
        "subtype": "trackName",
        "text": "Solo Flute"
      },
      {
        "deltaTime": 0,
        "channel": 0,
        "type": "channel",
        "subtype": "programChange",
        "programNumber": 73
      },
      {
        "deltaTime": 0,
        "channel": 0,
        "type": "channel",
        "subtype": "controller",
        "controllerType": 7,
        "value": 100
      },
      {
        "deltaTime": 0,
        "channel": 0,
        "type": "channel",
        "subtype": "controller",
        "controllerType": 10,
        "value": 64
      },
      {
        "deltaTime": 120,
        "channel": 0,
        "type": "channel",
        "noteNumber": 76,
        "velocity": 100,
        "subtype": "noteOn"
      },
      {
        "deltaTime": 120,
        "channel": 0,
        "type": "channel",
        "noteNumber": 76,
        "velocity": 0,
        "subtype": "noteOff"
      },
      {
        "deltaTime": 0,
        "channel": 0,
        "type": "channel",
        "noteNumber": 81,
        "velocity": 100,
        "subtype": "noteOn"
      },
      {
        "deltaTime": 120,
        "channel": 0,
        "type": "channel",
        "noteNumber": 81,
        "velocity": 0,
        "subtype": "noteOff"
      },
      {
        "deltaTime": 0,
        "channel": 0,
        "type": "channel",
        "noteNumber": 80,
        "velocity": 100,
        "subtype": "noteOn"
      },
      {
        "deltaTime": 120,
        "channel": 0,
        "type": "channel",
        "noteNumber": 80,
        "velocity": 0,
        "subtype": "noteOff"
      },
      {
        "deltaTime": 0,
        "channel": 0,
        "type": "channel",
        "noteNumber": 81,
        "velocity": 100,
        "subtype": "noteOn"
      },
      {
        "deltaTime": 120,
        "channel": 0,
        "type": "channel",
        "noteNumber": 81,
        "velocity": 0,
        "subtype": "noteOff"
      },
      {
        "deltaTime": 0,
        "channel": 0,
        "type": "channel",
        "noteNumber": 84,
        "velocity": 100,
        "subtype": "noteOn"
      },
      {
        "deltaTime": 120,
        "channel": 0,
        "type": "channel",
        "noteNumber": 84,
        "velocity": 0,
        "subtype": "noteOff"
      },
      {
        "deltaTime": 0,
        "channel": 0,
        "type": "channel",
        "noteNumber": 81,
        "velocity": 100,
        "subtype": "noteOn"
      },
      {
        "deltaTime": 120,
        "channel": 0,
        "type": "channel",
        "noteNumber": 81,
        "velocity": 0,
        "subtype": "noteOff"
      },
      {
        "deltaTime": 0,
        "channel": 0,
        "type": "channel",
        "noteNumber": 76,
        "velocity": 100,
        "subtype": "noteOn"
      },
      {
        "deltaTime": 120,
        "channel": 0,
        "type": "channel",
        "noteNumber": 76,
        "velocity": 0,
        "subtype": "noteOff"
      },
      {
        "deltaTime": 0,
        "channel": 0,
        "type": "channel",
        "noteNumber": 69,
        "velocity": 100,
        "subtype": "noteOn"
      },
      {
        "deltaTime": 120,
        "channel": 0,
        "type": "channel",
        "noteNumber": 69,
        "velocity": 0,
        "subtype": "noteOff"
      },
      {
        "deltaTime": 0,
        "channel": 0,
        "type": "channel",
        "noteNumber": 76,
        "velocity": 100,
        "subtype": "noteOn"
      },
      {
        "deltaTime": 120,
        "channel": 0,
        "type": "channel",
        "noteNumber": 76,
        "velocity": 0,
        "subtype": "noteOff"
      },
      {
        "deltaTime": 0,
        "channel": 0,
        "type": "channel",
        "noteNumber": 81,
        "velocity": 100,
        "subtype": "noteOn"
      },
      {
        "deltaTime": 120,
        "channel": 0,
        "type": "channel",
        "noteNumber": 81,
        "velocity": 0,
        "subtype": "noteOff"
      },
      {
        "deltaTime": 0,
        "channel": 0,
        "type": "channel",
        "noteNumber": 80,
        "velocity": 100,
        "subtype": "noteOn"
      },
      {
        "deltaTime": 120,
        "channel": 0,
        "type": "channel",
        "noteNumber": 80,
        "velocity": 0,
        "subtype": "noteOff"
      },
      {
        "deltaTime": 0,
        "channel": 0,
        "type": "channel",
        "noteNumber": 81,
        "velocity": 100,
        "subtype": "noteOn"
      },
      {
        "deltaTime": 120,
        "channel": 0,
        "type": "channel",
        "noteNumber": 81,
        "velocity": 0,
        "subtype": "noteOff"
      },
      {
        "deltaTime": 0,
        "channel": 0,
        "type": "channel",
        "noteNumber": 84,
        "velocity": 100,
        "subtype": "noteOn"
      },
      {
        "deltaTime": 120,
        "channel": 0,
        "type": "channel",
        "noteNumber": 84,
        "velocity": 0,
        "subtype": "noteOff"
      },
      {
        "deltaTime": 0,
        "channel": 0,
        "type": "channel",
        "noteNumber": 81,
        "velocity": 100,
        "subtype": "noteOn"
      },
      {
        "deltaTime": 120,
        "channel": 0,
        "type": "channel",
        "noteNumber": 81,
        "velocity": 0,
        "subtype": "noteOff"
      },
      {
        "deltaTime": 0,
        "channel": 0,
        "type": "channel",
        "noteNumber": 76,
        "velocity": 100,
        "subtype": "noteOn"
      },
      {
        "deltaTime": 120,
        "channel": 0,
        "type": "channel",
        "noteNumber": 76,
        "velocity": 0,
        "subtype": "noteOff"
      },
      {
        "deltaTime": 0,
        "channel": 0,
        "type": "channel",
        "noteNumber": 69,
        "velocity": 100,
        "subtype": "noteOn"
      },
      {
        "deltaTime": 120,
        "channel": 0,
        "type": "channel",
        "noteNumber": 69,
        "velocity": 0,
        "subtype": "noteOff"
      },
      {
        "deltaTime": 0,
        "channel": 0,
        "type": "channel",
        "noteNumber": 72,
        "velocity": 100,
        "subtype": "noteOn"
      },
      {
        "deltaTime": 120,
        "channel": 0,
        "type": "channel",
        "noteNumber": 72,
        "velocity": 0,
        "subtype": "noteOff"
      },
      {
        "deltaTime": 0,
        "channel": 0,
        "type": "channel",
        "noteNumber": 76,
        "velocity": 100,
        "subtype": "noteOn"
      },
      {
        "deltaTime": 120,
        "channel": 0,
        "type": "channel",
        "noteNumber": 76,
        "velocity": 0,
        "subtype": "noteOff"
      },
      {
        "deltaTime": 0,
        "channel": 0,
        "type": "channel",
        "noteNumber": 77,
        "velocity": 100,
        "subtype": "noteOn"
      },
      {
        "deltaTime": 120,
        "channel": 0,
        "type": "channel",
        "noteNumber": 77,
        "velocity": 0,
        "subtype": "noteOff"
      },
      {
        "deltaTime": 0,
        "channel": 0,
        "type": "channel",
        "noteNumber": 68,
        "velocity": 100,
        "subtype": "noteOn"
      },
      {
        "deltaTime": 120,
        "channel": 0,
        "type": "channel",
        "noteNumber": 68,
        "velocity": 0,
        "subtype": "noteOff"
      },
      {
        "deltaTime": 0,
        "channel": 0,
        "type": "channel",
        "noteNumber": 77,
        "velocity": 100,
        "subtype": "noteOn"
      },
      {
        "deltaTime": 120,
        "channel": 0,
        "type": "channel",
        "noteNumber": 77,
        "velocity": 0,
        "subtype": "noteOff"
      },
      {
        "deltaTime": 0,
        "channel": 0,
        "type": "channel",
        "noteNumber": 76,
        "velocity": 100,
        "subtype": "noteOn"
      },
      {
        "deltaTime": 120,
        "channel": 0,
        "type": "channel",
        "noteNumber": 76,
        "velocity": 0,
        "subtype": "noteOff"
      },
      {
        "deltaTime": 0,
        "channel": 0,
        "type": "channel",
        "noteNumber": 74,
        "velocity": 100,
        "subtype": "noteOn"
      },
      {
        "deltaTime": 120,
        "channel": 0,
        "type": "channel",
        "noteNumber": 74,
        "velocity": 0,
        "subtype": "noteOff"
      },
      {
        "deltaTime": 0,
        "channel": 0,
        "type": "channel",
        "noteNumber": 72,
        "velocity": 100,
        "subtype": "noteOn"
      },
      {
        "deltaTime": 120,
        "channel": 0,
        "type": "channel",
        "noteNumber": 72,
        "velocity": 0,
        "subtype": "noteOff"
      },
      {
        "deltaTime": 0,
        "channel": 0,
        "type": "channel",
        "noteNumber": 76,
        "velocity": 100,
        "subtype": "noteOn"
      },
      {
        "deltaTime": 120,
        "channel": 0,
        "type": "channel",
        "noteNumber": 76,
        "velocity": 0,
        "subtype": "noteOff"
      },
      {
        "deltaTime": 0,
        "channel": 0,
        "type": "channel",
        "noteNumber": 80,
        "velocity": 100,
        "subtype": "noteOn"
      },
      {
        "deltaTime": 120,
        "channel": 0,
        "type": "channel",
        "noteNumber": 80,
        "velocity": 0,
        "subtype": "noteOff"
      },
      {
        "deltaTime": 0,
        "channel": 0,
        "type": "channel",
        "noteNumber": 81,
        "velocity": 100,
        "subtype": "noteOn"
      },
      {
        "deltaTime": 120,
        "channel": 0,
        "type": "channel",
        "noteNumber": 81,
        "velocity": 0,
        "subtype": "noteOff"
      },
      {
        "deltaTime": 0,
        "channel": 0,
        "type": "channel",
        "noteNumber": 64,
        "velocity": 100,
        "subtype": "noteOn"
      },
      {
        "deltaTime": 120,
        "channel": 0,
        "type": "channel",
        "noteNumber": 64,
        "velocity": 0,
        "subtype": "noteOff"
      },
      {
        "deltaTime": 0,
        "channel": 0,
        "type": "channel",
        "noteNumber": 74,
        "velocity": 100,
        "subtype": "noteOn"
      },
      {
        "deltaTime": 120,
        "channel": 0,
        "type": "channel",
        "noteNumber": 74,
        "velocity": 0,
        "subtype": "noteOff"
      },
      {
        "deltaTime": 0,
        "channel": 0,
        "type": "channel",
        "noteNumber": 72,
        "velocity": 100,
        "subtype": "noteOn"
      },
      {
        "deltaTime": 120,
        "channel": 0,
        "type": "channel",
        "noteNumber": 72,
        "velocity": 0,
        "subtype": "noteOff"
      },
      {
        "deltaTime": 0,
        "channel": 0,
        "type": "channel",
        "noteNumber": 71,
        "velocity": 100,
        "subtype": "noteOn"
      },
      {
        "deltaTime": 120,
        "channel": 0,
        "type": "channel",
        "noteNumber": 71,
        "velocity": 0,
        "subtype": "noteOff"
      },
      {
        "deltaTime": 0,
        "channel": 0,
        "type": "channel",
        "noteNumber": 69,
        "velocity": 100,
        "subtype": "noteOn"
      },
      {
        "deltaTime": 120,
        "channel": 0,
        "type": "channel",
        "noteNumber": 69,
        "velocity": 0,
        "subtype": "noteOff"
      },
      {
        "deltaTime": 0,
        "channel": 0,
        "type": "channel",
        "noteNumber": 72,
        "velocity": 100,
        "subtype": "noteOn"
      },
      {
        "deltaTime": 120,
        "channel": 0,
        "type": "channel",
        "noteNumber": 72,
        "velocity": 0,
        "subtype": "noteOff"
      },
      {
        "deltaTime": 0,
        "channel": 0,
        "type": "channel",
        "noteNumber": 76,
        "velocity": 100,
        "subtype": "noteOn"
      },
      {
        "deltaTime": 120,
        "channel": 0,
        "type": "channel",
        "noteNumber": 76,
        "velocity": 0,
        "subtype": "noteOff"
      },
      {
        "deltaTime": 0,
        "channel": 0,
        "type": "channel",
        "noteNumber": 77,
        "velocity": 100,
        "subtype": "noteOn"
      },
      {
        "deltaTime": 120,
        "channel": 0,
        "type": "channel",
        "noteNumber": 77,
        "velocity": 0,
        "subtype": "noteOff"
      },
      {
        "deltaTime": 0,
        "channel": 0,
        "type": "channel",
        "noteNumber": 68,
        "velocity": 100,
        "subtype": "noteOn"
      },
      {
        "deltaTime": 120,
        "channel": 0,
        "type": "channel",
        "noteNumber": 68,
        "velocity": 0,
        "subtype": "noteOff"
      },
      {
        "deltaTime": 0,
        "channel": 0,
        "type": "channel",
        "noteNumber": 77,
        "velocity": 100,
        "subtype": "noteOn"
      },
      {
        "deltaTime": 120,
        "channel": 0,
        "type": "channel",
        "noteNumber": 77,
        "velocity": 0,
        "subtype": "noteOff"
      },
      {
        "deltaTime": 0,
        "channel": 0,
        "type": "channel",
        "noteNumber": 76,
        "velocity": 100,
        "subtype": "noteOn"
      },
      {
        "deltaTime": 120,
        "channel": 0,
        "type": "channel",
        "noteNumber": 76,
        "velocity": 0,
        "subtype": "noteOff"
      },
      {
        "deltaTime": 0,
        "channel": 0,
        "type": "channel",
        "noteNumber": 74,
        "velocity": 100,
        "subtype": "noteOn"
      },
      {
        "deltaTime": 120,
        "channel": 0,
        "type": "channel",
        "noteNumber": 74,
        "velocity": 0,
        "subtype": "noteOff"
      },
      {
        "deltaTime": 0,
        "channel": 0,
        "type": "channel",
        "noteNumber": 72,
        "velocity": 100,
        "subtype": "noteOn"
      },
      {
        "deltaTime": 120,
        "channel": 0,
        "type": "channel",
        "noteNumber": 72,
        "velocity": 0,
        "subtype": "noteOff"
      },
      {
        "deltaTime": 0,
        "channel": 0,
        "type": "channel",
        "noteNumber": 76,
        "velocity": 100,
        "subtype": "noteOn"
      },
      {
        "deltaTime": 120,
        "channel": 0,
        "type": "channel",
        "noteNumber": 76,
        "velocity": 0,
        "subtype": "noteOff"
      },
      {
        "deltaTime": 0,
        "channel": 0,
        "type": "channel",
        "noteNumber": 80,
        "velocity": 100,
        "subtype": "noteOn"
      },
      {
        "deltaTime": 120,
        "channel": 0,
        "type": "channel",
        "noteNumber": 80,
        "velocity": 0,
        "subtype": "noteOff"
      },
      {
        "deltaTime": 0,
        "channel": 0,
        "type": "channel",
        "noteNumber": 81,
        "velocity": 100,
        "subtype": "noteOn"
      },
      {
        "deltaTime": 120,
        "channel": 0,
        "type": "channel",
        "noteNumber": 81,
        "velocity": 0,
        "subtype": "noteOff"
      },
      {
        "deltaTime": 0,
        "channel": 0,
        "type": "channel",
        "noteNumber": 64,
        "velocity": 100,
        "subtype": "noteOn"
      },
      {
        "deltaTime": 120,
        "channel": 0,
        "type": "channel",
        "noteNumber": 64,
        "velocity": 0,
        "subtype": "noteOff"
      },
      {
        "deltaTime": 0,
        "channel": 0,
        "type": "channel",
        "noteNumber": 74,
        "velocity": 100,
        "subtype": "noteOn"
      },
      {
        "deltaTime": 120,
        "channel": 0,
        "type": "channel",
        "noteNumber": 74,
        "velocity": 0,
        "subtype": "noteOff"
      },
      {
        "deltaTime": 0,
        "channel": 0,
        "type": "channel",
        "noteNumber": 72,
        "velocity": 100,
        "subtype": "noteOn"
      },
      {
        "deltaTime": 120,
        "channel": 0,
        "type": "channel",
        "noteNumber": 72,
        "velocity": 0,
        "subtype": "noteOff"
      },
      {
        "deltaTime": 0,
        "channel": 0,
        "type": "channel",
        "noteNumber": 71,
        "velocity": 100,
        "subtype": "noteOn"
      },
      {
        "deltaTime": 120,
        "channel": 0,
        "type": "channel",
        "noteNumber": 71,
        "velocity": 0,
        "subtype": "noteOff"
      },
      {
        "deltaTime": 0,
        "channel": 0,
        "type": "channel",
        "noteNumber": 69,
        "velocity": 100,
        "subtype": "noteOn"
      },
      {
        "deltaTime": 120,
        "channel": 0,
        "type": "channel",
        "noteNumber": 69,
        "velocity": 0,
        "subtype": "noteOff"
      },
      {
        "deltaTime": 0,
        "channel": 0,
        "type": "channel",
        "noteNumber": 72,
        "velocity": 100,
        "subtype": "noteOn"
      },
      {
        "deltaTime": 120,
        "channel": 0,
        "type": "channel",
        "noteNumber": 72,
        "velocity": 0,
        "subtype": "noteOff"
      },
      {
        "deltaTime": 0,
        "channel": 0,
        "type": "channel",
        "noteNumber": 68,
        "velocity": 100,
        "subtype": "noteOn"
      },
      {
        "deltaTime": 120,
        "channel": 0,
        "type": "channel",
        "noteNumber": 68,
        "velocity": 0,
        "subtype": "noteOff"
      },
      {
        "deltaTime": 0,
        "channel": 0,
        "type": "channel",
        "noteNumber": 69,
        "velocity": 100,
        "subtype": "noteOn"
      },
      {
        "deltaTime": 120,
        "channel": 0,
        "type": "channel",
        "noteNumber": 69,
        "velocity": 0,
        "subtype": "noteOff"
      },
      {
        "deltaTime": 0,
        "channel": 0,
        "type": "channel",
        "noteNumber": 65,
        "velocity": 100,
        "subtype": "noteOn"
      },
      {
        "deltaTime": 120,
        "channel": 0,
        "type": "channel",
        "noteNumber": 65,
        "velocity": 0,
        "subtype": "noteOff"
      },
      {
        "deltaTime": 0,
        "channel": 0,
        "type": "channel",
        "noteNumber": 74,
        "velocity": 100,
        "subtype": "noteOn"
      },
      {
        "deltaTime": 120,
        "channel": 0,
        "type": "channel",
        "noteNumber": 74,
        "velocity": 0,
        "subtype": "noteOff"
      },
      {
        "deltaTime": 0,
        "channel": 0,
        "type": "channel",
        "noteNumber": 68,
        "velocity": 100,
        "subtype": "noteOn"
      },
      {
        "deltaTime": 120,
        "channel": 0,
        "type": "channel",
        "noteNumber": 68,
        "velocity": 0,
        "subtype": "noteOff"
      },
      {
        "deltaTime": 0,
        "channel": 0,
        "type": "channel",
        "noteNumber": 69,
        "velocity": 100,
        "subtype": "noteOn"
      },
      {
        "deltaTime": 120,
        "channel": 0,
        "type": "channel",
        "noteNumber": 69,
        "velocity": 0,
        "subtype": "noteOff"
      },
      {
        "deltaTime": 0,
        "channel": 0,
        "type": "channel",
        "noteNumber": 64,
        "velocity": 100,
        "subtype": "noteOn"
      },
      {
        "deltaTime": 120,
        "channel": 0,
        "type": "channel",
        "noteNumber": 64,
        "velocity": 0,
        "subtype": "noteOff"
      },
      {
        "deltaTime": 0,
        "channel": 0,
        "type": "channel",
        "noteNumber": 72,
        "velocity": 100,
        "subtype": "noteOn"
      },
      {
        "deltaTime": 120,
        "channel": 0,
        "type": "channel",
        "noteNumber": 72,
        "velocity": 0,
        "subtype": "noteOff"
      },
      {
        "deltaTime": 0,
        "channel": 0,
        "type": "channel",
        "noteNumber": 68,
        "velocity": 100,
        "subtype": "noteOn"
      },
      {
        "deltaTime": 120,
        "channel": 0,
        "type": "channel",
        "noteNumber": 68,
        "velocity": 0,
        "subtype": "noteOff"
      },
      {
        "deltaTime": 0,
        "channel": 0,
        "type": "channel",
        "noteNumber": 69,
        "velocity": 100,
        "subtype": "noteOn"
      },
      {
        "deltaTime": 120,
        "channel": 0,
        "type": "channel",
        "noteNumber": 69,
        "velocity": 0,
        "subtype": "noteOff"
      },
      {
        "deltaTime": 0,
        "channel": 0,
        "type": "channel",
        "noteNumber": 62,
        "velocity": 100,
        "subtype": "noteOn"
      },
      {
        "deltaTime": 120,
        "channel": 0,
        "type": "channel",
        "noteNumber": 62,
        "velocity": 0,
        "subtype": "noteOff"
      },
      {
        "deltaTime": 0,
        "channel": 0,
        "type": "channel",
        "noteNumber": 72,
        "velocity": 100,
        "subtype": "noteOn"
      },
      {
        "deltaTime": 120,
        "channel": 0,
        "type": "channel",
        "noteNumber": 72,
        "velocity": 0,
        "subtype": "noteOff"
      },
      {
        "deltaTime": 0,
        "channel": 0,
        "type": "channel",
        "noteNumber": 71,
        "velocity": 100,
        "subtype": "noteOn"
      },
      {
        "deltaTime": 120,
        "channel": 0,
        "type": "channel",
        "noteNumber": 71,
        "velocity": 0,
        "subtype": "noteOff"
      },
      {
        "deltaTime": 0,
        "channel": 0,
        "type": "channel",
        "noteNumber": 69,
        "velocity": 100,
        "subtype": "noteOn"
      },
      {
        "deltaTime": 120,
        "channel": 0,
        "type": "channel",
        "noteNumber": 69,
        "velocity": 0,
        "subtype": "noteOff"
      },
      {
        "deltaTime": 0,
        "channel": 0,
        "type": "channel",
        "noteNumber": 68,
        "velocity": 100,
        "subtype": "noteOn"
      },
      {
        "deltaTime": 120,
        "channel": 0,
        "type": "channel",
        "noteNumber": 68,
        "velocity": 0,
        "subtype": "noteOff"
      },
      {
        "deltaTime": 0,
        "channel": 0,
        "type": "channel",
        "noteNumber": 64,
        "velocity": 100,
        "subtype": "noteOn"
      },
      {
        "deltaTime": 120,
        "channel": 0,
        "type": "channel",
        "noteNumber": 64,
        "velocity": 0,
        "subtype": "noteOff"
      },
      {
        "deltaTime": 0,
        "channel": 0,
        "type": "channel",
        "noteNumber": 68,
        "velocity": 100,
        "subtype": "noteOn"
      },
      {
        "deltaTime": 120,
        "channel": 0,
        "type": "channel",
        "noteNumber": 68,
        "velocity": 0,
        "subtype": "noteOff"
      },
      {
        "deltaTime": 0,
        "channel": 0,
        "type": "channel",
        "noteNumber": 71,
        "velocity": 100,
        "subtype": "noteOn"
      },
      {
        "deltaTime": 120,
        "channel": 0,
        "type": "channel",
        "noteNumber": 71,
        "velocity": 0,
        "subtype": "noteOff"
      },
      {
        "deltaTime": 0,
        "channel": 0,
        "type": "channel",
        "noteNumber": 76,
        "velocity": 100,
        "subtype": "noteOn"
      },
      {
        "deltaTime": 120,
        "channel": 0,
        "type": "channel",
        "noteNumber": 76,
        "velocity": 0,
        "subtype": "noteOff"
      },
      {
        "deltaTime": 0,
        "channel": 0,
        "type": "channel",
        "noteNumber": 80,
        "velocity": 100,
        "subtype": "noteOn"
      },
      {
        "deltaTime": 120,
        "channel": 0,
        "type": "channel",
        "noteNumber": 80,
        "velocity": 0,
        "subtype": "noteOff"
      },
      {
        "deltaTime": 0,
        "channel": 0,
        "type": "channel",
        "noteNumber": 83,
        "velocity": 100,
        "subtype": "noteOn"
      },
      {
        "deltaTime": 120,
        "channel": 0,
        "type": "channel",
        "noteNumber": 83,
        "velocity": 0,
        "subtype": "noteOff"
      },
      {
        "deltaTime": 0,
        "channel": 0,
        "type": "channel",
        "noteNumber": 86,
        "velocity": 100,
        "subtype": "noteOn"
      },
      {
        "deltaTime": 120,
        "channel": 0,
        "type": "channel",
        "noteNumber": 86,
        "velocity": 0,
        "subtype": "noteOff"
      },
      {
        "deltaTime": 0,
        "channel": 0,
        "type": "channel",
        "noteNumber": 89,
        "velocity": 100,
        "subtype": "noteOn"
      },
      {
        "deltaTime": 120,
        "channel": 0,
        "type": "channel",
        "noteNumber": 89,
        "velocity": 0,
        "subtype": "noteOff"
      },
      {
        "deltaTime": 0,
        "channel": 0,
        "type": "channel",
        "noteNumber": 86,
        "velocity": 100,
        "subtype": "noteOn"
      },
      {
        "deltaTime": 120,
        "channel": 0,
        "type": "channel",
        "noteNumber": 86,
        "velocity": 0,
        "subtype": "noteOff"
      },
      {
        "deltaTime": 0,
        "channel": 0,
        "type": "channel",
        "noteNumber": 83,
        "velocity": 100,
        "subtype": "noteOn"
      },
      {
        "deltaTime": 120,
        "channel": 0,
        "type": "channel",
        "noteNumber": 83,
        "velocity": 0,
        "subtype": "noteOff"
      },
      {
        "deltaTime": 0,
        "channel": 0,
        "type": "channel",
        "noteNumber": 80,
        "velocity": 100,
        "subtype": "noteOn"
      },
      {
        "deltaTime": 120,
        "channel": 0,
        "type": "channel",
        "noteNumber": 80,
        "velocity": 0,
        "subtype": "noteOff"
      },
      {
        "deltaTime": 0,
        "channel": 0,
        "type": "channel",
        "noteNumber": 76,
        "velocity": 100,
        "subtype": "noteOn"
      },
      {
        "deltaTime": 120,
        "channel": 0,
        "type": "channel",
        "noteNumber": 76,
        "velocity": 0,
        "subtype": "noteOff"
      },
      {
        "deltaTime": 0,
        "channel": 0,
        "type": "channel",
        "noteNumber": 74,
        "velocity": 100,
        "subtype": "noteOn"
      },
      {
        "deltaTime": 120,
        "channel": 0,
        "type": "channel",
        "noteNumber": 74,
        "velocity": 0,
        "subtype": "noteOff"
      },
      {
        "deltaTime": 0,
        "channel": 0,
        "type": "channel",
        "noteNumber": 72,
        "velocity": 100,
        "subtype": "noteOn"
      },
      {
        "deltaTime": 120,
        "channel": 0,
        "type": "channel",
        "noteNumber": 72,
        "velocity": 0,
        "subtype": "noteOff"
      },
      {
        "deltaTime": 0,
        "channel": 0,
        "type": "channel",
        "noteNumber": 71,
        "velocity": 100,
        "subtype": "noteOn"
      },
      {
        "deltaTime": 120,
        "channel": 0,
        "type": "channel",
        "noteNumber": 71,
        "velocity": 0,
        "subtype": "noteOff"
      },
      {
        "deltaTime": 0,
        "channel": 0,
        "type": "channel",
        "noteNumber": 72,
        "velocity": 100,
        "subtype": "noteOn"
      },
      {
        "deltaTime": 120,
        "channel": 0,
        "type": "channel",
        "noteNumber": 72,
        "velocity": 0,
        "subtype": "noteOff"
      },
      {
        "deltaTime": 0,
        "channel": 0,
        "type": "channel",
        "noteNumber": 69,
        "velocity": 100,
        "subtype": "noteOn"
      },
      {
        "deltaTime": 120,
        "channel": 0,
        "type": "channel",
        "noteNumber": 69,
        "velocity": 0,
        "subtype": "noteOff"
      },
      {
        "deltaTime": 0,
        "channel": 0,
        "type": "channel",
        "noteNumber": 72,
        "velocity": 100,
        "subtype": "noteOn"
      },
      {
        "deltaTime": 120,
        "channel": 0,
        "type": "channel",
        "noteNumber": 72,
        "velocity": 0,
        "subtype": "noteOff"
      },
      {
        "deltaTime": 0,
        "channel": 0,
        "type": "channel",
        "noteNumber": 76,
        "velocity": 100,
        "subtype": "noteOn"
      },
      {
        "deltaTime": 120,
        "channel": 0,
        "type": "channel",
        "noteNumber": 76,
        "velocity": 0,
        "subtype": "noteOff"
      },
      {
        "deltaTime": 0,
        "channel": 0,
        "type": "channel",
        "noteNumber": 81,
        "velocity": 100,
        "subtype": "noteOn"
      },
      {
        "deltaTime": 120,
        "channel": 0,
        "type": "channel",
        "noteNumber": 81,
        "velocity": 0,
        "subtype": "noteOff"
      },
      {
        "deltaTime": 0,
        "channel": 0,
        "type": "channel",
        "noteNumber": 84,
        "velocity": 100,
        "subtype": "noteOn"
      },
      {
        "deltaTime": 120,
        "channel": 0,
        "type": "channel",
        "noteNumber": 84,
        "velocity": 0,
        "subtype": "noteOff"
      },
      {
        "deltaTime": 0,
        "channel": 0,
        "type": "channel",
        "noteNumber": 88,
        "velocity": 100,
        "subtype": "noteOn"
      },
      {
        "deltaTime": 120,
        "channel": 0,
        "type": "channel",
        "noteNumber": 88,
        "velocity": 0,
        "subtype": "noteOff"
      },
      {
        "deltaTime": 0,
        "channel": 0,
        "type": "channel",
        "noteNumber": 77,
        "velocity": 100,
        "subtype": "noteOn"
      },
      {
        "deltaTime": 120,
        "channel": 0,
        "type": "channel",
        "noteNumber": 77,
        "velocity": 0,
        "subtype": "noteOff"
      },
      {
        "deltaTime": 0,
        "channel": 0,
        "type": "channel",
        "noteNumber": 79,
        "velocity": 100,
        "subtype": "noteOn"
      },
      {
        "deltaTime": 120,
        "channel": 0,
        "type": "channel",
        "noteNumber": 79,
        "velocity": 0,
        "subtype": "noteOff"
      },
      {
        "deltaTime": 0,
        "channel": 0,
        "type": "channel",
        "noteNumber": 82,
        "velocity": 100,
        "subtype": "noteOn"
      },
      {
        "deltaTime": 120,
        "channel": 0,
        "type": "channel",
        "noteNumber": 82,
        "velocity": 0,
        "subtype": "noteOff"
      },
      {
        "deltaTime": 0,
        "channel": 0,
        "type": "channel",
        "noteNumber": 79,
        "velocity": 100,
        "subtype": "noteOn"
      },
      {
        "deltaTime": 120,
        "channel": 0,
        "type": "channel",
        "noteNumber": 79,
        "velocity": 0,
        "subtype": "noteOff"
      },
      {
        "deltaTime": 0,
        "channel": 0,
        "type": "channel",
        "noteNumber": 76,
        "velocity": 100,
        "subtype": "noteOn"
      },
      {
        "deltaTime": 120,
        "channel": 0,
        "type": "channel",
        "noteNumber": 76,
        "velocity": 0,
        "subtype": "noteOff"
      },
      {
        "deltaTime": 0,
        "channel": 0,
        "type": "channel",
        "noteNumber": 72,
        "velocity": 100,
        "subtype": "noteOn"
      },
      {
        "deltaTime": 120,
        "channel": 0,
        "type": "channel",
        "noteNumber": 72,
        "velocity": 0,
        "subtype": "noteOff"
      },
      {
        "deltaTime": 0,
        "channel": 0,
        "type": "channel",
        "noteNumber": 70,
        "velocity": 100,
        "subtype": "noteOn"
      },
      {
        "deltaTime": 120,
        "channel": 0,
        "type": "channel",
        "noteNumber": 70,
        "velocity": 0,
        "subtype": "noteOff"
      },
      {
        "deltaTime": 0,
        "channel": 0,
        "type": "channel",
        "noteNumber": 69,
        "velocity": 100,
        "subtype": "noteOn"
      },
      {
        "deltaTime": 120,
        "channel": 0,
        "type": "channel",
        "noteNumber": 69,
        "velocity": 0,
        "subtype": "noteOff"
      },
      {
        "deltaTime": 0,
        "channel": 0,
        "type": "channel",
        "noteNumber": 67,
        "velocity": 100,
        "subtype": "noteOn"
      },
      {
        "deltaTime": 120,
        "channel": 0,
        "type": "channel",
        "noteNumber": 67,
        "velocity": 0,
        "subtype": "noteOff"
      },
      {
        "deltaTime": 0,
        "channel": 0,
        "type": "channel",
        "noteNumber": 69,
        "velocity": 100,
        "subtype": "noteOn"
      },
      {
        "deltaTime": 120,
        "channel": 0,
        "type": "channel",
        "noteNumber": 69,
        "velocity": 0,
        "subtype": "noteOff"
      },
      {
        "deltaTime": 0,
        "channel": 0,
        "type": "channel",
        "noteNumber": 65,
        "velocity": 100,
        "subtype": "noteOn"
      },
      {
        "deltaTime": 120,
        "channel": 0,
        "type": "channel",
        "noteNumber": 65,
        "velocity": 0,
        "subtype": "noteOff"
      },
      {
        "deltaTime": 0,
        "channel": 0,
        "type": "channel",
        "noteNumber": 69,
        "velocity": 100,
        "subtype": "noteOn"
      },
      {
        "deltaTime": 120,
        "channel": 0,
        "type": "channel",
        "noteNumber": 69,
        "velocity": 0,
        "subtype": "noteOff"
      },
      {
        "deltaTime": 0,
        "channel": 0,
        "type": "channel",
        "noteNumber": 72,
        "velocity": 100,
        "subtype": "noteOn"
      },
      {
        "deltaTime": 120,
        "channel": 0,
        "type": "channel",
        "noteNumber": 72,
        "velocity": 0,
        "subtype": "noteOff"
      },
      {
        "deltaTime": 0,
        "channel": 0,
        "type": "channel",
        "noteNumber": 74,
        "velocity": 100,
        "subtype": "noteOn"
      },
      {
        "deltaTime": 120,
        "channel": 0,
        "type": "channel",
        "noteNumber": 74,
        "velocity": 0,
        "subtype": "noteOff"
      },
      {
        "deltaTime": 0,
        "channel": 0,
        "type": "channel",
        "noteNumber": 77,
        "velocity": 100,
        "subtype": "noteOn"
      },
      {
        "deltaTime": 120,
        "channel": 0,
        "type": "channel",
        "noteNumber": 77,
        "velocity": 0,
        "subtype": "noteOff"
      },
      {
        "deltaTime": 0,
        "channel": 0,
        "type": "channel",
        "noteNumber": 81,
        "velocity": 100,
        "subtype": "noteOn"
      },
      {
        "deltaTime": 120,
        "channel": 0,
        "type": "channel",
        "noteNumber": 81,
        "velocity": 0,
        "subtype": "noteOff"
      },
      {
        "deltaTime": 0,
        "channel": 0,
        "type": "channel",
        "noteNumber": 72,
        "velocity": 100,
        "subtype": "noteOn"
      },
      {
        "deltaTime": 120,
        "channel": 0,
        "type": "channel",
        "noteNumber": 72,
        "velocity": 0,
        "subtype": "noteOff"
      },
      {
        "deltaTime": 0,
        "channel": 0,
        "type": "channel",
        "noteNumber": 71,
        "velocity": 100,
        "subtype": "noteOn"
      },
      {
        "deltaTime": 120,
        "channel": 0,
        "type": "channel",
        "noteNumber": 71,
        "velocity": 0,
        "subtype": "noteOff"
      },
      {
        "deltaTime": 0,
        "channel": 0,
        "type": "channel",
        "noteNumber": 67,
        "velocity": 100,
        "subtype": "noteOn"
      },
      {
        "deltaTime": 120,
        "channel": 0,
        "type": "channel",
        "noteNumber": 67,
        "velocity": 0,
        "subtype": "noteOff"
      },
      {
        "deltaTime": 0,
        "channel": 0,
        "type": "channel",
        "noteNumber": 71,
        "velocity": 100,
        "subtype": "noteOn"
      },
      {
        "deltaTime": 120,
        "channel": 0,
        "type": "channel",
        "noteNumber": 71,
        "velocity": 0,
        "subtype": "noteOff"
      },
      {
        "deltaTime": 0,
        "channel": 0,
        "type": "channel",
        "noteNumber": 74,
        "velocity": 100,
        "subtype": "noteOn"
      },
      {
        "deltaTime": 120,
        "channel": 0,
        "type": "channel",
        "noteNumber": 74,
        "velocity": 0,
        "subtype": "noteOff"
      },
      {
        "deltaTime": 0,
        "channel": 0,
        "type": "channel",
        "noteNumber": 76,
        "velocity": 100,
        "subtype": "noteOn"
      },
      {
        "deltaTime": 120,
        "channel": 0,
        "type": "channel",
        "noteNumber": 76,
        "velocity": 0,
        "subtype": "noteOff"
      },
      {
        "deltaTime": 0,
        "channel": 0,
        "type": "channel",
        "noteNumber": 79,
        "velocity": 100,
        "subtype": "noteOn"
      },
      {
        "deltaTime": 120,
        "channel": 0,
        "type": "channel",
        "noteNumber": 79,
        "velocity": 0,
        "subtype": "noteOff"
      },
      {
        "deltaTime": 0,
        "channel": 0,
        "type": "channel",
        "noteNumber": 83,
        "velocity": 100,
        "subtype": "noteOn"
      },
      {
        "deltaTime": 120,
        "channel": 0,
        "type": "channel",
        "noteNumber": 83,
        "velocity": 0,
        "subtype": "noteOff"
      },
      {
        "deltaTime": 0,
        "channel": 0,
        "type": "channel",
        "noteNumber": 74,
        "velocity": 100,
        "subtype": "noteOn"
      },
      {
        "deltaTime": 120,
        "channel": 0,
        "type": "channel",
        "noteNumber": 74,
        "velocity": 0,
        "subtype": "noteOff"
      },
      {
        "deltaTime": 0,
        "channel": 0,
        "type": "channel",
        "noteNumber": 72,
        "velocity": 100,
        "subtype": "noteOn"
      },
      {
        "deltaTime": 120,
        "channel": 0,
        "type": "channel",
        "noteNumber": 72,
        "velocity": 0,
        "subtype": "noteOff"
      },
      {
        "deltaTime": 0,
        "channel": 0,
        "type": "channel",
        "noteNumber": 69,
        "velocity": 100,
        "subtype": "noteOn"
      },
      {
        "deltaTime": 120,
        "channel": 0,
        "type": "channel",
        "noteNumber": 69,
        "velocity": 0,
        "subtype": "noteOff"
      },
      {
        "deltaTime": 0,
        "channel": 0,
        "type": "channel",
        "noteNumber": 72,
        "velocity": 100,
        "subtype": "noteOn"
      },
      {
        "deltaTime": 120,
        "channel": 0,
        "type": "channel",
        "noteNumber": 72,
        "velocity": 0,
        "subtype": "noteOff"
      },
      {
        "deltaTime": 0,
        "channel": 0,
        "type": "channel",
        "noteNumber": 76,
        "velocity": 100,
        "subtype": "noteOn"
      },
      {
        "deltaTime": 120,
        "channel": 0,
        "type": "channel",
        "noteNumber": 76,
        "velocity": 0,
        "subtype": "noteOff"
      },
      {
        "deltaTime": 0,
        "channel": 0,
        "type": "channel",
        "noteNumber": 77,
        "velocity": 100,
        "subtype": "noteOn"
      },
      {
        "deltaTime": 120,
        "channel": 0,
        "type": "channel",
        "noteNumber": 77,
        "velocity": 0,
        "subtype": "noteOff"
      },
      {
        "deltaTime": 0,
        "channel": 0,
        "type": "channel",
        "noteNumber": 81,
        "velocity": 100,
        "subtype": "noteOn"
      },
      {
        "deltaTime": 120,
        "channel": 0,
        "type": "channel",
        "noteNumber": 81,
        "velocity": 0,
        "subtype": "noteOff"
      },
      {
        "deltaTime": 0,
        "channel": 0,
        "type": "channel",
        "noteNumber": 84,
        "velocity": 100,
        "subtype": "noteOn"
      },
      {
        "deltaTime": 120,
        "channel": 0,
        "type": "channel",
        "noteNumber": 84,
        "velocity": 0,
        "subtype": "noteOff"
      },
      {
        "deltaTime": 0,
        "channel": 0,
        "type": "channel",
        "noteNumber": 76,
        "velocity": 100,
        "subtype": "noteOn"
      },
      {
        "deltaTime": 120,
        "channel": 0,
        "type": "channel",
        "noteNumber": 76,
        "velocity": 0,
        "subtype": "noteOff"
      },
      {
        "deltaTime": 0,
        "channel": 0,
        "type": "channel",
        "noteNumber": 74,
        "velocity": 100,
        "subtype": "noteOn"
      },
      {
        "deltaTime": 120,
        "channel": 0,
        "type": "channel",
        "noteNumber": 74,
        "velocity": 0,
        "subtype": "noteOff"
      },
      {
        "deltaTime": 0,
        "channel": 0,
        "type": "channel",
        "noteNumber": 71,
        "velocity": 100,
        "subtype": "noteOn"
      },
      {
        "deltaTime": 120,
        "channel": 0,
        "type": "channel",
        "noteNumber": 71,
        "velocity": 0,
        "subtype": "noteOff"
      },
      {
        "deltaTime": 0,
        "channel": 0,
        "type": "channel",
        "noteNumber": 74,
        "velocity": 100,
        "subtype": "noteOn"
      },
      {
        "deltaTime": 120,
        "channel": 0,
        "type": "channel",
        "noteNumber": 74,
        "velocity": 0,
        "subtype": "noteOff"
      },
      {
        "deltaTime": 0,
        "channel": 0,
        "type": "channel",
        "noteNumber": 78,
        "velocity": 100,
        "subtype": "noteOn"
      },
      {
        "deltaTime": 120,
        "channel": 0,
        "type": "channel",
        "noteNumber": 78,
        "velocity": 0,
        "subtype": "noteOff"
      },
      {
        "deltaTime": 0,
        "channel": 0,
        "type": "channel",
        "noteNumber": 79,
        "velocity": 100,
        "subtype": "noteOn"
      },
      {
        "deltaTime": 120,
        "channel": 0,
        "type": "channel",
        "noteNumber": 79,
        "velocity": 0,
        "subtype": "noteOff"
      },
      {
        "deltaTime": 0,
        "channel": 0,
        "type": "channel",
        "noteNumber": 83,
        "velocity": 100,
        "subtype": "noteOn"
      },
      {
        "deltaTime": 120,
        "channel": 0,
        "type": "channel",
        "noteNumber": 83,
        "velocity": 0,
        "subtype": "noteOff"
      },
      {
        "deltaTime": 0,
        "channel": 0,
        "type": "channel",
        "noteNumber": 86,
        "velocity": 100,
        "subtype": "noteOn"
      },
      {
        "deltaTime": 120,
        "channel": 0,
        "type": "channel",
        "noteNumber": 86,
        "velocity": 0,
        "subtype": "noteOff"
      },
      {
        "deltaTime": 0,
        "channel": 0,
        "type": "channel",
        "noteNumber": 77,
        "velocity": 100,
        "subtype": "noteOn"
      },
      {
        "deltaTime": 120,
        "channel": 0,
        "type": "channel",
        "noteNumber": 77,
        "velocity": 0,
        "subtype": "noteOff"
      },
      {
        "deltaTime": 0,
        "channel": 0,
        "type": "channel",
        "noteNumber": 76,
        "velocity": 100,
        "subtype": "noteOn"
      },
      {
        "deltaTime": 120,
        "channel": 0,
        "type": "channel",
        "noteNumber": 76,
        "velocity": 0,
        "subtype": "noteOff"
      },
      {
        "deltaTime": 0,
        "channel": 0,
        "type": "channel",
        "noteNumber": 79,
        "velocity": 100,
        "subtype": "noteOn"
      },
      {
        "deltaTime": 120,
        "channel": 0,
        "type": "channel",
        "noteNumber": 79,
        "velocity": 0,
        "subtype": "noteOff"
      },
      {
        "deltaTime": 0,
        "channel": 0,
        "type": "channel",
        "noteNumber": 84,
        "velocity": 100,
        "subtype": "noteOn"
      },
      {
        "deltaTime": 120,
        "channel": 0,
        "type": "channel",
        "noteNumber": 84,
        "velocity": 0,
        "subtype": "noteOff"
      },
      {
        "deltaTime": 0,
        "channel": 0,
        "type": "channel",
        "noteNumber": 83,
        "velocity": 100,
        "subtype": "noteOn"
      },
      {
        "deltaTime": 120,
        "channel": 0,
        "type": "channel",
        "noteNumber": 83,
        "velocity": 0,
        "subtype": "noteOff"
      },
      {
        "deltaTime": 0,
        "channel": 0,
        "type": "channel",
        "noteNumber": 84,
        "velocity": 100,
        "subtype": "noteOn"
      },
      {
        "deltaTime": 120,
        "channel": 0,
        "type": "channel",
        "noteNumber": 84,
        "velocity": 0,
        "subtype": "noteOff"
      },
      {
        "deltaTime": 0,
        "channel": 0,
        "type": "channel",
        "noteNumber": 88,
        "velocity": 100,
        "subtype": "noteOn"
      },
      {
        "deltaTime": 120,
        "channel": 0,
        "type": "channel",
        "noteNumber": 88,
        "velocity": 0,
        "subtype": "noteOff"
      },
      {
        "deltaTime": 0,
        "channel": 0,
        "type": "channel",
        "noteNumber": 84,
        "velocity": 100,
        "subtype": "noteOn"
      },
      {
        "deltaTime": 120,
        "channel": 0,
        "type": "channel",
        "noteNumber": 84,
        "velocity": 0,
        "subtype": "noteOff"
      },
      {
        "deltaTime": 0,
        "channel": 0,
        "type": "channel",
        "noteNumber": 79,
        "velocity": 100,
        "subtype": "noteOn"
      },
      {
        "deltaTime": 120,
        "channel": 0,
        "type": "channel",
        "noteNumber": 79,
        "velocity": 0,
        "subtype": "noteOff"
      },
      {
        "deltaTime": 0,
        "channel": 0,
        "type": "channel",
        "noteNumber": 72,
        "velocity": 100,
        "subtype": "noteOn"
      },
      {
        "deltaTime": 120,
        "channel": 0,
        "type": "channel",
        "noteNumber": 72,
        "velocity": 0,
        "subtype": "noteOff"
      },
      {
        "deltaTime": 0,
        "channel": 0,
        "type": "channel",
        "noteNumber": 79,
        "velocity": 100,
        "subtype": "noteOn"
      },
      {
        "deltaTime": 120,
        "channel": 0,
        "type": "channel",
        "noteNumber": 79,
        "velocity": 0,
        "subtype": "noteOff"
      },
      {
        "deltaTime": 0,
        "channel": 0,
        "type": "channel",
        "noteNumber": 84,
        "velocity": 100,
        "subtype": "noteOn"
      },
      {
        "deltaTime": 120,
        "channel": 0,
        "type": "channel",
        "noteNumber": 84,
        "velocity": 0,
        "subtype": "noteOff"
      },
      {
        "deltaTime": 0,
        "channel": 0,
        "type": "channel",
        "noteNumber": 83,
        "velocity": 100,
        "subtype": "noteOn"
      },
      {
        "deltaTime": 120,
        "channel": 0,
        "type": "channel",
        "noteNumber": 83,
        "velocity": 0,
        "subtype": "noteOff"
      },
      {
        "deltaTime": 0,
        "channel": 0,
        "type": "channel",
        "noteNumber": 84,
        "velocity": 100,
        "subtype": "noteOn"
      },
      {
        "deltaTime": 120,
        "channel": 0,
        "type": "channel",
        "noteNumber": 84,
        "velocity": 0,
        "subtype": "noteOff"
      },
      {
        "deltaTime": 0,
        "channel": 0,
        "type": "channel",
        "noteNumber": 88,
        "velocity": 100,
        "subtype": "noteOn"
      },
      {
        "deltaTime": 120,
        "channel": 0,
        "type": "channel",
        "noteNumber": 88,
        "velocity": 0,
        "subtype": "noteOff"
      },
      {
        "deltaTime": 0,
        "channel": 0,
        "type": "channel",
        "noteNumber": 84,
        "velocity": 100,
        "subtype": "noteOn"
      },
      {
        "deltaTime": 120,
        "channel": 0,
        "type": "channel",
        "noteNumber": 84,
        "velocity": 0,
        "subtype": "noteOff"
      },
      {
        "deltaTime": 0,
        "channel": 0,
        "type": "channel",
        "noteNumber": 79,
        "velocity": 100,
        "subtype": "noteOn"
      },
      {
        "deltaTime": 120,
        "channel": 0,
        "type": "channel",
        "noteNumber": 79,
        "velocity": 0,
        "subtype": "noteOff"
      },
      {
        "deltaTime": 0,
        "channel": 0,
        "type": "channel",
        "noteNumber": 72,
        "velocity": 100,
        "subtype": "noteOn"
      },
      {
        "deltaTime": 120,
        "channel": 0,
        "type": "channel",
        "noteNumber": 72,
        "velocity": 0,
        "subtype": "noteOff"
      },
      {
        "deltaTime": 0,
        "channel": 0,
        "type": "channel",
        "noteNumber": 79,
        "velocity": 100,
        "subtype": "noteOn"
      },
      {
        "deltaTime": 120,
        "channel": 0,
        "type": "channel",
        "noteNumber": 79,
        "velocity": 0,
        "subtype": "noteOff"
      },
      {
        "deltaTime": 0,
        "channel": 0,
        "type": "channel",
        "noteNumber": 82,
        "velocity": 100,
        "subtype": "noteOn"
      },
      {
        "deltaTime": 120,
        "channel": 0,
        "type": "channel",
        "noteNumber": 82,
        "velocity": 0,
        "subtype": "noteOff"
      },
      {
        "deltaTime": 0,
        "channel": 0,
        "type": "channel",
        "noteNumber": 81,
        "velocity": 100,
        "subtype": "noteOn"
      },
      {
        "deltaTime": 120,
        "channel": 0,
        "type": "channel",
        "noteNumber": 81,
        "velocity": 0,
        "subtype": "noteOff"
      },
      {
        "deltaTime": 0,
        "channel": 0,
        "type": "channel",
        "noteNumber": 82,
        "velocity": 100,
        "subtype": "noteOn"
      },
      {
        "deltaTime": 120,
        "channel": 0,
        "type": "channel",
        "noteNumber": 82,
        "velocity": 0,
        "subtype": "noteOff"
      },
      {
        "deltaTime": 0,
        "channel": 0,
        "type": "channel",
        "noteNumber": 88,
        "velocity": 100,
        "subtype": "noteOn"
      },
      {
        "deltaTime": 120,
        "channel": 0,
        "type": "channel",
        "noteNumber": 88,
        "velocity": 0,
        "subtype": "noteOff"
      },
      {
        "deltaTime": 0,
        "channel": 0,
        "type": "channel",
        "noteNumber": 82,
        "velocity": 100,
        "subtype": "noteOn"
      },
      {
        "deltaTime": 120,
        "channel": 0,
        "type": "channel",
        "noteNumber": 82,
        "velocity": 0,
        "subtype": "noteOff"
      },
      {
        "deltaTime": 0,
        "channel": 0,
        "type": "channel",
        "noteNumber": 79,
        "velocity": 100,
        "subtype": "noteOn"
      },
      {
        "deltaTime": 120,
        "channel": 0,
        "type": "channel",
        "noteNumber": 79,
        "velocity": 0,
        "subtype": "noteOff"
      },
      {
        "deltaTime": 0,
        "channel": 0,
        "type": "channel",
        "noteNumber": 72,
        "velocity": 100,
        "subtype": "noteOn"
      },
      {
        "deltaTime": 120,
        "channel": 0,
        "type": "channel",
        "noteNumber": 72,
        "velocity": 0,
        "subtype": "noteOff"
      },
      {
        "deltaTime": 0,
        "channel": 0,
        "type": "channel",
        "noteNumber": 79,
        "velocity": 100,
        "subtype": "noteOn"
      },
      {
        "deltaTime": 120,
        "channel": 0,
        "type": "channel",
        "noteNumber": 79,
        "velocity": 0,
        "subtype": "noteOff"
      },
      {
        "deltaTime": 0,
        "channel": 0,
        "type": "channel",
        "noteNumber": 82,
        "velocity": 100,
        "subtype": "noteOn"
      },
      {
        "deltaTime": 120,
        "channel": 0,
        "type": "channel",
        "noteNumber": 82,
        "velocity": 0,
        "subtype": "noteOff"
      },
      {
        "deltaTime": 0,
        "channel": 0,
        "type": "channel",
        "noteNumber": 81,
        "velocity": 100,
        "subtype": "noteOn"
      },
      {
        "deltaTime": 120,
        "channel": 0,
        "type": "channel",
        "noteNumber": 81,
        "velocity": 0,
        "subtype": "noteOff"
      },
      {
        "deltaTime": 0,
        "channel": 0,
        "type": "channel",
        "noteNumber": 82,
        "velocity": 100,
        "subtype": "noteOn"
      },
      {
        "deltaTime": 120,
        "channel": 0,
        "type": "channel",
        "noteNumber": 82,
        "velocity": 0,
        "subtype": "noteOff"
      },
      {
        "deltaTime": 0,
        "channel": 0,
        "type": "channel",
        "noteNumber": 88,
        "velocity": 100,
        "subtype": "noteOn"
      },
      {
        "deltaTime": 120,
        "channel": 0,
        "type": "channel",
        "noteNumber": 88,
        "velocity": 0,
        "subtype": "noteOff"
      },
      {
        "deltaTime": 0,
        "channel": 0,
        "type": "channel",
        "noteNumber": 82,
        "velocity": 100,
        "subtype": "noteOn"
      },
      {
        "deltaTime": 120,
        "channel": 0,
        "type": "channel",
        "noteNumber": 82,
        "velocity": 0,
        "subtype": "noteOff"
      },
      {
        "deltaTime": 0,
        "channel": 0,
        "type": "channel",
        "noteNumber": 79,
        "velocity": 100,
        "subtype": "noteOn"
      },
      {
        "deltaTime": 120,
        "channel": 0,
        "type": "channel",
        "noteNumber": 79,
        "velocity": 0,
        "subtype": "noteOff"
      },
      {
        "deltaTime": 0,
        "channel": 0,
        "type": "channel",
        "noteNumber": 73,
        "velocity": 100,
        "subtype": "noteOn"
      },
      {
        "deltaTime": 120,
        "channel": 0,
        "type": "channel",
        "noteNumber": 73,
        "velocity": 0,
        "subtype": "noteOff"
      },
      {
        "deltaTime": 0,
        "channel": 0,
        "type": "channel",
        "noteNumber": 79,
        "velocity": 100,
        "subtype": "noteOn"
      },
      {
        "deltaTime": 120,
        "channel": 0,
        "type": "channel",
        "noteNumber": 79,
        "velocity": 0,
        "subtype": "noteOff"
      },
      {
        "deltaTime": 0,
        "channel": 0,
        "type": "channel",
        "noteNumber": 82,
        "velocity": 100,
        "subtype": "noteOn"
      },
      {
        "deltaTime": 120,
        "channel": 0,
        "type": "channel",
        "noteNumber": 82,
        "velocity": 0,
        "subtype": "noteOff"
      },
      {
        "deltaTime": 0,
        "channel": 0,
        "type": "channel",
        "noteNumber": 81,
        "velocity": 100,
        "subtype": "noteOn"
      },
      {
        "deltaTime": 120,
        "channel": 0,
        "type": "channel",
        "noteNumber": 81,
        "velocity": 0,
        "subtype": "noteOff"
      },
      {
        "deltaTime": 0,
        "channel": 0,
        "type": "channel",
        "noteNumber": 82,
        "velocity": 100,
        "subtype": "noteOn"
      },
      {
        "deltaTime": 120,
        "channel": 0,
        "type": "channel",
        "noteNumber": 82,
        "velocity": 0,
        "subtype": "noteOff"
      },
      {
        "deltaTime": 0,
        "channel": 0,
        "type": "channel",
        "noteNumber": 88,
        "velocity": 100,
        "subtype": "noteOn"
      },
      {
        "deltaTime": 120,
        "channel": 0,
        "type": "channel",
        "noteNumber": 88,
        "velocity": 0,
        "subtype": "noteOff"
      },
      {
        "deltaTime": 0,
        "channel": 0,
        "type": "channel",
        "noteNumber": 82,
        "velocity": 100,
        "subtype": "noteOn"
      },
      {
        "deltaTime": 120,
        "channel": 0,
        "type": "channel",
        "noteNumber": 82,
        "velocity": 0,
        "subtype": "noteOff"
      },
      {
        "deltaTime": 0,
        "channel": 0,
        "type": "channel",
        "noteNumber": 79,
        "velocity": 100,
        "subtype": "noteOn"
      },
      {
        "deltaTime": 120,
        "channel": 0,
        "type": "channel",
        "noteNumber": 79,
        "velocity": 0,
        "subtype": "noteOff"
      },
      {
        "deltaTime": 0,
        "channel": 0,
        "type": "channel",
        "noteNumber": 73,
        "velocity": 100,
        "subtype": "noteOn"
      },
      {
        "deltaTime": 120,
        "channel": 0,
        "type": "channel",
        "noteNumber": 73,
        "velocity": 0,
        "subtype": "noteOff"
      },
      {
        "deltaTime": 0,
        "channel": 0,
        "type": "channel",
        "noteNumber": 79,
        "velocity": 100,
        "subtype": "noteOn"
      },
      {
        "deltaTime": 120,
        "channel": 0,
        "type": "channel",
        "noteNumber": 79,
        "velocity": 0,
        "subtype": "noteOff"
      },
      {
        "deltaTime": 0,
        "channel": 0,
        "type": "channel",
        "noteNumber": 76,
        "velocity": 100,
        "subtype": "noteOn"
      },
      {
        "deltaTime": 120,
        "channel": 0,
        "type": "channel",
        "noteNumber": 76,
        "velocity": 0,
        "subtype": "noteOff"
      },
      {
        "deltaTime": 0,
        "channel": 0,
        "type": "channel",
        "noteNumber": 73,
        "velocity": 100,
        "subtype": "noteOn"
      },
      {
        "deltaTime": 120,
        "channel": 0,
        "type": "channel",
        "noteNumber": 73,
        "velocity": 0,
        "subtype": "noteOff"
      },
      {
        "deltaTime": 0,
        "channel": 0,
        "type": "channel",
        "noteNumber": 69,
        "velocity": 100,
        "subtype": "noteOn"
      },
      {
        "deltaTime": 120,
        "channel": 0,
        "type": "channel",
        "noteNumber": 69,
        "velocity": 0,
        "subtype": "noteOff"
      },
      {
        "deltaTime": 0,
        "channel": 0,
        "type": "channel",
        "noteNumber": 67,
        "velocity": 100,
        "subtype": "noteOn"
      },
      {
        "deltaTime": 120,
        "channel": 0,
        "type": "channel",
        "noteNumber": 67,
        "velocity": 0,
        "subtype": "noteOff"
      },
      {
        "deltaTime": 0,
        "channel": 0,
        "type": "channel",
        "noteNumber": 65,
        "velocity": 100,
        "subtype": "noteOn"
      },
      {
        "deltaTime": 120,
        "channel": 0,
        "type": "channel",
        "noteNumber": 65,
        "velocity": 0,
        "subtype": "noteOff"
      },
      {
        "deltaTime": 0,
        "channel": 0,
        "type": "channel",
        "noteNumber": 64,
        "velocity": 100,
        "subtype": "noteOn"
      },
      {
        "deltaTime": 120,
        "channel": 0,
        "type": "channel",
        "noteNumber": 64,
        "velocity": 0,
        "subtype": "noteOff"
      },
      {
        "deltaTime": 0,
        "channel": 0,
        "type": "channel",
        "noteNumber": 62,
        "velocity": 100,
        "subtype": "noteOn"
      },
      {
        "deltaTime": 120,
        "channel": 0,
        "type": "channel",
        "noteNumber": 62,
        "velocity": 0,
        "subtype": "noteOff"
      },
      {
        "deltaTime": 0,
        "channel": 0,
        "type": "channel",
        "noteNumber": 79,
        "velocity": 100,
        "subtype": "noteOn"
      },
      {
        "deltaTime": 120,
        "channel": 0,
        "type": "channel",
        "noteNumber": 79,
        "velocity": 0,
        "subtype": "noteOff"
      },
      {
        "deltaTime": 0,
        "channel": 0,
        "type": "channel",
        "noteNumber": 77,
        "velocity": 100,
        "subtype": "noteOn"
      },
      {
        "deltaTime": 120,
        "channel": 0,
        "type": "channel",
        "noteNumber": 77,
        "velocity": 0,
        "subtype": "noteOff"
      },
      {
        "deltaTime": 0,
        "channel": 0,
        "type": "channel",
        "noteNumber": 76,
        "velocity": 100,
        "subtype": "noteOn"
      },
      {
        "deltaTime": 120,
        "channel": 0,
        "type": "channel",
        "noteNumber": 76,
        "velocity": 0,
        "subtype": "noteOff"
      },
      {
        "deltaTime": 0,
        "channel": 0,
        "type": "channel",
        "noteNumber": 77,
        "velocity": 100,
        "subtype": "noteOn"
      },
      {
        "deltaTime": 120,
        "channel": 0,
        "type": "channel",
        "noteNumber": 77,
        "velocity": 0,
        "subtype": "noteOff"
      },
      {
        "deltaTime": 0,
        "channel": 0,
        "type": "channel",
        "noteNumber": 81,
        "velocity": 100,
        "subtype": "noteOn"
      },
      {
        "deltaTime": 120,
        "channel": 0,
        "type": "channel",
        "noteNumber": 81,
        "velocity": 0,
        "subtype": "noteOff"
      },
      {
        "deltaTime": 0,
        "channel": 0,
        "type": "channel",
        "noteNumber": 77,
        "velocity": 100,
        "subtype": "noteOn"
      },
      {
        "deltaTime": 120,
        "channel": 0,
        "type": "channel",
        "noteNumber": 77,
        "velocity": 0,
        "subtype": "noteOff"
      },
      {
        "deltaTime": 0,
        "channel": 0,
        "type": "channel",
        "noteNumber": 74,
        "velocity": 100,
        "subtype": "noteOn"
      },
      {
        "deltaTime": 120,
        "channel": 0,
        "type": "channel",
        "noteNumber": 74,
        "velocity": 0,
        "subtype": "noteOff"
      },
      {
        "deltaTime": 0,
        "channel": 0,
        "type": "channel",
        "noteNumber": 71,
        "velocity": 100,
        "subtype": "noteOn"
      },
      {
        "deltaTime": 120,
        "channel": 0,
        "type": "channel",
        "noteNumber": 71,
        "velocity": 0,
        "subtype": "noteOff"
      },
      {
        "deltaTime": 0,
        "channel": 0,
        "type": "channel",
        "noteNumber": 68,
        "velocity": 100,
        "subtype": "noteOn"
      },
      {
        "deltaTime": 120,
        "channel": 0,
        "type": "channel",
        "noteNumber": 68,
        "velocity": 0,
        "subtype": "noteOff"
      },
      {
        "deltaTime": 0,
        "channel": 0,
        "type": "channel",
        "noteNumber": 71,
        "velocity": 100,
        "subtype": "noteOn"
      },
      {
        "deltaTime": 120,
        "channel": 0,
        "type": "channel",
        "noteNumber": 71,
        "velocity": 0,
        "subtype": "noteOff"
      },
      {
        "deltaTime": 0,
        "channel": 0,
        "type": "channel",
        "noteNumber": 74,
        "velocity": 100,
        "subtype": "noteOn"
      },
      {
        "deltaTime": 120,
        "channel": 0,
        "type": "channel",
        "noteNumber": 74,
        "velocity": 0,
        "subtype": "noteOff"
      },
      {
        "deltaTime": 0,
        "channel": 0,
        "type": "channel",
        "noteNumber": 76,
        "velocity": 100,
        "subtype": "noteOn"
      },
      {
        "deltaTime": 120,
        "channel": 0,
        "type": "channel",
        "noteNumber": 76,
        "velocity": 0,
        "subtype": "noteOff"
      },
      {
        "deltaTime": 0,
        "channel": 0,
        "type": "channel",
        "noteNumber": 74,
        "velocity": 100,
        "subtype": "noteOn"
      },
      {
        "deltaTime": 120,
        "channel": 0,
        "type": "channel",
        "noteNumber": 74,
        "velocity": 0,
        "subtype": "noteOff"
      },
      {
        "deltaTime": 0,
        "channel": 0,
        "type": "channel",
        "noteNumber": 72,
        "velocity": 100,
        "subtype": "noteOn"
      },
      {
        "deltaTime": 120,
        "channel": 0,
        "type": "channel",
        "noteNumber": 72,
        "velocity": 0,
        "subtype": "noteOff"
      },
      {
        "deltaTime": 0,
        "channel": 0,
        "type": "channel",
        "noteNumber": 71,
        "velocity": 100,
        "subtype": "noteOn"
      },
      {
        "deltaTime": 120,
        "channel": 0,
        "type": "channel",
        "noteNumber": 71,
        "velocity": 0,
        "subtype": "noteOff"
      },
      {
        "deltaTime": 0,
        "channel": 0,
        "type": "channel",
        "noteNumber": 72,
        "velocity": 100,
        "subtype": "noteOn"
      },
      {
        "deltaTime": 120,
        "channel": 0,
        "type": "channel",
        "noteNumber": 72,
        "velocity": 0,
        "subtype": "noteOff"
      },
      {
        "deltaTime": 0,
        "channel": 0,
        "type": "channel",
        "noteNumber": 76,
        "velocity": 100,
        "subtype": "noteOn"
      },
      {
        "deltaTime": 120,
        "channel": 0,
        "type": "channel",
        "noteNumber": 76,
        "velocity": 0,
        "subtype": "noteOff"
      },
      {
        "deltaTime": 0,
        "channel": 0,
        "type": "channel",
        "noteNumber": 81,
        "velocity": 100,
        "subtype": "noteOn"
      },
      {
        "deltaTime": 120,
        "channel": 0,
        "type": "channel",
        "noteNumber": 81,
        "velocity": 0,
        "subtype": "noteOff"
      },
      {
        "deltaTime": 0,
        "channel": 0,
        "type": "channel",
        "noteNumber": 80,
        "velocity": 100,
        "subtype": "noteOn"
      },
      {
        "deltaTime": 120,
        "channel": 0,
        "type": "channel",
        "noteNumber": 80,
        "velocity": 0,
        "subtype": "noteOff"
      },
      {
        "deltaTime": 0,
        "channel": 0,
        "type": "channel",
        "noteNumber": 81,
        "velocity": 100,
        "subtype": "noteOn"
      },
      {
        "deltaTime": 120,
        "channel": 0,
        "type": "channel",
        "noteNumber": 81,
        "velocity": 0,
        "subtype": "noteOff"
      },
      {
        "deltaTime": 0,
        "channel": 0,
        "type": "channel",
        "noteNumber": 84,
        "velocity": 100,
        "subtype": "noteOn"
      },
      {
        "deltaTime": 120,
        "channel": 0,
        "type": "channel",
        "noteNumber": 84,
        "velocity": 0,
        "subtype": "noteOff"
      },
      {
        "deltaTime": 0,
        "channel": 0,
        "type": "channel",
        "noteNumber": 81,
        "velocity": 100,
        "subtype": "noteOn"
      },
      {
        "deltaTime": 120,
        "channel": 0,
        "type": "channel",
        "noteNumber": 81,
        "velocity": 0,
        "subtype": "noteOff"
      },
      {
        "deltaTime": 0,
        "channel": 0,
        "type": "channel",
        "noteNumber": 78,
        "velocity": 100,
        "subtype": "noteOn"
      },
      {
        "deltaTime": 120,
        "channel": 0,
        "type": "channel",
        "noteNumber": 78,
        "velocity": 0,
        "subtype": "noteOff"
      },
      {
        "deltaTime": 0,
        "channel": 0,
        "type": "channel",
        "noteNumber": 75,
        "velocity": 100,
        "subtype": "noteOn"
      },
      {
        "deltaTime": 120,
        "channel": 0,
        "type": "channel",
        "noteNumber": 75,
        "velocity": 0,
        "subtype": "noteOff"
      },
      {
        "deltaTime": 0,
        "channel": 0,
        "type": "channel",
        "noteNumber": 71,
        "velocity": 100,
        "subtype": "noteOn"
      },
      {
        "deltaTime": 120,
        "channel": 0,
        "type": "channel",
        "noteNumber": 71,
        "velocity": 0,
        "subtype": "noteOff"
      },
      {
        "deltaTime": 0,
        "channel": 0,
        "type": "channel",
        "noteNumber": 75,
        "velocity": 100,
        "subtype": "noteOn"
      },
      {
        "deltaTime": 120,
        "channel": 0,
        "type": "channel",
        "noteNumber": 75,
        "velocity": 0,
        "subtype": "noteOff"
      },
      {
        "deltaTime": 0,
        "channel": 0,
        "type": "channel",
        "noteNumber": 78,
        "velocity": 100,
        "subtype": "noteOn"
      },
      {
        "deltaTime": 120,
        "channel": 0,
        "type": "channel",
        "noteNumber": 78,
        "velocity": 0,
        "subtype": "noteOff"
      },
      {
        "deltaTime": 0,
        "channel": 0,
        "type": "channel",
        "noteNumber": 83,
        "velocity": 100,
        "subtype": "noteOn"
      },
      {
        "deltaTime": 120,
        "channel": 0,
        "type": "channel",
        "noteNumber": 83,
        "velocity": 0,
        "subtype": "noteOff"
      },
      {
        "deltaTime": 0,
        "channel": 0,
        "type": "channel",
        "noteNumber": 81,
        "velocity": 100,
        "subtype": "noteOn"
      },
      {
        "deltaTime": 120,
        "channel": 0,
        "type": "channel",
        "noteNumber": 81,
        "velocity": 0,
        "subtype": "noteOff"
      },
      {
        "deltaTime": 0,
        "channel": 0,
        "type": "channel",
        "noteNumber": 79,
        "velocity": 100,
        "subtype": "noteOn"
      },
      {
        "deltaTime": 120,
        "channel": 0,
        "type": "channel",
        "noteNumber": 79,
        "velocity": 0,
        "subtype": "noteOff"
      },
      {
        "deltaTime": 0,
        "channel": 0,
        "type": "channel",
        "noteNumber": 78,
        "velocity": 100,
        "subtype": "noteOn"
      },
      {
        "deltaTime": 120,
        "channel": 0,
        "type": "channel",
        "noteNumber": 78,
        "velocity": 0,
        "subtype": "noteOff"
      },
      {
        "deltaTime": 0,
        "channel": 0,
        "type": "channel",
        "noteNumber": 79,
        "velocity": 100,
        "subtype": "noteOn"
      },
      {
        "deltaTime": 120,
        "channel": 0,
        "type": "channel",
        "noteNumber": 79,
        "velocity": 0,
        "subtype": "noteOff"
      },
      {
        "deltaTime": 0,
        "channel": 0,
        "type": "channel",
        "noteNumber": 78,
        "velocity": 100,
        "subtype": "noteOn"
      },
      {
        "deltaTime": 120,
        "channel": 0,
        "type": "channel",
        "noteNumber": 78,
        "velocity": 0,
        "subtype": "noteOff"
      },
      {
        "deltaTime": 0,
        "channel": 0,
        "type": "channel",
        "noteNumber": 76,
        "velocity": 100,
        "subtype": "noteOn"
      },
      {
        "deltaTime": 120,
        "channel": 0,
        "type": "channel",
        "noteNumber": 76,
        "velocity": 0,
        "subtype": "noteOff"
      },
      {
        "deltaTime": 0,
        "channel": 0,
        "type": "channel",
        "noteNumber": 79,
        "velocity": 100,
        "subtype": "noteOn"
      },
      {
        "deltaTime": 120,
        "channel": 0,
        "type": "channel",
        "noteNumber": 79,
        "velocity": 0,
        "subtype": "noteOff"
      },
      {
        "deltaTime": 0,
        "channel": 0,
        "type": "channel",
        "noteNumber": 69,
        "velocity": 100,
        "subtype": "noteOn"
      },
      {
        "deltaTime": 120,
        "channel": 0,
        "type": "channel",
        "noteNumber": 69,
        "velocity": 0,
        "subtype": "noteOff"
      },
      {
        "deltaTime": 0,
        "channel": 0,
        "type": "channel",
        "noteNumber": 76,
        "velocity": 100,
        "subtype": "noteOn"
      },
      {
        "deltaTime": 120,
        "channel": 0,
        "type": "channel",
        "noteNumber": 76,
        "velocity": 0,
        "subtype": "noteOff"
      },
      {
        "deltaTime": 0,
        "channel": 0,
        "type": "channel",
        "noteNumber": 79,
        "velocity": 100,
        "subtype": "noteOn"
      },
      {
        "deltaTime": 120,
        "channel": 0,
        "type": "channel",
        "noteNumber": 79,
        "velocity": 0,
        "subtype": "noteOff"
      },
      {
        "deltaTime": 0,
        "channel": 0,
        "type": "channel",
        "noteNumber": 84,
        "velocity": 100,
        "subtype": "noteOn"
      },
      {
        "deltaTime": 120,
        "channel": 0,
        "type": "channel",
        "noteNumber": 84,
        "velocity": 0,
        "subtype": "noteOff"
      },
      {
        "deltaTime": 0,
        "channel": 0,
        "type": "channel",
        "noteNumber": 78,
        "velocity": 100,
        "subtype": "noteOn"
      },
      {
        "deltaTime": 120,
        "channel": 0,
        "type": "channel",
        "noteNumber": 78,
        "velocity": 0,
        "subtype": "noteOff"
      },
      {
        "deltaTime": 0,
        "channel": 0,
        "type": "channel",
        "noteNumber": 76,
        "velocity": 100,
        "subtype": "noteOn"
      },
      {
        "deltaTime": 120,
        "channel": 0,
        "type": "channel",
        "noteNumber": 76,
        "velocity": 0,
        "subtype": "noteOff"
      },
      {
        "deltaTime": 0,
        "channel": 0,
        "type": "channel",
        "noteNumber": 74,
        "velocity": 100,
        "subtype": "noteOn"
      },
      {
        "deltaTime": 120,
        "channel": 0,
        "type": "channel",
        "noteNumber": 74,
        "velocity": 0,
        "subtype": "noteOff"
      },
      {
        "deltaTime": 0,
        "channel": 0,
        "type": "channel",
        "noteNumber": 78,
        "velocity": 100,
        "subtype": "noteOn"
      },
      {
        "deltaTime": 120,
        "channel": 0,
        "type": "channel",
        "noteNumber": 78,
        "velocity": 0,
        "subtype": "noteOff"
      },
      {
        "deltaTime": 0,
        "channel": 0,
        "type": "channel",
        "noteNumber": 67,
        "velocity": 100,
        "subtype": "noteOn"
      },
      {
        "deltaTime": 120,
        "channel": 0,
        "type": "channel",
        "noteNumber": 67,
        "velocity": 0,
        "subtype": "noteOff"
      },
      {
        "deltaTime": 0,
        "channel": 0,
        "type": "channel",
        "noteNumber": 74,
        "velocity": 100,
        "subtype": "noteOn"
      },
      {
        "deltaTime": 120,
        "channel": 0,
        "type": "channel",
        "noteNumber": 74,
        "velocity": 0,
        "subtype": "noteOff"
      },
      {
        "deltaTime": 0,
        "channel": 0,
        "type": "channel",
        "noteNumber": 78,
        "velocity": 100,
        "subtype": "noteOn"
      },
      {
        "deltaTime": 120,
        "channel": 0,
        "type": "channel",
        "noteNumber": 78,
        "velocity": 0,
        "subtype": "noteOff"
      },
      {
        "deltaTime": 0,
        "channel": 0,
        "type": "channel",
        "noteNumber": 83,
        "velocity": 100,
        "subtype": "noteOn"
      },
      {
        "deltaTime": 120,
        "channel": 0,
        "type": "channel",
        "noteNumber": 83,
        "velocity": 0,
        "subtype": "noteOff"
      },
      {
        "deltaTime": 0,
        "channel": 0,
        "type": "channel",
        "noteNumber": 76,
        "velocity": 100,
        "subtype": "noteOn"
      },
      {
        "deltaTime": 120,
        "channel": 0,
        "type": "channel",
        "noteNumber": 76,
        "velocity": 0,
        "subtype": "noteOff"
      },
      {
        "deltaTime": 0,
        "channel": 0,
        "type": "channel",
        "noteNumber": 74,
        "velocity": 100,
        "subtype": "noteOn"
      },
      {
        "deltaTime": 120,
        "channel": 0,
        "type": "channel",
        "noteNumber": 74,
        "velocity": 0,
        "subtype": "noteOff"
      },
      {
        "deltaTime": 0,
        "channel": 0,
        "type": "channel",
        "noteNumber": 72,
        "velocity": 100,
        "subtype": "noteOn"
      },
      {
        "deltaTime": 120,
        "channel": 0,
        "type": "channel",
        "noteNumber": 72,
        "velocity": 0,
        "subtype": "noteOff"
      },
      {
        "deltaTime": 0,
        "channel": 0,
        "type": "channel",
        "noteNumber": 76,
        "velocity": 100,
        "subtype": "noteOn"
      },
      {
        "deltaTime": 120,
        "channel": 0,
        "type": "channel",
        "noteNumber": 76,
        "velocity": 0,
        "subtype": "noteOff"
      },
      {
        "deltaTime": 0,
        "channel": 0,
        "type": "channel",
        "noteNumber": 66,
        "velocity": 100,
        "subtype": "noteOn"
      },
      {
        "deltaTime": 120,
        "channel": 0,
        "type": "channel",
        "noteNumber": 66,
        "velocity": 0,
        "subtype": "noteOff"
      },
      {
        "deltaTime": 0,
        "channel": 0,
        "type": "channel",
        "noteNumber": 76,
        "velocity": 100,
        "subtype": "noteOn"
      },
      {
        "deltaTime": 120,
        "channel": 0,
        "type": "channel",
        "noteNumber": 76,
        "velocity": 0,
        "subtype": "noteOff"
      },
      {
        "deltaTime": 0,
        "channel": 0,
        "type": "channel",
        "noteNumber": 78,
        "velocity": 100,
        "subtype": "noteOn"
      },
      {
        "deltaTime": 120,
        "channel": 0,
        "type": "channel",
        "noteNumber": 78,
        "velocity": 0,
        "subtype": "noteOff"
      },
      {
        "deltaTime": 0,
        "channel": 0,
        "type": "channel",
        "noteNumber": 81,
        "velocity": 100,
        "subtype": "noteOn"
      },
      {
        "deltaTime": 120,
        "channel": 0,
        "type": "channel",
        "noteNumber": 81,
        "velocity": 0,
        "subtype": "noteOff"
      },
      {
        "deltaTime": 0,
        "channel": 0,
        "type": "channel",
        "noteNumber": 75,
        "velocity": 100,
        "subtype": "noteOn"
      },
      {
        "deltaTime": 120,
        "channel": 0,
        "type": "channel",
        "noteNumber": 75,
        "velocity": 0,
        "subtype": "noteOff"
      },
      {
        "deltaTime": 0,
        "channel": 0,
        "type": "channel",
        "noteNumber": 71,
        "velocity": 100,
        "subtype": "noteOn"
      },
      {
        "deltaTime": 120,
        "channel": 0,
        "type": "channel",
        "noteNumber": 71,
        "velocity": 0,
        "subtype": "noteOff"
      },
      {
        "deltaTime": 0,
        "channel": 0,
        "type": "channel",
        "noteNumber": 72,
        "velocity": 100,
        "subtype": "noteOn"
      },
      {
        "deltaTime": 120,
        "channel": 0,
        "type": "channel",
        "noteNumber": 72,
        "velocity": 0,
        "subtype": "noteOff"
      },
      {
        "deltaTime": 0,
        "channel": 0,
        "type": "channel",
        "noteNumber": 69,
        "velocity": 100,
        "subtype": "noteOn"
      },
      {
        "deltaTime": 120,
        "channel": 0,
        "type": "channel",
        "noteNumber": 69,
        "velocity": 0,
        "subtype": "noteOff"
      },
      {
        "deltaTime": 0,
        "channel": 0,
        "type": "channel",
        "noteNumber": 63,
        "velocity": 100,
        "subtype": "noteOn"
      },
      {
        "deltaTime": 120,
        "channel": 0,
        "type": "channel",
        "noteNumber": 63,
        "velocity": 0,
        "subtype": "noteOff"
      },
      {
        "deltaTime": 0,
        "channel": 0,
        "type": "channel",
        "noteNumber": 72,
        "velocity": 100,
        "subtype": "noteOn"
      },
      {
        "deltaTime": 120,
        "channel": 0,
        "type": "channel",
        "noteNumber": 72,
        "velocity": 0,
        "subtype": "noteOff"
      },
      {
        "deltaTime": 0,
        "channel": 0,
        "type": "channel",
        "noteNumber": 71,
        "velocity": 100,
        "subtype": "noteOn"
      },
      {
        "deltaTime": 120,
        "channel": 0,
        "type": "channel",
        "noteNumber": 71,
        "velocity": 0,
        "subtype": "noteOff"
      },
      {
        "deltaTime": 0,
        "channel": 0,
        "type": "channel",
        "noteNumber": 69,
        "velocity": 100,
        "subtype": "noteOn"
      },
      {
        "deltaTime": 120,
        "channel": 0,
        "type": "channel",
        "noteNumber": 69,
        "velocity": 0,
        "subtype": "noteOff"
      },
      {
        "deltaTime": 0,
        "channel": 0,
        "type": "channel",
        "noteNumber": 67,
        "velocity": 100,
        "subtype": "noteOn"
      },
      {
        "deltaTime": 120,
        "channel": 0,
        "type": "channel",
        "noteNumber": 67,
        "velocity": 0,
        "subtype": "noteOff"
      },
      {
        "deltaTime": 0,
        "channel": 0,
        "type": "channel",
        "noteNumber": 76,
        "velocity": 100,
        "subtype": "noteOn"
      },
      {
        "deltaTime": 120,
        "channel": 0,
        "type": "channel",
        "noteNumber": 76,
        "velocity": 0,
        "subtype": "noteOff"
      },
      {
        "deltaTime": 0,
        "channel": 0,
        "type": "channel",
        "noteNumber": 77,
        "velocity": 100,
        "subtype": "noteOn"
      },
      {
        "deltaTime": 120,
        "channel": 0,
        "type": "channel",
        "noteNumber": 77,
        "velocity": 0,
        "subtype": "noteOff"
      },
      {
        "deltaTime": 0,
        "channel": 0,
        "type": "channel",
        "noteNumber": 74,
        "velocity": 100,
        "subtype": "noteOn"
      },
      {
        "deltaTime": 120,
        "channel": 0,
        "type": "channel",
        "noteNumber": 74,
        "velocity": 0,
        "subtype": "noteOff"
      },
      {
        "deltaTime": 0,
        "channel": 0,
        "type": "channel",
        "noteNumber": 68,
        "velocity": 100,
        "subtype": "noteOn"
      },
      {
        "deltaTime": 120,
        "channel": 0,
        "type": "channel",
        "noteNumber": 68,
        "velocity": 0,
        "subtype": "noteOff"
      },
      {
        "deltaTime": 0,
        "channel": 0,
        "type": "channel",
        "noteNumber": 77,
        "velocity": 100,
        "subtype": "noteOn"
      },
      {
        "deltaTime": 120,
        "channel": 0,
        "type": "channel",
        "noteNumber": 77,
        "velocity": 0,
        "subtype": "noteOff"
      },
      {
        "deltaTime": 0,
        "channel": 0,
        "type": "channel",
        "noteNumber": 76,
        "velocity": 100,
        "subtype": "noteOn"
      },
      {
        "deltaTime": 120,
        "channel": 0,
        "type": "channel",
        "noteNumber": 76,
        "velocity": 0,
        "subtype": "noteOff"
      },
      {
        "deltaTime": 0,
        "channel": 0,
        "type": "channel",
        "noteNumber": 74,
        "velocity": 100,
        "subtype": "noteOn"
      },
      {
        "deltaTime": 120,
        "channel": 0,
        "type": "channel",
        "noteNumber": 74,
        "velocity": 0,
        "subtype": "noteOff"
      },
      {
        "deltaTime": 0,
        "channel": 0,
        "type": "channel",
        "noteNumber": 69,
        "velocity": 100,
        "subtype": "noteOn"
      },
      {
        "deltaTime": 120,
        "channel": 0,
        "type": "channel",
        "noteNumber": 69,
        "velocity": 0,
        "subtype": "noteOff"
      },
      {
        "deltaTime": 0,
        "channel": 0,
        "type": "channel",
        "noteNumber": 78,
        "velocity": 100,
        "subtype": "noteOn"
      },
      {
        "deltaTime": 120,
        "channel": 0,
        "type": "channel",
        "noteNumber": 78,
        "velocity": 0,
        "subtype": "noteOff"
      },
      {
        "deltaTime": 0,
        "channel": 0,
        "type": "channel",
        "noteNumber": 79,
        "velocity": 100,
        "subtype": "noteOn"
      },
      {
        "deltaTime": 120,
        "channel": 0,
        "type": "channel",
        "noteNumber": 79,
        "velocity": 0,
        "subtype": "noteOff"
      },
      {
        "deltaTime": 0,
        "channel": 0,
        "type": "channel",
        "noteNumber": 76,
        "velocity": 100,
        "subtype": "noteOn"
      },
      {
        "deltaTime": 120,
        "channel": 0,
        "type": "channel",
        "noteNumber": 76,
        "velocity": 0,
        "subtype": "noteOff"
      },
      {
        "deltaTime": 0,
        "channel": 0,
        "type": "channel",
        "noteNumber": 70,
        "velocity": 100,
        "subtype": "noteOn"
      },
      {
        "deltaTime": 120,
        "channel": 0,
        "type": "channel",
        "noteNumber": 70,
        "velocity": 0,
        "subtype": "noteOff"
      },
      {
        "deltaTime": 0,
        "channel": 0,
        "type": "channel",
        "noteNumber": 79,
        "velocity": 100,
        "subtype": "noteOn"
      },
      {
        "deltaTime": 120,
        "channel": 0,
        "type": "channel",
        "noteNumber": 79,
        "velocity": 0,
        "subtype": "noteOff"
      },
      {
        "deltaTime": 0,
        "channel": 0,
        "type": "channel",
        "noteNumber": 78,
        "velocity": 100,
        "subtype": "noteOn"
      },
      {
        "deltaTime": 120,
        "channel": 0,
        "type": "channel",
        "noteNumber": 78,
        "velocity": 0,
        "subtype": "noteOff"
      },
      {
        "deltaTime": 0,
        "channel": 0,
        "type": "channel",
        "noteNumber": 76,
        "velocity": 100,
        "subtype": "noteOn"
      },
      {
        "deltaTime": 120,
        "channel": 0,
        "type": "channel",
        "noteNumber": 76,
        "velocity": 0,
        "subtype": "noteOff"
      },
      {
        "deltaTime": 0,
        "channel": 0,
        "type": "channel",
        "noteNumber": 75,
        "velocity": 100,
        "subtype": "noteOn"
      },
      {
        "deltaTime": 120,
        "channel": 0,
        "type": "channel",
        "noteNumber": 75,
        "velocity": 0,
        "subtype": "noteOff"
      },
      {
        "deltaTime": 0,
        "channel": 0,
        "type": "channel",
        "noteNumber": 83,
        "velocity": 100,
        "subtype": "noteOn"
      },
      {
        "deltaTime": 120,
        "channel": 0,
        "type": "channel",
        "noteNumber": 83,
        "velocity": 0,
        "subtype": "noteOff"
      },
      {
        "deltaTime": 0,
        "channel": 0,
        "type": "channel",
        "noteNumber": 80,
        "velocity": 100,
        "subtype": "noteOn"
      },
      {
        "deltaTime": 120,
        "channel": 0,
        "type": "channel",
        "noteNumber": 80,
        "velocity": 0,
        "subtype": "noteOff"
      },
      {
        "deltaTime": 0,
        "channel": 0,
        "type": "channel",
        "noteNumber": 74,
        "velocity": 100,
        "subtype": "noteOn"
      },
      {
        "deltaTime": 120,
        "channel": 0,
        "type": "channel",
        "noteNumber": 74,
        "velocity": 0,
        "subtype": "noteOff"
      },
      {
        "deltaTime": 0,
        "channel": 0,
        "type": "channel",
        "noteNumber": 73,
        "velocity": 100,
        "subtype": "noteOn"
      },
      {
        "deltaTime": 120,
        "channel": 0,
        "type": "channel",
        "noteNumber": 73,
        "velocity": 0,
        "subtype": "noteOff"
      },
      {
        "deltaTime": 0,
        "channel": 0,
        "type": "channel",
        "noteNumber": 81,
        "velocity": 100,
        "subtype": "noteOn"
      },
      {
        "deltaTime": 120,
        "channel": 0,
        "type": "channel",
        "noteNumber": 81,
        "velocity": 0,
        "subtype": "noteOff"
      },
      {
        "deltaTime": 0,
        "channel": 0,
        "type": "channel",
        "noteNumber": 78,
        "velocity": 100,
        "subtype": "noteOn"
      },
      {
        "deltaTime": 120,
        "channel": 0,
        "type": "channel",
        "noteNumber": 78,
        "velocity": 0,
        "subtype": "noteOff"
      },
      {
        "deltaTime": 0,
        "channel": 0,
        "type": "channel",
        "noteNumber": 72,
        "velocity": 100,
        "subtype": "noteOn"
      },
      {
        "deltaTime": 120,
        "channel": 0,
        "type": "channel",
        "noteNumber": 72,
        "velocity": 0,
        "subtype": "noteOff"
      },
      {
        "deltaTime": 0,
        "channel": 0,
        "type": "channel",
        "noteNumber": 71,
        "velocity": 100,
        "subtype": "noteOn"
      },
      {
        "deltaTime": 120,
        "channel": 0,
        "type": "channel",
        "noteNumber": 71,
        "velocity": 0,
        "subtype": "noteOff"
      },
      {
        "deltaTime": 0,
        "channel": 0,
        "type": "channel",
        "noteNumber": 79,
        "velocity": 100,
        "subtype": "noteOn"
      },
      {
        "deltaTime": 120,
        "channel": 0,
        "type": "channel",
        "noteNumber": 79,
        "velocity": 0,
        "subtype": "noteOff"
      },
      {
        "deltaTime": 0,
        "channel": 0,
        "type": "channel",
        "noteNumber": 76,
        "velocity": 100,
        "subtype": "noteOn"
      },
      {
        "deltaTime": 120,
        "channel": 0,
        "type": "channel",
        "noteNumber": 76,
        "velocity": 0,
        "subtype": "noteOff"
      },
      {
        "deltaTime": 0,
        "channel": 0,
        "type": "channel",
        "noteNumber": 70,
        "velocity": 100,
        "subtype": "noteOn"
      },
      {
        "deltaTime": 120,
        "channel": 0,
        "type": "channel",
        "noteNumber": 70,
        "velocity": 0,
        "subtype": "noteOff"
      },
      {
        "deltaTime": 0,
        "channel": 0,
        "type": "channel",
        "noteNumber": 69,
        "velocity": 100,
        "subtype": "noteOn"
      },
      {
        "deltaTime": 120,
        "channel": 0,
        "type": "channel",
        "noteNumber": 69,
        "velocity": 0,
        "subtype": "noteOff"
      },
      {
        "deltaTime": 0,
        "channel": 0,
        "type": "channel",
        "noteNumber": 78,
        "velocity": 100,
        "subtype": "noteOn"
      },
      {
        "deltaTime": 120,
        "channel": 0,
        "type": "channel",
        "noteNumber": 78,
        "velocity": 0,
        "subtype": "noteOff"
      },
      {
        "deltaTime": 0,
        "channel": 0,
        "type": "channel",
        "noteNumber": 75,
        "velocity": 100,
        "subtype": "noteOn"
      },
      {
        "deltaTime": 120,
        "channel": 0,
        "type": "channel",
        "noteNumber": 75,
        "velocity": 0,
        "subtype": "noteOff"
      },
      {
        "deltaTime": 0,
        "channel": 0,
        "type": "channel",
        "noteNumber": 69,
        "velocity": 100,
        "subtype": "noteOn"
      },
      {
        "deltaTime": 120,
        "channel": 0,
        "type": "channel",
        "noteNumber": 69,
        "velocity": 0,
        "subtype": "noteOff"
      },
      {
        "deltaTime": 0,
        "channel": 0,
        "type": "channel",
        "noteNumber": 67,
        "velocity": 100,
        "subtype": "noteOn"
      },
      {
        "deltaTime": 120,
        "channel": 0,
        "type": "channel",
        "noteNumber": 67,
        "velocity": 0,
        "subtype": "noteOff"
      },
      {
        "deltaTime": 0,
        "channel": 0,
        "type": "channel",
        "noteNumber": 76,
        "velocity": 100,
        "subtype": "noteOn"
      },
      {
        "deltaTime": 120,
        "channel": 0,
        "type": "channel",
        "noteNumber": 76,
        "velocity": 0,
        "subtype": "noteOff"
      },
      {
        "deltaTime": 0,
        "channel": 0,
        "type": "channel",
        "noteNumber": 72,
        "velocity": 100,
        "subtype": "noteOn"
      },
      {
        "deltaTime": 120,
        "channel": 0,
        "type": "channel",
        "noteNumber": 72,
        "velocity": 0,
        "subtype": "noteOff"
      },
      {
        "deltaTime": 0,
        "channel": 0,
        "type": "channel",
        "noteNumber": 69,
        "velocity": 100,
        "subtype": "noteOn"
      },
      {
        "deltaTime": 120,
        "channel": 0,
        "type": "channel",
        "noteNumber": 69,
        "velocity": 0,
        "subtype": "noteOff"
      },
      {
        "deltaTime": 0,
        "channel": 0,
        "type": "channel",
        "noteNumber": 66,
        "velocity": 100,
        "subtype": "noteOn"
      },
      {
        "deltaTime": 120,
        "channel": 0,
        "type": "channel",
        "noteNumber": 66,
        "velocity": 0,
        "subtype": "noteOff"
      },
      {
        "deltaTime": 0,
        "channel": 0,
        "type": "channel",
        "noteNumber": 72,
        "velocity": 100,
        "subtype": "noteOn"
      },
      {
        "deltaTime": 120,
        "channel": 0,
        "type": "channel",
        "noteNumber": 72,
        "velocity": 0,
        "subtype": "noteOff"
      },
      {
        "deltaTime": 0,
        "channel": 0,
        "type": "channel",
        "noteNumber": 69,
        "velocity": 100,
        "subtype": "noteOn"
      },
      {
        "deltaTime": 120,
        "channel": 0,
        "type": "channel",
        "noteNumber": 69,
        "velocity": 0,
        "subtype": "noteOff"
      },
      {
        "deltaTime": 0,
        "channel": 0,
        "type": "channel",
        "noteNumber": 66,
        "velocity": 100,
        "subtype": "noteOn"
      },
      {
        "deltaTime": 120,
        "channel": 0,
        "type": "channel",
        "noteNumber": 66,
        "velocity": 0,
        "subtype": "noteOff"
      },
      {
        "deltaTime": 0,
        "channel": 0,
        "type": "channel",
        "noteNumber": 63,
        "velocity": 100,
        "subtype": "noteOn"
      },
      {
        "deltaTime": 120,
        "channel": 0,
        "type": "channel",
        "noteNumber": 63,
        "velocity": 0,
        "subtype": "noteOff"
      },
      {
        "deltaTime": 0,
        "channel": 0,
        "type": "channel",
        "noteNumber": 66,
        "velocity": 100,
        "subtype": "noteOn"
      },
      {
        "deltaTime": 120,
        "channel": 0,
        "type": "channel",
        "noteNumber": 66,
        "velocity": 0,
        "subtype": "noteOff"
      },
      {
        "deltaTime": 0,
        "channel": 0,
        "type": "channel",
        "noteNumber": 69,
        "velocity": 100,
        "subtype": "noteOn"
      },
      {
        "deltaTime": 120,
        "channel": 0,
        "type": "channel",
        "noteNumber": 69,
        "velocity": 0,
        "subtype": "noteOff"
      },
      {
        "deltaTime": 0,
        "channel": 0,
        "type": "channel",
        "noteNumber": 72,
        "velocity": 100,
        "subtype": "noteOn"
      },
      {
        "deltaTime": 120,
        "channel": 0,
        "type": "channel",
        "noteNumber": 72,
        "velocity": 0,
        "subtype": "noteOff"
      },
      {
        "deltaTime": 0,
        "channel": 0,
        "type": "channel",
        "noteNumber": 71,
        "velocity": 100,
        "subtype": "noteOn"
      },
      {
        "deltaTime": 120,
        "channel": 0,
        "type": "channel",
        "noteNumber": 71,
        "velocity": 0,
        "subtype": "noteOff"
      },
      {
        "deltaTime": 0,
        "channel": 0,
        "type": "channel",
        "noteNumber": 81,
        "velocity": 100,
        "subtype": "noteOn"
      },
      {
        "deltaTime": 120,
        "channel": 0,
        "type": "channel",
        "noteNumber": 81,
        "velocity": 0,
        "subtype": "noteOff"
      },
      {
        "deltaTime": 0,
        "channel": 0,
        "type": "channel",
        "noteNumber": 79,
        "velocity": 100,
        "subtype": "noteOn"
      },
      {
        "deltaTime": 120,
        "channel": 0,
        "type": "channel",
        "noteNumber": 79,
        "velocity": 0,
        "subtype": "noteOff"
      },
      {
        "deltaTime": 0,
        "channel": 0,
        "type": "channel",
        "noteNumber": 78,
        "velocity": 100,
        "subtype": "noteOn"
      },
      {
        "deltaTime": 120,
        "channel": 0,
        "type": "channel",
        "noteNumber": 78,
        "velocity": 0,
        "subtype": "noteOff"
      },
      {
        "deltaTime": 0,
        "channel": 0,
        "type": "channel",
        "noteNumber": 79,
        "velocity": 100,
        "subtype": "noteOn"
      },
      {
        "deltaTime": 120,
        "channel": 0,
        "type": "channel",
        "noteNumber": 79,
        "velocity": 0,
        "subtype": "noteOff"
      },
      {
        "deltaTime": 0,
        "channel": 0,
        "type": "channel",
        "noteNumber": 78,
        "velocity": 100,
        "subtype": "noteOn"
      },
      {
        "deltaTime": 60,
        "channel": 0,
        "type": "channel",
        "noteNumber": 78,
        "velocity": 0,
        "subtype": "noteOff"
      },
      {
        "deltaTime": 0,
        "channel": 0,
        "type": "channel",
        "noteNumber": 76,
        "velocity": 100,
        "subtype": "noteOn"
      },
      {
        "deltaTime": 60,
        "channel": 0,
        "type": "channel",
        "noteNumber": 76,
        "velocity": 0,
        "subtype": "noteOff"
      },
      {
        "deltaTime": 0,
        "channel": 0,
        "type": "channel",
        "noteNumber": 83,
        "velocity": 100,
        "subtype": "noteOn"
      },
      {
        "deltaTime": 120,
        "channel": 0,
        "type": "channel",
        "noteNumber": 83,
        "velocity": 0,
        "subtype": "noteOff"
      },
      {
        "deltaTime": 0,
        "channel": 0,
        "type": "channel",
        "noteNumber": 84,
        "velocity": 100,
        "subtype": "noteOn"
      },
      {
        "deltaTime": 120,
        "channel": 0,
        "type": "channel",
        "noteNumber": 84,
        "velocity": 0,
        "subtype": "noteOff"
      },
      {
        "deltaTime": 0,
        "channel": 0,
        "type": "channel",
        "subtype": "pitchBend",
        "value": 12288
      },
      {
        "deltaTime": 0,
        "channel": 0,
        "type": "channel",
        "noteNumber": 78,
        "velocity": 100,
        "subtype": "noteOn"
      },
      {
        "deltaTime": 80,
        "channel": 0,
        "type": "channel",
        "subtype": "pitchBend",
        "value": 8192
      },
      {
        "deltaTime": 80,
        "channel": 0,
        "type": "channel",
        "subtype": "pitchBend",
        "value": 12278
      },
      {
        "deltaTime": 80,
        "channel": 0,
        "type": "channel",
        "subtype": "pitchBend",
        "value": 8192
      },
      {
        "deltaTime": 120,
        "channel": 0,
        "type": "channel",
        "noteNumber": 78,
        "velocity": 0,
        "subtype": "noteOff"
      },
      {
        "deltaTime": 0,
        "channel": 0,
        "type": "channel",
        "noteNumber": 76,
        "velocity": 100,
        "subtype": "noteOn"
      },
      {
        "deltaTime": 120,
        "channel": 0,
        "type": "channel",
        "noteNumber": 76,
        "velocity": 0,
        "subtype": "noteOff"
      },
      {
        "deltaTime": 0,
        "channel": 0,
        "type": "channel",
        "noteNumber": 76,
        "velocity": 100,
        "subtype": "noteOn"
      },
      {
        "deltaTime": 960,
        "channel": 0,
        "type": "channel",
        "noteNumber": 76,
        "velocity": 0,
        "subtype": "noteOff"
      },
      {
        "deltaTime": 120,
        "channel": 0,
        "type": "channel",
        "noteNumber": 76,
        "velocity": 100,
        "subtype": "noteOn"
      },
      {
        "deltaTime": 120,
        "channel": 0,
        "type": "channel",
        "noteNumber": 76,
        "velocity": 0,
        "subtype": "noteOff"
      },
      {
        "deltaTime": 0,
        "channel": 0,
        "type": "channel",
        "noteNumber": 81,
        "velocity": 100,
        "subtype": "noteOn"
      },
      {
        "deltaTime": 120,
        "channel": 0,
        "type": "channel",
        "noteNumber": 81,
        "velocity": 0,
        "subtype": "noteOff"
      },
      {
        "deltaTime": 0,
        "channel": 0,
        "type": "channel",
        "noteNumber": 80,
        "velocity": 100,
        "subtype": "noteOn"
      },
      {
        "deltaTime": 120,
        "channel": 0,
        "type": "channel",
        "noteNumber": 80,
        "velocity": 0,
        "subtype": "noteOff"
      },
      {
        "deltaTime": 0,
        "channel": 0,
        "type": "channel",
        "noteNumber": 81,
        "velocity": 100,
        "subtype": "noteOn"
      },
      {
        "deltaTime": 120,
        "channel": 0,
        "type": "channel",
        "noteNumber": 81,
        "velocity": 0,
        "subtype": "noteOff"
      },
      {
        "deltaTime": 0,
        "channel": 0,
        "type": "channel",
        "noteNumber": 84,
        "velocity": 100,
        "subtype": "noteOn"
      },
      {
        "deltaTime": 120,
        "channel": 0,
        "type": "channel",
        "noteNumber": 84,
        "velocity": 0,
        "subtype": "noteOff"
      },
      {
        "deltaTime": 0,
        "channel": 0,
        "type": "channel",
        "noteNumber": 81,
        "velocity": 100,
        "subtype": "noteOn"
      },
      {
        "deltaTime": 120,
        "channel": 0,
        "type": "channel",
        "noteNumber": 81,
        "velocity": 0,
        "subtype": "noteOff"
      },
      {
        "deltaTime": 0,
        "channel": 0,
        "type": "channel",
        "noteNumber": 76,
        "velocity": 100,
        "subtype": "noteOn"
      },
      {
        "deltaTime": 120,
        "channel": 0,
        "type": "channel",
        "noteNumber": 76,
        "velocity": 0,
        "subtype": "noteOff"
      },
      {
        "deltaTime": 0,
        "channel": 0,
        "type": "channel",
        "noteNumber": 69,
        "velocity": 100,
        "subtype": "noteOn"
      },
      {
        "deltaTime": 120,
        "channel": 0,
        "type": "channel",
        "noteNumber": 69,
        "velocity": 0,
        "subtype": "noteOff"
      },
      {
        "deltaTime": 0,
        "channel": 0,
        "type": "channel",
        "noteNumber": 76,
        "velocity": 100,
        "subtype": "noteOn"
      },
      {
        "deltaTime": 120,
        "channel": 0,
        "type": "channel",
        "noteNumber": 76,
        "velocity": 0,
        "subtype": "noteOff"
      },
      {
        "deltaTime": 0,
        "channel": 0,
        "type": "channel",
        "noteNumber": 81,
        "velocity": 100,
        "subtype": "noteOn"
      },
      {
        "deltaTime": 120,
        "channel": 0,
        "type": "channel",
        "noteNumber": 81,
        "velocity": 0,
        "subtype": "noteOff"
      },
      {
        "deltaTime": 0,
        "channel": 0,
        "type": "channel",
        "noteNumber": 80,
        "velocity": 100,
        "subtype": "noteOn"
      },
      {
        "deltaTime": 120,
        "channel": 0,
        "type": "channel",
        "noteNumber": 80,
        "velocity": 0,
        "subtype": "noteOff"
      },
      {
        "deltaTime": 0,
        "channel": 0,
        "type": "channel",
        "noteNumber": 81,
        "velocity": 100,
        "subtype": "noteOn"
      },
      {
        "deltaTime": 120,
        "channel": 0,
        "type": "channel",
        "noteNumber": 81,
        "velocity": 0,
        "subtype": "noteOff"
      },
      {
        "deltaTime": 0,
        "channel": 0,
        "type": "channel",
        "noteNumber": 84,
        "velocity": 100,
        "subtype": "noteOn"
      },
      {
        "deltaTime": 120,
        "channel": 0,
        "type": "channel",
        "noteNumber": 84,
        "velocity": 0,
        "subtype": "noteOff"
      },
      {
        "deltaTime": 0,
        "channel": 0,
        "type": "channel",
        "noteNumber": 81,
        "velocity": 100,
        "subtype": "noteOn"
      },
      {
        "deltaTime": 120,
        "channel": 0,
        "type": "channel",
        "noteNumber": 81,
        "velocity": 0,
        "subtype": "noteOff"
      },
      {
        "deltaTime": 0,
        "channel": 0,
        "type": "channel",
        "noteNumber": 76,
        "velocity": 100,
        "subtype": "noteOn"
      },
      {
        "deltaTime": 120,
        "channel": 0,
        "type": "channel",
        "noteNumber": 76,
        "velocity": 0,
        "subtype": "noteOff"
      },
      {
        "deltaTime": 0,
        "channel": 0,
        "type": "channel",
        "noteNumber": 69,
        "velocity": 100,
        "subtype": "noteOn"
      },
      {
        "deltaTime": 120,
        "channel": 0,
        "type": "channel",
        "noteNumber": 69,
        "velocity": 0,
        "subtype": "noteOff"
      },
      {
        "deltaTime": 0,
        "channel": 0,
        "type": "channel",
        "noteNumber": 72,
        "velocity": 100,
        "subtype": "noteOn"
      },
      {
        "deltaTime": 120,
        "channel": 0,
        "type": "channel",
        "noteNumber": 72,
        "velocity": 0,
        "subtype": "noteOff"
      },
      {
        "deltaTime": 0,
        "channel": 0,
        "type": "channel",
        "noteNumber": 76,
        "velocity": 100,
        "subtype": "noteOn"
      },
      {
        "deltaTime": 120,
        "channel": 0,
        "type": "channel",
        "noteNumber": 76,
        "velocity": 0,
        "subtype": "noteOff"
      },
      {
        "deltaTime": 0,
        "channel": 0,
        "type": "channel",
        "noteNumber": 77,
        "velocity": 100,
        "subtype": "noteOn"
      },
      {
        "deltaTime": 120,
        "channel": 0,
        "type": "channel",
        "noteNumber": 77,
        "velocity": 0,
        "subtype": "noteOff"
      },
      {
        "deltaTime": 0,
        "channel": 0,
        "type": "channel",
        "noteNumber": 68,
        "velocity": 100,
        "subtype": "noteOn"
      },
      {
        "deltaTime": 120,
        "channel": 0,
        "type": "channel",
        "noteNumber": 68,
        "velocity": 0,
        "subtype": "noteOff"
      },
      {
        "deltaTime": 0,
        "channel": 0,
        "type": "channel",
        "noteNumber": 77,
        "velocity": 100,
        "subtype": "noteOn"
      },
      {
        "deltaTime": 120,
        "channel": 0,
        "type": "channel",
        "noteNumber": 77,
        "velocity": 0,
        "subtype": "noteOff"
      },
      {
        "deltaTime": 0,
        "channel": 0,
        "type": "channel",
        "noteNumber": 76,
        "velocity": 100,
        "subtype": "noteOn"
      },
      {
        "deltaTime": 120,
        "channel": 0,
        "type": "channel",
        "noteNumber": 76,
        "velocity": 0,
        "subtype": "noteOff"
      },
      {
        "deltaTime": 0,
        "channel": 0,
        "type": "channel",
        "noteNumber": 74,
        "velocity": 100,
        "subtype": "noteOn"
      },
      {
        "deltaTime": 120,
        "channel": 0,
        "type": "channel",
        "noteNumber": 74,
        "velocity": 0,
        "subtype": "noteOff"
      },
      {
        "deltaTime": 0,
        "channel": 0,
        "type": "channel",
        "noteNumber": 72,
        "velocity": 100,
        "subtype": "noteOn"
      },
      {
        "deltaTime": 120,
        "channel": 0,
        "type": "channel",
        "noteNumber": 72,
        "velocity": 0,
        "subtype": "noteOff"
      },
      {
        "deltaTime": 0,
        "channel": 0,
        "type": "channel",
        "noteNumber": 76,
        "velocity": 100,
        "subtype": "noteOn"
      },
      {
        "deltaTime": 120,
        "channel": 0,
        "type": "channel",
        "noteNumber": 76,
        "velocity": 0,
        "subtype": "noteOff"
      },
      {
        "deltaTime": 0,
        "channel": 0,
        "type": "channel",
        "noteNumber": 80,
        "velocity": 100,
        "subtype": "noteOn"
      },
      {
        "deltaTime": 120,
        "channel": 0,
        "type": "channel",
        "noteNumber": 80,
        "velocity": 0,
        "subtype": "noteOff"
      },
      {
        "deltaTime": 0,
        "channel": 0,
        "type": "channel",
        "noteNumber": 81,
        "velocity": 100,
        "subtype": "noteOn"
      },
      {
        "deltaTime": 120,
        "channel": 0,
        "type": "channel",
        "noteNumber": 81,
        "velocity": 0,
        "subtype": "noteOff"
      },
      {
        "deltaTime": 0,
        "channel": 0,
        "type": "channel",
        "noteNumber": 64,
        "velocity": 100,
        "subtype": "noteOn"
      },
      {
        "deltaTime": 120,
        "channel": 0,
        "type": "channel",
        "noteNumber": 64,
        "velocity": 0,
        "subtype": "noteOff"
      },
      {
        "deltaTime": 0,
        "channel": 0,
        "type": "channel",
        "noteNumber": 74,
        "velocity": 100,
        "subtype": "noteOn"
      },
      {
        "deltaTime": 120,
        "channel": 0,
        "type": "channel",
        "noteNumber": 74,
        "velocity": 0,
        "subtype": "noteOff"
      },
      {
        "deltaTime": 0,
        "channel": 0,
        "type": "channel",
        "noteNumber": 72,
        "velocity": 100,
        "subtype": "noteOn"
      },
      {
        "deltaTime": 120,
        "channel": 0,
        "type": "channel",
        "noteNumber": 72,
        "velocity": 0,
        "subtype": "noteOff"
      },
      {
        "deltaTime": 0,
        "channel": 0,
        "type": "channel",
        "noteNumber": 71,
        "velocity": 100,
        "subtype": "noteOn"
      },
      {
        "deltaTime": 120,
        "channel": 0,
        "type": "channel",
        "noteNumber": 71,
        "velocity": 0,
        "subtype": "noteOff"
      },
      {
        "deltaTime": 0,
        "channel": 0,
        "type": "channel",
        "noteNumber": 69,
        "velocity": 100,
        "subtype": "noteOn"
      },
      {
        "deltaTime": 120,
        "channel": 0,
        "type": "channel",
        "noteNumber": 69,
        "velocity": 0,
        "subtype": "noteOff"
      },
      {
        "deltaTime": 0,
        "channel": 0,
        "type": "channel",
        "noteNumber": 72,
        "velocity": 100,
        "subtype": "noteOn"
      },
      {
        "deltaTime": 120,
        "channel": 0,
        "type": "channel",
        "noteNumber": 72,
        "velocity": 0,
        "subtype": "noteOff"
      },
      {
        "deltaTime": 0,
        "channel": 0,
        "type": "channel",
        "noteNumber": 76,
        "velocity": 100,
        "subtype": "noteOn"
      },
      {
        "deltaTime": 120,
        "channel": 0,
        "type": "channel",
        "noteNumber": 76,
        "velocity": 0,
        "subtype": "noteOff"
      },
      {
        "deltaTime": 0,
        "channel": 0,
        "type": "channel",
        "noteNumber": 77,
        "velocity": 100,
        "subtype": "noteOn"
      },
      {
        "deltaTime": 120,
        "channel": 0,
        "type": "channel",
        "noteNumber": 77,
        "velocity": 0,
        "subtype": "noteOff"
      },
      {
        "deltaTime": 0,
        "channel": 0,
        "type": "channel",
        "noteNumber": 68,
        "velocity": 100,
        "subtype": "noteOn"
      },
      {
        "deltaTime": 120,
        "channel": 0,
        "type": "channel",
        "noteNumber": 68,
        "velocity": 0,
        "subtype": "noteOff"
      },
      {
        "deltaTime": 0,
        "channel": 0,
        "type": "channel",
        "noteNumber": 77,
        "velocity": 100,
        "subtype": "noteOn"
      },
      {
        "deltaTime": 120,
        "channel": 0,
        "type": "channel",
        "noteNumber": 77,
        "velocity": 0,
        "subtype": "noteOff"
      },
      {
        "deltaTime": 0,
        "channel": 0,
        "type": "channel",
        "noteNumber": 76,
        "velocity": 100,
        "subtype": "noteOn"
      },
      {
        "deltaTime": 120,
        "channel": 0,
        "type": "channel",
        "noteNumber": 76,
        "velocity": 0,
        "subtype": "noteOff"
      },
      {
        "deltaTime": 0,
        "channel": 0,
        "type": "channel",
        "noteNumber": 74,
        "velocity": 100,
        "subtype": "noteOn"
      },
      {
        "deltaTime": 120,
        "channel": 0,
        "type": "channel",
        "noteNumber": 74,
        "velocity": 0,
        "subtype": "noteOff"
      },
      {
        "deltaTime": 0,
        "channel": 0,
        "type": "channel",
        "noteNumber": 72,
        "velocity": 100,
        "subtype": "noteOn"
      },
      {
        "deltaTime": 120,
        "channel": 0,
        "type": "channel",
        "noteNumber": 72,
        "velocity": 0,
        "subtype": "noteOff"
      },
      {
        "deltaTime": 0,
        "channel": 0,
        "type": "channel",
        "noteNumber": 76,
        "velocity": 100,
        "subtype": "noteOn"
      },
      {
        "deltaTime": 120,
        "channel": 0,
        "type": "channel",
        "noteNumber": 76,
        "velocity": 0,
        "subtype": "noteOff"
      },
      {
        "deltaTime": 0,
        "channel": 0,
        "type": "channel",
        "noteNumber": 80,
        "velocity": 100,
        "subtype": "noteOn"
      },
      {
        "deltaTime": 120,
        "channel": 0,
        "type": "channel",
        "noteNumber": 80,
        "velocity": 0,
        "subtype": "noteOff"
      },
      {
        "deltaTime": 0,
        "channel": 0,
        "type": "channel",
        "noteNumber": 81,
        "velocity": 100,
        "subtype": "noteOn"
      },
      {
        "deltaTime": 120,
        "channel": 0,
        "type": "channel",
        "noteNumber": 81,
        "velocity": 0,
        "subtype": "noteOff"
      },
      {
        "deltaTime": 0,
        "channel": 0,
        "type": "channel",
        "noteNumber": 64,
        "velocity": 100,
        "subtype": "noteOn"
      },
      {
        "deltaTime": 120,
        "channel": 0,
        "type": "channel",
        "noteNumber": 64,
        "velocity": 0,
        "subtype": "noteOff"
      },
      {
        "deltaTime": 0,
        "channel": 0,
        "type": "channel",
        "noteNumber": 74,
        "velocity": 100,
        "subtype": "noteOn"
      },
      {
        "deltaTime": 120,
        "channel": 0,
        "type": "channel",
        "noteNumber": 74,
        "velocity": 0,
        "subtype": "noteOff"
      },
      {
        "deltaTime": 0,
        "channel": 0,
        "type": "channel",
        "noteNumber": 72,
        "velocity": 100,
        "subtype": "noteOn"
      },
      {
        "deltaTime": 120,
        "channel": 0,
        "type": "channel",
        "noteNumber": 72,
        "velocity": 0,
        "subtype": "noteOff"
      },
      {
        "deltaTime": 0,
        "channel": 0,
        "type": "channel",
        "noteNumber": 71,
        "velocity": 100,
        "subtype": "noteOn"
      },
      {
        "deltaTime": 120,
        "channel": 0,
        "type": "channel",
        "noteNumber": 71,
        "velocity": 0,
        "subtype": "noteOff"
      },
      {
        "deltaTime": 0,
        "channel": 0,
        "type": "channel",
        "noteNumber": 69,
        "velocity": 100,
        "subtype": "noteOn"
      },
      {
        "deltaTime": 120,
        "channel": 0,
        "type": "channel",
        "noteNumber": 69,
        "velocity": 0,
        "subtype": "noteOff"
      },
      {
        "deltaTime": 0,
        "channel": 0,
        "type": "channel",
        "noteNumber": 72,
        "velocity": 100,
        "subtype": "noteOn"
      },
      {
        "deltaTime": 120,
        "channel": 0,
        "type": "channel",
        "noteNumber": 72,
        "velocity": 0,
        "subtype": "noteOff"
      },
      {
        "deltaTime": 0,
        "channel": 0,
        "type": "channel",
        "noteNumber": 68,
        "velocity": 100,
        "subtype": "noteOn"
      },
      {
        "deltaTime": 120,
        "channel": 0,
        "type": "channel",
        "noteNumber": 68,
        "velocity": 0,
        "subtype": "noteOff"
      },
      {
        "deltaTime": 0,
        "channel": 0,
        "type": "channel",
        "noteNumber": 69,
        "velocity": 100,
        "subtype": "noteOn"
      },
      {
        "deltaTime": 120,
        "channel": 0,
        "type": "channel",
        "noteNumber": 69,
        "velocity": 0,
        "subtype": "noteOff"
      },
      {
        "deltaTime": 0,
        "channel": 0,
        "type": "channel",
        "noteNumber": 65,
        "velocity": 100,
        "subtype": "noteOn"
      },
      {
        "deltaTime": 120,
        "channel": 0,
        "type": "channel",
        "noteNumber": 65,
        "velocity": 0,
        "subtype": "noteOff"
      },
      {
        "deltaTime": 0,
        "channel": 0,
        "type": "channel",
        "noteNumber": 74,
        "velocity": 100,
        "subtype": "noteOn"
      },
      {
        "deltaTime": 120,
        "channel": 0,
        "type": "channel",
        "noteNumber": 74,
        "velocity": 0,
        "subtype": "noteOff"
      },
      {
        "deltaTime": 0,
        "channel": 0,
        "type": "channel",
        "noteNumber": 68,
        "velocity": 100,
        "subtype": "noteOn"
      },
      {
        "deltaTime": 120,
        "channel": 0,
        "type": "channel",
        "noteNumber": 68,
        "velocity": 0,
        "subtype": "noteOff"
      },
      {
        "deltaTime": 0,
        "channel": 0,
        "type": "channel",
        "noteNumber": 69,
        "velocity": 100,
        "subtype": "noteOn"
      },
      {
        "deltaTime": 120,
        "channel": 0,
        "type": "channel",
        "noteNumber": 69,
        "velocity": 0,
        "subtype": "noteOff"
      },
      {
        "deltaTime": 0,
        "channel": 0,
        "type": "channel",
        "noteNumber": 64,
        "velocity": 100,
        "subtype": "noteOn"
      },
      {
        "deltaTime": 120,
        "channel": 0,
        "type": "channel",
        "noteNumber": 64,
        "velocity": 0,
        "subtype": "noteOff"
      },
      {
        "deltaTime": 0,
        "channel": 0,
        "type": "channel",
        "noteNumber": 72,
        "velocity": 100,
        "subtype": "noteOn"
      },
      {
        "deltaTime": 120,
        "channel": 0,
        "type": "channel",
        "noteNumber": 72,
        "velocity": 0,
        "subtype": "noteOff"
      },
      {
        "deltaTime": 0,
        "channel": 0,
        "type": "channel",
        "noteNumber": 68,
        "velocity": 100,
        "subtype": "noteOn"
      },
      {
        "deltaTime": 120,
        "channel": 0,
        "type": "channel",
        "noteNumber": 68,
        "velocity": 0,
        "subtype": "noteOff"
      },
      {
        "deltaTime": 0,
        "channel": 0,
        "type": "channel",
        "noteNumber": 69,
        "velocity": 100,
        "subtype": "noteOn"
      },
      {
        "deltaTime": 120,
        "channel": 0,
        "type": "channel",
        "noteNumber": 69,
        "velocity": 0,
        "subtype": "noteOff"
      },
      {
        "deltaTime": 0,
        "channel": 0,
        "type": "channel",
        "noteNumber": 62,
        "velocity": 100,
        "subtype": "noteOn"
      },
      {
        "deltaTime": 120,
        "channel": 0,
        "type": "channel",
        "noteNumber": 62,
        "velocity": 0,
        "subtype": "noteOff"
      },
      {
        "deltaTime": 0,
        "channel": 0,
        "type": "channel",
        "noteNumber": 72,
        "velocity": 100,
        "subtype": "noteOn"
      },
      {
        "deltaTime": 120,
        "channel": 0,
        "type": "channel",
        "noteNumber": 72,
        "velocity": 0,
        "subtype": "noteOff"
      },
      {
        "deltaTime": 0,
        "channel": 0,
        "type": "channel",
        "noteNumber": 71,
        "velocity": 100,
        "subtype": "noteOn"
      },
      {
        "deltaTime": 120,
        "channel": 0,
        "type": "channel",
        "noteNumber": 71,
        "velocity": 0,
        "subtype": "noteOff"
      },
      {
        "deltaTime": 0,
        "channel": 0,
        "type": "channel",
        "noteNumber": 69,
        "velocity": 100,
        "subtype": "noteOn"
      },
      {
        "deltaTime": 120,
        "channel": 0,
        "type": "channel",
        "noteNumber": 69,
        "velocity": 0,
        "subtype": "noteOff"
      },
      {
        "deltaTime": 0,
        "channel": 0,
        "type": "channel",
        "noteNumber": 68,
        "velocity": 100,
        "subtype": "noteOn"
      },
      {
        "deltaTime": 120,
        "channel": 0,
        "type": "channel",
        "noteNumber": 68,
        "velocity": 0,
        "subtype": "noteOff"
      },
      {
        "deltaTime": 0,
        "channel": 0,
        "type": "channel",
        "noteNumber": 64,
        "velocity": 100,
        "subtype": "noteOn"
      },
      {
        "deltaTime": 120,
        "channel": 0,
        "type": "channel",
        "noteNumber": 64,
        "velocity": 0,
        "subtype": "noteOff"
      },
      {
        "deltaTime": 0,
        "channel": 0,
        "type": "channel",
        "noteNumber": 68,
        "velocity": 100,
        "subtype": "noteOn"
      },
      {
        "deltaTime": 120,
        "channel": 0,
        "type": "channel",
        "noteNumber": 68,
        "velocity": 0,
        "subtype": "noteOff"
      },
      {
        "deltaTime": 0,
        "channel": 0,
        "type": "channel",
        "noteNumber": 71,
        "velocity": 100,
        "subtype": "noteOn"
      },
      {
        "deltaTime": 120,
        "channel": 0,
        "type": "channel",
        "noteNumber": 71,
        "velocity": 0,
        "subtype": "noteOff"
      },
      {
        "deltaTime": 0,
        "channel": 0,
        "type": "channel",
        "noteNumber": 76,
        "velocity": 100,
        "subtype": "noteOn"
      },
      {
        "deltaTime": 120,
        "channel": 0,
        "type": "channel",
        "noteNumber": 76,
        "velocity": 0,
        "subtype": "noteOff"
      },
      {
        "deltaTime": 0,
        "channel": 0,
        "type": "channel",
        "noteNumber": 80,
        "velocity": 100,
        "subtype": "noteOn"
      },
      {
        "deltaTime": 120,
        "channel": 0,
        "type": "channel",
        "noteNumber": 80,
        "velocity": 0,
        "subtype": "noteOff"
      },
      {
        "deltaTime": 0,
        "channel": 0,
        "type": "channel",
        "noteNumber": 83,
        "velocity": 100,
        "subtype": "noteOn"
      },
      {
        "deltaTime": 120,
        "channel": 0,
        "type": "channel",
        "noteNumber": 83,
        "velocity": 0,
        "subtype": "noteOff"
      },
      {
        "deltaTime": 0,
        "channel": 0,
        "type": "channel",
        "noteNumber": 86,
        "velocity": 100,
        "subtype": "noteOn"
      },
      {
        "deltaTime": 120,
        "channel": 0,
        "type": "channel",
        "noteNumber": 86,
        "velocity": 0,
        "subtype": "noteOff"
      },
      {
        "deltaTime": 0,
        "channel": 0,
        "type": "channel",
        "noteNumber": 89,
        "velocity": 100,
        "subtype": "noteOn"
      },
      {
        "deltaTime": 120,
        "channel": 0,
        "type": "channel",
        "noteNumber": 89,
        "velocity": 0,
        "subtype": "noteOff"
      },
      {
        "deltaTime": 0,
        "channel": 0,
        "type": "channel",
        "noteNumber": 86,
        "velocity": 100,
        "subtype": "noteOn"
      },
      {
        "deltaTime": 120,
        "channel": 0,
        "type": "channel",
        "noteNumber": 86,
        "velocity": 0,
        "subtype": "noteOff"
      },
      {
        "deltaTime": 0,
        "channel": 0,
        "type": "channel",
        "noteNumber": 83,
        "velocity": 100,
        "subtype": "noteOn"
      },
      {
        "deltaTime": 120,
        "channel": 0,
        "type": "channel",
        "noteNumber": 83,
        "velocity": 0,
        "subtype": "noteOff"
      },
      {
        "deltaTime": 0,
        "channel": 0,
        "type": "channel",
        "noteNumber": 80,
        "velocity": 100,
        "subtype": "noteOn"
      },
      {
        "deltaTime": 120,
        "channel": 0,
        "type": "channel",
        "noteNumber": 80,
        "velocity": 0,
        "subtype": "noteOff"
      },
      {
        "deltaTime": 0,
        "channel": 0,
        "type": "channel",
        "noteNumber": 76,
        "velocity": 100,
        "subtype": "noteOn"
      },
      {
        "deltaTime": 120,
        "channel": 0,
        "type": "channel",
        "noteNumber": 76,
        "velocity": 0,
        "subtype": "noteOff"
      },
      {
        "deltaTime": 0,
        "channel": 0,
        "type": "channel",
        "noteNumber": 74,
        "velocity": 100,
        "subtype": "noteOn"
      },
      {
        "deltaTime": 120,
        "channel": 0,
        "type": "channel",
        "noteNumber": 74,
        "velocity": 0,
        "subtype": "noteOff"
      },
      {
        "deltaTime": 0,
        "channel": 0,
        "type": "channel",
        "noteNumber": 72,
        "velocity": 100,
        "subtype": "noteOn"
      },
      {
        "deltaTime": 120,
        "channel": 0,
        "type": "channel",
        "noteNumber": 72,
        "velocity": 0,
        "subtype": "noteOff"
      },
      {
        "deltaTime": 0,
        "channel": 0,
        "type": "channel",
        "noteNumber": 71,
        "velocity": 100,
        "subtype": "noteOn"
      },
      {
        "deltaTime": 120,
        "channel": 0,
        "type": "channel",
        "noteNumber": 71,
        "velocity": 0,
        "subtype": "noteOff"
      },
      {
        "deltaTime": 0,
        "channel": 0,
        "type": "channel",
        "noteNumber": 72,
        "velocity": 100,
        "subtype": "noteOn"
      },
      {
        "deltaTime": 120,
        "channel": 0,
        "type": "channel",
        "noteNumber": 72,
        "velocity": 0,
        "subtype": "noteOff"
      },
      {
        "deltaTime": 0,
        "channel": 0,
        "type": "channel",
        "noteNumber": 69,
        "velocity": 100,
        "subtype": "noteOn"
      },
      {
        "deltaTime": 120,
        "channel": 0,
        "type": "channel",
        "noteNumber": 69,
        "velocity": 0,
        "subtype": "noteOff"
      },
      {
        "deltaTime": 0,
        "channel": 0,
        "type": "channel",
        "noteNumber": 72,
        "velocity": 100,
        "subtype": "noteOn"
      },
      {
        "deltaTime": 120,
        "channel": 0,
        "type": "channel",
        "noteNumber": 72,
        "velocity": 0,
        "subtype": "noteOff"
      },
      {
        "deltaTime": 0,
        "channel": 0,
        "type": "channel",
        "noteNumber": 76,
        "velocity": 100,
        "subtype": "noteOn"
      },
      {
        "deltaTime": 120,
        "channel": 0,
        "type": "channel",
        "noteNumber": 76,
        "velocity": 0,
        "subtype": "noteOff"
      },
      {
        "deltaTime": 0,
        "channel": 0,
        "type": "channel",
        "noteNumber": 81,
        "velocity": 100,
        "subtype": "noteOn"
      },
      {
        "deltaTime": 120,
        "channel": 0,
        "type": "channel",
        "noteNumber": 81,
        "velocity": 0,
        "subtype": "noteOff"
      },
      {
        "deltaTime": 0,
        "channel": 0,
        "type": "channel",
        "noteNumber": 84,
        "velocity": 100,
        "subtype": "noteOn"
      },
      {
        "deltaTime": 120,
        "channel": 0,
        "type": "channel",
        "noteNumber": 84,
        "velocity": 0,
        "subtype": "noteOff"
      },
      {
        "deltaTime": 0,
        "channel": 0,
        "type": "channel",
        "noteNumber": 88,
        "velocity": 100,
        "subtype": "noteOn"
      },
      {
        "deltaTime": 120,
        "channel": 0,
        "type": "channel",
        "noteNumber": 88,
        "velocity": 0,
        "subtype": "noteOff"
      },
      {
        "deltaTime": 0,
        "channel": 0,
        "type": "channel",
        "noteNumber": 77,
        "velocity": 100,
        "subtype": "noteOn"
      },
      {
        "deltaTime": 120,
        "channel": 0,
        "type": "channel",
        "noteNumber": 77,
        "velocity": 0,
        "subtype": "noteOff"
      },
      {
        "deltaTime": 0,
        "channel": 0,
        "type": "channel",
        "noteNumber": 79,
        "velocity": 100,
        "subtype": "noteOn"
      },
      {
        "deltaTime": 120,
        "channel": 0,
        "type": "channel",
        "noteNumber": 79,
        "velocity": 0,
        "subtype": "noteOff"
      },
      {
        "deltaTime": 0,
        "channel": 0,
        "type": "channel",
        "noteNumber": 82,
        "velocity": 100,
        "subtype": "noteOn"
      },
      {
        "deltaTime": 120,
        "channel": 0,
        "type": "channel",
        "noteNumber": 82,
        "velocity": 0,
        "subtype": "noteOff"
      },
      {
        "deltaTime": 0,
        "channel": 0,
        "type": "channel",
        "noteNumber": 79,
        "velocity": 100,
        "subtype": "noteOn"
      },
      {
        "deltaTime": 120,
        "channel": 0,
        "type": "channel",
        "noteNumber": 79,
        "velocity": 0,
        "subtype": "noteOff"
      },
      {
        "deltaTime": 0,
        "channel": 0,
        "type": "channel",
        "noteNumber": 76,
        "velocity": 100,
        "subtype": "noteOn"
      },
      {
        "deltaTime": 120,
        "channel": 0,
        "type": "channel",
        "noteNumber": 76,
        "velocity": 0,
        "subtype": "noteOff"
      },
      {
        "deltaTime": 0,
        "channel": 0,
        "type": "channel",
        "noteNumber": 72,
        "velocity": 100,
        "subtype": "noteOn"
      },
      {
        "deltaTime": 120,
        "channel": 0,
        "type": "channel",
        "noteNumber": 72,
        "velocity": 0,
        "subtype": "noteOff"
      },
      {
        "deltaTime": 0,
        "channel": 0,
        "type": "channel",
        "noteNumber": 70,
        "velocity": 100,
        "subtype": "noteOn"
      },
      {
        "deltaTime": 120,
        "channel": 0,
        "type": "channel",
        "noteNumber": 70,
        "velocity": 0,
        "subtype": "noteOff"
      },
      {
        "deltaTime": 0,
        "channel": 0,
        "type": "channel",
        "noteNumber": 69,
        "velocity": 100,
        "subtype": "noteOn"
      },
      {
        "deltaTime": 120,
        "channel": 0,
        "type": "channel",
        "noteNumber": 69,
        "velocity": 0,
        "subtype": "noteOff"
      },
      {
        "deltaTime": 0,
        "channel": 0,
        "type": "channel",
        "noteNumber": 67,
        "velocity": 100,
        "subtype": "noteOn"
      },
      {
        "deltaTime": 120,
        "channel": 0,
        "type": "channel",
        "noteNumber": 67,
        "velocity": 0,
        "subtype": "noteOff"
      },
      {
        "deltaTime": 0,
        "channel": 0,
        "type": "channel",
        "noteNumber": 69,
        "velocity": 100,
        "subtype": "noteOn"
      },
      {
        "deltaTime": 120,
        "channel": 0,
        "type": "channel",
        "noteNumber": 69,
        "velocity": 0,
        "subtype": "noteOff"
      },
      {
        "deltaTime": 0,
        "channel": 0,
        "type": "channel",
        "noteNumber": 65,
        "velocity": 100,
        "subtype": "noteOn"
      },
      {
        "deltaTime": 120,
        "channel": 0,
        "type": "channel",
        "noteNumber": 65,
        "velocity": 0,
        "subtype": "noteOff"
      },
      {
        "deltaTime": 0,
        "channel": 0,
        "type": "channel",
        "noteNumber": 69,
        "velocity": 100,
        "subtype": "noteOn"
      },
      {
        "deltaTime": 120,
        "channel": 0,
        "type": "channel",
        "noteNumber": 69,
        "velocity": 0,
        "subtype": "noteOff"
      },
      {
        "deltaTime": 0,
        "channel": 0,
        "type": "channel",
        "noteNumber": 72,
        "velocity": 100,
        "subtype": "noteOn"
      },
      {
        "deltaTime": 120,
        "channel": 0,
        "type": "channel",
        "noteNumber": 72,
        "velocity": 0,
        "subtype": "noteOff"
      },
      {
        "deltaTime": 0,
        "channel": 0,
        "type": "channel",
        "noteNumber": 74,
        "velocity": 100,
        "subtype": "noteOn"
      },
      {
        "deltaTime": 120,
        "channel": 0,
        "type": "channel",
        "noteNumber": 74,
        "velocity": 0,
        "subtype": "noteOff"
      },
      {
        "deltaTime": 0,
        "channel": 0,
        "type": "channel",
        "noteNumber": 77,
        "velocity": 100,
        "subtype": "noteOn"
      },
      {
        "deltaTime": 120,
        "channel": 0,
        "type": "channel",
        "noteNumber": 77,
        "velocity": 0,
        "subtype": "noteOff"
      },
      {
        "deltaTime": 0,
        "channel": 0,
        "type": "channel",
        "noteNumber": 81,
        "velocity": 100,
        "subtype": "noteOn"
      },
      {
        "deltaTime": 120,
        "channel": 0,
        "type": "channel",
        "noteNumber": 81,
        "velocity": 0,
        "subtype": "noteOff"
      },
      {
        "deltaTime": 0,
        "channel": 0,
        "type": "channel",
        "noteNumber": 72,
        "velocity": 100,
        "subtype": "noteOn"
      },
      {
        "deltaTime": 120,
        "channel": 0,
        "type": "channel",
        "noteNumber": 72,
        "velocity": 0,
        "subtype": "noteOff"
      },
      {
        "deltaTime": 0,
        "channel": 0,
        "type": "channel",
        "noteNumber": 71,
        "velocity": 100,
        "subtype": "noteOn"
      },
      {
        "deltaTime": 120,
        "channel": 0,
        "type": "channel",
        "noteNumber": 71,
        "velocity": 0,
        "subtype": "noteOff"
      },
      {
        "deltaTime": 0,
        "channel": 0,
        "type": "channel",
        "noteNumber": 67,
        "velocity": 100,
        "subtype": "noteOn"
      },
      {
        "deltaTime": 120,
        "channel": 0,
        "type": "channel",
        "noteNumber": 67,
        "velocity": 0,
        "subtype": "noteOff"
      },
      {
        "deltaTime": 0,
        "channel": 0,
        "type": "channel",
        "noteNumber": 71,
        "velocity": 100,
        "subtype": "noteOn"
      },
      {
        "deltaTime": 120,
        "channel": 0,
        "type": "channel",
        "noteNumber": 71,
        "velocity": 0,
        "subtype": "noteOff"
      },
      {
        "deltaTime": 0,
        "channel": 0,
        "type": "channel",
        "noteNumber": 74,
        "velocity": 100,
        "subtype": "noteOn"
      },
      {
        "deltaTime": 120,
        "channel": 0,
        "type": "channel",
        "noteNumber": 74,
        "velocity": 0,
        "subtype": "noteOff"
      },
      {
        "deltaTime": 0,
        "channel": 0,
        "type": "channel",
        "noteNumber": 76,
        "velocity": 100,
        "subtype": "noteOn"
      },
      {
        "deltaTime": 120,
        "channel": 0,
        "type": "channel",
        "noteNumber": 76,
        "velocity": 0,
        "subtype": "noteOff"
      },
      {
        "deltaTime": 0,
        "channel": 0,
        "type": "channel",
        "noteNumber": 79,
        "velocity": 100,
        "subtype": "noteOn"
      },
      {
        "deltaTime": 120,
        "channel": 0,
        "type": "channel",
        "noteNumber": 79,
        "velocity": 0,
        "subtype": "noteOff"
      },
      {
        "deltaTime": 0,
        "channel": 0,
        "type": "channel",
        "noteNumber": 83,
        "velocity": 100,
        "subtype": "noteOn"
      },
      {
        "deltaTime": 120,
        "channel": 0,
        "type": "channel",
        "noteNumber": 83,
        "velocity": 0,
        "subtype": "noteOff"
      },
      {
        "deltaTime": 0,
        "channel": 0,
        "type": "channel",
        "noteNumber": 74,
        "velocity": 100,
        "subtype": "noteOn"
      },
      {
        "deltaTime": 120,
        "channel": 0,
        "type": "channel",
        "noteNumber": 74,
        "velocity": 0,
        "subtype": "noteOff"
      },
      {
        "deltaTime": 0,
        "channel": 0,
        "type": "channel",
        "noteNumber": 72,
        "velocity": 100,
        "subtype": "noteOn"
      },
      {
        "deltaTime": 120,
        "channel": 0,
        "type": "channel",
        "noteNumber": 72,
        "velocity": 0,
        "subtype": "noteOff"
      },
      {
        "deltaTime": 0,
        "channel": 0,
        "type": "channel",
        "noteNumber": 69,
        "velocity": 100,
        "subtype": "noteOn"
      },
      {
        "deltaTime": 120,
        "channel": 0,
        "type": "channel",
        "noteNumber": 69,
        "velocity": 0,
        "subtype": "noteOff"
      },
      {
        "deltaTime": 0,
        "channel": 0,
        "type": "channel",
        "noteNumber": 72,
        "velocity": 100,
        "subtype": "noteOn"
      },
      {
        "deltaTime": 120,
        "channel": 0,
        "type": "channel",
        "noteNumber": 72,
        "velocity": 0,
        "subtype": "noteOff"
      },
      {
        "deltaTime": 0,
        "channel": 0,
        "type": "channel",
        "noteNumber": 76,
        "velocity": 100,
        "subtype": "noteOn"
      },
      {
        "deltaTime": 120,
        "channel": 0,
        "type": "channel",
        "noteNumber": 76,
        "velocity": 0,
        "subtype": "noteOff"
      },
      {
        "deltaTime": 0,
        "channel": 0,
        "type": "channel",
        "noteNumber": 77,
        "velocity": 100,
        "subtype": "noteOn"
      },
      {
        "deltaTime": 120,
        "channel": 0,
        "type": "channel",
        "noteNumber": 77,
        "velocity": 0,
        "subtype": "noteOff"
      },
      {
        "deltaTime": 0,
        "channel": 0,
        "type": "channel",
        "noteNumber": 81,
        "velocity": 100,
        "subtype": "noteOn"
      },
      {
        "deltaTime": 120,
        "channel": 0,
        "type": "channel",
        "noteNumber": 81,
        "velocity": 0,
        "subtype": "noteOff"
      },
      {
        "deltaTime": 0,
        "channel": 0,
        "type": "channel",
        "noteNumber": 84,
        "velocity": 100,
        "subtype": "noteOn"
      },
      {
        "deltaTime": 120,
        "channel": 0,
        "type": "channel",
        "noteNumber": 84,
        "velocity": 0,
        "subtype": "noteOff"
      },
      {
        "deltaTime": 0,
        "channel": 0,
        "type": "channel",
        "noteNumber": 76,
        "velocity": 100,
        "subtype": "noteOn"
      },
      {
        "deltaTime": 120,
        "channel": 0,
        "type": "channel",
        "noteNumber": 76,
        "velocity": 0,
        "subtype": "noteOff"
      },
      {
        "deltaTime": 0,
        "channel": 0,
        "type": "channel",
        "noteNumber": 74,
        "velocity": 100,
        "subtype": "noteOn"
      },
      {
        "deltaTime": 120,
        "channel": 0,
        "type": "channel",
        "noteNumber": 74,
        "velocity": 0,
        "subtype": "noteOff"
      },
      {
        "deltaTime": 0,
        "channel": 0,
        "type": "channel",
        "noteNumber": 71,
        "velocity": 100,
        "subtype": "noteOn"
      },
      {
        "deltaTime": 120,
        "channel": 0,
        "type": "channel",
        "noteNumber": 71,
        "velocity": 0,
        "subtype": "noteOff"
      },
      {
        "deltaTime": 0,
        "channel": 0,
        "type": "channel",
        "noteNumber": 74,
        "velocity": 100,
        "subtype": "noteOn"
      },
      {
        "deltaTime": 120,
        "channel": 0,
        "type": "channel",
        "noteNumber": 74,
        "velocity": 0,
        "subtype": "noteOff"
      },
      {
        "deltaTime": 0,
        "channel": 0,
        "type": "channel",
        "noteNumber": 78,
        "velocity": 100,
        "subtype": "noteOn"
      },
      {
        "deltaTime": 120,
        "channel": 0,
        "type": "channel",
        "noteNumber": 78,
        "velocity": 0,
        "subtype": "noteOff"
      },
      {
        "deltaTime": 0,
        "channel": 0,
        "type": "channel",
        "noteNumber": 79,
        "velocity": 100,
        "subtype": "noteOn"
      },
      {
        "deltaTime": 120,
        "channel": 0,
        "type": "channel",
        "noteNumber": 79,
        "velocity": 0,
        "subtype": "noteOff"
      },
      {
        "deltaTime": 0,
        "channel": 0,
        "type": "channel",
        "noteNumber": 83,
        "velocity": 100,
        "subtype": "noteOn"
      },
      {
        "deltaTime": 120,
        "channel": 0,
        "type": "channel",
        "noteNumber": 83,
        "velocity": 0,
        "subtype": "noteOff"
      },
      {
        "deltaTime": 0,
        "channel": 0,
        "type": "channel",
        "noteNumber": 86,
        "velocity": 100,
        "subtype": "noteOn"
      },
      {
        "deltaTime": 120,
        "channel": 0,
        "type": "channel",
        "noteNumber": 86,
        "velocity": 0,
        "subtype": "noteOff"
      },
      {
        "deltaTime": 0,
        "channel": 0,
        "type": "channel",
        "noteNumber": 77,
        "velocity": 100,
        "subtype": "noteOn"
      },
      {
        "deltaTime": 120,
        "channel": 0,
        "type": "channel",
        "noteNumber": 77,
        "velocity": 0,
        "subtype": "noteOff"
      },
      {
        "deltaTime": 0,
        "channel": 0,
        "type": "channel",
        "noteNumber": 76,
        "velocity": 100,
        "subtype": "noteOn"
      },
      {
        "deltaTime": 120,
        "channel": 0,
        "type": "channel",
        "noteNumber": 76,
        "velocity": 0,
        "subtype": "noteOff"
      },
      {
        "deltaTime": 0,
        "channel": 0,
        "type": "channel",
        "noteNumber": 79,
        "velocity": 100,
        "subtype": "noteOn"
      },
      {
        "deltaTime": 120,
        "channel": 0,
        "type": "channel",
        "noteNumber": 79,
        "velocity": 0,
        "subtype": "noteOff"
      },
      {
        "deltaTime": 0,
        "channel": 0,
        "type": "channel",
        "noteNumber": 84,
        "velocity": 100,
        "subtype": "noteOn"
      },
      {
        "deltaTime": 120,
        "channel": 0,
        "type": "channel",
        "noteNumber": 84,
        "velocity": 0,
        "subtype": "noteOff"
      },
      {
        "deltaTime": 0,
        "channel": 0,
        "type": "channel",
        "noteNumber": 83,
        "velocity": 100,
        "subtype": "noteOn"
      },
      {
        "deltaTime": 120,
        "channel": 0,
        "type": "channel",
        "noteNumber": 83,
        "velocity": 0,
        "subtype": "noteOff"
      },
      {
        "deltaTime": 0,
        "channel": 0,
        "type": "channel",
        "noteNumber": 84,
        "velocity": 100,
        "subtype": "noteOn"
      },
      {
        "deltaTime": 120,
        "channel": 0,
        "type": "channel",
        "noteNumber": 84,
        "velocity": 0,
        "subtype": "noteOff"
      },
      {
        "deltaTime": 0,
        "channel": 0,
        "type": "channel",
        "noteNumber": 88,
        "velocity": 100,
        "subtype": "noteOn"
      },
      {
        "deltaTime": 120,
        "channel": 0,
        "type": "channel",
        "noteNumber": 88,
        "velocity": 0,
        "subtype": "noteOff"
      },
      {
        "deltaTime": 0,
        "channel": 0,
        "type": "channel",
        "noteNumber": 84,
        "velocity": 100,
        "subtype": "noteOn"
      },
      {
        "deltaTime": 120,
        "channel": 0,
        "type": "channel",
        "noteNumber": 84,
        "velocity": 0,
        "subtype": "noteOff"
      },
      {
        "deltaTime": 0,
        "channel": 0,
        "type": "channel",
        "noteNumber": 79,
        "velocity": 100,
        "subtype": "noteOn"
      },
      {
        "deltaTime": 120,
        "channel": 0,
        "type": "channel",
        "noteNumber": 79,
        "velocity": 0,
        "subtype": "noteOff"
      },
      {
        "deltaTime": 0,
        "channel": 0,
        "type": "channel",
        "noteNumber": 72,
        "velocity": 100,
        "subtype": "noteOn"
      },
      {
        "deltaTime": 120,
        "channel": 0,
        "type": "channel",
        "noteNumber": 72,
        "velocity": 0,
        "subtype": "noteOff"
      },
      {
        "deltaTime": 0,
        "channel": 0,
        "type": "channel",
        "noteNumber": 79,
        "velocity": 100,
        "subtype": "noteOn"
      },
      {
        "deltaTime": 120,
        "channel": 0,
        "type": "channel",
        "noteNumber": 79,
        "velocity": 0,
        "subtype": "noteOff"
      },
      {
        "deltaTime": 0,
        "channel": 0,
        "type": "channel",
        "noteNumber": 84,
        "velocity": 100,
        "subtype": "noteOn"
      },
      {
        "deltaTime": 120,
        "channel": 0,
        "type": "channel",
        "noteNumber": 84,
        "velocity": 0,
        "subtype": "noteOff"
      },
      {
        "deltaTime": 0,
        "channel": 0,
        "type": "channel",
        "noteNumber": 83,
        "velocity": 100,
        "subtype": "noteOn"
      },
      {
        "deltaTime": 120,
        "channel": 0,
        "type": "channel",
        "noteNumber": 83,
        "velocity": 0,
        "subtype": "noteOff"
      },
      {
        "deltaTime": 0,
        "channel": 0,
        "type": "channel",
        "noteNumber": 84,
        "velocity": 100,
        "subtype": "noteOn"
      },
      {
        "deltaTime": 120,
        "channel": 0,
        "type": "channel",
        "noteNumber": 84,
        "velocity": 0,
        "subtype": "noteOff"
      },
      {
        "deltaTime": 0,
        "channel": 0,
        "type": "channel",
        "noteNumber": 88,
        "velocity": 100,
        "subtype": "noteOn"
      },
      {
        "deltaTime": 120,
        "channel": 0,
        "type": "channel",
        "noteNumber": 88,
        "velocity": 0,
        "subtype": "noteOff"
      },
      {
        "deltaTime": 0,
        "channel": 0,
        "type": "channel",
        "noteNumber": 84,
        "velocity": 100,
        "subtype": "noteOn"
      },
      {
        "deltaTime": 120,
        "channel": 0,
        "type": "channel",
        "noteNumber": 84,
        "velocity": 0,
        "subtype": "noteOff"
      },
      {
        "deltaTime": 0,
        "channel": 0,
        "type": "channel",
        "noteNumber": 79,
        "velocity": 100,
        "subtype": "noteOn"
      },
      {
        "deltaTime": 120,
        "channel": 0,
        "type": "channel",
        "noteNumber": 79,
        "velocity": 0,
        "subtype": "noteOff"
      },
      {
        "deltaTime": 0,
        "channel": 0,
        "type": "channel",
        "noteNumber": 72,
        "velocity": 100,
        "subtype": "noteOn"
      },
      {
        "deltaTime": 120,
        "channel": 0,
        "type": "channel",
        "noteNumber": 72,
        "velocity": 0,
        "subtype": "noteOff"
      },
      {
        "deltaTime": 0,
        "channel": 0,
        "type": "channel",
        "noteNumber": 79,
        "velocity": 100,
        "subtype": "noteOn"
      },
      {
        "deltaTime": 120,
        "channel": 0,
        "type": "channel",
        "noteNumber": 79,
        "velocity": 0,
        "subtype": "noteOff"
      },
      {
        "deltaTime": 0,
        "channel": 0,
        "type": "channel",
        "noteNumber": 82,
        "velocity": 100,
        "subtype": "noteOn"
      },
      {
        "deltaTime": 120,
        "channel": 0,
        "type": "channel",
        "noteNumber": 82,
        "velocity": 0,
        "subtype": "noteOff"
      },
      {
        "deltaTime": 0,
        "channel": 0,
        "type": "channel",
        "noteNumber": 81,
        "velocity": 100,
        "subtype": "noteOn"
      },
      {
        "deltaTime": 120,
        "channel": 0,
        "type": "channel",
        "noteNumber": 81,
        "velocity": 0,
        "subtype": "noteOff"
      },
      {
        "deltaTime": 0,
        "channel": 0,
        "type": "channel",
        "noteNumber": 82,
        "velocity": 100,
        "subtype": "noteOn"
      },
      {
        "deltaTime": 120,
        "channel": 0,
        "type": "channel",
        "noteNumber": 82,
        "velocity": 0,
        "subtype": "noteOff"
      },
      {
        "deltaTime": 0,
        "channel": 0,
        "type": "channel",
        "noteNumber": 88,
        "velocity": 100,
        "subtype": "noteOn"
      },
      {
        "deltaTime": 120,
        "channel": 0,
        "type": "channel",
        "noteNumber": 88,
        "velocity": 0,
        "subtype": "noteOff"
      },
      {
        "deltaTime": 0,
        "channel": 0,
        "type": "channel",
        "noteNumber": 82,
        "velocity": 100,
        "subtype": "noteOn"
      },
      {
        "deltaTime": 120,
        "channel": 0,
        "type": "channel",
        "noteNumber": 82,
        "velocity": 0,
        "subtype": "noteOff"
      },
      {
        "deltaTime": 0,
        "channel": 0,
        "type": "channel",
        "noteNumber": 79,
        "velocity": 100,
        "subtype": "noteOn"
      },
      {
        "deltaTime": 120,
        "channel": 0,
        "type": "channel",
        "noteNumber": 79,
        "velocity": 0,
        "subtype": "noteOff"
      },
      {
        "deltaTime": 0,
        "channel": 0,
        "type": "channel",
        "noteNumber": 72,
        "velocity": 100,
        "subtype": "noteOn"
      },
      {
        "deltaTime": 120,
        "channel": 0,
        "type": "channel",
        "noteNumber": 72,
        "velocity": 0,
        "subtype": "noteOff"
      },
      {
        "deltaTime": 0,
        "channel": 0,
        "type": "channel",
        "noteNumber": 79,
        "velocity": 100,
        "subtype": "noteOn"
      },
      {
        "deltaTime": 120,
        "channel": 0,
        "type": "channel",
        "noteNumber": 79,
        "velocity": 0,
        "subtype": "noteOff"
      },
      {
        "deltaTime": 0,
        "channel": 0,
        "type": "channel",
        "noteNumber": 82,
        "velocity": 100,
        "subtype": "noteOn"
      },
      {
        "deltaTime": 120,
        "channel": 0,
        "type": "channel",
        "noteNumber": 82,
        "velocity": 0,
        "subtype": "noteOff"
      },
      {
        "deltaTime": 0,
        "channel": 0,
        "type": "channel",
        "noteNumber": 81,
        "velocity": 100,
        "subtype": "noteOn"
      },
      {
        "deltaTime": 120,
        "channel": 0,
        "type": "channel",
        "noteNumber": 81,
        "velocity": 0,
        "subtype": "noteOff"
      },
      {
        "deltaTime": 0,
        "channel": 0,
        "type": "channel",
        "noteNumber": 82,
        "velocity": 100,
        "subtype": "noteOn"
      },
      {
        "deltaTime": 120,
        "channel": 0,
        "type": "channel",
        "noteNumber": 82,
        "velocity": 0,
        "subtype": "noteOff"
      },
      {
        "deltaTime": 0,
        "channel": 0,
        "type": "channel",
        "noteNumber": 88,
        "velocity": 100,
        "subtype": "noteOn"
      },
      {
        "deltaTime": 120,
        "channel": 0,
        "type": "channel",
        "noteNumber": 88,
        "velocity": 0,
        "subtype": "noteOff"
      },
      {
        "deltaTime": 0,
        "channel": 0,
        "type": "channel",
        "noteNumber": 82,
        "velocity": 100,
        "subtype": "noteOn"
      },
      {
        "deltaTime": 120,
        "channel": 0,
        "type": "channel",
        "noteNumber": 82,
        "velocity": 0,
        "subtype": "noteOff"
      },
      {
        "deltaTime": 0,
        "channel": 0,
        "type": "channel",
        "noteNumber": 79,
        "velocity": 100,
        "subtype": "noteOn"
      },
      {
        "deltaTime": 120,
        "channel": 0,
        "type": "channel",
        "noteNumber": 79,
        "velocity": 0,
        "subtype": "noteOff"
      },
      {
        "deltaTime": 0,
        "channel": 0,
        "type": "channel",
        "noteNumber": 73,
        "velocity": 100,
        "subtype": "noteOn"
      },
      {
        "deltaTime": 120,
        "channel": 0,
        "type": "channel",
        "noteNumber": 73,
        "velocity": 0,
        "subtype": "noteOff"
      },
      {
        "deltaTime": 0,
        "channel": 0,
        "type": "channel",
        "noteNumber": 79,
        "velocity": 100,
        "subtype": "noteOn"
      },
      {
        "deltaTime": 120,
        "channel": 0,
        "type": "channel",
        "noteNumber": 79,
        "velocity": 0,
        "subtype": "noteOff"
      },
      {
        "deltaTime": 0,
        "channel": 0,
        "type": "channel",
        "noteNumber": 82,
        "velocity": 100,
        "subtype": "noteOn"
      },
      {
        "deltaTime": 120,
        "channel": 0,
        "type": "channel",
        "noteNumber": 82,
        "velocity": 0,
        "subtype": "noteOff"
      },
      {
        "deltaTime": 0,
        "channel": 0,
        "type": "channel",
        "noteNumber": 81,
        "velocity": 100,
        "subtype": "noteOn"
      },
      {
        "deltaTime": 120,
        "channel": 0,
        "type": "channel",
        "noteNumber": 81,
        "velocity": 0,
        "subtype": "noteOff"
      },
      {
        "deltaTime": 0,
        "channel": 0,
        "type": "channel",
        "noteNumber": 82,
        "velocity": 100,
        "subtype": "noteOn"
      },
      {
        "deltaTime": 120,
        "channel": 0,
        "type": "channel",
        "noteNumber": 82,
        "velocity": 0,
        "subtype": "noteOff"
      },
      {
        "deltaTime": 0,
        "channel": 0,
        "type": "channel",
        "noteNumber": 88,
        "velocity": 100,
        "subtype": "noteOn"
      },
      {
        "deltaTime": 120,
        "channel": 0,
        "type": "channel",
        "noteNumber": 88,
        "velocity": 0,
        "subtype": "noteOff"
      },
      {
        "deltaTime": 0,
        "channel": 0,
        "type": "channel",
        "noteNumber": 82,
        "velocity": 100,
        "subtype": "noteOn"
      },
      {
        "deltaTime": 120,
        "channel": 0,
        "type": "channel",
        "noteNumber": 82,
        "velocity": 0,
        "subtype": "noteOff"
      },
      {
        "deltaTime": 0,
        "channel": 0,
        "type": "channel",
        "noteNumber": 79,
        "velocity": 100,
        "subtype": "noteOn"
      },
      {
        "deltaTime": 120,
        "channel": 0,
        "type": "channel",
        "noteNumber": 79,
        "velocity": 0,
        "subtype": "noteOff"
      },
      {
        "deltaTime": 0,
        "channel": 0,
        "type": "channel",
        "noteNumber": 73,
        "velocity": 100,
        "subtype": "noteOn"
      },
      {
        "deltaTime": 120,
        "channel": 0,
        "type": "channel",
        "noteNumber": 73,
        "velocity": 0,
        "subtype": "noteOff"
      },
      {
        "deltaTime": 0,
        "channel": 0,
        "type": "channel",
        "noteNumber": 79,
        "velocity": 100,
        "subtype": "noteOn"
      },
      {
        "deltaTime": 120,
        "channel": 0,
        "type": "channel",
        "noteNumber": 79,
        "velocity": 0,
        "subtype": "noteOff"
      },
      {
        "deltaTime": 0,
        "channel": 0,
        "type": "channel",
        "noteNumber": 76,
        "velocity": 100,
        "subtype": "noteOn"
      },
      {
        "deltaTime": 120,
        "channel": 0,
        "type": "channel",
        "noteNumber": 76,
        "velocity": 0,
        "subtype": "noteOff"
      },
      {
        "deltaTime": 0,
        "channel": 0,
        "type": "channel",
        "noteNumber": 73,
        "velocity": 100,
        "subtype": "noteOn"
      },
      {
        "deltaTime": 120,
        "channel": 0,
        "type": "channel",
        "noteNumber": 73,
        "velocity": 0,
        "subtype": "noteOff"
      },
      {
        "deltaTime": 0,
        "channel": 0,
        "type": "channel",
        "noteNumber": 69,
        "velocity": 100,
        "subtype": "noteOn"
      },
      {
        "deltaTime": 120,
        "channel": 0,
        "type": "channel",
        "noteNumber": 69,
        "velocity": 0,
        "subtype": "noteOff"
      },
      {
        "deltaTime": 0,
        "channel": 0,
        "type": "channel",
        "noteNumber": 67,
        "velocity": 100,
        "subtype": "noteOn"
      },
      {
        "deltaTime": 120,
        "channel": 0,
        "type": "channel",
        "noteNumber": 67,
        "velocity": 0,
        "subtype": "noteOff"
      },
      {
        "deltaTime": 0,
        "channel": 0,
        "type": "channel",
        "noteNumber": 65,
        "velocity": 100,
        "subtype": "noteOn"
      },
      {
        "deltaTime": 120,
        "channel": 0,
        "type": "channel",
        "noteNumber": 65,
        "velocity": 0,
        "subtype": "noteOff"
      },
      {
        "deltaTime": 0,
        "channel": 0,
        "type": "channel",
        "noteNumber": 64,
        "velocity": 100,
        "subtype": "noteOn"
      },
      {
        "deltaTime": 120,
        "channel": 0,
        "type": "channel",
        "noteNumber": 64,
        "velocity": 0,
        "subtype": "noteOff"
      },
      {
        "deltaTime": 0,
        "channel": 0,
        "type": "channel",
        "noteNumber": 62,
        "velocity": 100,
        "subtype": "noteOn"
      },
      {
        "deltaTime": 120,
        "channel": 0,
        "type": "channel",
        "noteNumber": 62,
        "velocity": 0,
        "subtype": "noteOff"
      },
      {
        "deltaTime": 0,
        "channel": 0,
        "type": "channel",
        "noteNumber": 79,
        "velocity": 100,
        "subtype": "noteOn"
      },
      {
        "deltaTime": 120,
        "channel": 0,
        "type": "channel",
        "noteNumber": 79,
        "velocity": 0,
        "subtype": "noteOff"
      },
      {
        "deltaTime": 0,
        "channel": 0,
        "type": "channel",
        "noteNumber": 77,
        "velocity": 100,
        "subtype": "noteOn"
      },
      {
        "deltaTime": 120,
        "channel": 0,
        "type": "channel",
        "noteNumber": 77,
        "velocity": 0,
        "subtype": "noteOff"
      },
      {
        "deltaTime": 0,
        "channel": 0,
        "type": "channel",
        "noteNumber": 76,
        "velocity": 100,
        "subtype": "noteOn"
      },
      {
        "deltaTime": 120,
        "channel": 0,
        "type": "channel",
        "noteNumber": 76,
        "velocity": 0,
        "subtype": "noteOff"
      },
      {
        "deltaTime": 0,
        "channel": 0,
        "type": "channel",
        "noteNumber": 77,
        "velocity": 100,
        "subtype": "noteOn"
      },
      {
        "deltaTime": 120,
        "channel": 0,
        "type": "channel",
        "noteNumber": 77,
        "velocity": 0,
        "subtype": "noteOff"
      },
      {
        "deltaTime": 0,
        "channel": 0,
        "type": "channel",
        "noteNumber": 81,
        "velocity": 100,
        "subtype": "noteOn"
      },
      {
        "deltaTime": 120,
        "channel": 0,
        "type": "channel",
        "noteNumber": 81,
        "velocity": 0,
        "subtype": "noteOff"
      },
      {
        "deltaTime": 0,
        "channel": 0,
        "type": "channel",
        "noteNumber": 77,
        "velocity": 100,
        "subtype": "noteOn"
      },
      {
        "deltaTime": 120,
        "channel": 0,
        "type": "channel",
        "noteNumber": 77,
        "velocity": 0,
        "subtype": "noteOff"
      },
      {
        "deltaTime": 0,
        "channel": 0,
        "type": "channel",
        "noteNumber": 74,
        "velocity": 100,
        "subtype": "noteOn"
      },
      {
        "deltaTime": 120,
        "channel": 0,
        "type": "channel",
        "noteNumber": 74,
        "velocity": 0,
        "subtype": "noteOff"
      },
      {
        "deltaTime": 0,
        "channel": 0,
        "type": "channel",
        "noteNumber": 71,
        "velocity": 100,
        "subtype": "noteOn"
      },
      {
        "deltaTime": 120,
        "channel": 0,
        "type": "channel",
        "noteNumber": 71,
        "velocity": 0,
        "subtype": "noteOff"
      },
      {
        "deltaTime": 0,
        "channel": 0,
        "type": "channel",
        "noteNumber": 68,
        "velocity": 100,
        "subtype": "noteOn"
      },
      {
        "deltaTime": 120,
        "channel": 0,
        "type": "channel",
        "noteNumber": 68,
        "velocity": 0,
        "subtype": "noteOff"
      },
      {
        "deltaTime": 0,
        "channel": 0,
        "type": "channel",
        "noteNumber": 71,
        "velocity": 100,
        "subtype": "noteOn"
      },
      {
        "deltaTime": 120,
        "channel": 0,
        "type": "channel",
        "noteNumber": 71,
        "velocity": 0,
        "subtype": "noteOff"
      },
      {
        "deltaTime": 0,
        "channel": 0,
        "type": "channel",
        "noteNumber": 74,
        "velocity": 100,
        "subtype": "noteOn"
      },
      {
        "deltaTime": 120,
        "channel": 0,
        "type": "channel",
        "noteNumber": 74,
        "velocity": 0,
        "subtype": "noteOff"
      },
      {
        "deltaTime": 0,
        "channel": 0,
        "type": "channel",
        "noteNumber": 76,
        "velocity": 100,
        "subtype": "noteOn"
      },
      {
        "deltaTime": 120,
        "channel": 0,
        "type": "channel",
        "noteNumber": 76,
        "velocity": 0,
        "subtype": "noteOff"
      },
      {
        "deltaTime": 0,
        "channel": 0,
        "type": "channel",
        "noteNumber": 74,
        "velocity": 100,
        "subtype": "noteOn"
      },
      {
        "deltaTime": 120,
        "channel": 0,
        "type": "channel",
        "noteNumber": 74,
        "velocity": 0,
        "subtype": "noteOff"
      },
      {
        "deltaTime": 0,
        "channel": 0,
        "type": "channel",
        "noteNumber": 72,
        "velocity": 100,
        "subtype": "noteOn"
      },
      {
        "deltaTime": 120,
        "channel": 0,
        "type": "channel",
        "noteNumber": 72,
        "velocity": 0,
        "subtype": "noteOff"
      },
      {
        "deltaTime": 0,
        "channel": 0,
        "type": "channel",
        "noteNumber": 71,
        "velocity": 100,
        "subtype": "noteOn"
      },
      {
        "deltaTime": 120,
        "channel": 0,
        "type": "channel",
        "noteNumber": 71,
        "velocity": 0,
        "subtype": "noteOff"
      },
      {
        "deltaTime": 0,
        "channel": 0,
        "type": "channel",
        "noteNumber": 72,
        "velocity": 100,
        "subtype": "noteOn"
      },
      {
        "deltaTime": 120,
        "channel": 0,
        "type": "channel",
        "noteNumber": 72,
        "velocity": 0,
        "subtype": "noteOff"
      },
      {
        "deltaTime": 0,
        "channel": 0,
        "type": "channel",
        "noteNumber": 76,
        "velocity": 100,
        "subtype": "noteOn"
      },
      {
        "deltaTime": 120,
        "channel": 0,
        "type": "channel",
        "noteNumber": 76,
        "velocity": 0,
        "subtype": "noteOff"
      },
      {
        "deltaTime": 0,
        "channel": 0,
        "type": "channel",
        "noteNumber": 81,
        "velocity": 100,
        "subtype": "noteOn"
      },
      {
        "deltaTime": 120,
        "channel": 0,
        "type": "channel",
        "noteNumber": 81,
        "velocity": 0,
        "subtype": "noteOff"
      },
      {
        "deltaTime": 0,
        "channel": 0,
        "type": "channel",
        "noteNumber": 80,
        "velocity": 100,
        "subtype": "noteOn"
      },
      {
        "deltaTime": 120,
        "channel": 0,
        "type": "channel",
        "noteNumber": 80,
        "velocity": 0,
        "subtype": "noteOff"
      },
      {
        "deltaTime": 0,
        "channel": 0,
        "type": "channel",
        "noteNumber": 81,
        "velocity": 100,
        "subtype": "noteOn"
      },
      {
        "deltaTime": 120,
        "channel": 0,
        "type": "channel",
        "noteNumber": 81,
        "velocity": 0,
        "subtype": "noteOff"
      },
      {
        "deltaTime": 0,
        "channel": 0,
        "type": "channel",
        "noteNumber": 84,
        "velocity": 100,
        "subtype": "noteOn"
      },
      {
        "deltaTime": 120,
        "channel": 0,
        "type": "channel",
        "noteNumber": 84,
        "velocity": 0,
        "subtype": "noteOff"
      },
      {
        "deltaTime": 0,
        "channel": 0,
        "type": "channel",
        "noteNumber": 81,
        "velocity": 100,
        "subtype": "noteOn"
      },
      {
        "deltaTime": 120,
        "channel": 0,
        "type": "channel",
        "noteNumber": 81,
        "velocity": 0,
        "subtype": "noteOff"
      },
      {
        "deltaTime": 0,
        "channel": 0,
        "type": "channel",
        "noteNumber": 78,
        "velocity": 100,
        "subtype": "noteOn"
      },
      {
        "deltaTime": 120,
        "channel": 0,
        "type": "channel",
        "noteNumber": 78,
        "velocity": 0,
        "subtype": "noteOff"
      },
      {
        "deltaTime": 0,
        "channel": 0,
        "type": "channel",
        "noteNumber": 75,
        "velocity": 100,
        "subtype": "noteOn"
      },
      {
        "deltaTime": 120,
        "channel": 0,
        "type": "channel",
        "noteNumber": 75,
        "velocity": 0,
        "subtype": "noteOff"
      },
      {
        "deltaTime": 0,
        "channel": 0,
        "type": "channel",
        "noteNumber": 71,
        "velocity": 100,
        "subtype": "noteOn"
      },
      {
        "deltaTime": 120,
        "channel": 0,
        "type": "channel",
        "noteNumber": 71,
        "velocity": 0,
        "subtype": "noteOff"
      },
      {
        "deltaTime": 0,
        "channel": 0,
        "type": "channel",
        "noteNumber": 75,
        "velocity": 100,
        "subtype": "noteOn"
      },
      {
        "deltaTime": 120,
        "channel": 0,
        "type": "channel",
        "noteNumber": 75,
        "velocity": 0,
        "subtype": "noteOff"
      },
      {
        "deltaTime": 0,
        "channel": 0,
        "type": "channel",
        "noteNumber": 78,
        "velocity": 100,
        "subtype": "noteOn"
      },
      {
        "deltaTime": 120,
        "channel": 0,
        "type": "channel",
        "noteNumber": 78,
        "velocity": 0,
        "subtype": "noteOff"
      },
      {
        "deltaTime": 0,
        "channel": 0,
        "type": "channel",
        "noteNumber": 83,
        "velocity": 100,
        "subtype": "noteOn"
      },
      {
        "deltaTime": 120,
        "channel": 0,
        "type": "channel",
        "noteNumber": 83,
        "velocity": 0,
        "subtype": "noteOff"
      },
      {
        "deltaTime": 0,
        "channel": 0,
        "type": "channel",
        "noteNumber": 81,
        "velocity": 100,
        "subtype": "noteOn"
      },
      {
        "deltaTime": 120,
        "channel": 0,
        "type": "channel",
        "noteNumber": 81,
        "velocity": 0,
        "subtype": "noteOff"
      },
      {
        "deltaTime": 0,
        "channel": 0,
        "type": "channel",
        "noteNumber": 79,
        "velocity": 100,
        "subtype": "noteOn"
      },
      {
        "deltaTime": 120,
        "channel": 0,
        "type": "channel",
        "noteNumber": 79,
        "velocity": 0,
        "subtype": "noteOff"
      },
      {
        "deltaTime": 0,
        "channel": 0,
        "type": "channel",
        "noteNumber": 78,
        "velocity": 100,
        "subtype": "noteOn"
      },
      {
        "deltaTime": 120,
        "channel": 0,
        "type": "channel",
        "noteNumber": 78,
        "velocity": 0,
        "subtype": "noteOff"
      },
      {
        "deltaTime": 0,
        "channel": 0,
        "type": "channel",
        "noteNumber": 79,
        "velocity": 100,
        "subtype": "noteOn"
      },
      {
        "deltaTime": 120,
        "channel": 0,
        "type": "channel",
        "noteNumber": 79,
        "velocity": 0,
        "subtype": "noteOff"
      },
      {
        "deltaTime": 0,
        "channel": 0,
        "type": "channel",
        "noteNumber": 78,
        "velocity": 100,
        "subtype": "noteOn"
      },
      {
        "deltaTime": 120,
        "channel": 0,
        "type": "channel",
        "noteNumber": 78,
        "velocity": 0,
        "subtype": "noteOff"
      },
      {
        "deltaTime": 0,
        "channel": 0,
        "type": "channel",
        "noteNumber": 76,
        "velocity": 100,
        "subtype": "noteOn"
      },
      {
        "deltaTime": 120,
        "channel": 0,
        "type": "channel",
        "noteNumber": 76,
        "velocity": 0,
        "subtype": "noteOff"
      },
      {
        "deltaTime": 0,
        "channel": 0,
        "type": "channel",
        "noteNumber": 79,
        "velocity": 100,
        "subtype": "noteOn"
      },
      {
        "deltaTime": 120,
        "channel": 0,
        "type": "channel",
        "noteNumber": 79,
        "velocity": 0,
        "subtype": "noteOff"
      },
      {
        "deltaTime": 0,
        "channel": 0,
        "type": "channel",
        "noteNumber": 69,
        "velocity": 100,
        "subtype": "noteOn"
      },
      {
        "deltaTime": 120,
        "channel": 0,
        "type": "channel",
        "noteNumber": 69,
        "velocity": 0,
        "subtype": "noteOff"
      },
      {
        "deltaTime": 0,
        "channel": 0,
        "type": "channel",
        "noteNumber": 76,
        "velocity": 100,
        "subtype": "noteOn"
      },
      {
        "deltaTime": 120,
        "channel": 0,
        "type": "channel",
        "noteNumber": 76,
        "velocity": 0,
        "subtype": "noteOff"
      },
      {
        "deltaTime": 0,
        "channel": 0,
        "type": "channel",
        "noteNumber": 79,
        "velocity": 100,
        "subtype": "noteOn"
      },
      {
        "deltaTime": 120,
        "channel": 0,
        "type": "channel",
        "noteNumber": 79,
        "velocity": 0,
        "subtype": "noteOff"
      },
      {
        "deltaTime": 0,
        "channel": 0,
        "type": "channel",
        "noteNumber": 84,
        "velocity": 100,
        "subtype": "noteOn"
      },
      {
        "deltaTime": 120,
        "channel": 0,
        "type": "channel",
        "noteNumber": 84,
        "velocity": 0,
        "subtype": "noteOff"
      },
      {
        "deltaTime": 0,
        "channel": 0,
        "type": "channel",
        "noteNumber": 78,
        "velocity": 100,
        "subtype": "noteOn"
      },
      {
        "deltaTime": 120,
        "channel": 0,
        "type": "channel",
        "noteNumber": 78,
        "velocity": 0,
        "subtype": "noteOff"
      },
      {
        "deltaTime": 0,
        "channel": 0,
        "type": "channel",
        "noteNumber": 76,
        "velocity": 100,
        "subtype": "noteOn"
      },
      {
        "deltaTime": 120,
        "channel": 0,
        "type": "channel",
        "noteNumber": 76,
        "velocity": 0,
        "subtype": "noteOff"
      },
      {
        "deltaTime": 0,
        "channel": 0,
        "type": "channel",
        "noteNumber": 74,
        "velocity": 100,
        "subtype": "noteOn"
      },
      {
        "deltaTime": 120,
        "channel": 0,
        "type": "channel",
        "noteNumber": 74,
        "velocity": 0,
        "subtype": "noteOff"
      },
      {
        "deltaTime": 0,
        "channel": 0,
        "type": "channel",
        "noteNumber": 78,
        "velocity": 100,
        "subtype": "noteOn"
      },
      {
        "deltaTime": 120,
        "channel": 0,
        "type": "channel",
        "noteNumber": 78,
        "velocity": 0,
        "subtype": "noteOff"
      },
      {
        "deltaTime": 0,
        "channel": 0,
        "type": "channel",
        "noteNumber": 67,
        "velocity": 100,
        "subtype": "noteOn"
      },
      {
        "deltaTime": 120,
        "channel": 0,
        "type": "channel",
        "noteNumber": 67,
        "velocity": 0,
        "subtype": "noteOff"
      },
      {
        "deltaTime": 0,
        "channel": 0,
        "type": "channel",
        "noteNumber": 74,
        "velocity": 100,
        "subtype": "noteOn"
      },
      {
        "deltaTime": 120,
        "channel": 0,
        "type": "channel",
        "noteNumber": 74,
        "velocity": 0,
        "subtype": "noteOff"
      },
      {
        "deltaTime": 0,
        "channel": 0,
        "type": "channel",
        "noteNumber": 78,
        "velocity": 100,
        "subtype": "noteOn"
      },
      {
        "deltaTime": 120,
        "channel": 0,
        "type": "channel",
        "noteNumber": 78,
        "velocity": 0,
        "subtype": "noteOff"
      },
      {
        "deltaTime": 0,
        "channel": 0,
        "type": "channel",
        "noteNumber": 83,
        "velocity": 100,
        "subtype": "noteOn"
      },
      {
        "deltaTime": 120,
        "channel": 0,
        "type": "channel",
        "noteNumber": 83,
        "velocity": 0,
        "subtype": "noteOff"
      },
      {
        "deltaTime": 0,
        "channel": 0,
        "type": "channel",
        "noteNumber": 76,
        "velocity": 100,
        "subtype": "noteOn"
      },
      {
        "deltaTime": 120,
        "channel": 0,
        "type": "channel",
        "noteNumber": 76,
        "velocity": 0,
        "subtype": "noteOff"
      },
      {
        "deltaTime": 0,
        "channel": 0,
        "type": "channel",
        "noteNumber": 74,
        "velocity": 100,
        "subtype": "noteOn"
      },
      {
        "deltaTime": 120,
        "channel": 0,
        "type": "channel",
        "noteNumber": 74,
        "velocity": 0,
        "subtype": "noteOff"
      },
      {
        "deltaTime": 0,
        "channel": 0,
        "type": "channel",
        "noteNumber": 72,
        "velocity": 100,
        "subtype": "noteOn"
      },
      {
        "deltaTime": 120,
        "channel": 0,
        "type": "channel",
        "noteNumber": 72,
        "velocity": 0,
        "subtype": "noteOff"
      },
      {
        "deltaTime": 0,
        "channel": 0,
        "type": "channel",
        "noteNumber": 76,
        "velocity": 100,
        "subtype": "noteOn"
      },
      {
        "deltaTime": 120,
        "channel": 0,
        "type": "channel",
        "noteNumber": 76,
        "velocity": 0,
        "subtype": "noteOff"
      },
      {
        "deltaTime": 0,
        "channel": 0,
        "type": "channel",
        "noteNumber": 66,
        "velocity": 100,
        "subtype": "noteOn"
      },
      {
        "deltaTime": 120,
        "channel": 0,
        "type": "channel",
        "noteNumber": 66,
        "velocity": 0,
        "subtype": "noteOff"
      },
      {
        "deltaTime": 0,
        "channel": 0,
        "type": "channel",
        "noteNumber": 76,
        "velocity": 100,
        "subtype": "noteOn"
      },
      {
        "deltaTime": 120,
        "channel": 0,
        "type": "channel",
        "noteNumber": 76,
        "velocity": 0,
        "subtype": "noteOff"
      },
      {
        "deltaTime": 0,
        "channel": 0,
        "type": "channel",
        "noteNumber": 78,
        "velocity": 100,
        "subtype": "noteOn"
      },
      {
        "deltaTime": 120,
        "channel": 0,
        "type": "channel",
        "noteNumber": 78,
        "velocity": 0,
        "subtype": "noteOff"
      },
      {
        "deltaTime": 0,
        "channel": 0,
        "type": "channel",
        "noteNumber": 81,
        "velocity": 100,
        "subtype": "noteOn"
      },
      {
        "deltaTime": 120,
        "channel": 0,
        "type": "channel",
        "noteNumber": 81,
        "velocity": 0,
        "subtype": "noteOff"
      },
      {
        "deltaTime": 0,
        "channel": 0,
        "type": "channel",
        "noteNumber": 75,
        "velocity": 100,
        "subtype": "noteOn"
      },
      {
        "deltaTime": 120,
        "channel": 0,
        "type": "channel",
        "noteNumber": 75,
        "velocity": 0,
        "subtype": "noteOff"
      },
      {
        "deltaTime": 0,
        "channel": 0,
        "type": "channel",
        "noteNumber": 71,
        "velocity": 100,
        "subtype": "noteOn"
      },
      {
        "deltaTime": 120,
        "channel": 0,
        "type": "channel",
        "noteNumber": 71,
        "velocity": 0,
        "subtype": "noteOff"
      },
      {
        "deltaTime": 0,
        "channel": 0,
        "type": "channel",
        "noteNumber": 72,
        "velocity": 100,
        "subtype": "noteOn"
      },
      {
        "deltaTime": 120,
        "channel": 0,
        "type": "channel",
        "noteNumber": 72,
        "velocity": 0,
        "subtype": "noteOff"
      },
      {
        "deltaTime": 0,
        "channel": 0,
        "type": "channel",
        "noteNumber": 69,
        "velocity": 100,
        "subtype": "noteOn"
      },
      {
        "deltaTime": 120,
        "channel": 0,
        "type": "channel",
        "noteNumber": 69,
        "velocity": 0,
        "subtype": "noteOff"
      },
      {
        "deltaTime": 0,
        "channel": 0,
        "type": "channel",
        "noteNumber": 63,
        "velocity": 100,
        "subtype": "noteOn"
      },
      {
        "deltaTime": 120,
        "channel": 0,
        "type": "channel",
        "noteNumber": 63,
        "velocity": 0,
        "subtype": "noteOff"
      },
      {
        "deltaTime": 0,
        "channel": 0,
        "type": "channel",
        "noteNumber": 72,
        "velocity": 100,
        "subtype": "noteOn"
      },
      {
        "deltaTime": 120,
        "channel": 0,
        "type": "channel",
        "noteNumber": 72,
        "velocity": 0,
        "subtype": "noteOff"
      },
      {
        "deltaTime": 0,
        "channel": 0,
        "type": "channel",
        "noteNumber": 71,
        "velocity": 100,
        "subtype": "noteOn"
      },
      {
        "deltaTime": 120,
        "channel": 0,
        "type": "channel",
        "noteNumber": 71,
        "velocity": 0,
        "subtype": "noteOff"
      },
      {
        "deltaTime": 0,
        "channel": 0,
        "type": "channel",
        "noteNumber": 69,
        "velocity": 100,
        "subtype": "noteOn"
      },
      {
        "deltaTime": 120,
        "channel": 0,
        "type": "channel",
        "noteNumber": 69,
        "velocity": 0,
        "subtype": "noteOff"
      },
      {
        "deltaTime": 0,
        "channel": 0,
        "type": "channel",
        "noteNumber": 67,
        "velocity": 100,
        "subtype": "noteOn"
      },
      {
        "deltaTime": 120,
        "channel": 0,
        "type": "channel",
        "noteNumber": 67,
        "velocity": 0,
        "subtype": "noteOff"
      },
      {
        "deltaTime": 0,
        "channel": 0,
        "type": "channel",
        "noteNumber": 76,
        "velocity": 100,
        "subtype": "noteOn"
      },
      {
        "deltaTime": 120,
        "channel": 0,
        "type": "channel",
        "noteNumber": 76,
        "velocity": 0,
        "subtype": "noteOff"
      },
      {
        "deltaTime": 0,
        "channel": 0,
        "type": "channel",
        "noteNumber": 77,
        "velocity": 100,
        "subtype": "noteOn"
      },
      {
        "deltaTime": 120,
        "channel": 0,
        "type": "channel",
        "noteNumber": 77,
        "velocity": 0,
        "subtype": "noteOff"
      },
      {
        "deltaTime": 0,
        "channel": 0,
        "type": "channel",
        "noteNumber": 74,
        "velocity": 100,
        "subtype": "noteOn"
      },
      {
        "deltaTime": 120,
        "channel": 0,
        "type": "channel",
        "noteNumber": 74,
        "velocity": 0,
        "subtype": "noteOff"
      },
      {
        "deltaTime": 0,
        "channel": 0,
        "type": "channel",
        "noteNumber": 68,
        "velocity": 100,
        "subtype": "noteOn"
      },
      {
        "deltaTime": 120,
        "channel": 0,
        "type": "channel",
        "noteNumber": 68,
        "velocity": 0,
        "subtype": "noteOff"
      },
      {
        "deltaTime": 0,
        "channel": 0,
        "type": "channel",
        "noteNumber": 77,
        "velocity": 100,
        "subtype": "noteOn"
      },
      {
        "deltaTime": 120,
        "channel": 0,
        "type": "channel",
        "noteNumber": 77,
        "velocity": 0,
        "subtype": "noteOff"
      },
      {
        "deltaTime": 0,
        "channel": 0,
        "type": "channel",
        "noteNumber": 76,
        "velocity": 100,
        "subtype": "noteOn"
      },
      {
        "deltaTime": 120,
        "channel": 0,
        "type": "channel",
        "noteNumber": 76,
        "velocity": 0,
        "subtype": "noteOff"
      },
      {
        "deltaTime": 0,
        "channel": 0,
        "type": "channel",
        "noteNumber": 74,
        "velocity": 100,
        "subtype": "noteOn"
      },
      {
        "deltaTime": 120,
        "channel": 0,
        "type": "channel",
        "noteNumber": 74,
        "velocity": 0,
        "subtype": "noteOff"
      },
      {
        "deltaTime": 0,
        "channel": 0,
        "type": "channel",
        "noteNumber": 69,
        "velocity": 100,
        "subtype": "noteOn"
      },
      {
        "deltaTime": 120,
        "channel": 0,
        "type": "channel",
        "noteNumber": 69,
        "velocity": 0,
        "subtype": "noteOff"
      },
      {
        "deltaTime": 0,
        "channel": 0,
        "type": "channel",
        "noteNumber": 78,
        "velocity": 100,
        "subtype": "noteOn"
      },
      {
        "deltaTime": 120,
        "channel": 0,
        "type": "channel",
        "noteNumber": 78,
        "velocity": 0,
        "subtype": "noteOff"
      },
      {
        "deltaTime": 0,
        "channel": 0,
        "type": "channel",
        "noteNumber": 79,
        "velocity": 100,
        "subtype": "noteOn"
      },
      {
        "deltaTime": 120,
        "channel": 0,
        "type": "channel",
        "noteNumber": 79,
        "velocity": 0,
        "subtype": "noteOff"
      },
      {
        "deltaTime": 0,
        "channel": 0,
        "type": "channel",
        "noteNumber": 76,
        "velocity": 100,
        "subtype": "noteOn"
      },
      {
        "deltaTime": 120,
        "channel": 0,
        "type": "channel",
        "noteNumber": 76,
        "velocity": 0,
        "subtype": "noteOff"
      },
      {
        "deltaTime": 0,
        "channel": 0,
        "type": "channel",
        "noteNumber": 70,
        "velocity": 100,
        "subtype": "noteOn"
      },
      {
        "deltaTime": 120,
        "channel": 0,
        "type": "channel",
        "noteNumber": 70,
        "velocity": 0,
        "subtype": "noteOff"
      },
      {
        "deltaTime": 0,
        "channel": 0,
        "type": "channel",
        "noteNumber": 79,
        "velocity": 100,
        "subtype": "noteOn"
      },
      {
        "deltaTime": 120,
        "channel": 0,
        "type": "channel",
        "noteNumber": 79,
        "velocity": 0,
        "subtype": "noteOff"
      },
      {
        "deltaTime": 0,
        "channel": 0,
        "type": "channel",
        "noteNumber": 78,
        "velocity": 100,
        "subtype": "noteOn"
      },
      {
        "deltaTime": 120,
        "channel": 0,
        "type": "channel",
        "noteNumber": 78,
        "velocity": 0,
        "subtype": "noteOff"
      },
      {
        "deltaTime": 0,
        "channel": 0,
        "type": "channel",
        "noteNumber": 76,
        "velocity": 100,
        "subtype": "noteOn"
      },
      {
        "deltaTime": 120,
        "channel": 0,
        "type": "channel",
        "noteNumber": 76,
        "velocity": 0,
        "subtype": "noteOff"
      },
      {
        "deltaTime": 0,
        "channel": 0,
        "type": "channel",
        "noteNumber": 75,
        "velocity": 100,
        "subtype": "noteOn"
      },
      {
        "deltaTime": 120,
        "channel": 0,
        "type": "channel",
        "noteNumber": 75,
        "velocity": 0,
        "subtype": "noteOff"
      },
      {
        "deltaTime": 0,
        "channel": 0,
        "type": "channel",
        "noteNumber": 83,
        "velocity": 100,
        "subtype": "noteOn"
      },
      {
        "deltaTime": 120,
        "channel": 0,
        "type": "channel",
        "noteNumber": 83,
        "velocity": 0,
        "subtype": "noteOff"
      },
      {
        "deltaTime": 0,
        "channel": 0,
        "type": "channel",
        "noteNumber": 80,
        "velocity": 100,
        "subtype": "noteOn"
      },
      {
        "deltaTime": 120,
        "channel": 0,
        "type": "channel",
        "noteNumber": 80,
        "velocity": 0,
        "subtype": "noteOff"
      },
      {
        "deltaTime": 0,
        "channel": 0,
        "type": "channel",
        "noteNumber": 74,
        "velocity": 100,
        "subtype": "noteOn"
      },
      {
        "deltaTime": 120,
        "channel": 0,
        "type": "channel",
        "noteNumber": 74,
        "velocity": 0,
        "subtype": "noteOff"
      },
      {
        "deltaTime": 0,
        "channel": 0,
        "type": "channel",
        "noteNumber": 73,
        "velocity": 100,
        "subtype": "noteOn"
      },
      {
        "deltaTime": 120,
        "channel": 0,
        "type": "channel",
        "noteNumber": 73,
        "velocity": 0,
        "subtype": "noteOff"
      },
      {
        "deltaTime": 0,
        "channel": 0,
        "type": "channel",
        "noteNumber": 81,
        "velocity": 100,
        "subtype": "noteOn"
      },
      {
        "deltaTime": 120,
        "channel": 0,
        "type": "channel",
        "noteNumber": 81,
        "velocity": 0,
        "subtype": "noteOff"
      },
      {
        "deltaTime": 0,
        "channel": 0,
        "type": "channel",
        "noteNumber": 78,
        "velocity": 100,
        "subtype": "noteOn"
      },
      {
        "deltaTime": 120,
        "channel": 0,
        "type": "channel",
        "noteNumber": 78,
        "velocity": 0,
        "subtype": "noteOff"
      },
      {
        "deltaTime": 0,
        "channel": 0,
        "type": "channel",
        "noteNumber": 72,
        "velocity": 100,
        "subtype": "noteOn"
      },
      {
        "deltaTime": 120,
        "channel": 0,
        "type": "channel",
        "noteNumber": 72,
        "velocity": 0,
        "subtype": "noteOff"
      },
      {
        "deltaTime": 0,
        "channel": 0,
        "type": "channel",
        "noteNumber": 71,
        "velocity": 100,
        "subtype": "noteOn"
      },
      {
        "deltaTime": 120,
        "channel": 0,
        "type": "channel",
        "noteNumber": 71,
        "velocity": 0,
        "subtype": "noteOff"
      },
      {
        "deltaTime": 0,
        "channel": 0,
        "type": "channel",
        "noteNumber": 79,
        "velocity": 100,
        "subtype": "noteOn"
      },
      {
        "deltaTime": 120,
        "channel": 0,
        "type": "channel",
        "noteNumber": 79,
        "velocity": 0,
        "subtype": "noteOff"
      },
      {
        "deltaTime": 0,
        "channel": 0,
        "type": "channel",
        "noteNumber": 76,
        "velocity": 100,
        "subtype": "noteOn"
      },
      {
        "deltaTime": 120,
        "channel": 0,
        "type": "channel",
        "noteNumber": 76,
        "velocity": 0,
        "subtype": "noteOff"
      },
      {
        "deltaTime": 0,
        "channel": 0,
        "type": "channel",
        "noteNumber": 70,
        "velocity": 100,
        "subtype": "noteOn"
      },
      {
        "deltaTime": 120,
        "channel": 0,
        "type": "channel",
        "noteNumber": 70,
        "velocity": 0,
        "subtype": "noteOff"
      },
      {
        "deltaTime": 0,
        "channel": 0,
        "type": "channel",
        "noteNumber": 69,
        "velocity": 100,
        "subtype": "noteOn"
      },
      {
        "deltaTime": 120,
        "channel": 0,
        "type": "channel",
        "noteNumber": 69,
        "velocity": 0,
        "subtype": "noteOff"
      },
      {
        "deltaTime": 0,
        "channel": 0,
        "type": "channel",
        "noteNumber": 78,
        "velocity": 100,
        "subtype": "noteOn"
      },
      {
        "deltaTime": 120,
        "channel": 0,
        "type": "channel",
        "noteNumber": 78,
        "velocity": 0,
        "subtype": "noteOff"
      },
      {
        "deltaTime": 0,
        "channel": 0,
        "type": "channel",
        "noteNumber": 75,
        "velocity": 100,
        "subtype": "noteOn"
      },
      {
        "deltaTime": 120,
        "channel": 0,
        "type": "channel",
        "noteNumber": 75,
        "velocity": 0,
        "subtype": "noteOff"
      },
      {
        "deltaTime": 0,
        "channel": 0,
        "type": "channel",
        "noteNumber": 69,
        "velocity": 100,
        "subtype": "noteOn"
      },
      {
        "deltaTime": 120,
        "channel": 0,
        "type": "channel",
        "noteNumber": 69,
        "velocity": 0,
        "subtype": "noteOff"
      },
      {
        "deltaTime": 0,
        "channel": 0,
        "type": "channel",
        "noteNumber": 67,
        "velocity": 100,
        "subtype": "noteOn"
      },
      {
        "deltaTime": 120,
        "channel": 0,
        "type": "channel",
        "noteNumber": 67,
        "velocity": 0,
        "subtype": "noteOff"
      },
      {
        "deltaTime": 0,
        "channel": 0,
        "type": "channel",
        "noteNumber": 76,
        "velocity": 100,
        "subtype": "noteOn"
      },
      {
        "deltaTime": 120,
        "channel": 0,
        "type": "channel",
        "noteNumber": 76,
        "velocity": 0,
        "subtype": "noteOff"
      },
      {
        "deltaTime": 0,
        "channel": 0,
        "type": "channel",
        "noteNumber": 72,
        "velocity": 100,
        "subtype": "noteOn"
      },
      {
        "deltaTime": 120,
        "channel": 0,
        "type": "channel",
        "noteNumber": 72,
        "velocity": 0,
        "subtype": "noteOff"
      },
      {
        "deltaTime": 0,
        "channel": 0,
        "type": "channel",
        "noteNumber": 69,
        "velocity": 100,
        "subtype": "noteOn"
      },
      {
        "deltaTime": 120,
        "channel": 0,
        "type": "channel",
        "noteNumber": 69,
        "velocity": 0,
        "subtype": "noteOff"
      },
      {
        "deltaTime": 0,
        "channel": 0,
        "type": "channel",
        "noteNumber": 66,
        "velocity": 100,
        "subtype": "noteOn"
      },
      {
        "deltaTime": 120,
        "channel": 0,
        "type": "channel",
        "noteNumber": 66,
        "velocity": 0,
        "subtype": "noteOff"
      },
      {
        "deltaTime": 0,
        "channel": 0,
        "type": "channel",
        "noteNumber": 72,
        "velocity": 100,
        "subtype": "noteOn"
      },
      {
        "deltaTime": 120,
        "channel": 0,
        "type": "channel",
        "noteNumber": 72,
        "velocity": 0,
        "subtype": "noteOff"
      },
      {
        "deltaTime": 0,
        "channel": 0,
        "type": "channel",
        "noteNumber": 69,
        "velocity": 100,
        "subtype": "noteOn"
      },
      {
        "deltaTime": 120,
        "channel": 0,
        "type": "channel",
        "noteNumber": 69,
        "velocity": 0,
        "subtype": "noteOff"
      },
      {
        "deltaTime": 0,
        "channel": 0,
        "type": "channel",
        "noteNumber": 66,
        "velocity": 100,
        "subtype": "noteOn"
      },
      {
        "deltaTime": 120,
        "channel": 0,
        "type": "channel",
        "noteNumber": 66,
        "velocity": 0,
        "subtype": "noteOff"
      },
      {
        "deltaTime": 0,
        "channel": 0,
        "type": "channel",
        "noteNumber": 63,
        "velocity": 100,
        "subtype": "noteOn"
      },
      {
        "deltaTime": 120,
        "channel": 0,
        "type": "channel",
        "noteNumber": 63,
        "velocity": 0,
        "subtype": "noteOff"
      },
      {
        "deltaTime": 0,
        "channel": 0,
        "type": "channel",
        "noteNumber": 66,
        "velocity": 100,
        "subtype": "noteOn"
      },
      {
        "deltaTime": 120,
        "channel": 0,
        "type": "channel",
        "noteNumber": 66,
        "velocity": 0,
        "subtype": "noteOff"
      },
      {
        "deltaTime": 0,
        "channel": 0,
        "type": "channel",
        "noteNumber": 69,
        "velocity": 100,
        "subtype": "noteOn"
      },
      {
        "deltaTime": 120,
        "channel": 0,
        "type": "channel",
        "noteNumber": 69,
        "velocity": 0,
        "subtype": "noteOff"
      },
      {
        "deltaTime": 0,
        "channel": 0,
        "type": "channel",
        "noteNumber": 72,
        "velocity": 100,
        "subtype": "noteOn"
      },
      {
        "deltaTime": 120,
        "channel": 0,
        "type": "channel",
        "noteNumber": 72,
        "velocity": 0,
        "subtype": "noteOff"
      },
      {
        "deltaTime": 0,
        "channel": 0,
        "type": "channel",
        "noteNumber": 71,
        "velocity": 100,
        "subtype": "noteOn"
      },
      {
        "deltaTime": 120,
        "channel": 0,
        "type": "channel",
        "noteNumber": 71,
        "velocity": 0,
        "subtype": "noteOff"
      },
      {
        "deltaTime": 0,
        "channel": 0,
        "type": "channel",
        "noteNumber": 81,
        "velocity": 100,
        "subtype": "noteOn"
      },
      {
        "deltaTime": 120,
        "channel": 0,
        "type": "channel",
        "noteNumber": 81,
        "velocity": 0,
        "subtype": "noteOff"
      },
      {
        "deltaTime": 0,
        "channel": 0,
        "type": "channel",
        "noteNumber": 79,
        "velocity": 100,
        "subtype": "noteOn"
      },
      {
        "deltaTime": 120,
        "channel": 0,
        "type": "channel",
        "noteNumber": 79,
        "velocity": 0,
        "subtype": "noteOff"
      },
      {
        "deltaTime": 0,
        "channel": 0,
        "type": "channel",
        "noteNumber": 78,
        "velocity": 100,
        "subtype": "noteOn"
      },
      {
        "deltaTime": 120,
        "channel": 0,
        "type": "channel",
        "noteNumber": 78,
        "velocity": 0,
        "subtype": "noteOff"
      },
      {
        "deltaTime": 0,
        "channel": 0,
        "type": "channel",
        "noteNumber": 79,
        "velocity": 100,
        "subtype": "noteOn"
      },
      {
        "deltaTime": 120,
        "channel": 0,
        "type": "channel",
        "noteNumber": 79,
        "velocity": 0,
        "subtype": "noteOff"
      },
      {
        "deltaTime": 0,
        "channel": 0,
        "type": "channel",
        "noteNumber": 78,
        "velocity": 100,
        "subtype": "noteOn"
      },
      {
        "deltaTime": 60,
        "channel": 0,
        "type": "channel",
        "noteNumber": 78,
        "velocity": 0,
        "subtype": "noteOff"
      },
      {
        "deltaTime": 0,
        "channel": 0,
        "type": "channel",
        "noteNumber": 76,
        "velocity": 100,
        "subtype": "noteOn"
      },
      {
        "deltaTime": 60,
        "channel": 0,
        "type": "channel",
        "noteNumber": 76,
        "velocity": 0,
        "subtype": "noteOff"
      },
      {
        "deltaTime": 0,
        "channel": 0,
        "type": "channel",
        "noteNumber": 83,
        "velocity": 100,
        "subtype": "noteOn"
      },
      {
        "deltaTime": 120,
        "channel": 0,
        "type": "channel",
        "noteNumber": 83,
        "velocity": 0,
        "subtype": "noteOff"
      },
      {
        "deltaTime": 0,
        "channel": 0,
        "type": "channel",
        "noteNumber": 84,
        "velocity": 100,
        "subtype": "noteOn"
      },
      {
        "deltaTime": 120,
        "channel": 0,
        "type": "channel",
        "noteNumber": 84,
        "velocity": 0,
        "subtype": "noteOff"
      },
      {
        "deltaTime": 0,
        "channel": 0,
        "type": "channel",
        "noteNumber": 78,
        "velocity": 100,
        "subtype": "noteOn"
      },
      {
        "deltaTime": 0,
        "channel": 0,
        "type": "channel",
        "subtype": "pitchBend",
        "value": 12288
      },
      {
        "deltaTime": 84,
        "channel": 0,
        "type": "channel",
        "subtype": "pitchBend",
        "value": 8192
      },
      {
        "deltaTime": 80,
        "channel": 0,
        "type": "channel",
        "subtype": "pitchBend",
        "value": 12288
      },
      {
        "deltaTime": 80,
        "channel": 0,
        "type": "channel",
        "subtype": "pitchBend",
        "value": 8192
      },
      {
        "deltaTime": 116,
        "channel": 0,
        "type": "channel",
        "noteNumber": 78,
        "velocity": 0,
        "subtype": "noteOff"
      },
      {
        "deltaTime": 0,
        "channel": 0,
        "type": "channel",
        "noteNumber": 76,
        "velocity": 100,
        "subtype": "noteOn"
      },
      {
        "deltaTime": 120,
        "channel": 0,
        "type": "channel",
        "noteNumber": 76,
        "velocity": 0,
        "subtype": "noteOff"
      },
      {
        "deltaTime": 0,
        "channel": 0,
        "type": "channel",
        "noteNumber": 76,
        "velocity": 100,
        "subtype": "noteOn"
      },
      {
        "deltaTime": 120,
        "channel": 0,
        "type": "channel",
        "noteNumber": 76,
        "velocity": 0,
        "subtype": "noteOff"
      },
      {
        "deltaTime": 0,
        "channel": 0,
        "type": "channel",
        "noteNumber": 71,
        "velocity": 100,
        "subtype": "noteOn"
      },
      {
        "deltaTime": 120,
        "channel": 0,
        "type": "channel",
        "noteNumber": 71,
        "velocity": 0,
        "subtype": "noteOff"
      },
      {
        "deltaTime": 0,
        "channel": 0,
        "type": "channel",
        "noteNumber": 72,
        "velocity": 100,
        "subtype": "noteOn"
      },
      {
        "deltaTime": 120,
        "channel": 0,
        "type": "channel",
        "noteNumber": 72,
        "velocity": 0,
        "subtype": "noteOff"
      },
      {
        "deltaTime": 0,
        "channel": 0,
        "type": "channel",
        "noteNumber": 69,
        "velocity": 100,
        "subtype": "noteOn"
      },
      {
        "deltaTime": 120,
        "channel": 0,
        "type": "channel",
        "noteNumber": 69,
        "velocity": 0,
        "subtype": "noteOff"
      },
      {
        "deltaTime": 0,
        "channel": 0,
        "type": "channel",
        "noteNumber": 71,
        "velocity": 100,
        "subtype": "noteOn"
      },
      {
        "deltaTime": 120,
        "channel": 0,
        "type": "channel",
        "noteNumber": 71,
        "velocity": 0,
        "subtype": "noteOff"
      },
      {
        "deltaTime": 0,
        "channel": 0,
        "type": "channel",
        "noteNumber": 67,
        "velocity": 100,
        "subtype": "noteOn"
      },
      {
        "deltaTime": 120,
        "channel": 0,
        "type": "channel",
        "noteNumber": 67,
        "velocity": 0,
        "subtype": "noteOff"
      },
      {
        "deltaTime": 0,
        "channel": 0,
        "type": "channel",
        "noteNumber": 69,
        "velocity": 100,
        "subtype": "noteOn"
      },
      {
        "deltaTime": 120,
        "channel": 0,
        "type": "channel",
        "noteNumber": 69,
        "velocity": 0,
        "subtype": "noteOff"
      },
      {
        "deltaTime": 0,
        "channel": 0,
        "type": "channel",
        "noteNumber": 71,
        "velocity": 100,
        "subtype": "noteOn"
      },
      {
        "deltaTime": 120,
        "channel": 0,
        "type": "channel",
        "noteNumber": 71,
        "velocity": 0,
        "subtype": "noteOff"
      },
      {
        "deltaTime": 0,
        "channel": 0,
        "type": "channel",
        "noteNumber": 64,
        "velocity": 100,
        "subtype": "noteOn"
      },
      {
        "deltaTime": 120,
        "channel": 0,
        "type": "channel",
        "noteNumber": 64,
        "velocity": 0,
        "subtype": "noteOff"
      },
      {
        "deltaTime": 0,
        "channel": 0,
        "type": "channel",
        "noteNumber": 71,
        "velocity": 100,
        "subtype": "noteOn"
      },
      {
        "deltaTime": 120,
        "channel": 0,
        "type": "channel",
        "noteNumber": 71,
        "velocity": 0,
        "subtype": "noteOff"
      },
      {
        "deltaTime": 0,
        "channel": 0,
        "type": "channel",
        "noteNumber": 76,
        "velocity": 100,
        "subtype": "noteOn"
      },
      {
        "deltaTime": 120,
        "channel": 0,
        "type": "channel",
        "noteNumber": 76,
        "velocity": 0,
        "subtype": "noteOff"
      },
      {
        "deltaTime": 0,
        "channel": 0,
        "type": "channel",
        "noteNumber": 75,
        "velocity": 100,
        "subtype": "noteOn"
      },
      {
        "deltaTime": 120,
        "channel": 0,
        "type": "channel",
        "noteNumber": 75,
        "velocity": 0,
        "subtype": "noteOff"
      },
      {
        "deltaTime": 0,
        "channel": 0,
        "type": "channel",
        "noteNumber": 76,
        "velocity": 100,
        "subtype": "noteOn"
      },
      {
        "deltaTime": 120,
        "channel": 0,
        "type": "channel",
        "noteNumber": 76,
        "velocity": 0,
        "subtype": "noteOff"
      },
      {
        "deltaTime": 0,
        "channel": 0,
        "type": "channel",
        "noteNumber": 79,
        "velocity": 100,
        "subtype": "noteOn"
      },
      {
        "deltaTime": 120,
        "channel": 0,
        "type": "channel",
        "noteNumber": 79,
        "velocity": 0,
        "subtype": "noteOff"
      },
      {
        "deltaTime": 0,
        "channel": 0,
        "type": "channel",
        "noteNumber": 76,
        "velocity": 100,
        "subtype": "noteOn"
      },
      {
        "deltaTime": 120,
        "channel": 0,
        "type": "channel",
        "noteNumber": 76,
        "velocity": 0,
        "subtype": "noteOff"
      },
      {
        "deltaTime": 0,
        "channel": 0,
        "type": "channel",
        "noteNumber": 71,
        "velocity": 100,
        "subtype": "noteOn"
      },
      {
        "deltaTime": 120,
        "channel": 0,
        "type": "channel",
        "noteNumber": 71,
        "velocity": 0,
        "subtype": "noteOff"
      },
      {
        "deltaTime": 0,
        "channel": 0,
        "type": "channel",
        "noteNumber": 66,
        "velocity": 100,
        "subtype": "noteOn"
      },
      {
        "deltaTime": 120,
        "channel": 0,
        "type": "channel",
        "noteNumber": 66,
        "velocity": 0,
        "subtype": "noteOff"
      },
      {
        "deltaTime": 0,
        "channel": 0,
        "type": "channel",
        "noteNumber": 71,
        "velocity": 100,
        "subtype": "noteOn"
      },
      {
        "deltaTime": 120,
        "channel": 0,
        "type": "channel",
        "noteNumber": 71,
        "velocity": 0,
        "subtype": "noteOff"
      },
      {
        "deltaTime": 0,
        "channel": 0,
        "type": "channel",
        "noteNumber": 76,
        "velocity": 100,
        "subtype": "noteOn"
      },
      {
        "deltaTime": 120,
        "channel": 0,
        "type": "channel",
        "noteNumber": 76,
        "velocity": 0,
        "subtype": "noteOff"
      },
      {
        "deltaTime": 0,
        "channel": 0,
        "type": "channel",
        "noteNumber": 75,
        "velocity": 100,
        "subtype": "noteOn"
      },
      {
        "deltaTime": 120,
        "channel": 0,
        "type": "channel",
        "noteNumber": 75,
        "velocity": 0,
        "subtype": "noteOff"
      },
      {
        "deltaTime": 0,
        "channel": 0,
        "type": "channel",
        "noteNumber": 76,
        "velocity": 100,
        "subtype": "noteOn"
      },
      {
        "deltaTime": 120,
        "channel": 0,
        "type": "channel",
        "noteNumber": 76,
        "velocity": 0,
        "subtype": "noteOff"
      },
      {
        "deltaTime": 0,
        "channel": 0,
        "type": "channel",
        "noteNumber": 79,
        "velocity": 100,
        "subtype": "noteOn"
      },
      {
        "deltaTime": 120,
        "channel": 0,
        "type": "channel",
        "noteNumber": 79,
        "velocity": 0,
        "subtype": "noteOff"
      },
      {
        "deltaTime": 0,
        "channel": 0,
        "type": "channel",
        "noteNumber": 76,
        "velocity": 100,
        "subtype": "noteOn"
      },
      {
        "deltaTime": 120,
        "channel": 0,
        "type": "channel",
        "noteNumber": 76,
        "velocity": 0,
        "subtype": "noteOff"
      },
      {
        "deltaTime": 0,
        "channel": 0,
        "type": "channel",
        "noteNumber": 71,
        "velocity": 100,
        "subtype": "noteOn"
      },
      {
        "deltaTime": 120,
        "channel": 0,
        "type": "channel",
        "noteNumber": 71,
        "velocity": 0,
        "subtype": "noteOff"
      },
      {
        "deltaTime": 0,
        "channel": 0,
        "type": "channel",
        "noteNumber": 64,
        "velocity": 100,
        "subtype": "noteOn"
      },
      {
        "deltaTime": 120,
        "channel": 0,
        "type": "channel",
        "noteNumber": 64,
        "velocity": 0,
        "subtype": "noteOff"
      },
      {
        "deltaTime": 0,
        "channel": 0,
        "type": "channel",
        "noteNumber": 67,
        "velocity": 100,
        "subtype": "noteOn"
      },
      {
        "deltaTime": 120,
        "channel": 0,
        "type": "channel",
        "noteNumber": 67,
        "velocity": 0,
        "subtype": "noteOff"
      },
      {
        "deltaTime": 0,
        "channel": 0,
        "type": "channel",
        "noteNumber": 71,
        "velocity": 100,
        "subtype": "noteOn"
      },
      {
        "deltaTime": 120,
        "channel": 0,
        "type": "channel",
        "noteNumber": 71,
        "velocity": 0,
        "subtype": "noteOff"
      },
      {
        "deltaTime": 0,
        "channel": 0,
        "type": "channel",
        "noteNumber": 72,
        "velocity": 100,
        "subtype": "noteOn"
      },
      {
        "deltaTime": 120,
        "channel": 0,
        "type": "channel",
        "noteNumber": 72,
        "velocity": 0,
        "subtype": "noteOff"
      },
      {
        "deltaTime": 0,
        "channel": 0,
        "type": "channel",
        "noteNumber": 63,
        "velocity": 100,
        "subtype": "noteOn"
      },
      {
        "deltaTime": 120,
        "channel": 0,
        "type": "channel",
        "noteNumber": 63,
        "velocity": 0,
        "subtype": "noteOff"
      },
      {
        "deltaTime": 0,
        "channel": 0,
        "type": "channel",
        "noteNumber": 72,
        "velocity": 100,
        "subtype": "noteOn"
      },
      {
        "deltaTime": 120,
        "channel": 0,
        "type": "channel",
        "noteNumber": 72,
        "velocity": 0,
        "subtype": "noteOff"
      },
      {
        "deltaTime": 0,
        "channel": 0,
        "type": "channel",
        "noteNumber": 71,
        "velocity": 100,
        "subtype": "noteOn"
      },
      {
        "deltaTime": 120,
        "channel": 0,
        "type": "channel",
        "noteNumber": 71,
        "velocity": 0,
        "subtype": "noteOff"
      },
      {
        "deltaTime": 0,
        "channel": 0,
        "type": "channel",
        "noteNumber": 69,
        "velocity": 100,
        "subtype": "noteOn"
      },
      {
        "deltaTime": 120,
        "channel": 0,
        "type": "channel",
        "noteNumber": 69,
        "velocity": 0,
        "subtype": "noteOff"
      },
      {
        "deltaTime": 0,
        "channel": 0,
        "type": "channel",
        "noteNumber": 67,
        "velocity": 100,
        "subtype": "noteOn"
      },
      {
        "deltaTime": 120,
        "channel": 0,
        "type": "channel",
        "noteNumber": 67,
        "velocity": 0,
        "subtype": "noteOff"
      },
      {
        "deltaTime": 0,
        "channel": 0,
        "type": "channel",
        "noteNumber": 71,
        "velocity": 100,
        "subtype": "noteOn"
      },
      {
        "deltaTime": 120,
        "channel": 0,
        "type": "channel",
        "noteNumber": 71,
        "velocity": 0,
        "subtype": "noteOff"
      },
      {
        "deltaTime": 0,
        "channel": 0,
        "type": "channel",
        "noteNumber": 75,
        "velocity": 100,
        "subtype": "noteOn"
      },
      {
        "deltaTime": 120,
        "channel": 0,
        "type": "channel",
        "noteNumber": 75,
        "velocity": 0,
        "subtype": "noteOff"
      },
      {
        "deltaTime": 0,
        "channel": 0,
        "type": "channel",
        "noteNumber": 76,
        "velocity": 100,
        "subtype": "noteOn"
      },
      {
        "deltaTime": 120,
        "channel": 0,
        "type": "channel",
        "noteNumber": 76,
        "velocity": 0,
        "subtype": "noteOff"
      },
      {
        "deltaTime": 0,
        "channel": 0,
        "type": "channel",
        "noteNumber": 71,
        "velocity": 100,
        "subtype": "noteOn"
      },
      {
        "deltaTime": 120,
        "channel": 0,
        "type": "channel",
        "noteNumber": 71,
        "velocity": 0,
        "subtype": "noteOff"
      },
      {
        "deltaTime": 0,
        "channel": 0,
        "type": "channel",
        "noteNumber": 69,
        "velocity": 100,
        "subtype": "noteOn"
      },
      {
        "deltaTime": 120,
        "channel": 0,
        "type": "channel",
        "noteNumber": 69,
        "velocity": 0,
        "subtype": "noteOff"
      },
      {
        "deltaTime": 0,
        "channel": 0,
        "type": "channel",
        "noteNumber": 67,
        "velocity": 100,
        "subtype": "noteOn"
      },
      {
        "deltaTime": 120,
        "channel": 0,
        "type": "channel",
        "noteNumber": 67,
        "velocity": 0,
        "subtype": "noteOff"
      },
      {
        "deltaTime": 0,
        "channel": 0,
        "type": "channel",
        "noteNumber": 66,
        "velocity": 100,
        "subtype": "noteOn"
      },
      {
        "deltaTime": 120,
        "channel": 0,
        "type": "channel",
        "noteNumber": 66,
        "velocity": 0,
        "subtype": "noteOff"
      },
      {
        "deltaTime": 0,
        "channel": 0,
        "type": "channel",
        "noteNumber": 64,
        "velocity": 100,
        "subtype": "noteOn"
      },
      {
        "deltaTime": 120,
        "channel": 0,
        "type": "channel",
        "noteNumber": 64,
        "velocity": 0,
        "subtype": "noteOff"
      },
      {
        "deltaTime": 0,
        "channel": 0,
        "type": "channel",
        "noteNumber": 67,
        "velocity": 100,
        "subtype": "noteOn"
      },
      {
        "deltaTime": 120,
        "channel": 0,
        "type": "channel",
        "noteNumber": 67,
        "velocity": 0,
        "subtype": "noteOff"
      },
      {
        "deltaTime": 0,
        "channel": 0,
        "type": "channel",
        "noteNumber": 71,
        "velocity": 100,
        "subtype": "noteOn"
      },
      {
        "deltaTime": 120,
        "channel": 0,
        "type": "channel",
        "noteNumber": 71,
        "velocity": 0,
        "subtype": "noteOff"
      },
      {
        "deltaTime": 0,
        "channel": 0,
        "type": "channel",
        "noteNumber": 72,
        "velocity": 100,
        "subtype": "noteOn"
      },
      {
        "deltaTime": 120,
        "channel": 0,
        "type": "channel",
        "noteNumber": 72,
        "velocity": 0,
        "subtype": "noteOff"
      },
      {
        "deltaTime": 0,
        "channel": 0,
        "type": "channel",
        "noteNumber": 63,
        "velocity": 100,
        "subtype": "noteOn"
      },
      {
        "deltaTime": 120,
        "channel": 0,
        "type": "channel",
        "noteNumber": 63,
        "velocity": 0,
        "subtype": "noteOff"
      },
      {
        "deltaTime": 0,
        "channel": 0,
        "type": "channel",
        "noteNumber": 72,
        "velocity": 100,
        "subtype": "noteOn"
      },
      {
        "deltaTime": 120,
        "channel": 0,
        "type": "channel",
        "noteNumber": 72,
        "velocity": 0,
        "subtype": "noteOff"
      },
      {
        "deltaTime": 0,
        "channel": 0,
        "type": "channel",
        "noteNumber": 71,
        "velocity": 100,
        "subtype": "noteOn"
      },
      {
        "deltaTime": 120,
        "channel": 0,
        "type": "channel",
        "noteNumber": 71,
        "velocity": 0,
        "subtype": "noteOff"
      },
      {
        "deltaTime": 0,
        "channel": 0,
        "type": "channel",
        "noteNumber": 69,
        "velocity": 100,
        "subtype": "noteOn"
      },
      {
        "deltaTime": 120,
        "channel": 0,
        "type": "channel",
        "noteNumber": 69,
        "velocity": 0,
        "subtype": "noteOff"
      },
      {
        "deltaTime": 0,
        "channel": 0,
        "type": "channel",
        "noteNumber": 67,
        "velocity": 100,
        "subtype": "noteOn"
      },
      {
        "deltaTime": 120,
        "channel": 0,
        "type": "channel",
        "noteNumber": 67,
        "velocity": 0,
        "subtype": "noteOff"
      },
      {
        "deltaTime": 0,
        "channel": 0,
        "type": "channel",
        "noteNumber": 71,
        "velocity": 100,
        "subtype": "noteOn"
      },
      {
        "deltaTime": 120,
        "channel": 0,
        "type": "channel",
        "noteNumber": 71,
        "velocity": 0,
        "subtype": "noteOff"
      },
      {
        "deltaTime": 0,
        "channel": 0,
        "type": "channel",
        "noteNumber": 75,
        "velocity": 100,
        "subtype": "noteOn"
      },
      {
        "deltaTime": 120,
        "channel": 0,
        "type": "channel",
        "noteNumber": 75,
        "velocity": 0,
        "subtype": "noteOff"
      },
      {
        "deltaTime": 0,
        "channel": 0,
        "type": "channel",
        "noteNumber": 76,
        "velocity": 100,
        "subtype": "noteOn"
      },
      {
        "deltaTime": 120,
        "channel": 0,
        "type": "channel",
        "noteNumber": 76,
        "velocity": 0,
        "subtype": "noteOff"
      },
      {
        "deltaTime": 0,
        "channel": 0,
        "type": "channel",
        "noteNumber": 71,
        "velocity": 100,
        "subtype": "noteOn"
      },
      {
        "deltaTime": 120,
        "channel": 0,
        "type": "channel",
        "noteNumber": 71,
        "velocity": 0,
        "subtype": "noteOff"
      },
      {
        "deltaTime": 0,
        "channel": 0,
        "type": "channel",
        "noteNumber": 81,
        "velocity": 100,
        "subtype": "noteOn"
      },
      {
        "deltaTime": 120,
        "channel": 0,
        "type": "channel",
        "noteNumber": 81,
        "velocity": 0,
        "subtype": "noteOff"
      },
      {
        "deltaTime": 0,
        "channel": 0,
        "type": "channel",
        "noteNumber": 79,
        "velocity": 100,
        "subtype": "noteOn"
      },
      {
        "deltaTime": 120,
        "channel": 0,
        "type": "channel",
        "noteNumber": 79,
        "velocity": 0,
        "subtype": "noteOff"
      },
      {
        "deltaTime": 0,
        "channel": 0,
        "type": "channel",
        "noteNumber": 78,
        "velocity": 100,
        "subtype": "noteOn"
      },
      {
        "deltaTime": 120,
        "channel": 0,
        "type": "channel",
        "noteNumber": 78,
        "velocity": 0,
        "subtype": "noteOff"
      },
      {
        "deltaTime": 0,
        "channel": 0,
        "type": "channel",
        "noteNumber": 76,
        "velocity": 100,
        "subtype": "noteOn"
      },
      {
        "deltaTime": 120,
        "channel": 0,
        "type": "channel",
        "noteNumber": 76,
        "velocity": 0,
        "subtype": "noteOff"
      },
      {
        "deltaTime": 0,
        "channel": 0,
        "type": "channel",
        "noteNumber": 79,
        "velocity": 100,
        "subtype": "noteOn"
      },
      {
        "deltaTime": 120,
        "channel": 0,
        "type": "channel",
        "noteNumber": 79,
        "velocity": 0,
        "subtype": "noteOff"
      },
      {
        "deltaTime": 0,
        "channel": 0,
        "type": "channel",
        "noteNumber": 75,
        "velocity": 100,
        "subtype": "noteOn"
      },
      {
        "deltaTime": 120,
        "channel": 0,
        "type": "channel",
        "noteNumber": 75,
        "velocity": 0,
        "subtype": "noteOff"
      },
      {
        "deltaTime": 0,
        "channel": 0,
        "type": "channel",
        "noteNumber": 76,
        "velocity": 100,
        "subtype": "noteOn"
      },
      {
        "deltaTime": 120,
        "channel": 0,
        "type": "channel",
        "noteNumber": 76,
        "velocity": 0,
        "subtype": "noteOff"
      },
      {
        "deltaTime": 0,
        "channel": 0,
        "type": "channel",
        "noteNumber": 83,
        "velocity": 100,
        "subtype": "noteOn"
      },
      {
        "deltaTime": 120,
        "channel": 0,
        "type": "channel",
        "noteNumber": 83,
        "velocity": 0,
        "subtype": "noteOff"
      },
      {
        "deltaTime": 0,
        "channel": 0,
        "type": "channel",
        "noteNumber": 80,
        "velocity": 100,
        "subtype": "noteOn"
      },
      {
        "deltaTime": 120,
        "channel": 0,
        "type": "channel",
        "noteNumber": 80,
        "velocity": 0,
        "subtype": "noteOff"
      },
      {
        "deltaTime": 0,
        "channel": 0,
        "type": "channel",
        "noteNumber": 74,
        "velocity": 100,
        "subtype": "noteOn"
      },
      {
        "deltaTime": 120,
        "channel": 0,
        "type": "channel",
        "noteNumber": 74,
        "velocity": 0,
        "subtype": "noteOff"
      },
      {
        "deltaTime": 0,
        "channel": 0,
        "type": "channel",
        "noteNumber": 76,
        "velocity": 100,
        "subtype": "noteOn"
      },
      {
        "deltaTime": 120,
        "channel": 0,
        "type": "channel",
        "noteNumber": 76,
        "velocity": 0,
        "subtype": "noteOff"
      },
      {
        "deltaTime": 0,
        "channel": 0,
        "type": "channel",
        "noteNumber": 72,
        "velocity": 100,
        "subtype": "noteOn"
      },
      {
        "deltaTime": 120,
        "channel": 0,
        "type": "channel",
        "noteNumber": 72,
        "velocity": 0,
        "subtype": "noteOff"
      },
      {
        "deltaTime": 0,
        "channel": 0,
        "type": "channel",
        "noteNumber": 81,
        "velocity": 100,
        "subtype": "noteOn"
      },
      {
        "deltaTime": 120,
        "channel": 0,
        "type": "channel",
        "noteNumber": 81,
        "velocity": 0,
        "subtype": "noteOff"
      },
      {
        "deltaTime": 0,
        "channel": 0,
        "type": "channel",
        "noteNumber": 75,
        "velocity": 100,
        "subtype": "noteOn"
      },
      {
        "deltaTime": 120,
        "channel": 0,
        "type": "channel",
        "noteNumber": 75,
        "velocity": 0,
        "subtype": "noteOff"
      },
      {
        "deltaTime": 0,
        "channel": 0,
        "type": "channel",
        "noteNumber": 76,
        "velocity": 100,
        "subtype": "noteOn"
      },
      {
        "deltaTime": 120,
        "channel": 0,
        "type": "channel",
        "noteNumber": 76,
        "velocity": 0,
        "subtype": "noteOff"
      },
      {
        "deltaTime": 0,
        "channel": 0,
        "type": "channel",
        "noteNumber": 68,
        "velocity": 100,
        "subtype": "noteOn"
      },
      {
        "deltaTime": 120,
        "channel": 0,
        "type": "channel",
        "noteNumber": 68,
        "velocity": 0,
        "subtype": "noteOff"
      },
      {
        "deltaTime": 0,
        "channel": 0,
        "type": "channel",
        "noteNumber": 77,
        "velocity": 100,
        "subtype": "noteOn"
      },
      {
        "deltaTime": 120,
        "channel": 0,
        "type": "channel",
        "noteNumber": 77,
        "velocity": 0,
        "subtype": "noteOff"
      },
      {
        "deltaTime": 0,
        "channel": 0,
        "type": "channel",
        "noteNumber": 76,
        "velocity": 100,
        "subtype": "noteOn"
      },
      {
        "deltaTime": 120,
        "channel": 0,
        "type": "channel",
        "noteNumber": 76,
        "velocity": 0,
        "subtype": "noteOff"
      },
      {
        "deltaTime": 0,
        "channel": 0,
        "type": "channel",
        "noteNumber": 74,
        "velocity": 100,
        "subtype": "noteOn"
      },
      {
        "deltaTime": 120,
        "channel": 0,
        "type": "channel",
        "noteNumber": 74,
        "velocity": 0,
        "subtype": "noteOff"
      },
      {
        "deltaTime": 0,
        "channel": 0,
        "type": "channel",
        "noteNumber": 69,
        "velocity": 100,
        "subtype": "noteOn"
      },
      {
        "deltaTime": 120,
        "channel": 0,
        "type": "channel",
        "noteNumber": 69,
        "velocity": 0,
        "subtype": "noteOff"
      },
      {
        "deltaTime": 0,
        "channel": 0,
        "type": "channel",
        "noteNumber": 72,
        "velocity": 100,
        "subtype": "noteOn"
      },
      {
        "deltaTime": 120,
        "channel": 0,
        "type": "channel",
        "noteNumber": 72,
        "velocity": 0,
        "subtype": "noteOff"
      },
      {
        "deltaTime": 0,
        "channel": 0,
        "type": "channel",
        "noteNumber": 68,
        "velocity": 100,
        "subtype": "noteOn"
      },
      {
        "deltaTime": 120,
        "channel": 0,
        "type": "channel",
        "noteNumber": 68,
        "velocity": 0,
        "subtype": "noteOff"
      },
      {
        "deltaTime": 0,
        "channel": 0,
        "type": "channel",
        "noteNumber": 69,
        "velocity": 100,
        "subtype": "noteOn"
      },
      {
        "deltaTime": 120,
        "channel": 0,
        "type": "channel",
        "noteNumber": 69,
        "velocity": 0,
        "subtype": "noteOff"
      },
      {
        "deltaTime": 0,
        "channel": 0,
        "type": "channel",
        "noteNumber": 76,
        "velocity": 100,
        "subtype": "noteOn"
      },
      {
        "deltaTime": 120,
        "channel": 0,
        "type": "channel",
        "noteNumber": 76,
        "velocity": 0,
        "subtype": "noteOff"
      },
      {
        "deltaTime": 0,
        "channel": 0,
        "type": "channel",
        "noteNumber": 73,
        "velocity": 100,
        "subtype": "noteOn"
      },
      {
        "deltaTime": 120,
        "channel": 0,
        "type": "channel",
        "noteNumber": 73,
        "velocity": 0,
        "subtype": "noteOff"
      },
      {
        "deltaTime": 0,
        "channel": 0,
        "type": "channel",
        "noteNumber": 67,
        "velocity": 100,
        "subtype": "noteOn"
      },
      {
        "deltaTime": 120,
        "channel": 0,
        "type": "channel",
        "noteNumber": 67,
        "velocity": 0,
        "subtype": "noteOff"
      },
      {
        "deltaTime": 0,
        "channel": 0,
        "type": "channel",
        "noteNumber": 69,
        "velocity": 100,
        "subtype": "noteOn"
      },
      {
        "deltaTime": 120,
        "channel": 0,
        "type": "channel",
        "noteNumber": 69,
        "velocity": 0,
        "subtype": "noteOff"
      },
      {
        "deltaTime": 0,
        "channel": 0,
        "type": "channel",
        "noteNumber": 65,
        "velocity": 100,
        "subtype": "noteOn"
      },
      {
        "deltaTime": 120,
        "channel": 0,
        "type": "channel",
        "noteNumber": 65,
        "velocity": 0,
        "subtype": "noteOff"
      },
      {
        "deltaTime": 0,
        "channel": 0,
        "type": "channel",
        "noteNumber": 74,
        "velocity": 100,
        "subtype": "noteOn"
      },
      {
        "deltaTime": 120,
        "channel": 0,
        "type": "channel",
        "noteNumber": 74,
        "velocity": 0,
        "subtype": "noteOff"
      },
      {
        "deltaTime": 0,
        "channel": 0,
        "type": "channel",
        "noteNumber": 68,
        "velocity": 100,
        "subtype": "noteOn"
      },
      {
        "deltaTime": 120,
        "channel": 0,
        "type": "channel",
        "noteNumber": 68,
        "velocity": 0,
        "subtype": "noteOff"
      },
      {
        "deltaTime": 0,
        "channel": 0,
        "type": "channel",
        "noteNumber": 69,
        "velocity": 100,
        "subtype": "noteOn"
      },
      {
        "deltaTime": 120,
        "channel": 0,
        "type": "channel",
        "noteNumber": 69,
        "velocity": 0,
        "subtype": "noteOff"
      },
      {
        "deltaTime": 0,
        "channel": 0,
        "type": "channel",
        "noteNumber": 73,
        "velocity": 100,
        "subtype": "noteOn"
      },
      {
        "deltaTime": 120,
        "channel": 0,
        "type": "channel",
        "noteNumber": 73,
        "velocity": 0,
        "subtype": "noteOff"
      },
      {
        "deltaTime": 0,
        "channel": 0,
        "type": "channel",
        "noteNumber": 82,
        "velocity": 100,
        "subtype": "noteOn"
      },
      {
        "deltaTime": 120,
        "channel": 0,
        "type": "channel",
        "noteNumber": 82,
        "velocity": 0,
        "subtype": "noteOff"
      },
      {
        "deltaTime": 0,
        "channel": 0,
        "type": "channel",
        "noteNumber": 81,
        "velocity": 100,
        "subtype": "noteOn"
      },
      {
        "deltaTime": 120,
        "channel": 0,
        "type": "channel",
        "noteNumber": 81,
        "velocity": 0,
        "subtype": "noteOff"
      },
      {
        "deltaTime": 0,
        "channel": 0,
        "type": "channel",
        "noteNumber": 79,
        "velocity": 100,
        "subtype": "noteOn"
      },
      {
        "deltaTime": 120,
        "channel": 0,
        "type": "channel",
        "noteNumber": 79,
        "velocity": 0,
        "subtype": "noteOff"
      },
      {
        "deltaTime": 0,
        "channel": 0,
        "type": "channel",
        "noteNumber": 77,
        "velocity": 100,
        "subtype": "noteOn"
      },
      {
        "deltaTime": 120,
        "channel": 0,
        "type": "channel",
        "noteNumber": 77,
        "velocity": 0,
        "subtype": "noteOff"
      },
      {
        "deltaTime": 0,
        "channel": 0,
        "type": "channel",
        "noteNumber": 69,
        "velocity": 100,
        "subtype": "noteOn"
      },
      {
        "deltaTime": 120,
        "channel": 0,
        "type": "channel",
        "noteNumber": 69,
        "velocity": 0,
        "subtype": "noteOff"
      },
      {
        "deltaTime": 0,
        "channel": 0,
        "type": "channel",
        "noteNumber": 74,
        "velocity": 100,
        "subtype": "noteOn"
      },
      {
        "deltaTime": 120,
        "channel": 0,
        "type": "channel",
        "noteNumber": 74,
        "velocity": 0,
        "subtype": "noteOff"
      },
      {
        "deltaTime": 0,
        "channel": 0,
        "type": "channel",
        "noteNumber": 73,
        "velocity": 100,
        "subtype": "noteOn"
      },
      {
        "deltaTime": 120,
        "channel": 0,
        "type": "channel",
        "noteNumber": 73,
        "velocity": 0,
        "subtype": "noteOff"
      },
      {
        "deltaTime": 0,
        "channel": 0,
        "type": "channel",
        "noteNumber": 74,
        "velocity": 100,
        "subtype": "noteOn"
      },
      {
        "deltaTime": 120,
        "channel": 0,
        "type": "channel",
        "noteNumber": 74,
        "velocity": 0,
        "subtype": "noteOff"
      },
      {
        "deltaTime": 0,
        "channel": 0,
        "type": "channel",
        "noteNumber": 77,
        "velocity": 100,
        "subtype": "noteOn"
      },
      {
        "deltaTime": 120,
        "channel": 0,
        "type": "channel",
        "noteNumber": 77,
        "velocity": 0,
        "subtype": "noteOff"
      },
      {
        "deltaTime": 0,
        "channel": 0,
        "type": "channel",
        "noteNumber": 74,
        "velocity": 100,
        "subtype": "noteOn"
      },
      {
        "deltaTime": 120,
        "channel": 0,
        "type": "channel",
        "noteNumber": 74,
        "velocity": 0,
        "subtype": "noteOff"
      },
      {
        "deltaTime": 0,
        "channel": 0,
        "type": "channel",
        "noteNumber": 69,
        "velocity": 100,
        "subtype": "noteOn"
      },
      {
        "deltaTime": 120,
        "channel": 0,
        "type": "channel",
        "noteNumber": 69,
        "velocity": 0,
        "subtype": "noteOff"
      },
      {
        "deltaTime": 0,
        "channel": 0,
        "type": "channel",
        "noteNumber": 62,
        "velocity": 100,
        "subtype": "noteOn"
      },
      {
        "deltaTime": 120,
        "channel": 0,
        "type": "channel",
        "noteNumber": 62,
        "velocity": 0,
        "subtype": "noteOff"
      },
      {
        "deltaTime": 0,
        "channel": 0,
        "type": "channel",
        "noteNumber": 69,
        "velocity": 100,
        "subtype": "noteOn"
      },
      {
        "deltaTime": 120,
        "channel": 0,
        "type": "channel",
        "noteNumber": 69,
        "velocity": 0,
        "subtype": "noteOff"
      },
      {
        "deltaTime": 0,
        "channel": 0,
        "type": "channel",
        "noteNumber": 74,
        "velocity": 100,
        "subtype": "noteOn"
      },
      {
        "deltaTime": 120,
        "channel": 0,
        "type": "channel",
        "noteNumber": 74,
        "velocity": 0,
        "subtype": "noteOff"
      },
      {
        "deltaTime": 0,
        "channel": 0,
        "type": "channel",
        "noteNumber": 73,
        "velocity": 100,
        "subtype": "noteOn"
      },
      {
        "deltaTime": 120,
        "channel": 0,
        "type": "channel",
        "noteNumber": 73,
        "velocity": 0,
        "subtype": "noteOff"
      },
      {
        "deltaTime": 0,
        "channel": 0,
        "type": "channel",
        "noteNumber": 74,
        "velocity": 100,
        "subtype": "noteOn"
      },
      {
        "deltaTime": 120,
        "channel": 0,
        "type": "channel",
        "noteNumber": 74,
        "velocity": 0,
        "subtype": "noteOff"
      },
      {
        "deltaTime": 0,
        "channel": 0,
        "type": "channel",
        "noteNumber": 77,
        "velocity": 100,
        "subtype": "noteOn"
      },
      {
        "deltaTime": 120,
        "channel": 0,
        "type": "channel",
        "noteNumber": 77,
        "velocity": 0,
        "subtype": "noteOff"
      },
      {
        "deltaTime": 0,
        "channel": 0,
        "type": "channel",
        "noteNumber": 74,
        "velocity": 100,
        "subtype": "noteOn"
      },
      {
        "deltaTime": 120,
        "channel": 0,
        "type": "channel",
        "noteNumber": 74,
        "velocity": 0,
        "subtype": "noteOff"
      },
      {
        "deltaTime": 0,
        "channel": 0,
        "type": "channel",
        "noteNumber": 69,
        "velocity": 100,
        "subtype": "noteOn"
      },
      {
        "deltaTime": 120,
        "channel": 0,
        "type": "channel",
        "noteNumber": 69,
        "velocity": 0,
        "subtype": "noteOff"
      },
      {
        "deltaTime": 0,
        "channel": 0,
        "type": "channel",
        "noteNumber": 62,
        "velocity": 100,
        "subtype": "noteOn"
      },
      {
        "deltaTime": 120,
        "channel": 0,
        "type": "channel",
        "noteNumber": 62,
        "velocity": 0,
        "subtype": "noteOff"
      },
      {
        "deltaTime": 0,
        "channel": 0,
        "type": "channel",
        "noteNumber": 69,
        "velocity": 100,
        "subtype": "noteOn"
      },
      {
        "deltaTime": 120,
        "channel": 0,
        "type": "channel",
        "noteNumber": 69,
        "velocity": 0,
        "subtype": "noteOff"
      },
      {
        "deltaTime": 0,
        "channel": 0,
        "type": "channel",
        "noteNumber": 72,
        "velocity": 100,
        "subtype": "noteOn"
      },
      {
        "deltaTime": 120,
        "channel": 0,
        "type": "channel",
        "noteNumber": 72,
        "velocity": 0,
        "subtype": "noteOff"
      },
      {
        "deltaTime": 0,
        "channel": 0,
        "type": "channel",
        "noteNumber": 71,
        "velocity": 100,
        "subtype": "noteOn"
      },
      {
        "deltaTime": 120,
        "channel": 0,
        "type": "channel",
        "noteNumber": 71,
        "velocity": 0,
        "subtype": "noteOff"
      },
      {
        "deltaTime": 0,
        "channel": 0,
        "type": "channel",
        "noteNumber": 72,
        "velocity": 100,
        "subtype": "noteOn"
      },
      {
        "deltaTime": 120,
        "channel": 0,
        "type": "channel",
        "noteNumber": 72,
        "velocity": 0,
        "subtype": "noteOff"
      },
      {
        "deltaTime": 0,
        "channel": 0,
        "type": "channel",
        "noteNumber": 78,
        "velocity": 100,
        "subtype": "noteOn"
      },
      {
        "deltaTime": 120,
        "channel": 0,
        "type": "channel",
        "noteNumber": 78,
        "velocity": 0,
        "subtype": "noteOff"
      },
      {
        "deltaTime": 0,
        "channel": 0,
        "type": "channel",
        "noteNumber": 72,
        "velocity": 100,
        "subtype": "noteOn"
      },
      {
        "deltaTime": 120,
        "channel": 0,
        "type": "channel",
        "noteNumber": 72,
        "velocity": 0,
        "subtype": "noteOff"
      },
      {
        "deltaTime": 0,
        "channel": 0,
        "type": "channel",
        "noteNumber": 69,
        "velocity": 100,
        "subtype": "noteOn"
      },
      {
        "deltaTime": 120,
        "channel": 0,
        "type": "channel",
        "noteNumber": 69,
        "velocity": 0,
        "subtype": "noteOff"
      },
      {
        "deltaTime": 0,
        "channel": 0,
        "type": "channel",
        "noteNumber": 62,
        "velocity": 100,
        "subtype": "noteOn"
      },
      {
        "deltaTime": 120,
        "channel": 0,
        "type": "channel",
        "noteNumber": 62,
        "velocity": 0,
        "subtype": "noteOff"
      },
      {
        "deltaTime": 0,
        "channel": 0,
        "type": "channel",
        "noteNumber": 69,
        "velocity": 100,
        "subtype": "noteOn"
      },
      {
        "deltaTime": 120,
        "channel": 0,
        "type": "channel",
        "noteNumber": 69,
        "velocity": 0,
        "subtype": "noteOff"
      },
      {
        "deltaTime": 0,
        "channel": 0,
        "type": "channel",
        "noteNumber": 72,
        "velocity": 100,
        "subtype": "noteOn"
      },
      {
        "deltaTime": 120,
        "channel": 0,
        "type": "channel",
        "noteNumber": 72,
        "velocity": 0,
        "subtype": "noteOff"
      },
      {
        "deltaTime": 0,
        "channel": 0,
        "type": "channel",
        "noteNumber": 71,
        "velocity": 100,
        "subtype": "noteOn"
      },
      {
        "deltaTime": 120,
        "channel": 0,
        "type": "channel",
        "noteNumber": 71,
        "velocity": 0,
        "subtype": "noteOff"
      },
      {
        "deltaTime": 0,
        "channel": 0,
        "type": "channel",
        "noteNumber": 72,
        "velocity": 100,
        "subtype": "noteOn"
      },
      {
        "deltaTime": 120,
        "channel": 0,
        "type": "channel",
        "noteNumber": 72,
        "velocity": 0,
        "subtype": "noteOff"
      },
      {
        "deltaTime": 0,
        "channel": 0,
        "type": "channel",
        "noteNumber": 78,
        "velocity": 100,
        "subtype": "noteOn"
      },
      {
        "deltaTime": 120,
        "channel": 0,
        "type": "channel",
        "noteNumber": 78,
        "velocity": 0,
        "subtype": "noteOff"
      },
      {
        "deltaTime": 0,
        "channel": 0,
        "type": "channel",
        "noteNumber": 72,
        "velocity": 100,
        "subtype": "noteOn"
      },
      {
        "deltaTime": 120,
        "channel": 0,
        "type": "channel",
        "noteNumber": 72,
        "velocity": 0,
        "subtype": "noteOff"
      },
      {
        "deltaTime": 0,
        "channel": 0,
        "type": "channel",
        "noteNumber": 69,
        "velocity": 100,
        "subtype": "noteOn"
      },
      {
        "deltaTime": 120,
        "channel": 0,
        "type": "channel",
        "noteNumber": 69,
        "velocity": 0,
        "subtype": "noteOff"
      },
      {
        "deltaTime": 0,
        "channel": 0,
        "type": "channel",
        "noteNumber": 62,
        "velocity": 100,
        "subtype": "noteOn"
      },
      {
        "deltaTime": 120,
        "channel": 0,
        "type": "channel",
        "noteNumber": 62,
        "velocity": 0,
        "subtype": "noteOff"
      },
      {
        "deltaTime": 0,
        "channel": 0,
        "type": "channel",
        "noteNumber": 72,
        "velocity": 100,
        "subtype": "noteOn"
      },
      {
        "deltaTime": 120,
        "channel": 0,
        "type": "channel",
        "noteNumber": 72,
        "velocity": 0,
        "subtype": "noteOff"
      },
      {
        "deltaTime": 0,
        "channel": 0,
        "type": "channel",
        "noteNumber": 78,
        "velocity": 100,
        "subtype": "noteOn"
      },
      {
        "deltaTime": 120,
        "channel": 0,
        "type": "channel",
        "noteNumber": 78,
        "velocity": 0,
        "subtype": "noteOff"
      },
      {
        "deltaTime": 0,
        "channel": 0,
        "type": "channel",
        "noteNumber": 76,
        "velocity": 100,
        "subtype": "noteOn"
      },
      {
        "deltaTime": 120,
        "channel": 0,
        "type": "channel",
        "noteNumber": 76,
        "velocity": 0,
        "subtype": "noteOff"
      },
      {
        "deltaTime": 0,
        "channel": 0,
        "type": "channel",
        "noteNumber": 74,
        "velocity": 100,
        "subtype": "noteOn"
      },
      {
        "deltaTime": 120,
        "channel": 0,
        "type": "channel",
        "noteNumber": 74,
        "velocity": 0,
        "subtype": "noteOff"
      },
      {
        "deltaTime": 0,
        "channel": 0,
        "type": "channel",
        "noteNumber": 72,
        "velocity": 100,
        "subtype": "noteOn"
      },
      {
        "deltaTime": 120,
        "channel": 0,
        "type": "channel",
        "noteNumber": 72,
        "velocity": 0,
        "subtype": "noteOff"
      },
      {
        "deltaTime": 0,
        "channel": 0,
        "type": "channel",
        "noteNumber": 71,
        "velocity": 100,
        "subtype": "noteOn"
      },
      {
        "deltaTime": 120,
        "channel": 0,
        "type": "channel",
        "noteNumber": 71,
        "velocity": 0,
        "subtype": "noteOff"
      },
      {
        "deltaTime": 0,
        "channel": 0,
        "type": "channel",
        "noteNumber": 69,
        "velocity": 100,
        "subtype": "noteOn"
      },
      {
        "deltaTime": 120,
        "channel": 0,
        "type": "channel",
        "noteNumber": 69,
        "velocity": 0,
        "subtype": "noteOff"
      },
      {
        "deltaTime": 0,
        "channel": 0,
        "type": "channel",
        "noteNumber": 64,
        "velocity": 100,
        "subtype": "noteOn"
      },
      {
        "deltaTime": 120,
        "channel": 0,
        "type": "channel",
        "noteNumber": 64,
        "velocity": 0,
        "subtype": "noteOff"
      },
      {
        "deltaTime": 0,
        "channel": 0,
        "type": "channel",
        "noteNumber": 74,
        "velocity": 100,
        "subtype": "noteOn"
      },
      {
        "deltaTime": 120,
        "channel": 0,
        "type": "channel",
        "noteNumber": 74,
        "velocity": 0,
        "subtype": "noteOff"
      },
      {
        "deltaTime": 0,
        "channel": 0,
        "type": "channel",
        "noteNumber": 72,
        "velocity": 100,
        "subtype": "noteOn"
      },
      {
        "deltaTime": 120,
        "channel": 0,
        "type": "channel",
        "noteNumber": 72,
        "velocity": 0,
        "subtype": "noteOff"
      },
      {
        "deltaTime": 0,
        "channel": 0,
        "type": "channel",
        "noteNumber": 71,
        "velocity": 100,
        "subtype": "noteOn"
      },
      {
        "deltaTime": 120,
        "channel": 0,
        "type": "channel",
        "noteNumber": 71,
        "velocity": 0,
        "subtype": "noteOff"
      },
      {
        "deltaTime": 0,
        "channel": 0,
        "type": "channel",
        "noteNumber": 66,
        "velocity": 100,
        "subtype": "noteOn"
      },
      {
        "deltaTime": 120,
        "channel": 0,
        "type": "channel",
        "noteNumber": 66,
        "velocity": 0,
        "subtype": "noteOff"
      },
      {
        "deltaTime": 0,
        "channel": 0,
        "type": "channel",
        "noteNumber": 76,
        "velocity": 100,
        "subtype": "noteOn"
      },
      {
        "deltaTime": 120,
        "channel": 0,
        "type": "channel",
        "noteNumber": 76,
        "velocity": 0,
        "subtype": "noteOff"
      },
      {
        "deltaTime": 0,
        "channel": 0,
        "type": "channel",
        "noteNumber": 74,
        "velocity": 100,
        "subtype": "noteOn"
      },
      {
        "deltaTime": 120,
        "channel": 0,
        "type": "channel",
        "noteNumber": 74,
        "velocity": 0,
        "subtype": "noteOff"
      },
      {
        "deltaTime": 0,
        "channel": 0,
        "type": "channel",
        "noteNumber": 72,
        "velocity": 100,
        "subtype": "noteOn"
      },
      {
        "deltaTime": 120,
        "channel": 0,
        "type": "channel",
        "noteNumber": 72,
        "velocity": 0,
        "subtype": "noteOff"
      },
      {
        "deltaTime": 0,
        "channel": 0,
        "type": "channel",
        "noteNumber": 71,
        "velocity": 100,
        "subtype": "noteOn"
      },
      {
        "deltaTime": 120,
        "channel": 0,
        "type": "channel",
        "noteNumber": 71,
        "velocity": 0,
        "subtype": "noteOff"
      },
      {
        "deltaTime": 0,
        "channel": 0,
        "type": "channel",
        "noteNumber": 74,
        "velocity": 100,
        "subtype": "noteOn"
      },
      {
        "deltaTime": 120,
        "channel": 0,
        "type": "channel",
        "noteNumber": 74,
        "velocity": 0,
        "subtype": "noteOff"
      },
      {
        "deltaTime": 0,
        "channel": 0,
        "type": "channel",
        "noteNumber": 79,
        "velocity": 100,
        "subtype": "noteOn"
      },
      {
        "deltaTime": 120,
        "channel": 0,
        "type": "channel",
        "noteNumber": 79,
        "velocity": 0,
        "subtype": "noteOff"
      },
      {
        "deltaTime": 0,
        "channel": 0,
        "type": "channel",
        "noteNumber": 78,
        "velocity": 100,
        "subtype": "noteOn"
      },
      {
        "deltaTime": 120,
        "channel": 0,
        "type": "channel",
        "noteNumber": 78,
        "velocity": 0,
        "subtype": "noteOff"
      },
      {
        "deltaTime": 0,
        "channel": 0,
        "type": "channel",
        "noteNumber": 79,
        "velocity": 100,
        "subtype": "noteOn"
      },
      {
        "deltaTime": 120,
        "channel": 0,
        "type": "channel",
        "noteNumber": 79,
        "velocity": 0,
        "subtype": "noteOff"
      },
      {
        "deltaTime": 0,
        "channel": 0,
        "type": "channel",
        "noteNumber": 83,
        "velocity": 100,
        "subtype": "noteOn"
      },
      {
        "deltaTime": 120,
        "channel": 0,
        "type": "channel",
        "noteNumber": 83,
        "velocity": 0,
        "subtype": "noteOff"
      },
      {
        "deltaTime": 0,
        "channel": 0,
        "type": "channel",
        "noteNumber": 79,
        "velocity": 100,
        "subtype": "noteOn"
      },
      {
        "deltaTime": 120,
        "channel": 0,
        "type": "channel",
        "noteNumber": 79,
        "velocity": 0,
        "subtype": "noteOff"
      },
      {
        "deltaTime": 0,
        "channel": 0,
        "type": "channel",
        "noteNumber": 74,
        "velocity": 100,
        "subtype": "noteOn"
      },
      {
        "deltaTime": 120,
        "channel": 0,
        "type": "channel",
        "noteNumber": 74,
        "velocity": 0,
        "subtype": "noteOff"
      },
      {
        "deltaTime": 0,
        "channel": 0,
        "type": "channel",
        "noteNumber": 67,
        "velocity": 100,
        "subtype": "noteOn"
      },
      {
        "deltaTime": 120,
        "channel": 0,
        "type": "channel",
        "noteNumber": 67,
        "velocity": 0,
        "subtype": "noteOff"
      },
      {
        "deltaTime": 0,
        "channel": 0,
        "type": "channel",
        "noteNumber": 74,
        "velocity": 100,
        "subtype": "noteOn"
      },
      {
        "deltaTime": 120,
        "channel": 0,
        "type": "channel",
        "noteNumber": 74,
        "velocity": 0,
        "subtype": "noteOff"
      },
      {
        "deltaTime": 0,
        "channel": 0,
        "type": "channel",
        "noteNumber": 79,
        "velocity": 100,
        "subtype": "noteOn"
      },
      {
        "deltaTime": 120,
        "channel": 0,
        "type": "channel",
        "noteNumber": 79,
        "velocity": 0,
        "subtype": "noteOff"
      },
      {
        "deltaTime": 0,
        "channel": 0,
        "type": "channel",
        "noteNumber": 78,
        "velocity": 100,
        "subtype": "noteOn"
      },
      {
        "deltaTime": 120,
        "channel": 0,
        "type": "channel",
        "noteNumber": 78,
        "velocity": 0,
        "subtype": "noteOff"
      },
      {
        "deltaTime": 0,
        "channel": 0,
        "type": "channel",
        "noteNumber": 79,
        "velocity": 100,
        "subtype": "noteOn"
      },
      {
        "deltaTime": 120,
        "channel": 0,
        "type": "channel",
        "noteNumber": 79,
        "velocity": 0,
        "subtype": "noteOff"
      },
      {
        "deltaTime": 0,
        "channel": 0,
        "type": "channel",
        "noteNumber": 83,
        "velocity": 100,
        "subtype": "noteOn"
      },
      {
        "deltaTime": 120,
        "channel": 0,
        "type": "channel",
        "noteNumber": 83,
        "velocity": 0,
        "subtype": "noteOff"
      },
      {
        "deltaTime": 0,
        "channel": 0,
        "type": "channel",
        "noteNumber": 79,
        "velocity": 100,
        "subtype": "noteOn"
      },
      {
        "deltaTime": 120,
        "channel": 0,
        "type": "channel",
        "noteNumber": 79,
        "velocity": 0,
        "subtype": "noteOff"
      },
      {
        "deltaTime": 0,
        "channel": 0,
        "type": "channel",
        "noteNumber": 74,
        "velocity": 100,
        "subtype": "noteOn"
      },
      {
        "deltaTime": 120,
        "channel": 0,
        "type": "channel",
        "noteNumber": 74,
        "velocity": 0,
        "subtype": "noteOff"
      },
      {
        "deltaTime": 0,
        "channel": 0,
        "type": "channel",
        "noteNumber": 67,
        "velocity": 100,
        "subtype": "noteOn"
      },
      {
        "deltaTime": 120,
        "channel": 0,
        "type": "channel",
        "noteNumber": 67,
        "velocity": 0,
        "subtype": "noteOff"
      },
      {
        "deltaTime": 0,
        "channel": 0,
        "type": "channel",
        "noteNumber": 74,
        "velocity": 100,
        "subtype": "noteOn"
      },
      {
        "deltaTime": 120,
        "channel": 0,
        "type": "channel",
        "noteNumber": 74,
        "velocity": 0,
        "subtype": "noteOff"
      },
      {
        "deltaTime": 0,
        "channel": 0,
        "type": "channel",
        "noteNumber": 77,
        "velocity": 100,
        "subtype": "noteOn"
      },
      {
        "deltaTime": 120,
        "channel": 0,
        "type": "channel",
        "noteNumber": 77,
        "velocity": 0,
        "subtype": "noteOff"
      },
      {
        "deltaTime": 0,
        "channel": 0,
        "type": "channel",
        "noteNumber": 76,
        "velocity": 100,
        "subtype": "noteOn"
      },
      {
        "deltaTime": 120,
        "channel": 0,
        "type": "channel",
        "noteNumber": 76,
        "velocity": 0,
        "subtype": "noteOff"
      },
      {
        "deltaTime": 0,
        "channel": 0,
        "type": "channel",
        "noteNumber": 77,
        "velocity": 100,
        "subtype": "noteOn"
      },
      {
        "deltaTime": 120,
        "channel": 0,
        "type": "channel",
        "noteNumber": 77,
        "velocity": 0,
        "subtype": "noteOff"
      },
      {
        "deltaTime": 0,
        "channel": 0,
        "type": "channel",
        "noteNumber": 83,
        "velocity": 100,
        "subtype": "noteOn"
      },
      {
        "deltaTime": 120,
        "channel": 0,
        "type": "channel",
        "noteNumber": 83,
        "velocity": 0,
        "subtype": "noteOff"
      },
      {
        "deltaTime": 0,
        "channel": 0,
        "type": "channel",
        "noteNumber": 77,
        "velocity": 100,
        "subtype": "noteOn"
      },
      {
        "deltaTime": 120,
        "channel": 0,
        "type": "channel",
        "noteNumber": 77,
        "velocity": 0,
        "subtype": "noteOff"
      },
      {
        "deltaTime": 0,
        "channel": 0,
        "type": "channel",
        "noteNumber": 74,
        "velocity": 100,
        "subtype": "noteOn"
      },
      {
        "deltaTime": 120,
        "channel": 0,
        "type": "channel",
        "noteNumber": 74,
        "velocity": 0,
        "subtype": "noteOff"
      },
      {
        "deltaTime": 0,
        "channel": 0,
        "type": "channel",
        "noteNumber": 67,
        "velocity": 100,
        "subtype": "noteOn"
      },
      {
        "deltaTime": 120,
        "channel": 0,
        "type": "channel",
        "noteNumber": 67,
        "velocity": 0,
        "subtype": "noteOff"
      },
      {
        "deltaTime": 0,
        "channel": 0,
        "type": "channel",
        "noteNumber": 74,
        "velocity": 100,
        "subtype": "noteOn"
      },
      {
        "deltaTime": 120,
        "channel": 0,
        "type": "channel",
        "noteNumber": 74,
        "velocity": 0,
        "subtype": "noteOff"
      },
      {
        "deltaTime": 0,
        "channel": 0,
        "type": "channel",
        "noteNumber": 77,
        "velocity": 100,
        "subtype": "noteOn"
      },
      {
        "deltaTime": 120,
        "channel": 0,
        "type": "channel",
        "noteNumber": 77,
        "velocity": 0,
        "subtype": "noteOff"
      },
      {
        "deltaTime": 0,
        "channel": 0,
        "type": "channel",
        "noteNumber": 76,
        "velocity": 100,
        "subtype": "noteOn"
      },
      {
        "deltaTime": 120,
        "channel": 0,
        "type": "channel",
        "noteNumber": 76,
        "velocity": 0,
        "subtype": "noteOff"
      },
      {
        "deltaTime": 0,
        "channel": 0,
        "type": "channel",
        "noteNumber": 77,
        "velocity": 100,
        "subtype": "noteOn"
      },
      {
        "deltaTime": 120,
        "channel": 0,
        "type": "channel",
        "noteNumber": 77,
        "velocity": 0,
        "subtype": "noteOff"
      },
      {
        "deltaTime": 0,
        "channel": 0,
        "type": "channel",
        "noteNumber": 83,
        "velocity": 100,
        "subtype": "noteOn"
      },
      {
        "deltaTime": 120,
        "channel": 0,
        "type": "channel",
        "noteNumber": 83,
        "velocity": 0,
        "subtype": "noteOff"
      },
      {
        "deltaTime": 0,
        "channel": 0,
        "type": "channel",
        "noteNumber": 77,
        "velocity": 100,
        "subtype": "noteOn"
      },
      {
        "deltaTime": 120,
        "channel": 0,
        "type": "channel",
        "noteNumber": 77,
        "velocity": 0,
        "subtype": "noteOff"
      },
      {
        "deltaTime": 0,
        "channel": 0,
        "type": "channel",
        "noteNumber": 74,
        "velocity": 100,
        "subtype": "noteOn"
      },
      {
        "deltaTime": 120,
        "channel": 0,
        "type": "channel",
        "noteNumber": 74,
        "velocity": 0,
        "subtype": "noteOff"
      },
      {
        "deltaTime": 0,
        "channel": 0,
        "type": "channel",
        "noteNumber": 67,
        "velocity": 100,
        "subtype": "noteOn"
      },
      {
        "deltaTime": 120,
        "channel": 0,
        "type": "channel",
        "noteNumber": 67,
        "velocity": 0,
        "subtype": "noteOff"
      },
      {
        "deltaTime": 0,
        "channel": 0,
        "type": "channel",
        "noteNumber": 77,
        "velocity": 100,
        "subtype": "noteOn"
      },
      {
        "deltaTime": 120,
        "channel": 0,
        "type": "channel",
        "noteNumber": 77,
        "velocity": 0,
        "subtype": "noteOff"
      },
      {
        "deltaTime": 0,
        "channel": 0,
        "type": "channel",
        "noteNumber": 83,
        "velocity": 100,
        "subtype": "noteOn"
      },
      {
        "deltaTime": 120,
        "channel": 0,
        "type": "channel",
        "noteNumber": 83,
        "velocity": 0,
        "subtype": "noteOff"
      },
      {
        "deltaTime": 0,
        "channel": 0,
        "type": "channel",
        "noteNumber": 81,
        "velocity": 100,
        "subtype": "noteOn"
      },
      {
        "deltaTime": 120,
        "channel": 0,
        "type": "channel",
        "noteNumber": 81,
        "velocity": 0,
        "subtype": "noteOff"
      },
      {
        "deltaTime": 0,
        "channel": 0,
        "type": "channel",
        "noteNumber": 79,
        "velocity": 100,
        "subtype": "noteOn"
      },
      {
        "deltaTime": 120,
        "channel": 0,
        "type": "channel",
        "noteNumber": 79,
        "velocity": 0,
        "subtype": "noteOff"
      },
      {
        "deltaTime": 0,
        "channel": 0,
        "type": "channel",
        "noteNumber": 77,
        "velocity": 100,
        "subtype": "noteOn"
      },
      {
        "deltaTime": 120,
        "channel": 0,
        "type": "channel",
        "noteNumber": 77,
        "velocity": 0,
        "subtype": "noteOff"
      },
      {
        "deltaTime": 0,
        "channel": 0,
        "type": "channel",
        "noteNumber": 76,
        "velocity": 100,
        "subtype": "noteOn"
      },
      {
        "deltaTime": 120,
        "channel": 0,
        "type": "channel",
        "noteNumber": 76,
        "velocity": 0,
        "subtype": "noteOff"
      },
      {
        "deltaTime": 0,
        "channel": 0,
        "type": "channel",
        "noteNumber": 74,
        "velocity": 100,
        "subtype": "noteOn"
      },
      {
        "deltaTime": 120,
        "channel": 0,
        "type": "channel",
        "noteNumber": 74,
        "velocity": 0,
        "subtype": "noteOff"
      },
      {
        "deltaTime": 0,
        "channel": 0,
        "type": "channel",
        "noteNumber": 69,
        "velocity": 100,
        "subtype": "noteOn"
      },
      {
        "deltaTime": 120,
        "channel": 0,
        "type": "channel",
        "noteNumber": 69,
        "velocity": 0,
        "subtype": "noteOff"
      },
      {
        "deltaTime": 0,
        "channel": 0,
        "type": "channel",
        "noteNumber": 79,
        "velocity": 100,
        "subtype": "noteOn"
      },
      {
        "deltaTime": 120,
        "channel": 0,
        "type": "channel",
        "noteNumber": 79,
        "velocity": 0,
        "subtype": "noteOff"
      },
      {
        "deltaTime": 0,
        "channel": 0,
        "type": "channel",
        "noteNumber": 77,
        "velocity": 100,
        "subtype": "noteOn"
      },
      {
        "deltaTime": 120,
        "channel": 0,
        "type": "channel",
        "noteNumber": 77,
        "velocity": 0,
        "subtype": "noteOff"
      },
      {
        "deltaTime": 0,
        "channel": 0,
        "type": "channel",
        "noteNumber": 76,
        "velocity": 100,
        "subtype": "noteOn"
      },
      {
        "deltaTime": 120,
        "channel": 0,
        "type": "channel",
        "noteNumber": 76,
        "velocity": 0,
        "subtype": "noteOff"
      },
      {
        "deltaTime": 0,
        "channel": 0,
        "type": "channel",
        "noteNumber": 71,
        "velocity": 100,
        "subtype": "noteOn"
      },
      {
        "deltaTime": 120,
        "channel": 0,
        "type": "channel",
        "noteNumber": 71,
        "velocity": 0,
        "subtype": "noteOff"
      },
      {
        "deltaTime": 0,
        "channel": 0,
        "type": "channel",
        "noteNumber": 81,
        "velocity": 100,
        "subtype": "noteOn"
      },
      {
        "deltaTime": 120,
        "channel": 0,
        "type": "channel",
        "noteNumber": 81,
        "velocity": 0,
        "subtype": "noteOff"
      },
      {
        "deltaTime": 0,
        "channel": 0,
        "type": "channel",
        "noteNumber": 79,
        "velocity": 100,
        "subtype": "noteOn"
      },
      {
        "deltaTime": 120,
        "channel": 0,
        "type": "channel",
        "noteNumber": 79,
        "velocity": 0,
        "subtype": "noteOff"
      },
      {
        "deltaTime": 0,
        "channel": 0,
        "type": "channel",
        "noteNumber": 77,
        "velocity": 100,
        "subtype": "noteOn"
      },
      {
        "deltaTime": 120,
        "channel": 0,
        "type": "channel",
        "noteNumber": 77,
        "velocity": 0,
        "subtype": "noteOff"
      },
      {
        "deltaTime": 0,
        "channel": 0,
        "type": "channel",
        "noteNumber": 76,
        "velocity": 100,
        "subtype": "noteOn"
      },
      {
        "deltaTime": 120,
        "channel": 0,
        "type": "channel",
        "noteNumber": 76,
        "velocity": 0,
        "subtype": "noteOff"
      },
      {
        "deltaTime": 0,
        "channel": 0,
        "type": "channel",
        "noteNumber": 79,
        "velocity": 100,
        "subtype": "noteOn"
      },
      {
        "deltaTime": 120,
        "channel": 0,
        "type": "channel",
        "noteNumber": 79,
        "velocity": 0,
        "subtype": "noteOff"
      },
      {
        "deltaTime": 0,
        "channel": 0,
        "type": "channel",
        "noteNumber": 76,
        "velocity": 100,
        "subtype": "noteOn"
      },
      {
        "deltaTime": 120,
        "channel": 0,
        "type": "channel",
        "noteNumber": 76,
        "velocity": 0,
        "subtype": "noteOff"
      },
      {
        "deltaTime": 0,
        "channel": 0,
        "type": "channel",
        "noteNumber": 72,
        "velocity": 100,
        "subtype": "noteOn"
      },
      {
        "deltaTime": 120,
        "channel": 0,
        "type": "channel",
        "noteNumber": 72,
        "velocity": 0,
        "subtype": "noteOff"
      },
      {
        "deltaTime": 0,
        "channel": 0,
        "type": "channel",
        "noteNumber": 70,
        "velocity": 100,
        "subtype": "noteOn"
      },
      {
        "deltaTime": 120,
        "channel": 0,
        "type": "channel",
        "noteNumber": 70,
        "velocity": 0,
        "subtype": "noteOff"
      },
      {
        "deltaTime": 0,
        "channel": 0,
        "type": "channel",
        "noteNumber": 69,
        "velocity": 100,
        "subtype": "noteOn"
      },
      {
        "deltaTime": 120,
        "channel": 0,
        "type": "channel",
        "noteNumber": 69,
        "velocity": 0,
        "subtype": "noteOff"
      },
      {
        "deltaTime": 0,
        "channel": 0,
        "type": "channel",
        "noteNumber": 70,
        "velocity": 100,
        "subtype": "noteOn"
      },
      {
        "deltaTime": 120,
        "channel": 0,
        "type": "channel",
        "noteNumber": 70,
        "velocity": 0,
        "subtype": "noteOff"
      },
      {
        "deltaTime": 0,
        "channel": 0,
        "type": "channel",
        "noteNumber": 67,
        "velocity": 100,
        "subtype": "noteOn"
      },
      {
        "deltaTime": 120,
        "channel": 0,
        "type": "channel",
        "noteNumber": 67,
        "velocity": 0,
        "subtype": "noteOff"
      },
      {
        "deltaTime": 0,
        "channel": 0,
        "type": "channel",
        "noteNumber": 69,
        "velocity": 100,
        "subtype": "noteOn"
      },
      {
        "deltaTime": 120,
        "channel": 0,
        "type": "channel",
        "noteNumber": 69,
        "velocity": 0,
        "subtype": "noteOff"
      },
      {
        "deltaTime": 0,
        "channel": 0,
        "type": "channel",
        "noteNumber": 71,
        "velocity": 100,
        "subtype": "noteOn"
      },
      {
        "deltaTime": 120,
        "channel": 0,
        "type": "channel",
        "noteNumber": 71,
        "velocity": 0,
        "subtype": "noteOff"
      },
      {
        "deltaTime": 0,
        "channel": 0,
        "type": "channel",
        "noteNumber": 73,
        "velocity": 100,
        "subtype": "noteOn"
      },
      {
        "deltaTime": 120,
        "channel": 0,
        "type": "channel",
        "noteNumber": 73,
        "velocity": 0,
        "subtype": "noteOff"
      },
      {
        "deltaTime": 0,
        "channel": 0,
        "type": "channel",
        "noteNumber": 74,
        "velocity": 100,
        "subtype": "noteOn"
      },
      {
        "deltaTime": 120,
        "channel": 0,
        "type": "channel",
        "noteNumber": 74,
        "velocity": 0,
        "subtype": "noteOff"
      },
      {
        "deltaTime": 0,
        "channel": 0,
        "type": "channel",
        "noteNumber": 76,
        "velocity": 100,
        "subtype": "noteOn"
      },
      {
        "deltaTime": 120,
        "channel": 0,
        "type": "channel",
        "noteNumber": 76,
        "velocity": 0,
        "subtype": "noteOff"
      },
      {
        "deltaTime": 0,
        "channel": 0,
        "type": "channel",
        "noteNumber": 77,
        "velocity": 100,
        "subtype": "noteOn"
      },
      {
        "deltaTime": 120,
        "channel": 0,
        "type": "channel",
        "noteNumber": 77,
        "velocity": 0,
        "subtype": "noteOff"
      },
      {
        "deltaTime": 0,
        "channel": 0,
        "type": "channel",
        "noteNumber": 79,
        "velocity": 100,
        "subtype": "noteOn"
      },
      {
        "deltaTime": 120,
        "channel": 0,
        "type": "channel",
        "noteNumber": 79,
        "velocity": 0,
        "subtype": "noteOff"
      },
      {
        "deltaTime": 0,
        "channel": 0,
        "type": "channel",
        "noteNumber": 76,
        "velocity": 100,
        "subtype": "noteOn"
      },
      {
        "deltaTime": 120,
        "channel": 0,
        "type": "channel",
        "noteNumber": 76,
        "velocity": 0,
        "subtype": "noteOff"
      },
      {
        "deltaTime": 0,
        "channel": 0,
        "type": "channel",
        "noteNumber": 77,
        "velocity": 100,
        "subtype": "noteOn"
      },
      {
        "deltaTime": 120,
        "channel": 0,
        "type": "channel",
        "noteNumber": 77,
        "velocity": 0,
        "subtype": "noteOff"
      },
      {
        "deltaTime": 0,
        "channel": 0,
        "type": "channel",
        "noteNumber": 81,
        "velocity": 100,
        "subtype": "noteOn"
      },
      {
        "deltaTime": 120,
        "channel": 0,
        "type": "channel",
        "noteNumber": 81,
        "velocity": 0,
        "subtype": "noteOff"
      },
      {
        "deltaTime": 0,
        "channel": 0,
        "type": "channel",
        "noteNumber": 77,
        "velocity": 100,
        "subtype": "noteOn"
      },
      {
        "deltaTime": 120,
        "channel": 0,
        "type": "channel",
        "noteNumber": 77,
        "velocity": 0,
        "subtype": "noteOff"
      },
      {
        "deltaTime": 0,
        "channel": 0,
        "type": "channel",
        "noteNumber": 74,
        "velocity": 100,
        "subtype": "noteOn"
      },
      {
        "deltaTime": 120,
        "channel": 0,
        "type": "channel",
        "noteNumber": 74,
        "velocity": 0,
        "subtype": "noteOff"
      },
      {
        "deltaTime": 0,
        "channel": 0,
        "type": "channel",
        "noteNumber": 72,
        "velocity": 100,
        "subtype": "noteOn"
      },
      {
        "deltaTime": 120,
        "channel": 0,
        "type": "channel",
        "noteNumber": 72,
        "velocity": 0,
        "subtype": "noteOff"
      },
      {
        "deltaTime": 0,
        "channel": 0,
        "type": "channel",
        "noteNumber": 71,
        "velocity": 100,
        "subtype": "noteOn"
      },
      {
        "deltaTime": 120,
        "channel": 0,
        "type": "channel",
        "noteNumber": 71,
        "velocity": 0,
        "subtype": "noteOff"
      },
      {
        "deltaTime": 0,
        "channel": 0,
        "type": "channel",
        "noteNumber": 72,
        "velocity": 100,
        "subtype": "noteOn"
      },
      {
        "deltaTime": 120,
        "channel": 0,
        "type": "channel",
        "noteNumber": 72,
        "velocity": 0,
        "subtype": "noteOff"
      },
      {
        "deltaTime": 0,
        "channel": 0,
        "type": "channel",
        "noteNumber": 69,
        "velocity": 100,
        "subtype": "noteOn"
      },
      {
        "deltaTime": 120,
        "channel": 0,
        "type": "channel",
        "noteNumber": 69,
        "velocity": 0,
        "subtype": "noteOff"
      },
      {
        "deltaTime": 0,
        "channel": 0,
        "type": "channel",
        "noteNumber": 71,
        "velocity": 100,
        "subtype": "noteOn"
      },
      {
        "deltaTime": 120,
        "channel": 0,
        "type": "channel",
        "noteNumber": 71,
        "velocity": 0,
        "subtype": "noteOff"
      },
      {
        "deltaTime": 0,
        "channel": 0,
        "type": "channel",
        "noteNumber": 73,
        "velocity": 100,
        "subtype": "noteOn"
      },
      {
        "deltaTime": 120,
        "channel": 0,
        "type": "channel",
        "noteNumber": 73,
        "velocity": 0,
        "subtype": "noteOff"
      },
      {
        "deltaTime": 0,
        "channel": 0,
        "type": "channel",
        "noteNumber": 75,
        "velocity": 100,
        "subtype": "noteOn"
      },
      {
        "deltaTime": 120,
        "channel": 0,
        "type": "channel",
        "noteNumber": 75,
        "velocity": 0,
        "subtype": "noteOff"
      },
      {
        "deltaTime": 0,
        "channel": 0,
        "type": "channel",
        "noteNumber": 76,
        "velocity": 100,
        "subtype": "noteOn"
      },
      {
        "deltaTime": 120,
        "channel": 0,
        "type": "channel",
        "noteNumber": 76,
        "velocity": 0,
        "subtype": "noteOff"
      },
      {
        "deltaTime": 0,
        "channel": 0,
        "type": "channel",
        "noteNumber": 78,
        "velocity": 100,
        "subtype": "noteOn"
      },
      {
        "deltaTime": 120,
        "channel": 0,
        "type": "channel",
        "noteNumber": 78,
        "velocity": 0,
        "subtype": "noteOff"
      },
      {
        "deltaTime": 0,
        "channel": 0,
        "type": "channel",
        "noteNumber": 80,
        "velocity": 100,
        "subtype": "noteOn"
      },
      {
        "deltaTime": 120,
        "channel": 0,
        "type": "channel",
        "noteNumber": 80,
        "velocity": 0,
        "subtype": "noteOff"
      },
      {
        "deltaTime": 0,
        "channel": 0,
        "type": "channel",
        "noteNumber": 81,
        "velocity": 100,
        "subtype": "noteOn"
      },
      {
        "deltaTime": 120,
        "channel": 0,
        "type": "channel",
        "noteNumber": 81,
        "velocity": 0,
        "subtype": "noteOff"
      },
      {
        "deltaTime": 0,
        "channel": 0,
        "type": "channel",
        "noteNumber": 78,
        "velocity": 100,
        "subtype": "noteOn"
      },
      {
        "deltaTime": 120,
        "channel": 0,
        "type": "channel",
        "noteNumber": 78,
        "velocity": 0,
        "subtype": "noteOff"
      },
      {
        "deltaTime": 0,
        "channel": 0,
        "type": "channel",
        "noteNumber": 80,
        "velocity": 100,
        "subtype": "noteOn"
      },
      {
        "deltaTime": 120,
        "channel": 0,
        "type": "channel",
        "noteNumber": 80,
        "velocity": 0,
        "subtype": "noteOff"
      },
      {
        "deltaTime": 0,
        "channel": 0,
        "type": "channel",
        "noteNumber": 83,
        "velocity": 100,
        "subtype": "noteOn"
      },
      {
        "deltaTime": 120,
        "channel": 0,
        "type": "channel",
        "noteNumber": 83,
        "velocity": 0,
        "subtype": "noteOff"
      },
      {
        "deltaTime": 0,
        "channel": 0,
        "type": "channel",
        "noteNumber": 80,
        "velocity": 100,
        "subtype": "noteOn"
      },
      {
        "deltaTime": 120,
        "channel": 0,
        "type": "channel",
        "noteNumber": 80,
        "velocity": 0,
        "subtype": "noteOff"
      },
      {
        "deltaTime": 0,
        "channel": 0,
        "type": "channel",
        "noteNumber": 76,
        "velocity": 100,
        "subtype": "noteOn"
      },
      {
        "deltaTime": 120,
        "channel": 0,
        "type": "channel",
        "noteNumber": 76,
        "velocity": 0,
        "subtype": "noteOff"
      },
      {
        "deltaTime": 0,
        "channel": 0,
        "type": "channel",
        "noteNumber": 74,
        "velocity": 100,
        "subtype": "noteOn"
      },
      {
        "deltaTime": 120,
        "channel": 0,
        "type": "channel",
        "noteNumber": 74,
        "velocity": 0,
        "subtype": "noteOff"
      },
      {
        "deltaTime": 0,
        "channel": 0,
        "type": "channel",
        "noteNumber": 72,
        "velocity": 100,
        "subtype": "noteOn"
      },
      {
        "deltaTime": 120,
        "channel": 0,
        "type": "channel",
        "noteNumber": 72,
        "velocity": 0,
        "subtype": "noteOff"
      },
      {
        "deltaTime": 0,
        "channel": 0,
        "type": "channel",
        "noteNumber": 74,
        "velocity": 100,
        "subtype": "noteOn"
      },
      {
        "deltaTime": 120,
        "channel": 0,
        "type": "channel",
        "noteNumber": 74,
        "velocity": 0,
        "subtype": "noteOff"
      },
      {
        "deltaTime": 0,
        "channel": 0,
        "type": "channel",
        "noteNumber": 71,
        "velocity": 100,
        "subtype": "noteOn"
      },
      {
        "deltaTime": 120,
        "channel": 0,
        "type": "channel",
        "noteNumber": 71,
        "velocity": 0,
        "subtype": "noteOff"
      },
      {
        "deltaTime": 0,
        "channel": 0,
        "type": "channel",
        "noteNumber": 72,
        "velocity": 100,
        "subtype": "noteOn"
      },
      {
        "deltaTime": 120,
        "channel": 0,
        "type": "channel",
        "noteNumber": 72,
        "velocity": 0,
        "subtype": "noteOff"
      },
      {
        "deltaTime": 0,
        "channel": 0,
        "type": "channel",
        "noteNumber": 76,
        "velocity": 100,
        "subtype": "noteOn"
      },
      {
        "deltaTime": 120,
        "channel": 0,
        "type": "channel",
        "noteNumber": 76,
        "velocity": 0,
        "subtype": "noteOff"
      },
      {
        "deltaTime": 0,
        "channel": 0,
        "type": "channel",
        "noteNumber": 80,
        "velocity": 100,
        "subtype": "noteOn"
      },
      {
        "deltaTime": 120,
        "channel": 0,
        "type": "channel",
        "noteNumber": 80,
        "velocity": 0,
        "subtype": "noteOff"
      },
      {
        "deltaTime": 0,
        "channel": 0,
        "type": "channel",
        "noteNumber": 81,
        "velocity": 100,
        "subtype": "noteOn"
      },
      {
        "deltaTime": 120,
        "channel": 0,
        "type": "channel",
        "noteNumber": 81,
        "velocity": 0,
        "subtype": "noteOff"
      },
      {
        "deltaTime": 0,
        "channel": 0,
        "type": "channel",
        "noteNumber": 68,
        "velocity": 100,
        "subtype": "noteOn"
      },
      {
        "deltaTime": 120,
        "channel": 0,
        "type": "channel",
        "noteNumber": 68,
        "velocity": 0,
        "subtype": "noteOff"
      },
      {
        "deltaTime": 0,
        "channel": 0,
        "type": "channel",
        "noteNumber": 77,
        "velocity": 100,
        "subtype": "noteOn"
      },
      {
        "deltaTime": 120,
        "channel": 0,
        "type": "channel",
        "noteNumber": 77,
        "velocity": 0,
        "subtype": "noteOff"
      },
      {
        "deltaTime": 0,
        "channel": 0,
        "type": "channel",
        "noteNumber": 76,
        "velocity": 100,
        "subtype": "noteOn"
      },
      {
        "deltaTime": 120,
        "channel": 0,
        "type": "channel",
        "noteNumber": 76,
        "velocity": 0,
        "subtype": "noteOff"
      },
      {
        "deltaTime": 0,
        "channel": 0,
        "type": "channel",
        "noteNumber": 74,
        "velocity": 100,
        "subtype": "noteOn"
      },
      {
        "deltaTime": 120,
        "channel": 0,
        "type": "channel",
        "noteNumber": 74,
        "velocity": 0,
        "subtype": "noteOff"
      },
      {
        "deltaTime": 0,
        "channel": 0,
        "type": "channel",
        "noteNumber": 69,
        "velocity": 100,
        "subtype": "noteOn"
      },
      {
        "deltaTime": 120,
        "channel": 0,
        "type": "channel",
        "noteNumber": 69,
        "velocity": 0,
        "subtype": "noteOff"
      },
      {
        "deltaTime": 0,
        "channel": 0,
        "type": "channel",
        "noteNumber": 72,
        "velocity": 100,
        "subtype": "noteOn"
      },
      {
        "deltaTime": 120,
        "channel": 0,
        "type": "channel",
        "noteNumber": 72,
        "velocity": 0,
        "subtype": "noteOff"
      },
      {
        "deltaTime": 0,
        "channel": 0,
        "type": "channel",
        "noteNumber": 76,
        "velocity": 100,
        "subtype": "noteOn"
      },
      {
        "deltaTime": 120,
        "channel": 0,
        "type": "channel",
        "noteNumber": 76,
        "velocity": 0,
        "subtype": "noteOff"
      },
      {
        "deltaTime": 0,
        "channel": 0,
        "type": "channel",
        "noteNumber": 77,
        "velocity": 100,
        "subtype": "noteOn"
      },
      {
        "deltaTime": 120,
        "channel": 0,
        "type": "channel",
        "noteNumber": 77,
        "velocity": 0,
        "subtype": "noteOff"
      },
      {
        "deltaTime": 0,
        "channel": 0,
        "type": "channel",
        "noteNumber": 64,
        "velocity": 100,
        "subtype": "noteOn"
      },
      {
        "deltaTime": 120,
        "channel": 0,
        "type": "channel",
        "noteNumber": 64,
        "velocity": 0,
        "subtype": "noteOff"
      },
      {
        "deltaTime": 0,
        "channel": 0,
        "type": "channel",
        "noteNumber": 74,
        "velocity": 100,
        "subtype": "noteOn"
      },
      {
        "deltaTime": 120,
        "channel": 0,
        "type": "channel",
        "noteNumber": 74,
        "velocity": 0,
        "subtype": "noteOff"
      },
      {
        "deltaTime": 0,
        "channel": 0,
        "type": "channel",
        "noteNumber": 72,
        "velocity": 100,
        "subtype": "noteOn"
      },
      {
        "deltaTime": 120,
        "channel": 0,
        "type": "channel",
        "noteNumber": 72,
        "velocity": 0,
        "subtype": "noteOff"
      },
      {
        "deltaTime": 0,
        "channel": 0,
        "type": "channel",
        "noteNumber": 70,
        "velocity": 100,
        "subtype": "noteOn"
      },
      {
        "deltaTime": 120,
        "channel": 0,
        "type": "channel",
        "noteNumber": 70,
        "velocity": 0,
        "subtype": "noteOff"
      },
      {
        "deltaTime": 0,
        "channel": 0,
        "type": "channel",
        "noteNumber": 65,
        "velocity": 100,
        "subtype": "noteOn"
      },
      {
        "deltaTime": 120,
        "channel": 0,
        "type": "channel",
        "noteNumber": 65,
        "velocity": 0,
        "subtype": "noteOff"
      },
      {
        "deltaTime": 0,
        "channel": 0,
        "type": "channel",
        "noteNumber": 69,
        "velocity": 100,
        "subtype": "noteOn"
      },
      {
        "deltaTime": 120,
        "channel": 0,
        "type": "channel",
        "noteNumber": 69,
        "velocity": 0,
        "subtype": "noteOff"
      },
      {
        "deltaTime": 0,
        "channel": 0,
        "type": "channel",
        "noteNumber": 73,
        "velocity": 100,
        "subtype": "noteOn"
      },
      {
        "deltaTime": 120,
        "channel": 0,
        "type": "channel",
        "noteNumber": 73,
        "velocity": 0,
        "subtype": "noteOff"
      },
      {
        "deltaTime": 0,
        "channel": 0,
        "type": "channel",
        "noteNumber": 74,
        "velocity": 100,
        "subtype": "noteOn"
      },
      {
        "deltaTime": 120,
        "channel": 0,
        "type": "channel",
        "noteNumber": 74,
        "velocity": 0,
        "subtype": "noteOff"
      },
      {
        "deltaTime": 0,
        "channel": 0,
        "type": "channel",
        "noteNumber": 69,
        "velocity": 100,
        "subtype": "noteOn"
      },
      {
        "deltaTime": 120,
        "channel": 0,
        "type": "channel",
        "noteNumber": 69,
        "velocity": 0,
        "subtype": "noteOff"
      },
      {
        "deltaTime": 0,
        "channel": 0,
        "type": "channel",
        "noteNumber": 79,
        "velocity": 100,
        "subtype": "noteOn"
      },
      {
        "deltaTime": 120,
        "channel": 0,
        "type": "channel",
        "noteNumber": 79,
        "velocity": 0,
        "subtype": "noteOff"
      },
      {
        "deltaTime": 0,
        "channel": 0,
        "type": "channel",
        "noteNumber": 77,
        "velocity": 100,
        "subtype": "noteOn"
      },
      {
        "deltaTime": 120,
        "channel": 0,
        "type": "channel",
        "noteNumber": 77,
        "velocity": 0,
        "subtype": "noteOff"
      },
      {
        "deltaTime": 0,
        "channel": 0,
        "type": "channel",
        "noteNumber": 76,
        "velocity": 100,
        "subtype": "noteOn"
      },
      {
        "deltaTime": 120,
        "channel": 0,
        "type": "channel",
        "noteNumber": 76,
        "velocity": 0,
        "subtype": "noteOff"
      },
      {
        "deltaTime": 0,
        "channel": 0,
        "type": "channel",
        "noteNumber": 74,
        "velocity": 100,
        "subtype": "noteOn"
      },
      {
        "deltaTime": 120,
        "channel": 0,
        "type": "channel",
        "noteNumber": 74,
        "velocity": 0,
        "subtype": "noteOff"
      },
      {
        "deltaTime": 0,
        "channel": 0,
        "type": "channel",
        "noteNumber": 77,
        "velocity": 100,
        "subtype": "noteOn"
      },
      {
        "deltaTime": 120,
        "channel": 0,
        "type": "channel",
        "noteNumber": 77,
        "velocity": 0,
        "subtype": "noteOff"
      },
      {
        "deltaTime": 0,
        "channel": 0,
        "type": "channel",
        "noteNumber": 73,
        "velocity": 100,
        "subtype": "noteOn"
      },
      {
        "deltaTime": 120,
        "channel": 0,
        "type": "channel",
        "noteNumber": 73,
        "velocity": 0,
        "subtype": "noteOff"
      },
      {
        "deltaTime": 0,
        "channel": 0,
        "type": "channel",
        "noteNumber": 74,
        "velocity": 100,
        "subtype": "noteOn"
      },
      {
        "deltaTime": 120,
        "channel": 0,
        "type": "channel",
        "noteNumber": 74,
        "velocity": 0,
        "subtype": "noteOff"
      },
      {
        "deltaTime": 0,
        "channel": 0,
        "type": "channel",
        "noteNumber": 81,
        "velocity": 100,
        "subtype": "noteOn"
      },
      {
        "deltaTime": 120,
        "channel": 0,
        "type": "channel",
        "noteNumber": 81,
        "velocity": 0,
        "subtype": "noteOff"
      },
      {
        "deltaTime": 0,
        "channel": 0,
        "type": "channel",
        "noteNumber": 78,
        "velocity": 100,
        "subtype": "noteOn"
      },
      {
        "deltaTime": 120,
        "channel": 0,
        "type": "channel",
        "noteNumber": 78,
        "velocity": 0,
        "subtype": "noteOff"
      },
      {
        "deltaTime": 0,
        "channel": 0,
        "type": "channel",
        "noteNumber": 72,
        "velocity": 100,
        "subtype": "noteOn"
      },
      {
        "deltaTime": 120,
        "channel": 0,
        "type": "channel",
        "noteNumber": 72,
        "velocity": 0,
        "subtype": "noteOff"
      },
      {
        "deltaTime": 0,
        "channel": 0,
        "type": "channel",
        "noteNumber": 74,
        "velocity": 100,
        "subtype": "noteOn"
      },
      {
        "deltaTime": 120,
        "channel": 0,
        "type": "channel",
        "noteNumber": 74,
        "velocity": 0,
        "subtype": "noteOff"
      },
      {
        "deltaTime": 0,
        "channel": 0,
        "type": "channel",
        "noteNumber": 71,
        "velocity": 100,
        "subtype": "noteOn"
      },
      {
        "deltaTime": 120,
        "channel": 0,
        "type": "channel",
        "noteNumber": 71,
        "velocity": 0,
        "subtype": "noteOff"
      },
      {
        "deltaTime": 0,
        "channel": 0,
        "type": "channel",
        "noteNumber": 80,
        "velocity": 100,
        "subtype": "noteOn"
      },
      {
        "deltaTime": 120,
        "channel": 0,
        "type": "channel",
        "noteNumber": 80,
        "velocity": 0,
        "subtype": "noteOff"
      },
      {
        "deltaTime": 0,
        "channel": 0,
        "type": "channel",
        "noteNumber": 76,
        "velocity": 100,
        "subtype": "noteOn"
      },
      {
        "deltaTime": 120,
        "channel": 0,
        "type": "channel",
        "noteNumber": 76,
        "velocity": 0,
        "subtype": "noteOff"
      },
      {
        "deltaTime": 0,
        "channel": 0,
        "type": "channel",
        "noteNumber": 77,
        "velocity": 100,
        "subtype": "noteOn"
      },
      {
        "deltaTime": 120,
        "channel": 0,
        "type": "channel",
        "noteNumber": 77,
        "velocity": 0,
        "subtype": "noteOff"
      },
      {
        "deltaTime": 0,
        "channel": 0,
        "type": "channel",
        "noteNumber": 81,
        "velocity": 100,
        "subtype": "noteOn"
      },
      {
        "deltaTime": 120,
        "channel": 0,
        "type": "channel",
        "noteNumber": 81,
        "velocity": 0,
        "subtype": "noteOff"
      },
      {
        "deltaTime": 0,
        "channel": 0,
        "type": "channel",
        "noteNumber": 77,
        "velocity": 100,
        "subtype": "noteOn"
      },
      {
        "deltaTime": 120,
        "channel": 0,
        "type": "channel",
        "noteNumber": 77,
        "velocity": 0,
        "subtype": "noteOff"
      },
      {
        "deltaTime": 0,
        "channel": 0,
        "type": "channel",
        "noteNumber": 73,
        "velocity": 100,
        "subtype": "noteOn"
      },
      {
        "deltaTime": 120,
        "channel": 0,
        "type": "channel",
        "noteNumber": 73,
        "velocity": 0,
        "subtype": "noteOff"
      },
      {
        "deltaTime": 0,
        "channel": 0,
        "type": "channel",
        "noteNumber": 74,
        "velocity": 100,
        "subtype": "noteOn"
      },
      {
        "deltaTime": 120,
        "channel": 0,
        "type": "channel",
        "noteNumber": 74,
        "velocity": 0,
        "subtype": "noteOff"
      },
      {
        "deltaTime": 0,
        "channel": 0,
        "type": "channel",
        "noteNumber": 68,
        "velocity": 100,
        "subtype": "noteOn"
      },
      {
        "deltaTime": 120,
        "channel": 0,
        "type": "channel",
        "noteNumber": 68,
        "velocity": 0,
        "subtype": "noteOff"
      },
      {
        "deltaTime": 0,
        "channel": 0,
        "type": "channel",
        "noteNumber": 77,
        "velocity": 100,
        "subtype": "noteOn"
      },
      {
        "deltaTime": 120,
        "channel": 0,
        "type": "channel",
        "noteNumber": 77,
        "velocity": 0,
        "subtype": "noteOff"
      },
      {
        "deltaTime": 0,
        "channel": 0,
        "type": "channel",
        "noteNumber": 73,
        "velocity": 100,
        "subtype": "noteOn"
      },
      {
        "deltaTime": 120,
        "channel": 0,
        "type": "channel",
        "noteNumber": 73,
        "velocity": 0,
        "subtype": "noteOff"
      },
      {
        "deltaTime": 0,
        "channel": 0,
        "type": "channel",
        "noteNumber": 74,
        "velocity": 100,
        "subtype": "noteOn"
      },
      {
        "deltaTime": 120,
        "channel": 0,
        "type": "channel",
        "noteNumber": 74,
        "velocity": 0,
        "subtype": "noteOff"
      },
      {
        "deltaTime": 0,
        "channel": 0,
        "type": "channel",
        "noteNumber": 83,
        "velocity": 100,
        "subtype": "noteOn"
      },
      {
        "deltaTime": 120,
        "channel": 0,
        "type": "channel",
        "noteNumber": 83,
        "velocity": 0,
        "subtype": "noteOff"
      },
      {
        "deltaTime": 0,
        "channel": 0,
        "type": "channel",
        "noteNumber": 81,
        "velocity": 100,
        "subtype": "noteOn"
      },
      {
        "deltaTime": 120,
        "channel": 0,
        "type": "channel",
        "noteNumber": 81,
        "velocity": 0,
        "subtype": "noteOff"
      },
      {
        "deltaTime": 0,
        "channel": 0,
        "type": "channel",
        "noteNumber": 80,
        "velocity": 100,
        "subtype": "noteOn"
      },
      {
        "deltaTime": 120,
        "channel": 0,
        "type": "channel",
        "noteNumber": 80,
        "velocity": 0,
        "subtype": "noteOff"
      },
      {
        "deltaTime": 0,
        "channel": 0,
        "type": "channel",
        "noteNumber": 78,
        "velocity": 100,
        "subtype": "noteOn"
      },
      {
        "deltaTime": 120,
        "channel": 0,
        "type": "channel",
        "noteNumber": 78,
        "velocity": 0,
        "subtype": "noteOff"
      },
      {
        "deltaTime": 0,
        "channel": 0,
        "type": "channel",
        "noteNumber": 76,
        "velocity": 100,
        "subtype": "noteOn"
      },
      {
        "deltaTime": 120,
        "channel": 0,
        "type": "channel",
        "noteNumber": 76,
        "velocity": 0,
        "subtype": "noteOff"
      },
      {
        "deltaTime": 0,
        "channel": 0,
        "type": "channel",
        "noteNumber": 74,
        "velocity": 100,
        "subtype": "noteOn"
      },
      {
        "deltaTime": 120,
        "channel": 0,
        "type": "channel",
        "noteNumber": 74,
        "velocity": 0,
        "subtype": "noteOff"
      },
      {
        "deltaTime": 0,
        "channel": 0,
        "type": "channel",
        "noteNumber": 72,
        "velocity": 100,
        "subtype": "noteOn"
      },
      {
        "deltaTime": 120,
        "channel": 0,
        "type": "channel",
        "noteNumber": 72,
        "velocity": 0,
        "subtype": "noteOff"
      },
      {
        "deltaTime": 0,
        "channel": 0,
        "type": "channel",
        "noteNumber": 71,
        "velocity": 100,
        "subtype": "noteOn"
      },
      {
        "deltaTime": 120,
        "channel": 0,
        "type": "channel",
        "noteNumber": 71,
        "velocity": 0,
        "subtype": "noteOff"
      },
      {
        "deltaTime": 0,
        "channel": 0,
        "type": "channel",
        "noteNumber": 69,
        "velocity": 100,
        "subtype": "noteOn"
      },
      {
        "deltaTime": 120,
        "channel": 0,
        "type": "channel",
        "noteNumber": 69,
        "velocity": 0,
        "subtype": "noteOff"
      },
      {
        "deltaTime": 0,
        "channel": 0,
        "type": "channel",
        "noteNumber": 68,
        "velocity": 100,
        "subtype": "noteOn"
      },
      {
        "deltaTime": 120,
        "channel": 0,
        "type": "channel",
        "noteNumber": 68,
        "velocity": 0,
        "subtype": "noteOff"
      },
      {
        "deltaTime": 0,
        "channel": 0,
        "type": "channel",
        "noteNumber": 66,
        "velocity": 100,
        "subtype": "noteOn"
      },
      {
        "deltaTime": 120,
        "channel": 0,
        "type": "channel",
        "noteNumber": 66,
        "velocity": 0,
        "subtype": "noteOff"
      },
      {
        "deltaTime": 0,
        "channel": 0,
        "type": "channel",
        "noteNumber": 64,
        "velocity": 100,
        "subtype": "noteOn"
      },
      {
        "deltaTime": 120,
        "channel": 0,
        "type": "channel",
        "noteNumber": 64,
        "velocity": 0,
        "subtype": "noteOff"
      },
      {
        "deltaTime": 0,
        "channel": 0,
        "type": "channel",
        "noteNumber": 74,
        "velocity": 100,
        "subtype": "noteOn"
      },
      {
        "deltaTime": 120,
        "channel": 0,
        "type": "channel",
        "noteNumber": 74,
        "velocity": 0,
        "subtype": "noteOff"
      },
      {
        "deltaTime": 0,
        "channel": 0,
        "type": "channel",
        "noteNumber": 71,
        "velocity": 100,
        "subtype": "noteOn"
      },
      {
        "deltaTime": 120,
        "channel": 0,
        "type": "channel",
        "noteNumber": 71,
        "velocity": 0,
        "subtype": "noteOff"
      },
      {
        "deltaTime": 0,
        "channel": 0,
        "type": "channel",
        "noteNumber": 72,
        "velocity": 100,
        "subtype": "noteOn"
      },
      {
        "deltaTime": 120,
        "channel": 0,
        "type": "channel",
        "noteNumber": 72,
        "velocity": 0,
        "subtype": "noteOff"
      },
      {
        "deltaTime": 0,
        "channel": 0,
        "type": "channel",
        "noteNumber": 76,
        "velocity": 100,
        "subtype": "noteOn"
      },
      {
        "deltaTime": 120,
        "channel": 0,
        "type": "channel",
        "noteNumber": 76,
        "velocity": 0,
        "subtype": "noteOff"
      },
      {
        "deltaTime": 0,
        "channel": 0,
        "type": "channel",
        "noteNumber": 69,
        "velocity": 100,
        "subtype": "noteOn"
      },
      {
        "deltaTime": 120,
        "channel": 0,
        "type": "channel",
        "noteNumber": 69,
        "velocity": 0,
        "subtype": "noteOff"
      },
      {
        "deltaTime": 0,
        "channel": 0,
        "type": "channel",
        "noteNumber": 71,
        "velocity": 100,
        "subtype": "noteOn"
      },
      {
        "deltaTime": 120,
        "channel": 0,
        "type": "channel",
        "noteNumber": 71,
        "velocity": 0,
        "subtype": "noteOff"
      },
      {
        "deltaTime": 0,
        "channel": 0,
        "type": "channel",
        "noteNumber": 72,
        "velocity": 100,
        "subtype": "noteOn"
      },
      {
        "deltaTime": 120,
        "channel": 0,
        "type": "channel",
        "noteNumber": 72,
        "velocity": 0,
        "subtype": "noteOff"
      },
      {
        "deltaTime": 0,
        "channel": 0,
        "type": "channel",
        "noteNumber": 74,
        "velocity": 100,
        "subtype": "noteOn"
      },
      {
        "deltaTime": 120,
        "channel": 0,
        "type": "channel",
        "noteNumber": 74,
        "velocity": 0,
        "subtype": "noteOff"
      },
      {
        "deltaTime": 0,
        "channel": 0,
        "type": "channel",
        "noteNumber": 76,
        "velocity": 100,
        "subtype": "noteOn"
      },
      {
        "deltaTime": 120,
        "channel": 0,
        "type": "channel",
        "noteNumber": 76,
        "velocity": 0,
        "subtype": "noteOff"
      },
      {
        "deltaTime": 0,
        "channel": 0,
        "type": "channel",
        "noteNumber": 78,
        "velocity": 100,
        "subtype": "noteOn"
      },
      {
        "deltaTime": 120,
        "channel": 0,
        "type": "channel",
        "noteNumber": 78,
        "velocity": 0,
        "subtype": "noteOff"
      },
      {
        "deltaTime": 0,
        "channel": 0,
        "type": "channel",
        "noteNumber": 80,
        "velocity": 100,
        "subtype": "noteOn"
      },
      {
        "deltaTime": 120,
        "channel": 0,
        "type": "channel",
        "noteNumber": 80,
        "velocity": 0,
        "subtype": "noteOff"
      },
      {
        "deltaTime": 0,
        "channel": 0,
        "type": "channel",
        "noteNumber": 81,
        "velocity": 100,
        "subtype": "noteOn"
      },
      {
        "deltaTime": 120,
        "channel": 0,
        "type": "channel",
        "noteNumber": 81,
        "velocity": 0,
        "subtype": "noteOff"
      },
      {
        "deltaTime": 0,
        "channel": 0,
        "type": "channel",
        "noteNumber": 83,
        "velocity": 100,
        "subtype": "noteOn"
      },
      {
        "deltaTime": 120,
        "channel": 0,
        "type": "channel",
        "noteNumber": 83,
        "velocity": 0,
        "subtype": "noteOff"
      },
      {
        "deltaTime": 0,
        "channel": 0,
        "type": "channel",
        "noteNumber": 80,
        "velocity": 100,
        "subtype": "noteOn"
      },
      {
        "deltaTime": 120,
        "channel": 0,
        "type": "channel",
        "noteNumber": 80,
        "velocity": 0,
        "subtype": "noteOff"
      },
      {
        "deltaTime": 0,
        "channel": 0,
        "type": "channel",
        "noteNumber": 81,
        "velocity": 100,
        "subtype": "noteOn"
      },
      {
        "deltaTime": 120,
        "channel": 0,
        "type": "channel",
        "noteNumber": 81,
        "velocity": 0,
        "subtype": "noteOff"
      },
      {
        "deltaTime": 0,
        "channel": 0,
        "type": "channel",
        "noteNumber": 84,
        "velocity": 100,
        "subtype": "noteOn"
      },
      {
        "deltaTime": 120,
        "channel": 0,
        "type": "channel",
        "noteNumber": 84,
        "velocity": 0,
        "subtype": "noteOff"
      },
      {
        "deltaTime": 0,
        "channel": 0,
        "type": "channel",
        "noteNumber": 75,
        "velocity": 100,
        "subtype": "noteOn"
      },
      {
        "deltaTime": 120,
        "channel": 0,
        "type": "channel",
        "noteNumber": 75,
        "velocity": 0,
        "subtype": "noteOff"
      },
      {
        "deltaTime": 0,
        "channel": 0,
        "type": "channel",
        "noteNumber": 78,
        "velocity": 100,
        "subtype": "noteOn"
      },
      {
        "deltaTime": 120,
        "channel": 0,
        "type": "channel",
        "noteNumber": 78,
        "velocity": 0,
        "subtype": "noteOff"
      },
      {
        "deltaTime": 0,
        "channel": 0,
        "type": "channel",
        "noteNumber": 84,
        "velocity": 100,
        "subtype": "noteOn"
      },
      {
        "deltaTime": 120,
        "channel": 0,
        "type": "channel",
        "noteNumber": 84,
        "velocity": 0,
        "subtype": "noteOff"
      },
      {
        "deltaTime": 0,
        "channel": 0,
        "type": "channel",
        "noteNumber": 83,
        "velocity": 100,
        "subtype": "noteOn"
      },
      {
        "deltaTime": 120,
        "channel": 0,
        "type": "channel",
        "noteNumber": 83,
        "velocity": 0,
        "subtype": "noteOff"
      },
      {
        "deltaTime": 0,
        "channel": 0,
        "type": "channel",
        "noteNumber": 76,
        "velocity": 100,
        "subtype": "noteOn"
      },
      {
        "deltaTime": 120,
        "channel": 0,
        "type": "channel",
        "noteNumber": 76,
        "velocity": 0,
        "subtype": "noteOff"
      },
      {
        "deltaTime": 0,
        "channel": 0,
        "type": "channel",
        "noteNumber": 80,
        "velocity": 100,
        "subtype": "noteOn"
      },
      {
        "deltaTime": 120,
        "channel": 0,
        "type": "channel",
        "noteNumber": 80,
        "velocity": 0,
        "subtype": "noteOff"
      },
      {
        "deltaTime": 0,
        "channel": 0,
        "type": "channel",
        "noteNumber": 84,
        "velocity": 100,
        "subtype": "noteOn"
      },
      {
        "deltaTime": 120,
        "channel": 0,
        "type": "channel",
        "noteNumber": 84,
        "velocity": 0,
        "subtype": "noteOff"
      },
      {
        "deltaTime": 0,
        "channel": 0,
        "type": "channel",
        "noteNumber": 83,
        "velocity": 100,
        "subtype": "noteOn"
      },
      {
        "deltaTime": 120,
        "channel": 0,
        "type": "channel",
        "noteNumber": 83,
        "velocity": 0,
        "subtype": "noteOff"
      },
      {
        "deltaTime": 0,
        "channel": 0,
        "type": "channel",
        "noteNumber": 78,
        "velocity": 100,
        "subtype": "noteOn"
      },
      {
        "deltaTime": 120,
        "channel": 0,
        "type": "channel",
        "noteNumber": 78,
        "velocity": 0,
        "subtype": "noteOff"
      },
      {
        "deltaTime": 0,
        "channel": 0,
        "type": "channel",
        "noteNumber": 81,
        "velocity": 100,
        "subtype": "noteOn"
      },
      {
        "deltaTime": 120,
        "channel": 0,
        "type": "channel",
        "noteNumber": 81,
        "velocity": 0,
        "subtype": "noteOff"
      },
      {
        "deltaTime": 0,
        "channel": 0,
        "type": "channel",
        "noteNumber": 84,
        "velocity": 100,
        "subtype": "noteOn"
      },
      {
        "deltaTime": 120,
        "channel": 0,
        "type": "channel",
        "noteNumber": 84,
        "velocity": 0,
        "subtype": "noteOff"
      },
      {
        "deltaTime": 0,
        "channel": 0,
        "type": "channel",
        "noteNumber": 83,
        "velocity": 100,
        "subtype": "noteOn"
      },
      {
        "deltaTime": 120,
        "channel": 0,
        "type": "channel",
        "noteNumber": 83,
        "velocity": 0,
        "subtype": "noteOff"
      },
      {
        "deltaTime": 0,
        "channel": 0,
        "type": "channel",
        "noteNumber": 71,
        "velocity": 100,
        "subtype": "noteOn"
      },
      {
        "deltaTime": 120,
        "channel": 0,
        "type": "channel",
        "noteNumber": 71,
        "velocity": 0,
        "subtype": "noteOff"
      },
      {
        "deltaTime": 0,
        "channel": 0,
        "type": "channel",
        "noteNumber": 84,
        "velocity": 100,
        "subtype": "noteOn"
      },
      {
        "deltaTime": 120,
        "channel": 0,
        "type": "channel",
        "noteNumber": 84,
        "velocity": 0,
        "subtype": "noteOff"
      },
      {
        "deltaTime": 0,
        "channel": 0,
        "type": "channel",
        "noteNumber": 83,
        "velocity": 100,
        "subtype": "noteOn"
      },
      {
        "deltaTime": 120,
        "channel": 0,
        "type": "channel",
        "noteNumber": 83,
        "velocity": 0,
        "subtype": "noteOff"
      },
      {
        "deltaTime": 0,
        "channel": 0,
        "type": "channel",
        "noteNumber": 81,
        "velocity": 100,
        "subtype": "noteOn"
      },
      {
        "deltaTime": 120,
        "channel": 0,
        "type": "channel",
        "noteNumber": 81,
        "velocity": 0,
        "subtype": "noteOff"
      },
      {
        "deltaTime": 0,
        "channel": 0,
        "type": "channel",
        "noteNumber": 80,
        "velocity": 100,
        "subtype": "noteOn"
      },
      {
        "deltaTime": 120,
        "channel": 0,
        "type": "channel",
        "noteNumber": 80,
        "velocity": 0,
        "subtype": "noteOff"
      },
      {
        "deltaTime": 0,
        "channel": 0,
        "type": "channel",
        "noteNumber": 76,
        "velocity": 100,
        "subtype": "noteOn"
      },
      {
        "deltaTime": 120,
        "channel": 0,
        "type": "channel",
        "noteNumber": 76,
        "velocity": 0,
        "subtype": "noteOff"
      },
      {
        "deltaTime": 0,
        "channel": 0,
        "type": "channel",
        "noteNumber": 77,
        "velocity": 100,
        "subtype": "noteOn"
      },
      {
        "deltaTime": 120,
        "channel": 0,
        "type": "channel",
        "noteNumber": 77,
        "velocity": 0,
        "subtype": "noteOff"
      },
      {
        "deltaTime": 0,
        "channel": 0,
        "type": "channel",
        "noteNumber": 76,
        "velocity": 100,
        "subtype": "noteOn"
      },
      {
        "deltaTime": 120,
        "channel": 0,
        "type": "channel",
        "noteNumber": 76,
        "velocity": 0,
        "subtype": "noteOff"
      },
      {
        "deltaTime": 0,
        "channel": 0,
        "type": "channel",
        "noteNumber": 81,
        "velocity": 100,
        "subtype": "noteOn"
      },
      {
        "deltaTime": 120,
        "channel": 0,
        "type": "channel",
        "noteNumber": 81,
        "velocity": 0,
        "subtype": "noteOff"
      },
      {
        "deltaTime": 0,
        "channel": 0,
        "type": "channel",
        "noteNumber": 76,
        "velocity": 100,
        "subtype": "noteOn"
      },
      {
        "deltaTime": 120,
        "channel": 0,
        "type": "channel",
        "noteNumber": 76,
        "velocity": 0,
        "subtype": "noteOff"
      },
      {
        "deltaTime": 0,
        "channel": 0,
        "type": "channel",
        "noteNumber": 77,
        "velocity": 100,
        "subtype": "noteOn"
      },
      {
        "deltaTime": 120,
        "channel": 0,
        "type": "channel",
        "noteNumber": 77,
        "velocity": 0,
        "subtype": "noteOff"
      },
      {
        "deltaTime": 0,
        "channel": 0,
        "type": "channel",
        "noteNumber": 76,
        "velocity": 100,
        "subtype": "noteOn"
      },
      {
        "deltaTime": 120,
        "channel": 0,
        "type": "channel",
        "noteNumber": 76,
        "velocity": 0,
        "subtype": "noteOff"
      },
      {
        "deltaTime": 0,
        "channel": 0,
        "type": "channel",
        "noteNumber": 83,
        "velocity": 100,
        "subtype": "noteOn"
      },
      {
        "deltaTime": 120,
        "channel": 0,
        "type": "channel",
        "noteNumber": 83,
        "velocity": 0,
        "subtype": "noteOff"
      },
      {
        "deltaTime": 0,
        "channel": 0,
        "type": "channel",
        "noteNumber": 76,
        "velocity": 100,
        "subtype": "noteOn"
      },
      {
        "deltaTime": 120,
        "channel": 0,
        "type": "channel",
        "noteNumber": 76,
        "velocity": 0,
        "subtype": "noteOff"
      },
      {
        "deltaTime": 0,
        "channel": 0,
        "type": "channel",
        "noteNumber": 77,
        "velocity": 100,
        "subtype": "noteOn"
      },
      {
        "deltaTime": 120,
        "channel": 0,
        "type": "channel",
        "noteNumber": 77,
        "velocity": 0,
        "subtype": "noteOff"
      },
      {
        "deltaTime": 0,
        "channel": 0,
        "type": "channel",
        "noteNumber": 76,
        "velocity": 100,
        "subtype": "noteOn"
      },
      {
        "deltaTime": 120,
        "channel": 0,
        "type": "channel",
        "noteNumber": 76,
        "velocity": 0,
        "subtype": "noteOff"
      },
      {
        "deltaTime": 0,
        "channel": 0,
        "type": "channel",
        "noteNumber": 74,
        "velocity": 100,
        "subtype": "noteOn"
      },
      {
        "deltaTime": 120,
        "channel": 0,
        "type": "channel",
        "noteNumber": 74,
        "velocity": 0,
        "subtype": "noteOff"
      },
      {
        "deltaTime": 0,
        "channel": 0,
        "type": "channel",
        "noteNumber": 77,
        "velocity": 100,
        "subtype": "noteOn"
      },
      {
        "deltaTime": 120,
        "channel": 0,
        "type": "channel",
        "noteNumber": 77,
        "velocity": 0,
        "subtype": "noteOff"
      },
      {
        "deltaTime": 0,
        "channel": 0,
        "type": "channel",
        "noteNumber": 76,
        "velocity": 100,
        "subtype": "noteOn"
      },
      {
        "deltaTime": 120,
        "channel": 0,
        "type": "channel",
        "noteNumber": 76,
        "velocity": 0,
        "subtype": "noteOff"
      },
      {
        "deltaTime": 0,
        "channel": 0,
        "type": "channel",
        "noteNumber": 74,
        "velocity": 100,
        "subtype": "noteOn"
      },
      {
        "deltaTime": 120,
        "channel": 0,
        "type": "channel",
        "noteNumber": 74,
        "velocity": 0,
        "subtype": "noteOff"
      },
      {
        "deltaTime": 0,
        "channel": 0,
        "type": "channel",
        "noteNumber": 72,
        "velocity": 100,
        "subtype": "noteOn"
      },
      {
        "deltaTime": 120,
        "channel": 0,
        "type": "channel",
        "noteNumber": 72,
        "velocity": 0,
        "subtype": "noteOff"
      },
      {
        "deltaTime": 0,
        "channel": 0,
        "type": "channel",
        "noteNumber": 69,
        "velocity": 100,
        "subtype": "noteOn"
      },
      {
        "deltaTime": 120,
        "channel": 0,
        "type": "channel",
        "noteNumber": 69,
        "velocity": 0,
        "subtype": "noteOff"
      },
      {
        "deltaTime": 0,
        "channel": 0,
        "type": "channel",
        "noteNumber": 72,
        "velocity": 100,
        "subtype": "noteOn"
      },
      {
        "deltaTime": 120,
        "channel": 0,
        "type": "channel",
        "noteNumber": 72,
        "velocity": 0,
        "subtype": "noteOff"
      },
      {
        "deltaTime": 0,
        "channel": 0,
        "type": "channel",
        "noteNumber": 76,
        "velocity": 100,
        "subtype": "noteOn"
      },
      {
        "deltaTime": 120,
        "channel": 0,
        "type": "channel",
        "noteNumber": 76,
        "velocity": 0,
        "subtype": "noteOff"
      },
      {
        "deltaTime": 0,
        "channel": 0,
        "type": "channel",
        "noteNumber": 81,
        "velocity": 100,
        "subtype": "noteOn"
      },
      {
        "deltaTime": 120,
        "channel": 0,
        "type": "channel",
        "noteNumber": 81,
        "velocity": 0,
        "subtype": "noteOff"
      },
      {
        "deltaTime": 0,
        "channel": 0,
        "type": "channel",
        "noteNumber": 79,
        "velocity": 100,
        "subtype": "noteOn"
      },
      {
        "deltaTime": 120,
        "channel": 0,
        "type": "channel",
        "noteNumber": 79,
        "velocity": 0,
        "subtype": "noteOff"
      },
      {
        "deltaTime": 0,
        "channel": 0,
        "type": "channel",
        "noteNumber": 77,
        "velocity": 100,
        "subtype": "noteOn"
      },
      {
        "deltaTime": 120,
        "channel": 0,
        "type": "channel",
        "noteNumber": 77,
        "velocity": 0,
        "subtype": "noteOff"
      },
      {
        "deltaTime": 0,
        "channel": 0,
        "type": "channel",
        "noteNumber": 76,
        "velocity": 100,
        "subtype": "noteOn"
      },
      {
        "deltaTime": 120,
        "channel": 0,
        "type": "channel",
        "noteNumber": 76,
        "velocity": 0,
        "subtype": "noteOff"
      },
      {
        "deltaTime": 0,
        "channel": 0,
        "type": "channel",
        "noteNumber": 77,
        "velocity": 100,
        "subtype": "noteOn"
      },
      {
        "deltaTime": 120,
        "channel": 0,
        "type": "channel",
        "noteNumber": 77,
        "velocity": 0,
        "subtype": "noteOff"
      },
      {
        "deltaTime": 0,
        "channel": 0,
        "type": "channel",
        "noteNumber": 81,
        "velocity": 100,
        "subtype": "noteOn"
      },
      {
        "deltaTime": 120,
        "channel": 0,
        "type": "channel",
        "noteNumber": 81,
        "velocity": 0,
        "subtype": "noteOff"
      },
      {
        "deltaTime": 0,
        "channel": 0,
        "type": "channel",
        "noteNumber": 77,
        "velocity": 100,
        "subtype": "noteOn"
      },
      {
        "deltaTime": 120,
        "channel": 0,
        "type": "channel",
        "noteNumber": 77,
        "velocity": 0,
        "subtype": "noteOff"
      },
      {
        "deltaTime": 0,
        "channel": 0,
        "type": "channel",
        "noteNumber": 74,
        "velocity": 100,
        "subtype": "noteOn"
      },
      {
        "deltaTime": 120,
        "channel": 0,
        "type": "channel",
        "noteNumber": 74,
        "velocity": 0,
        "subtype": "noteOff"
      },
      {
        "deltaTime": 0,
        "channel": 0,
        "type": "channel",
        "noteNumber": 86,
        "velocity": 100,
        "subtype": "noteOn"
      },
      {
        "deltaTime": 120,
        "channel": 0,
        "type": "channel",
        "noteNumber": 86,
        "velocity": 0,
        "subtype": "noteOff"
      },
      {
        "deltaTime": 0,
        "channel": 0,
        "type": "channel",
        "noteNumber": 84,
        "velocity": 100,
        "subtype": "noteOn"
      },
      {
        "deltaTime": 120,
        "channel": 0,
        "type": "channel",
        "noteNumber": 84,
        "velocity": 0,
        "subtype": "noteOff"
      },
      {
        "deltaTime": 0,
        "channel": 0,
        "type": "channel",
        "noteNumber": 83,
        "velocity": 100,
        "subtype": "noteOn"
      },
      {
        "deltaTime": 120,
        "channel": 0,
        "type": "channel",
        "noteNumber": 83,
        "velocity": 0,
        "subtype": "noteOff"
      },
      {
        "deltaTime": 0,
        "channel": 0,
        "type": "channel",
        "noteNumber": 81,
        "velocity": 100,
        "subtype": "noteOn"
      },
      {
        "deltaTime": 120,
        "channel": 0,
        "type": "channel",
        "noteNumber": 81,
        "velocity": 0,
        "subtype": "noteOff"
      },
      {
        "deltaTime": 0,
        "channel": 0,
        "type": "channel",
        "noteNumber": 80,
        "velocity": 100,
        "subtype": "noteOn"
      },
      {
        "deltaTime": 120,
        "channel": 0,
        "type": "channel",
        "noteNumber": 80,
        "velocity": 0,
        "subtype": "noteOff"
      },
      {
        "deltaTime": 0,
        "channel": 0,
        "type": "channel",
        "noteNumber": 88,
        "velocity": 100,
        "subtype": "noteOn"
      },
      {
        "deltaTime": 120,
        "channel": 0,
        "type": "channel",
        "noteNumber": 88,
        "velocity": 0,
        "subtype": "noteOff"
      },
      {
        "deltaTime": 0,
        "channel": 0,
        "type": "channel",
        "noteNumber": 85,
        "velocity": 100,
        "subtype": "noteOn"
      },
      {
        "deltaTime": 120,
        "channel": 0,
        "type": "channel",
        "noteNumber": 85,
        "velocity": 0,
        "subtype": "noteOff"
      },
      {
        "deltaTime": 0,
        "channel": 0,
        "type": "channel",
        "noteNumber": 79,
        "velocity": 100,
        "subtype": "noteOn"
      },
      {
        "deltaTime": 120,
        "channel": 0,
        "type": "channel",
        "noteNumber": 79,
        "velocity": 0,
        "subtype": "noteOff"
      },
      {
        "deltaTime": 0,
        "channel": 0,
        "type": "channel",
        "noteNumber": 78,
        "velocity": 100,
        "subtype": "noteOn"
      },
      {
        "deltaTime": 120,
        "channel": 0,
        "type": "channel",
        "noteNumber": 78,
        "velocity": 0,
        "subtype": "noteOff"
      },
      {
        "deltaTime": 0,
        "channel": 0,
        "type": "channel",
        "noteNumber": 86,
        "velocity": 100,
        "subtype": "noteOn"
      },
      {
        "deltaTime": 120,
        "channel": 0,
        "type": "channel",
        "noteNumber": 86,
        "velocity": 0,
        "subtype": "noteOff"
      },
      {
        "deltaTime": 0,
        "channel": 0,
        "type": "channel",
        "noteNumber": 83,
        "velocity": 100,
        "subtype": "noteOn"
      },
      {
        "deltaTime": 120,
        "channel": 0,
        "type": "channel",
        "noteNumber": 83,
        "velocity": 0,
        "subtype": "noteOff"
      },
      {
        "deltaTime": 0,
        "channel": 0,
        "type": "channel",
        "noteNumber": 78,
        "velocity": 100,
        "subtype": "noteOn"
      },
      {
        "deltaTime": 120,
        "channel": 0,
        "type": "channel",
        "noteNumber": 78,
        "velocity": 0,
        "subtype": "noteOff"
      },
      {
        "deltaTime": 0,
        "channel": 0,
        "type": "channel",
        "noteNumber": 76,
        "velocity": 100,
        "subtype": "noteOn"
      },
      {
        "deltaTime": 120,
        "channel": 0,
        "type": "channel",
        "noteNumber": 76,
        "velocity": 0,
        "subtype": "noteOff"
      },
      {
        "deltaTime": 0,
        "channel": 0,
        "type": "channel",
        "noteNumber": 84,
        "velocity": 100,
        "subtype": "noteOn"
      },
      {
        "deltaTime": 120,
        "channel": 0,
        "type": "channel",
        "noteNumber": 84,
        "velocity": 0,
        "subtype": "noteOff"
      },
      {
        "deltaTime": 0,
        "channel": 0,
        "type": "channel",
        "noteNumber": 81,
        "velocity": 100,
        "subtype": "noteOn"
      },
      {
        "deltaTime": 120,
        "channel": 0,
        "type": "channel",
        "noteNumber": 81,
        "velocity": 0,
        "subtype": "noteOff"
      },
      {
        "deltaTime": 0,
        "channel": 0,
        "type": "channel",
        "noteNumber": 75,
        "velocity": 100,
        "subtype": "noteOn"
      },
      {
        "deltaTime": 120,
        "channel": 0,
        "type": "channel",
        "noteNumber": 75,
        "velocity": 0,
        "subtype": "noteOff"
      },
      {
        "deltaTime": 0,
        "channel": 0,
        "type": "channel",
        "noteNumber": 74,
        "velocity": 100,
        "subtype": "noteOn"
      },
      {
        "deltaTime": 120,
        "channel": 0,
        "type": "channel",
        "noteNumber": 74,
        "velocity": 0,
        "subtype": "noteOff"
      },
      {
        "deltaTime": 0,
        "channel": 0,
        "type": "channel",
        "noteNumber": 82,
        "velocity": 100,
        "subtype": "noteOn"
      },
      {
        "deltaTime": 120,
        "channel": 0,
        "type": "channel",
        "noteNumber": 82,
        "velocity": 0,
        "subtype": "noteOff"
      },
      {
        "deltaTime": 0,
        "channel": 0,
        "type": "channel",
        "noteNumber": 80,
        "velocity": 100,
        "subtype": "noteOn"
      },
      {
        "deltaTime": 120,
        "channel": 0,
        "type": "channel",
        "noteNumber": 80,
        "velocity": 0,
        "subtype": "noteOff"
      },
      {
        "deltaTime": 0,
        "channel": 0,
        "type": "channel",
        "noteNumber": 74,
        "velocity": 100,
        "subtype": "noteOn"
      },
      {
        "deltaTime": 120,
        "channel": 0,
        "type": "channel",
        "noteNumber": 74,
        "velocity": 0,
        "subtype": "noteOff"
      },
      {
        "deltaTime": 0,
        "channel": 0,
        "type": "channel",
        "noteNumber": 72,
        "velocity": 100,
        "subtype": "noteOn"
      },
      {
        "deltaTime": 120,
        "channel": 0,
        "type": "channel",
        "noteNumber": 72,
        "velocity": 0,
        "subtype": "noteOff"
      },
      {
        "deltaTime": 0,
        "channel": 0,
        "type": "channel",
        "noteNumber": 81,
        "velocity": 100,
        "subtype": "noteOn"
      },
      {
        "deltaTime": 120,
        "channel": 0,
        "type": "channel",
        "noteNumber": 81,
        "velocity": 0,
        "subtype": "noteOff"
      },
      {
        "deltaTime": 0,
        "channel": 0,
        "type": "channel",
        "noteNumber": 77,
        "velocity": 100,
        "subtype": "noteOn"
      },
      {
        "deltaTime": 120,
        "channel": 0,
        "type": "channel",
        "noteNumber": 77,
        "velocity": 0,
        "subtype": "noteOff"
      },
      {
        "deltaTime": 0,
        "channel": 0,
        "type": "channel",
        "noteNumber": 74,
        "velocity": 100,
        "subtype": "noteOn"
      },
      {
        "deltaTime": 120,
        "channel": 0,
        "type": "channel",
        "noteNumber": 74,
        "velocity": 0,
        "subtype": "noteOff"
      },
      {
        "deltaTime": 0,
        "channel": 0,
        "type": "channel",
        "noteNumber": 71,
        "velocity": 100,
        "subtype": "noteOn"
      },
      {
        "deltaTime": 120,
        "channel": 0,
        "type": "channel",
        "noteNumber": 71,
        "velocity": 0,
        "subtype": "noteOff"
      },
      {
        "deltaTime": 0,
        "channel": 0,
        "type": "channel",
        "noteNumber": 77,
        "velocity": 100,
        "subtype": "noteOn"
      },
      {
        "deltaTime": 120,
        "channel": 0,
        "type": "channel",
        "noteNumber": 77,
        "velocity": 0,
        "subtype": "noteOff"
      },
      {
        "deltaTime": 0,
        "channel": 0,
        "type": "channel",
        "noteNumber": 74,
        "velocity": 100,
        "subtype": "noteOn"
      },
      {
        "deltaTime": 120,
        "channel": 0,
        "type": "channel",
        "noteNumber": 74,
        "velocity": 0,
        "subtype": "noteOff"
      },
      {
        "deltaTime": 0,
        "channel": 0,
        "type": "channel",
        "noteNumber": 71,
        "velocity": 100,
        "subtype": "noteOn"
      },
      {
        "deltaTime": 120,
        "channel": 0,
        "type": "channel",
        "noteNumber": 71,
        "velocity": 0,
        "subtype": "noteOff"
      },
      {
        "deltaTime": 0,
        "channel": 0,
        "type": "channel",
        "noteNumber": 68,
        "velocity": 100,
        "subtype": "noteOn"
      },
      {
        "deltaTime": 120,
        "channel": 0,
        "type": "channel",
        "noteNumber": 68,
        "velocity": 0,
        "subtype": "noteOff"
      },
      {
        "deltaTime": 0,
        "channel": 0,
        "type": "channel",
        "noteNumber": 71,
        "velocity": 100,
        "subtype": "noteOn"
      },
      {
        "deltaTime": 120,
        "channel": 0,
        "type": "channel",
        "noteNumber": 71,
        "velocity": 0,
        "subtype": "noteOff"
      },
      {
        "deltaTime": 0,
        "channel": 0,
        "type": "channel",
        "noteNumber": 74,
        "velocity": 100,
        "subtype": "noteOn"
      },
      {
        "deltaTime": 120,
        "channel": 0,
        "type": "channel",
        "noteNumber": 74,
        "velocity": 0,
        "subtype": "noteOff"
      },
      {
        "deltaTime": 0,
        "channel": 0,
        "type": "channel",
        "noteNumber": 77,
        "velocity": 100,
        "subtype": "noteOn"
      },
      {
        "deltaTime": 120,
        "channel": 0,
        "type": "channel",
        "noteNumber": 77,
        "velocity": 0,
        "subtype": "noteOff"
      },
      {
        "deltaTime": 0,
        "channel": 0,
        "type": "channel",
        "noteNumber": 76,
        "velocity": 100,
        "subtype": "noteOn"
      },
      {
        "deltaTime": 120,
        "channel": 0,
        "type": "channel",
        "noteNumber": 76,
        "velocity": 0,
        "subtype": "noteOff"
      },
      {
        "deltaTime": 0,
        "channel": 0,
        "type": "channel",
        "noteNumber": 74,
        "velocity": 100,
        "subtype": "noteOn"
      },
      {
        "deltaTime": 120,
        "channel": 0,
        "type": "channel",
        "noteNumber": 74,
        "velocity": 0,
        "subtype": "noteOff"
      },
      {
        "deltaTime": 0,
        "channel": 0,
        "type": "channel",
        "noteNumber": 72,
        "velocity": 100,
        "subtype": "noteOn"
      },
      {
        "deltaTime": 120,
        "channel": 0,
        "type": "channel",
        "noteNumber": 72,
        "velocity": 0,
        "subtype": "noteOff"
      },
      {
        "deltaTime": 0,
        "channel": 0,
        "type": "channel",
        "noteNumber": 71,
        "velocity": 100,
        "subtype": "noteOn"
      },
      {
        "deltaTime": 120,
        "channel": 0,
        "type": "channel",
        "noteNumber": 71,
        "velocity": 0,
        "subtype": "noteOff"
      },
      {
        "deltaTime": 0,
        "channel": 0,
        "type": "channel",
        "noteNumber": 72,
        "velocity": 100,
        "subtype": "noteOn"
      },
      {
        "deltaTime": 120,
        "channel": 0,
        "type": "channel",
        "noteNumber": 72,
        "velocity": 0,
        "subtype": "noteOff"
      },
      {
        "deltaTime": 0,
        "channel": 0,
        "type": "channel",
        "noteNumber": 76,
        "velocity": 100,
        "subtype": "noteOn"
      },
      {
        "deltaTime": 120,
        "channel": 0,
        "type": "channel",
        "noteNumber": 76,
        "velocity": 0,
        "subtype": "noteOff"
      },
      {
        "deltaTime": 0,
        "channel": 0,
        "type": "channel",
        "noteNumber": 81,
        "velocity": 100,
        "subtype": "noteOn"
      },
      {
        "deltaTime": 120,
        "channel": 0,
        "type": "channel",
        "noteNumber": 81,
        "velocity": 0,
        "subtype": "noteOff"
      },
      {
        "deltaTime": 0,
        "channel": 0,
        "type": "channel",
        "noteNumber": 84,
        "velocity": 100,
        "subtype": "noteOn"
      },
      {
        "deltaTime": 120,
        "channel": 0,
        "type": "channel",
        "noteNumber": 84,
        "velocity": 0,
        "subtype": "noteOff"
      },
      {
        "deltaTime": 0,
        "channel": 0,
        "type": "channel",
        "noteNumber": 83,
        "velocity": 100,
        "subtype": "noteOn"
      },
      {
        "deltaTime": 120,
        "channel": 0,
        "type": "channel",
        "noteNumber": 83,
        "velocity": 0,
        "subtype": "noteOff"
      },
      {
        "deltaTime": 0,
        "channel": 0,
        "type": "channel",
        "noteNumber": 81,
        "velocity": 100,
        "subtype": "noteOn"
      },
      {
        "deltaTime": 120,
        "channel": 0,
        "type": "channel",
        "noteNumber": 81,
        "velocity": 0,
        "subtype": "noteOff"
      },
      {
        "deltaTime": 0,
        "channel": 0,
        "type": "channel",
        "noteNumber": 76,
        "velocity": 100,
        "subtype": "noteOn"
      },
      {
        "deltaTime": 120,
        "channel": 0,
        "type": "channel",
        "noteNumber": 76,
        "velocity": 0,
        "subtype": "noteOff"
      },
      {
        "deltaTime": 0,
        "channel": 0,
        "type": "channel",
        "noteNumber": 80,
        "velocity": 100,
        "subtype": "noteOn"
      },
      {
        "deltaTime": 120,
        "channel": 0,
        "type": "channel",
        "noteNumber": 80,
        "velocity": 0,
        "subtype": "noteOff"
      },
      {
        "deltaTime": 0,
        "channel": 0,
        "type": "channel",
        "noteNumber": 81,
        "velocity": 100,
        "subtype": "noteOn"
      },
      {
        "deltaTime": 120,
        "channel": 0,
        "type": "channel",
        "noteNumber": 81,
        "velocity": 0,
        "subtype": "noteOff"
      },
      {
        "deltaTime": 0,
        "channel": 0,
        "type": "channel",
        "noteNumber": 69,
        "velocity": 100,
        "subtype": "noteOn"
      },
      {
        "deltaTime": 120,
        "channel": 0,
        "type": "channel",
        "noteNumber": 69,
        "velocity": 0,
        "subtype": "noteOff"
      },
      {
        "deltaTime": 0,
        "channel": 0,
        "type": "channel",
        "noteNumber": 67,
        "velocity": 100,
        "subtype": "noteOn"
      },
      {
        "deltaTime": 120,
        "channel": 0,
        "type": "channel",
        "noteNumber": 67,
        "velocity": 0,
        "subtype": "noteOff"
      },
      {
        "deltaTime": 0,
        "channel": 0,
        "type": "channel",
        "noteNumber": 64,
        "velocity": 100,
        "subtype": "noteOn"
      },
      {
        "deltaTime": 120,
        "channel": 0,
        "type": "channel",
        "noteNumber": 64,
        "velocity": 0,
        "subtype": "noteOff"
      },
      {
        "deltaTime": 0,
        "channel": 0,
        "type": "channel",
        "noteNumber": 65,
        "velocity": 100,
        "subtype": "noteOn"
      },
      {
        "deltaTime": 120,
        "channel": 0,
        "type": "channel",
        "noteNumber": 65,
        "velocity": 0,
        "subtype": "noteOff"
      },
      {
        "deltaTime": 0,
        "channel": 0,
        "type": "channel",
        "noteNumber": 81,
        "velocity": 100,
        "subtype": "noteOn"
      },
      {
        "deltaTime": 120,
        "channel": 0,
        "type": "channel",
        "noteNumber": 81,
        "velocity": 0,
        "subtype": "noteOff"
      },
      {
        "deltaTime": 0,
        "channel": 0,
        "type": "channel",
        "noteNumber": 64,
        "velocity": 100,
        "subtype": "noteOn"
      },
      {
        "deltaTime": 120,
        "channel": 0,
        "type": "channel",
        "noteNumber": 64,
        "velocity": 0,
        "subtype": "noteOff"
      },
      {
        "deltaTime": 0,
        "channel": 0,
        "type": "channel",
        "noteNumber": 79,
        "velocity": 100,
        "subtype": "noteOn"
      },
      {
        "deltaTime": 120,
        "channel": 0,
        "type": "channel",
        "noteNumber": 79,
        "velocity": 0,
        "subtype": "noteOff"
      },
      {
        "deltaTime": 0,
        "channel": 0,
        "type": "channel",
        "noteNumber": 62,
        "velocity": 100,
        "subtype": "noteOn"
      },
      {
        "deltaTime": 120,
        "channel": 0,
        "type": "channel",
        "noteNumber": 62,
        "velocity": 0,
        "subtype": "noteOff"
      },
      {
        "deltaTime": 0,
        "channel": 0,
        "type": "channel",
        "noteNumber": 77,
        "velocity": 100,
        "subtype": "noteOn"
      },
      {
        "deltaTime": 120,
        "channel": 0,
        "type": "channel",
        "noteNumber": 77,
        "velocity": 0,
        "subtype": "noteOff"
      },
      {
        "deltaTime": 0,
        "channel": 0,
        "type": "channel",
        "noteNumber": 76,
        "velocity": 100,
        "subtype": "noteOn"
      },
      {
        "deltaTime": 120,
        "channel": 0,
        "type": "channel",
        "noteNumber": 76,
        "velocity": 0,
        "subtype": "noteOff"
      },
      {
        "deltaTime": 0,
        "channel": 0,
        "type": "channel",
        "noteNumber": 73,
        "velocity": 100,
        "subtype": "noteOn"
      },
      {
        "deltaTime": 120,
        "channel": 0,
        "type": "channel",
        "noteNumber": 73,
        "velocity": 0,
        "subtype": "noteOff"
      },
      {
        "deltaTime": 0,
        "channel": 0,
        "type": "channel",
        "noteNumber": 74,
        "velocity": 100,
        "subtype": "noteOn"
      },
      {
        "deltaTime": 120,
        "channel": 0,
        "type": "channel",
        "noteNumber": 74,
        "velocity": 0,
        "subtype": "noteOff"
      },
      {
        "deltaTime": 0,
        "channel": 0,
        "type": "channel",
        "noteNumber": 82,
        "velocity": 100,
        "subtype": "noteOn"
      },
      {
        "deltaTime": 120,
        "channel": 0,
        "type": "channel",
        "noteNumber": 82,
        "velocity": 0,
        "subtype": "noteOff"
      },
      {
        "deltaTime": 0,
        "channel": 0,
        "type": "channel",
        "noteNumber": 72,
        "velocity": 100,
        "subtype": "noteOn"
      },
      {
        "deltaTime": 120,
        "channel": 0,
        "type": "channel",
        "noteNumber": 72,
        "velocity": 0,
        "subtype": "noteOff"
      },
      {
        "deltaTime": 0,
        "channel": 0,
        "type": "channel",
        "noteNumber": 81,
        "velocity": 100,
        "subtype": "noteOn"
      },
      {
        "deltaTime": 120,
        "channel": 0,
        "type": "channel",
        "noteNumber": 81,
        "velocity": 0,
        "subtype": "noteOff"
      },
      {
        "deltaTime": 0,
        "channel": 0,
        "type": "channel",
        "noteNumber": 80,
        "velocity": 100,
        "subtype": "noteOn"
      },
      {
        "deltaTime": 120,
        "channel": 0,
        "type": "channel",
        "noteNumber": 80,
        "velocity": 0,
        "subtype": "noteOff"
      },
      {
        "deltaTime": 0,
        "channel": 0,
        "type": "channel",
        "noteNumber": 76,
        "velocity": 100,
        "subtype": "noteOn"
      },
      {
        "deltaTime": 120,
        "channel": 0,
        "type": "channel",
        "noteNumber": 76,
        "velocity": 0,
        "subtype": "noteOff"
      },
      {
        "deltaTime": 0,
        "channel": 0,
        "type": "channel",
        "noteNumber": 74,
        "velocity": 100,
        "subtype": "noteOn"
      },
      {
        "deltaTime": 120,
        "channel": 0,
        "type": "channel",
        "noteNumber": 74,
        "velocity": 0,
        "subtype": "noteOff"
      },
      {
        "deltaTime": 0,
        "channel": 0,
        "type": "channel",
        "noteNumber": 71,
        "velocity": 100,
        "subtype": "noteOn"
      },
      {
        "deltaTime": 120,
        "channel": 0,
        "type": "channel",
        "noteNumber": 71,
        "velocity": 0,
        "subtype": "noteOff"
      },
      {
        "deltaTime": 0,
        "channel": 0,
        "type": "channel",
        "noteNumber": 72,
        "velocity": 100,
        "subtype": "noteOn"
      },
      {
        "deltaTime": 120,
        "channel": 0,
        "type": "channel",
        "noteNumber": 72,
        "velocity": 0,
        "subtype": "noteOff"
      },
      {
        "deltaTime": 0,
        "channel": 0,
        "type": "channel",
        "noteNumber": 88,
        "velocity": 100,
        "subtype": "noteOn"
      },
      {
        "deltaTime": 120,
        "channel": 0,
        "type": "channel",
        "noteNumber": 88,
        "velocity": 0,
        "subtype": "noteOff"
      },
      {
        "deltaTime": 0,
        "channel": 0,
        "type": "channel",
        "noteNumber": 71,
        "velocity": 100,
        "subtype": "noteOn"
      },
      {
        "deltaTime": 120,
        "channel": 0,
        "type": "channel",
        "noteNumber": 71,
        "velocity": 0,
        "subtype": "noteOff"
      },
      {
        "deltaTime": 0,
        "channel": 0,
        "type": "channel",
        "noteNumber": 86,
        "velocity": 100,
        "subtype": "noteOn"
      },
      {
        "deltaTime": 120,
        "channel": 0,
        "type": "channel",
        "noteNumber": 86,
        "velocity": 0,
        "subtype": "noteOff"
      },
      {
        "deltaTime": 0,
        "channel": 0,
        "type": "channel",
        "noteNumber": 69,
        "velocity": 100,
        "subtype": "noteOn"
      },
      {
        "deltaTime": 120,
        "channel": 0,
        "type": "channel",
        "noteNumber": 69,
        "velocity": 0,
        "subtype": "noteOff"
      },
      {
        "deltaTime": 0,
        "channel": 0,
        "type": "channel",
        "noteNumber": 84,
        "velocity": 100,
        "subtype": "noteOn"
      },
      {
        "deltaTime": 120,
        "channel": 0,
        "type": "channel",
        "noteNumber": 84,
        "velocity": 0,
        "subtype": "noteOff"
      },
      {
        "deltaTime": 0,
        "channel": 0,
        "type": "channel",
        "noteNumber": 74,
        "velocity": 100,
        "subtype": "noteOn"
      },
      {
        "deltaTime": 120,
        "channel": 0,
        "type": "channel",
        "noteNumber": 74,
        "velocity": 0,
        "subtype": "noteOff"
      },
      {
        "deltaTime": 0,
        "channel": 0,
        "type": "channel",
        "noteNumber": 83,
        "velocity": 100,
        "subtype": "noteOn"
      },
      {
        "deltaTime": 120,
        "channel": 0,
        "type": "channel",
        "noteNumber": 83,
        "velocity": 0,
        "subtype": "noteOff"
      },
      {
        "deltaTime": 0,
        "channel": 0,
        "type": "channel",
        "noteNumber": 76,
        "velocity": 100,
        "subtype": "noteOn"
      },
      {
        "deltaTime": 120,
        "channel": 0,
        "type": "channel",
        "noteNumber": 76,
        "velocity": 0,
        "subtype": "noteOff"
      },
      {
        "deltaTime": 0,
        "channel": 0,
        "type": "channel",
        "noteNumber": 81,
        "velocity": 100,
        "subtype": "noteOn"
      },
      {
        "deltaTime": 120,
        "channel": 0,
        "type": "channel",
        "noteNumber": 81,
        "velocity": 0,
        "subtype": "noteOff"
      },
      {
        "deltaTime": 0,
        "channel": 0,
        "type": "channel",
        "noteNumber": 83,
        "velocity": 100,
        "subtype": "noteOn"
      },
      {
        "deltaTime": 120,
        "channel": 0,
        "type": "channel",
        "noteNumber": 83,
        "velocity": 0,
        "subtype": "noteOff"
      },
      {
        "deltaTime": 0,
        "channel": 0,
        "type": "channel",
        "noteNumber": 80,
        "velocity": 100,
        "subtype": "noteOn"
      },
      {
        "deltaTime": 120,
        "channel": 0,
        "type": "channel",
        "noteNumber": 80,
        "velocity": 0,
        "subtype": "noteOff"
      },
      {
        "deltaTime": 0,
        "channel": 0,
        "type": "channel",
        "noteNumber": 81,
        "velocity": 100,
        "subtype": "noteOn"
      },
      {
        "deltaTime": 120,
        "channel": 0,
        "type": "channel",
        "noteNumber": 81,
        "velocity": 0,
        "subtype": "noteOff"
      },
      {
        "deltaTime": 0,
        "channel": 0,
        "type": "channel",
        "noteNumber": 64,
        "velocity": 100,
        "subtype": "noteOn"
      },
      {
        "deltaTime": 120,
        "channel": 0,
        "type": "channel",
        "noteNumber": 64,
        "velocity": 0,
        "subtype": "noteOff"
      },
      {
        "deltaTime": 0,
        "channel": 0,
        "type": "channel",
        "noteNumber": 69,
        "velocity": 100,
        "subtype": "noteOn"
      },
      {
        "deltaTime": 120,
        "channel": 0,
        "type": "channel",
        "noteNumber": 69,
        "velocity": 0,
        "subtype": "noteOff"
      },
      {
        "deltaTime": 0,
        "channel": 0,
        "type": "channel",
        "noteNumber": 72,
        "velocity": 100,
        "subtype": "noteOn"
      },
      {
        "deltaTime": 120,
        "channel": 0,
        "type": "channel",
        "noteNumber": 72,
        "velocity": 0,
        "subtype": "noteOff"
      },
      {
        "deltaTime": 0,
        "channel": 0,
        "type": "channel",
        "noteNumber": 76,
        "velocity": 100,
        "subtype": "noteOn"
      },
      {
        "deltaTime": 120,
        "channel": 0,
        "type": "channel",
        "noteNumber": 76,
        "velocity": 0,
        "subtype": "noteOff"
      },
      {
        "deltaTime": 0,
        "channel": 0,
        "type": "channel",
        "noteNumber": 69,
        "velocity": 100,
        "subtype": "noteOn"
      },
      {
        "deltaTime": 120,
        "channel": 0,
        "type": "channel",
        "noteNumber": 69,
        "velocity": 0,
        "subtype": "noteOff"
      },
      {
        "deltaTime": 0,
        "channel": 0,
        "type": "channel",
        "noteNumber": 72,
        "velocity": 100,
        "subtype": "noteOn"
      },
      {
        "deltaTime": 120,
        "channel": 0,
        "type": "channel",
        "noteNumber": 72,
        "velocity": 0,
        "subtype": "noteOff"
      },
      {
        "deltaTime": 0,
        "channel": 0,
        "type": "channel",
        "noteNumber": 76,
        "velocity": 100,
        "subtype": "noteOn"
      },
      {
        "deltaTime": 120,
        "channel": 0,
        "type": "channel",
        "noteNumber": 76,
        "velocity": 0,
        "subtype": "noteOff"
      },
      {
        "deltaTime": 0,
        "channel": 0,
        "type": "channel",
        "noteNumber": 81,
        "velocity": 100,
        "subtype": "noteOn"
      },
      {
        "deltaTime": 120,
        "channel": 0,
        "type": "channel",
        "noteNumber": 81,
        "velocity": 0,
        "subtype": "noteOff"
      },
      {
        "deltaTime": 0,
        "channel": 0,
        "type": "channel",
        "noteNumber": 76,
        "velocity": 100,
        "subtype": "noteOn"
      },
      {
        "deltaTime": 120,
        "channel": 0,
        "type": "channel",
        "noteNumber": 76,
        "velocity": 0,
        "subtype": "noteOff"
      },
      {
        "deltaTime": 0,
        "channel": 0,
        "type": "channel",
        "noteNumber": 81,
        "velocity": 100,
        "subtype": "noteOn"
      },
      {
        "deltaTime": 120,
        "channel": 0,
        "type": "channel",
        "noteNumber": 81,
        "velocity": 0,
        "subtype": "noteOff"
      },
      {
        "deltaTime": 0,
        "channel": 0,
        "type": "channel",
        "noteNumber": 84,
        "velocity": 100,
        "subtype": "noteOn"
      },
      {
        "deltaTime": 120,
        "channel": 0,
        "type": "channel",
        "noteNumber": 84,
        "velocity": 0,
        "subtype": "noteOff"
      },
      {
        "deltaTime": 0,
        "channel": 0,
        "type": "channel",
        "noteNumber": 88,
        "velocity": 100,
        "subtype": "noteOn"
      },
      {
        "deltaTime": 120,
        "channel": 0,
        "type": "channel",
        "noteNumber": 88,
        "velocity": 0,
        "subtype": "noteOff"
      },
      {
        "deltaTime": 0,
        "channel": 0,
        "type": "channel",
        "noteNumber": 81,
        "velocity": 100,
        "subtype": "noteOn"
      },
      {
        "deltaTime": 120,
        "channel": 0,
        "type": "channel",
        "noteNumber": 81,
        "velocity": 0,
        "subtype": "noteOff"
      },
      {
        "deltaTime": 0,
        "channel": 0,
        "type": "channel",
        "noteNumber": 84,
        "velocity": 100,
        "subtype": "noteOn"
      },
      {
        "deltaTime": 120,
        "channel": 0,
        "type": "channel",
        "noteNumber": 84,
        "velocity": 0,
        "subtype": "noteOff"
      },
      {
        "deltaTime": 0,
        "channel": 0,
        "type": "channel",
        "noteNumber": 88,
        "velocity": 100,
        "subtype": "noteOn"
      },
      {
        "deltaTime": 120,
        "channel": 0,
        "type": "channel",
        "noteNumber": 88,
        "velocity": 0,
        "subtype": "noteOff"
      },
      {
        "deltaTime": 0,
        "channel": 0,
        "type": "channel",
        "noteNumber": 93,
        "velocity": 100,
        "subtype": "noteOn"
      },
      {
        "deltaTime": 960,
        "channel": 0,
        "type": "channel",
        "noteNumber": 93,
        "velocity": 0,
        "subtype": "noteOff"
      },
      {
        "deltaTime": 0,
        "type": "meta",
        "subtype": "endOfTrack"
      }
    ],
    [
      {
        "deltaTime": 0,
        "type": "meta",
        "subtype": "unknown",
        "data": "\u0000"
      },
      {
        "deltaTime": 0,
        "type": "meta",
        "subtype": "trackName",
        "text": "--------------------------------------"
      },
      {
        "deltaTime": 0,
        "type": "meta",
        "subtype": "endOfTrack"
      }
    ],
    [
      {
        "deltaTime": 0,
        "type": "meta",
        "subtype": "unknown",
        "data": "\u0000"
      },
      {
        "deltaTime": 0,
        "type": "meta",
        "subtype": "trackName",
        "text": "Johann Sebastian Bach  (1685-1750)"
      },
      {
        "deltaTime": 0,
        "type": "meta",
        "subtype": "endOfTrack"
      }
    ],
    [
      {
        "deltaTime": 0,
        "type": "meta",
        "subtype": "unknown",
        "data": "\u0000"
      },
      {
        "deltaTime": 0,
        "type": "meta",
        "subtype": "trackName",
        "text": "--------------------------------------"
      },
      {
        "deltaTime": 0,
        "type": "meta",
        "subtype": "endOfTrack"
      }
    ],
    [
      {
        "deltaTime": 0,
        "type": "meta",
        "subtype": "unknown",
        "data": "\u0000"
      },
      {
        "deltaTime": 0,
        "type": "meta",
        "subtype": "trackName",
        "text": "Partita in A minor for Solo Flute - BWV 1013"
      },
      {
        "deltaTime": 0,
        "type": "meta",
        "subtype": "endOfTrack"
      }
    ],
    [
      {
        "deltaTime": 0,
        "type": "meta",
        "subtype": "unknown",
        "data": "\u0000"
      },
      {
        "deltaTime": 0,
        "type": "meta",
        "subtype": "trackName",
        "text": "--------------------------------------"
      },
      {
        "deltaTime": 0,
        "type": "meta",
        "subtype": "endOfTrack"
      }
    ],
    [
      {
        "deltaTime": 0,
        "type": "meta",
        "subtype": "unknown",
        "data": "\u0000"
      },
      {
        "deltaTime": 0,
        "type": "meta",
        "subtype": "trackName",
        "text": "1st Movement: Allemande"
      },
      {
        "deltaTime": 0,
        "type": "meta",
        "subtype": "endOfTrack"
      }
    ],
    [
      {
        "deltaTime": 0,
        "type": "meta",
        "subtype": "unknown",
        "data": "\u0000"
      },
      {
        "deltaTime": 0,
        "type": "meta",
        "subtype": "trackName",
        "text": "--------------------------------------"
      },
      {
        "deltaTime": 0,
        "type": "meta",
        "subtype": "endOfTrack"
      }
    ],
    [
      {
        "deltaTime": 0,
        "type": "meta",
        "subtype": "unknown",
        "data": "\u0000"
      },
      {
        "deltaTime": 0,
        "type": "meta",
        "subtype": "trackName",
        "text": "Sequenced with Cakewalk Pro Audio by"
      },
      {
        "deltaTime": 0,
        "type": "meta",
        "subtype": "endOfTrack"
      }
    ],
    [
      {
        "deltaTime": 0,
        "type": "meta",
        "subtype": "unknown",
        "data": "\u0000"
      },
      {
        "deltaTime": 0,
        "type": "meta",
        "subtype": "trackName",
        "text": "David J. Grossman - dave@unpronounceable.com"
      },
      {
        "deltaTime": 0,
        "type": "meta",
        "subtype": "endOfTrack"
      }
    ],
    [
      {
        "deltaTime": 0,
        "type": "meta",
        "subtype": "unknown",
        "data": "\u0000"
      },
      {
        "deltaTime": 0,
        "type": "meta",
        "subtype": "trackName",
        "text": "This and other Bach MIDI files can be found at:"
      },
      {
        "deltaTime": 0,
        "type": "meta",
        "subtype": "endOfTrack"
      }
    ],
    [
      {
        "deltaTime": 0,
        "type": "meta",
        "subtype": "unknown",
        "data": "\u0000"
      },
      {
        "deltaTime": 0,
        "type": "meta",
        "subtype": "trackName",
        "text": "Dave's J.S. Bach Page"
      },
      {
        "deltaTime": 0,
        "type": "meta",
        "subtype": "endOfTrack"
      }
    ],
    [
      {
        "deltaTime": 0,
        "type": "meta",
        "subtype": "unknown",
        "data": "\u0000"
      },
      {
        "deltaTime": 0,
        "type": "meta",
        "subtype": "trackName",
        "text": "http://www.unpronounceable.com/bach"
      },
      {
        "deltaTime": 0,
        "type": "meta",
        "subtype": "endOfTrack"
      }
    ],
    [
      {
        "deltaTime": 0,
        "type": "meta",
        "subtype": "unknown",
        "data": "\u0000"
      },
      {
        "deltaTime": 0,
        "type": "meta",
        "subtype": "trackName",
        "text": "--------------------------------------"
      },
      {
        "deltaTime": 0,
        "type": "meta",
        "subtype": "endOfTrack"
      }
    ],
    [
      {
        "deltaTime": 0,
        "type": "meta",
        "subtype": "unknown",
        "data": "\u0000"
      },
      {
        "deltaTime": 0,
        "type": "meta",
        "subtype": "trackName",
        "text": "Original Filename: fp-1all.mid"
      },
      {
        "deltaTime": 0,
        "type": "meta",
        "subtype": "endOfTrack"
      }
    ],
    [
      {
        "deltaTime": 0,
        "type": "meta",
        "subtype": "unknown",
        "data": "\u0000"
      },
      {
        "deltaTime": 0,
        "type": "meta",
        "subtype": "trackName",
        "text": "Last Modified: March 1, 1997"
      },
      {
        "deltaTime": 0,
        "type": "meta",
        "subtype": "endOfTrack"
      }
    ]
  ]
}