MFile 1 17 480
MTrk
0 Meta TrkName "untitled"
0 SMPTE 96 0 3 0 0
0 TimeSig 4/4 24 8
0 KeySig 0 major
0 Tempo 600000
0 Meta Marker "A"
34560 Meta Marker "1."
36480 Meta Marker "A'"
71040 Meta Marker "2."
72960 Meta Marker "B"
123840 Tempo 1200000
123840 Meta TrkEnd
TrkEnd
MTrk
0 Meta 0x21 00
0 Meta TrkName "Solo Flute"
0 PrCh ch=1 p=73
0 Par ch=1 c=7 v=100
0 Par ch=1 c=10 v=64
120 On ch=1 n=83 v=100
240 On ch=1 n=83 v=0
240 On ch=1 n=83 v=0
240 On ch=1 n=83 v=0
240 On ch=1 n=75 v=100
360 On ch=1 n=75 v=0
360 On ch=1 n=75 v=0
360 On ch=1 n=75 v=0
360 On ch=1 n=75 v=0
360 On ch=1 n=75 v=0
360 On ch=1 n=75 v=0
360 On ch=1 n=75 v=0
360 On ch=1 n=75 v=0
360 On ch=1 n=75 v=0
360 On ch=1 n=85 v=100
480 On ch=1 n=67 v=100
600 On ch=1 n=67 v=0
600 On ch=1 n=67 v=0
600 On ch=1 n=74 v=100
720 On ch=1 n=74 v=0
720 On ch=1 n=74 v=0
720 On ch=1 n=74 v=0
720 On ch=1 n=74 v=0
720 On ch=1 n=61 v=100
840 On ch=1 n=61 v=0
840 On ch=1 n=61 v=0
840 On ch=1 n=61 v=0
840 On ch=1 n=61 v=0
840 On ch=1 n=61 v=0
840 On ch=1 n=62 v=100
960 On ch=1 n=62 v=0
960 On ch=1 n=62 v=0
960 On ch=1 n=61 v=100
1080 On ch=1 n=61 v=0
1080 On ch=1 n=61 v=0
1080 On ch=1 n=66 v=100
1200 On ch=1 n=66 v=0
1200 On ch=1 n=66 v=0
1200 On ch=1 n=68 v=100
1320 On ch=1 n=68 v=0
1320 On ch=1 n=77 v=100
1440 On ch=1 n=77 v=0
1440 On ch=1 n=77 v=0
1440 On ch=1 n=77 v=0
1440 On ch=1 n=77 v=0
1440 On ch=1 n=61 v=100
1560 On ch=1 n=61 v=0
1560 On ch=1 n=62 v=100
1680 On ch=1 n=62 v=0
1680 On ch=1 n=62 v=0
1680 On ch=1 n=62 v=0
1680 On ch=1 n=62 v=0
1680 On ch=1 n=70 v=100
1800 On ch=1 n=70 v=0
1800 On ch=1 n=72 v=100
1920 On ch=1 n=72 v=0
1920 On ch=1 n=74 v=100
2040 On ch=1 n=74 v=0
2040 On ch=1 n=73 v=100
2160 On ch=1 n=73 v=0
2160 On ch=1 n=73 v=0
2160 On ch=1 n=72 v=100
2280 On ch=1 n=72 v=0
2280 On ch=1 n=72 v=0
2280 On ch=1 n=67 v=100
2400 On ch=1 n=67 v=0
2400 On ch=1 n=67 v=0
2400 On ch=1 n=67 v=0
2400 On ch=1 n=67 v=0
2400 On ch=1 n=67 v=0
2400 On ch=1 n=67 v=0
2400 On ch=1 n=67 v=0
2400 On ch=1 n=79 v=100
2520 On ch=1 n=63 v=100
2640 On ch=1 n=63 v=0
2640 On ch=1 n=63 v=0
2640 On ch=1 n=63 v=0
2640 On ch=1 n=83 v=100
2760 On ch=1 n=83 v=0
2760 On ch=1 n=83 v=0
2760 On ch=1 n=69 v=100
2880 On ch=1 n=69 v=0
2880 On ch=1 n=69 v=0
2880 On ch=1 n=69 v=0
2880 On ch=1 n=85 v=100
3000 On ch=1 n=85 v=0
3000 On ch=1 n=85 v=0
3000 On ch=1 n=85 v=0
3000 On ch=1 n=61 v=100
3120 On ch=1 n=61 v=0
3120 On ch=1 n=77 v=100
3240 On ch=1 n=77 v=0
3240 On ch=1 n=85 v=100
3360 On ch=1 n=85 v=0
3360 On ch=1 n=72 v=100
3480 On ch=1 n=72 v=0
3480 On ch=1 n=72 v=0
3480 On ch=1 n=72 v=0
3480 On ch=1 n=72 v=0
3480 On ch=1 n=72 v=0
3480 On ch=1 n=85 v=100
3600 On ch=1 n=85 v=0
3600 On ch=1 n=64 v=100
3720 On ch=1 n=81 v=100
3840 On ch=1 n=61 v=100
3960 On ch=1 n=61 v=0
3960 On ch=1 n=61 v=0
3960 On ch=1 n=61 v=0
3960 On ch=1 n=71 v=100
4080 On ch=1 n=71 v=0
4080 On ch=1 n=82 v=100
4200 On ch=1 n=82 v=0
4200 On ch=1 n=63 v=100
4320 On ch=1 n=63 v=0
4320 On ch=1 n=74 v=100
4440 On ch=1 n=74 v=0
4440 On ch=1 n=74 v=0
4440 On ch=1 n=74 v=0
4440 On ch=1 n=74 v=0
4440 On ch=1 n=74 v=0
4440 On ch=1 n=79 v=100
4560 On ch=1 n=78 v=100
4680 On ch=1 n=78 v=0
4680 On ch=1 n=66 v=100
4800 On ch=1 n=66 v=0
4800 On ch=1 n=66 v=0
4800 On ch=1 n=64 v=100
4920 On ch=1 n=74 v=100
5040 On ch=1 n=74 v=0
5040 On ch=1 n=74 v=0
5040 On ch=1 n=74 v=0
5040 On ch=1 n=74 v=0
5040 On ch=1 n=74 v=0
5040 On ch=1 n=74 v=0
5040 On ch=1 n=74 v=0
5040 On ch=1 n=74 v=0
5040 On ch=1 n=82 v=100
5160 On ch=1 n=82 v=0
5160 On ch=1 n=76 v=100
5280 On ch=1 n=76 v=0
5280 On ch=1 n=76 v=0
5280 On ch=1 n=76 v=0
5280 On ch=1 n=76 v=0
5280 On ch=1 n=80 v=100
5400 On ch=1 n=83 v=100
5520 On ch=1 n=68 v=100
5640 On ch=1 n=68 v=0
5640 On ch=1 n=68 v=0
5640 On ch=1 n=68 v=0
5640 On ch=1 n=68 v=0
5640 On ch=1 n=68 v=0
5640 On ch=1 n=68 v=0
5640 On ch=1 n=68 v=0
5640 On ch=1 n=68 v=0
5640 On ch=1 n=68 v=0
5640 On ch=1 n=68 v=0
5640 On ch=1 n=68 v=0
5640 On ch=1 n=68 v=0
5640 On ch=1 n=81 v=100
5760 On ch=1 n=72 v=100
5880 On ch=1 n=72 v=0
5880 On ch=1 n=72 v=0
5880 On ch=1 n=72 v=0
5880 On ch=1 n=72 v=0
5880 On ch=1 n=72 v=0
5880 On ch=1 n=72 v=0
5880 On ch=1 n=72 v=100
6000 On ch=1 n=80 v=100
6120 On ch=1 n=80 v=0
6120 On ch=1 n=80 v=0
6120 On ch=1 n=81 v=100
6240 On ch=1 n=81 v=0
6240 On ch=1 n=74 v=100
6360 On ch=1 n=74 v=0
6360 On ch=1 n=74 v=0
6360 On ch=1 n=74 v=0
6360 On ch=1 n=74 v=0
6360 On ch=1 n=74 v=0
6360 On ch=1 n=74 v=0
6360 On ch=1 n=74 v=0
6360 On ch=1 n=71 v=100
6480 On ch=1 n=71 v=0
6480 On ch=1 n=68 v=100
6600 On ch=1 n=68 v=0
6600 On ch=1 n=68 v=0
6600 On ch=1 n=73 v=100
6720 On ch=1 n=73 v=0
6720 On ch=1 n=73 v=0
6720 On ch=1 n=73 v=0
6720 On ch=1 n=73 v=0
6720 On ch=1 n=73 v=0
6720 On ch=1 n=72 v=100
6840 On ch=1 n=80 v=100
6960 On ch=1 n=80 v=0
6960 On ch=1 n=78 v=100
7080 On ch=1 n=78 v=0
7080 On ch=1 n=78 v=0
7080 On ch=1 n=78 v=0
7080 On ch=1 n=81 v=100
7200 On ch=1 n=81 v=0
7200 On ch=1 n=81 v=0
7200 On ch=1 n=81 v=0
7200 On ch=1 n=73 v=100
7320 On ch=1 n=73 v=0
7320 On ch=1 n=70 v=100
7440 On ch=1 n=70 v=0
7440 On ch=1 n=77 v=100
7560 On ch=1 n=77 v=0
7560 On ch=1 n=80 v=100
7680 On ch=1 n=80 v=0
7680 On ch=1 n=80 v=0
7680 On ch=1 n=80 v=0
7680 On ch=1 n=80 v=0
7680 On ch=1 n=78 v=100
7800 On ch=1 n=70 v=100
7920 On ch=1 n=70 v=0
7920 On ch=1 n=62 v=100
8040 On ch=1 n=62 v=0
8040 On ch=1 n=67 v=100
8160 On ch=1 n=67 v=0
8160 On ch=1 n=63 v=100
8280 On ch=1 n=63 v=0
8280 On ch=1 n=63 v=0
8280 On ch=1 n=63 v=0
8280 On ch=1 n=63 v=0
8280 On ch=1 n=63 v=0
8280 On ch=1 n=63 v=0
8280 On ch=1 n=66 v=100
8400 On ch=1 n=66 v=0
8400 On ch=1 n=66 v=0
8400 On ch=1 n=66 v=0
8400 On ch=1 n=63 v=100
8520 On ch=1 n=63 v=0
8520 On ch=1 n=63 v=0
8520 On ch=1 n=72 v=100
8640 On ch=1 n=72 v=0
8640 On ch=1 n=72 v=0
8640 On ch=1 n=68 v=100
8760 On ch=1 n=68 v=0
8760 On ch=1 n=85 v=100
8880 On ch=1 n=85 v=0
8880 On ch=1 n=64 v=100
9000 On ch=1 n=64 v=0
9000 On ch=1 n=64 v=0
9000 On ch=1 n=64 v=0
9000 On ch=1 n=77 v=100
9120 On ch=1 n=77 v=0
9120 On ch=1 n=77 v=0
9120 On ch=1 n=77 v=0
9120 On ch=1 n=77 v=0
9120 On ch=1 n=77 v=0
9120 On ch=1 n=77 v=0
9120 On ch=1 n=77 v=0
9120 On ch=1 n=77 v=0
9120 On ch=1 n=77 v=0
9120 On ch=1 n=77 v=0
9120 On ch=1 n=77 v=0
9120 On ch=1 n=75 v=100
9240 On ch=1 n=75 v=0
9240 On ch=1 n=75 v=0
9240 On ch=1 n=75 v=0
9240 On ch=1 n=71 v=100
9360 On ch=1 n=71 v=0
9360 On ch=1 n=66 v=100
9480 On ch=1 n=66 v=0
9480 On ch=1 n=66 v=0
9480 On ch=1 n=66 v=0
9480 On ch=1 n=66 v=0
9480 On ch=1 n=72 v=100
9600 On ch=1 n=72 v=0
9600 On ch=1 n=72 v=0
9600 On ch=1 n=72 v=0
9600 On ch=1 n=79 v=100
9720 On ch=1 n=79 v=0
9720 On ch=1 n=82 v=100
9840 On ch=1 n=81 v=100
9960 On ch=1 n=81 v=0
9960 On ch=1 n=83 v=100
10080 On ch=1 n=65 v=100
10200 On ch=1 n=65 v=0
10200 On ch=1 n=65 v=0
10200 On ch=1 n=65 v=0
10200 On ch=1 n=65 v=0
10200 On ch=1 n=65 v=0
10200 On ch=1 n=65 v=0
10200 On ch=1 n=65 v=0
10200 On ch=1 n=65 v=0
10200 On ch=1 n=73 v=100
10320 On ch=1 n=82 v=100
10440 On ch=1 n=82 v=0
10440 On ch=1 n=82 v=0
10440 On ch=1 n=82 v=0
10440 On ch=1 n=61 v=100
10560 On ch=1 n=61 v=0
10560 On ch=1 n=61 v=0
10560 On ch=1 n=61 v=0
10560 On ch=1 n=61 v=0
10560 On ch=1 n=61 v=0
10560 On ch=1 n=61 v=0
10560 On ch=1 n=61 v=0
10560 On ch=1 n=62 v=100
10680 On ch=1 n=78 v=100
10800 On ch=1 n=78 v=0
10800 On ch=1 n=78 v=0
10800 On ch=1 n=82 v=100
10920 On ch=1 n=82 v=0
10920 On ch=1 n=71 v=100
11040 On ch=1 n=71 v=0
11040 On ch=1 n=71 v=0
11040 On ch=1 n=71 v=0
11040 On ch=1 n=71 v=0
11040 On ch=1 n=71 v=0
11040 On ch=1 n=71 v=0
11040 On ch=1 n=71 v=0
11040 On ch=1 n=62 v=100
11160 On ch=1 n=62 v=0
11160 On ch=1 n=62 v=0
11160 On ch=1 n=62 v=0
11160 On ch=1 n=62 v=0
11160 On ch=1 n=62 v=100
11280 On ch=1 n=62 v=0
11280 On ch=1 n=74 v=100
11400 On ch=1 n=74 v=0
11400 On ch=1 n=74 v=0
11400 On ch=1 n=74 v=0
11400 On ch=1 n=74 v=0
11400 On ch=1 n=74 v=0
11400 On ch=1 n=67 v=100
11520 On ch=1 n=69 v=100
11640 On ch=1 n=69 v=0
11640 On ch=1 n=69 v=0
11640 On ch=1 n=69 v=0
11640 On ch=1 n=69 v=0
11640 On ch=1 n=69 v=0
11640 On ch=1 n=69 v=0
11640 On ch=1 n=69 v=0
11640 On ch=1 n=69 v=0
11640 On ch=1 n=69 v=0
11640 On ch=1 n=69 v=0
11640 On ch=1 n=69 v=0
11640 On ch=1 n=69 v=0
11640 On ch=1 n=69 v=0
11640 On ch=1 n=69 v=0
11640 On ch=1 n=69 v=0
11640 On ch=1 n=62 v=100
11760 On ch=1 n=62 v=0
11760 On ch=1 n=62 v=0
11760 On ch=1 n=66 v=100
11880 On ch=1 n=66 v=0
11880 On ch=1 n=83 v=100
12000 On ch=1 n=66 v=100
12120 On ch=1 n=66 v=0
12120 On ch=1 n=66 v=0
12120 On ch=1 n=75 v=100
12240 On ch=1 n=64 v=100
12360 On ch=1 n=64 v=0
12360 On ch=1 n=77 v=100
12480 On ch=1 n=71 v=100
12600 On ch=1 n=71 v=0
12600 On ch=1 n=81 v=100
12720 On ch=1 n=81 v=0
12720 On ch=1 n=81 v=0
12720 On ch=1 n=81 v=0
12720 On ch=1 n=81 v=0
12720 On ch=1 n=66 v=100
12840 On ch=1 n=76 v=100
12960 On ch=1 n=76 v=0
12960 On ch=1 n=78 v=100
13080 On ch=1 n=82 v=100
13200 On ch=1 n=65 v=100
13320 On ch=1 n=65 v=0
13320 On ch=1 n=71 v=100
13440 On ch=1 n=65 v=100
13560 On ch=1 n=65 v=0
13560 On ch=1 n=65 v=0
13560 On ch=1 n=63 v=100
13680 On ch=1 n=63 v=0
13680 On ch=1 n=63 v=0
13680 On ch=1 n=74 v=100
13800 On ch=1 n=74 v=0
13800 On ch=1 n=74 v=0
13800 On ch=1 n=85 v=100
13920 On ch=1 n=85 v=0
13920 On ch=1 n=85 v=0
13920 On ch=1 n=85 v=0
13920 On ch=1 n=79 v=100
14040 On ch=1 n=79 v=0
14040 On ch=1 n=72 v=100
14160 On ch=1 n=72 v=0
14160 On ch=1 n=62 v=100
14280 On ch=1 n=66 v=100
14400 On ch=1 n=66 v=0
14400 On ch=1 n=66 v=0
14400 On ch=1 n=70 v=100
14520 On ch=1 n=76 v=100
14640 On ch=1 n=72 v=100
14760 On ch=1 n=72 v=0
14760 On ch=1 n=72 v=0
14760 On ch=1 n=72 v=0
14760 On ch=1 n=69 v=100
14880 On ch=1 n=69 v=0
14880 On ch=1 n=63 v=100
15000 On ch=1 n=77 v=100
15120 On ch=1 n=76 v=100
15240 On ch=1 n=76 v=0
15240 On ch=1 n=63 v=100
15360 On ch=1 n=63 v=0
15360 On ch=1 n=81 v=100
15480 On ch=1 n=82 v=100
15600 On ch=1 n=82 v=0
15600 On ch=1 n=73 v=100
15720 On ch=1 n=73 v=0
15720 On ch=1 n=73 v=0
15720 On ch=1 n=73 v=0
15720 On ch=1 n=73 v=0
15720 On ch=1 n=65 v=100
15840 On ch=1 n=80 v=100
15960 On ch=1 n=80 v=0
15960 On ch=1 n=80 v=0
15960 On ch=1 n=80 v=0
15960 On ch=1 n=80 v=0
15960 On ch=1 n=80 v=100
16080 On ch=1 n=80 v=0
16080 On ch=1 n=80 v=0
16080 On ch=1 n=81 v=100
16200 On ch=1 n=81 v=0
16200 On ch=1 n=81 v=0
16200 On ch=1 n=66 v=100
16320 On ch=1 n=66 v=0
16320 On ch=1 n=66 v=0
16320 On ch=1 n=66 v=0
16320 On ch=1 n=63 v=100
16440 On ch=1 n=63 v=0
16440 On ch=1 n=64 v=100
16560 On ch=1 n=76 v=100
16680 On ch=1 n=76 v=0
16680 On ch=1 n=76 v=0
16680 On ch=1 n=76 v=0
16680 On ch=1 n=76 v=0
16680 On ch=1 n=76 v=0
16680 On ch=1 n=76 v=0
16680 On ch=1 n=76 v=0
16680 On ch=1 n=76 v=0
16680 On ch=1 n=76 v=0
16680 On ch=1 n=76 v=0
16680 On ch=1 n=76 v=0
16680 On ch=1 n=76 v=0
16680 On ch=1 n=76 v=0
16680 On ch=1 n=70 v=100
16800 On ch=1 n=70 v=0
16800 On ch=1 n=81 v=100
16920 On ch=1 n=81 v=0
16920 On ch=1 n=81 v=0
16920 On ch=1 n=81 v=0
16920 On ch=1 n=81 v=0
16920 On ch=1 n=81 v=0
16920 On ch=1 n=81 v=0
16920 On ch=1 n=81 v=0
16920 On ch=1 n=77 v=100
17040 On ch=1 n=77 v=0
17040 On ch=1 n=77 v=0
17040 On ch=1 n=77 v=0
17040 On ch=1 n=68 v=100
17160 On ch=1 n=68 v=0
17160 On ch=1 n=73 v=100
17280 On ch=1 n=73 v=0
17280 On ch=1 n=79 v=100
17400 On ch=1 n=78 v=100
17520 On ch=1 n=78 v=0
17520 On ch=1 n=78 v=0
17520 On ch=1 n=78 v=0
17520 On ch=1 n=78 v=0
17520 On ch=1 n=78 v=0
17520 On ch=1 n=67 v=100
17640 On ch=1 n=67 v=0
17640 On ch=1 n=67 v=0
17640 On ch=1 n=67 v=0
17640 On ch=1 n=67 v=0
17640 On ch=1 n=70 v=100
17760 On ch=1 n=69 v=100
17880 On ch=1 n=69 v=0
17880 On ch=1 n=69 v=0
17880 On ch=1 n=69 v=0
17880 On ch=1 n=69 v=0
17880 On ch=1 n=69 v=0
17880 On ch=1 n=74 v=100
18000 On ch=1 n=74 v=0
18000 On ch=1 n=74 v=0
18000 On ch=1 n=74 v=0
18000 On ch=1 n=74 v=0
18000 On ch=1 n=73 v=100
18120 On ch=1 n=62 v=100
18240 On ch=1 n=62 v=0
18240 On ch=1 n=62 v=0
18240 On ch=1 n=62 v=0
18240 On ch=1 n=62 v=0
18240 On ch=1 n=62 v=0
18240 On ch=1 n=62 v=0
18240 On ch=1 n=62 v=0
18240 On ch=1 n=62 v=0
18240 On ch=1 n=81 v=100
18360 On ch=1 n=81 v=0
18360 On ch=1 n=73 v=100
18480 On ch=1 n=73 v=0
18480 On ch=1 n=73 v=0
18480 On ch=1 n=73 v=0
18480 On ch=1 n=73 v=0
18480 On ch=1 n=69 v=100
18600 On ch=1 n=69 v=0
18600 On ch=1 n=69 v=0
18600 On ch=1 n=68 v=100
18720 On ch=1 n=68 v=0
18720 On ch=1 n=68 v=0
18720 On ch=1 n=68 v=100
18840 On ch=1 n=68 v=0
18840 On ch=1 n=68 v=0
18840 On ch=1 n=68 v=0
18840 On ch=1 n=68 v=0
18840 On ch=1 n=68 v=0
18840 On ch=1 n=70 v=100
18960 On ch=1 n=70 v=0
18960 On ch=1 n=70 v=0
18960 On ch=1 n=70 v=0
18960 On ch=1 n=70 v=0
18960 On ch=1 n=70 v=0
18960 On ch=1 n=83 v=100
19080 On ch=1 n=83 v=0
19080 On ch=1 n=83 v=0
19080 On ch=1 n=83 v=0
19080 On ch=1 n=83 v=0
19080 On ch=1 n=83 v=0
19080 On ch=1 n=83 v=0
19080 On ch=1 n=83 v=0
19080 On ch=1 n=82 v=100
19200 On ch=1 n=82 v=0
19200 On ch=1 n=82 v=0
19200 On ch=1 n=82 v=0
19200 On ch=1 n=82 v=0
19200 On ch=1 n=63 v=100
19320 On ch=1 n=63 v=0
19320 On ch=1 n=80 v=100
19440 On ch=1 n=66 v=100
19560 On ch=1 n=66 v=0
19560 On ch=1 n=77 v=100
19680 On ch=1 n=77 v=0
19680 On ch=1 n=77 v=0
19680 On ch=1 n=77 v=0
19680 On ch=1 n=77 v=0
19680 On ch=1 n=77 v=0
19680 On ch=1 n=77 v=0
19680 On ch=1 n=77 v=0
19680 On ch=1 n=77 v=0
19680 On ch=1 n=77 v=0
19680 On ch=1 n=69 v=100
19800 On ch=1 n=69 v=0
19800 On ch=1 n=69 v=0
19800 On ch=1 n=61 v=100
19920 On ch=1 n=61 v=0
19920 On ch=1 n=61 v=0
19920 On ch=1 n=61 v=0
19920 On ch=1 n=76 v=100
20040 On ch=1 n=82 v=100
20160 On ch=1 n=82 v=0
20160 On ch=1 n=82 v=100
20280 On ch=1 n=82 v=0
20280 On ch=1 n=76 v=100
20400 On ch=1 n=76 v=0
20400 On ch=1 n=76 v=0
20400 On ch=1 n=85 v=100
20520 On ch=1 n=85 v=100
20640 On ch=1 n=85 v=0
20640 On ch=1 n=85 v=0
20640 On ch=1 n=85 v=0
20640 On ch=1 n=85 v=0
20640 On ch=1 n=74 v=100
20760 On ch=1 n=74 v=0
20760 On ch=1 n=74 v=0
20760 On ch=1 n=74 v=0
20760 On ch=1 n=74 v=0
20760 On ch=1 n=74 v=0
20760 On ch=1 n=74 v=0
20760 On ch=1 n=74 v=0
20760 On ch=1 n=78 v=100
20880 On ch=1 n=64 v=100
21000 On ch=1 n=64 v=0
21000 On ch=1 n=64 v=0
21000 On ch=1 n=64 v=0
21000 On ch=1 n=78 v=100
21120 On ch=1 n=78 v=0
21120 On ch=1 n=76 v=100
21240 On ch=1 n=76 v=0
21240 On ch=1 n=66 v=100
21360 On ch=1 n=72 v=100
21480 On ch=1 n=72 v=0
21480 On ch=1 n=72 v=0
21480 On ch=1 n=72 v=0
21480 On ch=1 n=72 v=0
21480 On ch=1 n=72 v=0
21480 On ch=1 n=68 v=100
21600 On ch=1 n=68 v=0
21600 On ch=1 n=63 v=100
21720 On ch=1 n=80 v=100
21840 On ch=1 n=80 v=0
21840 On ch=1 n=80 v=0
21840 On ch=1 n=80 v=0
21840 On ch=1 n=71 v=100
21960 On ch=1 n=71 v=0
21960 On ch=1 n=73 v=100
22080 On ch=1 n=73 v=0
22080 On ch=1 n=73 v=0
22080 On ch=1 n=76 v=100
22200 On ch=1 n=76 v=0
22200 On ch=1 n=76 v=0
22200 On ch=1 n=76 v=0
22200 On ch=1 n=75 v=100
22320 On ch=1 n=75 v=0
22320 On ch=1 n=75 v=0
22320 On ch=1 n=75 v=0
22320 On ch=1 n=75 v=0
22320 On ch=1 n=75 v=0
22320 On ch=1 n=75 v=0
22320 On ch=1 n=75 v=0
22320 On ch=1 n=75 v=0
22320 On ch=1 n=65 v=100
22440 On ch=1 n=65 v=0
22440 On ch=1 n=65 v=0
22440 On ch=1 n=65 v=0
22440 On ch=1 n=65 v=0
22440 On ch=1 n=65 v=0
22440 On ch=1 n=65 v=0
22440 On ch=1 n=73 v=100
22560 On ch=1 n=73 v=0
22560 On ch=1 n=66 v=100
22680 On ch=1 n=66 v=0
22680 On ch=1 n=66 v=0
22680 On ch=1 n=65 v=100
22800 On ch=1 n=65 v=0
22800 On ch=1 n=65 v=0
22800 On ch=1 n=65 v=0
22800 On ch=1 n=65 v=0
22800 On ch=1 n=73 v=100
22920 On ch=1 n=80 v=100
23040 On ch=1 n=80 v=0
23040 On ch=1 n=80 v=0
23040 On ch=1 n=80 v=0
23040 On ch=1 n=80 v=0
23040 On ch=1 n=80 v=0
23040 On ch=1 n=80 v=0
23040 On ch=1 n=80 v=0
23040 On ch=1 n=80 v=0
23040 On ch=1 n=80 v=0
23040 On ch=1 n=73 v=100
23160 On ch=1 n=73 v=0
23160 On ch=1 n=65 v=100
23280 On ch=1 n=67 v=100
23400 On ch=1 n=66 v=100
23520 On ch=1 n=66 v=0
23520 On ch=1 n=66 v=0
23520 On ch=1 n=66 v=0
23520 On ch=1 n=66 v=0
23520 On ch=1 n=66 v=0
23520 On ch=1 n=85 v=100
23640 On ch=1 n=80 v=100
23760 On ch=1 n=80 v=0
23760 On ch=1 n=80 v=0
23760 On ch=1 n=80 v=0
23760 On ch=1 n=80 v=0
23760 On ch=1 n=80 v=0
23760 On ch=1 n=80 v=0
23760 On ch=1 n=85 v=100
23880 On ch=1 n=85 v=0
23880 On ch=1 n=85 v=0
23880 On ch=1 n=85 v=0
23880 On ch=1 n=79 v=100
24000 On ch=1 n=83 v=100
24120 On ch=1 n=83 v=0
24120 On ch=1 n=83 v=0
24120 On ch=1 n=83 v=0
24120 On ch=1 n=83 v=0
24120 On ch=1 n=85 v=100
24240 On ch=1 n=85 v=0
24240 On ch=1 n=85 v=0
24240 On ch=1 n=85 v=0
24240 On ch=1 n=85 v=0
24240 On ch=1 n=85 v=0
24240 On ch=1 n=85 v=0
24240 On ch=1 n=85 v=0
24240 On ch=1 n=82 v=100
24360 On ch=1 n=82 v=0
24360 On ch=1 n=82 v=0
24360 On ch=1 n=64 v=100
24480 On ch=1 n=69 v=100
24600 On ch=1 n=69 v=0
24600 On ch=1 n=69 v=0
24600 On ch=1 n=69 v=0
24600 On ch=1 n=69 v=0
24600 On ch=1 n=69 v=0
24600 On ch=1 n=61 v=100
24720 On ch=1 n=73 v=100
24840 On ch=1 n=73 v=0
24840 On ch=1 n=73 v=0
24840 On ch=1 n=73 v=0
24840 On ch=1 n=64 v=100
24960 On ch=1 n=64 v=0
24960 On ch=1 n=65 v=100
25080 On ch=1 n=65 v=0
25080 On ch=1 n=65 v=0
25080 On ch=1 n=61 v=100
25200 On ch=1 n=61 v=0
25200 On ch=1 n=61 v=0
25200 On ch=1 n=61 v=0
25200 On ch=1 n=61 v=0
25200 On ch=1 n=61 v=0
25200 On ch=1 n=61 v=0
25200 On ch=1 n=61 v=0
25200 On ch=1 n=61 v=0
25200 On ch=1 n=61 v=0
25200 On ch=1 n=61 v=100
25320 On ch=1 n=61 v=0
25320 On ch=1 n=61 v=0
25320 On ch=1 n=61 v=0
25320 On ch=1 n=61 v=0
25320 On ch=1 n=79 v=100
25440 On ch=1 n=79 v=0
25440 On ch=1 n=64 v=100
25560 On ch=1 n=64 v=0
25560 On ch=1 n=64 v=0
25560 On ch=1 n=83 v=100
25680 On ch=1 n=83 v=0
25680 On ch=1 n=83 v=0
25680 On ch=1 n=83 v=0
25680 On ch=1 n=83 v=0
25680 On ch=1 n=82 v=100
25800 On ch=1 n=82 v=0
25800 On ch=1 n=69 v=100
25920 On ch=1 n=70 v=100
26040 On ch=1 n=81 v=100
26160 On ch=1 n=81 v=0
26160 On ch=1 n=66 v=100
26280 On ch=1 n=66 v=0
26280 On ch=1 n=66 v=0
26280 On ch=1 n=66 v=0
26280 On ch=1 n=66 v=0
26280 On ch=1 n=66 v=0
26280 On ch=1 n=66 v=0
26280 On ch=1 n=66 v=0
26280 On ch=1 n=66 v=0
26280 On ch=1 n=66 v=0
26280 On ch=1 n=66 v=0
26280 On ch=1 n=66 v=0
26280 On ch=1 n=70 v=100
26400 On ch=1 n=70 v=0
26400 On ch=1 n=70 v=0
26400 On ch=1 n=70 v=0
26400 On ch=1 n=70 v=0
26400 On ch=1 n=70 v=0
26400 On ch=1 n=70 v=0
26400 On ch=1 n=70 v=0
26400 On ch=1 n=82 v=100
26520 On ch=1 n=64 v=100
26640 On ch=1 n=64 v=0
26640 On ch=1 n=64 v=0
26640 On ch=1 n=75 v=100
26760 On ch=1 n=75 v=0
26760 On ch=1 n=75 v=0
26760 On ch=1 n=73 v=100
26880 On ch=1 n=73 v=0
26880 On ch=1 n=75 v=100
27000 On ch=1 n=71 v=100
27120 On ch=1 n=62 v=100
27240 On ch=1 n=62 v=0
27240 On ch=1 n=62 v=0
27240 On ch=1 n=62 v=0
27240 On ch=1 n=62 v=0
27240 On ch=1 n=62 v=0
27240 On ch=1 n=62 v=0
27240 On ch=1 n=62 v=0
27240 On ch=1 n=62 v=0
27240 On ch=1 n=62 v=0
27240 On ch=1 n=62 v=0
27240 On ch=1 n=62 v=0
27240 On ch=1 n=62 v=0
27240 On ch=1 n=72 v=100
27360 On ch=1 n=85 v=100
27480 On ch=1 n=85 v=0
27480 On ch=1 n=85 v=0
27480 On ch=1 n=85 v=0
27480 On ch=1 n=85 v=0
27480 On ch=1 n=70 v=100
27600 On ch=1 n=69 v=100
27720 On ch=1 n=69 v=0
27720 On ch=1 n=69 v=0
27720 On ch=1 n=69 v=0
27720 On ch=1 n=69 v=0
27720 On ch=1 n=65 v=100
27840 On ch=1 n=65 v=0
27840 On ch=1 n=65 v=0
27840 On ch=1 n=65 v=0
27840 On ch=1 n=65 v=0
27840 On ch=1 n=65 v=0
27840 On ch=1 n=65 v=0
27840 On ch=1 n=64 v=100
27960 On ch=1 n=81 v=100
28080 On ch=1 n=81 v=0
28080 On ch=1 n=81 v=0
28080 On ch=1 n=81 v=100
28200 On ch=1 n=81 v=0
28200 On ch=1 n=81 v=0
28200 On ch=1 n=81 v=0
28200 On ch=1 n=81 v=0
28200 On ch=1 n=67 v=100
28320 On ch=1 n=67 v=0
28320 On ch=1 n=67 v=0
28320 On ch=1 n=67 v=0
28320 On ch=1 n=67 v=0
28320 On ch=1 n=67 v=0
28320 On ch=1 n=72 v=100
28440 On ch=1 n=72 v=0
28440 On ch=1 n=72 v=0
28440 On ch=1 n=80 v=100
28560 On ch=1 n=80 v=0
28560 On ch=1 n=64 v=100
28680 On ch=1 n=64 v=0
28680 On ch=1 n=64 v=0
28680 On ch=1 n=70 v=100
28800 On ch=1 n=70 v=0
28800 On ch=1 n=65 v=100
28920 On ch=1 n=65 v=0
28920 On ch=1 n=65 v=0
28920 On ch=1 n=65 v=0
28920 On ch=1 n=65 v=0
28920 On ch=1 n=65 v=0
28920 On ch=1 n=83 v=100
29040 On ch=1 n=83 v=0
29040 On ch=1 n=83 v=0
29040 On ch=1 n=74 v=100
29160 On ch=1 n=85 v=100
29280 On ch=1 n=85 v=0
29280 On ch=1 n=72 v=100
29400 On ch=1 n=72 v=0
29400 On ch=1 n=72 v=0
29400 On ch=1 n=72 v=0
29400 On ch=1 n=72 v=0
29400 On ch=1 n=74 v=100
29520 On ch=1 n=74 v=0
29520 On ch=1 n=74 v=0
29520 On ch=1 n=74 v=0
29520 On ch=1 n=74 v=0
29520 On ch=1 n=62 v=100
29640 On ch=1 n=62 v=0
29640 On ch=1 n=62 v=0
29640 On ch=1 n=76 v=100
29760 On ch=1 n=80 v=100
29880 On ch=1 n=80 v=0
29880 On ch=1 n=80 v=0
29880 On ch=1 n=80 v=0
29880 On ch=1 n=70 v=100
30000 On ch=1 n=70 v=0
30000 On ch=1 n=69 v=100
30120 On ch=1 n=82 v=100
30240 On ch=1 n=82 v=0
30240 On ch=1 n=82 v=0
30240 On ch=1 n=82 v=0
30240 On ch=1 n=82 v=0
30240 On ch=1 n=82 v=0
30240 On ch=1 n=61 v=100
30360 On ch=1 n=61 v=0
30360 On ch=1 n=61 v=0
30360 On ch=1 n=61 v=0
30360 On ch=1 n=61 v=0
30360 On ch=1 n=81 v=100
30480 On ch=1 n=81 v=0
30480 On ch=1 n=81 v=0
30480 On ch=1 n=65 v=100
30600 On ch=1 n=65 v=0
30600 On ch=1 n=65 v=0
30600 On ch=1 n=65 v=0
30600 On ch=1 n=65 v=0
30600 On ch=1 n=65 v=0
30600 On ch=1 n=73 v=100
30720 On ch=1 n=73 v=0
30720 On ch=1 n=73 v=0
30720 On ch=1 n=73 v=0
30720 On ch=1 n=73 v=0
30720 On ch=1 n=73 v=0
30720 On ch=1 n=73 v=0
30720 On ch=1 n=81 v=100
30840 On ch=1 n=81 v=0
30840 On ch=1 n=75 v=100
30960 On ch=1 n=75 v=0
30960 On ch=1 n=75 v=0
30960 On ch=1 n=75 v=0
30960 On ch=1 n=75 v=0
30960 On ch=1 n=75 v=0
30960 On ch=1 n=75 v=0
30960 On ch=1 n=64 v=100
31080 On ch=1 n=62 v=100
31200 On ch=1 n=62 v=0
31200 On ch=1 n=62 v=0
31200 On ch=1 n=62 v=0
31200 On ch=1 n=72 v=100
31320 On ch=1 n=72 v=0
31320 On ch=1 n=74 v=100
31440 On ch=1 n=74 v=0
31440 On ch=1 n=74 v=0
31440 On ch=1 n=72 v=100
31560 On ch=1 n=63 v=100
31680 On ch=1 n=79 v=100
31800 On ch=1 n=79 v=0
31800 On ch=1 n=79 v=0
31800 On ch=1 n=79 v=0
31800 On ch=1 n=83 v=100
31920 On ch=1 n=63 v=100
32040 On ch=1 n=63 v=0
32040 On ch=1 n=70 v=100
32160 On ch=1 n=70 v=0
32160 On ch=1 n=80 v=100
32280 On ch=1 n=80 v=0
32280 On ch=1 n=80 v=0
32280 On ch=1 n=82 v=100
32400 On ch=1 n=82 v=0
32400 On ch=1 n=62 v=100
32520 On ch=1 n=62 v=0
32520 On ch=1 n=78 v=100
32640 On ch=1 n=68 v=100
32760 On ch=1 n=61 v=100
32880 On ch=1 n=61 v=0
32880 On ch=1 n=61 v=0
32880 On ch=1 n=61 v=0
32880 On ch=1 n=61 v=0
32880 On ch=1 n=61 v=0
32880 On ch=1 n=61 v=0
32880 On ch=1 n=61 v=0
32880 On ch=1 n=61 v=0
32880 On ch=1 n=69 v=100
33000 On ch=1 n=69 v=0
33000 On ch=1 n=77 v=100
33120 On ch=1 n=65 v=100
33240 On ch=1 n=65 v=0
33240 On ch=1 n=70 v=100
33360 On ch=1 n=70 v=0
33360 On ch=1 n=70 v=0
33360 On ch=1 n=70 v=0
33360 On ch=1 n=62 v=100
33480 On ch=1 n=62 v=0
33480 On ch=1 n=62 v=0
33480 On ch=1 n=62 v=0
33480 On ch=1 n=82 v=100
33600 On ch=1 n=82 v=0
33600 On ch=1 n=82 v=0
33600 On ch=1 n=82 v=0
33600 On ch=1 n=66 v=100
33720 On ch=1 n=66 v=0
33720 On ch=1 n=75 v=100
33840 On ch=1 n=75 v=0
33840 On ch=1 n=66 v=100
33960 On ch=1 n=66 v=0
33960 On ch=1 n=66 v=0
33960 On ch=1 n=66 v=0
33960 On ch=1 n=70 v=100
34080 On ch=1 n=64 v=100
34200 On ch=1 n=64 v=0
34200 On ch=1 n=64 v=0
34200 On ch=1 n=64 v=0
34200 On ch=1 n=85 v=100
34320 On ch=1 n=85 v=0
34320 On ch=1 n=61 v=100
34440 On ch=1 n=61 v=0
34440 On ch=1 n=61 v=0
34440 On ch=1 n=61 v=0
34440 On ch=1 n=61 v=0
34440 On ch=1 n=61 v=0
34440 On ch=1 n=61 v=0
34440 On ch=1 n=79 v=100
34560 On ch=1 n=79 v=100
34680 On ch=1 n=73 v=100
34800 On ch=1 n=73 v=0
34800 On ch=1 n=73 v=0
34800 On ch=1 n=73 v=100
34920 On ch=1 n=73 v=0
34920 On ch=1 n=73 v=0
34920 On ch=1 n=73 v=0
34920 On ch=1 n=73 v=0
34920 On ch=1 n=72 v=100
35040 On ch=1 n=64 v=100
35160 On ch=1 n=64 v=0
35160 On ch=1 n=64 v=0
35160 On ch=1 n=64 v=0
35160 On ch=1 n=82 v=100
35280 On ch=1 n=72 v=100
35400 On ch=1 n=72 v=0
35400 On ch=1 n=72 v=0
35400 On ch=1 n=72 v=0
35400 On ch=1 n=72 v=0
35400 On ch=1 n=71 v=100
35520 On ch=1 n=71 v=0
35520 On ch=1 n=71 v=0
35520 On ch=1 n=71 v=0
35520 On ch=1 n=71 v=0
35520 On ch=1 n=71 v=0
35520 On ch=1 n=71 v=0
35520 On ch=1 n=71 v=0
35520 On ch=1 n=71 v=0
35520 On ch=1 n=71 v=0
35520 On ch=1 n=69 v=100
35640 On ch=1 n=69 v=0
35640 On ch=1 n=69 v=0
35640 On ch=1 n=85 v=100
35760 On ch=1 n=85 v=0
35760 On ch=1 n=70 v=100
35880 On ch=1 n=73 v=100
36000 On ch=1 n=73 v=0
36000 On ch=1 n=73 v=0
36000 On ch=1 n=73 v=0
36000 On ch=1 n=74 v=100
36120 On ch=1 n=74 v=0
36120 On ch=1 n=74 v=0
36120 On ch=1 n=74 v=0
36120 On ch=1 n=74 v=0
36120 On ch=1 n=74 v=0
36120 On ch=1 n=75 v=100
36240 On ch=1 n=75 v=0
36240 On ch=1 n=75 v=0
36240 On ch=1 n=75 v=0
36240 On ch=1 n=62 v=100
36360 On ch=1 n=77 v=100
36480 On ch=1 n=77 v=0
36480 On ch=1 n=77 v=0
36480 On ch=1 n=81 v=100
36600 On ch=1 n=81 v=0
36600 On ch=1 n=81 v=0
36600 On ch=1 n=81 v=0
36600 On ch=1 n=81 v=0
36600 On ch=1 n=81 v=0
36600 On ch=1 n=81 v=0
36600 On ch=1 n=81 v=0
36600 On ch=1 n=81 v=0
36600 On ch=1 n=81 v=0
36600 On ch=1 n=81 v=0
36600 On ch=1 n=81 v=0
36600 On ch=1 n=81 v=0
36600 On ch=1 n=81 v=0
36600 On ch=1 n=81 v=0
36600 On ch=1 n=81 v=0
36600 On ch=1 n=83 v=100
36720 On ch=1 n=83 v=0
36720 On ch=1 n=83 v=0
36720 On ch=1 n=62 v=100
36840 On ch=1 n=79 v=100
36960 On ch=1 n=81 v=100
37080 On ch=1 n=81 v=0
37080 On ch=1 n=81 v=0
37080 On ch=1 n=81 v=0
37080 On ch=1 n=81 v=0
37080 On ch=1 n=81 v=0
37080 On ch=1 n=67 v=100
37200 On ch=1 n=83 v=100
37320 On ch=1 n=73 v=100
37440 On ch=1 n=73 v=0
37440 On ch=1 n=73 v=0
37440 On ch=1 n=73 v=0
37440 On ch=1 n=73 v=0
37440 On ch=1 n=73 v=100
37560 On ch=1 n=73 v=0
37560 On ch=1 n=61 v=100
37680 On ch=1 n=61 v=0
37680 On ch=1 n=61 v=0
37680 On ch=1 n=61 v=0
37680 On ch=1 n=61 v=0
37680 On ch=1 n=61 v=0
37680 On ch=1 n=61 v=0
37680 On ch=1 n=61 v=0
37680 On ch=1 n=61 v=0
37680 On ch=1 n=61 v=0
37680 On ch=1 n=81 v=100
37800 On ch=1 n=81 v=0
37800 On ch=1 n=61 v=100
37920 On ch=1 n=61 v=0
37920 On ch=1 n=82 v=100
38040 On ch=1 n=82 v=0
38040 On ch=1 n=82 v=0
38040 On ch=1 n=82 v=0
38040 On ch=1 n=78 v=100
38160 On ch=1 n=78 v=0
38160 On ch=1 n=78 v=0
38160 On ch=1 n=69 v=100
38280 On ch=1 n=69 v=0
38280 On ch=1 n=69 v=0
38280 On ch=1 n=69 v=0
38280 On ch=1 n=72 v=100
38400 On ch=1 n=72 v=0
38400 On ch=1 n=72 v=0
38400 On ch=1 n=72 v=0
38400 On ch=1 n=72 v=0
38400 On ch=1 n=72 v=0
38400 On ch=1 n=71 v=100
38520 On ch=1 n=69 v=100
38640 On ch=1 n=69 v=0
38640 On ch=1 n=69 v=0
38640 On ch=1 n=63 v=100
38760 On ch=1 n=63 v=0
38760 On ch=1 n=63 v=0
38760 On ch=1 n=63 v=0
38760 On ch=1 n=72 v=100
38880 On ch=1 n=72 v=0
38880 On ch=1 n=72 v=0
38880 On ch=1 n=72 v=0
38880 On ch=1 n=72 v=0
38880 On ch=1 n=72 v=0
38880 On ch=1 n=71 v=100
39000 On ch=1 n=71 v=0
39000 On ch=1 n=62 v=100
39120 On ch=1 n=62 v=0
39120 On ch=1 n=62 v=0
39120 On ch=1 n=73 v=100
39240 On ch=1 n=73 v=0
39240 On ch=1 n=73 v=0
39240 On ch=1 n=73 v=0
39240 On ch=1 n=73 v=0
39240 On ch=1 n=73 v=0
39240 On ch=1 n=73 v=0
39240 On ch=1 n=73 v=0
39240 On ch=1 n=73 v=0
39240 On ch=1 n=73 v=0
39240 On ch=1 n=73 v=0
39240 On ch=1 n=65 v=100
39360 On ch=1 n=74 v=100
39480 On ch=1 n=74 v=0
39480 On ch=1 n=74 v=0
39480 On ch=1 n=74 v=0
39480 On ch=1 n=74 v=0
39480 On ch=1 n=74 v=0
39480 On ch=1 n=74 v=0
39480 On ch=1 n=74 v=0
39480 On ch=1 n=74 v=0
39480 On ch=1 n=74 v=0
39480 On ch=1 n=74 v=0
39480 On ch=1 n=74 v=0
39480 On ch=1 n=74 v=0
39480 On ch=1 n=74 v=0
39480 On ch=1 n=62 v=100
39600 On ch=1 n=62 v=0
39600 On ch=1 n=62 v=0
39600 On ch=1 n=62 v=0
39600 On ch=1 n=62 v=0
39600 On ch=1 n=62 v=0
39600 On ch=1 n=62 v=0
39600 On ch=1 n=62 v=0
39600 On ch=1 n=80 v=100
39720 On ch=1 n=80 v=0
39720 On ch=1 n=80 v=0
39720 On ch=1 n=75 v=100
39840 On ch=1 n=75 v=0
39840 On ch=1 n=75 v=0
39840 On ch=1 n=74 v=100
39960 On ch=1 n=74 v=0
39960 On ch=1 n=74 v=0
39960 On ch=1 n=80 v=100
40080 On ch=1 n=80 v=0
40080 On ch=1 n=76 v=100
40200 On ch=1 n=76 v=0
40200 On ch=1 n=80 v=100
40320 On ch=1 n=80 v=0
40320 On ch=1 n=80 v=0
40320 On ch=1 n=80 v=0
40320 On ch=1 n=72 v=100
40440 On ch=1 n=72 v=0
40440 On ch=1 n=62 v=100
40560 On ch=1 n=62 v=0
40560 On ch=1 n=62 v=0
40560 On ch=1 n=82 v=100
40680 On ch=1 n=80 v=100
40800 On ch=1 n=73 v=100
40920 On ch=1 n=73 v=0
40920 On ch=1 n=73 v=0
40920 On ch=1 n=63 v=100
41040 On ch=1 n=63 v=0
41040 On ch=1 n=63 v=0
41040 On ch=1 n=63 v=0
41040 On ch=1 n=63 v=0
41040 On ch=1 n=63 v=100
41160 On ch=1 n=72 v=100
41280 On ch=1 n=72 v=0
41280 On ch=1 n=62 v=100
41400 On ch=1 n=62 v=0
41400 On ch=1 n=62 v=0
41400 On ch=1 n=62 v=0
41400 On ch=1 n=62 v=0
41400 On ch=1 n=62 v=0
41400 On ch=1 n=62 v=0
41400 On ch=1 n=62 v=0
41400 On ch=1 n=62 v=0
41400 On ch=1 n=62 v=0
41400 On ch=1 n=62 v=0
41400 On ch=1 n=62 v=0
41400 On ch=1 n=62 v=0
41400 On ch=1 n=62 v=0
41400 On ch=1 n=64 v=100
41520 On ch=1 n=64 v=0
41520 On ch=1 n=64 v=0
41520 On ch=1 n=64 v=0
41520 On ch=1 n=79 v=100
41640 On ch=1 n=79 v=0
41640 On ch=1 n=79 v=0
41640 On ch=1 n=82 v=100
41760 On ch=1 n=82 v=0
41760 On ch=1 n=62 v=100
41880 On ch=1 n=62 v=0
41880 On ch=1 n=62 v=0
41880 On ch=1 n=67 v=100
42000 On ch=1 n=67 v=0
42000 On ch=1 n=67 v=0
42000 On ch=1 n=67 v=0
42000 On ch=1 n=67 v=0
42000 On ch=1 n=67 v=0
42000 On ch=1 n=67 v=0
42000 On ch=1 n=64 v=100
42120 On ch=1 n=64 v=0
42120 On ch=1 n=71 v=100
42240 On ch=1 n=71 v=0
42240 On ch=1 n=76 v=100
42360 On ch=1 n=85 v=100
42480 On ch=1 n=85 v=0
42480 On ch=1 n=69 v=100
42600 On ch=1 n=69 v=0
42600 On ch=1 n=69 v=0
42600 On ch=1 n=70 v=100
42720 On ch=1 n=70 v=0
42720 On ch=1 n=70 v=0
42720 On ch=1 n=76 v=100
42840 On ch=1 n=72 v=100
42960 On ch=1 n=72 v=0
42960 On ch=1 n=72 v=0
42960 On ch=1 n=72 v=0
42960 On ch=1 n=72 v=0
42960 On ch=1 n=72 v=0
42960 On ch=1 n=69 v=100
43080 On ch=1 n=73 v=100
43200 On ch=1 n=73 v=0
43200 On ch=1 n=73 v=0
43200 On ch=1 n=73 v=0
43200 On ch=1 n=73 v=0
43200 On ch=1 n=73 v=0
43200 On ch=1 n=73 v=0
43200 On ch=1 n=73 v=0
43200 On ch=1 n=73 v=0
43200 On ch=1 n=73 v=0
43200 On ch=1 n=73 v=0
43200 On ch=1 n=69 v=100
43320 On ch=1 n=69 v=0
43320 On ch=1 n=67 v=100
43440 On ch=1 n=67 v=0
43440 On ch=1 n=67 v=0
43440 On ch=1 n=74 v=100
43560 On ch=1 n=74 v=0
43560 On ch=1 n=74 v=100
43680 On ch=1 n=74 v=0
43680 On ch=1 n=74 v=0
43680 On ch=1 n=61 v=100
43800 On ch=1 n=61 v=0
43800 On ch=1 n=77 v=100
43920 On ch=1 n=77 v=0
43920 On ch=1 n=68 v=100
44040 On ch=1 n=79 v=100
44160 On ch=1 n=79 v=0
44160 On ch=1 n=79 v=0
44160 On ch=1 n=81 v=100
44280 On ch=1 n=70 v=100
44400 On ch=1 n=70 v=0
44400 On ch=1 n=70 v=0
44400 On ch=1 n=63 v=100
44520 On ch=1 n=63 v=0
44520 On ch=1 n=63 v=0
44520 On ch=1 n=83 v=100
44640 On ch=1 n=83 v=0
44640 On ch=1 n=83 v=0
44640 On ch=1 n=67 v=100
44760 On ch=1 n=67 v=0
44760 On ch=1 n=71 v=100
44880 On ch=1 n=63 v=100
45000 On ch=1 n=69 v=100
45120 On ch=1 n=69 v=0
45120 On ch=1 n=64 v=100
45240 On ch=1 n=76 v=100
45360 On ch=1 n=78 v=100
45480 On ch=1 n=78 v=0
45480 On ch=1 n=78 v=100
45600 On ch=1 n=78 v=0
45600 On ch=1 n=78 v=0
45600 On ch=1 n=72 v=100
45720 On ch=1 n=72 v=0
45720 On ch=1 n=72 v=0
45720 On ch=1 n=72 v=0
45720 On ch=1 n=72 v=0
45720 On ch=1 n=72 v=0
45720 On ch=1 n=72 v=0
45720 On ch=1 n=77 v=100
45840 On ch=1 n=77 v=0
45840 On ch=1 n=77 v=0
45840 On ch=1 n=77 v=0
45840 On ch=1 n=77 v=0
45840 On ch=1 n=77 v=0
45840 On ch=1 n=77 v=0
45840 On ch=1 n=77 v=100
45960 On ch=1 n=77 v=0
45960 On ch=1 n=77 v=0
45960 On ch=1 n=67 v=100
46080 On ch=1 n=67 v=0
46080 On ch=1 n=67 v=0
46080 On ch=1 n=67 v=0
46080 On ch=1 n=67 v=0
46080 On ch=1 n=67 v=0
46080 On ch=1 n=67 v=0
46080 On ch=1 n=67 v=0
46080 On ch=1 n=64 v=100
46200 On ch=1 n=64 v=0
46200 On ch=1 n=64 v=0
46200 On ch=1 n=64 v=0
46200 On ch=1 n=79 v=100
46320 On ch=1 n=66 v=100
46440 On ch=1 n=66 v=0
46440 On ch=1 n=66 v=0
46440 On ch=1 n=69 v=100
46560 On ch=1 n=69 v=0
46560 On ch=1 n=71 v=100
46680 On ch=1 n=71 v=0
46680 On ch=1 n=78 v=100
46800 On ch=1 n=85 v=100
46920 On ch=1 n=85 v=0
46920 On ch=1 n=85 v=0
46920 On ch=1 n=85 v=0
46920 On ch=1 n=85 v=0
46920 On ch=1 n=85 v=0
46920 On ch=1 n=82 v=100
47040 On ch=1 n=61 v=100
47160 On ch=1 n=73 v=100
47280 On ch=1 n=73 v=0
47280 On ch=1 n=73 v=0
47280 On ch=1 n=73 v=0
47280 On ch=1 n=73 v=0
47280 On ch=1 n=73 v=0
47280 On ch=1 n=83 v=100
47400 On ch=1 n=83 v=0
47400 On ch=1 n=83 v=0
47400 On ch=1 n=83 v=0
47400 On ch=1 n=83 v=0
47400 On ch=1 n=83 v=0
47400 On ch=1 n=83 v=0
47400 On ch=1 n=79 v=100
47520 On ch=1 n=79 v=0
47520 On ch=1 n=68 v=100
47640 On ch=1 n=68 v=100
47760 On ch=1 n=75 v=100
47880 On ch=1 n=75 v=0
47880 On ch=1 n=76 v=100
48000 On ch=1 n=65 v=100
48120 On ch=1 n=65 v=0
48120 On ch=1 n=83 v=100
48240 On ch=1 n=83 v=0
48240 On ch=1 n=83 v=0
48240 On ch=1 n=81 v=100
48360 On ch=1 n=81 v=0
48360 On ch=1 n=79 v=100
48480 On ch=1 n=79 v=0
48480 On ch=1 n=80 v=100
48600 On ch=1 n=65 v=100
48720 On ch=1 n=65 v=0
48720 On ch=1 n=74 v=100
48840 On ch=1 n=74 v=0
48840 On ch=1 n=75 v=100
48960 On ch=1 n=75 v=0
48960 On ch=1 n=76 v=100
49080 On ch=1 n=76 v=0
49080 On ch=1 n=76 v=0
49080 On ch=1 n=70 v=100
49200 On ch=1 n=75 v=100
49320 On ch=1 n=75 v=0
49320 On ch=1 n=72 v=100
49440 On ch=1 n=72 v=0
49440 On ch=1 n=72 v=0
49440 On ch=1 n=72 v=0
49440 On ch=1 n=75 v=100
49560 On ch=1 n=75 v=0
49560 On ch=1 n=75 v=0
49560 On ch=1 n=75 v=0
49560 On ch=1 n=75 v=0
49560 On ch=1 n=73 v=100
49680 On ch=1 n=73 v=0
49680 On ch=1 n=73 v=0
49680 On ch=1 n=82 v=100
49800 On ch=1 n=82 v=0
49800 On ch=1 n=66 v=100
49920 On ch=1 n=66 v=0
49920 On ch=1 n=66 v=0
49920 On ch=1 n=66 v=0
49920 On ch=1 n=66 v=0
49920 On ch=1 n=66 v=0
49920 On ch=1 n=66 v=0
49920 On ch=1 n=77 v=100
50040 On ch=1 n=77 v=0
50040 On ch=1 n=77 v=0
50040 On ch=1 n=77 v=0
50040 On ch=1 n=77 v=0
50040 On ch=1 n=63 v=100
50160 On ch=1 n=63 v=0
50160 On ch=1 n=63 v=0
50160 On ch=1 n=63 v=0
50160 On ch=1 n=79 v=100
50280 On ch=1 n=79 v=0
50280 On ch=1 n=79 v=0
50280 On ch=1 n=71 v=100
50400 On ch=1 n=71 v=0
50400 On ch=1 n=83 v=100
50520 On ch=1 n=83 v=0
50520 On ch=1 n=63 v=100
50640 On ch=1 n=63 v=0
50640 On ch=1 n=63 v=0
50640 On ch=1 n=63 v=0
50640 On ch=1 n=63 v=0
50640 On ch=1 n=63 v=0
50640 On ch=1 n=63 v=0
50640 On ch=1 n=63 v=0
50640 On ch=1 n=63 v=0
50640 On ch=1 n=75 v=100
50760 On ch=1 n=65 v=100
50880 On ch=1 n=65 v=0
50880 On ch=1 n=65 v=0
50880 On ch=1 n=65 v=0
50880 On ch=1 n=65 v=0
50880 On ch=1 n=65 v=0
50880 On ch=1 n=65 v=0
50880 On ch=1 n=65 v=0
50880 On ch=1 n=65 v=0
50880 On ch=1 n=65 v=0
50880 On ch=1 n=65 v=0
50880 On ch=1 n=65 v=0
50880 On ch=1 n=65 v=0
50880 On ch=1 n=65 v=0
50880 On ch=1 n=65 v=0
50880 On ch=1 n=83 v=100
51000 On ch=1 n=83 v=0
51000 On ch=1 n=83 v=0
51000 On ch=1 n=81 v=100
51120 On ch=1 n=76 v=100
51240 On ch=1 n=76 v=0
51240 On ch=1 n=76 v=0
51240 On ch=1 n=70 v=100
51360 On ch=1 n=61 v=100
51480 On ch=1 n=61 v=0
51480 On ch=1 n=74 v=100
51600 On ch=1 n=68 v=100
51720 On ch=1 n=68 v=0
51720 On ch=1 n=68 v=0
51720 On ch=1 n=68 v=0
51720 On ch=1 n=71 v=100
51840 On ch=1 n=66 v=100
51960 On ch=1 n=77 v=100
52080 On ch=1 n=77 v=0
52080 On ch=1 n=77 v=0
52080 On ch=1 n=77 v=0
52080 On ch=1 n=77 v=0
52080 On ch=1 n=73 v=100
52200 On ch=1 n=80 v=100
52320 On ch=1 n=80 v=0
52320 On ch=1 n=80 v=0
52320 On ch=1 n=69 v=100
52440 On ch=1 n=69 v=0
52440 On ch=1 n=69 v=0
52440 On ch=1 n=73 v=100
52560 On ch=1 n=73 v=100
52680 On ch=1 n=73 v=0
52680 On ch=1 n=73 v=0
52680 On ch=1 n=73 v=0
52680 On ch=1 n=73 v=0
52680 On ch=1 n=62 v=100
52800 On ch=1 n=62 v=0
52800 On ch=1 n=62 v=0
52800 On ch=1 n=72 v=100
52920 On ch=1 n=72 v=0
52920 On ch=1 n=72 v=0
52920 On ch=1 n=72 v=0
52920 On ch=1 n=72 v=0
52920 On ch=1 n=72 v=0
52920 On ch=1 n=72 v=0
52920 On ch=1 n=76 v=100
53040 On ch=1 n=76 v=0
53040 On ch=1 n=79 v=100
53160 On ch=1 n=79 v=0
53160 On ch=1 n=79 v=0
53160 On ch=1 n=63 v=100
53280 On ch=1 n=63 v=0
53280 On ch=1 n=63 v=0
53280 On ch=1 n=63 v=0
53280 On ch=1 n=68 v=100
53400 On ch=1 n=68 v=0
53400 On ch=1 n=68 v=0
53400 On ch=1 n=82 v=100
53520 On ch=1 n=82 v=0
53520 On ch=1 n=82 v=0
53520 On ch=1 n=82 v=0
53520 On ch=1 n=80 v=100
53640 On ch=1 n=80 v=0
53640 On ch=1 n=80 v=0
53640 On ch=1 n=80 v=0
53640 On ch=1 n=64 v=100
53760 On ch=1 n=71 v=100
53880 On ch=1 n=71 v=0
53880 On ch=1 n=71 v=0
53880 On ch=1 n=71 v=0
53880 On ch=1 n=71 v=0
53880 On ch=1 n=71 v=0
53880 On ch=1 n=71 v=0
53880 On ch=1 n=71 v=0
53880 On ch=1 n=71 v=0
53880 On ch=1 n=73 v=100
54000 On ch=1 n=80 v=100
54120 On ch=1 n=80 v=0
54120 On ch=1 n=80 v=0
54120 On ch=1 n=80 v=0
54120 On ch=1 n=80 v=0
54120 On ch=1 n=80 v=0
54120 On ch=1 n=80 v=0
54120 On ch=1 n=80 v=0
54120 On ch=1 n=64 v=100
54240 On ch=1 n=64 v=0
54240 On ch=1 n=64 v=0
54240 On ch=1 n=64 v=0
54240 On ch=1 n=64 v=0
54240 On ch=1 n=85 v=100
54360 On ch=1 n=61 v=100
54480 On ch=1 n=76 v=100
54600 On ch=1 n=76 v=0
54600 On ch=1 n=72 v=100
54720 On ch=1 n=72 v=0
54720 On ch=1 n=76 v=100
54840 On ch=1 n=76 v=0
54840 On ch=1 n=76 v=0
54840 On ch=1 n=66 v=100
54960 On ch=1 n=66 v=0
54960 On ch=1 n=66 v=0
54960 On ch=1 n=82 v=100
55080 On ch=1 n=82 v=0
55080 On ch=1 n=82 v=0
55080 On ch=1 n=82 v=0
55080 On ch=1 n=82 v=0
55080 On ch=1 n=82 v=0
55080 On ch=1 n=82 v=0
55080 On ch=1 n=64 v=100
55200 On ch=1 n=64 v=0
55200 On ch=1 n=64 v=0
55200 On ch=1 n=62 v=100
55320 On ch=1 n=62 v=0
55320 On ch=1 n=70 v=100
55440 On ch=1 n=70 v=0
55440 On ch=1 n=70 v=0
55440 On ch=1 n=70 v=0
55440 On ch=1 n=70 v=0
55440 On ch=1 n=70 v=0
55440 On ch=1 n=70 v=0
55440 On ch=1 n=70 v=0
55440 On ch=1 n=70 v=0
55440 On ch=1 n=70 v=0
55440 On ch=1 n=70 v=0
55440 On ch=1 n=62 v=100
55560 On ch=1 n=82 v=100
55680 On ch=1 n=82 v=0
55680 On ch=1 n=83 v=100
55800 On ch=1 n=83 v=0
55800 On ch=1 n=83 v=0
55800 On ch=1 n=83 v=0
55800 On ch=1 n=83 v=0
55800 On ch=1 n=83 v=0
55800 On ch=1 n=83 v=0
55800 On ch=1 n=64 v=100
55920 On ch=1 n=64 v=0
55920 On ch=1 n=67 v=100
56040 On ch=1 n=67 v=0
56040 On ch=1 n=67 v=0
56040 On ch=1 n=67 v=0
56040 On ch=1 n=67 v=0
56040 On ch=1 n=66 v=100
56160 On ch=1 n=66 v=0
56160 On ch=1 n=66 v=0
56160 On ch=1 n=73 v=100
56280 On ch=1 n=73 v=0
56280 On ch=1 n=73 v=0
56280 On ch=1 n=73 v=0
56280 On ch=1 n=73 v=0
56280 On ch=1 n=73 v=0
56280 On ch=1 n=75 v=100
56400 On ch=1 n=75 v=0
56400 On ch=1 n=75 v=100
56520 On ch=1 n=75 v=0
56520 On ch=1 n=75 v=0
56520 On ch=1 n=75 v=0
56520 On ch=1 n=75 v=0
56520 On ch=1 n=75 v=0
56520 On ch=1 n=75 v=0
56520 On ch=1 n=75 v=0
56520 On ch=1 n=75 v=0
56520 On ch=1 n=66 v=100
56640 On ch=1 n=62 v=100
56760 On ch=1 n=62 v=0
56760 On ch=1 n=82 v=100
56880 On ch=1 n=73 v=100
57000 On ch=1 n=73 v=0
57000 On ch=1 n=63 v=100
57120 On ch=1 n=63 v=0
57120 On ch=1 n=79 v=100
57240 On ch=1 n=77 v=100
57360 On ch=1 n=77 v=0
57360 On ch=1 n=76 v=100
57480 On ch=1 n=76 v=0
57480 On ch=1 n=76 v=0
57480 On ch=1 n=76 v=0
57480 On ch=1 n=76 v=100
57600 On ch=1 n=76 v=0
57600 On ch=1 n=76 v=0
57600 On ch=1 n=64 v=100
57720 On ch=1 n=79 v=100
57840 On ch=1 n=82 v=100
57960 On ch=1 n=82 v=0
57960 On ch=1 n=82 v=0
57960 On ch=1 n=82 v=0
57960 On ch=1 n=82 v=0
57960 On ch=1 n=82 v=0
57960 On ch=1 n=82 v=0
57960 On ch=1 n=82 v=0
57960 On ch=1 n=82 v=0
57960 On ch=1 n=82 v=0
57960 On ch=1 n=82 v=100
58080 On ch=1 n=82 v=0
58080 On ch=1 n=82 v=0
58080 On ch=1 n=62 v=100
58200 On ch=1 n=62 v=0
58200 On ch=1 n=62 v=0
58200 On ch=1 n=62 v=0
58200 On ch=1 n=62 v=0
58200 On ch=1 n=62 v=0
58200 On ch=1 n=62 v=0
58200 On ch=1 n=62 v=0
58200 On ch=1 n=77 v=100
58320 On ch=1 n=77 v=0
58320 On ch=1 n=77 v=0
58320 On ch=1 n=77 v=0
58320 On ch=1 n=68 v=100
58440 On ch=1 n=68 v=0
58440 On ch=1 n=80 v=100
58560 On ch=1 n=80 v=0
58560 On ch=1 n=85 v=100
58680 On ch=1 n=85 v=0
58680 On ch=1 n=85 v=0
58680 On ch=1 n=83 v=100
58800 On ch=1 n=83 v=0
58800 On ch=1 n=83 v=0
58800 On ch=1 n=83 v=0
58800 On ch=1 n=83 v=0
58800 On ch=1 n=83 v=0
58800 On ch=1 n=70 v=100
58920 On ch=1 n=82 v=100
59040 On ch=1 n=82 v=0
59040 On ch=1 n=82 v=0
59040 On ch=1 n=65 v=100
59160 On ch=1 n=61 v=100
59280 On ch=1 n=61 v=0
59280 On ch=1 n=61 v=0
59280 On ch=1 n=61 v=0
59280 On ch=1 n=61 v=0
59280 On ch=1 n=61 v=0
59280 On ch=1 n=62 v=100
59400 On ch=1 n=62 v=0
59400 On ch=1 n=66 v=100
59520 On ch=1 n=82 v=100
59640 On ch=1 n=82 v=0
59640 On ch=1 n=82 v=0
59640 On ch=1 n=63 v=100
59760 On ch=1 n=61 v=100
59880 On ch=1 n=80 v=100
60000 On ch=1 n=80 v=0
60000 On ch=1 n=80 v=0
60000 On ch=1 n=71 v=100
60120 On ch=1 n=71 v=0
60120 On ch=1 n=71 v=0
60120 On ch=1 n=71 v=0
60120 On ch=1 n=71 v=0
60120 On ch=1 n=71 v=0
60120 On ch=1 n=73 v=100
60240 On ch=1 n=73 v=0
60240 On ch=1 n=73 v=0
60240 On ch=1 n=73 v=0
60240 On ch=1 n=73 v=0
60240 On ch=1 n=73 v=0
60240 On ch=1 n=82 v=100
60360 On ch=1 n=79 v=100
60480 On ch=1 n=79 v=0
60480 On ch=1 n=70 v=100
60600 On ch=1 n=70 v=0
60600 On ch=1 n=70 v=0
60600 On ch=1 n=70 v=0
60600 On ch=1 n=63 v=100
60720 On ch=1 n=63 v=0
60720 On ch=1 n=63 v=0
60720 On ch=1 n=63 v=0
60720 On ch=1 n=63 v=0
60720 On ch=1 n=63 v=0
60720 On ch=1 n=63 v=0
60720 On ch=1 n=63 v=0
60720 On ch=1 n=68 v=100
60840 On ch=1 n=68 v=0
60840 On ch=1 n=68 v=0
60840 On ch=1 n=79 v=100
60960 On ch=1 n=79 v=0
60960 On ch=1 n=79 v=0
60960 On ch=1 n=79 v=0
60960 On ch=1 n=79 v=0
60960 On ch=1 n=79 v=0
60960 On ch=1 n=74 v=100
61080 On ch=1 n=74 v=0
61080 On ch=1 n=74 v=0
61080 On ch=1 n=74 v=0
61080 On ch=1 n=74 v=0
61080 On ch=1 n=74 v=0
61080 On ch=1 n=74 v=0
61080 On ch=1 n=74 v=0
61080 On ch=1 n=85 v=100
61200 On ch=1 n=85 v=0
61200 On ch=1 n=85 v=0
61200 On ch=1 n=85 v=0
61200 On ch=1 n=85 v=0
61200 On ch=1 n=85 v=0
61200 On ch=1 n=85 v=0
61200 On ch=1 n=85 v=0
61200 On ch=1 n=85 v=0
61200 On ch=1 n=85 v=0
61200 On ch=1 n=70 v=100
61320 On ch=1 n=70 v=0
61320 On ch=1 n=70 v=0
61320 On ch=1 n=70 v=0
61320 On ch=1 n=70 v=0
61320 On ch=1 n=78 v=100
61440 On ch=1 n=81 v=100
61560 On ch=1 n=69 v=100
61680 On ch=1 n=69 v=0
61680 On ch=1 n=69 v=0
61680 On ch=1 n=74 v=100
61800 On ch=1 n=73 v=100
61920 On ch=1 n=72 v=100
62040 On ch=1 n=72 v=0
62040 On ch=1 n=72 v=0
62040 On ch=1 n=72 v=0
62040 On ch=1 n=72 v=0
62040 On ch=1 n=72 v=0
62040 On ch=1 n=72 v=0
62040 On ch=1 n=83 v=100
62160 On ch=1 n=83 v=0
62160 On ch=1 n=83 v=0
62160 On ch=1 n=83 v=0
62160 On ch=1 n=73 v=100
62280 On ch=1 n=73 v=0
62280 On ch=1 n=73 v=0
62280 On ch=1 n=82 v=100
62400 On ch=1 n=82 v=0
62400 On ch=1 n=82 v=0
62400 On ch=1 n=82 v=0
62400 On ch=1 n=82 v=0
62400 On ch=1 n=81 v=100
62520 On ch=1 n=76 v=100
62640 On ch=1 n=76 v=0
62640 On ch=1 n=76 v=0
62640 On ch=1 n=77 v=100
62760 On ch=1 n=76 v=100
62880 On ch=1 n=76 v=0
62880 On ch=1 n=76 v=0
62880 On ch=1 n=76 v=0
62880 On ch=1 n=76 v=0
62880 On ch=1 n=78 v=100
63000 On ch=1 n=78 v=0
63000 On ch=1 n=78 v=0
63000 On ch=1 n=78 v=0
63000 On ch=1 n=78 v=0
63000 On ch=1 n=75 v=100
63120 On ch=1 n=75 v=0
63120 On ch=1 n=80 v=100
63240 On ch=1 n=80 v=0
63240 On ch=1 n=83 v=100
63360 On ch=1 n=62 v=100
63480 On ch=1 n=78 v=100
63600 On ch=1 n=78 v=0
63600 On ch=1 n=78 v=0
63600 On ch=1 n=82 v=100
63720 On ch=1 n=82 v=0
63720 On ch=1 n=82 v=0
63720 On ch=1 n=74 v=100
63840 On ch=1 n=74 v=0
63840 On ch=1 n=70 v=100
63960 On ch=1 n=70 v=0
63960 On ch=1 n=70 v=0
63960 On ch=1 n=78 v=100
64080 On ch=1 n=78 v=0
64080 On ch=1 n=78 v=0
64080 On ch=1 n=78 v=0
64080 On ch=1 n=78 v=0
64080 On ch=1 n=78 v=0
64080 On ch=1 n=70 v=100
64200 On ch=1 n=70 v=0
64200 On ch=1 n=70 v=0
64200 On ch=1 n=70 v=0
64200 On ch=1 n=70 v=0
64200 On ch=1 n=70 v=0
64200 On ch=1 n=70 v=0
64200 On ch=1 n=70 v=0
64200 On ch=1 n=68 v=100
64320 On ch=1 n=85 v=100
64440 On ch=1 n=76 v=100
64560 On ch=1 n=85 v=100
64680 On ch=1 n=85 v=0
64680 On ch=1 n=85 v=0
64680 On ch=1 n=85 v=0
64680 On ch=1 n=74 v=100
64800 On ch=1 n=75 v=100
64920 On ch=1 n=75 v=0
64920 On ch=1 n=75 v=0
64920 On ch=1 n=75 v=0
64920 On ch=1 n=71 v=100
65040 On ch=1 n=71 v=0
65040 On ch=1 n=71 v=0
65040 On ch=1 n=71 v=0
65040 On ch=1 n=71 v=0
65040 On ch=1 n=71 v=0
65040 On ch=1 n=63 v=100
65160 On ch=1 n=63 v=0
65160 On ch=1 n=63 v=0
65160 On ch=1 n=63 v=0
65160 On ch=1 n=63 v=0
65160 On ch=1 n=77 v=100
65280 On ch=1 n=77 v=0
65280 On ch=1 n=77 v=0
65280 On ch=1 n=77 v=0
65280 On ch=1 n=77 v=0
65280 On ch=1 n=77 v=0
65280 On ch=1 n=77 v=0
65280 On ch=1 n=77 v=0
65280 On ch=1 n=77 v=0
65280 On ch=1 n=77 v=0
65280 On ch=1 n=77 v=0
65280 On ch=1 n=79 v=100
65400 On ch=1 n=79 v=0
65400 On ch=1 n=79 v=0
65400 On ch=1 n=79 v=0
65400 On ch=1 n=79 v=0
65400 On ch=1 n=79 v=0
65400 On ch=1 n=79 v=0
65400 On ch=1 n=79 v=0
65400 On ch=1 n=79 v=0
65400 On ch=1 n=79 v=0
65400 On ch=1 n=69 v=100
65520 On ch=1 n=69 v=0
65520 On ch=1 n=69 v=0
65520 On ch=1 n=69 v=0
65520 On ch=1 n=69 v=0
65520 On ch=1 n=69 v=0
65520 On ch=1 n=69 v=0
65520 On ch=1 n=69 v=0
65520 On ch=1 n=69 v=0
65520 On ch=1 n=69 v=0
65520 On ch=1 n=69 v=0
65520 On ch=1 n=77 v=100
65640 On ch=1 n=77 v=0
65640 On ch=1 n=77 v=0
65640 On ch=1 n=77 v=0
65640 On ch=1 n=77 v=0
65640 On ch=1 n=77 v=0
65640 On ch=1 n=77 v=0
65640 On ch=1 n=77 v=0
65640 On ch=1 n=77 v=0
65640 On ch=1 n=69 v=100
65760 On ch=1 n=61 v=100
65880 On ch=1 n=61 v=0
65880 On ch=1 n=61 v=0
65880 On ch=1 n=61 v=0
65880 On ch=1 n=83 v=100
66000 On ch=1 n=83 v=0
66000 On ch=1 n=83 v=0
66000 On ch=1 n=83 v=0
66000 On ch=1 n=65 v=100
66120 On ch=1 n=65 v=0
66120 On ch=1 n=69 v=100
66240 On ch=1 n=75 v=100
66360 On ch=1 n=76 v=100
66480 On ch=1 n=76 v=0
66480 On ch=1 n=76 v=0
66480 On ch=1 n=76 v=0
66480 On ch=1 n=76 v=0
66480 On ch=1 n=76 v=0
66480 On ch=1 n=85 v=100
66600 On ch=1 n=85 v=0
66600 On ch=1 n=85 v=0
66600 On ch=1 n=85 v=0
66600 On ch=1 n=80 v=100
66720 On ch=1 n=80 v=0
66720 On ch=1 n=66 v=100
66840 On ch=1 n=69 v=100
66960 On ch=1 n=69 v=0
66960 On ch=1 n=74 v=100
67080 On ch=1 n=74 v=0
67080 On ch=1 n=66 v=100
67200 On ch=1 n=81 v=100
67320 On ch=1 n=81 v=0
67320 On ch=1 n=69 v=100
67440 On ch=1 n=69 v=0
67440 On ch=1 n=69 v=0
67440 On ch=1 n=71 v=100
67560 On ch=1 n=71 v=0
67560 On ch=1 n=71 v=0
67560 On ch=1 n=71 v=0
67560 On ch=1 n=61 v=100
67680 On ch=1 n=61 v=0
67680 On ch=1 n=61 v=0
67680 On ch=1 n=61 v=0
67680 On ch=1 n=61 v=0
67680 On ch=1 n=61 v=0
67680 On ch=1 n=78 v=100
67800 On ch=1 n=81 v=100
67920 On ch=1 n=65 v=100
68040 On ch=1 n=65 v=0
68040 On ch=1 n=68 v=100
68160 On ch=1 n=68 v=0
68160 On ch=1 n=68 v=0
68160 On ch=1 n=68 v=0
68160 On ch=1 n=68 v=0
68160 On ch=1 n=68 v=0
68160 On ch=1 n=68 v=0
68160 On ch=1 n=68 v=0
68160 On ch=1 n=68 v=0
68160 On ch=1 n=68 v=0
68160 On ch=1 n=68 v=0
68160 On ch=1 n=68 v=0
68160 On ch=1 n=68 v=0
68160 On ch=1 n=68 v=0
68160 On ch=1 n=68 v=0
68160 On ch=1 n=68 v=0
68160 On ch=1 n=73 v=100
68280 On ch=1 n=73 v=0
68280 On ch=1 n=73 v=0
68280 On ch=1 n=62 v=100
68400 On ch=1 n=62 v=0
68400 On ch=1 n=62 v=0
68400 On ch=1 n=65 v=100
68520 On ch=1 n=70 v=100
68640 On ch=1 n=62 v=100
68760 On ch=1 n=63 v=100
68880 On ch=1 n=63 v=0
68880 On ch=1 n=63 v=0
68880 On ch=1 n=75 v=100
69000 On ch=1 n=75 v=0
69000 On ch=1 n=75 v=0
69000 On ch=1 n=75 v=0
69000 On ch=1 n=75 v=0
69000 On ch=1 n=75 v=0
69000 On ch=1 n=72 v=100
69120 On ch=1 n=67 v=100
69240 On ch=1 n=67 v=0
69240 On ch=1 n=74 v=100
69360 On ch=1 n=74 v=0
69360 On ch=1 n=74 v=0
69360 On ch=1 n=74 v=0
69360 On ch=1 n=74 v=0
69360 On ch=1 n=68 v=100
69480 On ch=1 n=68 v=0
69480 On ch=1 n=77 v=100
69600 On ch=1 n=77 v=0
69600 On ch=1 n=77 v=0
69600 On ch=1 n=77 v=0
69600 On ch=1 n=77 v=0
69600 On ch=1 n=77 v=0
69600 On ch=1 n=77 v=0
69600 On ch=1 n=77 v=0
69600 On ch=1 n=77 v=0
69600 On ch=1 n=77 v=0
69600 On ch=1 n=77 v=0
69600 On ch=1 n=77 v=0
69600 On ch=1 n=77 v=0
69600 On ch=1 n=77 v=0
69600 On ch=1 n=77 v=0
69600 On ch=1 n=77 v=0
69600 On ch=1 n=76 v=100
69720 On ch=1 n=77 v=100
69840 On ch=1 n=77 v=0
69840 On ch=1 n=77 v=0
69840 On ch=1 n=77 v=0
69840 On ch=1 n=77 v=0
69840 On ch=1 n=66 v=100
69960 On ch=1 n=66 v=0
69960 On ch=1 n=66 v=0
69960 On ch=1 n=66 v=0
69960 On ch=1 n=66 v=0
69960 On ch=1 n=66 v=0
69960 On ch=1 n=82 v=100
70080 On ch=1 n=82 v=0
70080 On ch=1 n=82 v=0
70080 On ch=1 n=82 v=0
70080 On ch=1 n=82 v=0
70080 On ch=1 n=76 v=100
70200 On ch=1 n=62 v=100
70320 On ch=1 n=62 v=0
70320 On ch=1 n=74 v=100
70440 On ch=1 n=74 v=0
70440 On ch=1 n=78 v=100
70560 On ch=1 n=78 v=0
70560 On ch=1 n=78 v=0
70560 On ch=1 n=70 v=100
70680 On ch=1 n=70 v=0
70680 On ch=1 n=70 v=0
70680 On ch=1 n=70 v=0
70680 On ch=1 n=70 v=0
70680 On ch=1 n=76 v=100
70800 On ch=1 n=76 v=0
70800 On ch=1 n=76 v=0
70800 On ch=1 n=76 v=0
70800 On ch=1 n=76 v=0
70800 On ch=1 n=76 v=0
70800 On ch=1 n=76 v=0
70800 On ch=1 n=76 v=0
70800 On ch=1 n=76 v=0
70800 On ch=1 n=62 v=100
70920 On ch=1 n=62 v=0
70920 On ch=1 n=62 v=0
70920 On ch=1 n=83 v=100
71040 On ch=1 n=83 v=0
71040 On ch=1 n=83 v=0
71040 On ch=1 n=83 v=0
71040 On ch=1 n=69 v=100
71160 On ch=1 n=69 v=0
71160 On ch=1 n=69 v=0
71160 On ch=1 n=69 v=0
71160 On ch=1 n=69 v=0
71160 On ch=1 n=69 v=0
124800 Meta TrkEnd
TrkEnd
MTrk
0 Meta 0x21 00
0 Meta TrkName "--------------------------------------"
0 Meta TrkEnd
TrkEnd
MTrk
0 Meta 0x21 00
0 Meta TrkName "Johann Sebastian Bach  (1685-1750)"
0 Meta TrkEnd
TrkEnd
MTrk
0 Meta 0x21 00
0 Meta TrkName "--------------------------------------"
0 Meta TrkEnd
TrkEnd
MTrk
0 Meta 0x21 00
0 Meta TrkName "Partita in A minor for Solo Flute - BWV 1013"
0 Meta TrkEnd
TrkEnd
MTrk
0 Meta 0x21 00
0 Meta TrkName "--------------------------------------"
0 Meta TrkEnd
TrkEnd
MTrk
0 Meta 0x21 00
0 Meta TrkName "1st Movement: Allemande"
0 Meta TrkEnd
TrkEnd
MTrk
0 Meta 0x21 00
0 Meta TrkName "--------------------------------------"
0 Meta TrkEnd
TrkEnd
MTrk
0 Meta 0x21 00
0 Meta TrkName "Sequenced with Cakewalk Pro Audio by"
0 Meta TrkEnd
TrkEnd
MTrk
0 Meta 0x21 00
0 Meta TrkName "David J. Grossman - dave@unpronounceable.com"
0 Meta TrkEnd
TrkEnd
MTrk
0 Meta 0x21 00
0 Meta TrkName "This and other Bach MIDI files can be found at:"
0 Meta TrkEnd
TrkEnd
MTrk
0 Meta 0x21 00
0 Meta TrkName "Dave's J.S. Bach Page"
0 Meta TrkEnd
TrkEnd
MTrk
0 Meta 0x21 00
0 Meta TrkName "http://www.unpronounceable.com/bach"
0 Meta TrkEnd
TrkEnd
MTrk
0 Meta 0x21 00
0 Meta TrkName "--------------------------------------"
0 Meta TrkEnd
TrkEnd
MTrk
0 Meta 0x21 00
0 Meta TrkName "Original Filename: fp-1all.mid"
0 Meta TrkEnd
TrkEnd
MTrk
0 Meta 0x21 00
0 Meta TrkName "Last Modified: March 1, 1997"
0 Meta TrkEnd
TrkEnd