[
  {
    "subtype": "noteOn",
    "velocity": 0,
    "type": "channel",
    "noteNumber": 68,
    "channel": 0,
    "deltaTime": 120
  },
  {
    "subtype": "noteOn",
    "velocity": 0,
    "type": "channel",
    "noteNumber": 68,
    "channel": 0,
    "deltaTime": 120
  },
  {
    "subtype": "noteOn",
    "velocity": 0,
    "type": "channel",
    "noteNumber": 64,
    "channel": 0,
    "deltaTime": 120
  },
  {
    "subtype": "noteOn",
    "velocity": 0,
    "type": "channel",
    "noteNumber": 64,
    "channel": 0,
    "deltaTime": 120
  },
  {
    "subtype": "noteOn",
    "velocity": 0,
    "type": "channel",
    "noteNumber": 73,
    "channel": 0,
    "deltaTime": 120
  },
  {
    "subtype": "noteOn",
    "velocity": 0,
    "type": "channel",
    "noteNumber": 73,
    "channel": 0,
    "deltaTime": 120
  },
  {
    "subtype": "noteOn",
    "velocity": 0,
    "type": "channel",
    "noteNumber": 67,
    "channel": 0,
    "deltaTime": 120
  },
  {
    "subtype": "noteOn",
    "velocity": 0,
    "type": "channel",
    "noteNumber": 67,
    "channel": 0,
    "deltaTime": 120
  },
  {
    "subtype": "noteOn",
    "velocity": 0,
    "type": "channel",
    "noteNumber": 68,
    "channel": 0,
    "deltaTime": 120
  },
  {
    "subtype": "noteOn",
    "velocity": 0,
    "type": "channel",
    "noteNumber": 68,
    "channel": 0,
    "deltaTime": 120
  },
  {
    "subtype": "noteOn",
    "velocity": 0,
    "type": "channel",
    "noteNumber": 63,
    "channel": 0,
    "deltaTime": 120
  },
  {
    "subtype": "noteOn",
    "velocity": 0,
    "type": "channel",
    "noteNumber": 63,
    "channel": 0,
    "deltaTime": 120
  },
  {
    "subtype": "noteOn",
    "velocity": 0,
    "type": "channel",
    "noteNumber": 71,
    "channel": 0,
    "deltaTime": 120
  },
  {
    "subtype": "noteOn",
    "velocity": 0,
    "type": "channel",
    "noteNumber": 71,
    "channel": 0,
    "deltaTime": 120
  },
  {
    "subtype": "noteOn",
    "velocity": 0,
    "type": "channel",
    "noteNumber": 67,
    "channel": 0,
    "deltaTime": 120
  },
  {
    "subtype": "noteOn",
    "velocity": 0,
    "type": "channel",
    "noteNumber": 67,
    "channel": 0,
    "deltaTime": 120
  },
  {
    "subtype": "noteOff",
    "velocity": 0,
    "type": "channel",
    "noteNumber": 67,
    "channel": 0,
    "deltaTime": 0
  },
  {
    "subtype": "noteOn",
    "velocity": 0,
    "type": "channel",
    "noteNumber": 68,
    "channel": 0,
    "deltaTime": 120
  },
  {
    "subtype": "noteOn",
    "velocity": 0,
    "type": "channel",
    "noteNumber": 73,
    "channel": 0,
    "deltaTime": 120
  },
  {
    "subtype": "noteOn",
    "velocity": 0,
    "type": "channel",
    "noteNumber": 73,
    "channel": 0,
    "deltaTime": 120
  },
  {
    "subtype": "noteOn",
    "velocity": 0,
    "type": "channel",
    "noteNumber": 70,
    "channel": 0,
    "deltaTime": 120
  },
  {
    "subtype": "noteOn",
    "velocity": 0,
    "type": "channel",
    "noteNumber": 70,
    "channel": 0,
    "deltaTime": 120
  },
  {
    "subtype": "noteOn",
    "velocity": 0,
    "type": "channel",
    "noteNumber": 70,
    "channel": 0,
    "deltaTime": 120
  },
  {
    "subtype": "noteOn",
    "velocity": 0,
    "type": "channel",
    "noteNumber": 70,
    "channel": 0,
    "deltaTime": 120
  },
  {
    "subtype": "noteOff",
    "velocity": 0,
    "type": "channel",
    "noteNumber": 70,
    "channel": 0,
    "deltaTime": 0
  },
  {
    "subtype": "noteOn",
    "velocity": 0,
    "type": "channel",
    "noteNumber": 66,
    "channel": 0,
    "deltaTime": 120
  },
  {
    "subtype": "noteOn",
    "velocity": 0,
    "type": "channel",
    "noteNumber": 63,
    "channel": 0,
    "deltaTime": 120
  },
  {
    "subtype": "noteOn",
    "velocity": 0,
    "type": "channel",
    "noteNumber": 63,
    "channel": 0,
    "deltaTime": 120
  },
  {
    "subtype": "noteOff",
    "velocity": 0,
    "type": "channel",
    "noteNumber": 63,
    "channel": 0,
    "deltaTime": 0
  },
  {
    "subtype": "noteOn",
    "velocity": 0,
    "type": "channel",
    "noteNumber": 78,
    "channel": 0,
    "deltaTime": 120
  },
  {
    "subtype": "noteOn",
    "velocity": 0,
    "type": "channel",
    "noteNumber": 75,
    "channel": 0,
    "deltaTime": 120
  },
  {
    "subtype": "noteOn",
    "velocity": 0,
    "type": "channel",
    "noteNumber": 75,
    "channel": 0,
    "deltaTime": 120
  },
  {
    "subtype": "noteOff",
    "velocity": 0,
    "type": "channel",
    "noteNumber": 75,
    "channel": 0,
    "deltaTime": 0
  },
  {
    "subtype": "noteOn",
    "velocity": 0,
    "type": "channel",
    "noteNumber": 76,
    "channel": 0,
    "deltaTime": 120
  },
  {
    "subtype": "noteOn",
    "velocity": 0,
    "type": "channel",
    "noteNumber": 78,
    "channel": 0,
    "deltaTime": 120
  },
  {
    "subtype": "noteOn",
    "velocity": 0,
    "type": "channel",
    "noteNumber": 78,
    "channel": 0,
    "deltaTime": 120
  },
  {
    "subtype": "noteOn",
    "velocity": 0,
    "type": "channel",
    "noteNumber": 63,
    "channel": 0,
    "deltaTime": 120
  },
  {
    "subtype": "noteOn",
    "velocity": 0,
    "type": "channel",
    "noteNumber": 63,
    "channel": 0,
    "deltaTime": 120
  },
  {
    "subtype": "noteOn",
    "velocity": 0,
    "type": "channel",
    "noteNumber": 71,
    "channel": 0,
    "deltaTime": 120
  },
  {
    "subtype": "noteOn",
    "velocity": 0,
    "type": "channel",
    "noteNumber": 71,
    "channel": 0,
    "deltaTime": 120
  },
  {
    "subtype": "noteOff",
    "velocity": 0,
    "type": "channel",
    "noteNumber": 71,
    "channel": 0,
    "deltaTime": 0
  },
  {
    "subtype": "noteOn",
    "velocity": 0,
    "type": "channel",
    "noteNumber": 76,
    "channel": 0,
    "deltaTime": 120
  },
  {
    "subtype": "noteOn",
    "velocity": 0,
    "type": "channel",
    "noteNumber": 75,
    "channel": 0,
    "deltaTime": 120
  },
  {
    "subtype": "noteOn",
    "velocity": 0,
    "type": "channel",
    "noteNumber": 75,
    "channel": 0,
    "deltaTime": 120
  },
  {
    "subtype": "noteOff",
    "velocity": 0,
    "type": "channel",
    "noteNumber": 75,
    "channel": 0,
    "deltaTime": 0
  },
  {
    "subtype": "noteOn",
    "velocity": 0,
    "type": "channel",
    "noteNumber": 73,
    "channel": 0,
    "deltaTime": 120
  },
  {
    "subtype": "noteOff",
    "velocity": 0,
    "type": "channel",
    "noteNumber": 73,
    "channel": 0,
    "deltaTime": 0
  },
  {
    "subtype": "noteOn",
    "velocity": 0,
    "type": "channel",
    "noteNumber": 71,
    "channel": 0,
    "deltaTime": 120
  },
  {
    "subtype": "noteOn",
    "velocity": 0,
    "type": "channel",
    "noteNumber": 71,
    "channel": 0,
    "deltaTime": 120
  },
  {
    "subtype": "noteOn",
    "velocity": 0,
    "type": "channel",
    "noteNumber": 71,
    "channel": 0,
    "deltaTime": 120
  },
  {
    "subtype": "noteOff",
    "velocity": 0,
    "type": "channel",
    "noteNumber": 71,
    "channel": 0,
    "deltaTime": 0
  },
  {
    "subtype": "noteOn",
    "velocity": 0,
    "type": "channel",
    "noteNumber": 70,
    "channel": 0,
    "deltaTime": 120
  },
  {
    "subtype": "noteOn",
    "velocity": 0,
    "type": "channel",
    "noteNumber": 68,
    "channel": 0,
    "deltaTime": 120
  },
  {
    "subtype": "noteOn",
    "velocity": 0,
    "type": "channel",
    "noteNumber": 68,
    "channel": 0,
    "deltaTime": 120
  },
  {
    "subtype": "noteOn",
    "velocity": 0,
    "type": "channel",
    "noteNumber": 67,
    "channel": 0,
    "deltaTime": 120
  },
  {
    "subtype": "noteOn",
    "velocity": 0,
    "type": "channel",
    "noteNumber": 67,
    "channel": 0,
    "deltaTime": 120
  },
  {
    "subtype": "noteOn",
    "velocity": 0,
    "type": "channel",
    "noteNumber": 68,
    "channel": 0,
    "deltaTime": 120
  },
  {
    "subtype": "noteOn",
    "velocity": 0,
    "type": "channel",
    "noteNumber": 68,
    "channel": 0,
    "deltaTime": 120
  },
  {
    "subtype": "noteOn",
    "velocity": 0,
    "type": "channel",
    "noteNumber": 70,
    "channel": 0,
    "deltaTime": 120
  },
  {
    "subtype": "noteOn",
    "velocity": 0,
    "type": "channel",
    "noteNumber": 70,
    "channel": 0,
    "deltaTime": 120
  },
  {
    "subtype": "noteOff",
    "velocity": 0,
    "type": "channel",
    "noteNumber": 70,
    "channel": 0,
    "deltaTime": 0
  },
  {
    "subtype": "noteOn",
    "velocity": 0,
    "type": "channel",
    "noteNumber": 73,
    "channel": 0,
    "deltaTime": 120
  },
  {
    "subtype": "noteOn",
    "velocity": 0,
    "type": "channel",
    "noteNumber": 75,
    "channel": 0,
    "deltaTime": 120
  },
  {
    "subtype": "noteOn",
    "velocity": 0,
    "type": "channel",
    "noteNumber": 75,
    "channel": 0,
    "deltaTime": 120
  },
  {
    "subtype": "noteOff",
    "velocity": 0,
    "type": "channel",
    "noteNumber": 75,
    "channel": 0,
    "deltaTime": 0
  },
  {
    "subtype": "noteOn",
    "velocity": 0,
    "type": "channel",
    "noteNumber": 73,
    "channel": 0,
    "deltaTime": 120
  },
  {
    "subtype": "noteOff",
    "velocity": 0,
    "type": "channel",
    "noteNumber": 73,
    "channel": 0,
    "deltaTime": 0
  },
  {
    "subtype": "noteOn",
    "velocity": 0,
    "type": "channel",
    "noteNumber": 70,
    "channel": 0,
    "deltaTime": 120
  },
  {
    "subtype": "noteOn",
    "velocity": 0,
    "type": "channel",
    "noteNumber": 71,
    "channel": 0,
    "deltaTime": 120
  },
  {
    "subtype": "noteOn",
    "velocity": 0,
    "type": "channel",
    "noteNumber": 71,
    "channel": 0,
    "deltaTime": 120
  },
  {
    "subtype": "noteOff",
    "velocity": 0,
    "type": "channel",
    "noteNumber": 71,
    "channel": 0,
    "deltaTime": 0
  },
  {
    "subtype": "noteOn",
    "velocity": 0,
    "type": "channel",
    "noteNumber": 68,
    "channel": 0,
    "deltaTime": 120
  },
  {
    "subtype": "noteOff",
    "velocity": 0,
    "type": "channel",
    "noteNumber": 68,
    "channel": 0,
    "deltaTime": 0
  },
  {
    "subtype": "noteOn",
    "velocity": 0,
    "type": "channel",
    "noteNumber": 62,
    "channel": 0,
    "deltaTime": 120
  },
  {
    "subtype": "noteOn",
    "velocity": 0,
    "type": "channel",
    "noteNumber": 77,
    "channel": 0,
    "deltaTime": 120
  },
  {
    "subtype": "noteOn",
    "velocity": 0,
    "type": "channel",
    "noteNumber": 77,
    "channel": 0,
    "deltaTime": 120
  },
  {
    "subtype": "noteOff",
    "velocity": 0,
    "type": "channel",
    "noteNumber": 77,
    "channel": 0,
    "deltaTime": 0
  },
  {
    "subtype": "noteOn",
    "velocity": 0,
    "type": "channel",
    "noteNumber": 79,
    "channel": 0,
    "deltaTime": 120
  },
  {
    "subtype": "noteOn",
    "velocity": 0,
    "type": "channel",
    "noteNumber": 80,
    "channel": 0,
    "deltaTime": 120
  },
  {
    "subtype": "noteOn",
    "velocity": 0,
    "type": "channel",
    "noteNumber": 80,
    "channel": 0,
    "deltaTime": 120
  },
  {
    "subtype": "noteOn",
    "velocity": 0,
    "type": "channel",
    "noteNumber": 82,
    "channel": 0,
    "deltaTime": 120
  },
  {
    "subtype": "noteOn",
    "velocity": 0,
    "type": "channel",
    "noteNumber": 82,
    "channel": 0,
    "deltaTime": 120
  },
  {
    "subtype": "noteOff",
    "velocity": 0,
    "type": "channel",
    "noteNumber": 82,
    "channel": 0,
    "deltaTime": 0
  },
  {
    "subtype": "noteOn",
    "velocity": 0,
    "type": "channel",
    "noteNumber": 83,
    "channel": 0,
    "deltaTime": 120
  },
  {
    "subtype": "noteOn",
    "velocity": 0,
    "type": "channel",
    "noteNumber": 82,
    "channel": 0,
    "deltaTime": 120
  },
  {
    "subtype": "noteOn",
    "velocity": 0,
    "type": "channel",
    "noteNumber": 82,
    "channel": 0,
    "deltaTime": 120
  },
  {
    "subtype": "noteOn",
    "velocity": 0,
    "type": "channel",
    "noteNumber": 80,
    "channel": 0,
    "deltaTime": 120
  },
  {
    "subtype": "noteOn",
    "velocity": 0,
    "type": "channel",
    "noteNumber": 80,
    "channel": 0,
    "deltaTime": 120
  },
  {
    "subtype": "noteOn",
    "velocity": 0,
    "type": "channel",
    "noteNumber": 78,
    "channel": 0,
    "deltaTime": 120
  },
  {
    "subtype": "noteOn",
    "velocity": 0,
    "type": "channel",
    "noteNumber": 78,
    "channel": 0,
    "deltaTime": 120
  },
  {
    "subtype": "noteOn",
    "velocity": 0,
    "type": "channel",
    "noteNumber": 77,
    "channel": 0,
    "deltaTime": 120
  },
  {
    "subtype": "noteOn",
    "velocity": 0,
    "type": "channel",
    "noteNumber": 77,
    "channel": 0,
    "deltaTime": 120
  },
  {
    "subtype": "noteOn",
    "velocity": 0,
    "type": "channel",
    "noteNumber": 75,
    "channel": 0,
    "deltaTime": 120
  },
  {
    "subtype": "noteOn",
    "velocity": 0,
    "type": "channel",
    "noteNumber": 75,
    "channel": 0,
    "deltaTime": 120
  },
  {
    "subtype": "noteOn",
    "velocity": 0,
    "type": "channel",
    "noteNumber": 74,
    "channel": 0,
    "deltaTime": 120
  },
  {
    "subtype": "noteOn",
    "velocity": 0,
    "type": "channel",
    "noteNumber": 74,
    "channel": 0,
    "deltaTime": 120
  },
  {
    "subtype": "noteOff",
    "velocity": 0,
    "type": "channel",
    "noteNumber": 74,
    "channel": 0,
    "deltaTime": 0
  },
  {
    "subtype": "noteOn",
    "velocity": 0,
    "type": "channel",
    "noteNumber": 75,
    "channel": 0,
    "deltaTime": 120
  },
  {
    "subtype": "noteOff",
    "velocity": 0,
    "type": "channel",
    "noteNumber": 75,
    "channel": 0,
    "deltaTime": 0
  },
  {
    "subtype": "noteOn",
    "velocity": 0,
    "type": "channel",
    "noteNumber": 66,
    "channel": 0,
    "deltaTime": 120
  },
  {
    "subtype": "noteOn",
    "velocity": 0,
    "type": "channel",
    "noteNumber": 78,
    "channel": 0,
    "deltaTime": 120
  },
  {
    "subtype": "noteOn",
    "velocity": 0,
    "type": "channel",
    "noteNumber": 78,
    "channel": 0,
    "deltaTime": 120
  },
  {
    "subtype": "noteOn",
    "velocity": 0,
    "type": "channel",
    "noteNumber": 77,
    "channel": 0,
    "deltaTime": 120
  },
  {
    "subtype": "noteOn",
    "velocity": 0,
    "type": "channel",
    "noteNumber": 77,
    "channel": 0,
    "deltaTime": 120
  },
  {
    "subtype": "noteOff",
    "velocity": 0,
    "type": "channel",
    "noteNumber": 77,
    "channel": 0,
    "deltaTime": 0
  },
  {
    "subtype": "noteOn",
    "velocity": 0,
    "type": "channel",
    "noteNumber": 75,
    "channel": 0,
    "deltaTime": 120
  },
  {
    "subtype": "noteOff",
    "velocity": 0,
    "type": "channel",
    "noteNumber": 75,
    "channel": 0,
    "deltaTime": 0
  },
  {
    "subtype": "noteOn",
    "velocity": 0,
    "type": "channel",
    "noteNumber": 74,
    "channel": 0,
    "deltaTime": 120
  },
  {
    "subtype": "noteOn",
    "velocity": 0,
    "type": "channel",
    "noteNumber": 68,
    "channel": 0,
    "deltaTime": 120
  },
  {
    "subtype": "noteOn",
    "velocity": 0,
    "type": "channel",
    "noteNumber": 82,
    "channel": 0,
    "deltaTime": 120
  },
  {
    "subtype": "noteOff",
    "velocity": 0,
    "type": "channel",
    "noteNumber": 82,
    "channel": 0,
    "deltaTime": 0
  },
  {
    "subtype": "noteOff",
    "velocity": 0,
    "type": "channel",
    "noteNumber": 82,
    "channel": 0,
    "deltaTime": 0
  },
  {
    "subtype": "noteOff",
    "velocity": 0,
    "type": "channel",
    "noteNumber": 82,
    "channel": 0,
    "deltaTime": 0
  },
  {
    "subtype": "noteOff",
    "velocity": 0,
    "type": "channel",
    "noteNumber": 82,
    "channel": 0,
    "deltaTime": 0
  },
  {
    "subtype": "noteOn",
    "velocity": 0,
    "type": "channel",
    "noteNumber": 77,
    "channel": 0,
    "deltaTime": 120
  },
  {
    "subtype": "noteOn",
    "velocity": 0,
    "type": "channel",
    "noteNumber": 72,
    "channel": 0,
    "deltaTime": 120
  },
  {
    "subtype": "noteOn",
    "velocity": 0,
    "type": "channel",
    "noteNumber": 71,
    "channel": 0,
    "deltaTime": 120
  },
  {
    "subtype": "noteOn",
    "velocity": 0,
    "type": "channel",
    "noteNumber": 71,
    "channel": 0,
    "deltaTime": 120
  },
  {
    "subtype": "noteOn",
    "velocity": 0,
    "type": "channel",
    "noteNumber": 70,
    "channel": 0,
    "deltaTime": 120
  },
  {
    "subtype": "noteOn",
    "velocity": 0,
    "type": "channel",
    "noteNumber": 68,
    "channel": 0,
    "deltaTime": 120
  },
  {
    "subtype": "noteOff",
    "velocity": 0,
    "type": "channel",
    "noteNumber": 68,
    "channel": 0,
    "deltaTime": 0
  },
  {
    "subtype": "noteOff",
    "velocity": 0,
    "type": "channel",
    "noteNumber": 68,
    "channel": 0,
    "deltaTime": 0
  },
  {
    "subtype": "noteOff",
    "velocity": 0,
    "type": "channel",
    "noteNumber": 68,
    "channel": 0,
    "deltaTime": 0
  },
  {
    "subtype": "noteOff",
    "velocity": 0,
    "type": "channel",
    "noteNumber": 68,
    "channel": 0,
    "deltaTime": 0
  },
  {
    "subtype": "noteOn",
    "velocity": 0,
    "type": "channel",
    "noteNumber": 68,
    "channel": 0,
    "deltaTime": 120
  },
  {
    "subtype": "noteOn",
    "velocity": 0,
    "type": "channel",
    "noteNumber": 64,
    "channel": 0,
    "deltaTime": 120
  },
  {
    "subtype": "noteOn",
    "velocity": 0,
    "type": "channel",
    "noteNumber": 75,
    "channel": 0,
    "deltaTime": 120
  },
  {
    "subtype": "noteOff",
    "velocity": 0,
    "type": "channel",
    "noteNumber": 75,
    "channel": 0,
    "deltaTime": 0
  },
  {
    "subtype": "noteOn",
    "velocity": 0,
    "type": "channel",
    "noteNumber": 72,
    "channel": 0,
    "deltaTime": 120
  },
  {
    "subtype": "noteOn",
    "velocity": 0,
    "type": "channel",
    "noteNumber": 72,
    "channel": 0,
    "deltaTime": 120
  },
  {
    "subtype": "noteOn",
    "velocity": 0,
    "type": "channel",
    "noteNumber": 68,
    "channel": 0,
    "deltaTime": 120
  },
  {
    "subtype": "noteOn",
    "velocity": 0,
    "type": "channel",
    "noteNumber": 67,
    "channel": 0,
    "deltaTime": 120
  },
  {
    "subtype": "noteOff",
    "velocity": 0,
    "type": "channel",
    "noteNumber": 67,
    "channel": 0,
    "deltaTime": 0
  },
  {
    "subtype": "noteOn",
    "velocity": 0,
    "type": "channel",
    "noteNumber": 68,
    "channel": 0,
    "deltaTime": 120
  },
  {
    "subtype": "noteOn",
    "velocity": 0,
    "type": "channel",
    "noteNumber": 65,
    "channel": 0,
    "deltaTime": 120
  },
  {
    "subtype": "noteOn",
    "velocity": 0,
    "type": "channel",
    "noteNumber": 63,
    "channel": 0,
    "deltaTime": 120
  },
  {
    "subtype": "noteOff",
    "velocity": 0,
    "type": "channel",
    "noteNumber": 63,
    "channel": 0,
    "deltaTime": 0
  },
  {
    "subtype": "noteOn",
    "velocity": 0,
    "type": "channel",
    "noteNumber": 68,
    "channel": 0,
    "deltaTime": 120
  },
  {
    "subtype": "noteOn",
    "velocity": 0,
    "type": "channel",
    "noteNumber": 65,
    "channel": 0,
    "deltaTime": 120
  },
  {
    "subtype": "noteOn",
    "velocity": 0,
    "type": "channel",
    "noteNumber": 65,
    "channel": 0,
    "deltaTime": 120
  },
  {
    "subtype": "noteOn",
    "velocity": 0,
    "type": "channel",
    "noteNumber": 68,
    "channel": 0,
    "deltaTime": 120
  },
  {
    "subtype": "noteOn",
    "velocity": 0,
    "type": "channel",
    "noteNumber": 80,
    "channel": 0,
    "deltaTime": 120
  },
  {
    "subtype": "noteOff",
    "velocity": 0,
    "type": "channel",
    "noteNumber": 80,
    "channel": 0,
    "deltaTime": 0
  },
  {
    "subtype": "noteOn",
    "velocity": 0,
    "type": "channel",
    "noteNumber": 63,
    "channel": 0,
    "deltaTime": 120
  },
  {
    "subtype": "noteOn",
    "velocity": 0,
    "type": "channel",
    "noteNumber": 66,
    "channel": 0,
    "deltaTime": 120
  },
  {
    "subtype": "noteOn",
    "velocity": 0,
    "type": "channel",
    "noteNumber": 68,
    "channel": 0,
    "deltaTime": 120
  },
  {
    "subtype": "noteOn",
    "velocity": 0,
    "type": "channel",
    "noteNumber": 68,
    "channel": 0,
    "deltaTime": 120
  },
  {
    "subtype": "noteOff",
    "velocity": 0,
    "type": "channel",
    "noteNumber": 68,
    "channel": 0,
    "deltaTime": 0
  },
  {
    "subtype": "noteOff",
    "velocity": 0,
    "type": "channel",
    "noteNumber": 68,
    "channel": 0,
    "deltaTime": 0
  },
  {
    "subtype": "noteOn",
    "velocity": 0,
    "type": "channel",
    "noteNumber": 71,
    "channel": 0,
    "deltaTime": 120
  },
  {
    "subtype": "noteOn",
    "velocity": 0,
    "type": "channel",
    "noteNumber": 68,
    "channel": 0,
    "deltaTime": 120
  },
  {
    "subtype": "noteOff",
    "velocity": 0,
    "type": "channel",
    "noteNumber": 68,
    "channel": 0,
    "deltaTime": 0
  },
  {
    "subtype": "noteOn",
    "velocity": 0,
    "type": "channel",
    "noteNumber": 62,
    "channel": 0,
    "deltaTime": 120
  },
  {
    "subtype": "noteOn",
    "velocity": 0,
    "type": "channel",
    "noteNumber": 71,
    "channel": 0,
    "deltaTime": 120
  },
  {
    "subtype": "noteOn",
    "velocity": 0,
    "type": "channel",
    "noteNumber": 68,
    "channel": 0,
    "deltaTime": 120
  },
  {
    "subtype": "noteOn",
    "velocity": 0,
    "type": "channel",
    "noteNumber": 68,
    "channel": 0,
    "deltaTime": 120
  },
  {
    "subtype": "noteOn",
    "velocity": 0,
    "type": "channel",
    "noteNumber": 68,
    "channel": 0,
    "deltaTime": 120
  },
  {
    "subtype": "noteOn",
    "velocity": 0,
    "type": "channel",
    "noteNumber": 68,
    "channel": 0,
    "deltaTime": 120
  },
  {
    "subtype": "noteOn",
    "velocity": 0,
    "type": "channel",
    "noteNumber": 62,
    "channel": 0,
    "deltaTime": 120
  },
  {
    "subtype": "noteOn",
    "velocity": 0,
    "type": "channel",
    "noteNumber": 75,
    "channel": 0,
    "deltaTime": 120
  },
  {
    "subtype": "noteOff",
    "velocity": 0,
    "type": "channel",
    "noteNumber": 75,
    "channel": 0,
    "deltaTime": 0
  },
  {
    "subtype": "noteOff",
    "velocity": 0,
    "type": "channel",
    "noteNumber": 75,
    "channel": 0,
    "deltaTime": 0
  },
  {
    "subtype": "noteOn",
    "velocity": 0,
    "type": "channel",
    "noteNumber": 77,
    "channel": 0,
    "deltaTime": 120
  },
  {
    "subtype": "noteOff",
    "velocity": 0,
    "type": "channel",
    "noteNumber": 77,
    "channel": 0,
    "deltaTime": 0
  },
  {
    "subtype": "noteOn",
    "velocity": 0,
    "type": "channel",
    "noteNumber": 63,
    "channel": 0,
    "deltaTime": 120
  },
  {
    "subtype": "noteOff",
    "velocity": 0,
    "type": "channel",
    "noteNumber": 63,
    "channel": 0,
    "deltaTime": 0
  },
  {
    "subtype": "noteOn",
    "velocity": 0,
    "type": "channel",
    "noteNumber": 70,
    "channel": 0,
    "deltaTime": 120
  },
  {
    "subtype": "noteOn",
    "velocity": 0,
    "type": "channel",
    "noteNumber": 68,
    "channel": 0,
    "deltaTime": 120
  },
  {
    "subtype": "noteOff",
    "velocity": 0,
    "type": "channel",
    "noteNumber": 68,
    "channel": 0,
    "deltaTime": 0
  },
  {
    "subtype": "noteOff",
    "velocity": 0,
    "type": "channel",
    "noteNumber": 68,
    "channel": 0,
    "deltaTime": 0
  },
  {
    "subtype": "noteOff",
    "velocity": 0,
    "type": "channel",
    "noteNumber": 68,
    "channel": 0,
    "deltaTime": 0
  },
  {
    "subtype": "noteOff",
    "velocity": 0,
    "type": "channel",
    "noteNumber": 68,
    "channel": 0,
    "deltaTime": 0
  },
  {
    "subtype": "noteOff",
    "velocity": 0,
    "type": "channel",
    "noteNumber": 68,
    "channel": 0,
    "deltaTime": 0
  },
  {
    "subtype": "noteOn",
    "velocity": 0,
    "type": "channel",
    "noteNumber": 63,
    "channel": 0,
    "deltaTime": 120
  },
  {
    "subtype": "noteOff",
    "velocity": 0,
    "type": "channel",
    "noteNumber": 63,
    "channel": 0,
    "deltaTime": 0
  },
  {
    "subtype": "noteOff",
    "velocity": 0,
    "type": "channel",
    "noteNumber": 63,
    "channel": 0,
    "deltaTime": 0
  },
  {
    "subtype": "noteOff",
    "velocity": 0,
    "type": "channel",
    "noteNumber": 63,
    "channel": 0,
    "deltaTime": 0
  },
  {
    "subtype": "noteOn",
    "velocity": 0,
    "type": "channel",
    "noteNumber": 76,
    "channel": 0,
    "deltaTime": 120
  },
  {
    "subtype": "noteOn",
    "velocity": 0,
    "type": "channel",
    "noteNumber": 75,
    "channel": 0,
    "deltaTime": 120
  },
  {
    "subtype": "noteOff",
    "velocity": 0,
    "type": "channel",
    "noteNumber": 75,
    "channel": 0,
    "deltaTime": 0
  },
  {
    "subtype": "noteOn",
    "velocity": 0,
    "type": "channel",
    "noteNumber": 85,
    "channel": 0,
    "deltaTime": 120
  },
  {
    "subtype": "noteOn",
    "velocity": 0,
    "type": "channel",
    "noteNumber": 82,
    "channel": 0,
    "deltaTime": 120
  },
  {
    "subtype": "noteOn",
    "velocity": 0,
    "type": "channel",
    "noteNumber": 82,
    "channel": 0,
    "deltaTime": 120
  },
  {
    "subtype": "noteOff",
    "velocity": 0,
    "type": "channel",
    "noteNumber": 82,
    "channel": 0,
    "deltaTime": 0
  },
  {
    "subtype": "noteOn",
    "velocity": 0,
    "type": "channel",
    "noteNumber": 79,
    "channel": 0,
    "deltaTime": 120
  },
  {
    "subtype": "noteOn",
    "velocity": 0,
    "type": "channel",
    "noteNumber": 79,
    "channel": 0,
    "deltaTime": 120
  },
  {
    "subtype": "noteOn",
    "velocity": 0,
    "type": "channel",
    "noteNumber": 80,
    "channel": 0,
    "deltaTime": 120
  },
  {
    "subtype": "noteOn",
    "velocity": 0,
    "type": "channel",
    "noteNumber": 80,
    "channel": 0,
    "deltaTime": 120
  },
  {
    "subtype": "noteOff",
    "velocity": 0,
    "type": "channel",
    "noteNumber": 80,
    "channel": 0,
    "deltaTime": 0
  },
  {
    "subtype": "noteOn",
    "velocity": 0,
    "type": "channel",
    "noteNumber": 78,
    "channel": 0,
    "deltaTime": 120
  },
  {
    "subtype": "noteOff",
    "velocity": 0,
    "type": "channel",
    "noteNumber": 78,
    "channel": 0,
    "deltaTime": 0
  },
  {
    "subtype": "noteOn",
    "velocity": 0,
    "type": "channel",
    "noteNumber": 75,
    "channel": 0,
    "deltaTime": 120
  },
  {
    "subtype": "noteOn",
    "velocity": 0,
    "type": "channel",
    "noteNumber": 75,
    "channel": 0,
    "deltaTime": 120
  },
  {
    "subtype": "noteOff",
    "velocity": 0,
    "type": "channel",
    "noteNumber": 75,
    "channel": 0,
    "deltaTime": 0
  },
  {
    "subtype": "noteOff",
    "velocity": 0,
    "type": "channel",
    "noteNumber": 75,
    "channel": 0,
    "deltaTime": 0
  },
  {
    "subtype": "noteOn",
    "velocity": 0,
    "type": "channel",
    "noteNumber": 70,
    "channel": 0,
    "deltaTime": 120
  },
  {
    "subtype": "noteOn",
    "velocity": 0,
    "type": "channel",
    "noteNumber": 70,
    "channel": 0,
    "deltaTime": 120
  },
  {
    "subtype": "noteOn",
    "velocity": 0,
    "type": "channel",
    "noteNumber": 72,
    "channel": 0,
    "deltaTime": 120
  },
  {
    "subtype": "noteOff",
    "velocity": 0,
    "type": "channel",
    "noteNumber": 72,
    "channel": 0,
    "deltaTime": 0
  },
  {
    "subtype": "noteOn",
    "velocity": 0,
    "type": "channel",
    "noteNumber": 75,
    "channel": 0,
    "deltaTime": 120
  },
  {
    "subtype": "noteOn",
    "velocity": 0,
    "type": "channel",
    "noteNumber": 82,
    "channel": 0,
    "deltaTime": 120
  },
  {
    "subtype": "noteOff",
    "velocity": 0,
    "type": "channel",
    "noteNumber": 82,
    "channel": 0,
    "deltaTime": 0
  },
  {
    "subtype": "noteOff",
    "velocity": 0,
    "type": "channel",
    "noteNumber": 82,
    "channel": 0,
    "deltaTime": 0
  },
  {
    "subtype": "noteOff",
    "velocity": 0,
    "type": "channel",
    "noteNumber": 82,
    "channel": 0,
    "deltaTime": 0
  },
  {
    "subtype": "noteOff",
    "velocity": 0,
    "type": "channel",
    "noteNumber": 82,
    "channel": 0,
    "deltaTime": 0
  },
  {
    "subtype": "noteOn",
    "velocity": 0,
    "type": "channel",
    "noteNumber": 85,
    "channel": 0,
    "deltaTime": 120
  },
  {
    "subtype": "noteOn",
    "velocity": 0,
    "type": "channel",
    "noteNumber": 83,
    "channel": 0,
    "deltaTime": 120
  },
  {
    "subtype": "noteOn",
    "velocity": 0,
    "type": "channel",
    "noteNumber": 83,
    "channel": 0,
    "deltaTime": 120
  },
  {
    "subtype": "noteOn",
    "velocity": 0,
    "type": "channel",
    "noteNumber": 83,
    "channel": 0,
    "deltaTime": 120
  },
  {
    "subtype": "noteOn",
    "velocity": 0,
    "type": "channel",
    "noteNumber": 85,
    "channel": 0,
    "deltaTime": 120
  },
  {
    "subtype": "noteOn",
    "velocity": 0,
    "type": "channel",
    "noteNumber": 85,
    "channel": 0,
    "deltaTime": 120
  },
  {
    "subtype": "noteOn",
    "velocity": 0,
    "type": "channel",
    "noteNumber": 83,
    "channel": 0,
    "deltaTime": 120
  },
  {
    "subtype": "noteOn",
    "velocity": 0,
    "type": "channel",
    "noteNumber": 83,
    "channel": 0,
    "deltaTime": 120
  },
  {
    "subtype": "noteOn",
    "velocity": 0,
    "type": "channel",
    "noteNumber": 82,
    "channel": 0,
    "deltaTime": 120
  },
  {
    "subtype": "noteOn",
    "velocity": 0,
    "type": "channel",
    "noteNumber": 85,
    "channel": 0,
    "deltaTime": 120
  },
  {
    "subtype": "noteOn",
    "velocity": 0,
    "type": "channel",
    "noteNumber": 80,
    "channel": 0,
    "deltaTime": 120
  },
  {
    "subtype": "noteOn",
    "velocity": 0,
    "type": "channel",
    "noteNumber": 80,
    "channel": 0,
    "deltaTime": 120
  },
  {
    "subtype": "noteOn",
    "velocity": 0,
    "type": "channel",
    "noteNumber": 78,
    "channel": 0,
    "deltaTime": 120
  },
  {
    "subtype": "noteOn",
    "velocity": 0,
    "type": "channel",
    "noteNumber": 66,
    "channel": 0,
    "deltaTime": 120
  },
  {
    "subtype": "noteOff",
    "velocity": 0,
    "type": "channel",
    "noteNumber": 66,
    "channel": 0,
    "deltaTime": 0
  },
  {
    "subtype": "noteOn",
    "velocity": 0,
    "type": "channel",
    "noteNumber": 61,
    "channel": 0,
    "deltaTime": 120
  },
  {
    "subtype": "noteOn",
    "velocity": 0,
    "type": "channel",
    "noteNumber": 76,
    "channel": 0,
    "deltaTime": 120
  },
  {
    "subtype": "noteOff",
    "velocity": 0,
    "type": "channel",
    "noteNumber": 76,
    "channel": 0,
    "deltaTime": 0
  },
  {
    "subtype": "noteOn",
    "velocity": 0,
    "type": "channel",
    "noteNumber": 75,
    "channel": 0,
    "deltaTime": 120
  },
  {
    "subtype": "noteOn",
    "velocity": 0,
    "type": "channel",
    "noteNumber": 71,
    "channel": 0,
    "deltaTime": 120
  },
  {
    "subtype": "noteOn",
    "velocity": 0,
    "type": "channel",
    "noteNumber": 76,
    "channel": 0,
    "deltaTime": 120
  },
  {
    "subtype": "noteOn",
    "velocity": 0,
    "type": "channel",
    "noteNumber": 76,
    "channel": 0,
    "deltaTime": 120
  },
  {
    "subtype": "noteOff",
    "velocity": 0,
    "type": "channel",
    "noteNumber": 76,
    "channel": 0,
    "deltaTime": 0
  },
  {
    "subtype": "noteOn",
    "velocity": 0,
    "type": "channel",
    "noteNumber": 72,
    "channel": 0,
    "deltaTime": 120
  },
  {
    "subtype": "noteOn",
    "velocity": 0,
    "type": "channel",
    "noteNumber": 76,
    "channel": 0,
    "deltaTime": 120
  },
  {
    "subtype": "noteOn",
    "velocity": 0,
    "type": "channel",
    "noteNumber": 73,
    "channel": 0,
    "deltaTime": 120
  },
  {
    "subtype": "noteOn",
    "velocity": 0,
    "type": "channel",
    "noteNumber": 73,
    "channel": 0,
    "deltaTime": 120
  },
  {
    "subtype": "noteOn",
    "velocity": 0,
    "type": "channel",
    "noteNumber": 73,
    "channel": 0,
    "deltaTime": 120
  },
  {
    "subtype": "noteOn",
    "velocity": 0,
    "type": "channel",
    "noteNumber": 73,
    "channel": 0,
    "deltaTime": 120
  },
  {
    "subtype": "noteOn",
    "velocity": 0,
    "type": "channel",
    "noteNumber": 75,
    "channel": 0,
    "deltaTime": 120
  },
  {
    "subtype": "noteOn",
    "velocity": 0,
    "type": "channel",
    "noteNumber": 75,
    "channel": 0,
    "deltaTime": 120
  },
  {
    "subtype": "noteOn",
    "velocity": 0,
    "type": "channel",
    "noteNumber": 62,
    "channel": 0,
    "deltaTime": 120
  },
  {
    "subtype": "noteOff",
    "velocity": 0,
    "type": "channel",
    "noteNumber": 62,
    "channel": 0,
    "deltaTime": 0
  },
  {
    "subtype": "noteOn",
    "velocity": 0,
    "type": "channel",
    "noteNumber": 72,
    "channel": 0,
    "deltaTime": 120
  },
  {
    "subtype": "noteOn",
    "velocity": 0,
    "type": "channel",
    "noteNumber": 73,
    "channel": 0,
    "deltaTime": 120
  },
  {
    "subtype": "noteOn",
    "velocity": 0,
    "type": "channel",
    "noteNumber": 73,
    "channel": 0,
    "deltaTime": 120
  },
  {
    "subtype": "noteOff",
    "velocity": 0,
    "type": "channel",
    "noteNumber": 73,
    "channel": 0,
    "deltaTime": 0
  },
  {
    "subtype": "noteOn",
    "velocity": 0,
    "type": "channel",
    "noteNumber": 83,
    "channel": 0,
    "deltaTime": 120
  },
  {
    "subtype": "noteOn",
    "velocity": 0,
    "type": "channel",
    "noteNumber": 83,
    "channel": 0,
    "deltaTime": 120
  },
  {
    "subtype": "noteOn",
    "velocity": 0,
    "type": "channel",
    "noteNumber": 83,
    "channel": 0,
    "deltaTime": 120
  },
  {
    "subtype": "noteOn",
    "velocity": 0,
    "type": "channel",
    "noteNumber": 82,
    "channel": 0,
    "deltaTime": 120
  },
  {
    "subtype": "noteOn",
    "velocity": 0,
    "type": "channel",
    "noteNumber": 82,
    "channel": 0,
    "deltaTime": 120
  },
  {
    "subtype": "noteOn",
    "velocity": 0,
    "type": "channel",
    "noteNumber": 85,
    "channel": 0,
    "deltaTime": 120
  },
  {
    "subtype": "noteOn",
    "velocity": 0,
    "type": "channel",
    "noteNumber": 85,
    "channel": 0,
    "deltaTime": 120
  },
  {
    "subtype": "noteOn",
    "velocity": 0,
    "type": "channel",
    "noteNumber": 85,
    "channel": 0,
    "deltaTime": 120
  },
  {
    "subtype": "noteOn",
    "velocity": 0,
    "type": "channel",
    "noteNumber": 83,
    "channel": 0,
    "deltaTime": 120
  },
  {
    "subtype": "noteOn",
    "velocity": 0,
    "type": "channel",
    "noteNumber": 83,
    "channel": 0,
    "deltaTime": 120
  },
  {
    "subtype": "noteOn",
    "velocity": 0,
    "type": "channel",
    "noteNumber": 82,
    "channel": 0,
    "deltaTime": 120
  },
  {
    "subtype": "noteOn",
    "velocity": 0,
    "type": "channel",
    "noteNumber": 82,
    "channel": 0,
    "deltaTime": 120
  },
  {
    "subtype": "noteOn",
    "velocity": 0,
    "type": "channel",
    "noteNumber": 82,
    "channel": 0,
    "deltaTime": 120
  },
  {
    "subtype": "noteOn",
    "velocity": 0,
    "type": "channel",
    "noteNumber": 83,
    "channel": 0,
    "deltaTime": 120
  },
  {
    "subtype": "noteOn",
    "velocity": 0,
    "type": "channel",
    "noteNumber": 83,
    "channel": 0,
    "deltaTime": 120
  },
  {
    "subtype": "noteOn",
    "velocity": 0,
    "type": "channel",
    "noteNumber": 85,
    "channel": 0,
    "deltaTime": 120
  },
  {
    "subtype": "noteOn",
    "velocity": 0,
    "type": "channel",
    "noteNumber": 85,
    "channel": 0,
    "deltaTime": 120
  },
  {
    "subtype": "noteOn",
    "velocity": 0,
    "type": "channel",
    "noteNumber": 83,
    "channel": 0,
    "deltaTime": 120
  },
  {
    "subtype": "noteOn",
    "velocity": 0,
    "type": "channel",
    "noteNumber": 83,
    "channel": 0,
    "deltaTime": 120
  },
  {
    "subtype": "noteOff",
    "velocity": 0,
    "type": "channel",
    "noteNumber": 83,
    "channel": 0,
    "deltaTime": 0
  },
  {
    "subtype": "noteOn",
    "velocity": 0,
    "type": "channel",
    "noteNumber": 82,
    "channel": 0,
    "deltaTime": 120
  },
  {
    "subtype": "noteOn",
    "velocity": 0,
    "type": "channel",
    "noteNumber": 80,
    "channel": 0,
    "deltaTime": 120
  },
  {
    "subtype": "noteOn",
    "velocity": 0,
    "type": "channel",
    "noteNumber": 80,
    "channel": 0,
    "deltaTime": 120
  },
  {
    "subtype": "noteOff",
    "velocity": 0,
    "type": "channel",
    "noteNumber": 80,
    "channel": 0,
    "deltaTime": 0
  },
  {
    "subtype": "noteOn",
    "velocity": 0,
    "type": "channel",
    "noteNumber": 75,
    "channel": 0,
    "deltaTime": 120
  },
  {
    "subtype": "noteOff",
    "velocity": 0,
    "type": "channel",
    "noteNumber": 75,
    "channel": 0,
    "deltaTime": 0
  },
  {
    "subtype": "noteOn",
    "velocity": 0,
    "type": "channel",
    "noteNumber": 82,
    "channel": 0,
    "deltaTime": 120
  },
  {
    "subtype": "noteOff",
    "velocity": 0,
    "type": "channel",
    "noteNumber": 82,
    "channel": 0,
    "deltaTime": 0
  },
  {
    "subtype": "noteOn",
    "velocity": 0,
    "type": "channel",
    "noteNumber": 85,
    "channel": 0,
    "deltaTime": 120
  },
  {
    "subtype": "noteOff",
    "velocity": 0,
    "type": "channel",
    "noteNumber": 85,
    "channel": 0,
    "deltaTime": 0
  },
  {
    "subtype": "noteOn",
    "velocity": 0,
    "type": "channel",
    "noteNumber": 83,
    "channel": 0,
    "deltaTime": 120
  },
  {
    "subtype": "noteOff",
    "velocity": 0,
    "type": "channel",
    "noteNumber": 83,
    "channel": 0,
    "deltaTime": 0
  },
  {
    "subtype": "noteOn",
    "velocity": 0,
    "type": "channel",
    "noteNumber": 85,
    "channel": 0,
    "deltaTime": 120
  },
  {
    "subtype": "noteOn",
    "velocity": 0,
    "type": "channel",
    "noteNumber": 80,
    "channel": 0,
    "deltaTime": 120
  },
  {
    "subtype": "noteOn",
    "velocity": 0,
    "type": "channel",
    "noteNumber": 80,
    "channel": 0,
    "deltaTime": 120
  },
  {
    "subtype": "noteOn",
    "velocity": 0,
    "type": "channel",
    "noteNumber": 78,
    "channel": 0,
    "deltaTime": 120
  },
  {
    "subtype": "noteOn",
    "velocity": 0,
    "type": "channel",
    "noteNumber": 78,
    "channel": 0,
    "deltaTime": 120
  },
  {
    "subtype": "noteOn",
    "velocity": 0,
    "type": "channel",
    "noteNumber": 76,
    "channel": 0,
    "deltaTime": 120
  },
  {
    "subtype": "noteOn",
    "velocity": 0,
    "type": "channel",
    "noteNumber": 76,
    "channel": 0,
    "deltaTime": 120
  },
  {
    "subtype": "noteOn",
    "velocity": 0,
    "type": "channel",
    "noteNumber": 75,
    "channel": 0,
    "deltaTime": 120
  },
  {
    "subtype": "noteOn",
    "velocity": 0,
    "type": "channel",
    "noteNumber": 75,
    "channel": 0,
    "deltaTime": 120
  },
  {
    "subtype": "noteOn",
    "velocity": 0,
    "type": "channel",
    "noteNumber": 76,
    "channel": 0,
    "deltaTime": 120
  },
  {
    "subtype": "noteOn",
    "velocity": 0,
    "type": "channel",
    "noteNumber": 76,
    "channel": 0,
    "deltaTime": 120
  },
  {
    "subtype": "noteOff",
    "velocity": 0,
    "type": "channel",
    "noteNumber": 76,
    "channel": 0,
    "deltaTime": 0
  },
  {
    "subtype": "noteOn",
    "velocity": 0,
    "type": "channel",
    "noteNumber": 75,
    "channel": 0,
    "deltaTime": 120
  },
  {
    "subtype": "noteOn",
    "velocity": 0,
    "type": "channel",
    "noteNumber": 76,
    "channel": 0,
    "deltaTime": 120
  },
  {
    "subtype": "noteOn",
    "velocity": 0,
    "type": "channel",
    "noteNumber": 76,
    "channel": 0,
    "deltaTime": 120
  },
  {
    "subtype": "noteOn",
    "velocity": 0,
    "type": "channel",
    "noteNumber": 78,
    "channel": 0,
    "deltaTime": 120
  },
  {
    "subtype": "noteOn",
    "velocity": 0,
    "type": "channel",
    "noteNumber": 78,
    "channel": 0,
    "deltaTime": 120
  },
  {
    "subtype": "noteOn",
    "velocity": 0,
    "type": "channel",
    "noteNumber": 76,
    "channel": 0,
    "deltaTime": 120
  },
  {
    "subtype": "noteOn",
    "velocity": 0,
    "type": "channel",
    "noteNumber": 75,
    "channel": 0,
    "deltaTime": 120
  },
  {
    "subtype": "noteOn",
    "velocity": 0,
    "type": "channel",
    "noteNumber": 75,
    "channel": 0,
    "deltaTime": 120
  },
  {
    "subtype": "noteOn",
    "velocity": 0,
    "type": "channel",
    "noteNumber": 75,
    "channel": 0,
    "deltaTime": 120
  },
  {
    "subtype": "noteOn",
    "velocity": 0,
    "type": "channel",
    "noteNumber": 73,
    "channel": 0,
    "deltaTime": 120
  },
  {
    "subtype": "noteOn",
    "velocity": 0,
    "type": "channel",
    "noteNumber": 73,
    "channel": 0,
    "deltaTime": 120
  },
  {
    "subtype": "noteOn",
    "velocity": 0,
    "type": "channel",
    "noteNumber": 75,
    "channel": 0,
    "deltaTime": 120
  },
  {
    "subtype": "noteOn",
    "velocity": 0,
    "type": "channel",
    "noteNumber": 75,
    "channel": 0,
    "deltaTime": 120
  },
  {
    "subtype": "noteOn",
    "velocity": 0,
    "type": "channel",
    "noteNumber": 76,
    "channel": 0,
    "deltaTime": 120
  },
  {
    "subtype": "noteOn",
    "velocity": 0,
    "type": "channel",
    "noteNumber": 76,
    "channel": 0,
    "deltaTime": 120
  },
  {
    "subtype": "noteOff",
    "velocity": 0,
    "type": "channel",
    "noteNumber": 76,
    "channel": 0,
    "deltaTime": 0
  },
  {
    "subtype": "noteOn",
    "velocity": 0,
    "type": "channel",
    "noteNumber": 75,
    "channel": 0,
    "deltaTime": 120
  },
  {
    "subtype": "noteOn",
    "velocity": 0,
    "type": "channel",
    "noteNumber": 76,
    "channel": 0,
    "deltaTime": 120
  },
  {
    "subtype": "noteOn",
    "velocity": 0,
    "type": "channel",
    "noteNumber": 76,
    "channel": 0,
    "deltaTime": 120
  },
  {
    "subtype": "noteOff",
    "velocity": 0,
    "type": "channel",
    "noteNumber": 76,
    "channel": 0,
    "deltaTime": 0
  },
  {
    "subtype": "noteOn",
    "velocity": 0,
    "type": "channel",
    "noteNumber": 85,
    "channel": 0,
    "deltaTime": 120
  },
  {
    "subtype": "noteOn",
    "velocity": 0,
    "type": "channel",
    "noteNumber": 85,
    "channel": 0,
    "deltaTime": 120
  },
  {
    "subtype": "noteOn",
    "velocity": 0,
    "type": "channel",
    "noteNumber": 83,
    "channel": 0,
    "deltaTime": 120
  },
  {
    "subtype": "noteOn",
    "velocity": 0,
    "type": "channel",
    "noteNumber": 83,
    "channel": 0,
    "deltaTime": 120
  },
  {
    "subtype": "noteOn",
    "velocity": 0,
    "type": "channel",
    "noteNumber": 87,
    "channel": 0,
    "deltaTime": 120
  },
  {
    "subtype": "noteOn",
    "velocity": 0,
    "type": "channel",
    "noteNumber": 85,
    "channel": 0,
    "deltaTime": 120
  },
  {
    "subtype": "noteOn",
    "velocity": 0,
    "type": "channel",
    "noteNumber": 83,
    "channel": 0,
    "deltaTime": 120
  },
  {
    "subtype": "noteOn",
    "velocity": 0,
    "type": "channel",
    "noteNumber": 83,
    "channel": 0,
    "deltaTime": 120
  },
  {
    "subtype": "noteOn",
    "velocity": 0,
    "type": "channel",
    "noteNumber": 87,
    "channel": 0,
    "deltaTime": 120
  },
  {
    "subtype": "noteOn",
    "velocity": 0,
    "type": "channel",
    "noteNumber": 87,
    "channel": 0,
    "deltaTime": 120
  },
  {
    "subtype": "noteOn",
    "velocity": 0,
    "type": "channel",
    "noteNumber": 85,
    "channel": 0,
    "deltaTime": 120
  },
  {
    "subtype": "noteOn",
    "velocity": 0,
    "type": "channel",
    "noteNumber": 83,
    "channel": 0,
    "deltaTime": 120
  },
  {
    "subtype": "noteOn",
    "velocity": 0,
    "type": "channel",
    "noteNumber": 83,
    "channel": 0,
    "deltaTime": 120
  },
  {
    "subtype": "noteOn",
    "velocity": 0,
    "type": "channel",
    "noteNumber": 82,
    "channel": 0,
    "deltaTime": 120
  },
  {
    "subtype": "noteOn",
    "velocity": 0,
    "type": "channel",
    "noteNumber": 82,
    "channel": 0,
    "deltaTime": 120
  },
  {
    "subtype": "noteOn",
    "velocity": 0,
    "type": "channel",
    "noteNumber": 80,
    "channel": 0,
    "deltaTime": 120
  },
  {
    "subtype": "noteOn",
    "velocity": 0,
    "type": "channel",
    "noteNumber": 80,
    "channel": 0,
    "deltaTime": 120
  },
  {
    "subtype": "noteOn",
    "velocity": 0,
    "type": "channel",
    "noteNumber": 78,
    "channel": 0,
    "deltaTime": 120
  },
  {
    "subtype": "noteOn",
    "velocity": 0,
    "type": "channel",
    "noteNumber": 78,
    "channel": 0,
    "deltaTime": 120
  },
  {
    "subtype": "noteOn",
    "velocity": 0,
    "type": "channel",
    "noteNumber": 76,
    "channel": 0,
    "deltaTime": 120
  },
  {
    "subtype": "noteOn",
    "velocity": 0,
    "type": "channel",
    "noteNumber": 76,
    "channel": 0,
    "deltaTime": 120
  },
  {
    "subtype": "noteOn",
    "velocity": 0,
    "type": "channel",
    "noteNumber": 75,
    "channel": 0,
    "deltaTime": 120
  },
  {
    "subtype": "noteOn",
    "velocity": 0,
    "type": "channel",
    "noteNumber": 75,
    "channel": 0,
    "deltaTime": 120
  },
  {
    "subtype": "noteOff",
    "velocity": 0,
    "type": "channel",
    "noteNumber": 75,
    "channel": 0,
    "deltaTime": 0
  },
  {
    "subtype": "noteOn",
    "velocity": 0,
    "type": "channel",
    "noteNumber": 76,
    "channel": 0,
    "deltaTime": 120
  },
  {
    "subtype": "noteOff",
    "velocity": 0,
    "type": "channel",
    "noteNumber": 76,
    "channel": 0,
    "deltaTime": 0
  },
  {
    "subtype": "noteOn",
    "velocity": 0,
    "type": "channel",
    "noteNumber": 82,
    "channel": 0,
    "deltaTime": 120
  },
  {
    "subtype": "noteOn",
    "velocity": 0,
    "type": "channel",
    "noteNumber": 76,
    "channel": 0,
    "deltaTime": 120
  },
  {
    "subtype": "noteOn",
    "velocity": 0,
    "type": "channel",
    "noteNumber": 76,
    "channel": 0,
    "deltaTime": 120
  },
  {
    "subtype": "noteOff",
    "velocity": 0,
    "type": "channel",
    "noteNumber": 76,
    "channel": 0,
    "deltaTime": 0
  },
  {
    "subtype": "noteOn",
    "velocity": 0,
    "type": "channel",
    "noteNumber": 85,
    "channel": 0,
    "deltaTime": 120
  },
  {
    "subtype": "noteOn",
    "velocity": 0,
    "type": "channel",
    "noteNumber": 85,
    "channel": 0,
    "deltaTime": 120
  },
  {
    "subtype": "noteOn",
    "velocity": 0,
    "type": "channel",
    "noteNumber": 85,
    "channel": 0,
    "deltaTime": 120
  },
  {
    "subtype": "noteOn",
    "velocity": 0,
    "type": "channel",
    "noteNumber": 85,
    "channel": 0,
    "deltaTime": 120
  },
  {
    "subtype": "noteOn",
    "velocity": 0,
    "type": "channel",
    "noteNumber": 85,
    "channel": 0,
    "deltaTime": 120
  },
  {
    "subtype": "noteOn",
    "velocity": 0,
    "type": "channel",
    "noteNumber": 85,
    "channel": 0,
    "deltaTime": 120
  },
  {
    "subtype": "noteOn",
    "velocity": 0,
    "type": "channel",
    "noteNumber": 85,
    "channel": 0,
    "deltaTime": 120
  },
  {
    "subtype": "noteOn",
    "velocity": 0,
    "type": "channel",
    "noteNumber": 85,
    "channel": 0,
    "deltaTime": 120
  },
  {
    "subtype": "noteOff",
    "velocity": 0,
    "type": "channel",
    "noteNumber": 85,
    "channel": 0,
    "deltaTime": 0
  },
  {
    "subtype": "noteOn",
    "velocity": 0,
    "type": "channel",
    "noteNumber": 85,
    "channel": 0,
    "deltaTime": 120
  },
  {
    "subtype": "noteOn",
    "velocity": 0,
    "type": "channel",
    "noteNumber": 85,
    "channel": 0,
    "deltaTime": 120
  },
  {
    "subtype": "noteOn",
    "velocity": 0,
    "type": "channel",
    "noteNumber": 85,
    "channel": 0,
    "deltaTime": 120
  },
  {
    "subtype": "noteOn",
    "velocity": 0,
    "type": "channel",
    "noteNumber": 85,
    "channel": 0,
    "deltaTime": 120
  },
  {
    "subtype": "noteOn",
    "velocity": 0,
    "type": "channel",
    "noteNumber": 85,
    "channel": 0,
    "deltaTime": 120
  },
  {
    "subtype": "noteOn",
    "velocity": 0,
    "type": "channel",
    "noteNumber": 85,
    "channel": 0,
    "deltaTime": 120
  },
  {
    "subtype": "noteOn",
    "velocity": 0,
    "type": "channel",
    "noteNumber": 85,
    "channel": 0,
    "deltaTime": 120
  },
  {
    "subtype": "noteOn",
    "velocity": 0,
    "type": "channel",
    "noteNumber": 83,
    "channel": 0,
    "deltaTime": 120
  },
  {
    "subtype": "noteOn",
    "velocity": 0,
    "type": "channel",
    "noteNumber": 83,
    "channel": 0,
    "deltaTime": 120
  },
  {
    "subtype": "noteOn",
    "velocity": 0,
    "type": "channel",
    "noteNumber": 83,
    "channel": 0,
    "deltaTime": 120
  },
  {
    "subtype": "noteOn",
    "velocity": 0,
    "type": "channel",
    "noteNumber": 82,
    "channel": 0,
    "deltaTime": 120
  },
  {
    "subtype": "noteOn",
    "velocity": 0,
    "type": "channel",
    "noteNumber": 82,
    "channel": 0,
    "deltaTime": 120
  },
  {
    "subtype": "noteOn",
    "velocity": 0,
    "type": "channel",
    "noteNumber": 83,
    "channel": 0,
    "deltaTime": 120
  },
  {
    "subtype": "noteOn",
    "velocity": 0,
    "type": "channel",
    "noteNumber": 83,
    "channel": 0,
    "deltaTime": 120
  },
  {
    "subtype": "noteOn",
    "velocity": 0,
    "type": "channel",
    "noteNumber": 85,
    "channel": 0,
    "deltaTime": 120
  },
  {
    "subtype": "noteOn",
    "velocity": 0,
    "type": "channel",
    "noteNumber": 85,
    "channel": 0,
    "deltaTime": 120
  },
  {
    "subtype": "noteOn",
    "velocity": 0,
    "type": "channel",
    "noteNumber": 85,
    "channel": 0,
    "deltaTime": 120
  },
  {
    "subtype": "noteOn",
    "velocity": 0,
    "type": "channel",
    "noteNumber": 83,
    "channel": 0,
    "deltaTime": 120
  },
  {
    "subtype": "noteOn",
    "velocity": 0,
    "type": "channel",
    "noteNumber": 83,
    "channel": 0,
    "deltaTime": 120
  },
  {
    "subtype": "noteOn",
    "velocity": 0,
    "type": "channel",
    "noteNumber": 83,
    "channel": 0,
    "deltaTime": 120
  },
  {
    "subtype": "noteOn",
    "velocity": 0,
    "type": "channel",
    "noteNumber": 82,
    "channel": 0,
    "deltaTime": 120
  },
  {
    "subtype": "noteOn",
    "velocity": 0,
    "type": "channel",
    "noteNumber": 82,
    "channel": 0,
    "deltaTime": 120
  },
  {
    "subtype": "noteOn",
    "velocity": 0,
    "type": "channel",
    "noteNumber": 83,
    "channel": 0,
    "deltaTime": 120
  },
  {
    "subtype": "noteOn",
    "velocity": 0,
    "type": "channel",
    "noteNumber": 83,
    "channel": 0,
    "deltaTime": 120
  },
  {
    "subtype": "noteOn",
    "velocity": 0,
    "type": "channel",
    "noteNumber": 83,
    "channel": 0,
    "deltaTime": 120
  },
  {
    "subtype": "noteOn",
    "velocity": 0,
    "type": "channel",
    "noteNumber": 85,
    "channel": 0,
    "deltaTime": 120
  },
  {
    "subtype": "noteOn",
    "velocity": 0,
    "type": "channel",
    "noteNumber": 85,
    "channel": 0,
    "deltaTime": 120
  },
  {
    "subtype": "noteOn",
    "velocity": 0,
    "type": "channel",
    "noteNumber": 85,
    "channel": 0,
    "deltaTime": 120
  },
  {
    "subtype": "noteOn",
    "velocity": 0,
    "type": "channel",
    "noteNumber": 82,
    "channel": 0,
    "deltaTime": 120
  },
  {
    "subtype": "noteOn",
    "velocity": 0,
    "type": "channel",
    "noteNumber": 82,
    "channel": 0,
    "deltaTime": 120
  },
  {
    "subtype": "noteOn",
    "velocity": 0,
    "type": "channel",
    "noteNumber": 83,
    "channel": 0,
    "deltaTime": 120
  },
  {
    "subtype": "noteOn",
    "velocity": 0,
    "type": "channel",
    "noteNumber": 83,
    "channel": 0,
    "deltaTime": 120
  },
  {
    "subtype": "noteOn",
    "velocity": 0,
    "type": "channel",
    "noteNumber": 85,
    "channel": 0,
    "deltaTime": 120
  },
  {
    "subtype": "noteOn",
    "velocity": 0,
    "type": "channel",
    "noteNumber": 85,
    "channel": 0,
    "deltaTime": 120
  },
  {
    "subtype": "noteOn",
    "velocity": 0,
    "type": "channel",
    "noteNumber": 83,
    "channel": 0,
    "deltaTime": 120
  },
  {
    "subtype": "noteOn",
    "velocity": 0,
    "type": "channel",
    "noteNumber": 83,
    "channel": 0,
    "deltaTime": 120
  },
  {
    "subtype": "noteOff",
    "velocity": 0,
    "type": "channel",
    "noteNumber": 83,
    "channel": 0,
    "deltaTime": 0
  },
  {
    "subtype": "noteOn",
    "velocity": 0,
    "type": "channel",
    "noteNumber": 82,
    "channel": 0,
    "deltaTime": 120
  },
  {
    "subtype": "noteOn",
    "velocity": 0,
    "type": "channel",
    "noteNumber": 80,
    "channel": 0,
    "deltaTime": 120
  },
  {
    "subtype": "noteOn",
    "velocity": 0,
    "type": "channel",
    "noteNumber": 80,
    "channel": 0,
    "deltaTime": 120
  },
  {
    "subtype": "noteOn",
    "velocity": 0,
    "type": "channel",
    "noteNumber": 79,
    "channel": 0,
    "deltaTime": 120
  },
  {
    "subtype": "noteOn",
    "velocity": 0,
    "type": "channel",
    "noteNumber": 79,
    "channel": 0,
    "deltaTime": 120
  },
  {
    "subtype": "noteOff",
    "velocity": 0,
    "type": "channel",
    "noteNumber": 79,
    "channel": 0,
    "deltaTime": 0
  },
  {
    "subtype": "noteOn",
    "velocity": 0,
    "type": "channel",
    "noteNumber": 73,
    "channel": 0,
    "deltaTime": 120
  },
  {
    "subtype": "noteOn",
    "velocity": 0,
    "type": "channel",
    "noteNumber": 73,
    "channel": 0,
    "deltaTime": 120
  },
  {
    "subtype": "noteOn",
    "velocity": 0,
    "type": "channel",
    "noteNumber": 73,
    "channel": 0,
    "deltaTime": 120
  },
  {
    "subtype": "noteOn",
    "velocity": 0,
    "type": "channel",
    "noteNumber": 73,
    "channel": 0,
    "deltaTime": 120
  },
  {
    "subtype": "noteOn",
    "velocity": 0,
    "type": "channel",
    "noteNumber": 73,
    "channel": 0,
    "deltaTime": 120
  },
  {
    "subtype": "noteOn",
    "velocity": 0,
    "type": "channel",
    "noteNumber": 73,
    "channel": 0,
    "deltaTime": 120
  },
  {
    "subtype": "noteOn",
    "velocity": 0,
    "type": "channel",
    "noteNumber": 73,
    "channel": 0,
    "deltaTime": 120
  },
  {
    "subtype": "noteOn",
    "velocity": 0,
    "type": "channel",
    "noteNumber": 73,
    "channel": 0,
    "deltaTime": 120
  },
  {
    "subtype": "noteOn",
    "velocity": 0,
    "type": "channel",
    "noteNumber": 73,
    "channel": 0,
    "deltaTime": 120
  },
  {
    "subtype": "noteOn",
    "velocity": 0,
    "type": "channel",
    "noteNumber": 73,
    "channel": 0,
    "deltaTime": 120
  },
  {
    "subtype": "noteOn",
    "velocity": 0,
    "type": "channel",
    "noteNumber": 73,
    "channel": 0,
    "deltaTime": 120
  },
  {
    "subtype": "noteOn",
    "velocity": 0,
    "type": "channel",
    "noteNumber": 73,
    "channel": 0,
    "deltaTime": 120
  },
  {
    "subtype": "noteOn",
    "velocity": 0,
    "type": "channel",
    "noteNumber": 73,
    "channel": 0,
    "deltaTime": 120
  },
  {
    "subtype": "noteOn",
    "velocity": 0,
    "type": "channel",
    "noteNumber": 70,
    "channel": 0,
    "deltaTime": 120
  },
  {
    "subtype": "noteOn",
    "velocity": 0,
    "type": "channel",
    "noteNumber": 71,
    "channel": 0,
    "deltaTime": 120
  },
  {
    "subtype": "noteOn",
    "velocity": 0,
    "type": "channel",
    "noteNumber": 73,
    "channel": 0,
    "deltaTime": 120
  },
  {
    "subtype": "noteOn",
    "velocity": 0,
    "type": "channel",
    "noteNumber": 73,
    "channel": 0,
    "deltaTime": 120
  },
  {
    "subtype": "noteOff",
    "velocity": 0,
    "type": "channel",
    "noteNumber": 73,
    "channel": 0,
    "deltaTime": 0
  },
  {
    "subtype": "noteOn",
    "velocity": 0,
    "type": "channel",
    "noteNumber": 73,
    "channel": 0,
    "deltaTime": 120
  },
  {
    "subtype": "noteOn",
    "velocity": 0,
    "type": "channel",
    "noteNumber": 71,
    "channel": 0,
    "deltaTime": 120
  },
  {
    "subtype": "noteOn",
    "velocity": 0,
    "type": "channel",
    "noteNumber": 71,
    "channel": 0,
    "deltaTime": 120
  },
  {
    "subtype": "noteOn",
    "velocity": 0,
    "type": "channel",
    "noteNumber": 70,
    "channel": 0,
    "deltaTime": 120
  },
  {
    "subtype": "noteOn",
    "velocity": 0,
    "type": "channel",
    "noteNumber": 70,
    "channel": 0,
    "deltaTime": 120
  },
  {
    "subtype": "noteOn",
    "velocity": 0,
    "type": "channel",
    "noteNumber": 68,
    "channel": 0,
    "deltaTime": 120
  },
  {
    "subtype": "noteOn",
    "velocity": 0,
    "type": "channel",
    "noteNumber": 68,
    "channel": 0,
    "deltaTime": 120
  },
  {
    "subtype": "noteOn",
    "velocity": 0,
    "type": "channel",
    "noteNumber": 68,
    "channel": 0,
    "deltaTime": 120
  },
  {
    "subtype": "noteOn",
    "velocity": 0,
    "type": "channel",
    "noteNumber": 68,
    "channel": 0,
    "deltaTime": 120
  },
  {
    "subtype": "noteOff",
    "velocity": 0,
    "type": "channel",
    "noteNumber": 68,
    "channel": 0,
    "deltaTime": 0
  },
  {
    "subtype": "noteOn",
    "velocity": 0,
    "type": "channel",
    "noteNumber": 72,
    "channel": 0,
    "deltaTime": 120
  },
  {
    "subtype": "noteOn",
    "velocity": 0,
    "type": "channel",
    "noteNumber": 71,
    "channel": 0,
    "deltaTime": 120
  },
  {
    "subtype": "noteOn",
    "velocity": 0,
    "type": "channel",
    "noteNumber": 71,
    "channel": 0,
    "deltaTime": 120
  },
  {
    "subtype": "noteOn",
    "velocity": 0,
    "type": "channel",
    "noteNumber": 81,
    "channel": 0,
    "deltaTime": 120
  },
  {
    "subtype": "noteOn",
    "velocity": 0,
    "type": "channel",
    "noteNumber": 81,
    "channel": 0,
    "deltaTime": 120
  },
  {
    "subtype": "noteOn",
    "velocity": 0,
    "type": "channel",
    "noteNumber": 64,
    "channel": 0,
    "deltaTime": 120
  },
  {
    "subtype": "noteOn",
    "velocity": 0,
    "type": "channel",
    "noteNumber": 71,
    "channel": 0,
    "deltaTime": 120
  },
  {
    "subtype": "noteOn",
    "velocity": 0,
    "type": "channel",
    "noteNumber": 78,
    "channel": 0,
    "deltaTime": 120
  },
  {
    "subtype": "noteOn",
    "velocity": 0,
    "type": "channel",
    "noteNumber": 78,
    "channel": 0,
    "deltaTime": 120
  },
  {
    "subtype": "noteOn",
    "velocity": 0,
    "type": "channel",
    "noteNumber": 75,
    "channel": 0,
    "deltaTime": 120
  },
  {
    "subtype": "noteOn",
    "velocity": 0,
    "type": "channel",
    "noteNumber": 75,
    "channel": 0,
    "deltaTime": 120
  },
  {
    "subtype": "noteOff",
    "velocity": 0,
    "type": "channel",
    "noteNumber": 75,
    "channel": 0,
    "deltaTime": 0
  },
  {
    "subtype": "noteOn",
    "velocity": 0,
    "type": "channel",
    "noteNumber": 73,
    "channel": 0,
    "deltaTime": 120
  },
  {
    "subtype": "noteOn",
    "velocity": 0,
    "type": "channel",
    "noteNumber": 71,
    "channel": 0,
    "deltaTime": 120
  },
  {
    "subtype": "noteOn",
    "velocity": 0,
    "type": "channel",
    "noteNumber": 71,
    "channel": 0,
    "deltaTime": 120
  },
  {
    "subtype": "noteOn",
    "velocity": 0,
    "type": "channel",
    "noteNumber": 70,
    "channel": 0,
    "deltaTime": 120
  },
  {
    "subtype": "noteOn",
    "velocity": 0,
    "type": "channel",
    "noteNumber": 70,
    "channel": 0,
    "deltaTime": 120
  },
  {
    "subtype": "noteOn",
    "velocity": 0,
    "type": "channel",
    "noteNumber": 71,
    "channel": 0,
    "deltaTime": 120
  },
  {
    "subtype": "noteOn",
    "velocity": 0,
    "type": "channel",
    "noteNumber": 71,
    "channel": 0,
    "deltaTime": 120
  },
  {
    "subtype": "noteOn",
    "velocity": 0,
    "type": "channel",
    "noteNumber": 71,
    "channel": 0,
    "deltaTime": 120
  },
  {
    "subtype": "noteOn",
    "velocity": 0,
    "type": "channel",
    "noteNumber": 71,
    "channel": 0,
    "deltaTime": 120
  },
  {
    "subtype": "noteOff",
    "velocity": 0,
    "type": "channel",
    "noteNumber": 71,
    "channel": 0,
    "deltaTime": 0
  },
  {
    "subtype": "noteOn",
    "velocity": 0,
    "type": "channel",
    "noteNumber": 75,
    "channel": 0,
    "deltaTime": 120
  },
  {
    "subtype": "noteOff",
    "velocity": 0,
    "type": "channel",
    "noteNumber": 75,
    "channel": 0,
    "deltaTime": 0
  },
  {
    "subtype": "noteOn",
    "velocity": 0,
    "type": "channel",
    "noteNumber": 70,
    "channel": 0,
    "deltaTime": 120
  },
  {
    "subtype": "noteOn",
    "velocity": 0,
    "type": "channel",
    "noteNumber": 68,
    "channel": 0,
    "deltaTime": 120
  },
  {
    "subtype": "noteOn",
    "velocity": 0,
    "type": "channel",
    "noteNumber": 68,
    "channel": 0,
    "deltaTime": 120
  },
  {
    "subtype": "noteOn",
    "velocity": 0,
    "type": "channel",
    "noteNumber": 68,
    "channel": 0,
    "deltaTime": 120
  },
  {
    "subtype": "noteOn",
    "velocity": 0,
    "type": "channel",
    "noteNumber": 68,
    "channel": 0,
    "deltaTime": 120
  },
  {
    "subtype": "noteOn",
    "velocity": 0,
    "type": "channel",
    "noteNumber": 68,
    "channel": 0,
    "deltaTime": 120
  },
  {
    "subtype": "noteOn",
    "velocity": 0,
    "type": "channel",
    "noteNumber": 68,
    "channel": 0,
    "deltaTime": 120
  },
  {
    "subtype": "noteOn",
    "velocity": 0,
    "type": "channel",
    "noteNumber": 71,
    "channel": 0,
    "deltaTime": 120
  },
  {
    "subtype": "noteOn",
    "velocity": 0,
    "type": "channel",
    "noteNumber": 71,
    "channel": 0,
    "deltaTime": 120
  },
  {
    "subtype": "noteOn",
    "velocity": 0,
    "type": "channel",
    "noteNumber": 75,
    "channel": 0,
    "deltaTime": 120
  },
  {
    "subtype": "noteOn",
    "velocity": 0,
    "type": "channel",
    "noteNumber": 75,
    "channel": 0,
    "deltaTime": 120
  },
  {
    "subtype": "noteOn",
    "velocity": 0,
    "type": "channel",
    "noteNumber": 80,
    "channel": 0,
    "deltaTime": 120
  },
  {
    "subtype": "noteOn",
    "velocity": 0,
    "type": "channel",
    "noteNumber": 80,
    "channel": 0,
    "deltaTime": 120
  },
  {
    "subtype": "noteOn",
    "velocity": 0,
    "type": "channel",
    "noteNumber": 80,
    "channel": 0,
    "deltaTime": 120
  },
  {
    "subtype": "noteOn",
    "velocity": 0,
    "type": "channel",
    "noteNumber": 80,
    "channel": 0,
    "deltaTime": 120
  },
  {
    "subtype": "noteOn",
    "velocity": 0,
    "type": "channel",
    "noteNumber": 75,
    "channel": 0,
    "deltaTime": 120
  },
  {
    "subtype": "noteOn",
    "velocity": 0,
    "type": "channel",
    "noteNumber": 75,
    "channel": 0,
    "deltaTime": 120
  },
  {
    "subtype": "noteOn",
    "velocity": 0,
    "type": "channel",
    "noteNumber": 73,
    "channel": 0,
    "deltaTime": 120
  },
  {
    "subtype": "noteOn",
    "velocity": 0,
    "type": "channel",
    "noteNumber": 73,
    "channel": 0,
    "deltaTime": 120
  },
  {
    "subtype": "noteOff",
    "velocity": 0,
    "type": "channel",
    "noteNumber": 73,
    "channel": 0,
    "deltaTime": 0
  },
  {
    "subtype": "noteOn",
    "velocity": 0,
    "type": "channel",
    "noteNumber": 68,
    "channel": 0,
    "deltaTime": 120
  },
  {
    "subtype": "noteOff",
    "velocity": 0,
    "type": "channel",
    "noteNumber": 68,
    "channel": 0,
    "deltaTime": 0
  },
  {
    "subtype": "noteOn",
    "velocity": 0,
    "type": "channel",
    "noteNumber": 75,
    "channel": 0,
    "deltaTime": 120
  },
  {
    "subtype": "noteOff",
    "velocity": 0,
    "type": "channel",
    "noteNumber": 75,
    "channel": 0,
    "deltaTime": 0
  },
  {
    "subtype": "noteOn",
    "velocity": 0,
    "type": "channel",
    "noteNumber": 76,
    "channel": 0,
    "deltaTime": 120
  },
  {
    "subtype": "noteOff",
    "velocity": 0,
    "type": "channel",
    "noteNumber": 76,
    "channel": 0,
    "deltaTime": 0
  },
  {
    "subtype": "noteOn",
    "velocity": 0,
    "type": "channel",
    "noteNumber": 82,
    "channel": 0,
    "deltaTime": 120
  },
  {
    "subtype": "noteOn",
    "velocity": 0,
    "type": "channel",
    "noteNumber": 82,
    "channel": 0,
    "deltaTime": 120
  },
  {
    "subtype": "noteOn",
    "velocity": 0,
    "type": "channel",
    "noteNumber": 79,
    "channel": 0,
    "deltaTime": 120
  },
  {
    "subtype": "noteOff",
    "velocity": 0,
    "type": "channel",
    "noteNumber": 79,
    "channel": 0,
    "deltaTime": 0
  },
  {
    "subtype": "noteOn",
    "velocity": 0,
    "type": "channel",
    "noteNumber": 75,
    "channel": 0,
    "deltaTime": 120
  },
  {
    "subtype": "noteOff",
    "velocity": 0,
    "type": "channel",
    "noteNumber": 75,
    "channel": 0,
    "deltaTime": 0
  },
  {
    "subtype": "noteOn",
    "velocity": 0,
    "type": "channel",
    "noteNumber": 79,
    "channel": 0,
    "deltaTime": 120
  },
  {
    "subtype": "noteOff",
    "velocity": 0,
    "type": "channel",
    "noteNumber": 79,
    "channel": 0,
    "deltaTime": 0
  },
  {
    "subtype": "noteOn",
    "velocity": 0,
    "type": "channel",
    "noteNumber": 80,
    "channel": 0,
    "deltaTime": 120
  },
  {
    "subtype": "noteOff",
    "velocity": 0,
    "type": "channel",
    "noteNumber": 80,
    "channel": 0,
    "deltaTime": 0
  },
  {
    "subtype": "noteOn",
    "velocity": 0,
    "type": "channel",
    "noteNumber": 82,
    "channel": 0,
    "deltaTime": 120
  },
  {
    "subtype": "noteOff",
    "velocity": 0,
    "type": "channel",
    "noteNumber": 82,
    "channel": 0,
    "deltaTime": 0
  },
  {
    "subtype": "noteOn",
    "velocity": 0,
    "type": "channel",
    "noteNumber": 75,
    "channel": 0,
    "deltaTime": 120
  },
  {
    "subtype": "noteOn",
    "velocity": 0,
    "type": "channel",
    "noteNumber": 73,
    "channel": 0,
    "deltaTime": 120
  },
  {
    "subtype": "noteOn",
    "velocity": 0,
    "type": "channel",
    "noteNumber": 73,
    "channel": 0,
    "deltaTime": 120
  },
  {
    "subtype": "noteOn",
    "velocity": 0,
    "type": "channel",
    "noteNumber": 75,
    "channel": 0,
    "deltaTime": 120
  },
  {
    "subtype": "noteOn",
    "velocity": 0,
    "type": "channel",
    "noteNumber": 75,
    "channel": 0,
    "deltaTime": 120
  },
  {
    "subtype": "noteOn",
    "velocity": 0,
    "type": "channel",
    "noteNumber": 83,
    "channel": 0,
    "deltaTime": 120
  },
  {
    "subtype": "noteOn",
    "velocity": 0,
    "type": "channel",
    "noteNumber": 73,
    "channel": 0,
    "deltaTime": 120
  },
  {
    "subtype": "noteOn",
    "velocity": 0,
    "type": "channel",
    "noteNumber": 71,
    "channel": 0,
    "deltaTime": 120
  },
  {
    "subtype": "noteOn",
    "velocity": 0,
    "type": "channel",
    "noteNumber": 81,
    "channel": 0,
    "deltaTime": 120
  },
  {
    "subtype": "noteOff",
    "velocity": 0,
    "type": "channel",
    "noteNumber": 81,
    "channel": 0,
    "deltaTime": 0
  },
  {
    "subtype": "noteOn",
    "velocity": 0,
    "type": "channel",
    "noteNumber": 71,
    "channel": 0,
    "deltaTime": 120
  },
  {
    "subtype": "noteOn",
    "velocity": 0,
    "type": "channel",
    "noteNumber": 80,
    "channel": 0,
    "deltaTime": 120
  },
  {
    "subtype": "noteOn",
    "velocity": 0,
    "type": "channel",
    "noteNumber": 75,
    "channel": 0,
    "deltaTime": 120
  },
  {
    "subtype": "noteOff",
    "velocity": 0,
    "type": "channel",
    "noteNumber": 75,
    "channel": 0,
    "deltaTime": 0
  },
  {
    "subtype": "noteOff",
    "velocity": 0,
    "type": "channel",
    "noteNumber": 75,
    "channel": 0,
    "deltaTime": 0
  },
  {
    "subtype": "noteOff",
    "velocity": 0,
    "type": "channel",
    "noteNumber": 75,
    "channel": 0,
    "deltaTime": 0
  },
  {
    "subtype": "noteOn",
    "velocity": 0,
    "type": "channel",
    "noteNumber": 79,
    "channel": 0,
    "deltaTime": 120
  },
  {
    "subtype": "noteOn",
    "velocity": 0,
    "type": "channel",
    "noteNumber": 80,
    "channel": 0,
    "deltaTime": 120
  },
  {
    "subtype": "noteOn",
    "velocity": 0,
    "type": "channel",
    "noteNumber": 80,
    "channel": 0,
    "deltaTime": 120
  },
  {
    "subtype": "noteOff",
    "velocity": 0,
    "type": "channel",
    "noteNumber": 80,
    "channel": 0,
    "deltaTime": 0
  },
  {
    "subtype": "noteOff",
    "velocity": 0,
    "type": "channel",
    "noteNumber": 80,
    "channel": 0,
    "deltaTime": 0
  },
  {
    "subtype": "noteOn",
    "velocity": 0,
    "type": "channel",
    "noteNumber": 76,
    "channel": 0,
    "deltaTime": 120
  },
  {
    "subtype": "noteOn",
    "velocity": 0,
    "type": "channel",
    "noteNumber": 76,
    "channel": 0,
    "deltaTime": 120
  },
  {
    "subtype": "noteOff",
    "velocity": 0,
    "type": "channel",
    "noteNumber": 76,
    "channel": 0,
    "deltaTime": 0
  },
  {
    "subtype": "noteOn",
    "velocity": 0,
    "type": "channel",
    "noteNumber": 82,
    "channel": 0,
    "deltaTime": 120
  },
  {
    "subtype": "noteOff",
    "velocity": 0,
    "type": "channel",
    "noteNumber": 82,
    "channel": 0,
    "deltaTime": 0
  },
  {
    "subtype": "noteOn",
    "velocity": 0,
    "type": "channel",
    "noteNumber": 83,
    "channel": 0,
    "deltaTime": 120
  },
  {
    "subtype": "noteOff",
    "velocity": 0,
    "type": "channel",
    "noteNumber": 83,
    "channel": 0,
    "deltaTime": 0
  },
  {
    "subtype": "noteOn",
    "velocity": 0,
    "type": "channel",
    "noteNumber": 85,
    "channel": 0,
    "deltaTime": 120
  },
  {
    "subtype": "noteOn",
    "velocity": 0,
    "type": "channel",
    "noteNumber": 82,
    "channel": 0,
    "deltaTime": 120
  },
  {
    "subtype": "noteOn",
    "velocity": 0,
    "type": "channel",
    "noteNumber": 82,
    "channel": 0,
    "deltaTime": 120
  },
  {
    "subtype": "noteOn",
    "velocity": 0,
    "type": "channel",
    "noteNumber": 82,
    "channel": 0,
    "deltaTime": 120
  },
  {
    "subtype": "noteOn",
    "velocity": 0,
    "type": "channel",
    "noteNumber": 83,
    "channel": 0,
    "deltaTime": 120
  },
  {
    "subtype": "noteOn",
    "velocity": 0,
    "type": "channel",
    "noteNumber": 83,
    "channel": 0,
    "deltaTime": 120
  },
  {
    "subtype": "noteOn",
    "velocity": 0,
    "type": "channel",
    "noteNumber": 87,
    "channel": 0,
    "deltaTime": 120
  },
  {
    "subtype": "noteOn",
    "velocity": 0,
    "type": "channel",
    "noteNumber": 85,
    "channel": 0,
    "deltaTime": 120
  },
  {
    "subtype": "noteOn",
    "velocity": 0,
    "type": "channel",
    "noteNumber": 83,
    "channel": 0,
    "deltaTime": 120
  },
  {
    "subtype": "noteOn",
    "velocity": 0,
    "type": "channel",
    "noteNumber": 83,
    "channel": 0,
    "deltaTime": 120
  },
  {
    "subtype": "noteOn",
    "velocity": 0,
    "type": "channel",
    "noteNumber": 83,
    "channel": 0,
    "deltaTime": 120
  },
  {
    "subtype": "noteOn",
    "velocity": 0,
    "type": "channel",
    "noteNumber": 85,
    "channel": 0,
    "deltaTime": 120
  },
  {
    "subtype": "noteOn",
    "velocity": 0,
    "type": "channel",
    "noteNumber": 85,
    "channel": 0,
    "deltaTime": 120
  },
  {
    "subtype": "noteOn",
    "velocity": 0,
    "type": "channel",
    "noteNumber": 83,
    "channel": 0,
    "deltaTime": 120
  },
  {
    "subtype": "noteOn",
    "velocity": 0,
    "type": "channel",
    "noteNumber": 83,
    "channel": 0,
    "deltaTime": 120
  },
  {
    "subtype": "noteOn",
    "velocity": 0,
    "type": "channel",
    "noteNumber": 82,
    "channel": 0,
    "deltaTime": 120
  },
  {
    "subtype": "noteOn",
    "velocity": 0,
    "type": "channel",
    "noteNumber": 82,
    "channel": 0,
    "deltaTime": 120
  },
  {
    "subtype": "noteOff",
    "velocity": 0,
    "type": "channel",
    "noteNumber": 82,
    "channel": 0,
    "deltaTime": 0
  },
  {
    "subtype": "noteOn",
    "velocity": 0,
    "type": "channel",
    "noteNumber": 73,
    "channel": 0,
    "deltaTime": 120
  },
  {
    "subtype": "noteOn",
    "velocity": 0,
    "type": "channel",
    "noteNumber": 73,
    "channel": 0,
    "deltaTime": 120
  },
  {
    "subtype": "noteOn",
    "velocity": 0,
    "type": "channel",
    "noteNumber": 73,
    "channel": 0,
    "deltaTime": 120
  },
  {
    "subtype": "noteOn",
    "velocity": 0,
    "type": "channel",
    "noteNumber": 73,
    "channel": 0,
    "deltaTime": 120
  },
  {
    "subtype": "noteOn",
    "velocity": 0,
    "type": "channel",
    "noteNumber": 73,
    "channel": 0,
    "deltaTime": 120
  },
  {
    "subtype": "noteOn",
    "velocity": 0,
    "type": "channel",
    "noteNumber": 73,
    "channel": 0,
    "deltaTime": 120
  },
  {
    "subtype": "noteOn",
    "velocity": 0,
    "type": "channel",
    "noteNumber": 73,
    "channel": 0,
    "deltaTime": 120
  },
  {
    "subtype": "noteOn",
    "velocity": 0,
    "type": "channel",
    "noteNumber": 73,
    "channel": 0,
    "deltaTime": 120
  },
  {
    "subtype": "noteOn",
    "velocity": 0,
    "type": "channel",
    "noteNumber": 73,
    "channel": 0,
    "deltaTime": 120
  },
  {
    "subtype": "noteOn",
    "velocity": 0,
    "type": "channel",
    "noteNumber": 73,
    "channel": 0,
    "deltaTime": 120
  },
  {
    "subtype": "noteOn",
    "velocity": 0,
    "type": "channel",
    "noteNumber": 73,
    "channel": 0,
    "deltaTime": 120
  },
  {
    "subtype": "noteOn",
    "velocity": 0,
    "type": "channel",
    "noteNumber": 73,
    "channel": 0,
    "deltaTime": 120
  },
  {
    "subtype": "noteOff",
    "velocity": 0,
    "type": "channel",
    "noteNumber": 73,
    "channel": 0,
    "deltaTime": 0
  },
  {
    "subtype": "noteOn",
    "velocity": 0,
    "type": "channel",
    "noteNumber": 73,
    "channel": 0,
    "deltaTime": 120
  },
  {
    "subtype": "noteOn",
    "velocity": 0,
    "type": "channel",
    "noteNumber": 73,
    "channel": 0,
    "deltaTime": 120
  },
  {
    "subtype": "noteOn",
    "velocity": 0,
    "type": "channel",
    "noteNumber": 85,
    "channel": 0,
    "deltaTime": 120
  },
  {
    "subtype": "noteOn",
    "velocity": 0,
    "type": "channel",
    "noteNumber": 85,
    "channel": 0,
    "deltaTime": 120
  },
  {
    "subtype": "noteOn",
    "velocity": 0,
    "type": "channel",
    "noteNumber": 85,
    "channel": 0,
    "deltaTime": 120
  },
  {
    "subtype": "noteOn",
    "velocity": 0,
    "type": "channel",
    "noteNumber": 85,
    "channel": 0,
    "deltaTime": 120
  },
  {
    "subtype": "noteOn",
    "velocity": 0,
    "type": "channel",
    "noteNumber": 85,
    "channel": 0,
    "deltaTime": 120
  },
  {
    "subtype": "noteOn",
    "velocity": 0,
    "type": "channel",
    "noteNumber": 87,
    "channel": 0,
    "deltaTime": 120
  },
  {
    "subtype": "noteOn",
    "velocity": 0,
    "type": "channel",
    "noteNumber": 87,
    "channel": 0,
    "deltaTime": 120
  },
  {
    "subtype": "noteOn",
    "velocity": 0,
    "type": "channel",
    "noteNumber": 83,
    "channel": 0,
    "deltaTime": 120
  },
  {
    "subtype": "noteOn",
    "velocity": 0,
    "type": "channel",
    "noteNumber": 83,
    "channel": 0,
    "deltaTime": 120
  },
  {
    "subtype": "noteOn",
    "velocity": 0,
    "type": "channel",
    "noteNumber": 78,
    "channel": 0,
    "deltaTime": 120
  },
  {
    "subtype": "noteOn",
    "velocity": 0,
    "type": "channel",
    "noteNumber": 78,
    "channel": 0,
    "deltaTime": 120
  },
  {
    "subtype": "noteOn",
    "velocity": 0,
    "type": "channel",
    "noteNumber": 68,
    "channel": 0,
    "deltaTime": 120
  },
  {
    "subtype": "noteOn",
    "velocity": 0,
    "type": "channel",
    "noteNumber": 68,
    "channel": 0,
    "deltaTime": 120
  },
  {
    "subtype": "noteOn",
    "velocity": 0,
    "type": "channel",
    "noteNumber": 68,
    "channel": 0,
    "deltaTime": 120
  },
  {
    "subtype": "noteOff",
    "velocity": 0,
    "type": "channel",
    "noteNumber": 68,
    "channel": 0,
    "deltaTime": 0
  },
  {
    "subtype": "noteOn",
    "velocity": 0,
    "type": "channel",
    "noteNumber": 61,
    "channel": 0,
    "deltaTime": 120
  },
  {
    "subtype": "noteOn",
    "velocity": 0,
    "type": "channel",
    "noteNumber": 76,
    "channel": 0,
    "deltaTime": 120
  },
  {
    "subtype": "noteOn",
    "velocity": 0,
    "type": "channel",
    "noteNumber": 76,
    "channel": 0,
    "deltaTime": 120
  },
  {
    "subtype": "noteOff",
    "velocity": 0,
    "type": "channel",
    "noteNumber": 76,
    "channel": 0,
    "deltaTime": 0
  },
  {
    "subtype": "noteOn",
    "velocity": 0,
    "type": "channel",
    "noteNumber": 75,
    "channel": 0,
    "deltaTime": 120
  },
  {
    "subtype": "noteOff",
    "velocity": 0,
    "type": "channel",
    "noteNumber": 75,
    "channel": 0,
    "deltaTime": 0
  },
  {
    "subtype": "noteOff",
    "velocity": 0,
    "type": "channel",
    "noteNumber": 75,
    "channel": 0,
    "deltaTime": 0
  },
  {
    "subtype": "noteOff",
    "velocity": 0,
    "type": "channel",
    "noteNumber": 75,
    "channel": 0,
    "deltaTime": 0
  },
  {
    "subtype": "noteOff",
    "velocity": 0,
    "type": "channel",
    "noteNumber": 75,
    "channel": 0,
    "deltaTime": 0
  },
  {
    "subtype": "noteOn",
    "velocity": 0,
    "type": "channel",
    "noteNumber": 62,
    "channel": 0,
    "deltaTime": 120
  },
  {
    "subtype": "noteOn",
    "velocity": 0,
    "type": "channel",
    "noteNumber": 71,
    "channel": 0,
    "deltaTime": 120
  },
  {
    "subtype": "noteOn",
    "velocity": 0,
    "type": "channel",
    "noteNumber": 71,
    "channel": 0,
    "deltaTime": 120
  },
  {
    "subtype": "noteOff",
    "velocity": 0,
    "type": "channel",
    "noteNumber": 71,
    "channel": 0,
    "deltaTime": 0
  },
  {
    "subtype": "noteOn",
    "velocity": 0,
    "type": "channel",
    "noteNumber": 68,
    "channel": 0,
    "deltaTime": 120
  },
  {
    "subtype": "noteOn",
    "velocity": 0,
    "type": "channel",
    "noteNumber": 68,
    "channel": 0,
    "deltaTime": 120
  },
  {
    "subtype": "noteOn",
    "velocity": 0,
    "type": "channel",
    "noteNumber": 70,
    "channel": 0,
    "deltaTime": 120
  },
  {
    "subtype": "noteOn",
    "velocity": 0,
    "type": "channel",
    "noteNumber": 70,
    "channel": 0,
    "deltaTime": 120
  },
  {
    "subtype": "noteOn",
    "velocity": 0,
    "type": "channel",
    "noteNumber": 70,
    "channel": 0,
    "deltaTime": 120
  },
  {
    "subtype": "noteOn",
    "velocity": 0,
    "type": "channel",
    "noteNumber": 70,
    "channel": 0,
    "deltaTime": 120
  },
  {
    "subtype": "noteOn",
    "velocity": 0,
    "type": "channel",
    "noteNumber": 70,
    "channel": 0,
    "deltaTime": 120
  },
  {
    "subtype": "noteOn",
    "velocity": 0,
    "type": "channel",
    "noteNumber": 71,
    "channel": 0,
    "deltaTime": 120
  },
  {
    "subtype": "noteOn",
    "velocity": 0,
    "type": "channel",
    "noteNumber": 65,
    "channel": 0,
    "deltaTime": 120
  },
  {
    "subtype": "noteOff",
    "velocity": 0,
    "type": "channel",
    "noteNumber": 65,
    "channel": 0,
    "deltaTime": 0
  },
  {
    "subtype": "noteOn",
    "velocity": 0,
    "type": "channel",
    "noteNumber": 70,
    "channel": 0,
    "deltaTime": 120
  },
  {
    "subtype": "noteOn",
    "velocity": 0,
    "type": "channel",
    "noteNumber": 68,
    "channel": 0,
    "deltaTime": 120
  },
  {
    "subtype": "noteOn",
    "velocity": 0,
    "type": "channel",
    "noteNumber": 68,
    "channel": 0,
    "deltaTime": 120
  },
  {
    "subtype": "noteOn",
    "velocity": 0,
    "type": "channel",
    "noteNumber": 64,
    "channel": 0,
    "deltaTime": 120
  },
  {
    "subtype": "noteOn",
    "velocity": 0,
    "type": "channel",
    "noteNumber": 70,
    "channel": 0,
    "deltaTime": 120
  },
  {
    "subtype": "noteOn",
    "velocity": 0,
    "type": "channel",
    "noteNumber": 66,
    "channel": 0,
    "deltaTime": 120
  },
  {
    "subtype": "noteOff",
    "velocity": 0,
    "type": "channel",
    "noteNumber": 66,
    "channel": 0,
    "deltaTime": 0
  },
  {
    "subtype": "noteOn",
    "velocity": 0,
    "type": "channel",
    "noteNumber": 61,
    "channel": 0,
    "deltaTime": 120
  },
  {
    "subtype": "noteOn",
    "velocity": 0,
    "type": "channel",
    "noteNumber": 61,
    "channel": 0,
    "deltaTime": 120
  },
  {
    "subtype": "noteOff",
    "velocity": 0,
    "type": "channel",
    "noteNumber": 61,
    "channel": 0,
    "deltaTime": 0
  },
  {
    "subtype": "noteOff",
    "velocity": 0,
    "type": "channel",
    "noteNumber": 61,
    "channel": 0,
    "deltaTime": 0
  },
  {
    "subtype": "noteOn",
    "velocity": 0,
    "type": "channel",
    "noteNumber": 87,
    "channel": 0,
    "deltaTime": 120
  },
  {
    "subtype": "noteOn",
    "velocity": 0,
    "type": "channel",
    "noteNumber": 85,
    "channel": 0,
    "deltaTime": 120
  },
  {
    "subtype": "noteOn",
    "velocity": 0,
    "type": "channel",
    "noteNumber": 85,
    "channel": 0,
    "deltaTime": 120
  },
  {
    "subtype": "noteOn",
    "velocity": 0,
    "type": "channel",
    "noteNumber": 85,
    "channel": 0,
    "deltaTime": 120
  },
  {
    "subtype": "noteOn",
    "velocity": 0,
    "type": "channel",
    "noteNumber": 85,
    "channel": 0,
    "deltaTime": 120
  },
  {
    "subtype": "noteOn",
    "velocity": 0,
    "type": "channel",
    "noteNumber": 85,
    "channel": 0,
    "deltaTime": 120
  },
  {
    "subtype": "noteOff",
    "velocity": 0,
    "type": "channel",
    "noteNumber": 85,
    "channel": 0,
    "deltaTime": 0
  },
  {
    "subtype": "noteOn",
    "velocity": 0,
    "type": "channel",
    "noteNumber": 83,
    "channel": 0,
    "deltaTime": 120
  },
  {
    "subtype": "noteOn",
    "velocity": 0,
    "type": "channel",
    "noteNumber": 82,
    "channel": 0,
    "deltaTime": 120
  },
  {
    "subtype": "noteOn",
    "velocity": 0,
    "type": "channel",
    "noteNumber": 82,
    "channel": 0,
    "deltaTime": 120
  },
  {
    "subtype": "noteOn",
    "velocity": 0,
    "type": "channel",
    "noteNumber": 80,
    "channel": 0,
    "deltaTime": 120
  },
  {
    "subtype": "noteOn",
    "velocity": 0,
    "type": "channel",
    "noteNumber": 80,
    "channel": 0,
    "deltaTime": 120
  },
  {
    "subtype": "noteOn",
    "velocity": 0,
    "type": "channel",
    "noteNumber": 78,
    "channel": 0,
    "deltaTime": 120
  },
  {
    "subtype": "noteOn",
    "velocity": 0,
    "type": "channel",
    "noteNumber": 78,
    "channel": 0,
    "deltaTime": 120
  },
  {
    "subtype": "noteOn",
    "velocity": 0,
    "type": "channel",
    "noteNumber": 77,
    "channel": 0,
    "deltaTime": 120
  },
  {
    "subtype": "noteOn",
    "velocity": 0,
    "type": "channel",
    "noteNumber": 77,
    "channel": 0,
    "deltaTime": 120
  },
  {
    "subtype": "noteOn",
    "velocity": 0,
    "type": "channel",
    "noteNumber": 75,
    "channel": 0,
    "deltaTime": 120
  },
  {
    "subtype": "noteOn",
    "velocity": 0,
    "type": "channel",
    "noteNumber": 75,
    "channel": 0,
    "deltaTime": 120
  },
  {
    "subtype": "noteOn",
    "velocity": 0,
    "type": "channel",
    "noteNumber": 83,
    "channel": 0,
    "deltaTime": 120
  },
  {
    "subtype": "noteOn",
    "velocity": 0,
    "type": "channel",
    "noteNumber": 83,
    "channel": 0,
    "deltaTime": 120
  },
  {
    "subtype": "noteOn",
    "velocity": 0,
    "type": "channel",
    "noteNumber": 82,
    "channel": 0,
    "deltaTime": 120
  },
  {
    "subtype": "noteOn",
    "velocity": 0,
    "type": "channel",
    "noteNumber": 82,
    "channel": 0,
    "deltaTime": 120
  },
  {
    "subtype": "noteOn",
    "velocity": 0,
    "type": "channel",
    "noteNumber": 83,
    "channel": 0,
    "deltaTime": 120
  },
  {
    "subtype": "noteOn",
    "velocity": 0,
    "type": "channel",
    "noteNumber": 83,
    "channel": 0,
    "deltaTime": 120
  },
  {
    "subtype": "noteOn",
    "velocity": 0,
    "type": "channel",
    "noteNumber": 80,
    "channel": 0,
    "deltaTime": 120
  },
  {
    "subtype": "noteOn",
    "velocity": 0,
    "type": "channel",
    "noteNumber": 80,
    "channel": 0,
    "deltaTime": 120
  },
  {
    "subtype": "noteOff",
    "velocity": 0,
    "type": "channel",
    "noteNumber": 80,
    "channel": 0,
    "deltaTime": 0
  },
  {
    "subtype": "noteOn",
    "velocity": 0,
    "type": "channel",
    "noteNumber": 77,
    "channel": 0,
    "deltaTime": 120
  },
  {
    "subtype": "noteOn",
    "velocity": 0,
    "type": "channel",
    "noteNumber": 73,
    "channel": 0,
    "deltaTime": 120
  },
  {
    "subtype": "noteOn",
    "velocity": 0,
    "type": "channel",
    "noteNumber": 73,
    "channel": 0,
    "deltaTime": 120
  },
  {
    "subtype": "noteOff",
    "velocity": 0,
    "type": "channel",
    "noteNumber": 73,
    "channel": 0,
    "deltaTime": 0
  },
  {
    "subtype": "noteOn",
    "velocity": 0,
    "type": "channel",
    "noteNumber": 75,
    "channel": 0,
    "deltaTime": 120
  },
  {
    "subtype": "noteOn",
    "velocity": 0,
    "type": "channel",
    "noteNumber": 82,
    "channel": 0,
    "deltaTime": 120
  },
  {
    "subtype": "noteOn",
    "velocity": 0,
    "type": "channel",
    "noteNumber": 82,
    "channel": 0,
    "deltaTime": 120
  },
  {
    "subtype": "noteOn",
    "velocity": 0,
    "type": "channel",
    "noteNumber": 79,
    "channel": 0,
    "deltaTime": 120
  },
  {
    "subtype": "noteOn",
    "velocity": 0,
    "type": "channel",
    "noteNumber": 79,
    "channel": 0,
    "deltaTime": 120
  },
  {
    "subtype": "noteOn",
    "velocity": 0,
    "type": "channel",
    "noteNumber": 80,
    "channel": 0,
    "deltaTime": 120
  },
  {
    "subtype": "noteOn",
    "velocity": 0,
    "type": "channel",
    "noteNumber": 80,
    "channel": 0,
    "deltaTime": 120
  },
  {
    "subtype": "noteOn",
    "velocity": 0,
    "type": "channel",
    "noteNumber": 80,
    "channel": 0,
    "deltaTime": 120
  },
  {
    "subtype": "noteOn",
    "velocity": 0,
    "type": "channel",
    "noteNumber": 82,
    "channel": 0,
    "deltaTime": 120
  },
  {
    "subtype": "noteOff",
    "velocity": 0,
    "type": "channel",
    "noteNumber": 82,
    "channel": 0,
    "deltaTime": 0
  },
  {
    "subtype": "noteOn",
    "velocity": 0,
    "type": "channel",
    "noteNumber": 83,
    "channel": 0,
    "deltaTime": 120
  },
  {
    "subtype": "noteOn",
    "velocity": 0,
    "type": "channel",
    "noteNumber": 77,
    "channel": 0,
    "deltaTime": 120
  },
  {
    "subtype": "noteOn",
    "velocity": 0,
    "type": "channel",
    "noteNumber": 70,
    "channel": 0,
    "deltaTime": 120
  },
  {
    "subtype": "noteOn",
    "velocity": 0,
    "type": "channel",
    "noteNumber": 79,
    "channel": 0,
    "deltaTime": 120
  },
  {
    "subtype": "noteOn",
    "velocity": 0,
    "type": "channel",
    "noteNumber": 79,
    "channel": 0,
    "deltaTime": 120
  },
  {
    "subtype": "noteOn",
    "velocity": 0,
    "type": "channel",
    "noteNumber": 80,
    "channel": 0,
    "deltaTime": 120
  },
  {
    "subtype": "noteOn",
    "velocity": 0,
    "type": "channel",
    "noteNumber": 80,
    "channel": 0,
    "deltaTime": 120
  },
  {
    "subtype": "noteOn",
    "velocity": 0,
    "type": "channel",
    "noteNumber": 83,
    "channel": 0,
    "deltaTime": 120
  },
  {
    "subtype": "noteOn",
    "velocity": 0,
    "type": "channel",
    "noteNumber": 83,
    "channel": 0,
    "deltaTime": 120
  },
  {
    "subtype": "noteOff",
    "velocity": 0,
    "type": "channel",
    "noteNumber": 83,
    "channel": 0,
    "deltaTime": 0
  },
  {
    "subtype": "noteOn",
    "velocity": 0,
    "type": "channel",
    "noteNumber": 82,
    "channel": 0,
    "deltaTime": 120
  },
  {
    "subtype": "noteOff",
    "velocity": 0,
    "type": "channel",
    "noteNumber": 82,
    "channel": 0,
    "deltaTime": 0
  },
  {
    "subtype": "noteOn",
    "velocity": 0,
    "type": "channel",
    "noteNumber": 77,
    "channel": 0,
    "deltaTime": 120
  },
  {
    "subtype": "noteOn",
    "velocity": 0,
    "type": "channel",
    "noteNumber": 79,
    "channel": 0,
    "deltaTime": 120
  },
  {
    "subtype": "noteOn",
    "velocity": 0,
    "type": "channel",
    "noteNumber": 79,
    "channel": 0,
    "deltaTime": 120
  },
  {
    "subtype": "noteOn",
    "velocity": 0,
    "type": "channel",
    "noteNumber": 80,
    "channel": 0,
    "deltaTime": 120
  },
  {
    "subtype": "noteOn",
    "velocity": 0,
    "type": "channel",
    "noteNumber": 80,
    "channel": 0,
    "deltaTime": 120
  },
  {
    "subtype": "noteOff",
    "velocity": 0,
    "type": "channel",
    "noteNumber": 80,
    "channel": 0,
    "deltaTime": 0
  },
  {
    "subtype": "noteOn",
    "velocity": 0,
    "type": "channel",
    "noteNumber": 77,
    "channel": 0,
    "deltaTime": 120
  },
  {
    "subtype": "noteOff",
    "velocity": 0,
    "type": "channel",
    "noteNumber": 77,
    "channel": 0,
    "deltaTime": 0
  },
  {
    "subtype": "noteOn",
    "velocity": 0,
    "type": "channel",
    "noteNumber": 76,
    "channel": 0,
    "deltaTime": 120
  },
  {
    "subtype": "noteOff",
    "velocity": 0,
    "type": "channel",
    "noteNumber": 76,
    "channel": 0,
    "deltaTime": 0
  },
  {
    "subtype": "noteOn",
    "velocity": 0,
    "type": "channel",
    "noteNumber": 70,
    "channel": 0,
    "deltaTime": 120
  },
  {
    "subtype": "noteOff",
    "velocity": 0,
    "type": "channel",
    "noteNumber": 70,
    "channel": 0,
    "deltaTime": 0
  },
  {
    "subtype": "noteOn",
    "velocity": 0,
    "type": "channel",
    "noteNumber": 73,
    "channel": 0,
    "deltaTime": 120
  },
  {
    "subtype": "noteOn",
    "velocity": 0,
    "type": "channel",
    "noteNumber": 77,
    "channel": 0,
    "deltaTime": 120
  },
  {
    "subtype": "noteOn",
    "velocity": 0,
    "type": "channel",
    "noteNumber": 77,
    "channel": 0,
    "deltaTime": 120
  },
  {
    "subtype": "noteOff",
    "velocity": 0,
    "type": "channel",
    "noteNumber": 77,
    "channel": 0,
    "deltaTime": 0
  },
  {
    "subtype": "noteOn",
    "velocity": 0,
    "type": "channel",
    "noteNumber": 82,
    "channel": 0,
    "deltaTime": 120
  },
  {
    "subtype": "noteOn",
    "velocity": 0,
    "type": "channel",
    "noteNumber": 75,
    "channel": 0,
    "deltaTime": 120
  },
  {
    "subtype": "noteOn",
    "velocity": 0,
    "type": "channel",
    "noteNumber": 75,
    "channel": 0,
    "deltaTime": 120
  },
  {
    "subtype": "noteOff",
    "velocity": 0,
    "type": "channel",
    "noteNumber": 75,
    "channel": 0,
    "deltaTime": 0
  },
  {
    "subtype": "noteOn",
    "velocity": 0,
    "type": "channel",
    "noteNumber": 77,
    "channel": 0,
    "deltaTime": 120
  },
  {
    "subtype": "noteOn",
    "velocity": 0,
    "type": "channel",
    "noteNumber": 79,
    "channel": 0,
    "deltaTime": 120
  },
  {
    "subtype": "noteOn",
    "velocity": 0,
    "type": "channel",
    "noteNumber": 79,
    "channel": 0,
    "deltaTime": 120
  },
  {
    "subtype": "noteOn",
    "velocity": 0,
    "type": "channel",
    "noteNumber": 80,
    "channel": 0,
    "deltaTime": 120
  },
  {
    "subtype": "noteOn",
    "velocity": 0,
    "type": "channel",
    "noteNumber": 80,
    "channel": 0,
    "deltaTime": 120
  },
  {
    "subtype": "noteOn",
    "velocity": 0,
    "type": "channel",
    "noteNumber": 83,
    "channel": 0,
    "deltaTime": 120
  },
  {
    "subtype": "noteOn",
    "velocity": 0,
    "type": "channel",
    "noteNumber": 78,
    "channel": 0,
    "deltaTime": 120
  },
  {
    "subtype": "noteOn",
    "velocity": 0,
    "type": "channel",
    "noteNumber": 77,
    "channel": 0,
    "deltaTime": 120
  },
  {
    "subtype": "noteOn",
    "velocity": 0,
    "type": "channel",
    "noteNumber": 77,
    "channel": 0,
    "deltaTime": 120
  },
  {
    "subtype": "noteOn",
    "velocity": 0,
    "type": "channel",
    "noteNumber": 80,
    "channel": 0,
    "deltaTime": 120
  },
  {
    "subtype": "noteOn",
    "velocity": 0,
    "type": "channel",
    "noteNumber": 80,
    "channel": 0,
    "deltaTime": 120
  },
  {
    "subtype": "noteOff",
    "velocity": 0,
    "type": "channel",
    "noteNumber": 80,
    "channel": 0,
    "deltaTime": 0
  },
  {
    "subtype": "noteOn",
    "velocity": 0,
    "type": "channel",
    "noteNumber": 83,
    "channel": 0,
    "deltaTime": 120
  },
  {
    "subtype": "noteOn",
    "velocity": 0,
    "type": "channel",
    "noteNumber": 73,
    "channel": 0,
    "deltaTime": 120
  },
  {
    "subtype": "noteOn",
    "velocity": 0,
    "type": "channel",
    "noteNumber": 75,
    "channel": 0,
    "deltaTime": 120
  },
  {
    "subtype": "noteOn",
    "velocity": 0,
    "type": "channel",
    "noteNumber": 75,
    "channel": 0,
    "deltaTime": 120
  },
  {
    "subtype": "noteOn",
    "velocity": 0,
    "type": "channel",
    "noteNumber": 75,
    "channel": 0,
    "deltaTime": 120
  },
  {
    "subtype": "noteOn",
    "velocity": 0,
    "type": "channel",
    "noteNumber": 83,
    "channel": 0,
    "deltaTime": 120
  },
  {
    "subtype": "noteOn",
    "velocity": 0,
    "type": "channel",
    "noteNumber": 83,
    "channel": 0,
    "deltaTime": 120
  },
  {
    "subtype": "noteOn",
    "velocity": 0,
    "type": "channel",
    "noteNumber": 82,
    "channel": 0,
    "deltaTime": 120
  },
  {
    "subtype": "noteOn",
    "velocity": 0,
    "type": "channel",
    "noteNumber": 82,
    "channel": 0,
    "deltaTime": 120
  },
  {
    "subtype": "noteOn",
    "velocity": 0,
    "type": "channel",
    "noteNumber": 80,
    "channel": 0,
    "deltaTime": 120
  },
  {
    "subtype": "noteOn",
    "velocity": 0,
    "type": "channel",
    "noteNumber": 80,
    "channel": 0,
    "deltaTime": 120
  },
  {
    "subtype": "noteOn",
    "velocity": 0,
    "type": "channel",
    "noteNumber": 79,
    "channel": 0,
    "deltaTime": 120
  },
  {
    "subtype": "noteOn",
    "velocity": 0,
    "type": "channel",
    "noteNumber": 79,
    "channel": 0,
    "deltaTime": 120
  },
  {
    "subtype": "noteOn",
    "velocity": 0,
    "type": "channel",
    "noteNumber": 80,
    "channel": 0,
    "deltaTime": 120
  },
  {
    "subtype": "noteOn",
    "velocity": 0,
    "type": "channel",
    "noteNumber": 80,
    "channel": 0,
    "deltaTime": 120
  },
  {
    "subtype": "noteOff",
    "velocity": 0,
    "type": "channel",
    "noteNumber": 80,
    "channel": 0,
    "deltaTime": 0
  },
  {
    "subtype": "noteOn",
    "velocity": 0,
    "type": "channel",
    "noteNumber": 78,
    "channel": 0,
    "deltaTime": 120
  },
  {
    "subtype": "noteOn",
    "velocity": 0,
    "type": "channel",
    "noteNumber": 77,
    "channel": 0,
    "deltaTime": 120
  },
  {
    "subtype": "noteOn",
    "velocity": 0,
    "type": "channel",
    "noteNumber": 77,
    "channel": 0,
    "deltaTime": 120
  },
  {
    "subtype": "noteOff",
    "velocity": 0,
    "type": "channel",
    "noteNumber": 77,
    "channel": 0,
    "deltaTime": 0
  },
  {
    "subtype": "noteOn",
    "velocity": 0,
    "type": "channel",
    "noteNumber": 75,
    "channel": 0,
    "deltaTime": 120
  },
  {
    "subtype": "noteOff",
    "velocity": 0,
    "type": "channel",
    "noteNumber": 75,
    "channel": 0,
    "deltaTime": 0
  },
  {
    "subtype": "noteOn",
    "velocity": 0,
    "type": "channel",
    "noteNumber": 79,
    "channel": 0,
    "deltaTime": 120
  },
  {
    "subtype": "noteOn",
    "velocity": 0,
    "type": "channel",
    "noteNumber": 80,
    "channel": 0,
    "deltaTime": 120
  },
  {
    "subtype": "noteOn",
    "velocity": 0,
    "type": "channel",
    "noteNumber": 80,
    "channel": 0,
    "deltaTime": 120
  },
  {
    "subtype": "noteOff",
    "velocity": 0,
    "type": "channel",
    "noteNumber": 80,
    "channel": 0,
    "deltaTime": 0
  },
  {
    "subtype": "noteOn",
    "velocity": 0,
    "type": "channel",
    "noteNumber": 77,
    "channel": 0,
    "deltaTime": 120
  },
  {
    "subtype": "noteOff",
    "velocity": 0,
    "type": "channel",
    "noteNumber": 77,
    "channel": 0,
    "deltaTime": 0
  },
  {
    "subtype": "noteOn",
    "velocity": 0,
    "type": "channel",
    "noteNumber": 71,
    "channel": 0,
    "deltaTime": 120
  },
  {
    "subtype": "noteOn",
    "velocity": 0,
    "type": "channel",
    "noteNumber": 72,
    "channel": 0,
    "deltaTime": 120
  },
  {
    "subtype": "noteOn",
    "velocity": 0,
    "type": "channel",
    "noteNumber": 72,
    "channel": 0,
    "deltaTime": 120
  },
  {
    "subtype": "noteOn",
    "velocity": 0,
    "type": "channel",
    "noteNumber": 80,
    "channel": 0,
    "deltaTime": 120
  },
  {
    "subtype": "noteOn",
    "velocity": 0,
    "type": "channel",
    "noteNumber": 80,
    "channel": 0,
    "deltaTime": 120
  },
  {
    "subtype": "noteOn",
    "velocity": 0,
    "type": "channel",
    "noteNumber": 65,
    "channel": 0,
    "deltaTime": 120
  },
  {
    "subtype": "noteOn",
    "velocity": 0,
    "type": "channel",
    "noteNumber": 77,
    "channel": 0,
    "deltaTime": 120
  },
  {
    "subtype": "noteOn",
    "velocity": 0,
    "type": "channel",
    "noteNumber": 74,
    "channel": 0,
    "deltaTime": 120
  },
  {
    "subtype": "noteOn",
    "velocity": 0,
    "type": "channel",
    "noteNumber": 74,
    "channel": 0,
    "deltaTime": 120
  },
  {
    "subtype": "noteOn",
    "velocity": 0,
    "type": "channel",
    "noteNumber": 70,
    "channel": 0,
    "deltaTime": 120
  },
  {
    "subtype": "noteOn",
    "velocity": 0,
    "type": "channel",
    "noteNumber": 70,
    "channel": 0,
    "deltaTime": 120
  },
  {
    "subtype": "noteOn",
    "velocity": 0,
    "type": "channel",
    "noteNumber": 74,
    "channel": 0,
    "deltaTime": 120
  },
  {
    "subtype": "noteOn",
    "velocity": 0,
    "type": "channel",
    "noteNumber": 78,
    "channel": 0,
    "deltaTime": 120
  },
  {
    "subtype": "noteOn",
    "velocity": 0,
    "type": "channel",
    "noteNumber": 82,
    "channel": 0,
    "deltaTime": 120
  },
  {
    "subtype": "noteOn",
    "velocity": 0,
    "type": "channel",
    "noteNumber": 82,
    "channel": 0,
    "deltaTime": 120
  },
  {
    "subtype": "noteOff",
    "velocity": 0,
    "type": "channel",
    "noteNumber": 82,
    "channel": 0,
    "deltaTime": 0
  },
  {
    "subtype": "noteOn",
    "velocity": 0,
    "type": "channel",
    "noteNumber": 80,
    "channel": 0,
    "deltaTime": 120
  },
  {
    "subtype": "noteOff",
    "velocity": 0,
    "type": "channel",
    "noteNumber": 80,
    "channel": 0,
    "deltaTime": 0
  },
  {
    "subtype": "noteOn",
    "velocity": 0,
    "type": "channel",
    "noteNumber": 83,
    "channel": 0,
    "deltaTime": 120
  },
  {
    "subtype": "noteOn",
    "velocity": 0,
    "type": "channel",
    "noteNumber": 82,
    "channel": 0,
    "deltaTime": 120
  },
  {
    "subtype": "noteOn",
    "velocity": 0,
    "type": "channel",
    "noteNumber": 82,
    "channel": 0,
    "deltaTime": 120
  },
  {
    "subtype": "noteOn",
    "velocity": 0,
    "type": "channel",
    "noteNumber": 80,
    "channel": 0,
    "deltaTime": 120
  },
  {
    "subtype": "noteOn",
    "velocity": 0,
    "type": "channel",
    "noteNumber": 80,
    "channel": 0,
    "deltaTime": 120
  },
  {
    "subtype": "noteOn",
    "velocity": 0,
    "type": "channel",
    "noteNumber": 78,
    "channel": 0,
    "deltaTime": 120
  },
  {
    "subtype": "noteOn",
    "velocity": 0,
    "type": "channel",
    "noteNumber": 78,
    "channel": 0,
    "deltaTime": 120
  },
  {
    "subtype": "noteOn",
    "velocity": 0,
    "type": "channel",
    "noteNumber": 77,
    "channel": 0,
    "deltaTime": 120
  },
  {
    "subtype": "noteOn",
    "velocity": 0,
    "type": "channel",
    "noteNumber": 77,
    "channel": 0,
    "deltaTime": 120
  },
  {
    "subtype": "noteOn",
    "velocity": 0,
    "type": "channel",
    "noteNumber": 75,
    "channel": 0,
    "deltaTime": 120
  },
  {
    "subtype": "noteOn",
    "velocity": 0,
    "type": "channel",
    "noteNumber": 75,
    "channel": 0,
    "deltaTime": 120
  },
  {
    "subtype": "noteOn",
    "velocity": 0,
    "type": "channel",
    "noteNumber": 74,
    "channel": 0,
    "deltaTime": 120
  },
  {
    "subtype": "noteOn",
    "velocity": 0,
    "type": "channel",
    "noteNumber": 74,
    "channel": 0,
    "deltaTime": 120
  },
  {
    "subtype": "noteOff",
    "velocity": 0,
    "type": "channel",
    "noteNumber": 74,
    "channel": 0,
    "deltaTime": 0
  },
  {
    "subtype": "noteOn",
    "velocity": 0,
    "type": "channel",
    "noteNumber": 75,
    "channel": 0,
    "deltaTime": 120
  },
  {
    "subtype": "noteOff",
    "velocity": 0,
    "type": "channel",
    "noteNumber": 75,
    "channel": 0,
    "deltaTime": 0
  },
  {
    "subtype": "noteOn",
    "velocity": 0,
    "type": "channel",
    "noteNumber": 68,
    "channel": 0,
    "deltaTime": 120
  },
  {
    "subtype": "noteOff",
    "velocity": 0,
    "type": "channel",
    "noteNumber": 68,
    "channel": 0,
    "deltaTime": 0
  },
  {
    "subtype": "noteOn",
    "velocity": 0,
    "type": "channel",
    "noteNumber": 70,
    "channel": 0,
    "deltaTime": 120
  },
  {
    "subtype": "noteOn",
    "velocity": 0,
    "type": "channel",
    "noteNumber": 71,
    "channel": 0,
    "deltaTime": 120
  },
  {
    "subtype": "noteOn",
    "velocity": 0,
    "type": "channel",
    "noteNumber": 71,
    "channel": 0,
    "deltaTime": 120
  },
  {
    "subtype": "noteOff",
    "velocity": 0,
    "type": "channel",
    "noteNumber": 71,
    "channel": 0,
    "deltaTime": 0
  },
  {
    "subtype": "noteOn",
    "velocity": 0,
    "type": "channel",
    "noteNumber": 62,
    "channel": 0,
    "deltaTime": 120
  },
  {
    "subtype": "noteOff",
    "velocity": 0,
    "type": "channel",
    "noteNumber": 62,
    "channel": 0,
    "deltaTime": 0
  },
  {
    "subtype": "noteOn",
    "velocity": 0,
    "type": "channel",
    "noteNumber": 68,
    "channel": 0,
    "deltaTime": 120
  },
  {
    "subtype": "noteOff",
    "velocity": 0,
    "type": "channel",
    "noteNumber": 68,
    "channel": 0,
    "deltaTime": 0
  },
  {
    "subtype": "noteOn",
    "velocity": 0,
    "type": "channel",
    "noteNumber": 82,
    "channel": 0,
    "deltaTime": 120
  },
  {
    "subtype": "noteOff",
    "velocity": 0,
    "type": "channel",
    "noteNumber": 82,
    "channel": 0,
    "deltaTime": 0
  },
  {
    "subtype": "noteOn",
    "velocity": 0,
    "type": "channel",
    "noteNumber": 83,
    "channel": 0,
    "deltaTime": 120
  },
  {
    "subtype": "noteOff",
    "velocity": 0,
    "type": "channel",
    "noteNumber": 83,
    "channel": 0,
    "deltaTime": 0
  },
  {
    "subtype": "noteOn",
    "velocity": 0,
    "type": "channel",
    "noteNumber": 82,
    "channel": 0,
    "deltaTime": 120
  },
  {
    "subtype": "noteOff",
    "velocity": 0,
    "type": "channel",
    "noteNumber": 82,
    "channel": 0,
    "deltaTime": 0
  },
  {
    "subtype": "noteOn",
    "velocity": 0,
    "type": "channel",
    "noteNumber": 75,
    "channel": 0,
    "deltaTime": 120
  },
  {
    "subtype": "noteOn",
    "velocity": 0,
    "type": "channel",
    "noteNumber": 79,
    "channel": 0,
    "deltaTime": 120
  },
  {
    "subtype": "noteOn",
    "velocity": 0,
    "type": "channel",
    "noteNumber": 79,
    "channel": 0,
    "deltaTime": 120
  },
  {
    "subtype": "noteOn",
    "velocity": 0,
    "type": "channel",
    "noteNumber": 80,
    "channel": 0,
    "deltaTime": 120
  },
  {
    "subtype": "noteOn",
    "velocity": 0,
    "type": "channel",
    "noteNumber": 80,
    "channel": 0,
    "deltaTime": 120
  },
  {
    "subtype": "noteOn",
    "velocity": 0,
    "type": "channel",
    "noteNumber": 77,
    "channel": 0,
    "deltaTime": 120
  },
  {
    "subtype": "noteOn",
    "velocity": 0,
    "type": "channel",
    "noteNumber": 77,
    "channel": 0,
    "deltaTime": 120
  },
  {
    "subtype": "noteOff",
    "velocity": 0,
    "type": "channel",
    "noteNumber": 77,
    "channel": 0,
    "deltaTime": 0
  },
  {
    "subtype": "noteOn",
    "velocity": 0,
    "type": "channel",
    "noteNumber": 71,
    "channel": 0,
    "deltaTime": 120
  },
  {
    "subtype": "noteOff",
    "velocity": 0,
    "type": "channel",
    "noteNumber": 71,
    "channel": 0,
    "deltaTime": 0
  },
  {
    "subtype": "noteOn",
    "velocity": 0,
    "type": "channel",
    "noteNumber": 68,
    "channel": 0,
    "deltaTime": 120
  },
  {
    "subtype": "noteOff",
    "velocity": 0,
    "type": "channel",
    "noteNumber": 68,
    "channel": 0,
    "deltaTime": 0
  },
  {
    "subtype": "noteOn",
    "velocity": 0,
    "type": "channel",
    "noteNumber": 83,
    "channel": 0,
    "deltaTime": 120
  },
  {
    "subtype": "noteOn",
    "velocity": 0,
    "type": "channel",
    "noteNumber": 80,
    "channel": 0,
    "deltaTime": 120
  },
  {
    "subtype": "noteOn",
    "velocity": 0,
    "type": "channel",
    "noteNumber": 80,
    "channel": 0,
    "deltaTime": 120
  },
  {
    "subtype": "noteOn",
    "velocity": 0,
    "type": "channel",
    "noteNumber": 77,
    "channel": 0,
    "deltaTime": 120
  },
  {
    "subtype": "noteOn",
    "velocity": 0,
    "type": "channel",
    "noteNumber": 77,
    "channel": 0,
    "deltaTime": 120
  },
  {
    "subtype": "noteOn",
    "velocity": 0,
    "type": "channel",
    "noteNumber": 75,
    "channel": 0,
    "deltaTime": 120
  },
  {
    "subtype": "noteOn",
    "velocity": 0,
    "type": "channel",
    "noteNumber": 75,
    "channel": 0,
    "deltaTime": 120
  },
  {
    "subtype": "noteOff",
    "velocity": 0,
    "type": "channel",
    "noteNumber": 75,
    "channel": 0,
    "deltaTime": 0
  },
  {
    "subtype": "noteOn",
    "velocity": 0,
    "type": "channel",
    "noteNumber": 74,
    "channel": 0,
    "deltaTime": 120
  },
  {
    "subtype": "noteOff",
    "velocity": 0,
    "type": "channel",
    "noteNumber": 74,
    "channel": 0,
    "deltaTime": 0
  },
  {
    "subtype": "noteOn",
    "velocity": 0,
    "type": "channel",
    "noteNumber": 68,
    "channel": 0,
    "deltaTime": 120
  },
  {
    "subtype": "noteOn",
    "velocity": 0,
    "type": "channel",
    "noteNumber": 68,
    "channel": 0,
    "deltaTime": 120
  },
  {
    "subtype": "noteOn",
    "velocity": 0,
    "type": "channel",
    "noteNumber": 68,
    "channel": 0,
    "deltaTime": 120
  },
  {
    "subtype": "noteOn",
    "velocity": 0,
    "type": "channel",
    "noteNumber": 65,
    "channel": 0,
    "deltaTime": 120
  },
  {
    "subtype": "noteOn",
    "velocity": 0,
    "type": "channel",
    "noteNumber": 65,
    "channel": 0,
    "deltaTime": 120
  },
  {
    "subtype": "noteOff",
    "velocity": 0,
    "type": "channel",
    "noteNumber": 65,
    "channel": 0,
    "deltaTime": 0
  },
  {
    "subtype": "noteOn",
    "velocity": 0,
    "type": "channel",
    "noteNumber": 75,
    "channel": 0,
    "deltaTime": 120
  },
  {
    "subtype": "noteOn",
    "velocity": 0,
    "type": "channel",
    "noteNumber": 77,
    "channel": 0,
    "deltaTime": 120
  },
  {
    "subtype": "noteOff",
    "velocity": 0,
    "type": "channel",
    "noteNumber": 77,
    "channel": 0,
    "deltaTime": 0
  },
  {
    "subtype": "noteOn",
    "velocity": 0,
    "type": "channel",
    "noteNumber": 82,
    "channel": 0,
    "deltaTime": 120
  },
  {
    "subtype": "noteOn",
    "velocity": 0,
    "type": "channel",
    "noteNumber": 80,
    "channel": 0,
    "deltaTime": 120
  },
  {
    "subtype": "noteOn",
    "velocity": 0,
    "type": "channel",
    "noteNumber": 80,
    "channel": 0,
    "deltaTime": 120
  },
  {
    "subtype": "noteOff",
    "velocity": 0,
    "type": "channel",
    "noteNumber": 80,
    "channel": 0,
    "deltaTime": 0
  },
  {
    "subtype": "noteOff",
    "velocity": 0,
    "type": "channel",
    "noteNumber": 80,
    "channel": 0,
    "deltaTime": 0
  },
  {
    "subtype": "noteOff",
    "velocity": 0,
    "type": "channel",
    "noteNumber": 80,
    "channel": 0,
    "deltaTime": 0
  },
  {
    "subtype": "noteOn",
    "velocity": 0,
    "type": "channel",
    "noteNumber": 77,
    "channel": 0,
    "deltaTime": 120
  },
  {
    "subtype": "noteOn",
    "velocity": 0,
    "type": "channel",
    "noteNumber": 77,
    "channel": 0,
    "deltaTime": 120
  },
  {
    "subtype": "noteOn",
    "velocity": 0,
    "type": "channel",
    "noteNumber": 79,
    "channel": 0,
    "deltaTime": 120
  },
  {
    "subtype": "noteOn",
    "velocity": 0,
    "type": "channel",
    "noteNumber": 79,
    "channel": 0,
    "deltaTime": 120
  },
  {
    "subtype": "noteOn",
    "velocity": 0,
    "type": "channel",
    "noteNumber": 75,
    "channel": 0,
    "deltaTime": 120
  },
  {
    "subtype": "noteOn",
    "velocity": 0,
    "type": "channel",
    "noteNumber": 80,
    "channel": 0,
    "deltaTime": 120
  },
  {
    "subtype": "noteOff",
    "velocity": 0,
    "type": "channel",
    "noteNumber": 80,
    "channel": 0,
    "deltaTime": 0
  },
  {
    "subtype": "noteOn",
    "velocity": 0,
    "type": "channel",
    "noteNumber": 77,
    "channel": 0,
    "deltaTime": 120
  },
  {
    "subtype": "noteOn",
    "velocity": 0,
    "type": "channel",
    "noteNumber": 79,
    "channel": 0,
    "deltaTime": 120
  },
  {
    "subtype": "noteOff",
    "velocity": 0,
    "type": "channel",
    "noteNumber": 79,
    "channel": 0,
    "deltaTime": 0
  },
  {
    "subtype": "noteOn",
    "velocity": 0,
    "type": "channel",
    "noteNumber": 80,
    "channel": 0,
    "deltaTime": 120
  },
  {
    "subtype": "noteOn",
    "velocity": 0,
    "type": "channel",
    "noteNumber": 80,
    "channel": 0,
    "deltaTime": 120
  },
  {
    "subtype": "noteOn",
    "velocity": 0,
    "type": "channel",
    "noteNumber": 82,
    "channel": 0,
    "deltaTime": 120
  },
  {
    "subtype": "noteOff",
    "velocity": 0,
    "type": "channel",
    "noteNumber": 82,
    "channel": 0,
    "deltaTime": 0
  },
  {
    "subtype": "noteOff",
    "velocity": 0,
    "type": "channel",
    "noteNumber": 82,
    "channel": 0,
    "deltaTime": 0
  },
  {
    "subtype": "noteOff",
    "velocity": 0,
    "type": "channel",
    "noteNumber": 82,
    "channel": 0,
    "deltaTime": 0
  },
  {
    "subtype": "noteOn",
    "velocity": 0,
    "type": "channel",
    "noteNumber": 80,
    "channel": 0,
    "deltaTime": 120
  },
  {
    "subtype": "noteOn",
    "velocity": 0,
    "type": "channel",
    "noteNumber": 80,
    "channel": 0,
    "deltaTime": 120
  },
  {
    "subtype": "noteOff",
    "velocity": 0,
    "type": "channel",
    "noteNumber": 80,
    "channel": 0,
    "deltaTime": 0
  },
  {
    "subtype": "noteOff",
    "velocity": 0,
    "type": "channel",
    "noteNumber": 80,
    "channel": 0,
    "deltaTime": 0
  },
  {
    "subtype": "noteOff",
    "velocity": 0,
    "type": "channel",
    "noteNumber": 80,
    "channel": 0,
    "deltaTime": 0
  },
  {
    "subtype": "noteOff",
    "velocity": 0,
    "type": "channel",
    "noteNumber": 80,
    "channel": 0,
    "deltaTime": 0
  },
  {
    "subtype": "noteOff",
    "velocity": 0,
    "type": "channel",
    "noteNumber": 80,
    "channel": 0,
    "deltaTime": 0
  },
  {
    "subtype": "noteOn",
    "velocity": 0,
    "type": "channel",
    "noteNumber": 71,
    "channel": 0,
    "deltaTime": 120
  },
  {
    "subtype": "noteOff",
    "velocity": 0,
    "type": "channel",
    "noteNumber": 71,
    "channel": 0,
    "deltaTime": 0
  },
  {
    "subtype": "noteOn",
    "velocity": 0,
    "type": "channel",
    "noteNumber": 77,
    "channel": 0,
    "deltaTime": 120
  },
  {
    "subtype": "noteOff",
    "velocity": 0,
    "type": "channel",
    "noteNumber": 77,
    "channel": 0,
    "deltaTime": 0
  },
  {
    "subtype": "noteOff",
    "velocity": 0,
    "type": "channel",
    "noteNumber": 77,
    "channel": 0,
    "deltaTime": 0
  },
  {
    "subtype": "noteOff",
    "velocity": 0,
    "type": "channel",
    "noteNumber": 77,
    "channel": 0,
    "deltaTime": 0
  },
  {
    "subtype": "noteOn",
    "velocity": 0,
    "type": "channel",
    "noteNumber": 83,
    "channel": 0,
    "deltaTime": 120
  },
  {
    "subtype": "noteOff",
    "velocity": 0,
    "type": "channel",
    "noteNumber": 83,
    "channel": 0,
    "deltaTime": 0
  },
  {
    "subtype": "noteOff",
    "velocity": 0,
    "type": "channel",
    "noteNumber": 83,
    "channel": 0,
    "deltaTime": 0
  },
  {
    "subtype": "noteOn",
    "velocity": 0,
    "type": "channel",
    "noteNumber": 85,
    "channel": 0,
    "deltaTime": 120
  },
  {
    "subtype": "noteOn",
    "velocity": 0,
    "type": "channel",
    "noteNumber": 83,
    "channel": 0,
    "deltaTime": 120
  },
  {
    "subtype": "noteOn",
    "velocity": 0,
    "type": "channel",
    "noteNumber": 82,
    "channel": 0,
    "deltaTime": 120
  },
  {
    "subtype": "noteOn",
    "velocity": 0,
    "type": "channel",
    "noteNumber": 82,
    "channel": 0,
    "deltaTime": 120
  },
  {
    "subtype": "noteOff",
    "velocity": 0,
    "type": "channel",
    "noteNumber": 82,
    "channel": 0,
    "deltaTime": 0
  },
  {
    "subtype": "noteOff",
    "velocity": 0,
    "type": "channel",
    "noteNumber": 82,
    "channel": 0,
    "deltaTime": 0
  },
  {
    "subtype": "noteOff",
    "velocity": 0,
    "type": "channel",
    "noteNumber": 82,
    "channel": 0,
    "deltaTime": 0
  },
  {
    "subtype": "noteOn",
    "velocity": 0,
    "type": "channel",
    "noteNumber": 80,
    "channel": 0,
    "deltaTime": 120
  },
  {
    "subtype": "noteOn",
    "velocity": 0,
    "type": "channel",
    "noteNumber": 66,
    "channel": 0,
    "deltaTime": 120
  },
  {
    "subtype": "noteOff",
    "velocity": 0,
    "type": "channel",
    "noteNumber": 66,
    "channel": 0,
    "deltaTime": 0
  },
  {
    "subtype": "noteOff",
    "velocity": 0,
    "type": "channel",
    "noteNumber": 66,
    "channel": 0,
    "deltaTime": 0
  },
  {
    "subtype": "noteOn",
    "velocity": 0,
    "type": "channel",
    "noteNumber": 78,
    "channel": 0,
    "deltaTime": 120
  },
  {
    "subtype": "noteOff",
    "velocity": 0,
    "type": "channel",
    "noteNumber": 78,
    "channel": 0,
    "deltaTime": 0
  },
  {
    "subtype": "noteOn",
    "velocity": 0,
    "type": "channel",
    "noteNumber": 77,
    "channel": 0,
    "deltaTime": 120
  },
  {
    "subtype": "noteOff",
    "velocity": 0,
    "type": "channel",
    "noteNumber": 77,
    "channel": 0,
    "deltaTime": 0
  },
  {
    "subtype": "noteOn",
    "velocity": 0,
    "type": "channel",
    "noteNumber": 71,
    "channel": 0,
    "deltaTime": 120
  },
  {
    "subtype": "noteOn",
    "velocity": 0,
    "type": "channel",
    "noteNumber": 80,
    "channel": 0,
    "deltaTime": 120
  },
  {
    "subtype": "noteOff",
    "velocity": 0,
    "type": "channel",
    "noteNumber": 80,
    "channel": 0,
    "deltaTime": 0
  },
  {
    "subtype": "noteOff",
    "velocity": 0,
    "type": "channel",
    "noteNumber": 80,
    "channel": 0,
    "deltaTime": 0
  },
  {
    "subtype": "noteOff",
    "velocity": 0,
    "type": "channel",
    "noteNumber": 80,
    "channel": 0,
    "deltaTime": 0
  },
  {
    "subtype": "noteOff",
    "velocity": 0,
    "type": "channel",
    "noteNumber": 80,
    "channel": 0,
    "deltaTime": 0
  },
  {
    "subtype": "noteOn",
    "velocity": 0,
    "type": "channel",
    "noteNumber": 68,
    "channel": 0,
    "deltaTime": 120
  },
  {
    "subtype": "noteOff",
    "velocity": 0,
    "type": "channel",
    "noteNumber": 68,
    "channel": 0,
    "deltaTime": 0
  },
  {
    "subtype": "noteOn",
    "velocity": 0,
    "type": "channel",
    "noteNumber": 75,
    "channel": 0,
    "deltaTime": 120
  },
  {
    "subtype": "noteOff",
    "velocity": 0,
    "type": "channel",
    "noteNumber": 75,
    "channel": 0,
    "deltaTime": 0
  },
  {
    "subtype": "noteOff",
    "velocity": 0,
    "type": "channel",
    "noteNumber": 75,
    "channel": 0,
    "deltaTime": 0
  },
  {
    "subtype": "noteOn",
    "velocity": 0,
    "type": "channel",
    "noteNumber": 70,
    "channel": 0,
    "deltaTime": 120
  },
  {
    "subtype": "noteOff",
    "velocity": 0,
    "type": "channel",
    "noteNumber": 70,
    "channel": 0,
    "deltaTime": 0
  },
  {
    "subtype": "noteOff",
    "velocity": 0,
    "type": "channel",
    "noteNumber": 70,
    "channel": 0,
    "deltaTime": 0
  },
  {
    "subtype": "noteOn",
    "velocity": 0,
    "type": "channel",
    "noteNumber": 63,
    "channel": 0,
    "deltaTime": 120
  },
  {
    "subtype": "noteOn",
    "velocity": 0,
    "type": "channel",
    "noteNumber": 75,
    "channel": 0,
    "deltaTime": 120
  },
  {
    "subtype": "noteOn",
    "velocity": 0,
    "type": "channel",
    "noteNumber": 75,
    "channel": 0,
    "deltaTime": 120
  },
  {
    "subtype": "noteOff",
    "velocity": 0,
    "type": "channel",
    "noteNumber": 75,
    "channel": 0,
    "deltaTime": 0
  },
  {
    "subtype": "noteOff",
    "velocity": 0,
    "type": "channel",
    "noteNumber": 75,
    "channel": 0,
    "deltaTime": 0
  },
  {
    "subtype": "noteOff",
    "velocity": 0,
    "type": "channel",
    "noteNumber": 75,
    "channel": 0,
    "deltaTime": 0
  },
  {
    "subtype": "noteOn",
    "velocity": 0,
    "type": "channel",
    "noteNumber": 82,
    "channel": 0,
    "deltaTime": 120
  },
  {
    "subtype": "noteOn",
    "velocity": 0,
    "type": "channel",
    "noteNumber": 80,
    "channel": 0,
    "deltaTime": 120
  },
  {
    "subtype": "noteOn",
    "velocity": 0,
    "type": "channel",
    "noteNumber": 80,
    "channel": 0,
    "deltaTime": 120
  },
  {
    "subtype": "noteOn",
    "velocity": 0,
    "type": "channel",
    "noteNumber": 75,
    "channel": 0,
    "deltaTime": 120
  },
  {
    "subtype": "noteOn",
    "velocity": 0,
    "type": "channel",
    "noteNumber": 75,
    "channel": 0,
    "deltaTime": 120
  },
  {
    "subtype": "noteOff",
    "velocity": 0,
    "type": "channel",
    "noteNumber": 75,
    "channel": 0,
    "deltaTime": 0
  },
  {
    "subtype": "noteOn",
    "velocity": 0,
    "type": "channel",
    "noteNumber": 79,
    "channel": 0,
    "deltaTime": 120
  },
  {
    "subtype": "noteOn",
    "velocity": 0,
    "type": "channel",
    "noteNumber": 82,
    "channel": 0,
    "deltaTime": 120
  },
  {
    "subtype": "noteOn",
    "velocity": 0,
    "type": "channel",
    "noteNumber": 75,
    "channel": 0,
    "deltaTime": 120
  },
  {
    "subtype": "noteOff",
    "velocity": 0,
    "type": "channel",
    "noteNumber": 75,
    "channel": 0,
    "deltaTime": 0
  },
  {
    "subtype": "noteOn",
    "velocity": 0,
    "type": "channel",
    "noteNumber": 66,
    "channel": 0,
    "deltaTime": 120
  },
  {
    "subtype": "noteOff",
    "velocity": 0,
    "type": "channel",
    "noteNumber": 66,
    "channel": 0,
    "deltaTime": 0
  },
  {
    "subtype": "noteOn",
    "velocity": 0,
    "type": "channel",
    "noteNumber": 75,
    "channel": 0,
    "deltaTime": 120
  },
  {
    "subtype": "noteOff",
    "velocity": 0,
    "type": "channel",
    "noteNumber": 75,
    "channel": 0,
    "deltaTime": 0
  },
  {
    "subtype": "noteOn",
    "velocity": 0,
    "type": "channel",
    "noteNumber": 78,
    "channel": 0,
    "deltaTime": 120
  },
  {
    "subtype": "noteOn",
    "velocity": 0,
    "type": "channel",
    "noteNumber": 82,
    "channel": 0,
    "deltaTime": 120
  },
  {
    "subtype": "noteOn",
    "velocity": 0,
    "type": "channel",
    "noteNumber": 82,
    "channel": 0,
    "deltaTime": 120
  },
  {
    "subtype": "noteOn",
    "velocity": 0,
    "type": "channel",
    "noteNumber": 80,
    "channel": 0,
    "deltaTime": 120
  },
  {
    "subtype": "noteOn",
    "velocity": 0,
    "type": "channel",
    "noteNumber": 80,
    "channel": 0,
    "deltaTime": 120
  },
  {
    "subtype": "noteOn",
    "velocity": 0,
    "type": "channel",
    "noteNumber": 79,
    "channel": 0,
    "deltaTime": 120
  },
  {
    "subtype": "noteOff",
    "velocity": 0,
    "type": "channel",
    "noteNumber": 79,
    "channel": 0,
    "deltaTime": 0
  },
  {
    "subtype": "noteOn",
    "velocity": 0,
    "type": "channel",
    "noteNumber": 75,
    "channel": 0,
    "deltaTime": 120
  },
  {
    "subtype": "noteOff",
    "velocity": 0,
    "type": "channel",
    "noteNumber": 75,
    "channel": 0,
    "deltaTime": 0
  },
  {
    "subtype": "noteOn",
    "velocity": 0,
    "type": "channel",
    "noteNumber": 80,
    "channel": 0,
    "deltaTime": 120
  },
  {
    "subtype": "noteOn",
    "velocity": 0,
    "type": "channel",
    "noteNumber": 80,
    "channel": 0,
    "deltaTime": 120
  },
  {
    "subtype": "noteOn",
    "velocity": 0,
    "type": "channel",
    "noteNumber": 82,
    "channel": 0,
    "deltaTime": 120
  },
  {
    "subtype": "noteOff",
    "velocity": 0,
    "type": "channel",
    "noteNumber": 82,
    "channel": 0,
    "deltaTime": 0
  },
  {
    "subtype": "noteOff",
    "velocity": 0,
    "type": "channel",
    "noteNumber": 82,
    "channel": 0,
    "deltaTime": 0
  },
  {
    "subtype": "noteOn",
    "velocity": 0,
    "type": "channel",
    "noteNumber": 80,
    "channel": 0,
    "deltaTime": 120
  },
  {
    "subtype": "noteOn",
    "velocity": 0,
    "type": "channel",
    "noteNumber": 80,
    "channel": 0,
    "deltaTime": 120
  },
  {
    "subtype": "noteOff",
    "velocity": 0,
    "type": "channel",
    "noteNumber": 80,
    "channel": 0,
    "deltaTime": 0
  },
  {
    "subtype": "noteOff",
    "velocity": 0,
    "type": "channel",
    "noteNumber": 80,
    "channel": 0,
    "deltaTime": 0
  },
  {
    "subtype": "noteOn",
    "velocity": 0,
    "type": "channel",
    "noteNumber": 77,
    "channel": 0,
    "deltaTime": 120
  },
  {
    "subtype": "noteOff",
    "velocity": 0,
    "type": "channel",
    "noteNumber": 77,
    "channel": 0,
    "deltaTime": 0
  },
  {
    "subtype": "noteOff",
    "velocity": 0,
    "type": "channel",
    "noteNumber": 77,
    "channel": 0,
    "deltaTime": 0
  },
  {
    "subtype": "noteOff",
    "velocity": 0,
    "type": "channel",
    "noteNumber": 77,
    "channel": 0,
    "deltaTime": 0
  },
  {
    "subtype": "noteOff",
    "velocity": 0,
    "type": "channel",
    "noteNumber": 77,
    "channel": 0,
    "deltaTime": 0
  },
  {
    "subtype": "noteOff",
    "velocity": 0,
    "type": "channel",
    "noteNumber": 77,
    "channel": 0,
    "deltaTime": 0
  },
  {
    "subtype": "noteOn",
    "velocity": 0,
    "type": "channel",
    "noteNumber": 75,
    "channel": 0,
    "deltaTime": 120
  },
  {
    "subtype": "noteOff",
    "velocity": 0,
    "type": "channel",
    "noteNumber": 75,
    "channel": 0,
    "deltaTime": 0
  },
  {
    "subtype": "noteOn",
    "velocity": 0,
    "type": "channel",
    "noteNumber": 77,
    "channel": 0,
    "deltaTime": 120
  },
  {
    "subtype": "noteOff",
    "velocity": 0,
    "type": "channel",
    "noteNumber": 77,
    "channel": 0,
    "deltaTime": 0
  },
  {
    "subtype": "noteOn",
    "velocity": 0,
    "type": "channel",
    "noteNumber": 73,
    "channel": 0,
    "deltaTime": 120
  },
  {
    "subtype": "noteOff",
    "velocity": 0,
    "type": "channel",
    "noteNumber": 73,
    "channel": 0,
    "deltaTime": 0
  },
  {
    "subtype": "noteOff",
    "velocity": 0,
    "type": "channel",
    "noteNumber": 73,
    "channel": 0,
    "deltaTime": 0
  },
  {
    "subtype": "noteOff",
    "velocity": 0,
    "type": "channel",
    "noteNumber": 73,
    "channel": 0,
    "deltaTime": 0
  },
  {
    "subtype": "noteOff",
    "velocity": 0,
    "type": "channel",
    "noteNumber": 73,
    "channel": 0,
    "deltaTime": 0
  },
  {
    "subtype": "noteOff",
    "velocity": 0,
    "type": "channel",
    "noteNumber": 73,
    "channel": 0,
    "deltaTime": 0
  },
  {
    "subtype": "noteOff",
    "velocity": 0,
    "type": "channel",
    "noteNumber": 73,
    "channel": 0,
    "deltaTime": 0
  },
  {
    "subtype": "noteOn",
    "velocity": 0,
    "type": "channel",
    "noteNumber": 80,
    "channel": 0,
    "deltaTime": 120
  },
  {
    "subtype": "noteOff",
    "velocity": 0,
    "type": "channel",
    "noteNumber": 80,
    "channel": 0,
    "deltaTime": 0
  },
  {
    "subtype": "noteOn",
    "velocity": 0,
    "type": "channel",
    "noteNumber": 82,
    "channel": 0,
    "deltaTime": 120
  },
  {
    "subtype": "noteOn",
    "velocity": 0,
    "type": "channel",
    "noteNumber": 79,
    "channel": 0,
    "deltaTime": 120
  },
  {
    "subtype": "noteOff",
    "velocity": 0,
    "type": "channel",
    "noteNumber": 79,
    "channel": 0,
    "deltaTime": 0
  },
  {
    "subtype": "noteOff",
    "velocity": 0,
    "type": "channel",
    "noteNumber": 79,
    "channel": 0,
    "deltaTime": 0
  },
  {
    "subtype": "noteOff",
    "velocity": 0,
    "type": "channel",
    "noteNumber": 79,
    "channel": 0,
    "deltaTime": 0
  },
  {
    "subtype": "noteOn",
    "velocity": 0,
    "type": "channel",
    "noteNumber": 80,
    "channel": 0,
    "deltaTime": 120
  },
  {
    "subtype": "noteOn",
    "velocity": 0,
    "type": "channel",
    "noteNumber": 80,
    "channel": 0,
    "deltaTime": 120
  },
  {
    "subtype": "noteOn",
    "velocity": 0,
    "type": "channel",
    "noteNumber": 79,
    "channel": 0,
    "deltaTime": 120
  },
  {
    "subtype": "noteOff",
    "velocity": 0,
    "type": "channel",
    "noteNumber": 79,
    "channel": 0,
    "deltaTime": 0
  },
  {
    "subtype": "noteOff",
    "velocity": 0,
    "type": "channel",
    "noteNumber": 79,
    "channel": 0,
    "deltaTime": 0
  },
  {
    "subtype": "noteOff",
    "velocity": 0,
    "type": "channel",
    "noteNumber": 79,
    "channel": 0,
    "deltaTime": 0
  },
  {
    "subtype": "noteOff",
    "velocity": 0,
    "type": "channel",
    "noteNumber": 79,
    "channel": 0,
    "deltaTime": 0
  },
  {
    "subtype": "noteOff",
    "velocity": 0,
    "type": "channel",
    "noteNumber": 79,
    "channel": 0,
    "deltaTime": 0
  },
  {
    "subtype": "noteOff",
    "velocity": 0,
    "type": "channel",
    "noteNumber": 79,
    "channel": 0,
    "deltaTime": 0
  },
  {
    "subtype": "noteOff",
    "velocity": 0,
    "type": "channel",
    "noteNumber": 79,
    "channel": 0,
    "deltaTime": 0
  },
  {
    "subtype": "noteOn",
    "velocity": 0,
    "type": "channel",
    "noteNumber": 75,
    "channel": 0,
    "deltaTime": 120
  },
  {
    "subtype": "noteOn",
    "velocity": 0,
    "type": "channel",
    "noteNumber": 75,
    "channel": 0,
    "deltaTime": 120
  },
  {
    "subtype": "noteOn",
    "velocity": 0,
    "type": "channel",
    "noteNumber": 73,
    "channel": 0,
    "deltaTime": 120
  },
  {
    "subtype": "noteOn",
    "velocity": 0,
    "type": "channel",
    "noteNumber": 73,
    "channel": 0,
    "deltaTime": 120
  },
  {
    "subtype": "noteOn",
    "velocity": 0,
    "type": "channel",
    "noteNumber": 71,
    "channel": 0,
    "deltaTime": 120
  },
  {
    "subtype": "noteOn",
    "velocity": 0,
    "type": "channel",
    "noteNumber": 71,
    "channel": 0,
    "deltaTime": 120
  },
  {
    "subtype": "noteOn",
    "velocity": 0,
    "type": "channel",
    "noteNumber": 70,
    "channel": 0,
    "deltaTime": 120
  },
  {
    "subtype": "noteOn",
    "velocity": 0,
    "type": "channel",
    "noteNumber": 70,
    "channel": 0,
    "deltaTime": 120
  },
  {
    "subtype": "noteOn",
    "velocity": 0,
    "type": "channel",
    "noteNumber": 68,
    "channel": 0,
    "deltaTime": 120
  },
  {
    "subtype": "noteOn",
    "velocity": 0,
    "type": "channel",
    "noteNumber": 68,
    "channel": 0,
    "deltaTime": 120
  },
  {
    "subtype": "noteOn",
    "velocity": 0,
    "type": "channel",
    "noteNumber": 71,
    "channel": 0,
    "deltaTime": 120
  },
  {
    "subtype": "noteOn",
    "velocity": 0,
    "type": "channel",
    "noteNumber": 71,
    "channel": 0,
    "deltaTime": 120
  },
  {
    "subtype": "noteOn",
    "velocity": 0,
    "type": "channel",
    "noteNumber": 75,
    "channel": 0,
    "deltaTime": 120
  },
  {
    "subtype": "noteOn",
    "velocity": 0,
    "type": "channel",
    "noteNumber": 76,
    "channel": 0,
    "deltaTime": 120
  },
  {
    "subtype": "noteOn",
    "velocity": 0,
    "type": "channel",
    "noteNumber": 76,
    "channel": 0,
    "deltaTime": 120
  },
  {
    "subtype": "noteOn",
    "velocity": 0,
    "type": "channel",
    "noteNumber": 76,
    "channel": 0,
    "deltaTime": 120
  },
  {
    "subtype": "noteOff",
    "velocity": 0,
    "type": "channel",
    "noteNumber": 76,
    "channel": 0,
    "deltaTime": 0
  },
  {
    "subtype": "noteOn",
    "velocity": 0,
    "type": "channel",
    "noteNumber": 82,
    "channel": 0,
    "deltaTime": 120
  },
  {
    "subtype": "noteOn",
    "velocity": 0,
    "type": "channel",
    "noteNumber": 80,
    "channel": 0,
    "deltaTime": 120
  },
  {
    "subtype": "noteOn",
    "velocity": 0,
    "type": "channel",
    "noteNumber": 80,
    "channel": 0,
    "deltaTime": 120
  },
  {
    "subtype": "noteOff",
    "velocity": 0,
    "type": "channel",
    "noteNumber": 80,
    "channel": 0,
    "deltaTime": 0
  },
  {
    "subtype": "noteOn",
    "velocity": 0,
    "type": "channel",
    "noteNumber": 78,
    "channel": 0,
    "deltaTime": 120
  },
  {
    "subtype": "noteOff",
    "velocity": 0,
    "type": "channel",
    "noteNumber": 78,
    "channel": 0,
    "deltaTime": 0
  },
  {
    "subtype": "noteOn",
    "velocity": 0,
    "type": "channel",
    "noteNumber": 76,
    "channel": 0,
    "deltaTime": 120
  },
  {
    "subtype": "noteOn",
    "velocity": 0,
    "type": "channel",
    "noteNumber": 75,
    "channel": 0,
    "deltaTime": 120
  },
  {
    "subtype": "noteOn",
    "velocity": 0,
    "type": "channel",
    "noteNumber": 75,
    "channel": 0,
    "deltaTime": 120
  },
  {
    "subtype": "noteOn",
    "velocity": 0,
    "type": "channel",
    "noteNumber": 76,
    "channel": 0,
    "deltaTime": 120
  },
  {
    "subtype": "noteOn",
    "velocity": 0,
    "type": "channel",
    "noteNumber": 76,
    "channel": 0,
    "deltaTime": 120
  },
  {
    "subtype": "noteOff",
    "velocity": 0,
    "type": "channel",
    "noteNumber": 76,
    "channel": 0,
    "deltaTime": 0
  },
  {
    "subtype": "noteOn",
    "velocity": 0,
    "type": "channel",
    "noteNumber": 75,
    "channel": 0,
    "deltaTime": 120
  },
  {
    "subtype": "noteOn",
    "velocity": 0,
    "type": "channel",
    "noteNumber": 76,
    "channel": 0,
    "deltaTime": 120
  },
  {
    "subtype": "noteOn",
    "velocity": 0,
    "type": "channel",
    "noteNumber": 76,
    "channel": 0,
    "deltaTime": 120
  },
  {
    "subtype": "noteOff",
    "velocity": 0,
    "type": "channel",
    "noteNumber": 76,
    "channel": 0,
    "deltaTime": 0
  },
  {
    "subtype": "noteOn",
    "velocity": 0,
    "type": "channel",
    "noteNumber": 85,
    "channel": 0,
    "deltaTime": 120
  },
  {
    "subtype": "noteOn",
    "velocity": 0,
    "type": "channel",
    "noteNumber": 83,
    "channel": 0,
    "deltaTime": 120
  },
  {
    "subtype": "noteOn",
    "velocity": 0,
    "type": "channel",
    "noteNumber": 83,
    "channel": 0,
    "deltaTime": 120
  },
  {
    "subtype": "noteOn",
    "velocity": 0,
    "type": "channel",
    "noteNumber": 82,
    "channel": 0,
    "deltaTime": 120
  },
  {
    "subtype": "noteOn",
    "velocity": 0,
    "type": "channel",
    "noteNumber": 82,
    "channel": 0,
    "deltaTime": 120
  },
  {
    "subtype": "noteOn",
    "velocity": 0,
    "type": "channel",
    "noteNumber": 80,
    "channel": 0,
    "deltaTime": 120
  },
  {
    "subtype": "noteOn",
    "velocity": 0,
    "type": "channel",
    "noteNumber": 80,
    "channel": 0,
    "deltaTime": 120
  },
  {
    "subtype": "noteOn",
    "velocity": 0,
    "type": "channel",
    "noteNumber": 71,
    "channel": 0,
    "deltaTime": 120
  },
  {
    "subtype": "noteOn",
    "velocity": 0,
    "type": "channel",
    "noteNumber": 71,
    "channel": 0,
    "deltaTime": 120
  },
  {
    "subtype": "noteOff",
    "velocity": 0,
    "type": "channel",
    "noteNumber": 71,
    "channel": 0,
    "deltaTime": 0
  },
  {
    "subtype": "noteOn",
    "velocity": 0,
    "type": "channel",
    "noteNumber": 75,
    "channel": 0,
    "deltaTime": 120
  },
  {
    "subtype": "noteOff",
    "velocity": 0,
    "type": "channel",
    "noteNumber": 75,
    "channel": 0,
    "deltaTime": 0
  },
  {
    "subtype": "noteOn",
    "velocity": 0,
    "type": "channel",
    "noteNumber": 75,
    "channel": 0,
    "deltaTime": 120
  },
  {
    "subtype": "noteOn",
    "velocity": 0,
    "type": "channel",
    "noteNumber": 73,
    "channel": 0,
    "deltaTime": 120
  },
  {
    "subtype": "noteOn",
    "velocity": 0,
    "type": "channel",
    "noteNumber": 73,
    "channel": 0,
    "deltaTime": 120
  },
  {
    "subtype": "noteOff",
    "velocity": 0,
    "type": "channel",
    "noteNumber": 73,
    "channel": 0,
    "deltaTime": 0
  },
  {
    "subtype": "noteOn",
    "velocity": 0,
    "type": "channel",
    "noteNumber": 71,
    "channel": 0,
    "deltaTime": 120
  },
  {
    "subtype": "noteOff",
    "velocity": 0,
    "type": "channel",
    "noteNumber": 71,
    "channel": 0,
    "deltaTime": 0
  },
  {
    "subtype": "noteOn",
    "velocity": 0,
    "type": "channel",
    "noteNumber": 70,
    "channel": 0,
    "deltaTime": 120
  },
  {
    "subtype": "noteOff",
    "velocity": 0,
    "type": "channel",
    "noteNumber": 70,
    "channel": 0,
    "deltaTime": 0
  },
  {
    "subtype": "noteOn",
    "velocity": 0,
    "type": "channel",
    "noteNumber": 71,
    "channel": 0,
    "deltaTime": 120
  },
  {
    "subtype": "noteOn",
    "velocity": 0,
    "type": "channel",
    "noteNumber": 75,
    "channel": 0,
    "deltaTime": 120
  },
  {
    "subtype": "noteOn",
    "velocity": 0,
    "type": "channel",
    "noteNumber": 76,
    "channel": 0,
    "deltaTime": 120
  },
  {
    "subtype": "noteOn",
    "velocity": 0,
    "type": "channel",
    "noteNumber": 76,
    "channel": 0,
    "deltaTime": 120
  },
  {
    "subtype": "noteOn",
    "velocity": 0,
    "type": "channel",
    "noteNumber": 65,
    "channel": 0,
    "deltaTime": 120
  },
  {
    "subtype": "noteOn",
    "velocity": 0,
    "type": "channel",
    "noteNumber": 80,
    "channel": 0,
    "deltaTime": 120
  },
  {
    "subtype": "noteOn",
    "velocity": 0,
    "type": "channel",
    "noteNumber": 80,
    "channel": 0,
    "deltaTime": 120
  },
  {
    "subtype": "noteOff",
    "velocity": 0,
    "type": "channel",
    "noteNumber": 80,
    "channel": 0,
    "deltaTime": 0
  },
  {
    "subtype": "noteOn",
    "velocity": 0,
    "type": "channel",
    "noteNumber": 79,
    "channel": 0,
    "deltaTime": 120
  },
  {
    "subtype": "noteOn",
    "velocity": 0,
    "type": "channel",
    "noteNumber": 80,
    "channel": 0,
    "deltaTime": 120
  },
  {
    "subtype": "noteOn",
    "velocity": 0,
    "type": "channel",
    "noteNumber": 80,
    "channel": 0,
    "deltaTime": 120
  },
  {
    "subtype": "noteOff",
    "velocity": 0,
    "type": "channel",
    "noteNumber": 80,
    "channel": 0,
    "deltaTime": 0
  },
  {
    "subtype": "noteOn",
    "velocity": 0,
    "type": "channel",
    "noteNumber": 78,
    "channel": 0,
    "deltaTime": 120
  },
  {
    "subtype": "noteOff",
    "velocity": 0,
    "type": "channel",
    "noteNumber": 78,
    "channel": 0,
    "deltaTime": 0
  },
  {
    "subtype": "noteOn",
    "velocity": 0,
    "type": "channel",
    "noteNumber": 76,
    "channel": 0,
    "deltaTime": 120
  },
  {
    "subtype": "noteOn",
    "velocity": 0,
    "type": "channel",
    "noteNumber": 75,
    "channel": 0,
    "deltaTime": 120
  },
  {
    "subtype": "noteOn",
    "velocity": 0,
    "type": "channel",
    "noteNumber": 75,
    "channel": 0,
    "deltaTime": 120
  },
  {
    "subtype": "noteOn",
    "velocity": 0,
    "type": "channel",
    "noteNumber": 73,
    "channel": 0,
    "deltaTime": 120
  },
  {
    "subtype": "noteOn",
    "velocity": 0,
    "type": "channel",
    "noteNumber": 73,
    "channel": 0,
    "deltaTime": 120
  },
  {
    "subtype": "noteOn",
    "velocity": 0,
    "type": "channel",
    "noteNumber": 75,
    "channel": 0,
    "deltaTime": 120
  },
  {
    "subtype": "noteOn",
    "velocity": 0,
    "type": "channel",
    "noteNumber": 75,
    "channel": 0,
    "deltaTime": 120
  },
  {
    "subtype": "noteOn",
    "velocity": 0,
    "type": "channel",
    "noteNumber": 76,
    "channel": 0,
    "deltaTime": 120
  },
  {
    "subtype": "noteOn",
    "velocity": 0,
    "type": "channel",
    "noteNumber": 76,
    "channel": 0,
    "deltaTime": 120
  },
  {
    "subtype": "noteOff",
    "velocity": 0,
    "type": "channel",
    "noteNumber": 76,
    "channel": 0,
    "deltaTime": 0
  },
  {
    "subtype": "noteOn",
    "velocity": 0,
    "type": "channel",
    "noteNumber": 80,
    "channel": 0,
    "deltaTime": 120
  },
  {
    "subtype": "noteOn",
    "velocity": 0,
    "type": "channel",
    "noteNumber": 76,
    "channel": 0,
    "deltaTime": 120
  },
  {
    "subtype": "noteOn",
    "velocity": 0,
    "type": "channel",
    "noteNumber": 76,
    "channel": 0,
    "deltaTime": 120
  },
  {
    "subtype": "noteOn",
    "velocity": 0,
    "type": "channel",
    "noteNumber": 80,
    "channel": 0,
    "deltaTime": 120
  },
  {
    "subtype": "noteOn",
    "velocity": 0,
    "type": "channel",
    "noteNumber": 80,
    "channel": 0,
    "deltaTime": 120
  },
  {
    "subtype": "noteOn",
    "velocity": 0,
    "type": "channel",
    "noteNumber": 75,
    "channel": 0,
    "deltaTime": 120
  },
  {
    "subtype": "noteOn",
    "velocity": 0,
    "type": "channel",
    "noteNumber": 75,
    "channel": 0,
    "deltaTime": 120
  },
  {
    "subtype": "noteOn",
    "velocity": 0,
    "type": "channel",
    "noteNumber": 80,
    "channel": 0,
    "deltaTime": 120
  },
  {
    "subtype": "noteOn",
    "velocity": 0,
    "type": "channel",
    "noteNumber": 80,
    "channel": 0,
    "deltaTime": 120
  },
  {
    "subtype": "noteOn",
    "velocity": 0,
    "type": "channel",
    "noteNumber": 75,
    "channel": 0,
    "deltaTime": 120
  },
  {
    "subtype": "noteOn",
    "velocity": 0,
    "type": "channel",
    "noteNumber": 75,
    "channel": 0,
    "deltaTime": 120
  },
  {
    "subtype": "noteOn",
    "velocity": 0,
    "type": "channel",
    "noteNumber": 72,
    "channel": 0,
    "deltaTime": 120
  },
  {
    "subtype": "noteOn",
    "velocity": 0,
    "type": "channel",
    "noteNumber": 72,
    "channel": 0,
    "deltaTime": 120
  },
  {
    "subtype": "noteOn",
    "velocity": 0,
    "type": "channel",
    "noteNumber": 68,
    "channel": 0,
    "deltaTime": 120
  },
  {
    "subtype": "noteOn",
    "velocity": 0,
    "type": "channel",
    "noteNumber": 68,
    "channel": 0,
    "deltaTime": 120
  },
  {
    "subtype": "noteOff",
    "velocity": 0,
    "type": "channel",
    "noteNumber": 68,
    "channel": 0,
    "deltaTime": 0
  },
  {
    "subtype": "noteOn",
    "velocity": 0,
    "type": "channel",
    "noteNumber": 72,
    "channel": 0,
    "deltaTime": 120
  },
  {
    "subtype": "noteOn",
    "velocity": 0,
    "type": "channel",
    "noteNumber": 75,
    "channel": 0,
    "deltaTime": 120
  },
  {
    "subtype": "noteOn",
    "velocity": 0,
    "type": "channel",
    "noteNumber": 75,
    "channel": 0,
    "deltaTime": 120
  },
  {
    "subtype": "noteOn",
    "velocity": 0,
    "type": "channel",
    "noteNumber": 65,
    "channel": 0,
    "deltaTime": 120
  },
  {
    "subtype": "noteOn",
    "velocity": 0,
    "type": "channel",
    "noteNumber": 65,
    "channel": 0,
    "deltaTime": 120
  },
  {
    "subtype": "noteOn",
    "velocity": 0,
    "type": "channel",
    "noteNumber": 68,
    "channel": 0,
    "deltaTime": 120
  },
  {
    "subtype": "noteOn",
    "velocity": 0,
    "type": "channel",
    "noteNumber": 68,
    "channel": 0,
    "deltaTime": 120
  },
  {
    "subtype": "noteOff",
    "velocity": 0,
    "type": "channel",
    "noteNumber": 68,
    "channel": 0,
    "deltaTime": 0
  },
  {
    "subtype": "noteOn",
    "velocity": 0,
    "type": "channel",
    "noteNumber": 68,
    "channel": 0,
    "deltaTime": 120
  },
  {
    "subtype": "noteOff",
    "velocity": 0,
    "type": "channel",
    "noteNumber": 68,
    "channel": 0,
    "deltaTime": 0
  },
  {
    "subtype": "noteOn",
    "velocity": 0,
    "type": "channel",
    "noteNumber": 66,
    "channel": 0,
    "deltaTime": 120
  },
  {
    "subtype": "noteOn",
    "velocity": 0,
    "type": "channel",
    "noteNumber": 68,
    "channel": 0,
    "deltaTime": 120
  },
  {
    "subtype": "noteOn",
    "velocity": 0,
    "type": "channel",
    "noteNumber": 68,
    "channel": 0,
    "deltaTime": 120
  },
  {
    "subtype": "noteOff",
    "velocity": 0,
    "type": "channel",
    "noteNumber": 68,
    "channel": 0,
    "deltaTime": 0
  },
  {
    "subtype": "noteOn",
    "velocity": 0,
    "type": "channel",
    "noteNumber": 65,
    "channel": 0,
    "deltaTime": 120
  },
  {
    "subtype": "noteOff",
    "velocity": 0,
    "type": "channel",
    "noteNumber": 65,
    "channel": 0,
    "deltaTime": 0
  },
  {
    "subtype": "noteOn",
    "velocity": 0,
    "type": "channel",
    "noteNumber": 74,
    "channel": 0,
    "deltaTime": 120
  },
  {
    "subtype": "noteOn",
    "velocity": 0,
    "type": "channel",
    "noteNumber": 63,
    "channel": 0,
    "deltaTime": 120
  },
  {
    "subtype": "noteOn",
    "velocity": 0,
    "type": "channel",
    "noteNumber": 63,
    "channel": 0,
    "deltaTime": 120
  },
  {
    "subtype": "noteOff",
    "velocity": 0,
    "type": "channel",
    "noteNumber": 63,
    "channel": 0,
    "deltaTime": 0
  },
  {
    "subtype": "noteOn",
    "velocity": 0,
    "type": "channel",
    "noteNumber": 70,
    "channel": 0,
    "deltaTime": 120
  },
  {
    "subtype": "noteOff",
    "velocity": 0,
    "type": "channel",
    "noteNumber": 70,
    "channel": 0,
    "deltaTime": 0
  },
  {
    "subtype": "noteOff",
    "velocity": 0,
    "type": "channel",
    "noteNumber": 70,
    "channel": 0,
    "deltaTime": 0
  },
  {
    "subtype": "noteOff",
    "velocity": 0,
    "type": "channel",
    "noteNumber": 70,
    "channel": 0,
    "deltaTime": 0
  },
  {
    "subtype": "noteOn",
    "velocity": 0,
    "type": "channel",
    "noteNumber": 82,
    "channel": 0,
    "deltaTime": 120
  },
  {
    "subtype": "noteOff",
    "velocity": 0,
    "type": "channel",
    "noteNumber": 82,
    "channel": 0,
    "deltaTime": 0
  },
  {
    "subtype": "noteOn",
    "velocity": 0,
    "type": "channel",
    "noteNumber": 83,
    "channel": 0,
    "deltaTime": 120
  },
  {
    "subtype": "noteOn",
    "velocity": 0,
    "type": "channel",
    "noteNumber": 80,
    "channel": 0,
    "deltaTime": 120
  },
  {
    "subtype": "noteOn",
    "velocity": 0,
    "type": "channel",
    "noteNumber": 83,
    "channel": 0,
    "deltaTime": 120
  },
  {
    "subtype": "noteOn",
    "velocity": 0,
    "type": "channel",
    "noteNumber": 64,
    "channel": 0,
    "deltaTime": 120
  },
  {
    "subtype": "noteOn",
    "velocity": 0,
    "type": "channel",
    "noteNumber": 64,
    "channel": 0,
    "deltaTime": 120
  },
  {
    "subtype": "noteOff",
    "velocity": 0,
    "type": "channel",
    "noteNumber": 64,
    "channel": 0,
    "deltaTime": 0
  },
  {
    "subtype": "noteOn",
    "velocity": 0,
    "type": "channel",
    "noteNumber": 76,
    "channel": 0,
    "deltaTime": 120
  },
  {
    "subtype": "noteOn",
    "velocity": 0,
    "type": "channel",
    "noteNumber": 75,
    "channel": 0,
    "deltaTime": 120
  },
  {
    "subtype": "noteOn",
    "velocity": 0,
    "type": "channel",
    "noteNumber": 75,
    "channel": 0,
    "deltaTime": 120
  },
  {
    "subtype": "noteOn",
    "velocity": 0,
    "type": "channel",
    "noteNumber": 73,
    "channel": 0,
    "deltaTime": 120
  },
  {
    "subtype": "noteOn",
    "velocity": 0,
    "type": "channel",
    "noteNumber": 73,
    "channel": 0,
    "deltaTime": 120
  },
  {
    "subtype": "noteOff",
    "velocity": 0,
    "type": "channel",
    "noteNumber": 73,
    "channel": 0,
    "deltaTime": 0
  },
  {
    "subtype": "noteOn",
    "velocity": 0,
    "type": "channel",
    "noteNumber": 71,
    "channel": 0,
    "deltaTime": 120
  },
  {
    "subtype": "noteOff",
    "velocity": 0,
    "type": "channel",
    "noteNumber": 71,
    "channel": 0,
    "deltaTime": 0
  },
  {
    "subtype": "noteOn",
    "velocity": 0,
    "type": "channel",
    "noteNumber": 70,
    "channel": 0,
    "deltaTime": 120
  },
  {
    "subtype": "noteOn",
    "velocity": 0,
    "type": "channel",
    "noteNumber": 68,
    "channel": 0,
    "deltaTime": 120
  },
  {
    "subtype": "noteOn",
    "velocity": 0,
    "type": "channel",
    "noteNumber": 68,
    "channel": 0,
    "deltaTime": 120
  },
  {
    "subtype": "noteOn",
    "velocity": 0,
    "type": "channel",
    "noteNumber": 71,
    "channel": 0,
    "deltaTime": 120
  },
  {
    "subtype": "noteOn",
    "velocity": 0,
    "type": "channel",
    "noteNumber": 71,
    "channel": 0,
    "deltaTime": 120
  },
  {
    "subtype": "noteOn",
    "velocity": 0,
    "type": "channel",
    "noteNumber": 75,
    "channel": 0,
    "deltaTime": 120
  },
  {
    "subtype": "noteOn",
    "velocity": 0,
    "type": "channel",
    "noteNumber": 75,
    "channel": 0,
    "deltaTime": 120
  },
  {
    "subtype": "noteOn",
    "velocity": 0,
    "type": "channel",
    "noteNumber": 76,
    "channel": 0,
    "deltaTime": 120
  },
  {
    "subtype": "noteOn",
    "velocity": 0,
    "type": "channel",
    "noteNumber": 76,
    "channel": 0,
    "deltaTime": 120
  },
  {
    "subtype": "noteOff",
    "velocity": 0,
    "type": "channel",
    "noteNumber": 76,
    "channel": 0,
    "deltaTime": 0
  },
  {
    "subtype": "noteOn",
    "velocity": 0,
    "type": "channel",
    "noteNumber": 82,
    "channel": 0,
    "deltaTime": 120
  },
  {
    "subtype": "noteOn",
    "velocity": 0,
    "type": "channel",
    "noteNumber": 80,
    "channel": 0,
    "deltaTime": 120
  },
  {
    "subtype": "noteOn",
    "velocity": 0,
    "type": "channel",
    "noteNumber": 80,
    "channel": 0,
    "deltaTime": 120
  },
  {
    "subtype": "noteOff",
    "velocity": 0,
    "type": "channel",
    "noteNumber": 80,
    "channel": 0,
    "deltaTime": 0
  },
  {
    "subtype": "noteOn",
    "velocity": 0,
    "type": "channel",
    "noteNumber": 78,
    "channel": 0,
    "deltaTime": 120
  },
  {
    "subtype": "noteOn",
    "velocity": 0,
    "type": "channel",
    "noteNumber": 77,
    "channel": 0,
    "deltaTime": 120
  },
  {
    "subtype": "noteOn",
    "velocity": 0,
    "type": "channel",
    "noteNumber": 77,
    "channel": 0,
    "deltaTime": 120
  },
  {
    "subtype": "noteOn",
    "velocity": 0,
    "type": "channel",
    "noteNumber": 75,
    "channel": 0,
    "deltaTime": 120
  },
  {
    "subtype": "noteOn",
    "velocity": 0,
    "type": "channel",
    "noteNumber": 75,
    "channel": 0,
    "deltaTime": 120
  },
  {
    "subtype": "noteOn",
    "velocity": 0,
    "type": "channel",
    "noteNumber": 74,
    "channel": 0,
    "deltaTime": 120
  },
  {
    "subtype": "noteOn",
    "velocity": 0,
    "type": "channel",
    "noteNumber": 74,
    "channel": 0,
    "deltaTime": 120
  },
  {
    "subtype": "noteOn",
    "velocity": 0,
    "type": "channel",
    "noteNumber": 75,
    "channel": 0,
    "deltaTime": 120
  },
  {
    "subtype": "noteOn",
    "velocity": 0,
    "type": "channel",
    "noteNumber": 75,
    "channel": 0,
    "deltaTime": 120
  },
  {
    "subtype": "noteOff",
    "velocity": 0,
    "type": "channel",
    "noteNumber": 75,
    "channel": 0,
    "deltaTime": 0
  },
  {
    "subtype": "noteOn",
    "velocity": 0,
    "type": "channel",
    "noteNumber": 69,
    "channel": 0,
    "deltaTime": 120
  },
  {
    "subtype": "noteOn",
    "velocity": 0,
    "type": "channel",
    "noteNumber": 78,
    "channel": 0,
    "deltaTime": 120
  },
  {
    "subtype": "noteOn",
    "velocity": 0,
    "type": "channel",
    "noteNumber": 78,
    "channel": 0,
    "deltaTime": 120
  },
  {
    "subtype": "noteOn",
    "velocity": 0,
    "type": "channel",
    "noteNumber": 77,
    "channel": 0,
    "deltaTime": 120
  },
  {
    "subtype": "noteOn",
    "velocity": 0,
    "type": "channel",
    "noteNumber": 77,
    "channel": 0,
    "deltaTime": 120
  },
  {
    "subtype": "noteOn",
    "velocity": 0,
    "type": "channel",
    "noteNumber": 75,
    "channel": 0,
    "deltaTime": 120
  },
  {
    "subtype": "noteOn",
    "velocity": 0,
    "type": "channel",
    "noteNumber": 75,
    "channel": 0,
    "deltaTime": 120
  },
  {
    "subtype": "noteOn",
    "velocity": 0,
    "type": "channel",
    "noteNumber": 74,
    "channel": 0,
    "deltaTime": 120
  },
  {
    "subtype": "noteOn",
    "velocity": 0,
    "type": "channel",
    "noteNumber": 74,
    "channel": 0,
    "deltaTime": 120
  },
  {
    "subtype": "noteOn",
    "velocity": 0,
    "type": "channel",
    "noteNumber": 75,
    "channel": 0,
    "deltaTime": 120
  },
  {
    "subtype": "noteOn",
    "velocity": 0,
    "type": "channel",
    "noteNumber": 75,
    "channel": 0,
    "deltaTime": 120
  },
  {
    "subtype": "noteOn",
    "velocity": 0,
    "type": "channel",
    "noteNumber": 69,
    "channel": 0,
    "deltaTime": 120
  },
  {
    "subtype": "noteOn",
    "velocity": 0,
    "type": "channel",
    "noteNumber": 69,
    "channel": 0,
    "deltaTime": 120
  },
  {
    "subtype": "noteOff",
    "velocity": 0,
    "type": "channel",
    "noteNumber": 69,
    "channel": 0,
    "deltaTime": 0
  },
  {
    "subtype": "noteOn",
    "velocity": 0,
    "type": "channel",
    "noteNumber": 68,
    "channel": 0,
    "deltaTime": 120
  },
  {
    "subtype": "noteOff",
    "velocity": 0,
    "type": "channel",
    "noteNumber": 68,
    "channel": 0,
    "deltaTime": 0
  },
  {
    "subtype": "noteOn",
    "velocity": 0,
    "type": "channel",
    "noteNumber": 77,
    "channel": 0,
    "deltaTime": 120
  },
  {
    "subtype": "noteOff",
    "velocity": 0,
    "type": "channel",
    "noteNumber": 77,
    "channel": 0,
    "deltaTime": 0
  },
  {
    "subtype": "noteOn",
    "velocity": 0,
    "type": "channel",
    "noteNumber": 71,
    "channel": 0,
    "deltaTime": 120
  },
  {
    "subtype": "noteOff",
    "velocity": 0,
    "type": "channel",
    "noteNumber": 71,
    "channel": 0,
    "deltaTime": 0
  },
  {
    "subtype": "noteOn",
    "velocity": 0,
    "type": "channel",
    "noteNumber": 77,
    "channel": 0,
    "deltaTime": 120
  },
  {
    "subtype": "noteOn",
    "velocity": 0,
    "type": "channel",
    "noteNumber": 80,
    "channel": 0,
    "deltaTime": 120
  },
  {
    "subtype": "noteOn",
    "velocity": 0,
    "type": "channel",
    "noteNumber": 78,
    "channel": 0,
    "deltaTime": 120
  },
  {
    "subtype": "noteOn",
    "velocity": 0,
    "type": "channel",
    "noteNumber": 75,
    "channel": 0,
    "deltaTime": 120
  },
  {
    "subtype": "noteOn",
    "velocity": 0,
    "type": "channel",
    "noteNumber": 75,
    "channel": 0,
    "deltaTime": 120
  },
  {
    "subtype": "noteOff",
    "velocity": 0,
    "type": "channel",
    "noteNumber": 75,
    "channel": 0,
    "deltaTime": 0
  },
  {
    "subtype": "noteOn",
    "velocity": 0,
    "type": "channel",
    "noteNumber": 68,
    "channel": 0,
    "deltaTime": 120
  },
  {
    "subtype": "noteOn",
    "velocity": 0,
    "type": "channel",
    "noteNumber": 75,
    "channel": 0,
    "deltaTime": 120
  },
  {
    "subtype": "noteOn",
    "velocity": 0,
    "type": "channel",
    "noteNumber": 75,
    "channel": 0,
    "deltaTime": 120
  },
  {
    "subtype": "noteOff",
    "velocity": 0,
    "type": "channel",
    "noteNumber": 75,
    "channel": 0,
    "deltaTime": 0
  },
  {
    "subtype": "noteOn",
    "velocity": 0,
    "type": "channel",
    "noteNumber": 77,
    "channel": 0,
    "deltaTime": 120
  },
  {
    "subtype": "noteOn",
    "velocity": 0,
    "type": "channel",
    "noteNumber": 80,
    "channel": 0,
    "deltaTime": 120
  },
  {
    "subtype": "noteOn",
    "velocity": 0,
    "type": "channel",
    "noteNumber": 80,
    "channel": 0,
    "deltaTime": 120
  },
  {
    "subtype": "noteOn",
    "velocity": 0,
    "type": "channel",
    "noteNumber": 74,
    "channel": 0,
    "deltaTime": 120
  },
  {
    "subtype": "noteOff",
    "velocity": 0,
    "type": "channel",
    "noteNumber": 74,
    "channel": 0,
    "deltaTime": 0
  },
  {
    "subtype": "noteOn",
    "velocity": 0,
    "type": "channel",
    "noteNumber": 71,
    "channel": 0,
    "deltaTime": 120
  },
  {
    "subtype": "noteOn",
    "velocity": 0,
    "type": "channel",
    "noteNumber": 71,
    "channel": 0,
    "deltaTime": 120
  },
  {
    "subtype": "noteOff",
    "velocity": 0,
    "type": "channel",
    "noteNumber": 71,
    "channel": 0,
    "deltaTime": 0
  },
  {
    "subtype": "noteOn",
    "velocity": 0,
    "type": "channel",
    "noteNumber": 77,
    "channel": 0,
    "deltaTime": 120
  },
  {
    "subtype": "noteOff",
    "velocity": 0,
    "type": "channel",
    "noteNumber": 77,
    "channel": 0,
    "deltaTime": 0
  },
  {
    "subtype": "noteOff",
    "velocity": 0,
    "type": "channel",
    "noteNumber": 77,
    "channel": 0,
    "deltaTime": 0
  },
  {
    "subtype": "noteOff",
    "velocity": 0,
    "type": "channel",
    "noteNumber": 77,
    "channel": 0,
    "deltaTime": 0
  },
  {
    "subtype": "noteOn",
    "velocity": 0,
    "type": "channel",
    "noteNumber": 77,
    "channel": 0,
    "deltaTime": 120
  },
  {
    "subtype": "noteOff",
    "velocity": 0,
    "type": "channel",
    "noteNumber": 77,
    "channel": 0,
    "deltaTime": 0
  },
  {
    "subtype": "noteOn",
    "velocity": 0,
    "type": "channel",
    "noteNumber": 79,
    "channel": 0,
    "deltaTime": 120
  },
  {
    "subtype": "noteOn",
    "velocity": 0,
    "type": "channel",
    "noteNumber": 80,
    "channel": 0,
    "deltaTime": 120
  },
  {
    "subtype": "noteOn",
    "velocity": 0,
    "type": "channel",
    "noteNumber": 80,
    "channel": 0,
    "deltaTime": 120
  },
  {
    "subtype": "noteOff",
    "velocity": 0,
    "type": "channel",
    "noteNumber": 80,
    "channel": 0,
    "deltaTime": 0
  },
  {
    "subtype": "noteOn",
    "velocity": 0,
    "type": "channel",
    "noteNumber": 77,
    "channel": 0,
    "deltaTime": 120
  },
  {
    "subtype": "noteOff",
    "velocity": 0,
    "type": "channel",
    "noteNumber": 77,
    "channel": 0,
    "deltaTime": 0
  },
  {
    "subtype": "noteOn",
    "velocity": 0,
    "type": "channel",
    "noteNumber": 73,
    "channel": 0,
    "deltaTime": 120
  },
  {
    "subtype": "noteOn",
    "velocity": 0,
    "type": "channel",
    "noteNumber": 77,
    "channel": 0,
    "deltaTime": 120
  },
  {
    "subtype": "noteOn",
    "velocity": 0,
    "type": "channel",
    "noteNumber": 77,
    "channel": 0,
    "deltaTime": 120
  },
  {
    "subtype": "noteOff",
    "velocity": 0,
    "type": "channel",
    "noteNumber": 77,
    "channel": 0,
    "deltaTime": 0
  },
  {
    "subtype": "noteOn",
    "velocity": 0,
    "type": "channel",
    "noteNumber": 80,
    "channel": 0,
    "deltaTime": 120
  },
  {
    "subtype": "noteOn",
    "velocity": 0,
    "type": "channel",
    "noteNumber": 80,
    "channel": 0,
    "deltaTime": 120
  },
  {
    "subtype": "noteOn",
    "velocity": 0,
    "type": "channel",
    "noteNumber": 80,
    "channel": 0,
    "deltaTime": 120
  },
  {
    "subtype": "noteOn",
    "velocity": 0,
    "type": "channel",
    "noteNumber": 82,
    "channel": 0,
    "deltaTime": 120
  },
  {
    "subtype": "noteOn",
    "velocity": 0,
    "type": "channel",
    "noteNumber": 82,
    "channel": 0,
    "deltaTime": 120
  },
  {
    "subtype": "noteOn",
    "velocity": 0,
    "type": "channel",
    "noteNumber": 83,
    "channel": 0,
    "deltaTime": 120
  },
  {
    "subtype": "noteOn",
    "velocity": 0,
    "type": "channel",
    "noteNumber": 83,
    "channel": 0,
    "deltaTime": 120
  },
  {
    "subtype": "noteOn",
    "velocity": 0,
    "type": "channel",
    "noteNumber": 68,
    "channel": 0,
    "deltaTime": 120
  },
  {
    "subtype": "noteOn",
    "velocity": 0,
    "type": "channel",
    "noteNumber": 73,
    "channel": 0,
    "deltaTime": 120
  },
  {
    "subtype": "noteOff",
    "velocity": 0,
    "type": "channel",
    "noteNumber": 73,
    "channel": 0,
    "deltaTime": 0
  },
  {
    "subtype": "noteOn",
    "velocity": 0,
    "type": "channel",
    "noteNumber": 71,
    "channel": 0,
    "deltaTime": 120
  },
  {
    "subtype": "noteOff",
    "velocity": 0,
    "type": "channel",
    "noteNumber": 71,
    "channel": 0,
    "deltaTime": 0
  },
  {
    "subtype": "noteOff",
    "velocity": 0,
    "type": "channel",
    "noteNumber": 71,
    "channel": 0,
    "deltaTime": 0
  },
  {
    "subtype": "noteOn",
    "velocity": 0,
    "type": "channel",
    "noteNumber": 74,
    "channel": 0,
    "deltaTime": 120
  },
  {
    "subtype": "noteOn",
    "velocity": 0,
    "type": "channel",
    "noteNumber": 65,
    "channel": 0,
    "deltaTime": 120
  },
  {
    "subtype": "noteOn",
    "velocity": 0,
    "type": "channel",
    "noteNumber": 68,
    "channel": 0,
    "deltaTime": 120
  },
  {
    "subtype": "noteOff",
    "velocity": 0,
    "type": "channel",
    "noteNumber": 68,
    "channel": 0,
    "deltaTime": 0
  },
  {
    "subtype": "noteOff",
    "velocity": 0,
    "type": "channel",
    "noteNumber": 68,
    "channel": 0,
    "deltaTime": 0
  },
  {
    "subtype": "noteOn",
    "velocity": 0,
    "type": "channel",
    "noteNumber": 75,
    "channel": 0,
    "deltaTime": 120
  },
  {
    "subtype": "noteOn",
    "velocity": 0,
    "type": "channel",
    "noteNumber": 76,
    "channel": 0,
    "deltaTime": 120
  },
  {
    "subtype": "noteOn",
    "velocity": 0,
    "type": "channel",
    "noteNumber": 76,
    "channel": 0,
    "deltaTime": 120
  },
  {
    "subtype": "noteOn",
    "velocity": 0,
    "type": "channel",
    "noteNumber": 75,
    "channel": 0,
    "deltaTime": 120
  },
  {
    "subtype": "noteOn",
    "velocity": 0,
    "type": "channel",
    "noteNumber": 75,
    "channel": 0,
    "deltaTime": 120
  },
  {
    "subtype": "noteOn",
    "velocity": 0,
    "type": "channel",
    "noteNumber": 73,
    "channel": 0,
    "deltaTime": 120
  },
  {
    "subtype": "noteOn",
    "velocity": 0,
    "type": "channel",
    "noteNumber": 73,
    "channel": 0,
    "deltaTime": 120
  },
  {
    "subtype": "noteOn",
    "velocity": 0,
    "type": "channel",
    "noteNumber": 71,
    "channel": 0,
    "deltaTime": 120
  },
  {
    "subtype": "noteOn",
    "velocity": 0,
    "type": "channel",
    "noteNumber": 71,
    "channel": 0,
    "deltaTime": 120
  },
  {
    "subtype": "noteOff",
    "velocity": 0,
    "type": "channel",
    "noteNumber": 71,
    "channel": 0,
    "deltaTime": 0
  },
  {
    "subtype": "noteOn",
    "velocity": 0,
    "type": "channel",
    "noteNumber": 70,
    "channel": 0,
    "deltaTime": 120
  },
  {
    "subtype": "noteOff",
    "velocity": 0,
    "type": "channel",
    "noteNumber": 70,
    "channel": 0,
    "deltaTime": 0
  },
  {
    "subtype": "noteOn",
    "velocity": 0,
    "type": "channel",
    "noteNumber": 71,
    "channel": 0,
    "deltaTime": 120
  },
  {
    "subtype": "noteOn",
    "velocity": 0,
    "type": "channel",
    "noteNumber": 67,
    "channel": 0,
    "deltaTime": 120
  },
  {
    "subtype": "noteOn",
    "velocity": 0,
    "type": "channel",
    "noteNumber": 67,
    "channel": 0,
    "deltaTime": 120
  },
  {
    "subtype": "noteOn",
    "velocity": 0,
    "type": "channel",
    "noteNumber": 71,
    "channel": 0,
    "deltaTime": 120
  },
  {
    "subtype": "noteOn",
    "velocity": 0,
    "type": "channel",
    "noteNumber": 68,
    "channel": 0,
    "deltaTime": 120
  },
  {
    "subtype": "noteOff",
    "velocity": 0,
    "type": "channel",
    "noteNumber": 68,
    "channel": 0,
    "deltaTime": 0
  },
  {
    "subtype": "noteOn",
    "velocity": 0,
    "type": "channel",
    "noteNumber": 63,
    "channel": 0,
    "deltaTime": 120
  },
  {
    "subtype": "noteOn",
    "velocity": 0,
    "type": "channel",
    "noteNumber": 75,
    "channel": 0,
    "deltaTime": 120
  },
  {
    "subtype": "noteOn",
    "velocity": 0,
    "type": "channel",
    "noteNumber": 75,
    "channel": 0,
    "deltaTime": 120
  },
  {
    "subtype": "noteOn",
    "velocity": 0,
    "type": "channel",
    "noteNumber": 71,
    "channel": 0,
    "deltaTime": 120
  },
  {
    "subtype": "noteOn",
    "velocity": 0,
    "type": "channel",
    "noteNumber": 70,
    "channel": 0,
    "deltaTime": 120
  },
  {
    "subtype": "noteOn",
    "velocity": 0,
    "type": "channel",
    "noteNumber": 68,
    "channel": 0,
    "deltaTime": 120
  },
  {
    "subtype": "noteOn",
    "velocity": 0,
    "type": "channel",
    "noteNumber": 68,
    "channel": 0,
    "deltaTime": 120
  },
  {
    "subtype": "noteOff",
    "velocity": 0,
    "type": "channel",
    "noteNumber": 68,
    "channel": 0,
    "deltaTime": 0
  },
  {
    "subtype": "noteOn",
    "velocity": 0,
    "type": "channel",
    "noteNumber": 67,
    "channel": 0,
    "deltaTime": 120
  },
  {
    "subtype": "noteOff",
    "velocity": 0,
    "type": "channel",
    "noteNumber": 67,
    "channel": 0,
    "deltaTime": 0
  },
  {
    "subtype": "noteOn",
    "velocity": 0,
    "type": "channel",
    "noteNumber": 75,
    "channel": 0,
    "deltaTime": 120
  },
  {
    "subtype": "noteOff",
    "velocity": 0,
    "type": "channel",
    "noteNumber": 75,
    "channel": 0,
    "deltaTime": 0
  },
  {
    "subtype": "noteOn",
    "velocity": 0,
    "type": "channel",
    "noteNumber": 82,
    "channel": 0,
    "deltaTime": 120
  },
  {
    "subtype": "noteOn",
    "velocity": 0,
    "type": "channel",
    "noteNumber": 82,
    "channel": 0,
    "deltaTime": 120
  },
  {
    "subtype": "noteOn",
    "velocity": 0,
    "type": "channel",
    "noteNumber": 82,
    "channel": 0,
    "deltaTime": 120
  },
  {
    "subtype": "noteOn",
    "velocity": 0,
    "type": "channel",
    "noteNumber": 79,
    "channel": 0,
    "deltaTime": 120
  },
  {
    "subtype": "noteOn",
    "velocity": 0,
    "type": "channel",
    "noteNumber": 79,
    "channel": 0,
    "deltaTime": 120
  },
  {
    "subtype": "noteOn",
    "velocity": 0,
    "type": "channel",
    "noteNumber": 75,
    "channel": 0,
    "deltaTime": 120
  },
  {
    "subtype": "noteOn",
    "velocity": 0,
    "type": "channel",
    "noteNumber": 75,
    "channel": 0,
    "deltaTime": 120
  },
  {
    "subtype": "noteOn",
    "velocity": 0,
    "type": "channel",
    "noteNumber": 73,
    "channel": 0,
    "deltaTime": 120
  },
  {
    "subtype": "noteOn",
    "velocity": 0,
    "type": "channel",
    "noteNumber": 73,
    "channel": 0,
    "deltaTime": 120
  },
  {
    "subtype": "noteOn",
    "velocity": 0,
    "type": "channel",
    "noteNumber": 71,
    "channel": 0,
    "deltaTime": 120
  },
  {
    "subtype": "noteOn",
    "velocity": 0,
    "type": "channel",
    "noteNumber": 71,
    "channel": 0,
    "deltaTime": 120
  },
  {
    "subtype": "noteOn",
    "velocity": 0,
    "type": "channel",
    "noteNumber": 70,
    "channel": 0,
    "deltaTime": 120
  },
  {
    "subtype": "noteOn",
    "velocity": 0,
    "type": "channel",
    "noteNumber": 70,
    "channel": 0,
    "deltaTime": 120
  },
  {
    "subtype": "noteOn",
    "velocity": 0,
    "type": "channel",
    "noteNumber": 71,
    "channel": 0,
    "deltaTime": 120
  },
  {
    "subtype": "noteOn",
    "velocity": 0,
    "type": "channel",
    "noteNumber": 71,
    "channel": 0,
    "deltaTime": 120
  },
  {
    "subtype": "noteOff",
    "velocity": 0,
    "type": "channel",
    "noteNumber": 71,
    "channel": 0,
    "deltaTime": 0
  },
  {
    "subtype": "noteOn",
    "velocity": 0,
    "type": "channel",
    "noteNumber": 78,
    "channel": 0,
    "deltaTime": 120
  },
  {
    "subtype": "noteOn",
    "velocity": 0,
    "type": "channel",
    "noteNumber": 77,
    "channel": 0,
    "deltaTime": 120
  },
  {
    "subtype": "noteOn",
    "velocity": 0,
    "type": "channel",
    "noteNumber": 77,
    "channel": 0,
    "deltaTime": 120
  },
  {
    "subtype": "noteOn",
    "velocity": 0,
    "type": "channel",
    "noteNumber": 79,
    "channel": 0,
    "deltaTime": 120
  },
  {
    "subtype": "noteOn",
    "velocity": 0,
    "type": "channel",
    "noteNumber": 79,
    "channel": 0,
    "deltaTime": 120
  },
  {
    "subtype": "noteOn",
    "velocity": 0,
    "type": "channel",
    "noteNumber": 80,
    "channel": 0,
    "deltaTime": 120
  },
  {
    "subtype": "noteOn",
    "velocity": 0,
    "type": "channel",
    "noteNumber": 80,
    "channel": 0,
    "deltaTime": 120
  },
  {
    "subtype": "noteOn",
    "velocity": 0,
    "type": "channel",
    "noteNumber": 77,
    "channel": 0,
    "deltaTime": 120
  },
  {
    "subtype": "noteOn",
    "velocity": 0,
    "type": "channel",
    "noteNumber": 77,
    "channel": 0,
    "deltaTime": 120
  },
  {
    "subtype": "noteOff",
    "velocity": 0,
    "type": "channel",
    "noteNumber": 77,
    "channel": 0,
    "deltaTime": 0
  },
  {
    "subtype": "noteOn",
    "velocity": 0,
    "type": "channel",
    "noteNumber": 80,
    "channel": 0,
    "deltaTime": 120
  },
  {
    "subtype": "noteOn",
    "velocity": 0,
    "type": "channel",
    "noteNumber": 82,
    "channel": 0,
    "deltaTime": 120
  },
  {
    "subtype": "noteOn",
    "velocity": 0,
    "type": "channel",
    "noteNumber": 82,
    "channel": 0,
    "deltaTime": 120
  },
  {
    "subtype": "noteOff",
    "velocity": 0,
    "type": "channel",
    "noteNumber": 82,
    "channel": 0,
    "deltaTime": 0
  },
  {
    "subtype": "noteOn",
    "velocity": 0,
    "type": "channel",
    "noteNumber": 83,
    "channel": 0,
    "deltaTime": 120
  },
  {
    "subtype": "noteOff",
    "velocity": 0,
    "type": "channel",
    "noteNumber": 83,
    "channel": 0,
    "deltaTime": 0
  },
  {
    "subtype": "noteOn",
    "velocity": 0,
    "type": "channel",
    "noteNumber": 82,
    "channel": 0,
    "deltaTime": 120
  },
  {
    "subtype": "noteOn",
    "velocity": 0,
    "type": "channel",
    "noteNumber": 77,
    "channel": 0,
    "deltaTime": 120
  },
  {
    "subtype": "noteOn",
    "velocity": 0,
    "type": "channel",
    "noteNumber": 77,
    "channel": 0,
    "deltaTime": 120
  },
  {
    "subtype": "noteOn",
    "velocity": 0,
    "type": "channel",
    "noteNumber": 80,
    "channel": 0,
    "deltaTime": 120
  },
  {
    "subtype": "noteOn",
    "velocity": 0,
    "type": "channel",
    "noteNumber": 80,
    "channel": 0,
    "deltaTime": 120
  },
  {
    "subtype": "noteOn",
    "velocity": 0,
    "type": "channel",
    "noteNumber": 82,
    "channel": 0,
    "deltaTime": 120
  },
  {
    "subtype": "noteOn",
    "velocity": 0,
    "type": "channel",
    "noteNumber": 82,
    "channel": 0,
    "deltaTime": 120
  },
  {
    "subtype": "noteOn",
    "velocity": 0,
    "type": "channel",
    "noteNumber": 79,
    "channel": 0,
    "deltaTime": 120
  },
  {
    "subtype": "noteOn",
    "velocity": 0,
    "type": "channel",
    "noteNumber": 79,
    "channel": 0,
    "deltaTime": 120
  },
  {
    "subtype": "noteOn",
    "velocity": 0,
    "type": "channel",
    "noteNumber": 80,
    "channel": 0,
    "deltaTime": 120
  },
  {
    "subtype": "noteOn",
    "velocity": 0,
    "type": "channel",
    "noteNumber": 80,
    "channel": 0,
    "deltaTime": 120
  },
  {
    "subtype": "noteOff",
    "velocity": 0,
    "type": "channel",
    "noteNumber": 80,
    "channel": 0,
    "deltaTime": 0
  },
  {
    "subtype": "noteOn",
    "velocity": 0,
    "type": "channel",
    "noteNumber": 83,
    "channel": 0,
    "deltaTime": 120
  },
  {
    "subtype": "noteOff",
    "velocity": 0,
    "type": "channel",
    "noteNumber": 83,
    "channel": 0,
    "deltaTime": 0
  },
  {
    "subtype": "noteOff",
    "velocity": 0,
    "type": "channel",
    "noteNumber": 83,
    "channel": 0,
    "deltaTime": 0
  },
  {
    "subtype": "noteOff",
    "velocity": 0,
    "type": "channel",
    "noteNumber": 83,
    "channel": 0,
    "deltaTime": 0
  },
  {
    "subtype": "noteOn",
    "velocity": 0,
    "type": "channel",
    "noteNumber": 77,
    "channel": 0,
    "deltaTime": 120
  },
  {
    "subtype": "noteOff",
    "velocity": 0,
    "type": "channel",
    "noteNumber": 77,
    "channel": 0,
    "deltaTime": 0
  },
  {
    "subtype": "noteOn",
    "velocity": 0,
    "type": "channel",
    "noteNumber": 73,
    "channel": 0,
    "deltaTime": 120
  },
  {
    "subtype": "noteOn",
    "velocity": 0,
    "type": "channel",
    "noteNumber": 75,
    "channel": 0,
    "deltaTime": 120
  },
  {
    "subtype": "noteOn",
    "velocity": 0,
    "type": "channel",
    "noteNumber": 75,
    "channel": 0,
    "deltaTime": 120
  },
  {
    "subtype": "noteOff",
    "velocity": 0,
    "type": "channel",
    "noteNumber": 75,
    "channel": 0,
    "deltaTime": 0
  },
  {
    "subtype": "noteOn",
    "velocity": 0,
    "type": "channel",
    "noteNumber": 74,
    "channel": 0,
    "deltaTime": 120
  },
  {
    "subtype": "noteOff",
    "velocity": 0,
    "type": "channel",
    "noteNumber": 74,
    "channel": 0,
    "deltaTime": 0
  },
  {
    "subtype": "noteOn",
    "velocity": 0,
    "type": "channel",
    "noteNumber": 68,
    "channel": 0,
    "deltaTime": 120
  },
  {
    "subtype": "noteOff",
    "velocity": 0,
    "type": "channel",
    "noteNumber": 68,
    "channel": 0,
    "deltaTime": 0
  },
  {
    "subtype": "noteOn",
    "velocity": 0,
    "type": "channel",
    "noteNumber": 68,
    "channel": 0,
    "deltaTime": 120
  },
  {
    "subtype": "noteOff",
    "velocity": 0,
    "type": "channel",
    "noteNumber": 68,
    "channel": 0,
    "deltaTime": 0
  },
  {
    "subtype": "noteOn",
    "velocity": 0,
    "type": "channel",
    "noteNumber": 68,
    "channel": 0,
    "deltaTime": 120
  },
  {
    "subtype": "noteOn",
    "velocity": 0,
    "type": "channel",
    "noteNumber": 71,
    "channel": 0,
    "deltaTime": 120
  },
  {
    "subtype": "noteOn",
    "velocity": 0,
    "type": "channel",
    "noteNumber": 71,
    "channel": 0,
    "deltaTime": 120
  },
  {
    "subtype": "noteOff",
    "velocity": 0,
    "type": "channel",
    "noteNumber": 71,
    "channel": 0,
    "deltaTime": 0
  },
  {
    "subtype": "noteOn",
    "velocity": 0,
    "type": "channel",
    "noteNumber": 70,
    "channel": 0,
    "deltaTime": 120
  },
  {
    "subtype": "noteOn",
    "velocity": 0,
    "type": "channel",
    "noteNumber": 68,
    "channel": 0,
    "deltaTime": 120
  },
  {
    "subtype": "noteOn",
    "velocity": 0,
    "type": "channel",
    "noteNumber": 68,
    "channel": 0,
    "deltaTime": 120
  },
  {
    "subtype": "noteOff",
    "velocity": 0,
    "type": "channel",
    "noteNumber": 68,
    "channel": 0,
    "deltaTime": 0
  },
  {
    "subtype": "noteOn",
    "velocity": 0,
    "type": "channel",
    "noteNumber": 80,
    "channel": 0,
    "deltaTime": 120
  },
  {
    "subtype": "noteOff",
    "velocity": 0,
    "type": "channel",
    "noteNumber": 80,
    "channel": 0,
    "deltaTime": 0
  },
  {
    "subtype": "noteOn",
    "velocity": 0,
    "type": "channel",
    "noteNumber": 62,
    "channel": 0,
    "deltaTime": 120
  },
  {
    "subtype": "noteOff",
    "velocity": 0,
    "type": "channel",
    "noteNumber": 62,
    "channel": 0,
    "deltaTime": 0
  },
  {
    "subtype": "noteOn",
    "velocity": 0,
    "type": "channel",
    "noteNumber": 71,
    "channel": 0,
    "deltaTime": 120
  },
  {
    "subtype": "noteOn",
    "velocity": 0,
    "type": "channel",
    "noteNumber": 75,
    "channel": 0,
    "deltaTime": 120
  },
  {
    "subtype": "noteOn",
    "velocity": 0,
    "type": "channel",
    "noteNumber": 75,
    "channel": 0,
    "deltaTime": 120
  },
  {
    "subtype": "noteOff",
    "velocity": 0,
    "type": "channel",
    "noteNumber": 75,
    "channel": 0,
    "deltaTime": 0
  },
  {
    "subtype": "noteOn",
    "velocity": 0,
    "type": "channel",
    "noteNumber": 74,
    "channel": 0,
    "deltaTime": 120
  },
  {
    "subtype": "noteOn",
    "velocity": 0,
    "type": "channel",
    "noteNumber": 63,
    "channel": 0,
    "deltaTime": 120
  },
  {
    "subtype": "noteOn",
    "velocity": 0,
    "type": "channel",
    "noteNumber": 63,
    "channel": 0,
    "deltaTime": 120
  },
  {
    "subtype": "noteOn",
    "velocity": 0,
    "type": "channel",
    "noteNumber": 68,
    "channel": 0,
    "deltaTime": 120
  },
  {
    "subtype": "noteOn",
    "velocity": 0,
    "type": "channel",
    "noteNumber": 68,
    "channel": 0,
    "deltaTime": 120
  },
  {
    "subtype": "noteOn",
    "velocity": 0,
    "type": "channel",
    "noteNumber": 67,
    "channel": 0,
    "deltaTime": 120
  },
  {
    "subtype": "noteOn",
    "velocity": 0,
    "type": "channel",
    "noteNumber": 67,
    "channel": 0,
    "deltaTime": 120
  },
  {
    "subtype": "noteOn",
    "velocity": 0,
    "type": "channel",
    "noteNumber": 68,
    "channel": 0,
    "deltaTime": 120
  },
  {
    "subtype": "noteOn",
    "velocity": 0,
    "type": "channel",
    "noteNumber": 68,
    "channel": 0,
    "deltaTime": 120
  },
  {
    "subtype": "noteOn",
    "velocity": 0,
    "type": "channel",
    "noteNumber": 70,
    "channel": 0,
    "deltaTime": 120
  },
  {
    "subtype": "noteOn",
    "velocity": 0,
    "type": "channel",
    "noteNumber": 70,
    "channel": 0,
    "deltaTime": 120
  },
  {
    "subtype": "noteOff",
    "velocity": 0,
    "type": "channel",
    "noteNumber": 70,
    "channel": 0,
    "deltaTime": 0
  },
  {
    "subtype": "noteOn",
    "velocity": 0,
    "type": "channel",
    "noteNumber": 75,
    "channel": 0,
    "deltaTime": 120
  },
  {
    "subtype": "noteOn",
    "velocity": 0,
    "type": "channel",
    "noteNumber": 75,
    "channel": 0,
    "deltaTime": 120
  },
  {
    "subtype": "noteOn",
    "velocity": 0,
    "type": "channel",
    "noteNumber": 65,
    "channel": 0,
    "deltaTime": 120
  },
  {
    "subtype": "noteOn",
    "velocity": 0,
    "type": "channel",
    "noteNumber": 74,
    "channel": 0,
    "deltaTime": 120
  },
  {
    "subtype": "noteOff",
    "velocity": 0,
    "type": "channel",
    "noteNumber": 74,
    "channel": 0,
    "deltaTime": 0
  },
  {
    "subtype": "noteOn",
    "velocity": 0,
    "type": "channel",
    "noteNumber": 75,
    "channel": 0,
    "deltaTime": 120
  },
  {
    "subtype": "noteOn",
    "velocity": 0,
    "type": "channel",
    "noteNumber": 82,
    "channel": 0,
    "deltaTime": 120
  },
  {
    "subtype": "noteOn",
    "velocity": 0,
    "type": "channel",
    "noteNumber": 82,
    "channel": 0,
    "deltaTime": 120
  },
  {
    "subtype": "noteOn",
    "velocity": 0,
    "type": "channel",
    "noteNumber": 82,
    "channel": 0,
    "deltaTime": 120
  },
  {
    "subtype": "noteOff",
    "velocity": 0,
    "type": "channel",
    "noteNumber": 82,
    "channel": 0,
    "deltaTime": 0
  },
  {
    "subtype": "noteOn",
    "velocity": 0,
    "type": "channel",
    "noteNumber": 82,
    "channel": 0,
    "deltaTime": 120
  },
  {
    "subtype": "noteOn",
    "velocity": 0,
    "type": "channel",
    "noteNumber": 80,
    "channel": 0,
    "deltaTime": 120
  },
  {
    "subtype": "noteOn",
    "velocity": 0,
    "type": "channel",
    "noteNumber": 80,
    "channel": 0,
    "deltaTime": 120
  },
  {
    "subtype": "noteOn",
    "velocity": 0,
    "type": "channel",
    "noteNumber": 78,
    "channel": 0,
    "deltaTime": 120
  },
  {
    "subtype": "noteOn",
    "velocity": 0,
    "type": "channel",
    "noteNumber": 78,
    "channel": 0,
    "deltaTime": 120
  },
  {
    "subtype": "noteOff",
    "velocity": 0,
    "type": "channel",
    "noteNumber": 78,
    "channel": 0,
    "deltaTime": 0
  },
  {
    "subtype": "noteOn",
    "velocity": 0,
    "type": "channel",
    "noteNumber": 77,
    "channel": 0,
    "deltaTime": 120
  },
  {
    "subtype": "noteOff",
    "velocity": 0,
    "type": "channel",
    "noteNumber": 77,
    "channel": 0,
    "deltaTime": 0
  },
  {
    "subtype": "noteOn",
    "velocity": 0,
    "type": "channel",
    "noteNumber": 75,
    "channel": 0,
    "deltaTime": 120
  },
  {
    "subtype": "noteOff",
    "velocity": 0,
    "type": "channel",
    "noteNumber": 75,
    "channel": 0,
    "deltaTime": 0
  },
  {
    "subtype": "noteOn",
    "velocity": 0,
    "type": "channel",
    "noteNumber": 74,
    "channel": 0,
    "deltaTime": 120
  },
  {
    "subtype": "noteOn",
    "velocity": 0,
    "type": "channel",
    "noteNumber": 75,
    "channel": 0,
    "deltaTime": 120
  },
  {
    "subtype": "noteOn",
    "velocity": 0,
    "type": "channel",
    "noteNumber": 75,
    "channel": 0,
    "deltaTime": 120
  },
  {
    "subtype": "noteOff",
    "velocity": 0,
    "type": "channel",
    "noteNumber": 75,
    "channel": 0,
    "deltaTime": 0
  },
  {
    "subtype": "noteOn",
    "velocity": 0,
    "type": "channel",
    "noteNumber": 62,
    "channel": 0,
    "deltaTime": 120
  },
  {
    "subtype": "noteOff",
    "velocity": 0,
    "type": "channel",
    "noteNumber": 62,
    "channel": 0,
    "deltaTime": 0
  },
  {
    "subtype": "noteOn",
    "velocity": 0,
    "type": "channel",
    "noteNumber": 75,
    "channel": 0,
    "deltaTime": 120
  },
  {
    "subtype": "noteOn",
    "velocity": 0,
    "type": "channel",
    "noteNumber": 75,
    "channel": 0,
    "deltaTime": 120
  },
  {
    "subtype": "noteOff",
    "velocity": 0,
    "type": "channel",
    "noteNumber": 75,
    "channel": 0,
    "deltaTime": 0
  },
  {
    "subtype": "noteOn",
    "velocity": 0,
    "type": "channel",
    "noteNumber": 74,
    "channel": 0,
    "deltaTime": 120
  },
  {
    "subtype": "noteOn",
    "velocity": 0,
    "type": "channel",
    "noteNumber": 75,
    "channel": 0,
    "deltaTime": 120
  },
  {
    "subtype": "noteOn",
    "velocity": 0,
    "type": "channel",
    "noteNumber": 75,
    "channel": 0,
    "deltaTime": 120
  },
  {
    "subtype": "noteOff",
    "velocity": 0,
    "type": "channel",
    "noteNumber": 75,
    "channel": 0,
    "deltaTime": 0
  },
  {
    "subtype": "noteOn",
    "velocity": 0,
    "type": "channel",
    "noteNumber": 70,
    "channel": 0,
    "deltaTime": 120
  },
  {
    "subtype": "noteOn",
    "velocity": 0,
    "type": "channel",
    "noteNumber": 68,
    "channel": 0,
    "deltaTime": 120
  },
  {
    "subtype": "noteOn",
    "velocity": 0,
    "type": "channel",
    "noteNumber": 68,
    "channel": 0,
    "deltaTime": 120
  },
  {
    "subtype": "noteOff",
    "velocity": 0,
    "type": "channel",
    "noteNumber": 68,
    "channel": 0,
    "deltaTime": 0
  },
  {
    "subtype": "noteOn",
    "velocity": 0,
    "type": "channel",
    "noteNumber": 83,
    "channel": 0,
    "deltaTime": 120
  },
  {
    "subtype": "noteOn",
    "velocity": 0,
    "type": "channel",
    "noteNumber": 82,
    "channel": 0,
    "deltaTime": 120
  },
  {
    "subtype": "noteOn",
    "velocity": 0,
    "type": "channel",
    "noteNumber": 82,
    "channel": 0,
    "deltaTime": 120
  },
  {
    "subtype": "noteOn",
    "velocity": 0,
    "type": "channel",
    "noteNumber": 79,
    "channel": 0,
    "deltaTime": 120
  },
  {
    "subtype": "noteOn",
    "velocity": 0,
    "type": "channel",
    "noteNumber": 79,
    "channel": 0,
    "deltaTime": 120
  },
  {
    "subtype": "noteOn",
    "velocity": 0,
    "type": "channel",
    "noteNumber": 79,
    "channel": 0,
    "deltaTime": 120
  },
  {
    "subtype": "noteOn",
    "velocity": 0,
    "type": "channel",
    "noteNumber": 79,
    "channel": 0,
    "deltaTime": 120
  },
  {
    "subtype": "noteOn",
    "velocity": 0,
    "type": "channel",
    "noteNumber": 75,
    "channel": 0,
    "deltaTime": 120
  },
  {
    "subtype": "noteOn",
    "velocity": 0,
    "type": "channel",
    "noteNumber": 80,
    "channel": 0,
    "deltaTime": 120
  },
  {
    "subtype": "noteOn",
    "velocity": 0,
    "type": "channel",
    "noteNumber": 81,
    "channel": 0,
    "deltaTime": 120
  },
  {
    "subtype": "noteOff",
    "velocity": 0,
    "type": "channel",
    "noteNumber": 81,
    "channel": 0,
    "deltaTime": 0
  },
  {
    "subtype": "noteOff",
    "velocity": 0,
    "type": "channel",
    "noteNumber": 81,
    "channel": 0,
    "deltaTime": 0
  },
  {
    "subtype": "noteOn",
    "velocity": 0,
    "type": "channel",
    "noteNumber": 75,
    "channel": 0,
    "deltaTime": 120
  },
  {
    "subtype": "noteOff",
    "velocity": 0,
    "type": "channel",
    "noteNumber": 75,
    "channel": 0,
    "deltaTime": 0
  },
  {
    "subtype": "noteOff",
    "velocity": 0,
    "type": "channel",
    "noteNumber": 75,
    "channel": 0,
    "deltaTime": 0
  },
  {
    "subtype": "noteOn",
    "velocity": 0,
    "type": "channel",
    "noteNumber": 75,
    "channel": 0,
    "deltaTime": 120
  },
  {
    "subtype": "noteOn",
    "velocity": 0,
    "type": "channel",
    "noteNumber": 76,
    "channel": 0,
    "deltaTime": 120
  },
  {
    "subtype": "noteOff",
    "velocity": 0,
    "type": "channel",
    "noteNumber": 76,
    "channel": 0,
    "deltaTime": 0
  },
  {
    "subtype": "noteOff",
    "velocity": 0,
    "type": "channel",
    "noteNumber": 76,
    "channel": 0,
    "deltaTime": 0
  },
  {
    "subtype": "noteOn",
    "velocity": 0,
    "type": "channel",
    "noteNumber": 73,
    "channel": 0,
    "deltaTime": 120
  },
  {
    "subtype": "noteOn",
    "velocity": 0,
    "type": "channel",
    "noteNumber": 67,
    "channel": 0,
    "deltaTime": 120
  },
  {
    "subtype": "noteOn",
    "velocity": 0,
    "type": "channel",
    "noteNumber": 67,
    "channel": 0,
    "deltaTime": 120
  },
  {
    "subtype": "noteOn",
    "velocity": 0,
    "type": "channel",
    "noteNumber": 76,
    "channel": 0,
    "deltaTime": 120
  },
  {
    "subtype": "noteOn",
    "velocity": 0,
    "type": "channel",
    "noteNumber": 76,
    "channel": 0,
    "deltaTime": 120
  },
  {
    "subtype": "noteOn",
    "velocity": 0,
    "type": "channel",
    "noteNumber": 75,
    "channel": 0,
    "deltaTime": 120
  },
  {
    "subtype": "noteOn",
    "velocity": 0,
    "type": "channel",
    "noteNumber": 75,
    "channel": 0,
    "deltaTime": 120
  },
  {
    "subtype": "noteOn",
    "velocity": 0,
    "type": "channel",
    "noteNumber": 73,
    "channel": 0,
    "deltaTime": 120
  },
  {
    "subtype": "noteOn",
    "velocity": 0,
    "type": "channel",
    "noteNumber": 73,
    "channel": 0,
    "deltaTime": 120
  },
  {
    "subtype": "noteOn",
    "velocity": 0,
    "type": "channel",
    "noteNumber": 71,
    "channel": 0,
    "deltaTime": 120
  },
  {
    "subtype": "noteOn",
    "velocity": 0,
    "type": "channel",
    "noteNumber": 68,
    "channel": 0,
    "deltaTime": 120
  },
  {
    "subtype": "noteOff",
    "velocity": 0,
    "type": "channel",
    "noteNumber": 68,
    "channel": 0,
    "deltaTime": 0
  },
  {
    "subtype": "noteOn",
    "velocity": 0,
    "type": "channel",
    "noteNumber": 70,
    "channel": 0,
    "deltaTime": 120
  },
  {
    "subtype": "noteOn",
    "velocity": 0,
    "type": "channel",
    "noteNumber": 68,
    "channel": 0,
    "deltaTime": 120
  },
  {
    "subtype": "noteOn",
    "velocity": 0,
    "type": "channel",
    "noteNumber": 68,
    "channel": 0,
    "deltaTime": 120
  },
  {
    "subtype": "noteOn",
    "velocity": 0,
    "type": "channel",
    "noteNumber": 71,
    "channel": 0,
    "deltaTime": 120
  },
  {
    "subtype": "noteOn",
    "velocity": 0,
    "type": "channel",
    "noteNumber": 71,
    "channel": 0,
    "deltaTime": 120
  },
  {
    "subtype": "noteOff",
    "velocity": 0,
    "type": "channel",
    "noteNumber": 71,
    "channel": 0,
    "deltaTime": 0
  },
  {
    "subtype": "noteOn",
    "velocity": 0,
    "type": "channel",
    "noteNumber": 75,
    "channel": 0,
    "deltaTime": 120
  },
  {
    "subtype": "noteOn",
    "velocity": 0,
    "type": "channel",
    "noteNumber": 76,
    "channel": 0,
    "deltaTime": 120
  },
  {
    "subtype": "noteOn",
    "velocity": 0,
    "type": "channel",
    "noteNumber": 76,
    "channel": 0,
    "deltaTime": 120
  },
  {
    "subtype": "noteOn",
    "velocity": 0,
    "type": "channel",
    "noteNumber": 80,
    "channel": 0,
    "deltaTime": 120
  },
  {
    "subtype": "noteOn",
    "velocity": 0,
    "type": "channel",
    "noteNumber": 80,
    "channel": 0,
    "deltaTime": 120
  },
  {
    "subtype": "noteOff",
    "velocity": 0,
    "type": "channel",
    "noteNumber": 80,
    "channel": 0,
    "deltaTime": 0
  },
  {
    "subtype": "noteOn",
    "velocity": 0,
    "type": "channel",
    "noteNumber": 75,
    "channel": 0,
    "deltaTime": 120
  },
  {
    "subtype": "noteOn",
    "velocity": 0,
    "type": "channel",
    "noteNumber": 80,
    "channel": 0,
    "deltaTime": 120
  },
  {
    "subtype": "noteOn",
    "velocity": 0,
    "type": "channel",
    "noteNumber": 80,
    "channel": 0,
    "deltaTime": 120
  },
  {
    "subtype": "noteOn",
    "velocity": 0,
    "type": "channel",
    "noteNumber": 82,
    "channel": 0,
    "deltaTime": 120
  },
  {
    "subtype": "noteOn",
    "velocity": 0,
    "type": "channel",
    "noteNumber": 82,
    "channel": 0,
    "deltaTime": 120
  },
  {
    "subtype": "noteOn",
    "velocity": 0,
    "type": "channel",
    "noteNumber": 83,
    "channel": 0,
    "deltaTime": 120
  },
  {
    "subtype": "noteOn",
    "velocity": 0,
    "type": "channel",
    "noteNumber": 83,
    "channel": 0,
    "deltaTime": 120
  },
  {
    "subtype": "noteOff",
    "velocity": 0,
    "type": "channel",
    "noteNumber": 83,
    "channel": 0,
    "deltaTime": 0
  },
  {
    "subtype": "noteOn",
    "velocity": 0,
    "type": "channel",
    "noteNumber": 82,
    "channel": 0,
    "deltaTime": 120
  },
  {
    "subtype": "noteOff",
    "velocity": 0,
    "type": "channel",
    "noteNumber": 82,
    "channel": 0,
    "deltaTime": 0
  },
  {
    "subtype": "noteOn",
    "velocity": 0,
    "type": "channel",
    "noteNumber": 80,
    "channel": 0,
    "deltaTime": 120
  },
  {
    "subtype": "noteOff",
    "velocity": 0,
    "type": "channel",
    "noteNumber": 80,
    "channel": 0,
    "deltaTime": 0
  },
  {
    "subtype": "noteOn",
    "velocity": 0,
    "type": "channel",
    "noteNumber": 79,
    "channel": 0,
    "deltaTime": 120
  },
  {
    "subtype": "noteOn",
    "velocity": 0,
    "type": "channel",
    "noteNumber": 80,
    "channel": 0,
    "deltaTime": 120
  },
  {
    "subtype": "noteOn",
    "velocity": 0,
    "type": "channel",
    "noteNumber": 80,
    "channel": 0,
    "deltaTime": 120
  },
  {
    "subtype": "noteOn",
    "velocity": 0,
    "type": "channel",
    "noteNumber": 75,
    "channel": 0,
    "deltaTime": 120
  },
  {
    "subtype": "noteOn",
    "velocity": 0,
    "type": "channel",
    "noteNumber": 75,
    "channel": 0,
    "deltaTime": 120
  },
  {
    "subtype": "noteOn",
    "velocity": 0,
    "type": "channel",
    "noteNumber": 73,
    "channel": 0,
    "deltaTime": 120
  },
  {
    "subtype": "noteOn",
    "velocity": 0,
    "type": "channel",
    "noteNumber": 73,
    "channel": 0,
    "deltaTime": 120
  },
  {
    "subtype": "noteOn",
    "velocity": 0,
    "type": "channel",
    "noteNumber": 72,
    "channel": 0,
    "deltaTime": 120
  },
  {
    "subtype": "noteOn",
    "velocity": 0,
    "type": "channel",
    "noteNumber": 75,
    "channel": 0,
    "deltaTime": 120
  },
  {
    "subtype": "noteOff",
    "velocity": 0,
    "type": "channel",
    "noteNumber": 75,
    "channel": 0,
    "deltaTime": 0
  },
  {
    "subtype": "noteOn",
    "velocity": 0,
    "type": "channel",
    "noteNumber": 83,
    "channel": 0,
    "deltaTime": 120
  },
  {
    "subtype": "noteOn",
    "velocity": 0,
    "type": "channel",
    "noteNumber": 82,
    "channel": 0,
    "deltaTime": 120
  },
  {
    "subtype": "noteOn",
    "velocity": 0,
    "type": "channel",
    "noteNumber": 82,
    "channel": 0,
    "deltaTime": 120
  },
  {
    "subtype": "noteOn",
    "velocity": 0,
    "type": "channel",
    "noteNumber": 80,
    "channel": 0,
    "deltaTime": 120
  },
  {
    "subtype": "noteOn",
    "velocity": 0,
    "type": "channel",
    "noteNumber": 80,
    "channel": 0,
    "deltaTime": 120
  },
  {
    "subtype": "noteOn",
    "velocity": 0,
    "type": "channel",
    "noteNumber": 79,
    "channel": 0,
    "deltaTime": 120
  },
  {
    "subtype": "noteOn",
    "velocity": 0,
    "type": "channel",
    "noteNumber": 79,
    "channel": 0,
    "deltaTime": 120
  },
  {
    "subtype": "noteOn",
    "velocity": 0,
    "type": "channel",
    "noteNumber": 80,
    "channel": 0,
    "deltaTime": 120
  },
  {
    "subtype": "noteOn",
    "velocity": 0,
    "type": "channel",
    "noteNumber": 80,
    "channel": 0,
    "deltaTime": 120
  },
  {
    "subtype": "noteOff",
    "velocity": 0,
    "type": "channel",
    "noteNumber": 80,
    "channel": 0,
    "deltaTime": 0
  },
  {
    "subtype": "noteOn",
    "velocity": 0,
    "type": "channel",
    "noteNumber": 78,
    "channel": 0,
    "deltaTime": 120
  },
  {
    "subtype": "noteOn",
    "velocity": 0,
    "type": "channel",
    "noteNumber": 76,
    "channel": 0,
    "deltaTime": 120
  },
  {
    "subtype": "noteOn",
    "velocity": 0,
    "type": "channel",
    "noteNumber": 76,
    "channel": 0,
    "deltaTime": 120
  },
  {
    "subtype": "noteOn",
    "velocity": 0,
    "type": "channel",
    "noteNumber": 73,
    "channel": 0,
    "deltaTime": 120
  },
  {
    "subtype": "noteOn",
    "velocity": 0,
    "type": "channel",
    "noteNumber": 73,
    "channel": 0,
    "deltaTime": 120
  },
  {
    "subtype": "noteOff",
    "velocity": 0,
    "type": "channel",
    "noteNumber": 73,
    "channel": 0,
    "deltaTime": 0
  },
  {
    "subtype": "noteOn",
    "velocity": 0,
    "type": "channel",
    "noteNumber": 79,
    "channel": 0,
    "deltaTime": 120
  },
  {
    "subtype": "noteOn",
    "velocity": 0,
    "type": "channel",
    "noteNumber": 80,
    "channel": 0,
    "deltaTime": 120
  },
  {
    "subtype": "noteOn",
    "velocity": 0,
    "type": "channel",
    "noteNumber": 80,
    "channel": 0,
    "deltaTime": 120
  },
  {
    "subtype": "noteOn",
    "velocity": 0,
    "type": "channel",
    "noteNumber": 75,
    "channel": 0,
    "deltaTime": 120
  },
  {
    "subtype": "noteOn",
    "velocity": 0,
    "type": "channel",
    "noteNumber": 75,
    "channel": 0,
    "deltaTime": 120
  },
  {
    "subtype": "noteOff",
    "velocity": 0,
    "type": "channel",
    "noteNumber": 75,
    "channel": 0,
    "deltaTime": 0
  },
  {
    "subtype": "noteOn",
    "velocity": 0,
    "type": "channel",
    "noteNumber": 80,
    "channel": 0,
    "deltaTime": 120
  },
  {
    "subtype": "noteOn",
    "velocity": 0,
    "type": "channel",
    "noteNumber": 75,
    "channel": 0,
    "deltaTime": 120
  },
  {
    "subtype": "noteOn",
    "velocity": 0,
    "type": "channel",
    "noteNumber": 75,
    "channel": 0,
    "deltaTime": 120
  },
  {
    "subtype": "noteOff",
    "velocity": 0,
    "type": "channel",
    "noteNumber": 75,
    "channel": 0,
    "deltaTime": 0
  },
  {
    "subtype": "noteOn",
    "velocity": 0,
    "type": "channel",
    "noteNumber": 76,
    "channel": 0,
    "deltaTime": 120
  },
  {
    "subtype": "noteOn",
    "velocity": 0,
    "type": "channel",
    "noteNumber": 80,
    "channel": 0,
    "deltaTime": 120
  },
  {
    "subtype": "noteOn",
    "velocity": 0,
    "type": "channel",
    "noteNumber": 80,
    "channel": 0,
    "deltaTime": 120
  },
  {
    "subtype": "noteOff",
    "velocity": 0,
    "type": "channel",
    "noteNumber": 80,
    "channel": 0,
    "deltaTime": 0
  },
  {
    "subtype": "noteOn",
    "velocity": 0,
    "type": "channel",
    "noteNumber": 78,
    "channel": 0,
    "deltaTime": 120
  },
  {
    "subtype": "noteOn",
    "velocity": 0,
    "type": "channel",
    "noteNumber": 77,
    "channel": 0,
    "deltaTime": 120
  },
  {
    "subtype": "noteOn",
    "velocity": 0,
    "type": "channel",
    "noteNumber": 77,
    "channel": 0,
    "deltaTime": 120
  },
  {
    "subtype": "noteOn",
    "velocity": 0,
    "type": "channel",
    "noteNumber": 75,
    "channel": 0,
    "deltaTime": 120
  },
  {
    "subtype": "noteOn",
    "velocity": 0,
    "type": "channel",
    "noteNumber": 75,
    "channel": 0,
    "deltaTime": 120
  },
  {
    "subtype": "noteOff",
    "velocity": 0,
    "type": "channel",
    "noteNumber": 75,
    "channel": 0,
    "deltaTime": 0
  },
  {
    "subtype": "noteOn",
    "velocity": 0,
    "type": "channel",
    "noteNumber": 73,
    "channel": 0,
    "deltaTime": 120
  },
  {
    "subtype": "noteOn",
    "velocity": 0,
    "type": "channel",
    "noteNumber": 72,
    "channel": 0,
    "deltaTime": 120
  },
  {
    "subtype": "noteOn",
    "velocity": 0,
    "type": "channel",
    "noteNumber": 71,
    "channel": 0,
    "deltaTime": 120
  },
  {
    "subtype": "noteOn",
    "velocity": 0,
    "type": "channel",
    "noteNumber": 73,
    "channel": 0,
    "deltaTime": 120
  },
  {
    "subtype": "noteOn",
    "velocity": 0,
    "type": "channel",
    "noteNumber": 73,
    "channel": 0,
    "deltaTime": 120
  },
  {
    "subtype": "noteOn",
    "velocity": 0,
    "type": "channel",
    "noteNumber": 72,
    "channel": 0,
    "deltaTime": 120
  },
  {
    "subtype": "noteOn",
    "velocity": 0,
    "type": "channel",
    "noteNumber": 72,
    "channel": 0,
    "deltaTime": 120
  },
  {
    "subtype": "noteOff",
    "velocity": 0,
    "type": "channel",
    "noteNumber": 72,
    "channel": 0,
    "deltaTime": 0
  },
  {
    "subtype": "noteOn",
    "velocity": 0,
    "type": "channel",
    "noteNumber": 73,
    "channel": 0,
    "deltaTime": 120
  },
  {
    "subtype": "noteOn",
    "velocity": 0,
    "type": "channel",
    "noteNumber": 72,
    "channel": 0,
    "deltaTime": 120
  },
  {
    "subtype": "noteOn",
    "velocity": 0,
    "type": "channel",
    "noteNumber": 72,
    "channel": 0,
    "deltaTime": 120
  },
  {
    "subtype": "noteOn",
    "velocity": 0,
    "type": "channel",
    "noteNumber": 73,
    "channel": 0,
    "deltaTime": 120
  },
  {
    "subtype": "noteOn",
    "velocity": 0,
    "type": "channel",
    "noteNumber": 73,
    "channel": 0,
    "deltaTime": 120
  },
  {
    "subtype": "noteOff",
    "velocity": 0,
    "type": "channel",
    "noteNumber": 73,
    "channel": 0,
    "deltaTime": 0
  },
  {
    "subtype": "noteOn",
    "velocity": 0,
    "type": "channel",
    "noteNumber": 84,
    "channel": 0,
    "deltaTime": 120
  },
  {
    "subtype": "noteOn",
    "velocity": 0,
    "type": "channel",
    "noteNumber": 77,
    "channel": 0,
    "deltaTime": 120
  },
  {
    "subtype": "noteOn",
    "velocity": 0,
    "type": "channel",
    "noteNumber": 77,
    "channel": 0,
    "deltaTime": 120
  },
  {
    "subtype": "noteOff",
    "velocity": 0,
    "type": "channel",
    "noteNumber": 77,
    "channel": 0,
    "deltaTime": 0
  },
  {
    "subtype": "noteOn",
    "velocity": 0,
    "type": "channel",
    "noteNumber": 80,
    "channel": 0,
    "deltaTime": 120
  },
  {
    "subtype": "noteOff",
    "velocity": 0,
    "type": "channel",
    "noteNumber": 80,
    "channel": 0,
    "deltaTime": 0
  },
  {
    "subtype": "noteOn",
    "velocity": 0,
    "type": "channel",
    "noteNumber": 81,
    "channel": 0,
    "deltaTime": 120
  },
  {
    "subtype": "noteOff",
    "velocity": 0,
    "type": "channel",
    "noteNumber": 81,
    "channel": 0,
    "deltaTime": 0
  },
  {
    "subtype": "noteOn",
    "velocity": 0,
    "type": "channel",
    "noteNumber": 76,
    "channel": 0,
    "deltaTime": 120
  },
  {
    "subtype": "noteOn",
    "velocity": 0,
    "type": "channel",
    "noteNumber": 72,
    "channel": 0,
    "deltaTime": 120
  },
  {
    "subtype": "noteOn",
    "velocity": 0,
    "type": "channel",
    "noteNumber": 61,
    "channel": 0,
    "deltaTime": 120
  },
  {
    "subtype": "noteOn",
    "velocity": 0,
    "type": "channel",
    "noteNumber": 87,
    "channel": 0,
    "deltaTime": 120
  },
  {
    "subtype": "noteOn",
    "velocity": 0,
    "type": "channel",
    "noteNumber": 87,
    "channel": 0,
    "deltaTime": 120
  },
  {
    "subtype": "noteOn",
    "velocity": 0,
    "type": "channel",
    "noteNumber": 85,
    "channel": 0,
    "deltaTime": 120
  },
  {
    "subtype": "noteOn",
    "velocity": 0,
    "type": "channel",
    "noteNumber": 85,
    "channel": 0,
    "deltaTime": 120
  },
  {
    "subtype": "noteOn",
    "velocity": 0,
    "type": "channel",
    "noteNumber": 85,
    "channel": 0,
    "deltaTime": 120
  },
  {
    "subtype": "noteOn",
    "velocity": 0,
    "type": "channel",
    "noteNumber": 85,
    "channel": 0,
    "deltaTime": 120
  },
  {
    "subtype": "noteOn",
    "velocity": 0,
    "type": "channel",
    "noteNumber": 85,
    "channel": 0,
    "deltaTime": 120
  },
  {
    "subtype": "noteOn",
    "velocity": 0,
    "type": "channel",
    "noteNumber": 85,
    "channel": 0,
    "deltaTime": 120
  },
  {
    "subtype": "noteOn",
    "velocity": 0,
    "type": "channel",
    "noteNumber": 85,
    "channel": 0,
    "deltaTime": 120
  },
  {
    "subtype": "noteOn",
    "velocity": 0,
    "type": "channel",
    "noteNumber": 85,
    "channel": 0,
    "deltaTime": 120
  },
  {
    "subtype": "noteOn",
    "velocity": 0,
    "type": "channel",
    "noteNumber": 85,
    "channel": 0,
    "deltaTime": 120
  },
  {
    "subtype": "noteOn",
    "velocity": 0,
    "type": "channel",
    "noteNumber": 85,
    "channel": 0,
    "deltaTime": 120
  },
  {
    "subtype": "noteOn",
    "velocity": 0,
    "type": "channel",
    "noteNumber": 85,
    "channel": 0,
    "deltaTime": 120
  },
  {
    "subtype": "noteOn",
    "velocity": 0,
    "type": "channel",
    "noteNumber": 85,
    "channel": 0,
    "deltaTime": 120
  },
  {
    "subtype": "noteOn",
    "velocity": 0,
    "type": "channel",
    "noteNumber": 83,
    "channel": 0,
    "deltaTime": 120
  },
  {
    "subtype": "noteOn",
    "velocity": 0,
    "type": "channel",
    "noteNumber": 83,
    "channel": 0,
    "deltaTime": 120
  },
  {
    "subtype": "noteOn",
    "velocity": 0,
    "type": "channel",
    "noteNumber": 82,
    "channel": 0,
    "deltaTime": 120
  },
  {
    "subtype": "noteOn",
    "velocity": 0,
    "type": "channel",
    "noteNumber": 82,
    "channel": 0,
    "deltaTime": 120
  },
  {
    "subtype": "noteOn",
    "velocity": 0,
    "type": "channel",
    "noteNumber": 80,
    "channel": 0,
    "deltaTime": 120
  },
  {
    "subtype": "noteOn",
    "velocity": 0,
    "type": "channel",
    "noteNumber": 80,
    "channel": 0,
    "deltaTime": 120
  },
  {
    "subtype": "noteOn",
    "velocity": 0,
    "type": "channel",
    "noteNumber": 79,
    "channel": 0,
    "deltaTime": 120
  },
  {
    "subtype": "noteOn",
    "velocity": 0,
    "type": "channel",
    "noteNumber": 79,
    "channel": 0,
    "deltaTime": 120
  },
  {
    "subtype": "noteOn",
    "velocity": 0,
    "type": "channel",
    "noteNumber": 80,
    "channel": 0,
    "deltaTime": 120
  },
  {
    "subtype": "noteOn",
    "velocity": 0,
    "type": "channel",
    "noteNumber": 80,
    "channel": 0,
    "deltaTime": 120
  },
  {
    "subtype": "noteOff",
    "velocity": 0,
    "type": "channel",
    "noteNumber": 80,
    "channel": 0,
    "deltaTime": 0
  },
  {
    "subtype": "noteOn",
    "velocity": 0,
    "type": "channel",
    "noteNumber": 75,
    "channel": 0,
    "deltaTime": 120
  },
  {
    "subtype": "noteOff",
    "velocity": 0,
    "type": "channel",
    "noteNumber": 75,
    "channel": 0,
    "deltaTime": 0
  },
  {
    "subtype": "noteOn",
    "velocity": 0,
    "type": "channel",
    "noteNumber": 76,
    "channel": 0,
    "deltaTime": 120
  },
  {
    "subtype": "noteOn",
    "velocity": 0,
    "type": "channel",
    "noteNumber": 73,
    "channel": 0,
    "deltaTime": 120
  },
  {
    "subtype": "noteOn",
    "velocity": 0,
    "type": "channel",
    "noteNumber": 73,
    "channel": 0,
    "deltaTime": 120
  },
  {
    "subtype": "noteOn",
    "velocity": 0,
    "type": "channel",
    "noteNumber": 73,
    "channel": 0,
    "deltaTime": 120
  },
  {
    "subtype": "noteOn",
    "velocity": 0,
    "type": "channel",
    "noteNumber": 73,
    "channel": 0,
    "deltaTime": 120
  },
  {
    "subtype": "noteOn",
    "velocity": 0,
    "type": "channel",
    "noteNumber": 72,
    "channel": 0,
    "deltaTime": 120
  },
  {
    "subtype": "noteOn",
    "velocity": 0,
    "type": "channel",
    "noteNumber": 72,
    "channel": 0,
    "deltaTime": 120
  },
  {
    "subtype": "noteOn",
    "velocity": 0,
    "type": "channel",
    "noteNumber": 73,
    "channel": 0,
    "deltaTime": 120
  },
  {
    "subtype": "noteOn",
    "velocity": 0,
    "type": "channel",
    "noteNumber": 73,
    "channel": 0,
    "deltaTime": 120
  },
  {
    "subtype": "noteOn",
    "velocity": 0,
    "type": "channel",
    "noteNumber": 83,
    "channel": 0,
    "deltaTime": 120
  },
  {
    "subtype": "noteOn",
    "velocity": 0,
    "type": "channel",
    "noteNumber": 83,
    "channel": 0,
    "deltaTime": 120
  },
  {
    "subtype": "noteOff",
    "velocity": 0,
    "type": "channel",
    "noteNumber": 83,
    "channel": 0,
    "deltaTime": 0
  },
  {
    "subtype": "noteOn",
    "velocity": 0,
    "type": "channel",
    "noteNumber": 82,
    "channel": 0,
    "deltaTime": 120
  },
  {
    "subtype": "noteOn",
    "velocity": 0,
    "type": "channel",
    "noteNumber": 80,
    "channel": 0,
    "deltaTime": 120
  },
  {
    "subtype": "noteOn",
    "velocity": 0,
    "type": "channel",
    "noteNumber": 80,
    "channel": 0,
    "deltaTime": 120
  },
  {
    "subtype": "noteOn",
    "velocity": 0,
    "type": "channel",
    "noteNumber": 79,
    "channel": 0,
    "deltaTime": 120
  },
  {
    "subtype": "noteOn",
    "velocity": 0,
    "type": "channel",
    "noteNumber": 79,
    "channel": 0,
    "deltaTime": 120
  },
  {
    "subtype": "noteOn",
    "velocity": 0,
    "type": "channel",
    "noteNumber": 87,
    "channel": 0,
    "deltaTime": 120
  },
  {
    "subtype": "noteOn",
    "velocity": 0,
    "type": "channel",
    "noteNumber": 87,
    "channel": 0,
    "deltaTime": 120
  },
  {
    "subtype": "noteOff",
    "velocity": 0,
    "type": "channel",
    "noteNumber": 87,
    "channel": 0,
    "deltaTime": 0
  },
  {
    "subtype": "noteOn",
    "velocity": 0,
    "type": "channel",
    "noteNumber": 85,
    "channel": 0,
    "deltaTime": 120
  },
  {
    "subtype": "noteOn",
    "velocity": 0,
    "type": "channel",
    "noteNumber": 83,
    "channel": 0,
    "deltaTime": 120
  },
  {
    "subtype": "noteOn",
    "velocity": 0,
    "type": "channel",
    "noteNumber": 83,
    "channel": 0,
    "deltaTime": 120
  },
  {
    "subtype": "noteOn",
    "velocity": 0,
    "type": "channel",
    "noteNumber": 82,
    "channel": 0,
    "deltaTime": 120
  },
  {
    "subtype": "noteOn",
    "velocity": 0,
    "type": "channel",
    "noteNumber": 82,
    "channel": 0,
    "deltaTime": 120
  },
  {
    "subtype": "noteOn",
    "velocity": 0,
    "type": "channel",
    "noteNumber": 80,
    "channel": 0,
    "deltaTime": 120
  },
  {
    "subtype": "noteOn",
    "velocity": 0,
    "type": "channel",
    "noteNumber": 80,
    "channel": 0,
    "deltaTime": 120
  },
  {
    "subtype": "noteOn",
    "velocity": 0,
    "type": "channel",
    "noteNumber": 79,
    "channel": 0,
    "deltaTime": 120
  },
  {
    "subtype": "noteOn",
    "velocity": 0,
    "type": "channel",
    "noteNumber": 79,
    "channel": 0,
    "deltaTime": 120
  },
  {
    "subtype": "noteOn",
    "velocity": 0,
    "type": "channel",
    "noteNumber": 80,
    "channel": 0,
    "deltaTime": 120
  },
  {
    "subtype": "noteOn",
    "velocity": 0,
    "type": "channel",
    "noteNumber": 80,
    "channel": 0,
    "deltaTime": 120
  },
  {
    "subtype": "noteOff",
    "velocity": 0,
    "type": "channel",
    "noteNumber": 80,
    "channel": 0,
    "deltaTime": 0
  },
  {
    "subtype": "noteOn",
    "velocity": 0,
    "type": "channel",
    "noteNumber": 78,
    "channel": 0,
    "deltaTime": 120
  },
  {
    "subtype": "noteOn",
    "velocity": 0,
    "type": "channel",
    "noteNumber": 76,
    "channel": 0,
    "deltaTime": 120
  },
  {
    "subtype": "noteOn",
    "velocity": 0,
    "type": "channel",
    "noteNumber": 76,
    "channel": 0,
    "deltaTime": 120
  },
  {
    "subtype": "noteOn",
    "velocity": 0,
    "type": "channel",
    "noteNumber": 72,
    "channel": 0,
    "deltaTime": 120
  },
  {
    "subtype": "noteOn",
    "velocity": 0,
    "type": "channel",
    "noteNumber": 72,
    "channel": 0,
    "deltaTime": 120
  },
  {
    "subtype": "noteOn",
    "velocity": 0,
    "type": "channel",
    "noteNumber": 78,
    "channel": 0,
    "deltaTime": 120
  },
  {
    "subtype": "noteOn",
    "velocity": 0,
    "type": "channel",
    "noteNumber": 78,
    "channel": 0,
    "deltaTime": 120
  },
  {
    "subtype": "noteOn",
    "velocity": 0,
    "type": "channel",
    "noteNumber": 76,
    "channel": 0,
    "deltaTime": 120
  },
  {
    "subtype": "noteOn",
    "velocity": 0,
    "type": "channel",
    "noteNumber": 76,
    "channel": 0,
    "deltaTime": 120
  },
  {
    "subtype": "noteOn",
    "velocity": 0,
    "type": "channel",
    "noteNumber": 75,
    "channel": 0,
    "deltaTime": 120
  },
  {
    "subtype": "noteOn",
    "velocity": 0,
    "type": "channel",
    "noteNumber": 75,
    "channel": 0,
    "deltaTime": 120
  },
  {
    "subtype": "noteOn",
    "velocity": 0,
    "type": "channel",
    "noteNumber": 76,
    "channel": 0,
    "deltaTime": 120
  },
  {
    "subtype": "noteOn",
    "velocity": 0,
    "type": "channel",
    "noteNumber": 76,
    "channel": 0,
    "deltaTime": 120
  },
  {
    "subtype": "noteOff",
    "velocity": 0,
    "type": "channel",
    "noteNumber": 76,
    "channel": 0,
    "deltaTime": 0
  },
  {
    "subtype": "noteOn",
    "velocity": 0,
    "type": "channel",
    "noteNumber": 82,
    "channel": 0,
    "deltaTime": 120
  },
  {
    "subtype": "noteOff",
    "velocity": 0,
    "type": "channel",
    "noteNumber": 82,
    "channel": 0,
    "deltaTime": 0
  },
  {
    "subtype": "noteOn",
    "velocity": 0,
    "type": "channel",
    "noteNumber": 79,
    "channel": 0,
    "deltaTime": 120
  },
  {
    "subtype": "noteOn",
    "velocity": 0,
    "type": "channel",
    "noteNumber": 80,
    "channel": 0,
    "deltaTime": 120
  },
  {
    "subtype": "noteOn",
    "velocity": 0,
    "type": "channel",
    "noteNumber": 75,
    "channel": 0,
    "deltaTime": 120
  },
  {
    "subtype": "noteOn",
    "velocity": 0,
    "type": "channel",
    "noteNumber": 76,
    "channel": 0,
    "deltaTime": 120
  },
  {
    "subtype": "noteOn",
    "velocity": 0,
    "type": "channel",
    "noteNumber": 76,
    "channel": 0,
    "deltaTime": 120
  },
  {
    "subtype": "noteOff",
    "velocity": 0,
    "type": "channel",
    "noteNumber": 76,
    "channel": 0,
    "deltaTime": 0
  },
  {
    "subtype": "noteOn",
    "velocity": 0,
    "type": "channel",
    "noteNumber": 82,
    "channel": 0,
    "deltaTime": 120
  },
  {
    "subtype": "noteOn",
    "velocity": 0,
    "type": "channel",
    "noteNumber": 82,
    "channel": 0,
    "deltaTime": 120
  },
  {
    "subtype": "noteOn",
    "velocity": 0,
    "type": "channel",
    "noteNumber": 83,
    "channel": 0,
    "deltaTime": 120
  },
  {
    "subtype": "noteOn",
    "velocity": 0,
    "type": "channel",
    "noteNumber": 83,
    "channel": 0,
    "deltaTime": 120
  },
  {
    "subtype": "noteOn",
    "velocity": 0,
    "type": "channel",
    "noteNumber": 85,
    "channel": 0,
    "deltaTime": 120
  },
  {
    "subtype": "noteOn",
    "velocity": 0,
    "type": "channel",
    "noteNumber": 82,
    "channel": 0,
    "deltaTime": 120
  },
  {
    "subtype": "noteOn",
    "velocity": 0,
    "type": "channel",
    "noteNumber": 85,
    "channel": 0,
    "deltaTime": 120
  },
  {
    "subtype": "noteOn",
    "velocity": 0,
    "type": "channel",
    "noteNumber": 85,
    "channel": 0,
    "deltaTime": 120
  },
  {
    "subtype": "noteOn",
    "velocity": 0,
    "type": "channel",
    "noteNumber": 83,
    "channel": 0,
    "deltaTime": 120
  },
  {
    "subtype": "noteOn",
    "velocity": 0,
    "type": "channel",
    "noteNumber": 83,
    "channel": 0,
    "deltaTime": 120
  },
  {
    "subtype": "noteOn",
    "velocity": 0,
    "type": "channel",
    "noteNumber": 85,
    "channel": 0,
    "deltaTime": 120
  },
  {
    "subtype": "noteOn",
    "velocity": 0,
    "type": "channel",
    "noteNumber": 85,
    "channel": 0,
    "deltaTime": 120
  },
  {
    "subtype": "noteOn",
    "velocity": 0,
    "type": "channel",
    "noteNumber": 85,
    "channel": 0,
    "deltaTime": 120
  },
  {
    "subtype": "noteOn",
    "velocity": 0,
    "type": "channel",
    "noteNumber": 83,
    "channel": 0,
    "deltaTime": 120
  },
  {
    "subtype": "noteOn",
    "velocity": 0,
    "type": "channel",
    "noteNumber": 83,
    "channel": 0,
    "deltaTime": 120
  },
  {
    "subtype": "noteOn",
    "velocity": 0,
    "type": "channel",
    "noteNumber": 82,
    "channel": 0,
    "deltaTime": 120
  },
  {
    "subtype": "noteOn",
    "velocity": 0,
    "type": "channel",
    "noteNumber": 82,
    "channel": 0,
    "deltaTime": 120
  },
  {
    "subtype": "noteOn",
    "velocity": 0,
    "type": "channel",
    "noteNumber": 80,
    "channel": 0,
    "deltaTime": 120
  },
  {
    "subtype": "noteOn",
    "velocity": 0,
    "type": "channel",
    "noteNumber": 80,
    "channel": 0,
    "deltaTime": 120
  },
  {
    "subtype": "noteOff",
    "velocity": 0,
    "type": "channel",
    "noteNumber": 80,
    "channel": 0,
    "deltaTime": 0
  },
  {
    "subtype": "noteOn",
    "velocity": 0,
    "type": "channel",
    "noteNumber": 78,
    "channel": 0,
    "deltaTime": 120
  },
  {
    "subtype": "noteOn",
    "velocity": 0,
    "type": "channel",
    "noteNumber": 85,
    "channel": 0,
    "deltaTime": 120
  },
  {
    "subtype": "noteOn",
    "velocity": 0,
    "type": "channel",
    "noteNumber": 85,
    "channel": 0,
    "deltaTime": 120
  },
  {
    "subtype": "noteOn",
    "velocity": 0,
    "type": "channel",
    "noteNumber": 76,
    "channel": 0,
    "deltaTime": 120
  },
  {
    "subtype": "noteOn",
    "velocity": 0,
    "type": "channel",
    "noteNumber": 76,
    "channel": 0,
    "deltaTime": 120
  },
  {
    "subtype": "noteOn",
    "velocity": 0,
    "type": "channel",
    "noteNumber": 75,
    "channel": 0,
    "deltaTime": 120
  },
  {
    "subtype": "noteOn",
    "velocity": 0,
    "type": "channel",
    "noteNumber": 75,
    "channel": 0,
    "deltaTime": 120
  },
  {
    "subtype": "noteOn",
    "velocity": 0,
    "type": "channel",
    "noteNumber": 73,
    "channel": 0,
    "deltaTime": 120
  },
  {
    "subtype": "noteOn",
    "velocity": 0,
    "type": "channel",
    "noteNumber": 73,
    "channel": 0,
    "deltaTime": 120
  },
  {
    "subtype": "noteOn",
    "velocity": 0,
    "type": "channel",
    "noteNumber": 75,
    "channel": 0,
    "deltaTime": 120
  },
  {
    "subtype": "noteOn",
    "velocity": 0,
    "type": "channel",
    "noteNumber": 75,
    "channel": 0,
    "deltaTime": 120
  },
  {
    "subtype": "noteOn",
    "velocity": 0,
    "type": "channel",
    "noteNumber": 83,
    "channel": 0,
    "deltaTime": 120
  },
  {
    "subtype": "noteOn",
    "velocity": 0,
    "type": "channel",
    "noteNumber": 83,
    "channel": 0,
    "deltaTime": 120
  },
  {
    "subtype": "noteOn",
    "velocity": 0,
    "type": "channel",
    "noteNumber": 75,
    "channel": 0,
    "deltaTime": 120
  },
  {
    "subtype": "noteOn",
    "velocity": 0,
    "type": "channel",
    "noteNumber": 75,
    "channel": 0,
    "deltaTime": 120
  },
  {
    "subtype": "noteOn",
    "velocity": 0,
    "type": "channel",
    "noteNumber": 76,
    "channel": 0,
    "deltaTime": 120
  },
  {
    "subtype": "noteOn",
    "velocity": 0,
    "type": "channel",
    "noteNumber": 76,
    "channel": 0,
    "deltaTime": 120
  },
  {
    "subtype": "noteOff",
    "velocity": 0,
    "type": "channel",
    "noteNumber": 76,
    "channel": 0,
    "deltaTime": 0
  },
  {
    "subtype": "noteOn",
    "velocity": 0,
    "type": "channel",
    "noteNumber": 73,
    "channel": 0,
    "deltaTime": 120
  },
  {
    "subtype": "noteOff",
    "velocity": 0,
    "type": "channel",
    "noteNumber": 73,
    "channel": 0,
    "deltaTime": 0
  },
  {
    "subtype": "noteOn",
    "velocity": 0,
    "type": "channel",
    "noteNumber": 68,
    "channel": 0,
    "deltaTime": 120
  },
  {
    "subtype": "noteOn",
    "velocity": 0,
    "type": "channel",
    "noteNumber": 83,
    "channel": 0,
    "deltaTime": 120
  },
  {
    "subtype": "noteOn",
    "velocity": 0,
    "type": "channel",
    "noteNumber": 83,
    "channel": 0,
    "deltaTime": 120
  },
  {
    "subtype": "noteOn",
    "velocity": 0,
    "type": "channel",
    "noteNumber": 82,
    "channel": 0,
    "deltaTime": 120
  },
  {
    "subtype": "noteOn",
    "velocity": 0,
    "type": "channel",
    "noteNumber": 82,
    "channel": 0,
    "deltaTime": 120
  },
  {
    "subtype": "noteOn",
    "velocity": 0,
    "type": "channel",
    "noteNumber": 80,
    "channel": 0,
    "deltaTime": 120
  },
  {
    "subtype": "noteOn",
    "velocity": 0,
    "type": "channel",
    "noteNumber": 80,
    "channel": 0,
    "deltaTime": 120
  },
  {
    "subtype": "noteOn",
    "velocity": 0,
    "type": "channel",
    "noteNumber": 78,
    "channel": 0,
    "deltaTime": 120
  },
  {
    "subtype": "noteOn",
    "velocity": 0,
    "type": "channel",
    "noteNumber": 78,
    "channel": 0,
    "deltaTime": 120
  },
  {
    "subtype": "noteOn",
    "velocity": 0,
    "type": "channel",
    "noteNumber": 76,
    "channel": 0,
    "deltaTime": 120
  },
  {
    "subtype": "noteOn",
    "velocity": 0,
    "type": "channel",
    "noteNumber": 76,
    "channel": 0,
    "deltaTime": 120
  },
  {
    "subtype": "noteOn",
    "velocity": 0,
    "type": "channel",
    "noteNumber": 75,
    "channel": 0,
    "deltaTime": 120
  },
  {
    "subtype": "noteOn",
    "velocity": 0,
    "type": "channel",
    "noteNumber": 75,
    "channel": 0,
    "deltaTime": 120
  },
  {
    "subtype": "noteOn",
    "velocity": 0,
    "type": "channel",
    "noteNumber": 76,
    "channel": 0,
    "deltaTime": 120
  },
  {
    "subtype": "noteOn",
    "velocity": 0,
    "type": "channel",
    "noteNumber": 76,
    "channel": 0,
    "deltaTime": 120
  },
  {
    "subtype": "noteOff",
    "velocity": 0,
    "type": "channel",
    "noteNumber": 76,
    "channel": 0,
    "deltaTime": 0
  },
  {
    "subtype": "noteOn",
    "velocity": 0,
    "type": "channel",
    "noteNumber": 75,
    "channel": 0,
    "deltaTime": 120
  },
  {
    "subtype": "noteOff",
    "velocity": 0,
    "type": "channel",
    "noteNumber": 75,
    "channel": 0,
    "deltaTime": 0
  },
  {
    "subtype": "noteOn",
    "velocity": 0,
    "type": "channel",
    "noteNumber": 73,
    "channel": 0,
    "deltaTime": 120
  },
  {
    "subtype": "noteOff",
    "velocity": 0,
    "type": "channel",
    "noteNumber": 73,
    "channel": 0,
    "deltaTime": 0
  },
  {
    "subtype": "noteOn",
    "velocity": 0,
    "type": "channel",
    "noteNumber": 76,
    "channel": 0,
    "deltaTime": 120
  },
  {
    "subtype": "noteOn",
    "velocity": 0,
    "type": "channel",
    "noteNumber": 73,
    "channel": 0,
    "deltaTime": 120
  },
  {
    "subtype": "noteOn",
    "velocity": 0,
    "type": "channel",
    "noteNumber": 73,
    "channel": 0,
    "deltaTime": 120
  },
  {
    "subtype": "noteOn",
    "velocity": 0,
    "type": "channel",
    "noteNumber": 70,
    "channel": 0,
    "deltaTime": 120
  },
  {
    "subtype": "noteOn",
    "velocity": 0,
    "type": "channel",
    "noteNumber": 70,
    "channel": 0,
    "deltaTime": 120
  },
  {
    "subtype": "noteOff",
    "velocity": 0,
    "type": "channel",
    "noteNumber": 70,
    "channel": 0,
    "deltaTime": 0
  },
  {
    "subtype": "noteOn",
    "velocity": 0,
    "type": "channel",
    "noteNumber": 79,
    "channel": 0,
    "deltaTime": 120
  },
  {
    "subtype": "noteOff",
    "velocity": 0,
    "type": "channel",
    "noteNumber": 79,
    "channel": 0,
    "deltaTime": 0
  },
  {
    "subtype": "noteOn",
    "velocity": 0,
    "type": "channel",
    "noteNumber": 83,
    "channel": 0,
    "deltaTime": 120
  },
  {
    "subtype": "noteOn",
    "velocity": 0,
    "type": "channel",
    "noteNumber": 82,
    "channel": 0,
    "deltaTime": 120
  },
  {
    "subtype": "noteOn",
    "velocity": 0,
    "type": "channel",
    "noteNumber": 82,
    "channel": 0,
    "deltaTime": 120
  },
  {
    "subtype": "noteOff",
    "velocity": 0,
    "type": "channel",
    "noteNumber": 82,
    "channel": 0,
    "deltaTime": 0
  },
  {
    "subtype": "noteOn",
    "velocity": 0,
    "type": "channel",
    "noteNumber": 75,
    "channel": 0,
    "deltaTime": 120
  },
  {
    "subtype": "noteOn",
    "velocity": 0,
    "type": "channel",
    "noteNumber": 73,
    "channel": 0,
    "deltaTime": 120
  },
  {
    "subtype": "noteOn",
    "velocity": 0,
    "type": "channel",
    "noteNumber": 73,
    "channel": 0,
    "deltaTime": 120
  },
  {
    "subtype": "noteOn",
    "velocity": 0,
    "type": "channel",
    "noteNumber": 73,
    "channel": 0,
    "deltaTime": 120
  },
  {
    "subtype": "noteOn",
    "velocity": 0,
    "type": "channel",
    "noteNumber": 73,
    "channel": 0,
    "deltaTime": 120
  },
  {
    "subtype": "noteOff",
    "velocity": 0,
    "type": "channel",
    "noteNumber": 73,
    "channel": 0,
    "deltaTime": 0
  },
  {
    "subtype": "noteOn",
    "velocity": 0,
    "type": "channel",
    "noteNumber": 73,
    "channel": 0,
    "deltaTime": 120
  },
  {
    "subtype": "noteOff",
    "velocity": 0,
    "type": "channel",
    "noteNumber": 73,
    "channel": 0,
    "deltaTime": 0
  },
  {
    "subtype": "noteOn",
    "velocity": 0,
    "type": "channel",
    "noteNumber": 67,
    "channel": 0,
    "deltaTime": 120
  },
  {
    "subtype": "noteOn",
    "velocity": 0,
    "type": "channel",
    "noteNumber": 67,
    "channel": 0,
    "deltaTime": 120
  },
  {
    "subtype": "noteOn",
    "velocity": 0,
    "type": "channel",
    "noteNumber": 67,
    "channel": 0,
    "deltaTime": 120
  },
  {
    "subtype": "noteOn",
    "velocity": 0,
    "type": "channel",
    "noteNumber": 63,
    "channel": 0,
    "deltaTime": 120
  },
  {
    "subtype": "noteOn",
    "velocity": 0,
    "type": "channel",
    "noteNumber": 63,
    "channel": 0,
    "deltaTime": 120
  },
  {
    "subtype": "noteOn",
    "velocity": 0,
    "type": "channel",
    "noteNumber": 63,
    "channel": 0,
    "deltaTime": 120
  },
  {
    "subtype": "noteOn",
    "velocity": 0,
    "type": "channel",
    "noteNumber": 61,
    "channel": 0,
    "deltaTime": 120
  },
  {
    "subtype": "noteOn",
    "velocity": 0,
    "type": "channel",
    "noteNumber": 61,
    "channel": 0,
    "deltaTime": 120
  },
  {
    "subtype": "noteOn",
    "velocity": 0,
    "type": "channel",
    "noteNumber": 63,
    "channel": 0,
    "deltaTime": 120
  },
  {
    "subtype": "noteOn",
    "velocity": 0,
    "type": "channel",
    "noteNumber": 63,
    "channel": 0,
    "deltaTime": 120
  },
  {
    "subtype": "noteOff",
    "velocity": 0,
    "type": "channel",
    "noteNumber": 63,
    "channel": 0,
    "deltaTime": 0
  },
  {
    "subtype": "noteOn",
    "velocity": 0,
    "type": "channel",
    "noteNumber": 71,
    "channel": 0,
    "deltaTime": 120
  },
  {
    "subtype": "noteOn",
    "velocity": 0,
    "type": "channel",
    "noteNumber": 70,
    "channel": 0,
    "deltaTime": 120
  },
  {
    "subtype": "noteOn",
    "velocity": 0,
    "type": "channel",
    "noteNumber": 70,
    "channel": 0,
    "deltaTime": 120
  },
  {
    "subtype": "noteOn",
    "velocity": 0,
    "type": "channel",
    "noteNumber": 71,
    "channel": 0,
    "deltaTime": 120
  },
  {
    "subtype": "noteOn",
    "velocity": 0,
    "type": "channel",
    "noteNumber": 71,
    "channel": 0,
    "deltaTime": 120
  },
  {
    "subtype": "noteOff",
    "velocity": 0,
    "type": "channel",
    "noteNumber": 71,
    "channel": 0,
    "deltaTime": 0
  },
  {
    "subtype": "noteOn",
    "velocity": 0,
    "type": "channel",
    "noteNumber": 73,
    "channel": 0,
    "deltaTime": 120
  },
  {
    "subtype": "noteOn",
    "velocity": 0,
    "type": "channel",
    "noteNumber": 75,
    "channel": 0,
    "deltaTime": 120
  },
  {
    "subtype": "noteOn",
    "velocity": 0,
    "type": "channel",
    "noteNumber": 75,
    "channel": 0,
    "deltaTime": 120
  },
  {
    "subtype": "noteOn",
    "velocity": 0,
    "type": "channel",
    "noteNumber": 76,
    "channel": 0,
    "deltaTime": 120
  },
  {
    "subtype": "noteOn",
    "velocity": 0,
    "type": "channel",
    "noteNumber": 76,
    "channel": 0,
    "deltaTime": 120
  },
  {
    "subtype": "noteOff",
    "velocity": 0,
    "type": "channel",
    "noteNumber": 76,
    "channel": 0,
    "deltaTime": 0
  },
  {
    "subtype": "noteOn",
    "velocity": 0,
    "type": "channel",
    "noteNumber": 82,
    "channel": 0,
    "deltaTime": 120
  },
  {
    "subtype": "noteOff",
    "velocity": 0,
    "type": "channel",
    "noteNumber": 82,
    "channel": 0,
    "deltaTime": 0
  },
  {
    "subtype": "noteOn",
    "velocity": 0,
    "type": "channel",
    "noteNumber": 83,
    "channel": 0,
    "deltaTime": 120
  },
  {
    "subtype": "noteOn",
    "velocity": 0,
    "type": "channel",
    "noteNumber": 83,
    "channel": 0,
    "deltaTime": 120
  },
  {
    "subtype": "noteOn",
    "velocity": 0,
    "type": "channel",
    "noteNumber": 83,
    "channel": 0,
    "deltaTime": 120
  },
  {
    "subtype": "noteOn",
    "velocity": 0,
    "type": "channel",
    "noteNumber": 85,
    "channel": 0,
    "deltaTime": 120
  },
  {
    "subtype": "noteOn",
    "velocity": 0,
    "type": "channel",
    "noteNumber": 85,
    "channel": 0,
    "deltaTime": 120
  },
  {
    "subtype": "noteOn",
    "velocity": 0,
    "type": "channel",
    "noteNumber": 83,
    "channel": 0,
    "deltaTime": 120
  },
  {
    "subtype": "noteOn",
    "velocity": 0,
    "type": "channel",
    "noteNumber": 83,
    "channel": 0,
    "deltaTime": 120
  },
  {
    "subtype": "noteOn",
    "velocity": 0,
    "type": "channel",
    "noteNumber": 82,
    "channel": 0,
    "deltaTime": 120
  },
  {
    "subtype": "noteOn",
    "velocity": 0,
    "type": "channel",
    "noteNumber": 82,
    "channel": 0,
    "deltaTime": 120
  },
  {
    "subtype": "noteOff",
    "velocity": 0,
    "type": "channel",
    "noteNumber": 82,
    "channel": 0,
    "deltaTime": 0
  },
  {
    "subtype": "noteOn",
    "velocity": 0,
    "type": "channel",
    "noteNumber": 82,
    "channel": 0,
    "deltaTime": 120
  },
  {
    "subtype": "noteOn",
    "velocity": 0,
    "type": "channel",
    "noteNumber": 79,
    "channel": 0,
    "deltaTime": 120
  },
  {
    "subtype": "noteOn",
    "velocity": 0,
    "type": "channel",
    "noteNumber": 79,
    "channel": 0,
    "deltaTime": 120
  },
  {
    "subtype": "noteOn",
    "velocity": 0,
    "type": "channel",
    "noteNumber": 80,
    "channel": 0,
    "deltaTime": 120
  },
  {
    "subtype": "noteOn",
    "velocity": 0,
    "type": "channel",
    "noteNumber": 80,
    "channel": 0,
    "deltaTime": 120
  },
  {
    "subtype": "noteOff",
    "velocity": 0,
    "type": "channel",
    "noteNumber": 80,
    "channel": 0,
    "deltaTime": 0
  },
  {
    "subtype": "noteOn",
    "velocity": 0,
    "type": "channel",
    "noteNumber": 78,
    "channel": 0,
    "deltaTime": 120
  },
  {
    "subtype": "noteOn",
    "velocity": 0,
    "type": "channel",
    "noteNumber": 76,
    "channel": 0,
    "deltaTime": 120
  },
  {
    "subtype": "noteOn",
    "velocity": 0,
    "type": "channel",
    "noteNumber": 76,
    "channel": 0,
    "deltaTime": 120
  },
  {
    "subtype": "noteOn",
    "velocity": 0,
    "type": "channel",
    "noteNumber": 75,
    "channel": 0,
    "deltaTime": 120
  },
  {
    "subtype": "noteOn",
    "velocity": 0,
    "type": "channel",
    "noteNumber": 75,
    "channel": 0,
    "deltaTime": 120
  },
  {
    "subtype": "noteOff",
    "velocity": 0,
    "type": "channel",
    "noteNumber": 75,
    "channel": 0,
    "deltaTime": 0
  },
  {
    "subtype": "noteOn",
    "velocity": 0,
    "type": "channel",
    "noteNumber": 69,
    "channel": 0,
    "deltaTime": 120
  },
  {
    "subtype": "noteOff",
    "velocity": 0,
    "type": "channel",
    "noteNumber": 69,
    "channel": 0,
    "deltaTime": 0
  },
  {
    "subtype": "noteOn",
    "velocity": 0,
    "type": "channel",
    "noteNumber": 77,
    "channel": 0,
    "deltaTime": 120
  },
  {
    "subtype": "noteOff",
    "velocity": 0,
    "type": "channel",
    "noteNumber": 77,
    "channel": 0,
    "deltaTime": 0
  },
  {
    "subtype": "noteOn",
    "velocity": 0,
    "type": "channel",
    "noteNumber": 80,
    "channel": 0,
    "deltaTime": 120
  },
  {
    "subtype": "noteOn",
    "velocity": 0,
    "type": "channel",
    "noteNumber": 80,
    "channel": 0,
    "deltaTime": 120
  },
  {
    "subtype": "noteOff",
    "velocity": 0,
    "type": "channel",
    "noteNumber": 80,
    "channel": 0,
    "deltaTime": 0
  },
  {
    "subtype": "noteOn",
    "velocity": 0,
    "type": "channel",
    "noteNumber": 78,
    "channel": 0,
    "deltaTime": 120
  },
  {
    "subtype": "noteOn",
    "velocity": 0,
    "type": "channel",
    "noteNumber": 78,
    "channel": 0,
    "deltaTime": 120
  },
  {
    "subtype": "noteOn",
    "velocity": 0,
    "type": "channel",
    "noteNumber": 71,
    "channel": 0,
    "deltaTime": 120
  },
  {
    "subtype": "noteOn",
    "velocity": 0,
    "type": "channel",
    "noteNumber": 71,
    "channel": 0,
    "deltaTime": 120
  },
  {
    "subtype": "noteOn",
    "velocity": 0,
    "type": "channel",
    "noteNumber": 78,
    "channel": 0,
    "deltaTime": 120
  },
  {
    "subtype": "noteOn",
    "velocity": 0,
    "type": "channel",
    "noteNumber": 78,
    "channel": 0,
    "deltaTime": 120
  },
  {
    "subtype": "noteOn",
    "velocity": 0,
    "type": "channel",
    "noteNumber": 81,
    "channel": 0,
    "deltaTime": 120
  },
  {
    "subtype": "noteOn",
    "velocity": 0,
    "type": "channel",
    "noteNumber": 81,
    "channel": 0,
    "deltaTime": 120
  },
  {
    "subtype": "noteOn",
    "velocity": 0,
    "type": "channel",
    "noteNumber": 81,
    "channel": 0,
    "deltaTime": 120
  },
  {
    "subtype": "noteOn",
    "velocity": 0,
    "type": "channel",
    "noteNumber": 81,
    "channel": 0,
    "deltaTime": 120
  },
  {
    "subtype": "noteOn",
    "velocity": 0,
    "type": "channel",
    "noteNumber": 81,
    "channel": 0,
    "deltaTime": 120
  },
  {
    "subtype": "noteOn",
    "velocity": 0,
    "type": "channel",
    "noteNumber": 81,
    "channel": 0,
    "deltaTime": 120
  },
  {
    "subtype": "noteOn",
    "velocity": 0,
    "type": "channel",
    "noteNumber": 80,
    "channel": 0,
    "deltaTime": 120
  },
  {
    "subtype": "noteOn",
    "velocity": 0,
    "type": "channel",
    "noteNumber": 80,
    "channel": 0,
    "deltaTime": 120
  },
  {
    "subtype": "noteOn",
    "velocity": 0,
    "type": "channel",
    "noteNumber": 81,
    "channel": 0,
    "deltaTime": 120
  },
  {
    "subtype": "noteOn",
    "velocity": 0,
    "type": "channel",
    "noteNumber": 81,
    "channel": 0,
    "deltaTime": 120
  },
  {
    "subtype": "noteOn",
    "velocity": 0,
    "type": "channel",
    "noteNumber": 87,
    "channel": 0,
    "deltaTime": 120
  },
  {
    "subtype": "noteOn",
    "velocity": 0,
    "type": "channel",
    "noteNumber": 87,
    "channel": 0,
    "deltaTime": 120
  },
  {
    "subtype": "noteOn",
    "velocity": 0,
    "type": "channel",
    "noteNumber": 81,
    "channel": 0,
    "deltaTime": 120
  },
  {
    "subtype": "noteOn",
    "velocity": 0,
    "type": "channel",
    "noteNumber": 81,
    "channel": 0,
    "deltaTime": 120
  },
  {
    "subtype": "noteOn",
    "velocity": 0,
    "type": "channel",
    "noteNumber": 78,
    "channel": 0,
    "deltaTime": 120
  },
  {
    "subtype": "noteOn",
    "velocity": 0,
    "type": "channel",
    "noteNumber": 78,
    "channel": 0,
    "deltaTime": 120
  },
  {
    "subtype": "noteOff",
    "velocity": 0,
    "type": "channel",
    "noteNumber": 78,
    "channel": 0,
    "deltaTime": 0
  },
  {
    "subtype": "noteOn",
    "velocity": 0,
    "type": "channel",
    "noteNumber": 76,
    "channel": 0,
    "deltaTime": 120
  },
  {
    "subtype": "noteOn",
    "velocity": 0,
    "type": "channel",
    "noteNumber": 78,
    "channel": 0,
    "deltaTime": 120
  },
  {
    "subtype": "noteOn",
    "velocity": 0,
    "type": "channel",
    "noteNumber": 75,
    "channel": 0,
    "deltaTime": 120
  },
  {
    "subtype": "noteOn",
    "velocity": 0,
    "type": "channel",
    "noteNumber": 75,
    "channel": 0,
    "deltaTime": 120
  },
  {
    "subtype": "noteOn",
    "velocity": 0,
    "type": "channel",
    "noteNumber": 85,
    "channel": 0,
    "deltaTime": 120
  },
  {
    "subtype": "noteOn",
    "velocity": 0,
    "type": "channel",
    "noteNumber": 85,
    "channel": 0,
    "deltaTime": 120
  },
  {
    "subtype": "noteOn",
    "velocity": 0,
    "type": "channel",
    "noteNumber": 85,
    "channel": 0,
    "deltaTime": 120
  },
  {
    "subtype": "noteOn",
    "velocity": 0,
    "type": "channel",
    "noteNumber": 85,
    "channel": 0,
    "deltaTime": 120
  },
  {
    "subtype": "noteOn",
    "velocity": 0,
    "type": "channel",
    "noteNumber": 85,
    "channel": 0,
    "deltaTime": 120
  },
  {
    "subtype": "noteOn",
    "velocity": 0,
    "type": "channel",
    "noteNumber": 85,
    "channel": 0,
    "deltaTime": 120
  },
  {
    "subtype": "noteOn",
    "velocity": 0,
    "type": "channel",
    "noteNumber": 85,
    "channel": 0,
    "deltaTime": 120
  },
  {
    "subtype": "noteOn",
    "velocity": 0,
    "type": "channel",
    "noteNumber": 85,
    "channel": 0,
    "deltaTime": 120
  },
  {
    "subtype": "noteOff",
    "velocity": 0,
    "type": "channel",
    "noteNumber": 85,
    "channel": 0,
    "deltaTime": 0
  },
  {
    "subtype": "noteOn",
    "velocity": 0,
    "type": "channel",
    "noteNumber": 75,
    "channel": 0,
    "deltaTime": 120
  },
  {
    "subtype": "noteOn",
    "velocity": 0,
    "type": "channel",
    "noteNumber": 76,
    "channel": 0,
    "deltaTime": 120
  },
  {
    "subtype": "noteOn",
    "velocity": 0,
    "type": "channel",
    "noteNumber": 76,
    "channel": 0,
    "deltaTime": 120
  },
  {
    "subtype": "noteOff",
    "velocity": 0,
    "type": "channel",
    "noteNumber": 76,
    "channel": 0,
    "deltaTime": 0
  },
  {
    "subtype": "noteOn",
    "velocity": 0,
    "type": "channel",
    "noteNumber": 85,
    "channel": 0,
    "deltaTime": 120
  },
  {
    "subtype": "noteOn",
    "velocity": 0,
    "type": "channel",
    "noteNumber": 83,
    "channel": 0,
    "deltaTime": 120
  },
  {
    "subtype": "noteOn",
    "velocity": 0,
    "type": "channel",
    "noteNumber": 83,
    "channel": 0,
    "deltaTime": 120
  },
  {
    "subtype": "noteOn",
    "velocity": 0,
    "type": "channel",
    "noteNumber": 82,
    "channel": 0,
    "deltaTime": 120
  },
  {
    "subtype": "noteOn",
    "velocity": 0,
    "type": "channel",
    "noteNumber": 82,
    "channel": 0,
    "deltaTime": 120
  },
  {
    "subtype": "noteOn",
    "velocity": 0,
    "type": "channel",
    "noteNumber": 80,
    "channel": 0,
    "deltaTime": 120
  },
  {
    "subtype": "noteOn",
    "velocity": 0,
    "type": "channel",
    "noteNumber": 80,
    "channel": 0,
    "deltaTime": 120
  },
  {
    "subtype": "noteOn",
    "velocity": 0,
    "type": "channel",
    "noteNumber": 78,
    "channel": 0,
    "deltaTime": 120
  },
  {
    "subtype": "noteOn",
    "velocity": 0,
    "type": "channel",
    "noteNumber": 78,
    "channel": 0,
    "deltaTime": 120
  },
  {
    "subtype": "noteOn",
    "velocity": 0,
    "type": "channel",
    "noteNumber": 85,
    "channel": 0,
    "deltaTime": 120
  },
  {
    "subtype": "noteOn",
    "velocity": 0,
    "type": "channel",
    "noteNumber": 85,
    "channel": 0,
    "deltaTime": 120
  },
  {
    "subtype": "noteOn",
    "velocity": 0,
    "type": "channel",
    "noteNumber": 76,
    "channel": 0,
    "deltaTime": 120
  },
  {
    "subtype": "noteOn",
    "velocity": 0,
    "type": "channel",
    "noteNumber": 76,
    "channel": 0,
    "deltaTime": 120
  },
  {
    "subtype": "noteOn",
    "velocity": 0,
    "type": "channel",
    "noteNumber": 75,
    "channel": 0,
    "deltaTime": 120
  },
  {
    "subtype": "noteOn",
    "velocity": 0,
    "type": "channel",
    "noteNumber": 75,
    "channel": 0,
    "deltaTime": 120
  },
  {
    "subtype": "noteOn",
    "velocity": 0,
    "type": "channel",
    "noteNumber": 73,
    "channel": 0,
    "deltaTime": 120
  },
  {
    "subtype": "noteOn",
    "velocity": 0,
    "type": "channel",
    "noteNumber": 73,
    "channel": 0,
    "deltaTime": 120
  },
  {
    "subtype": "noteOn",
    "velocity": 0,
    "type": "channel",
    "noteNumber": 75,
    "channel": 0,
    "deltaTime": 120
  },
  {
    "subtype": "noteOn",
    "velocity": 0,
    "type": "channel",
    "noteNumber": 75,
    "channel": 0,
    "deltaTime": 120
  },
  {
    "subtype": "noteOn",
    "velocity": 0,
    "type": "channel",
    "noteNumber": 83,
    "channel": 0,
    "deltaTime": 120
  },
  {
    "subtype": "noteOn",
    "velocity": 0,
    "type": "channel",
    "noteNumber": 83,
    "channel": 0,
    "deltaTime": 120
  },
  {
    "subtype": "noteOn",
    "velocity": 0,
    "type": "channel",
    "noteNumber": 75,
    "channel": 0,
    "deltaTime": 120
  },
  {
    "subtype": "noteOn",
    "velocity": 0,
    "type": "channel",
    "noteNumber": 75,
    "channel": 0,
    "deltaTime": 120
  },
  {
    "subtype": "noteOn",
    "velocity": 0,
    "type": "channel",
    "noteNumber": 76,
    "channel": 0,
    "deltaTime": 120
  },
  {
    "subtype": "noteOn",
    "velocity": 0,
    "type": "channel",
    "noteNumber": 76,
    "channel": 0,
    "deltaTime": 120
  },
  {
    "subtype": "noteOff",
    "velocity": 0,
    "type": "channel",
    "noteNumber": 76,
    "channel": 0,
    "deltaTime": 0
  },
  {
    "subtype": "noteOn",
    "velocity": 0,
    "type": "channel",
    "noteNumber": 73,
    "channel": 0,
    "deltaTime": 120
  },
  {
    "subtype": "noteOff",
    "velocity": 0,
    "type": "channel",
    "noteNumber": 73,
    "channel": 0,
    "deltaTime": 0
  },
  {
    "subtype": "noteOn",
    "velocity": 0,
    "type": "channel",
    "noteNumber": 71,
    "channel": 0,
    "deltaTime": 120
  },
  {
    "subtype": "noteOn",
    "velocity": 0,
    "type": "channel",
    "noteNumber": 70,
    "channel": 0,
    "deltaTime": 120
  },
  {
    "subtype": "noteOn",
    "velocity": 0,
    "type": "channel",
    "noteNumber": 70,
    "channel": 0,
    "deltaTime": 120
  },
  {
    "subtype": "noteOn",
    "velocity": 0,
    "type": "channel",
    "noteNumber": 67,
    "channel": 0,
    "deltaTime": 120
  },
  {
    "subtype": "noteOn",
    "velocity": 0,
    "type": "channel",
    "noteNumber": 73,
    "channel": 0,
    "deltaTime": 120
  },
  {
    "subtype": "noteOn",
    "velocity": 0,
    "type": "channel",
    "noteNumber": 83,
    "channel": 0,
    "deltaTime": 120
  },
  {
    "subtype": "noteOn",
    "velocity": 0,
    "type": "channel",
    "noteNumber": 83,
    "channel": 0,
    "deltaTime": 120
  },
  {
    "subtype": "noteOn",
    "velocity": 0,
    "type": "channel",
    "noteNumber": 82,
    "channel": 0,
    "deltaTime": 120
  },
  {
    "subtype": "noteOn",
    "velocity": 0,
    "type": "channel",
    "noteNumber": 82,
    "channel": 0,
    "deltaTime": 120
  },
  {
    "subtype": "noteOn",
    "velocity": 0,
    "type": "channel",
    "noteNumber": 80,
    "channel": 0,
    "deltaTime": 120
  },
  {
    "subtype": "noteOn",
    "velocity": 0,
    "type": "channel",
    "noteNumber": 80,
    "channel": 0,
    "deltaTime": 120
  },
  {
    "subtype": "noteOn",
    "velocity": 0,
    "type": "channel",
    "noteNumber": 79,
    "channel": 0,
    "deltaTime": 120
  },
  {
    "subtype": "noteOn",
    "velocity": 0,
    "type": "channel",
    "noteNumber": 79,
    "channel": 0,
    "deltaTime": 120
  },
  {
    "subtype": "noteOn",
    "velocity": 0,
    "type": "channel",
    "noteNumber": 75,
    "channel": 0,
    "deltaTime": 120
  },
  {
    "subtype": "noteOn",
    "velocity": 0,
    "type": "channel",
    "noteNumber": 75,
    "channel": 0,
    "deltaTime": 120
  },
  {
    "subtype": "noteOff",
    "velocity": 0,
    "type": "channel",
    "noteNumber": 75,
    "channel": 0,
    "deltaTime": 0
  },
  {
    "subtype": "noteOn",
    "velocity": 0,
    "type": "channel",
    "noteNumber": 80,
    "channel": 0,
    "deltaTime": 120
  },
  {
    "subtype": "noteOn",
    "velocity": 0,
    "type": "channel",
    "noteNumber": 82,
    "channel": 0,
    "deltaTime": 120
  },
  {
    "subtype": "noteOn",
    "velocity": 0,
    "type": "channel",
    "noteNumber": 82,
    "channel": 0,
    "deltaTime": 120
  },
  {
    "subtype": "noteOff",
    "velocity": 0,
    "type": "channel",
    "noteNumber": 82,
    "channel": 0,
    "deltaTime": 0
  },
  {
    "subtype": "noteOn",
    "velocity": 0,
    "type": "channel",
    "noteNumber": 79,
    "channel": 0,
    "deltaTime": 120
  },
  {
    "subtype": "noteOn",
    "velocity": 0,
    "type": "channel",
    "noteNumber": 80,
    "channel": 0,
    "deltaTime": 120
  },
  {
    "subtype": "noteOn",
    "velocity": 0,
    "type": "channel",
    "noteNumber": 80,
    "channel": 0,
    "deltaTime": 120
  },
  {
    "subtype": "noteOff",
    "velocity": 0,
    "type": "channel",
    "noteNumber": 80,
    "channel": 0,
    "deltaTime": 0
  },
  {
    "subtype": "noteOn",
    "velocity": 0,
    "type": "channel",
    "noteNumber": 78,
    "channel": 0,
    "deltaTime": 120
  },
  {
    "subtype": "noteOff",
    "velocity": 0,
    "type": "channel",
    "noteNumber": 78,
    "channel": 0,
    "deltaTime": 0
  },
  {
    "subtype": "noteOn",
    "velocity": 0,
    "type": "channel",
    "noteNumber": 73,
    "channel": 0,
    "deltaTime": 120
  },
  {
    "subtype": "noteOff",
    "velocity": 0,
    "type": "channel",
    "noteNumber": 73,
    "channel": 0,
    "deltaTime": 0
  },
  {
    "subtype": "noteOn",
    "velocity": 0,
    "type": "channel",
    "noteNumber": 75,
    "channel": 0,
    "deltaTime": 120
  },
  {
    "subtype": "noteOn",
    "velocity": 0,
    "type": "channel",
    "noteNumber": 78,
    "channel": 0,
    "deltaTime": 120
  },
  {
    "subtype": "noteOn",
    "velocity": 0,
    "type": "channel",
    "noteNumber": 78,
    "channel": 0,
    "deltaTime": 120
  },
  {
    "subtype": "noteOn",
    "velocity": 0,
    "type": "channel",
    "noteNumber": 75,
    "channel": 0,
    "deltaTime": 120
  },
  {
    "subtype": "noteOn",
    "velocity": 0,
    "type": "channel",
    "noteNumber": 75,
    "channel": 0,
    "deltaTime": 120
  },
  {
    "subtype": "noteOn",
    "velocity": 0,
    "type": "channel",
    "noteNumber": 71,
    "channel": 0,
    "deltaTime": 120
  },
  {
    "subtype": "noteOn",
    "velocity": 0,
    "type": "channel",
    "noteNumber": 71,
    "channel": 0,
    "deltaTime": 120
  },
  {
    "subtype": "noteOn",
    "velocity": 0,
    "type": "channel",
    "noteNumber": 78,
    "channel": 0,
    "deltaTime": 120
  },
  {
    "subtype": "noteOn",
    "velocity": 0,
    "type": "channel",
    "noteNumber": 78,
    "channel": 0,
    "deltaTime": 120
  },
  {
    "subtype": "noteOff",
    "velocity": 0,
    "type": "channel",
    "noteNumber": 78,
    "channel": 0,
    "deltaTime": 0
  },
  {
    "subtype": "noteOn",
    "velocity": 0,
    "type": "channel",
    "noteNumber": 75,
    "channel": 0,
    "deltaTime": 120
  },
  {
    "subtype": "noteOff",
    "velocity": 0,
    "type": "channel",
    "noteNumber": 75,
    "channel": 0,
    "deltaTime": 0
  },
  {
    "subtype": "noteOn",
    "velocity": 0,
    "type": "channel",
    "noteNumber": 87,
    "channel": 0,
    "deltaTime": 120
  },
  {
    "subtype": "noteOn",
    "velocity": 0,
    "type": "channel",
    "noteNumber": 85,
    "channel": 0,
    "deltaTime": 120
  },
  {
    "subtype": "noteOn",
    "velocity": 0,
    "type": "channel",
    "noteNumber": 85,
    "channel": 0,
    "deltaTime": 120
  },
  {
    "subtype": "noteOn",
    "velocity": 0,
    "type": "channel",
    "noteNumber": 85,
    "channel": 0,
    "deltaTime": 120
  },
  {
    "subtype": "noteOn",
    "velocity": 0,
    "type": "channel",
    "noteNumber": 85,
    "channel": 0,
    "deltaTime": 120
  },
  {
    "subtype": "noteOn",
    "velocity": 0,
    "type": "channel",
    "noteNumber": 85,
    "channel": 0,
    "deltaTime": 120
  },
  {
    "subtype": "noteOn",
    "velocity": 0,
    "type": "channel",
    "noteNumber": 83,
    "channel": 0,
    "deltaTime": 120
  },
  {
    "subtype": "noteOn",
    "velocity": 0,
    "type": "channel",
    "noteNumber": 83,
    "channel": 0,
    "deltaTime": 120
  },
  {
    "subtype": "noteOn",
    "velocity": 0,
    "type": "channel",
    "noteNumber": 85,
    "channel": 0,
    "deltaTime": 120
  },
  {
    "subtype": "noteOn",
    "velocity": 0,
    "type": "channel",
    "noteNumber": 85,
    "channel": 0,
    "deltaTime": 120
  },
  {
    "subtype": "noteOn",
    "velocity": 0,
    "type": "channel",
    "noteNumber": 85,
    "channel": 0,
    "deltaTime": 120
  },
  {
    "subtype": "noteOn",
    "velocity": 0,
    "type": "channel",
    "noteNumber": 83,
    "channel": 0,
    "deltaTime": 120
  },
  {
    "subtype": "noteOn",
    "velocity": 0,
    "type": "channel",
    "noteNumber": 83,
    "channel": 0,
    "deltaTime": 120
  },
  {
    "subtype": "noteOn",
    "velocity": 0,
    "type": "channel",
    "noteNumber": 82,
    "channel": 0,
    "deltaTime": 120
  },
  {
    "subtype": "noteOn",
    "velocity": 0,
    "type": "channel",
    "noteNumber": 82,
    "channel": 0,
    "deltaTime": 120
  },
  {
    "subtype": "noteOn",
    "velocity": 0,
    "type": "channel",
    "noteNumber": 80,
    "channel": 0,
    "deltaTime": 120
  },
  {
    "subtype": "noteOn",
    "velocity": 0,
    "type": "channel",
    "noteNumber": 80,
    "channel": 0,
    "deltaTime": 120
  },
  {
    "subtype": "noteOff",
    "velocity": 0,
    "type": "channel",
    "noteNumber": 80,
    "channel": 0,
    "deltaTime": 0
  },
  {
    "subtype": "noteOn",
    "velocity": 0,
    "type": "channel",
    "noteNumber": 79,
    "channel": 0,
    "deltaTime": 120
  },
  {
    "subtype": "noteOff",
    "velocity": 0,
    "type": "channel",
    "noteNumber": 79,
    "channel": 0,
    "deltaTime": 0
  },
  {
    "subtype": "noteOn",
    "velocity": 0,
    "type": "channel",
    "noteNumber": 82,
    "channel": 0,
    "deltaTime": 120
  },
  {
    "subtype": "noteOff",
    "velocity": 0,
    "type": "channel",
    "noteNumber": 82,
    "channel": 0,
    "deltaTime": 0
  },
  {
    "subtype": "noteOn",
    "velocity": 0,
    "type": "channel",
    "noteNumber": 83,
    "channel": 0,
    "deltaTime": 120
  },
  {
    "subtype": "noteOn",
    "velocity": 0,
    "type": "channel",
    "noteNumber": 83,
    "channel": 0,
    "deltaTime": 120
  },
  {
    "subtype": "noteOn",
    "velocity": 0,
    "type": "channel",
    "noteNumber": 87,
    "channel": 0,
    "deltaTime": 120
  },
  {
    "subtype": "noteOn",
    "velocity": 0,
    "type": "channel",
    "noteNumber": 87,
    "channel": 0,
    "deltaTime": 120
  },
  {
    "subtype": "noteOn",
    "velocity": 0,
    "type": "channel",
    "noteNumber": 85,
    "channel": 0,
    "deltaTime": 120
  },
  {
    "subtype": "noteOn",
    "velocity": 0,
    "type": "channel",
    "noteNumber": 76,
    "channel": 0,
    "deltaTime": 120
  },
  {
    "subtype": "noteOn",
    "velocity": 0,
    "type": "channel",
    "noteNumber": 76,
    "channel": 0,
    "deltaTime": 120
  },
  {
    "subtype": "noteOn",
    "velocity": 0,
    "type": "channel",
    "noteNumber": 75,
    "channel": 0,
    "deltaTime": 120
  },
  {
    "subtype": "noteOn",
    "velocity": 0,
    "type": "channel",
    "noteNumber": 75,
    "channel": 0,
    "deltaTime": 120
  },
  {
    "subtype": "noteOn",
    "velocity": 0,
    "type": "channel",
    "noteNumber": 75,
    "channel": 0,
    "deltaTime": 120
  },
  {
    "subtype": "noteOn",
    "velocity": 0,
    "type": "channel",
    "noteNumber": 75,
    "channel": 0,
    "deltaTime": 120
  },
  {
    "subtype": "noteOn",
    "velocity": 0,
    "type": "channel",
    "noteNumber": 73,
    "channel": 0,
    "deltaTime": 120
  },
  {
    "subtype": "noteOn",
    "velocity": 0,
    "type": "channel",
    "noteNumber": 73,
    "channel": 0,
    "deltaTime": 120
  },
  {
    "subtype": "noteOn",
    "velocity": 0,
    "type": "channel",
    "noteNumber": 70,
    "channel": 0,
    "deltaTime": 120
  },
  {
    "subtype": "noteOn",
    "velocity": 0,
    "type": "channel",
    "noteNumber": 70,
    "channel": 0,
    "deltaTime": 120
  },
  {
    "subtype": "noteOn",
    "velocity": 0,
    "type": "channel",
    "noteNumber": 71,
    "channel": 0,
    "deltaTime": 120
  },
  {
    "subtype": "noteOn",
    "velocity": 0,
    "type": "channel",
    "noteNumber": 71,
    "channel": 0,
    "deltaTime": 120
  },
  {
    "subtype": "noteOff",
    "velocity": 0,
    "type": "channel",
    "noteNumber": 71,
    "channel": 0,
    "deltaTime": 0
  },
  {
    "subtype": "noteOn",
    "velocity": 0,
    "type": "channel",
    "noteNumber": 68,
    "channel": 0,
    "deltaTime": 120
  },
  {
    "subtype": "noteOff",
    "velocity": 0,
    "type": "channel",
    "noteNumber": 68,
    "channel": 0,
    "deltaTime": 0
  },
  {
    "subtype": "noteOn",
    "velocity": 0,
    "type": "channel",
    "noteNumber": 70,
    "channel": 0,
    "deltaTime": 120
  },
  {
    "subtype": "noteOn",
    "velocity": 0,
    "type": "channel",
    "noteNumber": 66,
    "channel": 0,
    "deltaTime": 120
  },
  {
    "subtype": "noteOn",
    "velocity": 0,
    "type": "channel",
    "noteNumber": 66,
    "channel": 0,
    "deltaTime": 120
  },
  {
    "subtype": "noteOff",
    "velocity": 0,
    "type": "channel",
    "noteNumber": 66,
    "channel": 0,
    "deltaTime": 0
  },
  {
    "subtype": "noteOn",
    "velocity": 0,
    "type": "channel",
    "noteNumber": 68,
    "channel": 0,
    "deltaTime": 120
  },
  {
    "subtype": "noteOff",
    "velocity": 0,
    "type": "channel",
    "noteNumber": 68,
    "channel": 0,
    "deltaTime": 0
  },
  {
    "subtype": "noteOn",
    "velocity": 0,
    "type": "channel",
    "noteNumber": 78,
    "channel": 0,
    "deltaTime": 120
  },
  {
    "subtype": "noteOn",
    "velocity": 0,
    "type": "channel",
    "noteNumber": 75,
    "channel": 0,
    "deltaTime": 120
  },
  {
    "subtype": "noteOn",
    "velocity": 0,
    "type": "channel",
    "noteNumber": 75,
    "channel": 0,
    "deltaTime": 120
  },
  {
    "subtype": "noteOn",
    "velocity": 0,
    "type": "channel",
    "noteNumber": 71,
    "channel": 0,
    "deltaTime": 120
  },
  {
    "subtype": "noteOn",
    "velocity": 0,
    "type": "channel",
    "noteNumber": 73,
    "channel": 0,
    "deltaTime": 120
  },
  {
    "subtype": "noteOn",
    "velocity": 0,
    "type": "channel",
    "noteNumber": 66,
    "channel": 0,
    "deltaTime": 120
  },
  {
    "subtype": "noteOn",
    "velocity": 0,
    "type": "channel",
    "noteNumber": 66,
    "channel": 0,
    "deltaTime": 120
  },
  {
    "subtype": "noteOn",
    "velocity": 0,
    "type": "channel",
    "noteNumber": 71,
    "channel": 0,
    "deltaTime": 120
  },
  {
    "subtype": "noteOn",
    "velocity": 0,
    "type": "channel",
    "noteNumber": 71,
    "channel": 0,
    "deltaTime": 120
  },
  {
    "subtype": "noteOn",
    "velocity": 0,
    "type": "channel",
    "noteNumber": 66,
    "channel": 0,
    "deltaTime": 120
  },
  {
    "subtype": "noteOn",
    "velocity": 0,
    "type": "channel",
    "noteNumber": 66,
    "channel": 0,
    "deltaTime": 120
  },
  {
    "subtype": "noteOff",
    "velocity": 0,
    "type": "channel",
    "noteNumber": 66,
    "channel": 0,
    "deltaTime": 0
  },
  {
    "subtype": "noteOff",
    "velocity": 0,
    "type": "channel",
    "noteNumber": 66,
    "channel": 0,
    "deltaTime": 0
  },
  {
    "subtype": "noteOff",
    "velocity": 0,
    "type": "channel",
    "noteNumber": 66,
    "channel": 0,
    "deltaTime": 0
  },
  {
    "subtype": "noteOn",
    "velocity": 0,
    "type": "channel",
    "noteNumber": 66,
    "channel": 0,
    "deltaTime": 120
  },
  {
    "subtype": "noteOn",
    "velocity": 0,
    "type": "channel",
    "noteNumber": 70,
    "channel": 0,
    "deltaTime": 120
  },
  {
    "subtype": "noteOn",
    "velocity": 0,
    "type": "channel",
    "noteNumber": 68,
    "channel": 0,
    "deltaTime": 120
  },
  {
    "subtype": "noteOn",
    "velocity": 0,
    "type": "channel",
    "noteNumber": 82,
    "channel": 0,
    "deltaTime": 120
  },
  {
    "subtype": "noteOn",
    "velocity": 0,
    "type": "channel",
    "noteNumber": 82,
    "channel": 0,
    "deltaTime": 120
  },
  {
    "subtype": "noteOn",
    "velocity": 0,
    "type": "channel",
    "noteNumber": 64,
    "channel": 0,
    "deltaTime": 120
  },
  {
    "subtype": "noteOn",
    "velocity": 0,
    "type": "channel",
    "noteNumber": 64,
    "channel": 0,
    "deltaTime": 120
  },
  {
    "subtype": "noteOn",
    "velocity": 0,
    "type": "channel",
    "noteNumber": 63,
    "channel": 0,
    "deltaTime": 120
  },
  {
    "subtype": "noteOn",
    "velocity": 0,
    "type": "channel",
    "noteNumber": 63,
    "channel": 0,
    "deltaTime": 120
  },
  {
    "subtype": "noteOn",
    "velocity": 0,
    "type": "channel",
    "noteNumber": 65,
    "channel": 0,
    "deltaTime": 120
  },
  {
    "subtype": "noteOn",
    "velocity": 0,
    "type": "channel",
    "noteNumber": 65,
    "channel": 0,
    "deltaTime": 120
  },
  {
    "subtype": "noteOn",
    "velocity": 0,
    "type": "channel",
    "noteNumber": 63,
    "channel": 0,
    "deltaTime": 120
  },
  {
    "subtype": "noteOn",
    "velocity": 0,
    "type": "channel",
    "noteNumber": 63,
    "channel": 0,
    "deltaTime": 120
  },
  {
    "subtype": "noteOff",
    "velocity": 0,
    "type": "channel",
    "noteNumber": 63,
    "channel": 0,
    "deltaTime": 0
  },
  {
    "subtype": "noteOn",
    "velocity": 0,
    "type": "channel",
    "noteNumber": 61,
    "channel": 0,
    "deltaTime": 120
  },
  {
    "subtype": "noteOn",
    "velocity": 0,
    "type": "channel",
    "noteNumber": 63,
    "channel": 0,
    "deltaTime": 120
  },
  {
    "subtype": "noteOn",
    "velocity": 0,
    "type": "channel",
    "noteNumber": 63,
    "channel": 0,
    "deltaTime": 120
  },
  {
    "subtype": "noteOn",
    "velocity": 0,
    "type": "channel",
    "noteNumber": 64,
    "channel": 0,
    "deltaTime": 120
  },
  {
    "subtype": "noteOn",
    "velocity": 0,
    "type": "channel",
    "noteNumber": 64,
    "channel": 0,
    "deltaTime": 120
  },
  {
    "subtype": "noteOn",
    "velocity": 0,
    "type": "channel",
    "noteNumber": 63,
    "channel": 0,
    "deltaTime": 120
  },
  {
    "subtype": "noteOn",
    "velocity": 0,
    "type": "channel",
    "noteNumber": 63,
    "channel": 0,
    "deltaTime": 120
  },
  {
    "subtype": "noteOn",
    "velocity": 0,
    "type": "channel",
    "noteNumber": 71,
    "channel": 0,
    "deltaTime": 120
  },
  {
    "subtype": "noteOn",
    "velocity": 0,
    "type": "channel",
    "noteNumber": 71,
    "channel": 0,
    "deltaTime": 120
  },
  {
    "subtype": "noteOff",
    "velocity": 0,
    "type": "channel",
    "noteNumber": 71,
    "channel": 0,
    "deltaTime": 0
  },
  {
    "subtype": "noteOn",
    "velocity": 0,
    "type": "channel",
    "noteNumber": 73,
    "channel": 0,
    "deltaTime": 120
  },
  {
    "subtype": "noteOn",
    "velocity": 0,
    "type": "channel",
    "noteNumber": 75,
    "channel": 0,
    "deltaTime": 120
  },
  {
    "subtype": "noteOn",
    "velocity": 0,
    "type": "channel",
    "noteNumber": 71,
    "channel": 0,
    "deltaTime": 120
  },
  {
    "subtype": "noteOff",
    "velocity": 0,
    "type": "channel",
    "noteNumber": 71,
    "channel": 0,
    "deltaTime": 0
  },
  {
    "subtype": "noteOn",
    "velocity": 0,
    "type": "channel",
    "noteNumber": 71,
    "channel": 0,
    "deltaTime": 120
  },
  {
    "subtype": "noteOn",
    "velocity": 0,
    "type": "channel",
    "noteNumber": 80,
    "channel": 0,
    "deltaTime": 120
  },
  {
    "subtype": "noteOn",
    "velocity": 0,
    "type": "channel",
    "noteNumber": 80,
    "channel": 0,
    "deltaTime": 120
  },
  {
    "subtype": "noteOff",
    "velocity": 0,
    "type": "channel",
    "noteNumber": 80,
    "channel": 0,
    "deltaTime": 0
  },
  {
    "subtype": "noteOn",
    "velocity": 0,
    "type": "channel",
    "noteNumber": 82,
    "channel": 0,
    "deltaTime": 120
  },
  {
    "subtype": "noteOn",
    "velocity": 0,
    "type": "channel",
    "noteNumber": 82,
    "channel": 0,
    "deltaTime": 120
  },
  {
    "subtype": "noteOn",
    "velocity": 0,
    "type": "channel",
    "noteNumber": 82,
    "channel": 0,
    "deltaTime": 120
  },
  {
    "subtype": "noteOn",
    "velocity": 0,
    "type": "channel",
    "noteNumber": 80,
    "channel": 0,
    "deltaTime": 120
  },
  {
    "subtype": "noteOn",
    "velocity": 0,
    "type": "channel",
    "noteNumber": 80,
    "channel": 0,
    "deltaTime": 120
  },
  {
    "subtype": "noteOn",
    "velocity": 0,
    "type": "channel",
    "noteNumber": 78,
    "channel": 0,
    "deltaTime": 120
  },
  {
    "subtype": "noteOn",
    "velocity": 0,
    "type": "channel",
    "noteNumber": 78,
    "channel": 0,
    "deltaTime": 120
  },
  {
    "subtype": "noteOn",
    "velocity": 0,
    "type": "channel",
    "noteNumber": 76,
    "channel": 0,
    "deltaTime": 120
  },
  {
    "subtype": "noteOn",
    "velocity": 0,
    "type": "channel",
    "noteNumber": 76,
    "channel": 0,
    "deltaTime": 120
  },
  {
    "subtype": "noteOn",
    "velocity": 0,
    "type": "channel",
    "noteNumber": 75,
    "channel": 0,
    "deltaTime": 120
  },
  {
    "subtype": "noteOn",
    "velocity": 0,
    "type": "channel",
    "noteNumber": 75,
    "channel": 0,
    "deltaTime": 120
  },
  {
    "subtype": "noteOff",
    "velocity": 0,
    "type": "channel",
    "noteNumber": 75,
    "channel": 0,
    "deltaTime": 0
  },
  {
    "subtype": "noteOn",
    "velocity": 0,
    "type": "channel",
    "noteNumber": 76,
    "channel": 0,
    "deltaTime": 120
  },
  {
    "subtype": "noteOff",
    "velocity": 0,
    "type": "channel",
    "noteNumber": 76,
    "channel": 0,
    "deltaTime": 0
  },
  {
    "subtype": "noteOn",
    "velocity": 0,
    "type": "channel",
    "noteNumber": 75,
    "channel": 0,
    "deltaTime": 120
  },
  {
    "subtype": "noteOn",
    "velocity": 0,
    "type": "channel",
    "noteNumber": 76,
    "channel": 0,
    "deltaTime": 120
  },
  {
    "subtype": "noteOn",
    "velocity": 0,
    "type": "channel",
    "noteNumber": 76,
    "channel": 0,
    "deltaTime": 120
  },
  {
    "subtype": "noteOff",
    "velocity": 0,
    "type": "channel",
    "noteNumber": 76,
    "channel": 0,
    "deltaTime": 0
  },
  {
    "subtype": "noteOn",
    "velocity": 0,
    "type": "channel",
    "noteNumber": 73,
    "channel": 0,
    "deltaTime": 120
  },
  {
    "subtype": "noteOff",
    "velocity": 0,
    "type": "channel",
    "noteNumber": 73,
    "channel": 0,
    "deltaTime": 0
  },
  {
    "subtype": "noteOn",
    "velocity": 0,
    "type": "channel",
    "noteNumber": 73,
    "channel": 0,
    "deltaTime": 120
  },
  {
    "subtype": "noteOff",
    "velocity": 0,
    "type": "channel",
    "noteNumber": 73,
    "channel": 0,
    "deltaTime": 0
  },
  {
    "subtype": "noteOn",
    "velocity": 0,
    "type": "channel",
    "noteNumber": 67,
    "channel": 0,
    "deltaTime": 120
  },
  {
    "subtype": "noteOn",
    "velocity": 0,
    "type": "channel",
    "noteNumber": 68,
    "channel": 0,
    "deltaTime": 120
  },
  {
    "subtype": "noteOn",
    "velocity": 0,
    "type": "channel",
    "noteNumber": 68,
    "channel": 0,
    "deltaTime": 120
  },
  {
    "subtype": "noteOn",
    "velocity": 0,
    "type": "channel",
    "noteNumber": 70,
    "channel": 0,
    "deltaTime": 120
  },
  {
    "subtype": "noteOn",
    "velocity": 0,
    "type": "channel",
    "noteNumber": 70,
    "channel": 0,
    "deltaTime": 120
  },
  {
    "subtype": "noteOff",
    "velocity": 0,
    "type": "channel",
    "noteNumber": 70,
    "channel": 0,
    "deltaTime": 0
  },
  {
    "subtype": "noteOn",
    "velocity": 0,
    "type": "channel",
    "noteNumber": 67,
    "channel": 0,
    "deltaTime": 120
  },
  {
    "subtype": "noteOff",
    "velocity": 0,
    "type": "channel",
    "noteNumber": 67,
    "channel": 0,
    "deltaTime": 0
  },
  {
    "subtype": "noteOff",
    "velocity": 0,
    "type": "channel",
    "noteNumber": 67,
    "channel": 0,
    "deltaTime": 0
  },
  {
    "subtype": "noteOn",
    "velocity": 0,
    "type": "channel",
    "noteNumber": 82,
    "channel": 0,
    "deltaTime": 120
  },
  {
    "subtype": "noteOn",
    "velocity": 0,
    "type": "channel",
    "noteNumber": 82,
    "channel": 0,
    "deltaTime": 120
  },
  {
    "subtype": "noteOn",
    "velocity": 0,
    "type": "channel",
    "noteNumber": 73,
    "channel": 0,
    "deltaTime": 120
  },
  {
    "subtype": "noteOn",
    "velocity": 0,
    "type": "channel",
    "noteNumber": 73,
    "channel": 0,
    "deltaTime": 120
  },
  {
    "subtype": "noteOn",
    "velocity": 0,
    "type": "channel",
    "noteNumber": 73,
    "channel": 0,
    "deltaTime": 120
  },
  {
    "subtype": "noteOn",
    "velocity": 0,
    "type": "channel",
    "noteNumber": 73,
    "channel": 0,
    "deltaTime": 120
  },
  {
    "subtype": "noteOn",
    "velocity": 0,
    "type": "channel",
    "noteNumber": 70,
    "channel": 0,
    "deltaTime": 120
  },
  {
    "subtype": "noteOn",
    "velocity": 0,
    "type": "channel",
    "noteNumber": 70,
    "channel": 0,
    "deltaTime": 120
  },
  {
    "subtype": "noteOn",
    "velocity": 0,
    "type": "channel",
    "noteNumber": 71,
    "channel": 0,
    "deltaTime": 120
  },
  {
    "subtype": "noteOn",
    "velocity": 0,
    "type": "channel",
    "noteNumber": 71,
    "channel": 0,
    "deltaTime": 120
  },
  {
    "subtype": "noteOn",
    "velocity": 0,
    "type": "channel",
    "noteNumber": 73,
    "channel": 0,
    "deltaTime": 120
  },
  {
    "subtype": "noteOn",
    "velocity": 0,
    "type": "channel",
    "noteNumber": 73,
    "channel": 0,
    "deltaTime": 120
  },
  {
    "subtype": "noteOff",
    "velocity": 0,
    "type": "channel",
    "noteNumber": 73,
    "channel": 0,
    "deltaTime": 0
  },
  {
    "subtype": "noteOn",
    "velocity": 0,
    "type": "channel",
    "noteNumber": 70,
    "channel": 0,
    "deltaTime": 120
  },
  {
    "subtype": "noteOn",
    "velocity": 0,
    "type": "channel",
    "noteNumber": 68,
    "channel": 0,
    "deltaTime": 120
  },
  {
    "subtype": "noteOn",
    "velocity": 0,
    "type": "channel",
    "noteNumber": 68,
    "channel": 0,
    "deltaTime": 120
  },
  {
    "subtype": "noteOn",
    "velocity": 0,
    "type": "channel",
    "noteNumber": 71,
    "channel": 0,
    "deltaTime": 120
  },
  {
    "subtype": "noteOn",
    "velocity": 0,
    "type": "channel",
    "noteNumber": 71,
    "channel": 0,
    "deltaTime": 120
  },
  {
    "subtype": "noteOn",
    "velocity": 0,
    "type": "channel",
    "noteNumber": 75,
    "channel": 0,
    "deltaTime": 120
  },
  {
    "subtype": "noteOn",
    "velocity": 0,
    "type": "channel",
    "noteNumber": 75,
    "channel": 0,
    "deltaTime": 120
  },
  {
    "subtype": "noteOn",
    "velocity": 0,
    "type": "channel",
    "noteNumber": 76,
    "channel": 0,
    "deltaTime": 120
  },
  {
    "subtype": "noteOn",
    "velocity": 0,
    "type": "channel",
    "noteNumber": 76,
    "channel": 0,
    "deltaTime": 120
  },
  {
    "subtype": "noteOff",
    "velocity": 0,
    "type": "channel",
    "noteNumber": 76,
    "channel": 0,
    "deltaTime": 0
  },
  {
    "subtype": "noteOn",
    "velocity": 0,
    "type": "channel",
    "noteNumber": 80,
    "channel": 0,
    "deltaTime": 120
  },
  {
    "subtype": "noteOff",
    "velocity": 0,
    "type": "channel",
    "noteNumber": 80,
    "channel": 0,
    "deltaTime": 0
  },
  {
    "subtype": "noteOn",
    "velocity": 0,
    "type": "channel",
    "noteNumber": 80,
    "channel": 0,
    "deltaTime": 120
  },
  {
    "subtype": "noteOn",
    "velocity": 0,
    "type": "channel",
    "noteNumber": 75,
    "channel": 0,
    "deltaTime": 120
  },
  {
    "subtype": "noteOn",
    "velocity": 0,
    "type": "channel",
    "noteNumber": 75,
    "channel": 0,
    "deltaTime": 120
  },
  {
    "subtype": "noteOn",
    "velocity": 0,
    "type": "channel",
    "noteNumber": 73,
    "channel": 0,
    "deltaTime": 120
  },
  {
    "subtype": "noteOn",
    "velocity": 0,
    "type": "channel",
    "noteNumber": 73,
    "channel": 0,
    "deltaTime": 120
  },
  {
    "subtype": "noteOff",
    "velocity": 0,
    "type": "channel",
    "noteNumber": 73,
    "channel": 0,
    "deltaTime": 0
  },
  {
    "subtype": "noteOn",
    "velocity": 0,
    "type": "channel",
    "noteNumber": 70,
    "channel": 0,
    "deltaTime": 120
  },
  {
    "subtype": "noteOff",
    "velocity": 0,
    "type": "channel",
    "noteNumber": 70,
    "channel": 0,
    "deltaTime": 0
  },
  {
    "subtype": "noteOn",
    "velocity": 0,
    "type": "channel",
    "noteNumber": 75,
    "channel": 0,
    "deltaTime": 120
  },
  {
    "subtype": "noteOff",
    "velocity": 0,
    "type": "channel",
    "noteNumber": 75,
    "channel": 0,
    "deltaTime": 0
  },
  {
    "subtype": "noteOn",
    "velocity": 0,
    "type": "channel",
    "noteNumber": 74,
    "channel": 0,
    "deltaTime": 120
  },
  {
    "subtype": "noteOn",
    "velocity": 0,
    "type": "channel",
    "noteNumber": 75,
    "channel": 0,
    "deltaTime": 120
  },
  {
    "subtype": "noteOn",
    "velocity": 0,
    "type": "channel",
    "noteNumber": 75,
    "channel": 0,
    "deltaTime": 120
  },
  {
    "subtype": "noteOff",
    "velocity": 0,
    "type": "channel",
    "noteNumber": 75,
    "channel": 0,
    "deltaTime": 0
  },
  {
    "subtype": "noteOn",
    "velocity": 0,
    "type": "channel",
    "noteNumber": 67,
    "channel": 0,
    "deltaTime": 120
  },
  {
    "subtype": "noteOn",
    "velocity": 0,
    "type": "channel",
    "noteNumber": 75,
    "channel": 0,
    "deltaTime": 120
  },
  {
    "subtype": "noteOn",
    "velocity": 0,
    "type": "channel",
    "noteNumber": 75,
    "channel": 0,
    "deltaTime": 120
  },
  {
    "subtype": "noteOn",
    "velocity": 0,
    "type": "channel",
    "noteNumber": 76,
    "channel": 0,
    "deltaTime": 120
  },
  {
    "subtype": "noteOn",
    "velocity": 0,
    "type": "channel",
    "noteNumber": 75,
    "channel": 0,
    "deltaTime": 120
  },
  {
    "subtype": "noteOn",
    "velocity": 0,
    "type": "channel",
    "noteNumber": 73,
    "channel": 0,
    "deltaTime": 120
  },
  {
    "subtype": "noteOn",
    "velocity": 0,
    "type": "channel",
    "noteNumber": 73,
    "channel": 0,
    "deltaTime": 120
  },
  {
    "subtype": "noteOn",
    "velocity": 0,
    "type": "channel",
    "noteNumber": 71,
    "channel": 0,
    "deltaTime": 120
  },
  {
    "subtype": "noteOn",
    "velocity": 0,
    "type": "channel",
    "noteNumber": 71,
    "channel": 0,
    "deltaTime": 120
  },
  {
    "subtype": "noteOn",
    "velocity": 0,
    "type": "channel",
    "noteNumber": 70,
    "channel": 0,
    "deltaTime": 120
  },
  {
    "subtype": "noteOn",
    "velocity": 0,
    "type": "channel",
    "noteNumber": 70,
    "channel": 0,
    "deltaTime": 120
  },
  {
    "subtype": "noteOn",
    "velocity": 0,
    "type": "channel",
    "noteNumber": 68,
    "channel": 0,
    "deltaTime": 120
  },
  {
    "subtype": "noteOn",
    "velocity": 0,
    "type": "channel",
    "noteNumber": 68,
    "channel": 0,
    "deltaTime": 120
  },
  {
    "subtype": "noteOn",
    "velocity": 0,
    "type": "channel",
    "noteNumber": 67,
    "channel": 0,
    "deltaTime": 120
  },
  {
    "subtype": "noteOn",
    "velocity": 0,
    "type": "channel",
    "noteNumber": 67,
    "channel": 0,
    "deltaTime": 120
  },
  {
    "subtype": "noteOff",
    "velocity": 0,
    "type": "channel",
    "noteNumber": 67,
    "channel": 0,
    "deltaTime": 0
  },
  {
    "subtype": "noteOn",
    "velocity": 0,
    "type": "channel",
    "noteNumber": 68,
    "channel": 0,
    "deltaTime": 120
  },
  {
    "subtype": "noteOn",
    "velocity": 0,
    "type": "channel",
    "noteNumber": 70,
    "channel": 0,
    "deltaTime": 120
  },
  {
    "subtype": "noteOn",
    "velocity": 0,
    "type": "channel",
    "noteNumber": 61,
    "channel": 0,
    "deltaTime": 120
  },
  {
    "subtype": "noteOn",
    "velocity": 0,
    "type": "channel",
    "noteNumber": 75,
    "channel": 0,
    "deltaTime": 120
  },
  {
    "subtype": "noteOn",
    "velocity": 0,
    "type": "channel",
    "noteNumber": 75,
    "channel": 0,
    "deltaTime": 120
  },
  {
    "subtype": "noteOn",
    "velocity": 0,
    "type": "channel",
    "noteNumber": 75,
    "channel": 0,
    "deltaTime": 120
  },
  {
    "subtype": "noteOn",
    "velocity": 0,
    "type": "channel",
    "noteNumber": 75,
    "channel": 0,
    "deltaTime": 120
  },
  {
    "subtype": "noteOn",
    "velocity": 0,
    "type": "channel",
    "noteNumber": 70,
    "channel": 0,
    "deltaTime": 120
  },
  {
    "subtype": "noteOn",
    "velocity": 0,
    "type": "channel",
    "noteNumber": 70,
    "channel": 0,
    "deltaTime": 120
  },
  {
    "subtype": "noteOn",
    "velocity": 0,
    "type": "channel",
    "noteNumber": 71,
    "channel": 0,
    "deltaTime": 120
  },
  {
    "subtype": "noteOn",
    "velocity": 0,
    "type": "channel",
    "noteNumber": 71,
    "channel": 0,
    "deltaTime": 120
  },
  {
    "subtype": "noteOn",
    "velocity": 0,
    "type": "channel",
    "noteNumber": 67,
    "channel": 0,
    "deltaTime": 120
  },
  {
    "subtype": "noteOn",
    "velocity": 0,
    "type": "channel",
    "noteNumber": 67,
    "channel": 0,
    "deltaTime": 120
  },
  {
    "subtype": "noteOn",
    "velocity": 0,
    "type": "channel",
    "noteNumber": 68,
    "channel": 0,
    "deltaTime": 120
  },
  {
    "subtype": "noteOn",
    "velocity": 0,
    "type": "channel",
    "noteNumber": 68,
    "channel": 0,
    "deltaTime": 120
  },
  {
    "subtype": "noteOff",
    "velocity": 0,
    "type": "channel",
    "noteNumber": 68,
    "channel": 0,
    "deltaTime": 0
  },
  {
    "subtype": "noteOn",
    "velocity": 0,
    "type": "channel",
    "noteNumber": 63,
    "channel": 0,
    "deltaTime": 120
  },
  {
    "subtype": "noteOn",
    "velocity": 0,
    "type": "channel",
    "noteNumber": 75,
    "channel": 0,
    "deltaTime": 120
  },
  {
    "subtype": "noteOn",
    "velocity": 0,
    "type": "channel",
    "noteNumber": 75,
    "channel": 0,
    "deltaTime": 120
  },
  {
    "subtype": "noteOff",
    "velocity": 0,
    "type": "channel",
    "noteNumber": 75,
    "channel": 0,
    "deltaTime": 0
  },
  {
    "subtype": "noteOn",
    "velocity": 0,
    "type": "channel",
    "noteNumber": 72,
    "channel": 0,
    "deltaTime": 120
  },
  {
    "subtype": "noteOff",
    "velocity": 0,
    "type": "channel",
    "noteNumber": 72,
    "channel": 0,
    "deltaTime": 0
  },
  {
    "subtype": "noteOn",
    "velocity": 0,
    "type": "channel",
    "noteNumber": 68,
    "channel": 0,
    "deltaTime": 120
  },
  {
    "subtype": "noteOff",
    "velocity": 0,
    "type": "channel",
    "noteNumber": 68,
    "channel": 0,
    "deltaTime": 0
  },
  {
    "subtype": "noteOn",
    "velocity": 0,
    "type": "channel",
    "noteNumber": 65,
    "channel": 0,
    "deltaTime": 120
  },
  {
    "subtype": "noteOn",
    "velocity": 0,
    "type": "channel",
    "noteNumber": 74,
    "channel": 0,
    "deltaTime": 120
  },
  {
    "subtype": "noteOn",
    "velocity": 0,
    "type": "channel",
    "noteNumber": 74,
    "channel": 0,
    "deltaTime": 120
  },
  {
    "subtype": "noteOn",
    "velocity": 0,
    "type": "channel",
    "noteNumber": 77,
    "channel": 0,
    "deltaTime": 120
  },
  {
    "subtype": "noteOn",
    "velocity": 0,
    "type": "channel",
    "noteNumber": 77,
    "channel": 0,
    "deltaTime": 120
  },
  {
    "subtype": "noteOff",
    "velocity": 0,
    "type": "channel",
    "noteNumber": 77,
    "channel": 0,
    "deltaTime": 0
  },
  {
    "subtype": "noteOn",
    "velocity": 0,
    "type": "channel",
    "noteNumber": 83,
    "channel": 0,
    "deltaTime": 120
  },
  {
    "subtype": "noteOn",
    "velocity": 0,
    "type": "channel",
    "noteNumber": 80,
    "channel": 0,
    "deltaTime": 120
  },
  {
    "subtype": "noteOn",
    "velocity": 0,
    "type": "channel",
    "noteNumber": 80,
    "channel": 0,
    "deltaTime": 120
  },
  {
    "subtype": "noteOff",
    "velocity": 0,
    "type": "channel",
    "noteNumber": 80,
    "channel": 0,
    "deltaTime": 0
  },
  {
    "subtype": "noteOn",
    "velocity": 0,
    "type": "channel",
    "noteNumber": 77,
    "channel": 0,
    "deltaTime": 120
  },
  {
    "subtype": "noteOn",
    "velocity": 0,
    "type": "channel",
    "noteNumber": 72,
    "channel": 0,
    "deltaTime": 120
  },
  {
    "subtype": "noteOn",
    "velocity": 0,
    "type": "channel",
    "noteNumber": 71,
    "channel": 0,
    "deltaTime": 120
  },
  {
    "subtype": "noteOff",
    "velocity": 0,
    "type": "channel",
    "noteNumber": 71,
    "channel": 0,
    "deltaTime": 0
  },
  {
    "subtype": "noteOn",
    "velocity": 0,
    "type": "channel",
    "noteNumber": 75,
    "channel": 0,
    "deltaTime": 120
  },
  {
    "subtype": "noteOff",
    "velocity": 0,
    "type": "channel",
    "noteNumber": 75,
    "channel": 0,
    "deltaTime": 0
  },
  {
    "subtype": "noteOn",
    "velocity": 0,
    "type": "channel",
    "noteNumber": 83,
    "channel": 0,
    "deltaTime": 120
  },
  {
    "subtype": "noteOn",
    "velocity": 0,
    "type": "channel",
    "noteNumber": 82,
    "channel": 0,
    "deltaTime": 120
  },
  {
    "subtype": "noteOn",
    "velocity": 0,
    "type": "channel",
    "noteNumber": 82,
    "channel": 0,
    "deltaTime": 120
  },
  {
    "subtype": "noteOn",
    "velocity": 0,
    "type": "channel",
    "noteNumber": 80,
    "channel": 0,
    "deltaTime": 120
  },
  {
    "subtype": "noteOn",
    "velocity": 0,
    "type": "channel",
    "noteNumber": 80,
    "channel": 0,
    "deltaTime": 120
  },
  {
    "subtype": "noteOn",
    "velocity": 0,
    "type": "channel",
    "noteNumber": 83,
    "channel": 0,
    "deltaTime": 120
  },
  {
    "subtype": "noteOff",
    "velocity": 0,
    "type": "channel",
    "noteNumber": 83,
    "channel": 0,
    "deltaTime": 0
  },
  {
    "subtype": "noteOff",
    "velocity": 0,
    "type": "channel",
    "noteNumber": 83,
    "channel": 0,
    "deltaTime": 0
  },
  {
    "subtype": "noteOn",
    "velocity": 0,
    "type": "channel",
    "noteNumber": 77,
    "channel": 0,
    "deltaTime": 120
  },
  {
    "subtype": "noteOff",
    "velocity": 0,
    "type": "channel",
    "noteNumber": 77,
    "channel": 0,
    "deltaTime": 0
  },
  {
    "subtype": "noteOn",
    "velocity": 0,
    "type": "channel",
    "noteNumber": 79,
    "channel": 0,
    "deltaTime": 120
  },
  {
    "subtype": "noteOn",
    "velocity": 0,
    "type": "channel",
    "noteNumber": 80,
    "channel": 0,
    "deltaTime": 120
  },
  {
    "subtype": "noteOn",
    "velocity": 0,
    "type": "channel",
    "noteNumber": 80,
    "channel": 0,
    "deltaTime": 120
  },
  {
    "subtype": "noteOff",
    "velocity": 0,
    "type": "channel",
    "noteNumber": 80,
    "channel": 0,
    "deltaTime": 0
  },
  {
    "subtype": "noteOn",
    "velocity": 0,
    "type": "channel",
    "noteNumber": 78,
    "channel": 0,
    "deltaTime": 120
  },
  {
    "subtype": "noteOn",
    "velocity": 0,
    "type": "channel",
    "noteNumber": 77,
    "channel": 0,
    "deltaTime": 120
  },
  {
    "subtype": "noteOn",
    "velocity": 0,
    "type": "channel",
    "noteNumber": 77,
    "channel": 0,
    "deltaTime": 120
  },
  {
    "subtype": "noteOn",
    "velocity": 0,
    "type": "channel",
    "noteNumber": 80,
    "channel": 0,
    "deltaTime": 120
  },
  {
    "subtype": "noteOn",
    "velocity": 0,
    "type": "channel",
    "noteNumber": 80,
    "channel": 0,
    "deltaTime": 120
  },
  {
    "subtype": "noteOff",
    "velocity": 0,
    "type": "channel",
    "noteNumber": 80,
    "channel": 0,
    "deltaTime": 0
  },
  {
    "subtype": "noteOn",
    "velocity": 0,
    "type": "channel",
    "noteNumber": 77,
    "channel": 0,
    "deltaTime": 120
  },
  {
    "subtype": "noteOn",
    "velocity": 0,
    "type": "channel",
    "noteNumber": 77,
    "channel": 0,
    "deltaTime": 120
  },
  {
    "subtype": "noteOn",
    "velocity": 0,
    "type": "channel",
    "noteNumber": 77,
    "channel": 0,
    "deltaTime": 120
  },
  {
    "subtype": "noteOn",
    "velocity": 0,
    "type": "channel",
    "noteNumber": 83,
    "channel": 0,
    "deltaTime": 120
  },
  {
    "subtype": "noteOn",
    "velocity": 0,
    "type": "channel",
    "noteNumber": 83,
    "channel": 0,
    "deltaTime": 120
  },
  {
    "subtype": "noteOn",
    "velocity": 0,
    "type": "channel",
    "noteNumber": 73,
    "channel": 0,
    "deltaTime": 120
  },
  {
    "subtype": "noteOn",
    "velocity": 0,
    "type": "channel",
    "noteNumber": 73,
    "channel": 0,
    "deltaTime": 120
  },
  {
    "subtype": "noteOn",
    "velocity": 0,
    "type": "channel",
    "noteNumber": 83,
    "channel": 0,
    "deltaTime": 120
  },
  {
    "subtype": "noteOn",
    "velocity": 0,
    "type": "channel",
    "noteNumber": 75,
    "channel": 0,
    "deltaTime": 120
  },
  {
    "subtype": "noteOn",
    "velocity": 0,
    "type": "channel",
    "noteNumber": 73,
    "channel": 0,
    "deltaTime": 120
  },
  {
    "subtype": "noteOn",
    "velocity": 0,
    "type": "channel",
    "noteNumber": 73,
    "channel": 0,
    "deltaTime": 120
  },
  {
    "subtype": "noteOff",
    "velocity": 0,
    "type": "channel",
    "noteNumber": 73,
    "channel": 0,
    "deltaTime": 0
  },
  {
    "subtype": "noteOn",
    "velocity": 0,
    "type": "channel",
    "noteNumber": 75,
    "channel": 0,
    "deltaTime": 120
  },
  {
    "subtype": "noteOn",
    "velocity": 0,
    "type": "channel",
    "noteNumber": 82,
    "channel": 0,
    "deltaTime": 120
  },
  {
    "subtype": "noteOn",
    "velocity": 0,
    "type": "channel",
    "noteNumber": 82,
    "channel": 0,
    "deltaTime": 120
  },
  {
    "subtype": "noteOn",
    "velocity": 0,
    "type": "channel",
    "noteNumber": 80,
    "channel": 0,
    "deltaTime": 120
  },
  {
    "subtype": "noteOn",
    "velocity": 0,
    "type": "channel",
    "noteNumber": 80,
    "channel": 0,
    "deltaTime": 120
  },
  {
    "subtype": "noteOn",
    "velocity": 0,
    "type": "channel",
    "noteNumber": 79,
    "channel": 0,
    "deltaTime": 120
  },
  {
    "subtype": "noteOn",
    "velocity": 0,
    "type": "channel",
    "noteNumber": 79,
    "channel": 0,
    "deltaTime": 120
  },
  {
    "subtype": "noteOff",
    "velocity": 0,
    "type": "channel",
    "noteNumber": 79,
    "channel": 0,
    "deltaTime": 0
  },
  {
    "subtype": "noteOn",
    "velocity": 0,
    "type": "channel",
    "noteNumber": 82,
    "channel": 0,
    "deltaTime": 120
  },
  {
    "subtype": "noteOn",
    "velocity": 0,
    "type": "channel",
    "noteNumber": 82,
    "channel": 0,
    "deltaTime": 120
  },
  {
    "subtype": "noteOn",
    "velocity": 0,
    "type": "channel",
    "noteNumber": 82,
    "channel": 0,
    "deltaTime": 120
  },
  {
    "subtype": "noteOn",
    "velocity": 0,
    "type": "channel",
    "noteNumber": 80,
    "channel": 0,
    "deltaTime": 120
  },
  {
    "subtype": "noteOn",
    "velocity": 0,
    "type": "channel",
    "noteNumber": 80,
    "channel": 0,
    "deltaTime": 120
  },
  {
    "subtype": "noteOn",
    "velocity": 0,
    "type": "channel",
    "noteNumber": 79,
    "channel": 0,
    "deltaTime": 120
  },
  {
    "subtype": "noteOn",
    "velocity": 0,
    "type": "channel",
    "noteNumber": 79,
    "channel": 0,
    "deltaTime": 120
  },
  {
    "subtype": "noteOn",
    "velocity": 0,
    "type": "channel",
    "noteNumber": 80,
    "channel": 0,
    "deltaTime": 120
  },
  {
    "subtype": "noteOn",
    "velocity": 0,
    "type": "channel",
    "noteNumber": 80,
    "channel": 0,
    "deltaTime": 120
  },
  {
    "subtype": "noteOff",
    "velocity": 0,
    "type": "channel",
    "noteNumber": 80,
    "channel": 0,
    "deltaTime": 0
  },
  {
    "subtype": "noteOn",
    "velocity": 0,
    "type": "channel",
    "noteNumber": 75,
    "channel": 0,
    "deltaTime": 120
  },
  {
    "subtype": "noteOff",
    "velocity": 0,
    "type": "channel",
    "noteNumber": 75,
    "channel": 0,
    "deltaTime": 0
  },
  {
    "subtype": "noteOn",
    "velocity": 0,
    "type": "channel",
    "noteNumber": 76,
    "channel": 0,
    "deltaTime": 120
  },
  {
    "subtype": "noteOn",
    "velocity": 0,
    "type": "channel",
    "noteNumber": 77,
    "channel": 0,
    "deltaTime": 120
  },
  {
    "subtype": "noteOn",
    "velocity": 0,
    "type": "channel",
    "noteNumber": 77,
    "channel": 0,
    "deltaTime": 120
  },
  {
    "subtype": "noteOff",
    "velocity": 0,
    "type": "channel",
    "noteNumber": 77,
    "channel": 0,
    "deltaTime": 0
  },
  {
    "subtype": "noteOn",
    "velocity": 0,
    "type": "channel",
    "noteNumber": 75,
    "channel": 0,
    "deltaTime": 120
  },
  {
    "subtype": "noteOn",
    "velocity": 0,
    "type": "channel",
    "noteNumber": 74,
    "channel": 0,
    "deltaTime": 120
  },
  {
    "subtype": "noteOn",
    "velocity": 0,
    "type": "channel",
    "noteNumber": 74,
    "channel": 0,
    "deltaTime": 120
  },
  {
    "subtype": "noteOn",
    "velocity": 0,
    "type": "channel",
    "noteNumber": 75,
    "channel": 0,
    "deltaTime": 120
  },
  {
    "subtype": "noteOn",
    "velocity": 0,
    "type": "channel",
    "noteNumber": 75,
    "channel": 0,
    "deltaTime": 120
  },
  {
    "subtype": "noteOff",
    "velocity": 0,
    "type": "channel",
    "noteNumber": 75,
    "channel": 0,
    "deltaTime": 0
  },
  {
    "subtype": "noteOn",
    "velocity": 0,
    "type": "channel",
    "noteNumber": 70,
    "channel": 0,
    "deltaTime": 120
  },
  {
    "subtype": "noteOn",
    "velocity": 0,
    "type": "channel",
    "noteNumber": 68,
    "channel": 0,
    "deltaTime": 120
  },
  {
    "subtype": "noteOn",
    "velocity": 0,
    "type": "channel",
    "noteNumber": 68,
    "channel": 0,
    "deltaTime": 120
  },
  {
    "subtype": "noteOff",
    "velocity": 0,
    "type": "channel",
    "noteNumber": 68,
    "channel": 0,
    "deltaTime": 0
  },
  {
    "subtype": "noteOn",
    "velocity": 0,
    "type": "channel",
    "noteNumber": 66,
    "channel": 0,
    "deltaTime": 120
  },
  {
    "subtype": "noteOn",
    "velocity": 0,
    "type": "channel",
    "noteNumber": 75,
    "channel": 0,
    "deltaTime": 120
  },
  {
    "subtype": "noteOn",
    "velocity": 0,
    "type": "channel",
    "noteNumber": 75,
    "channel": 0,
    "deltaTime": 120
  },
  {
    "subtype": "noteOff",
    "velocity": 0,
    "type": "channel",
    "noteNumber": 75,
    "channel": 0,
    "deltaTime": 0
  },
  {
    "subtype": "noteOn",
    "velocity": 0,
    "type": "channel",
    "noteNumber": 78,
    "channel": 0,
    "deltaTime": 120
  },
  {
    "subtype": "noteOn",
    "velocity": 0,
    "type": "channel",
    "noteNumber": 82,
    "channel": 0,
    "deltaTime": 120
  },
  {
    "subtype": "noteOn",
    "velocity": 0,
    "type": "channel",
    "noteNumber": 82,
    "channel": 0,
    "deltaTime": 120
  },
  {
    "subtype": "noteOn",
    "velocity": 0,
    "type": "channel",
    "noteNumber": 75,
    "channel": 0,
    "deltaTime": 120
  },
  {
    "subtype": "noteOn",
    "velocity": 0,
    "type": "channel",
    "noteNumber": 75,
    "channel": 0,
    "deltaTime": 120
  },
  {
    "subtype": "noteOff",
    "velocity": 0,
    "type": "channel",
    "noteNumber": 75,
    "channel": 0,
    "deltaTime": 0
  },
  {
    "subtype": "noteOn",
    "velocity": 0,
    "type": "channel",
    "noteNumber": 80,
    "channel": 0,
    "deltaTime": 120
  },
  {
    "subtype": "noteOn",
    "velocity": 0,
    "type": "channel",
    "noteNumber": 75,
    "channel": 0,
    "deltaTime": 120
  },
  {
    "subtype": "noteOn",
    "velocity": 0,
    "type": "channel",
    "noteNumber": 75,
    "channel": 0,
    "deltaTime": 120
  },
  {
    "subtype": "noteOff",
    "velocity": 0,
    "type": "channel",
    "noteNumber": 75,
    "channel": 0,
    "deltaTime": 0
  },
  {
    "subtype": "noteOn",
    "velocity": 0,
    "type": "channel",
    "noteNumber": 59,
    "channel": 0,
    "deltaTime": 120
  },
  {
    "subtype": "noteOff",
    "velocity": 0,
    "type": "channel",
    "noteNumber": 59,
    "channel": 0,
    "deltaTime": 0
  },
  {
    "subtype": "noteOn",
    "velocity": 0,
    "type": "channel",
    "noteNumber": 75,
    "channel": 0,
    "deltaTime": 120
  },
  {
    "subtype": "noteOff",
    "velocity": 0,
    "type": "channel",
    "noteNumber": 75,
    "channel": 0,
    "deltaTime": 0
  },
  {
    "subtype": "noteOn",
    "velocity": 0,
    "type": "channel",
    "noteNumber": 78,
    "channel": 0,
    "deltaTime": 120
  },
  {
    "subtype": "noteOff",
    "velocity": 0,
    "type": "channel",
    "noteNumber": 78,
    "channel": 0,
    "deltaTime": 0
  },
  {
    "subtype": "noteOn",
    "velocity": 0,
    "type": "channel",
    "noteNumber": 79,
    "channel": 0,
    "deltaTime": 120
  },
  {
    "subtype": "noteOn",
    "velocity": 0,
    "type": "channel",
    "noteNumber": 80,
    "channel": 0,
    "deltaTime": 120
  },
  {
    "subtype": "noteOn",
    "velocity": 0,
    "type": "channel",
    "noteNumber": 80,
    "channel": 0,
    "deltaTime": 120
  },
  {
    "subtype": "noteOff",
    "velocity": 0,
    "type": "channel",
    "noteNumber": 80,
    "channel": 0,
    "deltaTime": 0
  },
  {
    "subtype": "noteOff",
    "velocity": 0,
    "type": "channel",
    "noteNumber": 80,
    "channel": 0,
    "deltaTime": 0
  },
  {
    "subtype": "noteOff",
    "velocity": 0,
    "type": "channel",
    "noteNumber": 80,
    "channel": 0,
    "deltaTime": 0
  },
  {
    "subtype": "noteOn",
    "velocity": 0,
    "type": "channel",
    "noteNumber": 76,
    "channel": 0,
    "deltaTime": 120
  },
  {
    "subtype": "noteOn",
    "velocity": 0,
    "type": "channel",
    "noteNumber": 77,
    "channel": 0,
    "deltaTime": 120
  },
  {
    "subtype": "noteOn",
    "velocity": 0,
    "type": "channel",
    "noteNumber": 73,
    "channel": 0,
    "deltaTime": 120
  },
  {
    "subtype": "noteOn",
    "velocity": 0,
    "type": "channel",
    "noteNumber": 73,
    "channel": 0,
    "deltaTime": 120
  },
  {
    "subtype": "noteOn",
    "velocity": 0,
    "type": "channel",
    "noteNumber": 73,
    "channel": 0,
    "deltaTime": 120
  },
  {
    "subtype": "noteOff",
    "velocity": 0,
    "type": "channel",
    "noteNumber": 73,
    "channel": 0,
    "deltaTime": 0
  },
  {
    "subtype": "noteOff",
    "velocity": 0,
    "type": "channel",
    "noteNumber": 73,
    "channel": 0,
    "deltaTime": 0
  },
  {
    "subtype": "noteOff",
    "velocity": 0,
    "type": "channel",
    "noteNumber": 73,
    "channel": 0,
    "deltaTime": 0
  },
  {
    "subtype": "noteOff",
    "velocity": 0,
    "type": "channel",
    "noteNumber": 73,
    "channel": 0,
    "deltaTime": 0
  },
  {
    "subtype": "noteOff",
    "velocity": 0,
    "type": "channel",
    "noteNumber": 73,
    "channel": 0,
    "deltaTime": 0
  },
  {
    "subtype": "noteOn",
    "velocity": 0,
    "type": "channel",
    "noteNumber": 82,
    "channel": 0,
    "deltaTime": 120
  },
  {
    "subtype": "noteOn",
    "velocity": 0,
    "type": "channel",
    "noteNumber": 85,
    "channel": 0,
    "deltaTime": 120
  },
  {
    "subtype": "noteOn",
    "velocity": 0,
    "type": "channel",
    "noteNumber": 85,
    "channel": 0,
    "deltaTime": 120
  },
  {
    "subtype": "noteOn",
    "velocity": 0,
    "type": "channel",
    "noteNumber": 85,
    "channel": 0,
    "deltaTime": 120
  },
  {
    "subtype": "noteOn",
    "velocity": 0,
    "type": "channel",
    "noteNumber": 85,
    "channel": 0,
    "deltaTime": 120
  },
  {
    "subtype": "noteOn",
    "velocity": 0,
    "type": "channel",
    "noteNumber": 85,
    "channel": 0,
    "deltaTime": 120
  },
  {
    "subtype": "noteOn",
    "velocity": 0,
    "type": "channel",
    "noteNumber": 85,
    "channel": 0,
    "deltaTime": 120
  },
  {
    "subtype": "noteOn",
    "velocity": 0,
    "type": "channel",
    "noteNumber": 85,
    "channel": 0,
    "deltaTime": 120
  },
  {
    "subtype": "noteOn",
    "velocity": 0,
    "type": "channel",
    "noteNumber": 85,
    "channel": 0,
    "deltaTime": 120
  },
  {
    "subtype": "noteOn",
    "velocity": 0,
    "type": "channel",
    "noteNumber": 85,
    "channel": 0,
    "deltaTime": 120
  },
  {
    "subtype": "noteOn",
    "velocity": 0,
    "type": "channel",
    "noteNumber": 85,
    "channel": 0,
    "deltaTime": 120
  },
  {
    "subtype": "noteOn",
    "velocity": 0,
    "type": "channel",
    "noteNumber": 85,
    "channel": 0,
    "deltaTime": 120
  },
  {
    "subtype": "noteOn",
    "velocity": 0,
    "type": "channel",
    "noteNumber": 85,
    "channel": 0,
    "deltaTime": 120
  },
  {
    "subtype": "noteOn",
    "velocity": 0,
    "type": "channel",
    "noteNumber": 85,
    "channel": 0,
    "deltaTime": 120
  },
  {
    "subtype": "noteOn",
    "velocity": 0,
    "type": "channel",
    "noteNumber": 85,
    "channel": 0,
    "deltaTime": 120
  },
  {
    "subtype": "noteOn",
    "velocity": 0,
    "type": "channel",
    "noteNumber": 85,
    "channel": 0,
    "deltaTime": 120
  },
  {
    "subtype": "noteOn",
    "velocity": 0,
    "type": "channel",
    "noteNumber": 85,
    "channel": 0,
    "deltaTime": 120
  },
  {
    "subtype": "noteOn",
    "velocity": 0,
    "type": "channel",
    "noteNumber": 82,
    "channel": 0,
    "deltaTime": 120
  },
  {
    "subtype": "noteOn",
    "velocity": 0,
    "type": "channel",
    "noteNumber": 82,
    "channel": 0,
    "deltaTime": 120
  },
  {
    "subtype": "noteOn",
    "velocity": 0,
    "type": "channel",
    "noteNumber": 79,
    "channel": 0,
    "deltaTime": 120
  },
  {
    "subtype": "noteOn",
    "velocity": 0,
    "type": "channel",
    "noteNumber": 79,
    "channel": 0,
    "deltaTime": 120
  },
  {
    "subtype": "noteOn",
    "velocity": 0,
    "type": "channel",
    "noteNumber": 79,
    "channel": 0,
    "deltaTime": 120
  },
  {
    "subtype": "noteOn",
    "velocity": 0,
    "type": "channel",
    "noteNumber": 79,
    "channel": 0,
    "deltaTime": 120
  },
  {
    "subtype": "noteOn",
    "velocity": 0,
    "type": "channel",
    "noteNumber": 79,
    "channel": 0,
    "deltaTime": 120
  },
  {
    "subtype": "noteOn",
    "velocity": 0,
    "type": "channel",
    "noteNumber": 79,
    "channel": 0,
    "deltaTime": 120
  },
  {
    "subtype": "noteOn",
    "velocity": 0,
    "type": "channel",
    "noteNumber": 79,
    "channel": 0,
    "deltaTime": 120
  },
  {
    "subtype": "noteOn",
    "velocity": 0,
    "type": "channel",
    "noteNumber": 82,
    "channel": 0,
    "deltaTime": 120
  },
  {
    "subtype": "noteOn",
    "velocity": 0,
    "type": "channel",
    "noteNumber": 82,
    "channel": 0,
    "deltaTime": 120
  },
  {
    "subtype": "noteOn",
    "velocity": 0,
    "type": "channel",
    "noteNumber": 75,
    "channel": 0,
    "deltaTime": 120
  },
  {
    "subtype": "noteOn",
    "velocity": 0,
    "type": "channel",
    "noteNumber": 75,
    "channel": 0,
    "deltaTime": 120
  },
  {
    "subtype": "noteOn",
    "velocity": 0,
    "type": "channel",
    "noteNumber": 76,
    "channel": 0,
    "deltaTime": 120
  },
  {
    "subtype": "noteOn",
    "velocity": 0,
    "type": "channel",
    "noteNumber": 76,
    "channel": 0,
    "deltaTime": 120
  },
  {
    "subtype": "noteOn",
    "velocity": 0,
    "type": "channel",
    "noteNumber": 63,
    "channel": 0,
    "deltaTime": 120
  },
  {
    "subtype": "noteOn",
    "velocity": 0,
    "type": "channel",
    "noteNumber": 85,
    "channel": 0,
    "deltaTime": 120
  },
  {
    "subtype": "noteOn",
    "velocity": 0,
    "type": "channel",
    "noteNumber": 85,
    "channel": 0,
    "deltaTime": 120
  },
  {
    "subtype": "noteOn",
    "velocity": 0,
    "type": "channel",
    "noteNumber": 85,
    "channel": 0,
    "deltaTime": 120
  },
  {
    "subtype": "noteOn",
    "velocity": 0,
    "type": "channel",
    "noteNumber": 85,
    "channel": 0,
    "deltaTime": 120
  },
  {
    "subtype": "noteOn",
    "velocity": 0,
    "type": "channel",
    "noteNumber": 85,
    "channel": 0,
    "deltaTime": 120
  },
  {
    "subtype": "noteOn",
    "velocity": 0,
    "type": "channel",
    "noteNumber": 85,
    "channel": 0,
    "deltaTime": 120
  },
  {
    "subtype": "noteOn",
    "velocity": 0,
    "type": "channel",
    "noteNumber": 85,
    "channel": 0,
    "deltaTime": 120
  },
  {
    "subtype": "noteOn",
    "velocity": 0,
    "type": "channel",
    "noteNumber": 85,
    "channel": 0,
    "deltaTime": 120
  },
  {
    "subtype": "noteOn",
    "velocity": 0,
    "type": "channel",
    "noteNumber": 85,
    "channel": 0,
    "deltaTime": 120
  },
  {
    "subtype": "noteOn",
    "velocity": 0,
    "type": "channel",
    "noteNumber": 85,
    "channel": 0,
    "deltaTime": 120
  },
  {
    "subtype": "noteOn",
    "velocity": 0,
    "type": "channel",
    "noteNumber": 85,
    "channel": 0,
    "deltaTime": 120
  },
  {
    "subtype": "noteOn",
    "velocity": 0,
    "type": "channel",
    "noteNumber": 82,
    "channel": 0,
    "deltaTime": 120
  },
  {
    "subtype": "noteOn",
    "velocity": 0,
    "type": "channel",
    "noteNumber": 82,
    "channel": 0,
    "deltaTime": 120
  },
  {
    "subtype": "noteOn",
    "velocity": 0,
    "type": "channel",
    "noteNumber": 82,
    "channel": 0,
    "deltaTime": 120
  },
  {
    "subtype": "noteOn",
    "velocity": 0,
    "type": "channel",
    "noteNumber": 82,
    "channel": 0,
    "deltaTime": 120
  },
  {
    "subtype": "noteOn",
    "velocity": 0,
    "type": "channel",
    "noteNumber": 79,
    "channel": 0,
    "deltaTime": 120
  },
  {
    "subtype": "noteOn",
    "velocity": 0,
    "type": "channel",
    "noteNumber": 79,
    "channel": 0,
    "deltaTime": 120
  },
  {
    "subtype": "noteOff",
    "velocity": 0,
    "type": "channel",
    "noteNumber": 79,
    "channel": 0,
    "deltaTime": 0
  },
  {
    "subtype": "noteOn",
    "velocity": 0,
    "type": "channel",
    "noteNumber": 80,
    "channel": 0,
    "deltaTime": 120
  },
  {
    "subtype": "noteOn",
    "velocity": 0,
    "type": "channel",
    "noteNumber": 80,
    "channel": 0,
    "deltaTime": 120
  },
  {
    "subtype": "noteOn",
    "velocity": 0,
    "type": "channel",
    "noteNumber": 81,
    "channel": 0,
    "deltaTime": 120
  },
  {
    "subtype": "noteOn",
    "velocity": 0,
    "type": "channel",
    "noteNumber": 78,
    "channel": 0,
    "deltaTime": 120
  },
  {
    "subtype": "noteOn",
    "velocity": 0,
    "type": "channel",
    "noteNumber": 78,
    "channel": 0,
    "deltaTime": 120
  },
  {
    "subtype": "noteOff",
    "velocity": 0,
    "type": "channel",
    "noteNumber": 78,
    "channel": 0,
    "deltaTime": 0
  },
  {
    "subtype": "noteOn",
    "velocity": 0,
    "type": "channel",
    "noteNumber": 72,
    "channel": 0,
    "deltaTime": 120
  },
  {
    "subtype": "noteOn",
    "velocity": 0,
    "type": "channel",
    "noteNumber": 72,
    "channel": 0,
    "deltaTime": 120
  },
  {
    "subtype": "noteOn",
    "velocity": 0,
    "type": "channel",
    "noteNumber": 72,
    "channel": 0,
    "deltaTime": 120
  },
  {
    "subtype": "noteOn",
    "velocity": 0,
    "type": "channel",
    "noteNumber": 72,
    "channel": 0,
    "deltaTime": 120
  },
  {
    "subtype": "noteOn",
    "velocity": 0,
    "type": "channel",
    "noteNumber": 72,
    "channel": 0,
    "deltaTime": 120
  },
  {
    "subtype": "noteOn",
    "velocity": 0,
    "type": "channel",
    "noteNumber": 72,
    "channel": 0,
    "deltaTime": 120
  },
  {
    "subtype": "noteOn",
    "velocity": 0,
    "type": "channel",
    "noteNumber": 72,
    "channel": 0,
    "deltaTime": 120
  },
  {
    "subtype": "noteOn",
    "velocity": 0,
    "type": "channel",
    "noteNumber": 72,
    "channel": 0,
    "deltaTime": 120
  },
  {
    "subtype": "noteOn",
    "velocity": 0,
    "type": "channel",
    "noteNumber": 72,
    "channel": 0,
    "deltaTime": 120
  },
  {
    "subtype": "noteOn",
    "velocity": 0,
    "type": "channel",
    "noteNumber": 72,
    "channel": 0,
    "deltaTime": 120
  },
  {
    "subtype": "noteOn",
    "velocity": 0,
    "type": "channel",
    "noteNumber": 72,
    "channel": 0,
    "deltaTime": 120
  },
  {
    "subtype": "noteOn",
    "velocity": 0,
    "type": "channel",
    "noteNumber": 72,
    "channel": 0,
    "deltaTime": 120
  },
  {
    "subtype": "noteOn",
    "velocity": 0,
    "type": "channel",
    "noteNumber": 72,
    "channel": 0,
    "deltaTime": 120
  },
  {
    "subtype": "noteOn",
    "velocity": 0,
    "type": "channel",
    "noteNumber": 72,
    "channel": 0,
    "deltaTime": 120
  },
  {
    "subtype": "noteOn",
    "velocity": 0,
    "type": "channel",
    "noteNumber": 72,
    "channel": 0,
    "deltaTime": 120
  },
  {
    "subtype": "noteOn",
    "velocity": 0,
    "type": "channel",
    "noteNumber": 73,
    "channel": 0,
    "deltaTime": 120
  },
  {
    "subtype": "noteOn",
    "velocity": 0,
    "type": "channel",
    "noteNumber": 73,
    "channel": 0,
    "deltaTime": 120
  },
  {
    "subtype": "noteOn",
    "velocity": 0,
    "type": "channel",
    "noteNumber": 73,
    "channel": 0,
    "deltaTime": 120
  },
  {
    "subtype": "noteOn",
    "velocity": 0,
    "type": "channel",
    "noteNumber": 73,
    "channel": 0,
    "deltaTime": 120
  },
  {
    "subtype": "noteOn",
    "velocity": 0,
    "type": "channel",
    "noteNumber": 83,
    "channel": 0,
    "deltaTime": 120
  },
  {
    "subtype": "noteOn",
    "velocity": 0,
    "type": "channel",
    "noteNumber": 83,
    "channel": 0,
    "deltaTime": 120
  },
  {
    "subtype": "noteOn",
    "velocity": 0,
    "type": "channel",
    "noteNumber": 82,
    "channel": 0,
    "deltaTime": 120
  },
  {
    "subtype": "noteOn",
    "velocity": 0,
    "type": "channel",
    "noteNumber": 82,
    "channel": 0,
    "deltaTime": 120
  },
  {
    "subtype": "noteOn",
    "velocity": 0,
    "type": "channel",
    "noteNumber": 80,
    "channel": 0,
    "deltaTime": 120
  },
  {
    "subtype": "noteOn",
    "velocity": 0,
    "type": "channel",
    "noteNumber": 80,
    "channel": 0,
    "deltaTime": 120
  },
  {
    "subtype": "noteOn",
    "velocity": 0,
    "type": "channel",
    "noteNumber": 79,
    "channel": 0,
    "deltaTime": 120
  },
  {
    "subtype": "noteOn",
    "velocity": 0,
    "type": "channel",
    "noteNumber": 66,
    "channel": 0,
    "deltaTime": 120
  },
  {
    "subtype": "noteOff",
    "velocity": 0,
    "type": "channel",
    "noteNumber": 66,
    "channel": 0,
    "deltaTime": 0
  },
  {
    "subtype": "noteOn",
    "velocity": 0,
    "type": "channel",
    "noteNumber": 66,
    "channel": 0,
    "deltaTime": 120
  },
  {
    "subtype": "noteOff",
    "velocity": 0,
    "type": "channel",
    "noteNumber": 66,
    "channel": 0,
    "deltaTime": 0
  },
  {
    "subtype": "noteOn",
    "velocity": 0,
    "type": "channel",
    "noteNumber": 75,
    "channel": 0,
    "deltaTime": 120
  },
  {
    "subtype": "noteOn",
    "velocity": 0,
    "type": "channel",
    "noteNumber": 82,
    "channel": 0,
    "deltaTime": 120
  },
  {
    "subtype": "noteOn",
    "velocity": 0,
    "type": "channel",
    "noteNumber": 82,
    "channel": 0,
    "deltaTime": 120
  },
  {
    "subtype": "noteOff",
    "velocity": 0,
    "type": "channel",
    "noteNumber": 82,
    "channel": 0,
    "deltaTime": 0
  },
  {
    "subtype": "noteOn",
    "velocity": 0,
    "type": "channel",
    "noteNumber": 68,
    "channel": 0,
    "deltaTime": 120
  },
  {
    "subtype": "noteOff",
    "velocity": 0,
    "type": "channel",
    "noteNumber": 68,
    "channel": 0,
    "deltaTime": 0
  },
  {
    "subtype": "noteOn",
    "velocity": 0,
    "type": "channel",
    "noteNumber": 71,
    "channel": 0,
    "deltaTime": 120
  },
  {
    "subtype": "noteOn",
    "velocity": 0,
    "type": "channel",
    "noteNumber": 67,
    "channel": 0,
    "deltaTime": 120
  },
  {
    "subtype": "noteOn",
    "velocity": 0,
    "type": "channel",
    "noteNumber": 67,
    "channel": 0,
    "deltaTime": 120
  },
  {
    "subtype": "noteOff",
    "velocity": 0,
    "type": "channel",
    "noteNumber": 67,
    "channel": 0,
    "deltaTime": 0
  },
  {
    "subtype": "noteOn",
    "velocity": 0,
    "type": "channel",
    "noteNumber": 68,
    "channel": 0,
    "deltaTime": 120
  },
  {
    "subtype": "noteOff",
    "velocity": 0,
    "type": "channel",
    "noteNumber": 68,
    "channel": 0,
    "deltaTime": 0
  },
  {
    "subtype": "noteOn",
    "velocity": 0,
    "type": "channel",
    "noteNumber": 66,
    "channel": 0,
    "deltaTime": 120
  },
  {
    "subtype": "noteOff",
    "velocity": 0,
    "type": "channel",
    "noteNumber": 66,
    "channel": 0,
    "deltaTime": 0
  },
  {
    "subtype": "noteOn",
    "velocity": 0,
    "type": "channel",
    "noteNumber": 71,
    "channel": 0,
    "deltaTime": 120
  },
  {
    "subtype": "noteOff",
    "velocity": 0,
    "type": "channel",
    "noteNumber": 71,
    "channel": 0,
    "deltaTime": 0
  },
  {
    "subtype": "noteOn",
    "velocity": 0,
    "type": "channel",
    "noteNumber": 76,
    "channel": 0,
    "deltaTime": 120
  },
  {
    "subtype": "noteOn",
    "velocity": 0,
    "type": "channel",
    "noteNumber": 75,
    "channel": 0,
    "deltaTime": 120
  },
  {
    "subtype": "noteOn",
    "velocity": 0,
    "type": "channel",
    "noteNumber": 75,
    "channel": 0,
    "deltaTime": 120
  },
  {
    "subtype": "noteOff",
    "velocity": 0,
    "type": "channel",
    "noteNumber": 75,
    "channel": 0,
    "deltaTime": 0
  },
  {
    "subtype": "noteOn",
    "velocity": 0,
    "type": "channel",
    "noteNumber": 76,
    "channel": 0,
    "deltaTime": 120
  },
  {
    "subtype": "noteOff",
    "velocity": 0,
    "type": "channel",
    "noteNumber": 76,
    "channel": 0,
    "deltaTime": 0
  },
  {
    "subtype": "noteOn",
    "velocity": 0,
    "type": "channel",
    "noteNumber": 82,
    "channel": 0,
    "deltaTime": 120
  },
  {
    "subtype": "noteOn",
    "velocity": 0,
    "type": "channel",
    "noteNumber": 85,
    "channel": 0,
    "deltaTime": 120
  },
  {
    "subtype": "noteOn",
    "velocity": 0,
    "type": "channel",
    "noteNumber": 65,
    "channel": 0,
    "deltaTime": 120
  },
  {
    "subtype": "noteOff",
    "velocity": 0,
    "type": "channel",
    "noteNumber": 65,
    "channel": 0,
    "deltaTime": 0
  },
  {
    "subtype": "noteOn",
    "velocity": 0,
    "type": "channel",
    "noteNumber": 63,
    "channel": 0,
    "deltaTime": 120
  },
  {
    "subtype": "noteOn",
    "velocity": 0,
    "type": "channel",
    "noteNumber": 67,
    "channel": 0,
    "deltaTime": 120
  },
  {
    "subtype": "noteOff",
    "velocity": 0,
    "type": "channel",
    "noteNumber": 67,
    "channel": 0,
    "deltaTime": 0
  },
  {
    "subtype": "noteOn",
    "velocity": 0,
    "type": "channel",
    "noteNumber": 68,
    "channel": 0,
    "deltaTime": 120
  },
  {
    "subtype": "noteOn",
    "velocity": 0,
    "type": "channel",
    "noteNumber": 68,
    "channel": 0,
    "deltaTime": 120
  },
  {
    "subtype": "noteOn",
    "velocity": 0,
    "type": "channel",
    "noteNumber": 68,
    "channel": 0,
    "deltaTime": 120
  },
  {
    "subtype": "noteOn",
    "velocity": 0,
    "type": "channel",
    "noteNumber": 70,
    "channel": 0,
    "deltaTime": 120
  },
  {
    "subtype": "noteOff",
    "velocity": 0,
    "type": "channel",
    "noteNumber": 70,
    "channel": 0,
    "deltaTime": 0
  },
  {
    "subtype": "noteOn",
    "velocity": 0,
    "type": "channel",
    "noteNumber": 71,
    "channel": 0,
    "deltaTime": 120
  },
  {
    "subtype": "noteOn",
    "velocity": 0,
    "type": "channel",
    "noteNumber": 70,
    "channel": 0,
    "deltaTime": 120
  },
  {
    "subtype": "noteOn",
    "velocity": 0,
    "type": "channel",
    "noteNumber": 70,
    "channel": 0,
    "deltaTime": 120
  },
  {
    "subtype": "noteOn",
    "velocity": 0,
    "type": "channel",
    "noteNumber": 71,
    "channel": 0,
    "deltaTime": 120
  },
  {
    "subtype": "noteOn",
    "velocity": 0,
    "type": "channel",
    "noteNumber": 71,
    "channel": 0,
    "deltaTime": 120
  },
  {
    "subtype": "noteOn",
    "velocity": 0,
    "type": "channel",
    "noteNumber": 73,
    "channel": 0,
    "deltaTime": 120
  },
  {
    "subtype": "noteOn",
    "velocity": 0,
    "type": "channel",
    "noteNumber": 73,
    "channel": 0,
    "deltaTime": 120
  },
  {
    "subtype": "noteOff",
    "velocity": 0,
    "type": "channel",
    "noteNumber": 73,
    "channel": 0,
    "deltaTime": 0
  },
  {
    "subtype": "noteOn",
    "velocity": 0,
    "type": "channel",
    "noteNumber": 75,
    "channel": 0,
    "deltaTime": 120
  },
  {
    "subtype": "noteOn",
    "velocity": 0,
    "type": "channel",
    "noteNumber": 76,
    "channel": 0,
    "deltaTime": 120
  },
  {
    "subtype": "noteOn",
    "velocity": 0,
    "type": "channel",
    "noteNumber": 76,
    "channel": 0,
    "deltaTime": 120
  },
  {
    "subtype": "noteOff",
    "velocity": 0,
    "type": "channel",
    "noteNumber": 76,
    "channel": 0,
    "deltaTime": 0
  },
  {
    "subtype": "noteOn",
    "velocity": 0,
    "type": "channel",
    "noteNumber": 82,
    "channel": 0,
    "deltaTime": 120
  },
  {
    "subtype": "noteOn",
    "velocity": 0,
    "type": "channel",
    "noteNumber": 80,
    "channel": 0,
    "deltaTime": 120
  },
  {
    "subtype": "noteOn",
    "velocity": 0,
    "type": "channel",
    "noteNumber": 80,
    "channel": 0,
    "deltaTime": 120
  },
  {
    "subtype": "noteOn",
    "velocity": 0,
    "type": "channel",
    "noteNumber": 71,
    "channel": 0,
    "deltaTime": 120
  },
  {
    "subtype": "noteOn",
    "velocity": 0,
    "type": "channel",
    "noteNumber": 71,
    "channel": 0,
    "deltaTime": 120
  },
  {
    "subtype": "noteOn",
    "velocity": 0,
    "type": "channel",
    "noteNumber": 65,
    "channel": 0,
    "deltaTime": 120
  },
  {
    "subtype": "noteOn",
    "velocity": 0,
    "type": "channel",
    "noteNumber": 83,
    "channel": 0,
    "deltaTime": 120
  },
  {
    "subtype": "noteOff",
    "velocity": 0,
    "type": "channel",
    "noteNumber": 83,
    "channel": 0,
    "deltaTime": 0
  },
  {
    "subtype": "noteOn",
    "velocity": 0,
    "type": "channel",
    "noteNumber": 78,
    "channel": 0,
    "deltaTime": 120
  },
  {
    "subtype": "noteOn",
    "velocity": 0,
    "type": "channel",
    "noteNumber": 76,
    "channel": 0,
    "deltaTime": 120
  },
  {
    "subtype": "noteOn",
    "velocity": 0,
    "type": "channel",
    "noteNumber": 76,
    "channel": 0,
    "deltaTime": 120
  },
  {
    "subtype": "noteOn",
    "velocity": 0,
    "type": "channel",
    "noteNumber": 75,
    "channel": 0,
    "deltaTime": 120
  },
  {
    "subtype": "noteOn",
    "velocity": 0,
    "type": "channel",
    "noteNumber": 75,
    "channel": 0,
    "deltaTime": 120
  },
  {
    "subtype": "noteOn",
    "velocity": 0,
    "type": "channel",
    "noteNumber": 73,
    "channel": 0,
    "deltaTime": 120
  },
  {
    "subtype": "noteOn",
    "velocity": 0,
    "type": "channel",
    "noteNumber": 73,
    "channel": 0,
    "deltaTime": 120
  },
  {
    "subtype": "noteOff",
    "velocity": 0,
    "type": "channel",
    "noteNumber": 73,
    "channel": 0,
    "deltaTime": 0
  },
  {
    "subtype": "noteOn",
    "velocity": 0,
    "type": "channel",
    "noteNumber": 71,
    "channel": 0,
    "deltaTime": 120
  },
  {
    "subtype": "noteOff",
    "velocity": 0,
    "type": "channel",
    "noteNumber": 71,
    "channel": 0,
    "deltaTime": 0
  },
  {
    "subtype": "noteOn",
    "velocity": 0,
    "type": "channel",
    "noteNumber": 73,
    "channel": 0,
    "deltaTime": 120
  },
  {
    "subtype": "noteOn",
    "velocity": 0,
    "type": "channel",
    "noteNumber": 70,
    "channel": 0,
    "deltaTime": 120
  },
  {
    "subtype": "noteOn",
    "velocity": 0,
    "type": "channel",
    "noteNumber": 70,
    "channel": 0,
    "deltaTime": 120
  },
  {
    "subtype": "noteOn",
    "velocity": 0,
    "type": "channel",
    "noteNumber": 71,
    "channel": 0,
    "deltaTime": 120
  },
  {
    "subtype": "noteOn",
    "velocity": 0,
    "type": "channel",
    "noteNumber": 71,
    "channel": 0,
    "deltaTime": 120
  },
  {
    "subtype": "noteOn",
    "velocity": 0,
    "type": "channel",
    "noteNumber": 73,
    "channel": 0,
    "deltaTime": 120
  },
  {
    "subtype": "noteOn",
    "velocity": 0,
    "type": "channel",
    "noteNumber": 73,
    "channel": 0,
    "deltaTime": 120
  },
  {
    "subtype": "noteOn",
    "velocity": 0,
    "type": "channel",
    "noteNumber": 76,
    "channel": 0,
    "deltaTime": 120
  },
  {
    "subtype": "noteOff",
    "velocity": 0,
    "type": "channel",
    "noteNumber": 76,
    "channel": 0,
    "deltaTime": 0
  },
  {
    "subtype": "noteOff",
    "velocity": 0,
    "type": "channel",
    "noteNumber": 76,
    "channel": 0,
    "deltaTime": 0
  },
  {
    "subtype": "noteOn",
    "velocity": 0,
    "type": "channel",
    "noteNumber": 79,
    "channel": 0,
    "deltaTime": 120
  },
  {
    "subtype": "noteOff",
    "velocity": 0,
    "type": "channel",
    "noteNumber": 79,
    "channel": 0,
    "deltaTime": 0
  },
  {
    "subtype": "noteOn",
    "velocity": 0,
    "type": "channel",
    "noteNumber": 79,
    "channel": 0,
    "deltaTime": 120
  },
  {
    "subtype": "noteOn",
    "velocity": 0,
    "type": "channel",
    "noteNumber": 82,
    "channel": 0,
    "deltaTime": 120
  },
  {
    "subtype": "noteOn",
    "velocity": 0,
    "type": "channel",
    "noteNumber": 82,
    "channel": 0,
    "deltaTime": 120
  },
  {
    "subtype": "noteOn",
    "velocity": 0,
    "type": "channel",
    "noteNumber": 82,
    "channel": 0,
    "deltaTime": 120
  },
  {
    "subtype": "noteOn",
    "velocity": 0,
    "type": "channel",
    "noteNumber": 82,
    "channel": 0,
    "deltaTime": 120
  },
  {
    "subtype": "noteOff",
    "velocity": 0,
    "type": "channel",
    "noteNumber": 82,
    "channel": 0,
    "deltaTime": 0
  },
  {
    "subtype": "noteOn",
    "velocity": 0,
    "type": "channel",
    "noteNumber": 73,
    "channel": 0,
    "deltaTime": 120
  },
  {
    "subtype": "noteOff",
    "velocity": 0,
    "type": "channel",
    "noteNumber": 73,
    "channel": 0,
    "deltaTime": 0
  },
  {
    "subtype": "noteOn",
    "velocity": 0,
    "type": "channel",
    "noteNumber": 82,
    "channel": 0,
    "deltaTime": 120
  },
  {
    "subtype": "noteOff",
    "velocity": 0,
    "type": "channel",
    "noteNumber": 82,
    "channel": 0,
    "deltaTime": 0
  },
  {
    "subtype": "noteOn",
    "velocity": 0,
    "type": "channel",
    "noteNumber": 82,
    "channel": 0,
    "deltaTime": 120
  },
  {
    "subtype": "noteOn",
    "velocity": 0,
    "type": "channel",
    "noteNumber": 82,
    "channel": 0,
    "deltaTime": 120
  },
  {
    "subtype": "noteOn",
    "velocity": 0,
    "type": "channel",
    "noteNumber": 82,
    "channel": 0,
    "deltaTime": 120
  },
  {
    "subtype": "noteOn",
    "velocity": 0,
    "type": "channel",
    "noteNumber": 80,
    "channel": 0,
    "deltaTime": 120
  },
  {
    "subtype": "noteOn",
    "velocity": 0,
    "type": "channel",
    "noteNumber": 80,
    "channel": 0,
    "deltaTime": 120
  },
  {
    "subtype": "noteOn",
    "velocity": 0,
    "type": "channel",
    "noteNumber": 79,
    "channel": 0,
    "deltaTime": 120
  },
  {
    "subtype": "noteOn",
    "velocity": 0,
    "type": "channel",
    "noteNumber": 79,
    "channel": 0,
    "deltaTime": 120
  },
  {
    "subtype": "noteOn",
    "velocity": 0,
    "type": "channel",
    "noteNumber": 80,
    "channel": 0,
    "deltaTime": 120
  },
  {
    "subtype": "noteOn",
    "velocity": 0,
    "type": "channel",
    "noteNumber": 80,
    "channel": 0,
    "deltaTime": 120
  },
  {
    "subtype": "noteOff",
    "velocity": 0,
    "type": "channel",
    "noteNumber": 80,
    "channel": 0,
    "deltaTime": 0
  },
  {
    "subtype": "noteOn",
    "velocity": 0,
    "type": "channel",
    "noteNumber": 83,
    "channel": 0,
    "deltaTime": 120
  },
  {
    "subtype": "noteOn",
    "velocity": 0,
    "type": "channel",
    "noteNumber": 73,
    "channel": 0,
    "deltaTime": 120
  },
  {
    "subtype": "noteOn",
    "velocity": 0,
    "type": "channel",
    "noteNumber": 76,
    "channel": 0,
    "deltaTime": 120
  },
  {
    "subtype": "noteOff",
    "velocity": 0,
    "type": "channel",
    "noteNumber": 76,
    "channel": 0,
    "deltaTime": 0
  },
  {
    "subtype": "noteOn",
    "velocity": 0,
    "type": "channel",
    "noteNumber": 75,
    "channel": 0,
    "deltaTime": 120
  },
  {
    "subtype": "noteOn",
    "velocity": 0,
    "type": "channel",
    "noteNumber": 73,
    "channel": 0,
    "deltaTime": 120
  },
  {
    "subtype": "noteOn",
    "velocity": 0,
    "type": "channel",
    "noteNumber": 73,
    "channel": 0,
    "deltaTime": 120
  },
  {
    "subtype": "noteOff",
    "velocity": 0,
    "type": "channel",
    "noteNumber": 73,
    "channel": 0,
    "deltaTime": 0
  },
  {
    "subtype": "noteOn",
    "velocity": 0,
    "type": "channel",
    "noteNumber": 71,
    "channel": 0,
    "deltaTime": 120
  },
  {
    "subtype": "noteOn",
    "velocity": 0,
    "type": "channel",
    "noteNumber": 70,
    "channel": 0,
    "deltaTime": 120
  },
  {
    "subtype": "noteOn",
    "velocity": 0,
    "type": "channel",
    "noteNumber": 70,
    "channel": 0,
    "deltaTime": 120
  },
  {
    "subtype": "noteOn",
    "velocity": 0,
    "type": "channel",
    "noteNumber": 68,
    "channel": 0,
    "deltaTime": 120
  },
  {
    "subtype": "noteOn",
    "velocity": 0,
    "type": "channel",
    "noteNumber": 68,
    "channel": 0,
    "deltaTime": 120
  },
  {
    "subtype": "noteOn",
    "velocity": 0,
    "type": "channel",
    "noteNumber": 71,
    "channel": 0,
    "deltaTime": 120
  },
  {
    "subtype": "noteOn",
    "velocity": 0,
    "type": "channel",
    "noteNumber": 71,
    "channel": 0,
    "deltaTime": 120
  },
  {
    "subtype": "noteOff",
    "velocity": 0,
    "type": "channel",
    "noteNumber": 71,
    "channel": 0,
    "deltaTime": 0
  },
  {
    "subtype": "noteOn",
    "velocity": 0,
    "type": "channel",
    "noteNumber": 70,
    "channel": 0,
    "deltaTime": 120
  },
  {
    "subtype": "noteOn",
    "velocity": 0,
    "type": "channel",
    "noteNumber": 67,
    "channel": 0,
    "deltaTime": 120
  },
  {
    "subtype": "noteOn",
    "velocity": 0,
    "type": "channel",
    "noteNumber": 68,
    "channel": 0,
    "deltaTime": 120
  },
  {
    "subtype": "noteOff",
    "velocity": 0,
    "type": "channel",
    "noteNumber": 68,
    "channel": 0,
    "deltaTime": 0
  },
  {
    "subtype": "noteOn",
    "velocity": 0,
    "type": "channel",
    "noteNumber": 64,
    "channel": 0,
    "deltaTime": 120
  },
  {
    "subtype": "noteOn",
    "velocity": 0,
    "type": "channel",
    "noteNumber": 68,
    "channel": 0,
    "deltaTime": 120
  },
  {
    "subtype": "noteOn",
    "velocity": 0,
    "type": "channel",
    "noteNumber": 68,
    "channel": 0,
    "deltaTime": 120
  },
  {
    "subtype": "noteOff",
    "velocity": 0,
    "type": "channel",
    "noteNumber": 68,
    "channel": 0,
    "deltaTime": 0
  },
  {
    "subtype": "noteOff",
    "velocity": 0,
    "type": "channel",
    "noteNumber": 68,
    "channel": 0,
    "deltaTime": 0
  },
  {
    "subtype": "noteOff",
    "velocity": 0,
    "type": "channel",
    "noteNumber": 68,
    "channel": 0,
    "deltaTime": 0
  },
  {
    "subtype": "noteOn",
    "velocity": 0,
    "type": "channel",
    "noteNumber": 73,
    "channel": 0,
    "deltaTime": 120
  },
  {
    "subtype": "noteOff",
    "velocity": 0,
    "type": "channel",
    "noteNumber": 73,
    "channel": 0,
    "deltaTime": 0
  },
  {
    "subtype": "noteOn",
    "velocity": 0,
    "type": "channel",
    "noteNumber": 66,
    "channel": 0,
    "deltaTime": 120
  },
  {
    "subtype": "noteOff",
    "velocity": 0,
    "type": "channel",
    "noteNumber": 66,
    "channel": 0,
    "deltaTime": 0
  },
  {
    "subtype": "noteOn",
    "velocity": 0,
    "type": "channel",
    "noteNumber": 68,
    "channel": 0,
    "deltaTime": 120
  },
  {
    "subtype": "noteOn",
    "velocity": 0,
    "type": "channel",
    "noteNumber": 71,
    "channel": 0,
    "deltaTime": 120
  },
  {
    "subtype": "noteOn",
    "velocity": 0,
    "type": "channel",
    "noteNumber": 71,
    "channel": 0,
    "deltaTime": 120
  },
  {
    "subtype": "noteOn",
    "velocity": 0,
    "type": "channel",
    "noteNumber": 70,
    "channel": 0,
    "deltaTime": 120
  },
  {
    "subtype": "noteOn",
    "velocity": 0,
    "type": "channel",
    "noteNumber": 70,
    "channel": 0,
    "deltaTime": 120
  },
  {
    "subtype": "noteOn",
    "velocity": 0,
    "type": "channel",
    "noteNumber": 68,
    "channel": 0,
    "deltaTime": 120
  },
  {
    "subtype": "noteOn",
    "velocity": 0,
    "type": "channel",
    "noteNumber": 68,
    "channel": 0,
    "deltaTime": 120
  },
  {
    "subtype": "noteOff",
    "velocity": 0,
    "type": "channel",
    "noteNumber": 68,
    "channel": 0,
    "deltaTime": 0
  },
  {
    "subtype": "noteOn",
    "velocity": 0,
    "type": "channel",
    "noteNumber": 70,
    "channel": 0,
    "deltaTime": 120
  },
  {
    "subtype": "noteOff",
    "velocity": 0,
    "type": "channel",
    "noteNumber": 70,
    "channel": 0,
    "deltaTime": 0
  },
  {
    "subtype": "noteOn",
    "velocity": 0,
    "type": "channel",
    "noteNumber": 75,
    "channel": 0,
    "deltaTime": 120
  },
  {
    "subtype": "noteOff",
    "velocity": 0,
    "type": "channel",
    "noteNumber": 75,
    "channel": 0,
    "deltaTime": 0
  },
  {
    "subtype": "noteOn",
    "velocity": 0,
    "type": "channel",
    "noteNumber": 82,
    "channel": 0,
    "deltaTime": 120
  },
  {
    "subtype": "noteOn",
    "velocity": 0,
    "type": "channel",
    "noteNumber": 75,
    "channel": 0,
    "deltaTime": 120
  },
  {
    "subtype": "noteOn",
    "velocity": 0,
    "type": "channel",
    "noteNumber": 75,
    "channel": 0,
    "deltaTime": 120
  },
  {
    "subtype": "noteOn",
    "velocity": 0,
    "type": "channel",
    "noteNumber": 76,
    "channel": 0,
    "deltaTime": 120
  },
  {
    "subtype": "noteOn",
    "velocity": 0,
    "type": "channel",
    "noteNumber": 76,
    "channel": 0,
    "deltaTime": 120
  },
  {
    "subtype": "noteOn",
    "velocity": 0,
    "type": "channel",
    "noteNumber": 80,
    "channel": 0,
    "deltaTime": 120
  },
  {
    "subtype": "noteOn",
    "velocity": 0,
    "type": "channel",
    "noteNumber": 80,
    "channel": 0,
    "deltaTime": 120
  },
  {
    "subtype": "noteOn",
    "velocity": 0,
    "type": "channel",
    "noteNumber": 75,
    "channel": 0,
    "deltaTime": 120
  },
  {
    "subtype": "noteOn",
    "velocity": 0,
    "type": "channel",
    "noteNumber": 75,
    "channel": 0,
    "deltaTime": 120
  },
  {
    "subtype": "noteOn",
    "velocity": 0,
    "type": "channel",
    "noteNumber": 73,
    "channel": 0,
    "deltaTime": 120
  },
  {
    "subtype": "noteOn",
    "velocity": 0,
    "type": "channel",
    "noteNumber": 73,
    "channel": 0,
    "deltaTime": 120
  },
  {
    "subtype": "noteOn",
    "velocity": 0,
    "type": "channel",
    "noteNumber": 71,
    "channel": 0,
    "deltaTime": 120
  },
  {
    "subtype": "noteOn",
    "velocity": 0,
    "type": "channel",
    "noteNumber": 71,
    "channel": 0,
    "deltaTime": 120
  },
  {
    "subtype": "noteOff",
    "velocity": 0,
    "type": "channel",
    "noteNumber": 71,
    "channel": 0,
    "deltaTime": 0
  },
  {
    "subtype": "noteOn",
    "velocity": 0,
    "type": "channel",
    "noteNumber": 75,
    "channel": 0,
    "deltaTime": 120
  },
  {
    "subtype": "noteOff",
    "velocity": 0,
    "type": "channel",
    "noteNumber": 75,
    "channel": 0,
    "deltaTime": 0
  },
  {
    "subtype": "noteOn",
    "velocity": 0,
    "type": "channel",
    "noteNumber": 79,
    "channel": 0,
    "deltaTime": 120
  },
  {
    "subtype": "noteOn",
    "velocity": 0,
    "type": "channel",
    "noteNumber": 80,
    "channel": 0,
    "deltaTime": 120
  },
  {
    "subtype": "noteOn",
    "velocity": 0,
    "type": "channel",
    "noteNumber": 80,
    "channel": 0,
    "deltaTime": 120
  },
  {
    "subtype": "noteOff",
    "velocity": 0,
    "type": "channel",
    "noteNumber": 80,
    "channel": 0,
    "deltaTime": 0
  },
  {
    "subtype": "noteOn",
    "velocity": 0,
    "type": "channel",
    "noteNumber": 78,
    "channel": 0,
    "deltaTime": 120
  },
  {
    "subtype": "noteOff",
    "velocity": 0,
    "type": "channel",
    "noteNumber": 78,
    "channel": 0,
    "deltaTime": 0
  },
  {
    "subtype": "noteOn",
    "velocity": 0,
    "type": "channel",
    "noteNumber": 82,
    "channel": 0,
    "deltaTime": 120
  },
  {
    "subtype": "noteOff",
    "velocity": 0,
    "type": "channel",
    "noteNumber": 82,
    "channel": 0,
    "deltaTime": 0
  },
  {
    "subtype": "noteOn",
    "velocity": 0,
    "type": "channel",
    "noteNumber": 79,
    "channel": 0,
    "deltaTime": 120
  },
  {
    "subtype": "noteOn",
    "velocity": 0,
    "type": "channel",
    "noteNumber": 79,
    "channel": 0,
    "deltaTime": 120
  },
  {
    "subtype": "noteOn",
    "velocity": 0,
    "type": "channel",
    "noteNumber": 79,
    "channel": 0,
    "deltaTime": 120
  },
  {
    "subtype": "noteOn",
    "velocity": 0,
    "type": "channel",
    "noteNumber": 80,
    "channel": 0,
    "deltaTime": 120
  },
  {
    "subtype": "noteOn",
    "velocity": 0,
    "type": "channel",
    "noteNumber": 80,
    "channel": 0,
    "deltaTime": 120
  },
  {
    "subtype": "noteOff",
    "velocity": 0,
    "type": "channel",
    "noteNumber": 80,
    "channel": 0,
    "deltaTime": 0
  },
  {
    "subtype": "noteOn",
    "velocity": 0,
    "type": "channel",
    "noteNumber": 83,
    "channel": 0,
    "deltaTime": 120
  },
  {
    "subtype": "noteOff",
    "velocity": 0,
    "type": "channel",
    "noteNumber": 83,
    "channel": 0,
    "deltaTime": 0
  },
  {
    "subtype": "noteOn",
    "velocity": 0,
    "type": "channel",
    "noteNumber": 83,
    "channel": 0,
    "deltaTime": 120
  },
  {
    "subtype": "noteOff",
    "velocity": 0,
    "type": "channel",
    "noteNumber": 83,
    "channel": 0,
    "deltaTime": 0
  },
  {
    "subtype": "noteOn",
    "velocity": 0,
    "type": "channel",
    "noteNumber": 75,
    "channel": 0,
    "deltaTime": 120
  },
  {
    "subtype": "noteOff",
    "velocity": 0,
    "type": "channel",
    "noteNumber": 75,
    "channel": 0,
    "deltaTime": 0
  },
  {
    "subtype": "noteOn",
    "velocity": 0,
    "type": "channel",
    "noteNumber": 83,
    "channel": 0,
    "deltaTime": 120
  },
  {
    "subtype": "noteOff",
    "velocity": 0,
    "type": "channel",
    "noteNumber": 83,
    "channel": 0,
    "deltaTime": 0
  },
  {
    "subtype": "noteOn",
    "velocity": 0,
    "type": "channel",
    "noteNumber": 71,
    "channel": 0,
    "deltaTime": 120
  },
  {
    "subtype": "noteOff",
    "velocity": 0,
    "type": "channel",
    "noteNumber": 71,
    "channel": 0,
    "deltaTime": 0
  },
  {
    "subtype": "noteOn",
    "velocity": 0,
    "type": "channel",
    "noteNumber": 76,
    "channel": 0,
    "deltaTime": 120
  },
  {
    "subtype": "noteOff",
    "velocity": 0,
    "type": "channel",
    "noteNumber": 76,
    "channel": 0,
    "deltaTime": 0
  },
  {
    "subtype": "noteOn",
    "velocity": 0,
    "type": "channel",
    "noteNumber": 77,
    "channel": 0,
    "deltaTime": 120
  },
  {
    "subtype": "noteOff",
    "velocity": 0,
    "type": "channel",
    "noteNumber": 77,
    "channel": 0,
    "deltaTime": 0
  },
  {
    "subtype": "noteOn",
    "velocity": 0,
    "type": "channel",
    "noteNumber": 68,
    "channel": 0,
    "deltaTime": 120
  },
  {
    "subtype": "noteOff",
    "velocity": 0,
    "type": "channel",
    "noteNumber": 68,
    "channel": 0,
    "deltaTime": 0
  },
  {
    "subtype": "noteOn",
    "velocity": 0,
    "type": "channel",
    "noteNumber": 68,
    "channel": 0,
    "deltaTime": 120
  },
  {
    "subtype": "noteOff",
    "velocity": 0,
    "type": "channel",
    "noteNumber": 68,
    "channel": 0,
    "deltaTime": 0
  },
  {
    "subtype": "noteOff",
    "velocity": 0,
    "type": "channel",
    "noteNumber": 68,
    "channel": 0,
    "deltaTime": 0
  },
  {
    "subtype": "noteOff",
    "velocity": 0,
    "type": "channel",
    "noteNumber": 68,
    "channel": 0,
    "deltaTime": 0
  },
  {
    "subtype": "noteOn",
    "velocity": 0,
    "type": "channel",
    "noteNumber": 74,
    "channel": 0,
    "deltaTime": 120
  },
  {
    "subtype": "noteOn",
    "velocity": 0,
    "type": "channel",
    "noteNumber": 77,
    "channel": 0,
    "deltaTime": 120
  },
  {
    "subtype": "noteOn",
    "velocity": 0,
    "type": "channel",
    "noteNumber": 77,
    "channel": 0,
    "deltaTime": 120
  },
  {
    "subtype": "noteOff",
    "velocity": 0,
    "type": "channel",
    "noteNumber": 77,
    "channel": 0,
    "deltaTime": 0
  },
  {
    "subtype": "noteOff",
    "velocity": 0,
    "type": "channel",
    "noteNumber": 77,
    "channel": 0,
    "deltaTime": 0
  },
  {
    "subtype": "noteOn",
    "velocity": 0,
    "type": "channel",
    "noteNumber": 80,
    "channel": 0,
    "deltaTime": 120
  },
  {
    "subtype": "noteOn",
    "velocity": 0,
    "type": "channel",
    "noteNumber": 82,
    "channel": 0,
    "deltaTime": 120
  },
  {
    "subtype": "noteOff",
    "velocity": 0,
    "type": "channel",
    "noteNumber": 82,
    "channel": 0,
    "deltaTime": 0
  },
  {
    "subtype": "noteOn",
    "velocity": 0,
    "type": "channel",
    "noteNumber": 77,
    "channel": 0,
    "deltaTime": 120
  },
  {
    "subtype": "noteOn",
    "velocity": 0,
    "type": "channel",
    "noteNumber": 79,
    "channel": 0,
    "deltaTime": 120
  },
  {
    "subtype": "noteOn",
    "velocity": 0,
    "type": "channel",
    "noteNumber": 79,
    "channel": 0,
    "deltaTime": 120
  },
  {
    "subtype": "noteOn",
    "velocity": 0,
    "type": "channel",
    "noteNumber": 80,
    "channel": 0,
    "deltaTime": 120
  },
  {
    "subtype": "noteOn",
    "velocity": 0,
    "type": "channel",
    "noteNumber": 80,
    "channel": 0,
    "deltaTime": 120
  },
  {
    "subtype": "noteOff",
    "velocity": 0,
    "type": "channel",
    "noteNumber": 80,
    "channel": 0,
    "deltaTime": 0
  },
  {
    "subtype": "noteOn",
    "velocity": 0,
    "type": "channel",
    "noteNumber": 77,
    "channel": 0,
    "deltaTime": 120
  },
  {
    "subtype": "noteOn",
    "velocity": 0,
    "type": "channel",
    "noteNumber": 72,
    "channel": 0,
    "deltaTime": 120
  },
  {
    "subtype": "noteOff",
    "velocity": 0,
    "type": "channel",
    "noteNumber": 72,
    "channel": 0,
    "deltaTime": 0
  },
  {
    "subtype": "noteOff",
    "velocity": 0,
    "type": "channel",
    "noteNumber": 72,
    "channel": 0,
    "deltaTime": 0
  },
  {
    "subtype": "noteOn",
    "velocity": 0,
    "type": "channel",
    "noteNumber": 76,
    "channel": 0,
    "deltaTime": 120
  },
  {
    "subtype": "noteOn",
    "velocity": 0,
    "type": "channel",
    "noteNumber": 75,
    "channel": 0,
    "deltaTime": 120
  },
  {
    "subtype": "noteOn",
    "velocity": 0,
    "type": "channel",
    "noteNumber": 75,
    "channel": 0,
    "deltaTime": 120
  },
  {
    "subtype": "noteOn",
    "velocity": 0,
    "type": "channel",
    "noteNumber": 75,
    "channel": 0,
    "deltaTime": 120
  },
  {
    "subtype": "noteOn",
    "velocity": 0,
    "type": "channel",
    "noteNumber": 75,
    "channel": 0,
    "deltaTime": 120
  },
  {
    "subtype": "noteOff",
    "velocity": 0,
    "type": "channel",
    "noteNumber": 75,
    "channel": 0,
    "deltaTime": 0
  },
  {
    "subtype": "noteOn",
    "velocity": 0,
    "type": "channel",
    "noteNumber": 82,
    "channel": 0,
    "deltaTime": 120
  },
  {
    "subtype": "noteOn",
    "velocity": 0,
    "type": "channel",
    "noteNumber": 80,
    "channel": 0,
    "deltaTime": 120
  },
  {
    "subtype": "noteOn",
    "velocity": 0,
    "type": "channel",
    "noteNumber": 80,
    "channel": 0,
    "deltaTime": 120
  },
  {
    "subtype": "noteOn",
    "velocity": 0,
    "type": "channel",
    "noteNumber": 82,
    "channel": 0,
    "deltaTime": 120
  },
  {
    "subtype": "noteOn",
    "velocity": 0,
    "type": "channel",
    "noteNumber": 82,
    "channel": 0,
    "deltaTime": 120
  },
  {
    "subtype": "noteOn",
    "velocity": 0,
    "type": "channel",
    "noteNumber": 80,
    "channel": 0,
    "deltaTime": 120
  },
  {
    "subtype": "noteOn",
    "velocity": 0,
    "type": "channel",
    "noteNumber": 80,
    "channel": 0,
    "deltaTime": 120
  },
  {
    "subtype": "noteOn",
    "velocity": 0,
    "type": "channel",
    "noteNumber": 78,
    "channel": 0,
    "deltaTime": 120
  },
  {
    "subtype": "noteOn",
    "velocity": 0,
    "type": "channel",
    "noteNumber": 78,
    "channel": 0,
    "deltaTime": 120
  },
  {
    "subtype": "noteOn",
    "velocity": 0,
    "type": "channel",
    "noteNumber": 76,
    "channel": 0,
    "deltaTime": 120
  },
  {
    "subtype": "noteOn",
    "velocity": 0,
    "type": "channel",
    "noteNumber": 76,
    "channel": 0,
    "deltaTime": 120
  },
  {
    "subtype": "noteOn",
    "velocity": 0,
    "type": "channel",
    "noteNumber": 75,
    "channel": 0,
    "deltaTime": 120
  },
  {
    "subtype": "noteOn",
    "velocity": 0,
    "type": "channel",
    "noteNumber": 75,
    "channel": 0,
    "deltaTime": 120
  },
  {
    "subtype": "noteOn",
    "velocity": 0,
    "type": "channel",
    "noteNumber": 76,
    "channel": 0,
    "deltaTime": 120
  },
  {
    "subtype": "noteOn",
    "velocity": 0,
    "type": "channel",
    "noteNumber": 76,
    "channel": 0,
    "deltaTime": 120
  },
  {
    "subtype": "noteOn",
    "velocity": 0,
    "type": "channel",
    "noteNumber": 82,
    "channel": 0,
    "deltaTime": 120
  },
  {
    "subtype": "noteOn",
    "velocity": 0,
    "type": "channel",
    "noteNumber": 82,
    "channel": 0,
    "deltaTime": 120
  },
  {
    "subtype": "noteOff",
    "velocity": 0,
    "type": "channel",
    "noteNumber": 82,
    "channel": 0,
    "deltaTime": 0
  },
  {
    "subtype": "noteOn",
    "velocity": 0,
    "type": "channel",
    "noteNumber": 83,
    "channel": 0,
    "deltaTime": 120
  },
  {
    "subtype": "noteOn",
    "velocity": 0,
    "type": "channel",
    "noteNumber": 83,
    "channel": 0,
    "deltaTime": 120
  },
  {
    "subtype": "noteOn",
    "velocity": 0,
    "type": "channel",
    "noteNumber": 85,
    "channel": 0,
    "deltaTime": 120
  },
  {
    "subtype": "noteOn",
    "velocity": 0,
    "type": "channel",
    "noteNumber": 85,
    "channel": 0,
    "deltaTime": 120
  },
  {
    "subtype": "noteOn",
    "velocity": 0,
    "type": "channel",
    "noteNumber": 85,
    "channel": 0,
    "deltaTime": 120
  },
  {
    "subtype": "noteOn",
    "velocity": 0,
    "type": "channel",
    "noteNumber": 85,
    "channel": 0,
    "deltaTime": 120
  },
  {
    "subtype": "noteOn",
    "velocity": 0,
    "type": "channel",
    "noteNumber": 82,
    "channel": 0,
    "deltaTime": 120
  },
  {
    "subtype": "noteOn",
    "velocity": 0,
    "type": "channel",
    "noteNumber": 83,
    "channel": 0,
    "deltaTime": 120
  },
  {
    "subtype": "noteOn",
    "velocity": 0,
    "type": "channel",
    "noteNumber": 83,
    "channel": 0,
    "deltaTime": 120
  },
  {
    "subtype": "noteOn",
    "velocity": 0,
    "type": "channel",
    "noteNumber": 87,
    "channel": 0,
    "deltaTime": 120
  },
  {
    "subtype": "noteOn",
    "velocity": 0,
    "type": "channel",
    "noteNumber": 85,
    "channel": 0,
    "deltaTime": 120
  },
  {
    "subtype": "noteOn",
    "velocity": 0,
    "type": "channel",
    "noteNumber": 80,
    "channel": 0,
    "deltaTime": 120
  },
  {
    "subtype": "noteOn",
    "velocity": 0,
    "type": "channel",
    "noteNumber": 80,
    "channel": 0,
    "deltaTime": 120
  },
  {
    "subtype": "noteOn",
    "velocity": 0,
    "type": "channel",
    "noteNumber": 78,
    "channel": 0,
    "deltaTime": 120
  },
  {
    "subtype": "noteOn",
    "velocity": 0,
    "type": "channel",
    "noteNumber": 78,
    "channel": 0,
    "deltaTime": 120
  },
  {
    "subtype": "noteOn",
    "velocity": 0,
    "type": "channel",
    "noteNumber": 85,
    "channel": 0,
    "deltaTime": 120
  },
  {
    "subtype": "noteOn",
    "velocity": 0,
    "type": "channel",
    "noteNumber": 85,
    "channel": 0,
    "deltaTime": 120
  },
  {
    "subtype": "noteOff",
    "velocity": 0,
    "type": "channel",
    "noteNumber": 85,
    "channel": 0,
    "deltaTime": 0
  },
  {
    "subtype": "noteOn",
    "velocity": 0,
    "type": "channel",
    "noteNumber": 73,
    "channel": 0,
    "deltaTime": 120
  },
  {
    "subtype": "noteOff",
    "velocity": 0,
    "type": "channel",
    "noteNumber": 73,
    "channel": 0,
    "deltaTime": 0
  },
  {
    "subtype": "noteOn",
    "velocity": 0,
    "type": "channel",
    "noteNumber": 73,
    "channel": 0,
    "deltaTime": 120
  },
  {
    "subtype": "noteOn",
    "velocity": 0,
    "type": "channel",
    "noteNumber": 73,
    "channel": 0,
    "deltaTime": 120
  },
  {
    "subtype": "noteOn",
    "velocity": 0,
    "type": "channel",
    "noteNumber": 73,
    "channel": 0,
    "deltaTime": 120
  },
  {
    "subtype": "noteOff",
    "velocity": 0,
    "type": "channel",
    "noteNumber": 73,
    "channel": 0,
    "deltaTime": 0
  },
  {
    "subtype": "noteOn",
    "velocity": 0,
    "type": "channel",
    "noteNumber": 75,
    "channel": 0,
    "deltaTime": 120
  },
  {
    "subtype": "noteOn",
    "velocity": 0,
    "type": "channel",
    "noteNumber": 73,
    "channel": 0,
    "deltaTime": 120
  },
  {
    "subtype": "noteOn",
    "velocity": 0,
    "type": "channel",
    "noteNumber": 82,
    "channel": 0,
    "deltaTime": 120
  },
  {
    "subtype": "noteOff",
    "velocity": 0,
    "type": "channel",
    "noteNumber": 82,
    "channel": 0,
    "deltaTime": 0
  },
  {
    "subtype": "noteOn",
    "velocity": 0,
    "type": "channel",
    "noteNumber": 76,
    "channel": 0,
    "deltaTime": 120
  },
  {
    "subtype": "noteOn",
    "velocity": 0,
    "type": "channel",
    "noteNumber": 73,
    "channel": 0,
    "deltaTime": 120
  },
  {
    "subtype": "noteOn",
    "velocity": 0,
    "type": "channel",
    "noteNumber": 73,
    "channel": 0,
    "deltaTime": 120
  },
  {
    "subtype": "noteOff",
    "velocity": 0,
    "type": "channel",
    "noteNumber": 73,
    "channel": 0,
    "deltaTime": 0
  },
  {
    "subtype": "noteOn",
    "velocity": 0,
    "type": "channel",
    "noteNumber": 70,
    "channel": 0,
    "deltaTime": 120
  },
  {
    "subtype": "noteOff",
    "velocity": 0,
    "type": "channel",
    "noteNumber": 70,
    "channel": 0,
    "deltaTime": 0
  },
  {
    "subtype": "noteOn",
    "velocity": 0,
    "type": "channel",
    "noteNumber": 76,
    "channel": 0,
    "deltaTime": 120
  },
  {
    "subtype": "noteOn",
    "velocity": 0,
    "type": "channel",
    "noteNumber": 82,
    "channel": 0,
    "deltaTime": 120
  },
  {
    "subtype": "noteOn",
    "velocity": 0,
    "type": "channel",
    "noteNumber": 82,
    "channel": 0,
    "deltaTime": 120
  },
  {
    "subtype": "noteOn",
    "velocity": 0,
    "type": "channel",
    "noteNumber": 83,
    "channel": 0,
    "deltaTime": 120
  },
  {
    "subtype": "noteOff",
    "velocity": 0,
    "type": "channel",
    "noteNumber": 83,
    "channel": 0,
    "deltaTime": 0
  },
  {
    "subtype": "noteOn",
    "velocity": 0,
    "type": "channel",
    "noteNumber": 85,
    "channel": 0,
    "deltaTime": 120
  },
  {
    "subtype": "noteOn",
    "velocity": 0,
    "type": "channel",
    "noteNumber": 85,
    "channel": 0,
    "deltaTime": 120
  },
  {
    "subtype": "noteOn",
    "velocity": 0,
    "type": "channel",
    "noteNumber": 83,
    "channel": 0,
    "deltaTime": 120
  },
  {
    "subtype": "noteOn",
    "velocity": 0,
    "type": "channel",
    "noteNumber": 83,
    "channel": 0,
    "deltaTime": 120
  },
  {
    "subtype": "noteOn",
    "velocity": 0,
    "type": "channel",
    "noteNumber": 83,
    "channel": 0,
    "deltaTime": 120
  },
  {
    "subtype": "noteOn",
    "velocity": 0,
    "type": "channel",
    "noteNumber": 85,
    "channel": 0,
    "deltaTime": 120
  },
  {
    "subtype": "noteOn",
    "velocity": 0,
    "type": "channel",
    "noteNumber": 85,
    "channel": 0,
    "deltaTime": 120
  },
  {
    "subtype": "noteOn",
    "velocity": 0,
    "type": "channel",
    "noteNumber": 85,
    "channel": 0,
    "deltaTime": 120
  },
  {
    "subtype": "noteOn",
    "velocity": 0,
    "type": "channel",
    "noteNumber": 85,
    "channel": 0,
    "deltaTime": 120
  },
  {
    "subtype": "noteOn",
    "velocity": 0,
    "type": "channel",
    "noteNumber": 85,
    "channel": 0,
    "deltaTime": 120
  },
  {
    "subtype": "noteOn",
    "velocity": 0,
    "type": "channel",
    "noteNumber": 83,
    "channel": 0,
    "deltaTime": 120
  },
  {
    "subtype": "noteOn",
    "velocity": 0,
    "type": "channel",
    "noteNumber": 83,
    "channel": 0,
    "deltaTime": 120
  },
  {
    "subtype": "noteOn",
    "velocity": 0,
    "type": "channel",
    "noteNumber": 85,
    "channel": 0,
    "deltaTime": 120
  },
  {
    "subtype": "noteOn",
    "velocity": 0,
    "type": "channel",
    "noteNumber": 85,
    "channel": 0,
    "deltaTime": 120
  },
  {
    "subtype": "noteOn",
    "velocity": 0,
    "type": "channel",
    "noteNumber": 85,
    "channel": 0,
    "deltaTime": 120
  },
  {
    "subtype": "noteOn",
    "velocity": 0,
    "type": "channel",
    "noteNumber": 83,
    "channel": 0,
    "deltaTime": 120
  },
  {
    "subtype": "noteOn",
    "velocity": 0,
    "type": "channel",
    "noteNumber": 83,
    "channel": 0,
    "deltaTime": 120
  },
  {
    "subtype": "noteOn",
    "velocity": 0,
    "type": "channel",
    "noteNumber": 87,
    "channel": 0,
    "deltaTime": 120
  },
  {
    "subtype": "noteOn",
    "velocity": 0,
    "type": "channel",
    "noteNumber": 85,
    "channel": 0,
    "deltaTime": 120
  },
  {
    "subtype": "noteOn",
    "velocity": 0,
    "type": "channel",
    "noteNumber": 85,
    "channel": 0,
    "deltaTime": 120
  },
  {
    "subtype": "noteOn",
    "velocity": 0,
    "type": "channel",
    "noteNumber": 83,
    "channel": 0,
    "deltaTime": 120
  },
  {
    "subtype": "noteOn",
    "velocity": 0,
    "type": "channel",
    "noteNumber": 83,
    "channel": 0,
    "deltaTime": 120
  },
  {
    "subtype": "noteOn",
    "velocity": 0,
    "type": "channel",
    "noteNumber": 87,
    "channel": 0,
    "deltaTime": 120
  },
  {
    "subtype": "noteOn",
    "velocity": 0,
    "type": "channel",
    "noteNumber": 85,
    "channel": 0,
    "deltaTime": 120
  },
  {
    "subtype": "noteOn",
    "velocity": 0,
    "type": "channel",
    "noteNumber": 64,
    "channel": 0,
    "deltaTime": 120
  },
  {
    "subtype": "noteOn",
    "velocity": 0,
    "type": "channel",
    "noteNumber": 73,
    "channel": 0,
    "deltaTime": 120
  },
  {
    "subtype": "noteOn",
    "velocity": 0,
    "type": "channel",
    "noteNumber": 73,
    "channel": 0,
    "deltaTime": 120
  },
  {
    "subtype": "noteOff",
    "velocity": 0,
    "type": "channel",
    "noteNumber": 73,
    "channel": 0,
    "deltaTime": 0
  },
  {
    "subtype": "noteOn",
    "velocity": 0,
    "type": "channel",
    "noteNumber": 71,
    "channel": 0,
    "deltaTime": 120
  },
  {
    "subtype": "noteOn",
    "velocity": 0,
    "type": "channel",
    "noteNumber": 73,
    "channel": 0,
    "deltaTime": 120
  },
  {
    "subtype": "noteOn",
    "velocity": 0,
    "type": "channel",
    "noteNumber": 73,
    "channel": 0,
    "deltaTime": 120
  },
  {
    "subtype": "noteOn",
    "velocity": 0,
    "type": "channel",
    "noteNumber": 75,
    "channel": 0,
    "deltaTime": 120
  },
  {
    "subtype": "noteOn",
    "velocity": 0,
    "type": "channel",
    "noteNumber": 75,
    "channel": 0,
    "deltaTime": 120
  },
  {
    "subtype": "noteOff",
    "velocity": 0,
    "type": "channel",
    "noteNumber": 75,
    "channel": 0,
    "deltaTime": 0
  },
  {
    "subtype": "noteOn",
    "velocity": 0,
    "type": "channel",
    "noteNumber": 79,
    "channel": 0,
    "deltaTime": 120
  },
  {
    "subtype": "noteOn",
    "velocity": 0,
    "type": "channel",
    "noteNumber": 75,
    "channel": 0,
    "deltaTime": 120
  },
  {
    "subtype": "noteOn",
    "velocity": 0,
    "type": "channel",
    "noteNumber": 75,
    "channel": 0,
    "deltaTime": 120
  },
  {
    "subtype": "noteOn",
    "velocity": 0,
    "type": "channel",
    "noteNumber": 73,
    "channel": 0,
    "deltaTime": 120
  },
  {
    "subtype": "noteOn",
    "velocity": 0,
    "type": "channel",
    "noteNumber": 73,
    "channel": 0,
    "deltaTime": 120
  },
  {
    "subtype": "noteOn",
    "velocity": 0,
    "type": "channel",
    "noteNumber": 71,
    "channel": 0,
    "deltaTime": 120
  },
  {
    "subtype": "noteOn",
    "velocity": 0,
    "type": "channel",
    "noteNumber": 71,
    "channel": 0,
    "deltaTime": 120
  },
  {
    "subtype": "noteOn",
    "velocity": 0,
    "type": "channel",
    "noteNumber": 70,
    "channel": 0,
    "deltaTime": 120
  },
  {
    "subtype": "noteOn",
    "velocity": 0,
    "type": "channel",
    "noteNumber": 70,
    "channel": 0,
    "deltaTime": 120
  },
  {
    "subtype": "noteOn",
    "velocity": 0,
    "type": "channel",
    "noteNumber": 71,
    "channel": 0,
    "deltaTime": 120
  },
  {
    "subtype": "noteOn",
    "velocity": 0,
    "type": "channel",
    "noteNumber": 71,
    "channel": 0,
    "deltaTime": 120
  },
  {
    "subtype": "noteOn",
    "velocity": 0,
    "type": "channel",
    "noteNumber": 68,
    "channel": 0,
    "deltaTime": 120
  },
  {
    "subtype": "noteOn",
    "velocity": 0,
    "type": "channel",
    "noteNumber": 68,
    "channel": 0,
    "deltaTime": 120
  },
  {
    "subtype": "noteOff",
    "velocity": 0,
    "type": "channel",
    "noteNumber": 68,
    "channel": 0,
    "deltaTime": 0
  },
  {
    "subtype": "noteOn",
    "velocity": 0,
    "type": "channel",
    "noteNumber": 68,
    "channel": 0,
    "deltaTime": 120
  },
  {
    "subtype": "noteOff",
    "velocity": 0,
    "type": "channel",
    "noteNumber": 68,
    "channel": 0,
    "deltaTime": 0
  },
  {
    "subtype": "noteOn",
    "velocity": 0,
    "type": "channel",
    "noteNumber": 68,
    "channel": 0,
    "deltaTime": 120
  },
  {
    "subtype": "noteOn",
    "velocity": 0,
    "type": "channel",
    "noteNumber": 66,
    "channel": 0,
    "deltaTime": 120
  },
  {
    "subtype": "noteOn",
    "velocity": 0,
    "type": "channel",
    "noteNumber": 66,
    "channel": 0,
    "deltaTime": 120
  },
  {
    "subtype": "noteOff",
    "velocity": 0,
    "type": "channel",
    "noteNumber": 66,
    "channel": 0,
    "deltaTime": 0
  },
  {
    "subtype": "noteOn",
    "velocity": 0,
    "type": "channel",
    "noteNumber": 68,
    "channel": 0,
    "deltaTime": 120
  },
  {
    "subtype": "noteOff",
    "velocity": 0,
    "type": "channel",
    "noteNumber": 68,
    "channel": 0,
    "deltaTime": 0
  },
  {
    "subtype": "noteOn",
    "velocity": 0,
    "type": "channel",
    "noteNumber": 64,
    "channel": 0,
    "deltaTime": 120
  },
  {
    "subtype": "noteOff",
    "velocity": 0,
    "type": "channel",
    "noteNumber": 64,
    "channel": 0,
    "deltaTime": 0
  },
  {
    "subtype": "noteOn",
    "velocity": 0,
    "type": "channel",
    "noteNumber": 73,
    "channel": 0,
    "deltaTime": 120
  },
  {
    "subtype": "noteOff",
    "velocity": 0,
    "type": "channel",
    "noteNumber": 73,
    "channel": 0,
    "deltaTime": 0
  },
  {
    "subtype": "noteOn",
    "velocity": 0,
    "type": "channel",
    "noteNumber": 82,
    "channel": 0,
    "deltaTime": 120
  },
  {
    "subtype": "noteOn",
    "velocity": 0,
    "type": "channel",
    "noteNumber": 80,
    "channel": 0,
    "deltaTime": 120
  },
  {
    "subtype": "noteOn",
    "velocity": 0,
    "type": "channel",
    "noteNumber": 80,
    "channel": 0,
    "deltaTime": 120
  },
  {
    "subtype": "noteOff",
    "velocity": 0,
    "type": "channel",
    "noteNumber": 80,
    "channel": 0,
    "deltaTime": 0
  },
  {
    "subtype": "noteOn",
    "velocity": 0,
    "type": "channel",
    "noteNumber": 78,
    "channel": 0,
    "deltaTime": 120
  },
  {
    "subtype": "noteOn",
    "velocity": 0,
    "type": "channel",
    "noteNumber": 77,
    "channel": 0,
    "deltaTime": 120
  },
  {
    "subtype": "noteOn",
    "velocity": 0,
    "type": "channel",
    "noteNumber": 77,
    "channel": 0,
    "deltaTime": 120
  },
  {
    "subtype": "noteOn",
    "velocity": 0,
    "type": "channel",
    "noteNumber": 75,
    "channel": 0,
    "deltaTime": 120
  },
  {
    "subtype": "noteOn",
    "velocity": 0,
    "type": "channel",
    "noteNumber": 75,
    "channel": 0,
    "deltaTime": 120
  },
  {
    "subtype": "noteOff",
    "velocity": 0,
    "type": "channel",
    "noteNumber": 75,
    "channel": 0,
    "deltaTime": 0
  },
  {
    "subtype": "noteOn",
    "velocity": 0,
    "type": "channel",
    "noteNumber": 74,
    "channel": 0,
    "deltaTime": 120
  },
  {
    "subtype": "noteOn",
    "velocity": 0,
    "type": "channel",
    "noteNumber": 65,
    "channel": 0,
    "deltaTime": 120
  },
  {
    "subtype": "noteOn",
    "velocity": 0,
    "type": "channel",
    "noteNumber": 65,
    "channel": 0,
    "deltaTime": 120
  },
  {
    "subtype": "noteOff",
    "velocity": 0,
    "type": "channel",
    "noteNumber": 65,
    "channel": 0,
    "deltaTime": 0
  },
  {
    "subtype": "noteOn",
    "velocity": 0,
    "type": "channel",
    "noteNumber": 82,
    "channel": 0,
    "deltaTime": 120
  },
  {
    "subtype": "noteOff",
    "velocity": 0,
    "type": "channel",
    "noteNumber": 82,
    "channel": 0,
    "deltaTime": 0
  },
  {
    "subtype": "noteOn",
    "velocity": 0,
    "type": "channel",
    "noteNumber": 82,
    "channel": 0,
    "deltaTime": 120
  },
  {
    "subtype": "noteOn",
    "velocity": 0,
    "type": "channel",
    "noteNumber": 79,
    "channel": 0,
    "deltaTime": 120
  },
  {
    "subtype": "noteOn",
    "velocity": 0,
    "type": "channel",
    "noteNumber": 79,
    "channel": 0,
    "deltaTime": 120
  },
  {
    "subtype": "noteOn",
    "velocity": 0,
    "type": "channel",
    "noteNumber": 80,
    "channel": 0,
    "deltaTime": 120
  },
  {
    "subtype": "noteOn",
    "velocity": 0,
    "type": "channel",
    "noteNumber": 80,
    "channel": 0,
    "deltaTime": 120
  },
  {
    "subtype": "noteOff",
    "velocity": 0,
    "type": "channel",
    "noteNumber": 80,
    "channel": 0,
    "deltaTime": 0
  },
  {
    "subtype": "noteOn",
    "velocity": 0,
    "type": "channel",
    "noteNumber": 78,
    "channel": 0,
    "deltaTime": 120
  },
  {
    "subtype": "noteOff",
    "velocity": 0,
    "type": "channel",
    "noteNumber": 78,
    "channel": 0,
    "deltaTime": 0
  },
  {
    "subtype": "noteOn",
    "velocity": 0,
    "type": "channel",
    "noteNumber": 77,
    "channel": 0,
    "deltaTime": 120
  },
  {
    "subtype": "noteOff",
    "velocity": 0,
    "type": "channel",
    "noteNumber": 77,
    "channel": 0,
    "deltaTime": 0
  },
  {
    "subtype": "noteOff",
    "velocity": 0,
    "type": "channel",
    "noteNumber": 77,
    "channel": 0,
    "deltaTime": 0
  },
  {
    "subtype": "noteOn",
    "velocity": 0,
    "type": "channel",
    "noteNumber": 82,
    "channel": 0,
    "deltaTime": 120
  },
  {
    "subtype": "noteOn",
    "velocity": 0,
    "type": "channel",
    "noteNumber": 82,
    "channel": 0,
    "deltaTime": 120
  },
  {
    "subtype": "noteOn",
    "velocity": 0,
    "type": "channel",
    "noteNumber": 85,
    "channel": 0,
    "deltaTime": 120
  },
  {
    "subtype": "noteOn",
    "velocity": 0,
    "type": "channel",
    "noteNumber": 85,
    "channel": 0,
    "deltaTime": 120
  },
  {
    "subtype": "noteOn",
    "velocity": 0,
    "type": "channel",
    "noteNumber": 85,
    "channel": 0,
    "deltaTime": 120
  },
  {
    "subtype": "noteOn",
    "velocity": 0,
    "type": "channel",
    "noteNumber": 85,
    "channel": 0,
    "deltaTime": 120
  },
  {
    "subtype": "noteOn",
    "velocity": 0,
    "type": "channel",
    "noteNumber": 83,
    "channel": 0,
    "deltaTime": 120
  },
  {
    "subtype": "noteOn",
    "velocity": 0,
    "type": "channel",
    "noteNumber": 75,
    "channel": 0,
    "deltaTime": 120
  },
  {
    "subtype": "noteOn",
    "velocity": 0,
    "type": "channel",
    "noteNumber": 75,
    "channel": 0,
    "deltaTime": 120
  },
  {
    "subtype": "noteOn",
    "velocity": 0,
    "type": "channel",
    "noteNumber": 75,
    "channel": 0,
    "deltaTime": 120
  },
  {
    "subtype": "noteOff",
    "velocity": 0,
    "type": "channel",
    "noteNumber": 75,
    "channel": 0,
    "deltaTime": 0
  },
  {
    "subtype": "noteOn",
    "velocity": 0,
    "type": "channel",
    "noteNumber": 75,
    "channel": 0,
    "deltaTime": 120
  },
  {
    "subtype": "noteOn",
    "velocity": 0,
    "type": "channel",
    "noteNumber": 73,
    "channel": 0,
    "deltaTime": 120
  },
  {
    "subtype": "noteOn",
    "velocity": 0,
    "type": "channel",
    "noteNumber": 73,
    "channel": 0,
    "deltaTime": 120
  },
  {
    "subtype": "noteOn",
    "velocity": 0,
    "type": "channel",
    "noteNumber": 73,
    "channel": 0,
    "deltaTime": 120
  },
  {
    "subtype": "noteOn",
    "velocity": 0,
    "type": "channel",
    "noteNumber": 73,
    "channel": 0,
    "deltaTime": 120
  },
  {
    "subtype": "noteOn",
    "velocity": 0,
    "type": "channel",
    "noteNumber": 82,
    "channel": 0,
    "deltaTime": 120
  },
  {
    "subtype": "noteOn",
    "velocity": 0,
    "type": "channel",
    "noteNumber": 82,
    "channel": 0,
    "deltaTime": 120
  },
  {
    "subtype": "noteOff",
    "velocity": 0,
    "type": "channel",
    "noteNumber": 82,
    "channel": 0,
    "deltaTime": 0
  },
  {
    "subtype": "noteOn",
    "velocity": 0,
    "type": "channel",
    "noteNumber": 75,
    "channel": 0,
    "deltaTime": 120
  },
  {
    "subtype": "noteOn",
    "velocity": 0,
    "type": "channel",
    "noteNumber": 80,
    "channel": 0,
    "deltaTime": 120
  },
  {
    "subtype": "noteOn",
    "velocity": 0,
    "type": "channel",
    "noteNumber": 82,
    "channel": 0,
    "deltaTime": 120
  },
  {
    "subtype": "noteOn",
    "velocity": 0,
    "type": "channel",
    "noteNumber": 82,
    "channel": 0,
    "deltaTime": 120
  },
  {
    "subtype": "noteOn",
    "velocity": 0,
    "type": "channel",
    "noteNumber": 82,
    "channel": 0,
    "deltaTime": 120
  },
  {
    "subtype": "noteOff",
    "velocity": 0,
    "type": "channel",
    "noteNumber": 82,
    "channel": 0,
    "deltaTime": 0
  },
  {
    "subtype": "noteOn",
    "velocity": 0,
    "type": "channel",
    "noteNumber": 75,
    "channel": 0,
    "deltaTime": 120
  },
  {
    "subtype": "noteOn",
    "velocity": 0,
    "type": "channel",
    "noteNumber": 67,
    "channel": 0,
    "deltaTime": 120
  },
  {
    "subtype": "noteOn",
    "velocity": 0,
    "type": "channel",
    "noteNumber": 67,
    "channel": 0,
    "deltaTime": 120
  },
  {
    "subtype": "noteOff",
    "velocity": 0,
    "type": "channel",
    "noteNumber": 67,
    "channel": 0,
    "deltaTime": 0
  },
  {
    "subtype": "noteOn",
    "velocity": 0,
    "type": "channel",
    "noteNumber": 73,
    "channel": 0,
    "deltaTime": 120
  },
  {
    "subtype": "noteOn",
    "velocity": 0,
    "type": "channel",
    "noteNumber": 75,
    "channel": 0,
    "deltaTime": 120
  },
  {
    "subtype": "noteOn",
    "velocity": 0,
    "type": "channel",
    "noteNumber": 75,
    "channel": 0,
    "deltaTime": 120
  },
  {
    "subtype": "noteOn",
    "velocity": 0,
    "type": "channel",
    "noteNumber": 70,
    "channel": 0,
    "deltaTime": 120
  },
  {
    "subtype": "noteOn",
    "velocity": 0,
    "type": "channel",
    "noteNumber": 74,
    "channel": 0,
    "deltaTime": 120
  },
  {
    "subtype": "noteOn",
    "velocity": 0,
    "type": "channel",
    "noteNumber": 63,
    "channel": 0,
    "deltaTime": 120
  },
  {
    "subtype": "noteOn",
    "velocity": 0,
    "type": "channel",
    "noteNumber": 72,
    "channel": 0,
    "deltaTime": 120
  },
  {
    "subtype": "noteOn",
    "velocity": 0,
    "type": "channel",
    "noteNumber": 73,
    "channel": 0,
    "deltaTime": 120
  },
  {
    "subtype": "noteOn",
    "velocity": 0,
    "type": "channel",
    "noteNumber": 73,
    "channel": 0,
    "deltaTime": 120
  },
  {
    "subtype": "noteOff",
    "velocity": 0,
    "type": "channel",
    "noteNumber": 73,
    "channel": 0,
    "deltaTime": 0
  },
  {
    "subtype": "noteOn",
    "velocity": 0,
    "type": "channel",
    "noteNumber": 70,
    "channel": 0,
    "deltaTime": 120
  },
  {
    "subtype": "noteOn",
    "velocity": 0,
    "type": "channel",
    "noteNumber": 79,
    "channel": 0,
    "deltaTime": 120
  },
  {
    "subtype": "noteOn",
    "velocity": 0,
    "type": "channel",
    "noteNumber": 68,
    "channel": 0,
    "deltaTime": 120
  },
  {
    "subtype": "noteOff",
    "velocity": 0,
    "type": "channel",
    "noteNumber": 68,
    "channel": 0,
    "deltaTime": 0
  },
  {
    "subtype": "noteOn",
    "velocity": 0,
    "type": "channel",
    "noteNumber": 75,
    "channel": 0,
    "deltaTime": 120
  },
  {
    "subtype": "noteOff",
    "velocity": 0,
    "type": "channel",
    "noteNumber": 75,
    "channel": 0,
    "deltaTime": 0
  },
  {
    "subtype": "noteOn",
    "velocity": 0,
    "type": "channel",
    "noteNumber": 67,
    "channel": 0,
    "deltaTime": 120
  },
  {
    "subtype": "noteOn",
    "velocity": 0,
    "type": "channel",
    "noteNumber": 71,
    "channel": 0,
    "deltaTime": 120
  },
  {
    "subtype": "noteOn",
    "velocity": 0,
    "type": "channel",
    "noteNumber": 71,
    "channel": 0,
    "deltaTime": 120
  },
  {
    "subtype": "noteOn",
    "velocity": 0,
    "type": "channel",
    "noteNumber": 75,
    "channel": 0,
    "deltaTime": 120
  },
  {
    "subtype": "noteOn",
    "velocity": 0,
    "type": "channel",
    "noteNumber": 76,
    "channel": 0,
    "deltaTime": 120
  },
  {
    "subtype": "noteOff",
    "velocity": 0,
    "type": "channel",
    "noteNumber": 76,
    "channel": 0,
    "deltaTime": 0
  },
  {
    "subtype": "noteOn",
    "velocity": 0,
    "type": "channel",
    "noteNumber": 82,
    "channel": 0,
    "deltaTime": 120
  },
  {
    "subtype": "noteOn",
    "velocity": 0,
    "type": "channel",
    "noteNumber": 80,
    "channel": 0,
    "deltaTime": 120
  },
  {
    "subtype": "noteOn",
    "velocity": 0,
    "type": "channel",
    "noteNumber": 80,
    "channel": 0,
    "deltaTime": 120
  },
  {
    "subtype": "noteOff",
    "velocity": 0,
    "type": "channel",
    "noteNumber": 80,
    "channel": 0,
    "deltaTime": 0
  },
  {
    "subtype": "noteOn",
    "velocity": 0,
    "type": "channel",
    "noteNumber": 78,
    "channel": 0,
    "deltaTime": 120
  },
  {
    "subtype": "noteOff",
    "velocity": 0,
    "type": "channel",
    "noteNumber": 78,
    "channel": 0,
    "deltaTime": 0
  },
  {
    "subtype": "noteOn",
    "velocity": 0,
    "type": "channel",
    "noteNumber": 75,
    "channel": 0,
    "deltaTime": 120
  },
  {
    "subtype": "noteOn",
    "velocity": 0,
    "type": "channel",
    "noteNumber": 75,
    "channel": 0,
    "deltaTime": 120
  },
  {
    "subtype": "noteOn",
    "velocity": 0,
    "type": "channel",
    "noteNumber": 72,
    "channel": 0,
    "deltaTime": 120
  },
  {
    "subtype": "noteOn",
    "velocity": 0,
    "type": "channel",
    "noteNumber": 73,
    "channel": 0,
    "deltaTime": 120
  },
  {
    "subtype": "noteOn",
    "velocity": 0,
    "type": "channel",
    "noteNumber": 73,
    "channel": 0,
    "deltaTime": 120
  },
  {
    "subtype": "noteOff",
    "velocity": 0,
    "type": "channel",
    "noteNumber": 73,
    "channel": 0,
    "deltaTime": 0
  },
  {
    "subtype": "noteOn",
    "velocity": 0,
    "type": "channel",
    "noteNumber": 70,
    "channel": 0,
    "deltaTime": 120
  },
  {
    "subtype": "noteOn",
    "velocity": 0,
    "type": "channel",
    "noteNumber": 72,
    "channel": 0,
    "deltaTime": 120
  },
  {
    "subtype": "noteOn",
    "velocity": 0,
    "type": "channel",
    "noteNumber": 72,
    "channel": 0,
    "deltaTime": 120
  },
  {
    "subtype": "noteOn",
    "velocity": 0,
    "type": "channel",
    "noteNumber": 80,
    "channel": 0,
    "deltaTime": 120
  },
  {
    "subtype": "noteOn",
    "velocity": 0,
    "type": "channel",
    "noteNumber": 80,
    "channel": 0,
    "deltaTime": 120
  },
  {
    "subtype": "noteOff",
    "velocity": 0,
    "type": "channel",
    "noteNumber": 80,
    "channel": 0,
    "deltaTime": 0
  },
  {
    "subtype": "noteOn",
    "velocity": 0,
    "type": "channel",
    "noteNumber": 78,
    "channel": 0,
    "deltaTime": 120
  },
  {
    "subtype": "noteOn",
    "velocity": 0,
    "type": "channel",
    "noteNumber": 76,
    "channel": 0,
    "deltaTime": 120
  },
  {
    "subtype": "noteOn",
    "velocity": 0,
    "type": "channel",
    "noteNumber": 76,
    "channel": 0,
    "deltaTime": 120
  },
  {
    "subtype": "noteOn",
    "velocity": 0,
    "type": "channel",
    "noteNumber": 75,
    "channel": 0,
    "deltaTime": 120
  },
  {
    "subtype": "noteOn",
    "velocity": 0,
    "type": "channel",
    "noteNumber": 75,
    "channel": 0,
    "deltaTime": 120
  },
  {
    "subtype": "noteOn",
    "velocity": 0,
    "type": "channel",
    "noteNumber": 76,
    "channel": 0,
    "deltaTime": 120
  },
  {
    "subtype": "noteOn",
    "velocity": 0,
    "type": "channel",
    "noteNumber": 76,
    "channel": 0,
    "deltaTime": 120
  },
  {
    "subtype": "noteOff",
    "velocity": 0,
    "type": "channel",
    "noteNumber": 76,
    "channel": 0,
    "deltaTime": 0
  },
  {
    "subtype": "noteOn",
    "velocity": 0,
    "type": "channel",
    "noteNumber": 75,
    "channel": 0,
    "deltaTime": 120
  },
  {
    "subtype": "noteOff",
    "velocity": 0,
    "type": "channel",
    "noteNumber": 75,
    "channel": 0,
    "deltaTime": 0
  },
  {
    "subtype": "noteOn",
    "velocity": 0,
    "type": "channel",
    "noteNumber": 78,
    "channel": 0,
    "deltaTime": 120
  },
  {
    "subtype": "noteOff",
    "velocity": 0,
    "type": "channel",
    "noteNumber": 78,
    "channel": 0,
    "deltaTime": 0
  },
  {
    "subtype": "noteOn",
    "velocity": 0,
    "type": "channel",
    "noteNumber": 83,
    "channel": 0,
    "deltaTime": 120
  },
  {
    "subtype": "noteOff",
    "velocity": 0,
    "type": "channel",
    "noteNumber": 83,
    "channel": 0,
    "deltaTime": 0
  },
  {
    "subtype": "noteOn",
    "velocity": 0,
    "type": "channel",
    "noteNumber": 67,
    "channel": 0,
    "deltaTime": 120
  },
  {
    "subtype": "noteOn",
    "velocity": 0,
    "type": "channel",
    "noteNumber": 68,
    "channel": 0,
    "deltaTime": 120
  },
  {
    "subtype": "noteOn",
    "velocity": 0,
    "type": "channel",
    "noteNumber": 68,
    "channel": 0,
    "deltaTime": 120
  },
  {
    "subtype": "noteOn",
    "velocity": 0,
    "type": "channel",
    "noteNumber": 83,
    "channel": 0,
    "deltaTime": 120
  },
  {
    "subtype": "noteOn",
    "velocity": 0,
    "type": "channel",
    "noteNumber": 83,
    "channel": 0,
    "deltaTime": 120
  },
  {
    "subtype": "noteOn",
    "velocity": 0,
    "type": "channel",
    "noteNumber": 82,
    "channel": 0,
    "deltaTime": 120
  },
  {
    "subtype": "noteOn",
    "velocity": 0,
    "type": "channel",
    "noteNumber": 82,
    "channel": 0,
    "deltaTime": 120
  },
  {
    "subtype": "noteOn",
    "velocity": 0,
    "type": "channel",
    "noteNumber": 80,
    "channel": 0,
    "deltaTime": 120
  },
  {
    "subtype": "noteOn",
    "velocity": 0,
    "type": "channel",
    "noteNumber": 80,
    "channel": 0,
    "deltaTime": 120
  },
  {
    "subtype": "noteOn",
    "velocity": 0,
    "type": "channel",
    "noteNumber": 78,
    "channel": 0,
    "deltaTime": 120
  },
  {
    "subtype": "noteOn",
    "velocity": 0,
    "type": "channel",
    "noteNumber": 78,
    "channel": 0,
    "deltaTime": 120
  },
  {
    "subtype": "noteOn",
    "velocity": 0,
    "type": "channel",
    "noteNumber": 85,
    "channel": 0,
    "deltaTime": 120
  },
  {
    "subtype": "noteOn",
    "velocity": 0,
    "type": "channel",
    "noteNumber": 85,
    "channel": 0,
    "deltaTime": 120
  },
  {
    "subtype": "noteOn",
    "velocity": 0,
    "type": "channel",
    "noteNumber": 76,
    "channel": 0,
    "deltaTime": 120
  },
  {
    "subtype": "noteOn",
    "velocity": 0,
    "type": "channel",
    "noteNumber": 76,
    "channel": 0,
    "deltaTime": 120
  },
  {
    "subtype": "noteOn",
    "velocity": 0,
    "type": "channel",
    "noteNumber": 75,
    "channel": 0,
    "deltaTime": 120
  },
  {
    "subtype": "noteOn",
    "velocity": 0,
    "type": "channel",
    "noteNumber": 75,
    "channel": 0,
    "deltaTime": 120
  },
  {
    "subtype": "noteOn",
    "velocity": 0,
    "type": "channel",
    "noteNumber": 73,
    "channel": 0,
    "deltaTime": 120
  },
  {
    "subtype": "noteOn",
    "velocity": 0,
    "type": "channel",
    "noteNumber": 73,
    "channel": 0,
    "deltaTime": 120
  },
  {
    "subtype": "noteOff",
    "velocity": 0,
    "type": "channel",
    "noteNumber": 73,
    "channel": 0,
    "deltaTime": 0
  },
  {
    "subtype": "noteOn",
    "velocity": 0,
    "type": "channel",
    "noteNumber": 71,
    "channel": 0,
    "deltaTime": 120
  },
  {
    "subtype": "noteOff",
    "velocity": 0,
    "type": "channel",
    "noteNumber": 71,
    "channel": 0,
    "deltaTime": 0
  },
  {
    "subtype": "noteOn",
    "velocity": 0,
    "type": "channel",
    "noteNumber": 83,
    "channel": 0,
    "deltaTime": 120
  },
  {
    "subtype": "noteOff",
    "velocity": 0,
    "type": "channel",
    "noteNumber": 83,
    "channel": 0,
    "deltaTime": 0
  },
  {
    "subtype": "noteOn",
    "velocity": 0,
    "type": "channel",
    "noteNumber": 82,
    "channel": 0,
    "deltaTime": 120
  },
  {
    "subtype": "noteOn",
    "velocity": 0,
    "type": "channel",
    "noteNumber": 80,
    "channel": 0,
    "deltaTime": 120
  },
  {
    "subtype": "noteOn",
    "velocity": 0,
    "type": "channel",
    "noteNumber": 80,
    "channel": 0,
    "deltaTime": 120
  },
  {
    "subtype": "noteOn",
    "velocity": 0,
    "type": "channel",
    "noteNumber": 78,
    "channel": 0,
    "deltaTime": 120
  },
  {
    "subtype": "noteOn",
    "velocity": 0,
    "type": "channel",
    "noteNumber": 78,
    "channel": 0,
    "deltaTime": 120
  },
  {
    "subtype": "noteOn",
    "velocity": 0,
    "type": "channel",
    "noteNumber": 76,
    "channel": 0,
    "deltaTime": 120
  },
  {
    "subtype": "noteOn",
    "velocity": 0,
    "type": "channel",
    "noteNumber": 76,
    "channel": 0,
    "deltaTime": 120
  },
  {
    "subtype": "noteOn",
    "velocity": 0,
    "type": "channel",
    "noteNumber": 75,
    "channel": 0,
    "deltaTime": 120
  },
  {
    "subtype": "noteOn",
    "velocity": 0,
    "type": "channel",
    "noteNumber": 75,
    "channel": 0,
    "deltaTime": 120
  },
  {
    "subtype": "noteOn",
    "velocity": 0,
    "type": "channel",
    "noteNumber": 76,
    "channel": 0,
    "deltaTime": 120
  },
  {
    "subtype": "noteOn",
    "velocity": 0,
    "type": "channel",
    "noteNumber": 76,
    "channel": 0,
    "deltaTime": 120
  },
  {
    "subtype": "noteOff",
    "velocity": 0,
    "type": "channel",
    "noteNumber": 76,
    "channel": 0,
    "deltaTime": 0
  },
  {
    "subtype": "noteOn",
    "velocity": 0,
    "type": "channel",
    "noteNumber": 75,
    "channel": 0,
    "deltaTime": 120
  },
  {
    "subtype": "noteOn",
    "velocity": 0,
    "type": "channel",
    "noteNumber": 76,
    "channel": 0,
    "deltaTime": 120
  },
  {
    "subtype": "noteOn",
    "velocity": 0,
    "type": "channel",
    "noteNumber": 76,
    "channel": 0,
    "deltaTime": 120
  },
  {
    "subtype": "noteOff",
    "velocity": 0,
    "type": "channel",
    "noteNumber": 76,
    "channel": 0,
    "deltaTime": 0
  },
  {
    "subtype": "noteOn",
    "velocity": 0,
    "type": "channel",
    "noteNumber": 85,
    "channel": 0,
    "deltaTime": 120
  },
  {
    "subtype": "noteOn",
    "velocity": 0,
    "type": "channel",
    "noteNumber": 85,
    "channel": 0,
    "deltaTime": 120
  },
  {
    "subtype": "noteOn",
    "velocity": 0,
    "type": "channel",
    "noteNumber": 85,
    "channel": 0,
    "deltaTime": 120
  },
  {
    "subtype": "noteOn",
    "velocity": 0,
    "type": "channel",
    "noteNumber": 83,
    "channel": 0,
    "deltaTime": 120
  },
  {
    "subtype": "noteOn",
    "velocity": 0,
    "type": "channel",
    "noteNumber": 83,
    "channel": 0,
    "deltaTime": 120
  },
  {
    "subtype": "noteOn",
    "velocity": 0,
    "type": "channel",
    "noteNumber": 82,
    "channel": 0,
    "deltaTime": 120
  },
  {
    "subtype": "noteOn",
    "velocity": 0,
    "type": "channel",
    "noteNumber": 85,
    "channel": 0,
    "deltaTime": 120
  },
  {
    "subtype": "noteOn",
    "velocity": 0,
    "type": "channel",
    "noteNumber": 80,
    "channel": 0,
    "deltaTime": 120
  },
  {
    "subtype": "noteOn",
    "velocity": 0,
    "type": "channel",
    "noteNumber": 80,
    "channel": 0,
    "deltaTime": 120
  },
  {
    "subtype": "noteOn",
    "velocity": 0,
    "type": "channel",
    "noteNumber": 78,
    "channel": 0,
    "deltaTime": 120
  },
  {
    "subtype": "noteOn",
    "velocity": 0,
    "type": "channel",
    "noteNumber": 78,
    "channel": 0,
    "deltaTime": 120
  },
  {
    "subtype": "noteOn",
    "velocity": 0,
    "type": "channel",
    "noteNumber": 76,
    "channel": 0,
    "deltaTime": 120
  },
  {
    "subtype": "noteOn",
    "velocity": 0,
    "type": "channel",
    "noteNumber": 76,
    "channel": 0,
    "deltaTime": 120
  },
  {
    "subtype": "noteOn",
    "velocity": 0,
    "type": "channel",
    "noteNumber": 75,
    "channel": 0,
    "deltaTime": 120
  },
  {
    "subtype": "noteOn",
    "velocity": 0,
    "type": "channel",
    "noteNumber": 75,
    "channel": 0,
    "deltaTime": 120
  },
  {
    "subtype": "noteOn",
    "velocity": 0,
    "type": "channel",
    "noteNumber": 73,
    "channel": 0,
    "deltaTime": 120
  },
  {
    "subtype": "noteOn",
    "velocity": 0,
    "type": "channel",
    "noteNumber": 76,
    "channel": 0,
    "deltaTime": 120
  },
  {
    "subtype": "noteOn",
    "velocity": 0,
    "type": "channel",
    "noteNumber": 82,
    "channel": 0,
    "deltaTime": 120
  },
  {
    "subtype": "noteOn",
    "velocity": 0,
    "type": "channel",
    "noteNumber": 82,
    "channel": 0,
    "deltaTime": 120
  },
  {
    "subtype": "noteOn",
    "velocity": 0,
    "type": "channel",
    "noteNumber": 82,
    "channel": 0,
    "deltaTime": 120
  },
  {
    "subtype": "noteOn",
    "velocity": 0,
    "type": "channel",
    "noteNumber": 83,
    "channel": 0,
    "deltaTime": 120
  },
  {
    "subtype": "noteOn",
    "velocity": 0,
    "type": "channel",
    "noteNumber": 83,
    "channel": 0,
    "deltaTime": 120
  },
  {
    "subtype": "noteOn",
    "velocity": 0,
    "type": "channel",
    "noteNumber": 87,
    "channel": 0,
    "deltaTime": 120
  },
  {
    "subtype": "noteOn",
    "velocity": 0,
    "type": "channel",
    "noteNumber": 87,
    "channel": 0,
    "deltaTime": 120
  },
  {
    "subtype": "noteOn",
    "velocity": 0,
    "type": "channel",
    "noteNumber": 85,
    "channel": 0,
    "deltaTime": 120
  },
  {
    "subtype": "noteOn",
    "velocity": 0,
    "type": "channel",
    "noteNumber": 85,
    "channel": 0,
    "deltaTime": 120
  },
  {
    "subtype": "noteOn",
    "velocity": 0,
    "type": "channel",
    "noteNumber": 83,
    "channel": 0,
    "deltaTime": 120
  },
  {
    "subtype": "noteOn",
    "velocity": 0,
    "type": "channel",
    "noteNumber": 83,
    "channel": 0,
    "deltaTime": 120
  },
  {
    "subtype": "noteOn",
    "velocity": 0,
    "type": "channel",
    "noteNumber": 87,
    "channel": 0,
    "deltaTime": 120
  },
  {
    "subtype": "noteOn",
    "velocity": 0,
    "type": "channel",
    "noteNumber": 85,
    "channel": 0,
    "deltaTime": 120
  },
  {
    "subtype": "noteOn",
    "velocity": 0,
    "type": "channel",
    "noteNumber": 80,
    "channel": 0,
    "deltaTime": 120
  },
  {
    "subtype": "noteOn",
    "velocity": 0,
    "type": "channel",
    "noteNumber": 80,
    "channel": 0,
    "deltaTime": 120
  },
  {
    "subtype": "noteOn",
    "velocity": 0,
    "type": "channel",
    "noteNumber": 78,
    "channel": 0,
    "deltaTime": 120
  },
  {
    "subtype": "noteOn",
    "velocity": 0,
    "type": "channel",
    "noteNumber": 78,
    "channel": 0,
    "deltaTime": 120
  },
  {
    "subtype": "noteOn",
    "velocity": 0,
    "type": "channel",
    "noteNumber": 76,
    "channel": 0,
    "deltaTime": 120
  },
  {
    "subtype": "noteOn",
    "velocity": 0,
    "type": "channel",
    "noteNumber": 76,
    "channel": 0,
    "deltaTime": 120
  },
  {
    "subtype": "noteOn",
    "velocity": 0,
    "type": "channel",
    "noteNumber": 75,
    "channel": 0,
    "deltaTime": 120
  },
  {
    "subtype": "noteOn",
    "velocity": 0,
    "type": "channel",
    "noteNumber": 75,
    "channel": 0,
    "deltaTime": 120
  },
  {
    "subtype": "noteOff",
    "velocity": 0,
    "type": "channel",
    "noteNumber": 75,
    "channel": 0,
    "deltaTime": 0
  },
  {
    "subtype": "noteOn",
    "velocity": 0,
    "type": "channel",
    "noteNumber": 76,
    "channel": 0,
    "deltaTime": 120
  },
  {
    "subtype": "noteOff",
    "velocity": 0,
    "type": "channel",
    "noteNumber": 76,
    "channel": 0,
    "deltaTime": 0
  },
  {
    "subtype": "noteOn",
    "velocity": 0,
    "type": "channel",
    "noteNumber": 73,
    "channel": 0,
    "deltaTime": 120
  },
  {
    "subtype": "noteOn",
    "velocity": 0,
    "type": "channel",
    "noteNumber": 73,
    "channel": 0,
    "deltaTime": 120
  },
  {
    "subtype": "noteOn",
    "velocity": 0,
    "type": "channel",
    "noteNumber": 73,
    "channel": 0,
    "deltaTime": 120
  },
  {
    "subtype": "noteOn",
    "velocity": 0,
    "type": "channel",
    "noteNumber": 76,
    "channel": 0,
    "deltaTime": 120
  },
  {
    "subtype": "noteOn",
    "velocity": 0,
    "type": "channel",
    "noteNumber": 76,
    "channel": 0,
    "deltaTime": 120
  },
  {
    "subtype": "noteOff",
    "velocity": 0,
    "type": "channel",
    "noteNumber": 76,
    "channel": 0,
    "deltaTime": 0
  },
  {
    "subtype": "noteOn",
    "velocity": 0,
    "type": "channel",
    "noteNumber": 85,
    "channel": 0,
    "deltaTime": 120
  },
  {
    "subtype": "noteOn",
    "velocity": 0,
    "type": "channel",
    "noteNumber": 85,
    "channel": 0,
    "deltaTime": 120
  },
  {
    "subtype": "noteOn",
    "velocity": 0,
    "type": "channel",
    "noteNumber": 85,
    "channel": 0,
    "deltaTime": 120
  },
  {
    "subtype": "noteOn",
    "velocity": 0,
    "type": "channel",
    "noteNumber": 85,
    "channel": 0,
    "deltaTime": 120
  },
  {
    "subtype": "noteOn",
    "velocity": 0,
    "type": "channel",
    "noteNumber": 85,
    "channel": 0,
    "deltaTime": 120
  },
  {
    "subtype": "noteOn",
    "velocity": 0,
    "type": "channel",
    "noteNumber": 85,
    "channel": 0,
    "deltaTime": 120
  },
  {
    "subtype": "noteOn",
    "velocity": 0,
    "type": "channel",
    "noteNumber": 85,
    "channel": 0,
    "deltaTime": 120
  },
  {
    "subtype": "noteOn",
    "velocity": 0,
    "type": "channel",
    "noteNumber": 85,
    "channel": 0,
    "deltaTime": 120
  },
  {
    "subtype": "noteOn",
    "velocity": 0,
    "type": "channel",
    "noteNumber": 85,
    "channel": 0,
    "deltaTime": 120
  },
  {
    "subtype": "noteOn",
    "velocity": 0,
    "type": "channel",
    "noteNumber": 85,
    "channel": 0,
    "deltaTime": 120
  },
  {
    "subtype": "noteOn",
    "velocity": 0,
    "type": "channel",
    "noteNumber": 85,
    "channel": 0,
    "deltaTime": 120
  },
  {
    "subtype": "noteOn",
    "velocity": 0,
    "type": "channel",
    "noteNumber": 85,
    "channel": 0,
    "deltaTime": 120
  },
  {
    "subtype": "noteOn",
    "velocity": 0,
    "type": "channel",
    "noteNumber": 85,
    "channel": 0,
    "deltaTime": 120
  },
  {
    "subtype": "noteOff",
    "velocity": 0,
    "type": "channel",
    "noteNumber": 85,
    "channel": 0,
    "deltaTime": 0
  },
  {
    "subtype": "noteOn",
    "velocity": 0,
    "type": "channel",
    "noteNumber": 76,
    "channel": 0,
    "deltaTime": 120
  },
  {
    "subtype": "noteOn",
    "velocity": 0,
    "type": "channel",
    "noteNumber": 73,
    "channel": 0,
    "deltaTime": 120
  },
  {
    "subtype": "noteOn",
    "velocity": 0,
    "type": "channel",
    "noteNumber": 73,
    "channel": 0,
    "deltaTime": 120
  },
  {
    "subtype": "noteOn",
    "velocity": 0,
    "type": "channel",
    "noteNumber": 73,
    "channel": 0,
    "deltaTime": 120
  },
  {
    "subtype": "noteOn",
    "velocity": 0,
    "type": "channel",
    "noteNumber": 73,
    "channel": 0,
    "deltaTime": 120
  },
  {
    "subtype": "noteOn",
    "velocity": 0,
    "type": "channel",
    "noteNumber": 73,
    "channel": 0,
    "deltaTime": 120
  },
  {
    "subtype": "noteOn",
    "velocity": 0,
    "type": "channel",
    "noteNumber": 73,
    "channel": 0,
    "deltaTime": 120
  },
  {
    "subtype": "noteOn",
    "velocity": 0,
    "type": "channel",
    "noteNumber": 73,
    "channel": 0,
    "deltaTime": 120
  },
  {
    "subtype": "noteOn",
    "velocity": 0,
    "type": "channel",
    "noteNumber": 83,
    "channel": 0,
    "deltaTime": 120
  },
  {
    "subtype": "noteOn",
    "velocity": 0,
    "type": "channel",
    "noteNumber": 83,
    "channel": 0,
    "deltaTime": 120
  },
  {
    "subtype": "noteOn",
    "velocity": 0,
    "type": "channel",
    "noteNumber": 73,
    "channel": 0,
    "deltaTime": 120
  },
  {
    "subtype": "noteOn",
    "velocity": 0,
    "type": "channel",
    "noteNumber": 73,
    "channel": 0,
    "deltaTime": 120
  },
  {
    "subtype": "noteOn",
    "velocity": 0,
    "type": "channel",
    "noteNumber": 66,
    "channel": 0,
    "deltaTime": 120
  },
  {
    "subtype": "noteOn",
    "velocity": 0,
    "type": "channel",
    "noteNumber": 67,
    "channel": 0,
    "deltaTime": 120
  },
  {
    "subtype": "noteOn",
    "velocity": 0,
    "type": "channel",
    "noteNumber": 67,
    "channel": 0,
    "deltaTime": 120
  },
  {
    "subtype": "noteOn",
    "velocity": 0,
    "type": "channel",
    "noteNumber": 85,
    "channel": 0,
    "deltaTime": 120
  },
  {
    "subtype": "noteOn",
    "velocity": 0,
    "type": "channel",
    "noteNumber": 85,
    "channel": 0,
    "deltaTime": 120
  },
  {
    "subtype": "noteOn",
    "velocity": 0,
    "type": "channel",
    "noteNumber": 85,
    "channel": 0,
    "deltaTime": 120
  },
  {
    "subtype": "noteOn",
    "velocity": 0,
    "type": "channel",
    "noteNumber": 85,
    "channel": 0,
    "deltaTime": 120
  },
  {
    "subtype": "noteOn",
    "velocity": 0,
    "type": "channel",
    "noteNumber": 85,
    "channel": 0,
    "deltaTime": 120
  },
  {
    "subtype": "noteOn",
    "velocity": 0,
    "type": "channel",
    "noteNumber": 85,
    "channel": 0,
    "deltaTime": 120
  },
  {
    "subtype": "noteOn",
    "velocity": 0,
    "type": "channel",
    "noteNumber": 85,
    "channel": 0,
    "deltaTime": 120
  },
  {
    "subtype": "noteOn",
    "velocity": 0,
    "type": "channel",
    "noteNumber": 85,
    "channel": 0,
    "deltaTime": 120
  },
  {
    "subtype": "noteOn",
    "velocity": 0,
    "type": "channel",
    "noteNumber": 82,
    "channel": 0,
    "deltaTime": 120
  },
  {
    "subtype": "noteOn",
    "velocity": 0,
    "type": "channel",
    "noteNumber": 82,
    "channel": 0,
    "deltaTime": 120
  },
  {
    "subtype": "noteOn",
    "velocity": 0,
    "type": "channel",
    "noteNumber": 82,
    "channel": 0,
    "deltaTime": 120
  },
  {
    "subtype": "noteOn",
    "velocity": 0,
    "type": "channel",
    "noteNumber": 82,
    "channel": 0,
    "deltaTime": 120
  },
  {
    "subtype": "noteOn",
    "velocity": 0,
    "type": "channel",
    "noteNumber": 73,
    "channel": 0,
    "deltaTime": 120
  },
  {
    "subtype": "noteOn",
    "velocity": 0,
    "type": "channel",
    "noteNumber": 73,
    "channel": 0,
    "deltaTime": 120
  },
  {
    "subtype": "noteOn",
    "velocity": 0,
    "type": "channel",
    "noteNumber": 73,
    "channel": 0,
    "deltaTime": 120
  },
  {
    "subtype": "noteOn",
    "velocity": 0,
    "type": "channel",
    "noteNumber": 73,
    "channel": 0,
    "deltaTime": 120
  },
  {
    "subtype": "noteOn",
    "velocity": 0,
    "type": "channel",
    "noteNumber": 73,
    "channel": 0,
    "deltaTime": 120
  },
  {
    "subtype": "noteOn",
    "velocity": 0,
    "type": "channel",
    "noteNumber": 73,
    "channel": 0,
    "deltaTime": 120
  },
  {
    "subtype": "noteOn",
    "velocity": 0,
    "type": "channel",
    "noteNumber": 73,
    "channel": 0,
    "deltaTime": 120
  },
  {
    "subtype": "noteOn",
    "velocity": 0,
    "type": "channel",
    "noteNumber": 73,
    "channel": 0,
    "deltaTime": 120
  },
  {
    "subtype": "noteOn",
    "velocity": 0,
    "type": "channel",
    "noteNumber": 73,
    "channel": 0,
    "deltaTime": 120
  },
  {
    "subtype": "noteOn",
    "velocity": 0,
    "type": "channel",
    "noteNumber": 73,
    "channel": 0,
    "deltaTime": 120
  },
  {
    "subtype": "noteOn",
    "velocity": 0,
    "type": "channel",
    "noteNumber": 73,
    "channel": 0,
    "deltaTime": 120
  },
  {
    "subtype": "noteOn",
    "velocity": 0,
    "type": "channel",
    "noteNumber": 67,
    "channel": 0,
    "deltaTime": 120
  },
  {
    "subtype": "noteOn",
    "velocity": 0,
    "type": "channel",
    "noteNumber": 67,
    "channel": 0,
    "deltaTime": 120
  },
  {
    "subtype": "noteOff",
    "velocity": 0,
    "type": "channel",
    "noteNumber": 67,
    "channel": 0,
    "deltaTime": 0
  },
  {
    "subtype": "noteOn",
    "velocity": 0,
    "type": "channel",
    "noteNumber": 82,
    "channel": 0,
    "deltaTime": 120
  },
  {
    "subtype": "noteOn",
    "velocity": 0,
    "type": "channel",
    "noteNumber": 83,
    "channel": 0,
    "deltaTime": 120
  },
  {
    "subtype": "noteOn",
    "velocity": 0,
    "type": "channel",
    "noteNumber": 75,
    "channel": 0,
    "deltaTime": 120
  },
  {
    "subtype": "noteOn",
    "velocity": 0,
    "type": "channel",
    "noteNumber": 73,
    "channel": 0,
    "deltaTime": 120
  },
  {
    "subtype": "noteOn",
    "velocity": 0,
    "type": "channel",
    "noteNumber": 73,
    "channel": 0,
    "deltaTime": 120
  },
  {
    "subtype": "noteOn",
    "velocity": 0,
    "type": "channel",
    "noteNumber": 71,
    "channel": 0,
    "deltaTime": 120
  },
  {
    "subtype": "noteOn",
    "velocity": 0,
    "type": "channel",
    "noteNumber": 71,
    "channel": 0,
    "deltaTime": 120
  },
  {
    "subtype": "noteOff",
    "velocity": 0,
    "type": "channel",
    "noteNumber": 71,
    "channel": 0,
    "deltaTime": 0
  },
  {
    "subtype": "noteOn",
    "velocity": 0,
    "type": "channel",
    "noteNumber": 70,
    "channel": 0,
    "deltaTime": 120
  },
  {
    "subtype": "noteOn",
    "velocity": 0,
    "type": "channel",
    "noteNumber": 68,
    "channel": 0,
    "deltaTime": 120
  },
  {
    "subtype": "noteOn",
    "velocity": 0,
    "type": "channel",
    "noteNumber": 68,
    "channel": 0,
    "deltaTime": 120
  },
  {
    "subtype": "noteOn",
    "velocity": 0,
    "type": "channel",
    "noteNumber": 71,
    "channel": 0,
    "deltaTime": 120
  },
  {
    "subtype": "noteOn",
    "velocity": 0,
    "type": "channel",
    "noteNumber": 71,
    "channel": 0,
    "deltaTime": 120
  },
  {
    "subtype": "noteOff",
    "velocity": 0,
    "type": "channel",
    "noteNumber": 71,
    "channel": 0,
    "deltaTime": 0
  },
  {
    "subtype": "noteOn",
    "velocity": 0,
    "type": "channel",
    "noteNumber": 67,
    "channel": 0,
    "deltaTime": 120
  },
  {
    "subtype": "noteOff",
    "velocity": 0,
    "type": "channel",
    "noteNumber": 67,
    "channel": 0,
    "deltaTime": 0
  },
  {
    "subtype": "noteOn",
    "velocity": 0,
    "type": "channel",
    "noteNumber": 80,
    "channel": 0,
    "deltaTime": 120
  },
  {
    "subtype": "noteOn",
    "velocity": 0,
    "type": "channel",
    "noteNumber": 78,
    "channel": 0,
    "deltaTime": 120
  },
  {
    "subtype": "noteOff",
    "velocity": 0,
    "type": "channel",
    "noteNumber": 78,
    "channel": 0,
    "deltaTime": 0
  },
  {
    "subtype": "noteOn",
    "velocity": 0,
    "type": "channel",
    "noteNumber": 63,
    "channel": 0,
    "deltaTime": 120
  },
  {
    "subtype": "noteOn",
    "velocity": 0,
    "type": "channel",
    "noteNumber": 87,
    "channel": 0,
    "deltaTime": 120
  },
  {
    "subtype": "noteOn",
    "velocity": 0,
    "type": "channel",
    "noteNumber": 87,
    "channel": 0,
    "deltaTime": 120
  },
  {
    "subtype": "noteOn",
    "velocity": 0,
    "type": "channel",
    "noteNumber": 83,
    "channel": 0,
    "deltaTime": 120
  },
  {
    "subtype": "noteOn",
    "velocity": 0,
    "type": "channel",
    "noteNumber": 85,
    "channel": 0,
    "deltaTime": 120
  },
  {
    "subtype": "noteOn",
    "velocity": 0,
    "type": "channel",
    "noteNumber": 83,
    "channel": 0,
    "deltaTime": 120
  },
  {
    "subtype": "noteOn",
    "velocity": 0,
    "type": "channel",
    "noteNumber": 83,
    "channel": 0,
    "deltaTime": 120
  },
  {
    "subtype": "noteOn",
    "velocity": 0,
    "type": "channel",
    "noteNumber": 82,
    "channel": 0,
    "deltaTime": 120
  },
  {
    "subtype": "noteOn",
    "velocity": 0,
    "type": "channel",
    "noteNumber": 82,
    "channel": 0,
    "deltaTime": 120
  },
  {
    "subtype": "noteOff",
    "velocity": 0,
    "type": "channel",
    "noteNumber": 82,
    "channel": 0,
    "deltaTime": 0
  },
  {
    "subtype": "noteOn",
    "velocity": 0,
    "type": "channel",
    "noteNumber": 82,
    "channel": 0,
    "deltaTime": 120
  },
  {
    "subtype": "noteOff",
    "velocity": 0,
    "type": "channel",
    "noteNumber": 82,
    "channel": 0,
    "deltaTime": 0
  },
  {
    "subtype": "noteOn",
    "velocity": 0,
    "type": "channel",
    "noteNumber": 80,
    "channel": 0,
    "deltaTime": 120
  },
  {
    "subtype": "noteOff",
    "velocity": 0,
    "type": "channel",
    "noteNumber": 80,
    "channel": 0,
    "deltaTime": 0
  },
  {
    "subtype": "noteOn",
    "velocity": 0,
    "type": "channel",
    "noteNumber": 79,
    "channel": 0,
    "deltaTime": 120
  },
  {
    "subtype": "noteOn",
    "velocity": 0,
    "type": "channel",
    "noteNumber": 79,
    "channel": 0,
    "deltaTime": 120
  },
  {
    "subtype": "noteOn",
    "velocity": 0,
    "type": "channel",
    "noteNumber": 79,
    "channel": 0,
    "deltaTime": 120
  },
  {
    "subtype": "noteOn",
    "velocity": 0,
    "type": "channel",
    "noteNumber": 80,
    "channel": 0,
    "deltaTime": 120
  },
  {
    "subtype": "noteOn",
    "velocity": 0,
    "type": "channel",
    "noteNumber": 80,
    "channel": 0,
    "deltaTime": 120
  },
  {
    "subtype": "noteOn",
    "velocity": 0,
    "type": "channel",
    "noteNumber": 63,
    "channel": 0,
    "deltaTime": 120
  },
  {
    "subtype": "noteOn",
    "velocity": 0,
    "type": "channel",
    "noteNumber": 63,
    "channel": 0,
    "deltaTime": 120
  },
  {
    "subtype": "noteOn",
    "velocity": 0,
    "type": "channel",
    "noteNumber": 61,
    "channel": 0,
    "deltaTime": 120
  },
  {
    "subtype": "noteOn",
    "velocity": 0,
    "type": "channel",
    "noteNumber": 61,
    "channel": 0,
    "deltaTime": 120
  },
  {
    "subtype": "noteOff",
    "velocity": 0,
    "type": "channel",
    "noteNumber": 61,
    "channel": 0,
    "deltaTime": 0
  },
  {
    "subtype": "noteOn",
    "velocity": 0,
    "type": "channel",
    "noteNumber": 76,
    "channel": 0,
    "deltaTime": 120
  },
  {
    "subtype": "noteOn",
    "velocity": 0,
    "type": "channel",
    "noteNumber": 75,
    "channel": 0,
    "deltaTime": 120
  },
  {
    "subtype": "noteOn",
    "velocity": 0,
    "type": "channel",
    "noteNumber": 75,
    "channel": 0,
    "deltaTime": 120
  },
  {
    "subtype": "noteOn",
    "velocity": 0,
    "type": "channel",
    "noteNumber": 73,
    "channel": 0,
    "deltaTime": 120
  },
  {
    "subtype": "noteOn",
    "velocity": 0,
    "type": "channel",
    "noteNumber": 73,
    "channel": 0,
    "deltaTime": 120
  },
  {
    "subtype": "noteOff",
    "velocity": 0,
    "type": "channel",
    "noteNumber": 73,
    "channel": 0,
    "deltaTime": 0
  },
  {
    "subtype": "noteOn",
    "velocity": 0,
    "type": "channel",
    "noteNumber": 71,
    "channel": 0,
    "deltaTime": 120
  },
  {
    "subtype": "noteOff",
    "velocity": 0,
    "type": "channel",
    "noteNumber": 71,
    "channel": 0,
    "deltaTime": 0
  },
  {
    "subtype": "noteOn",
    "velocity": 0,
    "type": "channel",
    "noteNumber": 70,
    "channel": 0,
    "deltaTime": 120
  },
  {
    "subtype": "noteOn",
    "velocity": 0,
    "type": "channel",
    "noteNumber": 68,
    "channel": 0,
    "deltaTime": 120
  },
  {
    "subtype": "noteOn",
    "velocity": 0,
    "type": "channel",
    "noteNumber": 68,
    "channel": 0,
    "deltaTime": 120
  },
  {
    "subtype": "noteOn",
    "velocity": 0,
    "type": "channel",
    "noteNumber": 71,
    "channel": 0,
    "deltaTime": 120
  },
  {
    "subtype": "noteOn",
    "velocity": 0,
    "type": "channel",
    "noteNumber": 70,
    "channel": 0,
    "deltaTime": 120
  },
  {
    "subtype": "noteOn",
    "velocity": 0,
    "type": "channel",
    "noteNumber": 67,
    "channel": 0,
    "deltaTime": 120
  },
  {
    "subtype": "noteOn",
    "velocity": 0,
    "type": "channel",
    "noteNumber": 67,
    "channel": 0,
    "deltaTime": 120
  },
  {
    "subtype": "noteOn",
    "velocity": 0,
    "type": "channel",
    "noteNumber": 68,
    "channel": 0,
    "deltaTime": 120
  },
  {
    "subtype": "noteOn",
    "velocity": 0,
    "type": "channel",
    "noteNumber": 68,
    "channel": 0,
    "deltaTime": 120
  },
  {
    "subtype": "noteOff",
    "velocity": 0,
    "type": "channel",
    "noteNumber": 68,
    "channel": 0,
    "deltaTime": 0
  },
  {
    "subtype": "noteOn",
    "velocity": 0,
    "type": "channel",
    "noteNumber": 71,
    "channel": 0,
    "deltaTime": 120
  },
  {
    "subtype": "noteOn",
    "velocity": 0,
    "type": "channel",
    "noteNumber": 75,
    "channel": 0,
    "deltaTime": 120
  },
  {
    "subtype": "noteOn",
    "velocity": 0,
    "type": "channel",
    "noteNumber": 75,
    "channel": 0,
    "deltaTime": 120
  },
  {
    "subtype": "noteOn",
    "velocity": 0,
    "type": "channel",
    "noteNumber": 76,
    "channel": 0,
    "deltaTime": 120
  },
  {
    "subtype": "noteOn",
    "velocity": 0,
    "type": "channel",
    "noteNumber": 76,
    "channel": 0,
    "deltaTime": 120
  },
  {
    "subtype": "noteOn",
    "velocity": 0,
    "type": "channel",
    "noteNumber": 80,
    "channel": 0,
    "deltaTime": 120
  },
  {
    "subtype": "noteOn",
    "velocity": 0,
    "type": "channel",
    "noteNumber": 80,
    "channel": 0,
    "deltaTime": 120
  },
  {
    "subtype": "noteOn",
    "velocity": 0,
    "type": "channel",
    "noteNumber": 83,
    "channel": 0,
    "deltaTime": 120
  },
  {
    "subtype": "noteOn",
    "velocity": 0,
    "type": "channel",
    "noteNumber": 80,
    "channel": 0,
    "deltaTime": 120
  },
  {
    "subtype": "noteOn",
    "velocity": 0,
    "type": "channel",
    "noteNumber": 75,
    "channel": 0,
    "deltaTime": 120
  },
  {
    "subtype": "noteOn",
    "velocity": 0,
    "type": "channel",
    "noteNumber": 75,
    "channel": 0,
    "deltaTime": 120
  },
  {
    "subtype": "noteOff",
    "velocity": 0,
    "type": "channel",
    "noteNumber": 75,
    "channel": 0,
    "deltaTime": 0
  },
  {
    "subtype": "noteOn",
    "velocity": 0,
    "type": "channel",
    "noteNumber": 79,
    "channel": 0,
    "deltaTime": 120
  },
  {
    "subtype": "noteOn",
    "velocity": 0,
    "type": "channel",
    "noteNumber": 82,
    "channel": 0,
    "deltaTime": 120
  },
  {
    "subtype": "noteOn",
    "velocity": 0,
    "type": "channel",
    "noteNumber": 82,
    "channel": 0,
    "deltaTime": 120
  },
  {
    "subtype": "noteOn",
    "velocity": 0,
    "type": "channel",
    "noteNumber": 83,
    "channel": 0,
    "deltaTime": 120
  },
  {
    "subtype": "noteOn",
    "velocity": 0,
    "type": "channel",
    "noteNumber": 83,
    "channel": 0,
    "deltaTime": 120
  },
  {
    "subtype": "noteOn",
    "velocity": 0,
    "type": "channel",
    "noteNumber": 80,
    "channel": 0,
    "deltaTime": 120
  },
  {
    "subtype": "noteOn",
    "velocity": 0,
    "type": "channel",
    "noteNumber": 80,
    "channel": 0,
    "deltaTime": 120
  },
  {
    "subtype": "noteOff",
    "velocity": 0,
    "type": "channel",
    "noteNumber": 80,
    "channel": 0,
    "deltaTime": 0
  },
  {
    "subtype": "noteOn",
    "velocity": 0,
    "type": "channel",
    "noteNumber": 68,
    "channel": 0,
    "deltaTime": 120
  },
  {
    "subtype": "noteOff",
    "velocity": 0,
    "type": "channel",
    "noteNumber": 68,
    "channel": 0,
    "deltaTime": 0
  },
  {
    "subtype": "noteOn",
    "velocity": 0,
    "type": "channel",
    "noteNumber": 68,
    "channel": 0,
    "deltaTime": 120
  },
  {
    "subtype": "noteOn",
    "velocity": 0,
    "type": "channel",
    "noteNumber": 71,
    "channel": 0,
    "deltaTime": 120
  },
  {
    "subtype": "noteOn",
    "velocity": 0,
    "type": "channel",
    "noteNumber": 71,
    "channel": 0,
    "deltaTime": 120
  },
  {
    "subtype": "noteOn",
    "velocity": 0,
    "type": "channel",
    "noteNumber": 75,
    "channel": 0,
    "deltaTime": 120
  },
  {
    "subtype": "noteOn",
    "velocity": 0,
    "type": "channel",
    "noteNumber": 75,
    "channel": 0,
    "deltaTime": 120
  },
  {
    "subtype": "noteOn",
    "velocity": 0,
    "type": "channel",
    "noteNumber": 67,
    "channel": 0,
    "deltaTime": 120
  },
  {
    "subtype": "noteOn",
    "velocity": 0,
    "type": "channel",
    "noteNumber": 67,
    "channel": 0,
    "deltaTime": 120
  },
  {
    "subtype": "noteOn",
    "velocity": 0,
    "type": "channel",
    "noteNumber": 76,
    "channel": 0,
    "deltaTime": 120
  },
  {
    "subtype": "noteOn",
    "velocity": 0,
    "type": "channel",
    "noteNumber": 76,
    "channel": 0,
    "deltaTime": 120
  },
  {
    "subtype": "noteOn",
    "velocity": 0,
    "type": "channel",
    "noteNumber": 75,
    "channel": 0,
    "deltaTime": 120
  },
  {
    "subtype": "noteOn",
    "velocity": 0,
    "type": "channel",
    "noteNumber": 75,
    "channel": 0,
    "deltaTime": 120
  },
  {
    "subtype": "noteOn",
    "velocity": 0,
    "type": "channel",
    "noteNumber": 73,
    "channel": 0,
    "deltaTime": 120
  },
  {
    "subtype": "noteOn",
    "velocity": 0,
    "type": "channel",
    "noteNumber": 73,
    "channel": 0,
    "deltaTime": 120
  },
  {
    "subtype": "noteOn",
    "velocity": 0,
    "type": "channel",
    "noteNumber": 68,
    "channel": 0,
    "deltaTime": 120
  },
  {
    "subtype": "noteOn",
    "velocity": 0,
    "type": "channel",
    "noteNumber": 68,
    "channel": 0,
    "deltaTime": 120
  },
  {
    "subtype": "noteOff",
    "velocity": 0,
    "type": "channel",
    "noteNumber": 68,
    "channel": 0,
    "deltaTime": 0
  },
  {
    "subtype": "noteOn",
    "velocity": 0,
    "type": "channel",
    "noteNumber": 77,
    "channel": 0,
    "deltaTime": 120
  },
  {
    "subtype": "noteOff",
    "velocity": 0,
    "type": "channel",
    "noteNumber": 77,
    "channel": 0,
    "deltaTime": 0
  },
  {
    "subtype": "noteOn",
    "velocity": 0,
    "type": "channel",
    "noteNumber": 68,
    "channel": 0,
    "deltaTime": 120
  },
  {
    "subtype": "noteOn",
    "velocity": 0,
    "type": "channel",
    "noteNumber": 68,
    "channel": 0,
    "deltaTime": 120
  },
  {
    "subtype": "noteOn",
    "velocity": 0,
    "type": "channel",
    "noteNumber": 68,
    "channel": 0,
    "deltaTime": 120
  },
  {
    "subtype": "noteOff",
    "velocity": 0,
    "type": "channel",
    "noteNumber": 68,
    "channel": 0,
    "deltaTime": 0
  },
  {
    "subtype": "noteOff",
    "velocity": 0,
    "type": "channel",
    "noteNumber": 68,
    "channel": 0,
    "deltaTime": 0
  },
  {
    "subtype": "noteOff",
    "velocity": 0,
    "type": "channel",
    "noteNumber": 68,
    "channel": 0,
    "deltaTime": 0
  },
  {
    "subtype": "noteOn",
    "velocity": 0,
    "type": "channel",
    "noteNumber": 68,
    "channel": 0,
    "deltaTime": 120
  },
  {
    "subtype": "noteOff",
    "velocity": 0,
    "type": "channel",
    "noteNumber": 68,
    "channel": 0,
    "deltaTime": 0
  },
  {
    "subtype": "noteOn",
    "velocity": 0,
    "type": "channel",
    "noteNumber": 62,
    "channel": 0,
    "deltaTime": 120
  },
  {
    "subtype": "noteOff",
    "velocity": 0,
    "type": "channel",
    "noteNumber": 62,
    "channel": 0,
    "deltaTime": 0
  },
  {
    "subtype": "noteOn",
    "velocity": 0,
    "type": "channel",
    "noteNumber": 61,
    "channel": 0,
    "deltaTime": 120
  },
  {
    "subtype": "noteOff",
    "velocity": 0,
    "type": "channel",
    "noteNumber": 61,
    "channel": 0,
    "deltaTime": 0
  },
  {
    "subtype": "noteOn",
    "velocity": 0,
    "type": "channel",
    "noteNumber": 76,
    "channel": 0,
    "deltaTime": 120
  },
  {
    "subtype": "noteOff",
    "velocity": 0,
    "type": "channel",
    "noteNumber": 76,
    "channel": 0,
    "deltaTime": 0
  },
  {
    "subtype": "noteOn",
    "velocity": 0,
    "type": "channel",
    "noteNumber": 82,
    "channel": 0,
    "deltaTime": 120
  },
  {
    "subtype": "noteOn",
    "velocity": 0,
    "type": "channel",
    "noteNumber": 79,
    "channel": 0,
    "deltaTime": 120
  },
  {
    "subtype": "noteOn",
    "velocity": 0,
    "type": "channel",
    "noteNumber": 79,
    "channel": 0,
    "deltaTime": 120
  },
  {
    "subtype": "noteOn",
    "velocity": 0,
    "type": "channel",
    "noteNumber": 80,
    "channel": 0,
    "deltaTime": 120
  },
  {
    "subtype": "noteOn",
    "velocity": 0,
    "type": "channel",
    "noteNumber": 75,
    "channel": 0,
    "deltaTime": 120
  },
  {
    "subtype": "noteOn",
    "velocity": 0,
    "type": "channel",
    "noteNumber": 73,
    "channel": 0,
    "deltaTime": 120
  },
  {
    "subtype": "noteOn",
    "velocity": 0,
    "type": "channel",
    "noteNumber": 73,
    "channel": 0,
    "deltaTime": 120
  },
  {
    "subtype": "noteOn",
    "velocity": 0,
    "type": "channel",
    "noteNumber": 71,
    "channel": 0,
    "deltaTime": 120
  },
  {
    "subtype": "noteOn",
    "velocity": 0,
    "type": "channel",
    "noteNumber": 71,
    "channel": 0,
    "deltaTime": 120
  },
  {
    "subtype": "noteOn",
    "velocity": 0,
    "type": "channel",
    "noteNumber": 70,
    "channel": 0,
    "deltaTime": 120
  },
  {
    "subtype": "noteOn",
    "velocity": 0,
    "type": "channel",
    "noteNumber": 70,
    "channel": 0,
    "deltaTime": 120
  },
  {
    "subtype": "noteOn",
    "velocity": 0,
    "type": "channel",
    "noteNumber": 71,
    "channel": 0,
    "deltaTime": 120
  },
  {
    "subtype": "noteOn",
    "velocity": 0,
    "type": "channel",
    "noteNumber": 71,
    "channel": 0,
    "deltaTime": 120
  },
  {
    "subtype": "noteOn",
    "velocity": 0,
    "type": "channel",
    "noteNumber": 73,
    "channel": 0,
    "deltaTime": 120
  },
  {
    "subtype": "noteOn",
    "velocity": 0,
    "type": "channel",
    "noteNumber": 73,
    "channel": 0,
    "deltaTime": 120
  },
  {
    "subtype": "noteOn",
    "velocity": 0,
    "type": "channel",
    "noteNumber": 76,
    "channel": 0,
    "deltaTime": 120
  },
  {
    "subtype": "noteOn",
    "velocity": 0,
    "type": "channel",
    "noteNumber": 76,
    "channel": 0,
    "deltaTime": 120
  },
  {
    "subtype": "noteOn",
    "velocity": 0,
    "type": "channel",
    "noteNumber": 75,
    "channel": 0,
    "deltaTime": 120
  },
  {
    "subtype": "noteOn",
    "velocity": 0,
    "type": "channel",
    "noteNumber": 75,
    "channel": 0,
    "deltaTime": 120
  },
  {
    "subtype": "noteOn",
    "velocity": 0,
    "type": "channel",
    "noteNumber": 80,
    "channel": 0,
    "deltaTime": 120
  },
  {
    "subtype": "noteOn",
    "velocity": 0,
    "type": "channel",
    "noteNumber": 80,
    "channel": 0,
    "deltaTime": 120
  },
  {
    "subtype": "noteOn",
    "velocity": 0,
    "type": "channel",
    "noteNumber": 75,
    "channel": 0,
    "deltaTime": 120
  },
  {
    "subtype": "noteOn",
    "velocity": 0,
    "type": "channel",
    "noteNumber": 75,
    "channel": 0,
    "deltaTime": 120
  },
  {
    "subtype": "noteOff",
    "velocity": 0,
    "type": "channel",
    "noteNumber": 75,
    "channel": 0,
    "deltaTime": 0
  },
  {
    "subtype": "noteOn",
    "velocity": 0,
    "type": "channel",
    "noteNumber": 74,
    "channel": 0,
    "deltaTime": 120
  },
  {
    "subtype": "noteOn",
    "velocity": 0,
    "type": "channel",
    "noteNumber": 75,
    "channel": 0,
    "deltaTime": 120
  },
  {
    "subtype": "noteOn",
    "velocity": 0,
    "type": "channel",
    "noteNumber": 75,
    "channel": 0,
    "deltaTime": 120
  },
  {
    "subtype": "noteOff",
    "velocity": 0,
    "type": "channel",
    "noteNumber": 75,
    "channel": 0,
    "deltaTime": 0
  },
  {
    "subtype": "noteOn",
    "velocity": 0,
    "type": "channel",
    "noteNumber": 79,
    "channel": 0,
    "deltaTime": 120
  },
  {
    "subtype": "noteOn",
    "velocity": 0,
    "type": "channel",
    "noteNumber": 80,
    "channel": 0,
    "deltaTime": 120
  },
  {
    "subtype": "noteOn",
    "velocity": 0,
    "type": "channel",
    "noteNumber": 80,
    "channel": 0,
    "deltaTime": 120
  },
  {
    "subtype": "noteOn",
    "velocity": 0,
    "type": "channel",
    "noteNumber": 77,
    "channel": 0,
    "deltaTime": 120
  },
  {
    "subtype": "noteOn",
    "velocity": 0,
    "type": "channel",
    "noteNumber": 77,
    "channel": 0,
    "deltaTime": 120
  },
  {
    "subtype": "noteOff",
    "velocity": 0,
    "type": "channel",
    "noteNumber": 77,
    "channel": 0,
    "deltaTime": 0
  },
  {
    "subtype": "noteOn",
    "velocity": 0,
    "type": "channel",
    "noteNumber": 68,
    "channel": 0,
    "deltaTime": 120
  },
  {
    "subtype": "noteOff",
    "velocity": 0,
    "type": "channel",
    "noteNumber": 68,
    "channel": 0,
    "deltaTime": 0
  },
  {
    "subtype": "noteOn",
    "velocity": 0,
    "type": "channel",
    "noteNumber": 80,
    "channel": 0,
    "deltaTime": 120
  },
  {
    "subtype": "noteOn",
    "velocity": 0,
    "type": "channel",
    "noteNumber": 78,
    "channel": 0,
    "deltaTime": 120
  },
  {
    "subtype": "noteOn",
    "velocity": 0,
    "type": "channel",
    "noteNumber": 62,
    "channel": 0,
    "deltaTime": 120
  },
  {
    "subtype": "noteOn",
    "velocity": 0,
    "type": "channel",
    "noteNumber": 77,
    "channel": 0,
    "deltaTime": 120
  },
  {
    "subtype": "noteOn",
    "velocity": 0,
    "type": "channel",
    "noteNumber": 77,
    "channel": 0,
    "deltaTime": 120
  },
  {
    "subtype": "noteOff",
    "velocity": 0,
    "type": "channel",
    "noteNumber": 77,
    "channel": 0,
    "deltaTime": 0
  },
  {
    "subtype": "noteOn",
    "velocity": 0,
    "type": "channel",
    "noteNumber": 79,
    "channel": 0,
    "deltaTime": 120
  },
  {
    "subtype": "noteOn",
    "velocity": 0,
    "type": "channel",
    "noteNumber": 80,
    "channel": 0,
    "deltaTime": 120
  },
  {
    "subtype": "noteOn",
    "velocity": 0,
    "type": "channel",
    "noteNumber": 80,
    "channel": 0,
    "deltaTime": 120
  },
  {
    "subtype": "noteOn",
    "velocity": 0,
    "type": "channel",
    "noteNumber": 82,
    "channel": 0,
    "deltaTime": 120
  },
  {
    "subtype": "noteOn",
    "velocity": 0,
    "type": "channel",
    "noteNumber": 82,
    "channel": 0,
    "deltaTime": 120
  },
  {
    "subtype": "noteOff",
    "velocity": 0,
    "type": "channel",
    "noteNumber": 82,
    "channel": 0,
    "deltaTime": 0
  },
  {
    "subtype": "noteOn",
    "velocity": 0,
    "type": "channel",
    "noteNumber": 83,
    "channel": 0,
    "deltaTime": 120
  },
  {
    "subtype": "noteOn",
    "velocity": 0,
    "type": "channel",
    "noteNumber": 82,
    "channel": 0,
    "deltaTime": 120
  },
  {
    "subtype": "noteOn",
    "velocity": 0,
    "type": "channel",
    "noteNumber": 82,
    "channel": 0,
    "deltaTime": 120
  },
  {
    "subtype": "noteOff",
    "velocity": 0,
    "type": "channel",
    "noteNumber": 82,
    "channel": 0,
    "deltaTime": 0
  },
  {
    "subtype": "noteOn",
    "velocity": 0,
    "type": "channel",
    "noteNumber": 75,
    "channel": 0,
    "deltaTime": 120
  },
  {
    "subtype": "noteOn",
    "velocity": 0,
    "type": "channel",
    "noteNumber": 78,
    "channel": 0,
    "deltaTime": 120
  },
  {
    "subtype": "noteOn",
    "velocity": 0,
    "type": "channel",
    "noteNumber": 78,
    "channel": 0,
    "deltaTime": 120
  },
  {
    "subtype": "noteOn",
    "velocity": 0,
    "type": "channel",
    "noteNumber": 77,
    "channel": 0,
    "deltaTime": 120
  },
  {
    "subtype": "noteOn",
    "velocity": 0,
    "type": "channel",
    "noteNumber": 77,
    "channel": 0,
    "deltaTime": 120
  },
  {
    "subtype": "noteOn",
    "velocity": 0,
    "type": "channel",
    "noteNumber": 75,
    "channel": 0,
    "deltaTime": 120
  },
  {
    "subtype": "noteOn",
    "velocity": 0,
    "type": "channel",
    "noteNumber": 75,
    "channel": 0,
    "deltaTime": 120
  },
  {
    "subtype": "noteOn",
    "velocity": 0,
    "type": "channel",
    "noteNumber": 74,
    "channel": 0,
    "deltaTime": 120
  },
  {
    "subtype": "noteOn",
    "velocity": 0,
    "type": "channel",
    "noteNumber": 74,
    "channel": 0,
    "deltaTime": 120
  },
  {
    "subtype": "noteOff",
    "velocity": 0,
    "type": "channel",
    "noteNumber": 74,
    "channel": 0,
    "deltaTime": 0
  },
  {
    "subtype": "noteOn",
    "velocity": 0,
    "type": "channel",
    "noteNumber": 83,
    "channel": 0,
    "deltaTime": 120
  },
  {
    "subtype": "noteOff",
    "velocity": 0,
    "type": "channel",
    "noteNumber": 83,
    "channel": 0,
    "deltaTime": 0
  },
  {
    "subtype": "noteOn",
    "velocity": 0,
    "type": "channel",
    "noteNumber": 69,
    "channel": 0,
    "deltaTime": 120
  },
  {
    "subtype": "noteOn",
    "velocity": 0,
    "type": "channel",
    "noteNumber": 78,
    "channel": 0,
    "deltaTime": 120
  },
  {
    "subtype": "noteOn",
    "velocity": 0,
    "type": "channel",
    "noteNumber": 83,
    "channel": 0,
    "deltaTime": 120
  },
  {
    "subtype": "noteOn",
    "velocity": 0,
    "type": "channel",
    "noteNumber": 77,
    "channel": 0,
    "deltaTime": 120
  },
  {
    "subtype": "noteOn",
    "velocity": 0,
    "type": "channel",
    "noteNumber": 77,
    "channel": 0,
    "deltaTime": 120
  },
  {
    "subtype": "noteOn",
    "velocity": 0,
    "type": "channel",
    "noteNumber": 75,
    "channel": 0,
    "deltaTime": 120
  },
  {
    "subtype": "noteOn",
    "velocity": 0,
    "type": "channel",
    "noteNumber": 75,
    "channel": 0,
    "deltaTime": 120
  },
  {
    "subtype": "noteOn",
    "velocity": 0,
    "type": "channel",
    "noteNumber": 74,
    "channel": 0,
    "deltaTime": 120
  },
  {
    "subtype": "noteOn",
    "velocity": 0,
    "type": "channel",
    "noteNumber": 74,
    "channel": 0,
    "deltaTime": 120
  },
  {
    "subtype": "noteOff",
    "velocity": 0,
    "type": "channel",
    "noteNumber": 74,
    "channel": 0,
    "deltaTime": 0
  },
  {
    "subtype": "noteOn",
    "velocity": 0,
    "type": "channel",
    "noteNumber": 82,
    "channel": 0,
    "deltaTime": 120
  },
  {
    "subtype": "noteOff",
    "velocity": 0,
    "type": "channel",
    "noteNumber": 82,
    "channel": 0,
    "deltaTime": 0
  },
  {
    "subtype": "noteOn",
    "velocity": 0,
    "type": "channel",
    "noteNumber": 82,
    "channel": 0,
    "deltaTime": 120
  },
  {
    "subtype": "noteOn",
    "velocity": 0,
    "type": "channel",
    "noteNumber": 87,
    "channel": 0,
    "deltaTime": 120
  },
  {
    "subtype": "noteOn",
    "velocity": 0,
    "type": "channel",
    "noteNumber": 85,
    "channel": 0,
    "deltaTime": 120
  },
  {
    "subtype": "noteOn",
    "velocity": 0,
    "type": "channel",
    "noteNumber": 85,
    "channel": 0,
    "deltaTime": 120
  },
  {
    "subtype": "noteOn",
    "velocity": 0,
    "type": "channel",
    "noteNumber": 76,
    "channel": 0,
    "deltaTime": 120
  },
  {
    "subtype": "noteOn",
    "velocity": 0,
    "type": "channel",
    "noteNumber": 75,
    "channel": 0,
    "deltaTime": 120
  },
  {
    "subtype": "noteOn",
    "velocity": 0,
    "type": "channel",
    "noteNumber": 75,
    "channel": 0,
    "deltaTime": 120
  },
  {
    "subtype": "noteOff",
    "velocity": 0,
    "type": "channel",
    "noteNumber": 75,
    "channel": 0,
    "deltaTime": 0
  },
  {
    "subtype": "noteOff",
    "velocity": 0,
    "type": "channel",
    "noteNumber": 75,
    "channel": 0,
    "deltaTime": 0
  },
  {
    "subtype": "noteOff",
    "velocity": 0,
    "type": "channel",
    "noteNumber": 75,
    "channel": 0,
    "deltaTime": 0
  },
  {
    "subtype": "noteOn",
    "velocity": 0,
    "type": "channel",
    "noteNumber": 82,
    "channel": 0,
    "deltaTime": 120
  },
  {
    "subtype": "noteOff",
    "velocity": 0,
    "type": "channel",
    "noteNumber": 82,
    "channel": 0,
    "deltaTime": 0
  },
  {
    "subtype": "noteOn",
    "velocity": 0,
    "type": "channel",
    "noteNumber": 79,
    "channel": 0,
    "deltaTime": 120
  },
  {
    "subtype": "noteOn",
    "velocity": 0,
    "type": "channel",
    "noteNumber": 79,
    "channel": 0,
    "deltaTime": 120
  },
  {
    "subtype": "noteOn",
    "velocity": 0,
    "type": "channel",
    "noteNumber": 79,
    "channel": 0,
    "deltaTime": 120
  },
  {
    "subtype": "noteOn",
    "velocity": 0,
    "type": "channel",
    "noteNumber": 75,
    "channel": 0,
    "deltaTime": 120
  },
  {
    "subtype": "noteOn",
    "velocity": 0,
    "type": "channel",
    "noteNumber": 75,
    "channel": 0,
    "deltaTime": 120
  },
  {
    "subtype": "noteOn",
    "velocity": 0,
    "type": "channel",
    "noteNumber": 79,
    "channel": 0,
    "deltaTime": 120
  },
  {
    "subtype": "noteOn",
    "velocity": 0,
    "type": "channel",
    "noteNumber": 80,
    "channel": 0,
    "deltaTime": 120
  },
  {
    "subtype": "noteOn",
    "velocity": 0,
    "type": "channel",
    "noteNumber": 75,
    "channel": 0,
    "deltaTime": 120
  },
  {
    "subtype": "noteOn",
    "velocity": 0,
    "type": "channel",
    "noteNumber": 75,
    "channel": 0,
    "deltaTime": 120
  },
  {
    "subtype": "noteOff",
    "velocity": 0,
    "type": "channel",
    "noteNumber": 75,
    "channel": 0,
    "deltaTime": 0
  },
  {
    "subtype": "noteOn",
    "velocity": 0,
    "type": "channel",
    "noteNumber": 79,
    "channel": 0,
    "deltaTime": 120
  },
  {
    "subtype": "noteOff",
    "velocity": 0,
    "type": "channel",
    "noteNumber": 79,
    "channel": 0,
    "deltaTime": 0
  },
  {
    "subtype": "noteOn",
    "velocity": 0,
    "type": "channel",
    "noteNumber": 75,
    "channel": 0,
    "deltaTime": 120
  },
  {
    "subtype": "noteOff",
    "velocity": 0,
    "type": "channel",
    "noteNumber": 75,
    "channel": 0,
    "deltaTime": 0
  },
  {
    "subtype": "noteOff",
    "velocity": 0,
    "type": "channel",
    "noteNumber": 75,
    "channel": 0,
    "deltaTime": 0
  },
  {
    "subtype": "noteOff",
    "velocity": 0,
    "type": "channel",
    "noteNumber": 75,
    "channel": 0,
    "deltaTime": 0
  },
  {
    "subtype": "noteOn",
    "velocity": 0,
    "type": "channel",
    "noteNumber": 82,
    "channel": 0,
    "deltaTime": 120
  },
  {
    "subtype": "noteOn",
    "velocity": 0,
    "type": "channel",
    "noteNumber": 79,
    "channel": 0,
    "deltaTime": 120
  },
  {
    "subtype": "noteOn",
    "velocity": 0,
    "type": "channel",
    "noteNumber": 79,
    "channel": 0,
    "deltaTime": 120
  },
  {
    "subtype": "noteOn",
    "velocity": 0,
    "type": "channel",
    "noteNumber": 80,
    "channel": 0,
    "deltaTime": 120
  },
  {
    "subtype": "noteOn",
    "velocity": 0,
    "type": "channel",
    "noteNumber": 80,
    "channel": 0,
    "deltaTime": 120
  },
  {
    "subtype": "noteOff",
    "velocity": 0,
    "type": "channel",
    "noteNumber": 80,
    "channel": 0,
    "deltaTime": 0
  },
  {
    "subtype": "noteOn",
    "velocity": 0,
    "type": "channel",
    "noteNumber": 68,
    "channel": 0,
    "deltaTime": 120
  },
  {
    "subtype": "noteOff",
    "velocity": 0,
    "type": "channel",
    "noteNumber": 68,
    "channel": 0,
    "deltaTime": 0
  },
  {
    "subtype": "noteOn",
    "velocity": 0,
    "type": "channel",
    "noteNumber": 83,
    "channel": 0,
    "deltaTime": 120
  },
  {
    "subtype": "noteOn",
    "velocity": 0,
    "type": "channel",
    "noteNumber": 82,
    "channel": 0,
    "deltaTime": 120
  },
  {
    "subtype": "noteOn",
    "velocity": 0,
    "type": "channel",
    "noteNumber": 82,
    "channel": 0,
    "deltaTime": 120
  },
  {
    "subtype": "noteOn",
    "velocity": 0,
    "type": "channel",
    "noteNumber": 80,
    "channel": 0,
    "deltaTime": 120
  },
  {
    "subtype": "noteOn",
    "velocity": 0,
    "type": "channel",
    "noteNumber": 80,
    "channel": 0,
    "deltaTime": 120
  },
  {
    "subtype": "noteOn",
    "velocity": 0,
    "type": "channel",
    "noteNumber": 79,
    "channel": 0,
    "deltaTime": 120
  },
  {
    "subtype": "noteOn",
    "velocity": 0,
    "type": "channel",
    "noteNumber": 71,
    "channel": 0,
    "deltaTime": 120
  },
  {
    "subtype": "noteOff",
    "velocity": 0,
    "type": "channel",
    "noteNumber": 71,
    "channel": 0,
    "deltaTime": 0
  },
  {
    "subtype": "noteOn",
    "velocity": 0,
    "type": "channel",
    "noteNumber": 81,
    "channel": 0,
    "deltaTime": 120
  },
  {
    "subtype": "noteOn",
    "velocity": 0,
    "type": "channel",
    "noteNumber": 70,
    "channel": 0,
    "deltaTime": 120
  },
  {
    "subtype": "noteOn",
    "velocity": 0,
    "type": "channel",
    "noteNumber": 71,
    "channel": 0,
    "deltaTime": 120
  },
  {
    "subtype": "noteOn",
    "velocity": 0,
    "type": "channel",
    "noteNumber": 72,
    "channel": 0,
    "deltaTime": 120
  },
  {
    "subtype": "noteOn",
    "velocity": 0,
    "type": "channel",
    "noteNumber": 76,
    "channel": 0,
    "deltaTime": 120
  },
  {
    "subtype": "noteOn",
    "velocity": 0,
    "type": "channel",
    "noteNumber": 76,
    "channel": 0,
    "deltaTime": 120
  },
  {
    "subtype": "noteOn",
    "velocity": 0,
    "type": "channel",
    "noteNumber": 75,
    "channel": 0,
    "deltaTime": 120
  },
  {
    "subtype": "noteOn",
    "velocity": 0,
    "type": "channel",
    "noteNumber": 75,
    "channel": 0,
    "deltaTime": 120
  },
  {
    "subtype": "noteOn",
    "velocity": 0,
    "type": "channel",
    "noteNumber": 73,
    "channel": 0,
    "deltaTime": 120
  },
  {
    "subtype": "noteOn",
    "velocity": 0,
    "type": "channel",
    "noteNumber": 73,
    "channel": 0,
    "deltaTime": 120
  },
  {
    "subtype": "noteOn",
    "velocity": 0,
    "type": "channel",
    "noteNumber": 71,
    "channel": 0,
    "deltaTime": 120
  },
  {
    "subtype": "noteOn",
    "velocity": 0,
    "type": "channel",
    "noteNumber": 71,
    "channel": 0,
    "deltaTime": 120
  },
  {
    "subtype": "noteOff",
    "velocity": 0,
    "type": "channel",
    "noteNumber": 71,
    "channel": 0,
    "deltaTime": 0
  },
  {
    "subtype": "noteOn",
    "velocity": 0,
    "type": "channel",
    "noteNumber": 82,
    "channel": 0,
    "deltaTime": 120
  },
  {
    "subtype": "noteOff",
    "velocity": 0,
    "type": "channel",
    "noteNumber": 82,
    "channel": 0,
    "deltaTime": 0
  },
  {
    "subtype": "noteOn",
    "velocity": 0,
    "type": "channel",
    "noteNumber": 85,
    "channel": 0,
    "deltaTime": 120
  },
  {
    "subtype": "noteOn",
    "velocity": 0,
    "type": "channel",
    "noteNumber": 83,
    "channel": 0,
    "deltaTime": 120
  },
  {
    "subtype": "noteOff",
    "velocity": 0,
    "type": "channel",
    "noteNumber": 83,
    "channel": 0,
    "deltaTime": 0
  },
  {
    "subtype": "noteOn",
    "velocity": 0,
    "type": "channel",
    "noteNumber": 82,
    "channel": 0,
    "deltaTime": 120
  },
  {
    "subtype": "noteOn",
    "velocity": 0,
    "type": "channel",
    "noteNumber": 85,
    "channel": 0,
    "deltaTime": 120
  },
  {
    "subtype": "noteOn",
    "velocity": 0,
    "type": "channel",
    "noteNumber": 83,
    "channel": 0,
    "deltaTime": 120
  },
  {
    "subtype": "noteOn",
    "velocity": 0,
    "type": "channel",
    "noteNumber": 82,
    "channel": 0,
    "deltaTime": 120
  },
  {
    "subtype": "noteOn",
    "velocity": 0,
    "type": "channel",
    "noteNumber": 82,
    "channel": 0,
    "deltaTime": 120
  },
  {
    "subtype": "noteOn",
    "velocity": 0,
    "type": "channel",
    "noteNumber": 79,
    "channel": 0,
    "deltaTime": 120
  },
  {
    "subtype": "noteOn",
    "velocity": 0,
    "type": "channel",
    "noteNumber": 79,
    "channel": 0,
    "deltaTime": 120
  },
  {
    "subtype": "noteOn",
    "velocity": 0,
    "type": "channel",
    "noteNumber": 79,
    "channel": 0,
    "deltaTime": 120
  },
  {
    "subtype": "noteOn",
    "velocity": 0,
    "type": "channel",
    "noteNumber": 80,
    "channel": 0,
    "deltaTime": 120
  },
  {
    "subtype": "noteOn",
    "velocity": 0,
    "type": "channel",
    "noteNumber": 80,
    "channel": 0,
    "deltaTime": 120
  },
  {
    "subtype": "noteOn",
    "velocity": 0,
    "type": "channel",
    "noteNumber": 83,
    "channel": 0,
    "deltaTime": 120
  },
  {
    "subtype": "noteOn",
    "velocity": 0,
    "type": "channel",
    "noteNumber": 62,
    "channel": 0,
    "deltaTime": 120
  },
  {
    "subtype": "noteOff",
    "velocity": 0,
    "type": "channel",
    "noteNumber": 62,
    "channel": 0,
    "deltaTime": 0
  },
  {
    "subtype": "noteOn",
    "velocity": 0,
    "type": "channel",
    "noteNumber": 78,
    "channel": 0,
    "deltaTime": 120
  },
  {
    "subtype": "noteOn",
    "velocity": 0,
    "type": "channel",
    "noteNumber": 78,
    "channel": 0,
    "deltaTime": 120
  },
  {
    "subtype": "noteOn",
    "velocity": 0,
    "type": "channel",
    "noteNumber": 78,
    "channel": 0,
    "deltaTime": 120
  },
  {
    "subtype": "noteOn",
    "velocity": 0,
    "type": "channel",
    "noteNumber": 76,
    "channel": 0,
    "deltaTime": 120
  },
  {
    "subtype": "noteOn",
    "velocity": 0,
    "type": "channel",
    "noteNumber": 85,
    "channel": 0,
    "deltaTime": 120
  },
  {
    "subtype": "noteOn",
    "velocity": 0,
    "type": "channel",
    "noteNumber": 85,
    "channel": 0,
    "deltaTime": 120
  },
  {
    "subtype": "noteOn",
    "velocity": 0,
    "type": "channel",
    "noteNumber": 85,
    "channel": 0,
    "deltaTime": 120
  },
  {
    "subtype": "noteOn",
    "velocity": 0,
    "type": "channel",
    "noteNumber": 87,
    "channel": 0,
    "deltaTime": 120
  },
  {
    "subtype": "noteOn",
    "velocity": 0,
    "type": "channel",
    "noteNumber": 85,
    "channel": 0,
    "deltaTime": 120
  },
  {
    "subtype": "noteOn",
    "velocity": 0,
    "type": "channel",
    "noteNumber": 85,
    "channel": 0,
    "deltaTime": 120
  },
  {
    "subtype": "noteOn",
    "velocity": 0,
    "type": "channel",
    "noteNumber": 85,
    "channel": 0,
    "deltaTime": 120
  },
  {
    "subtype": "noteOn",
    "velocity": 0,
    "type": "channel",
    "noteNumber": 85,
    "channel": 0,
    "deltaTime": 120
  },
  {
    "subtype": "noteOn",
    "velocity": 0,
    "type": "channel",
    "noteNumber": 85,
    "channel": 0,
    "deltaTime": 120
  },
  {
    "subtype": "noteOn",
    "velocity": 0,
    "type": "channel",
    "noteNumber": 87,
    "channel": 0,
    "deltaTime": 120
  },
  {
    "subtype": "noteOn",
    "velocity": 0,
    "type": "channel",
    "noteNumber": 87,
    "channel": 0,
    "deltaTime": 120
  },
  {
    "subtype": "noteOn",
    "velocity": 0,
    "type": "channel",
    "noteNumber": 83,
    "channel": 0,
    "deltaTime": 120
  },
  {
    "subtype": "noteOn",
    "velocity": 0,
    "type": "channel",
    "noteNumber": 85,
    "channel": 0,
    "deltaTime": 120
  },
  {
    "subtype": "noteOn",
    "velocity": 0,
    "type": "channel",
    "noteNumber": 85,
    "channel": 0,
    "deltaTime": 120
  },
  {
    "subtype": "noteOn",
    "velocity": 0,
    "type": "channel",
    "noteNumber": 85,
    "channel": 0,
    "deltaTime": 120
  },
  {
    "subtype": "noteOn",
    "velocity": 0,
    "type": "channel",
    "noteNumber": 85,
    "channel": 0,
    "deltaTime": 120
  },
  {
    "subtype": "noteOn",
    "velocity": 0,
    "type": "channel",
    "noteNumber": 85,
    "channel": 0,
    "deltaTime": 120
  },
  {
    "subtype": "noteOn",
    "velocity": 0,
    "type": "channel",
    "noteNumber": 83,
    "channel": 0,
    "deltaTime": 120
  },
  {
    "subtype": "noteOn",
    "velocity": 0,
    "type": "channel",
    "noteNumber": 83,
    "channel": 0,
    "deltaTime": 120
  },
  {
    "subtype": "noteOn",
    "velocity": 0,
    "type": "channel",
    "noteNumber": 83,
    "channel": 0,
    "deltaTime": 120
  },
  {
    "subtype": "noteOn",
    "velocity": 0,
    "type": "channel",
    "noteNumber": 82,
    "channel": 0,
    "deltaTime": 120
  },
  {
    "subtype": "noteOn",
    "velocity": 0,
    "type": "channel",
    "noteNumber": 82,
    "channel": 0,
    "deltaTime": 120
  },
  {
    "subtype": "noteOn",
    "velocity": 0,
    "type": "channel",
    "noteNumber": 83,
    "channel": 0,
    "deltaTime": 120
  },
  {
    "subtype": "noteOn",
    "velocity": 0,
    "type": "channel",
    "noteNumber": 83,
    "channel": 0,
    "deltaTime": 120
  },
  {
    "subtype": "noteOn",
    "velocity": 0,
    "type": "channel",
    "noteNumber": 85,
    "channel": 0,
    "deltaTime": 120
  },
  {
    "subtype": "noteOn",
    "velocity": 0,
    "type": "channel",
    "noteNumber": 85,
    "channel": 0,
    "deltaTime": 120
  },
  {
    "subtype": "noteOn",
    "velocity": 0,
    "type": "channel",
    "noteNumber": 85,
    "channel": 0,
    "deltaTime": 120
  },
  {
    "subtype": "noteOn",
    "velocity": 0,
    "type": "channel",
    "noteNumber": 85,
    "channel": 0,
    "deltaTime": 120
  },
  {
    "subtype": "noteOn",
    "velocity": 0,
    "type": "channel",
    "noteNumber": 85,
    "channel": 0,
    "deltaTime": 120
  },
  {
    "subtype": "noteOn",
    "velocity": 0,
    "type": "channel",
    "noteNumber": 82,
    "channel": 0,
    "deltaTime": 120
  },
  {
    "subtype": "noteOn",
    "velocity": 0,
    "type": "channel",
    "noteNumber": 82,
    "channel": 0,
    "deltaTime": 120
  },
  {
    "subtype": "noteOn",
    "velocity": 0,
    "type": "channel",
    "noteNumber": 83,
    "channel": 0,
    "deltaTime": 120
  },
  {
    "subtype": "noteOn",
    "velocity": 0,
    "type": "channel",
    "noteNumber": 83,
    "channel": 0,
    "deltaTime": 120
  },
  {
    "subtype": "noteOn",
    "velocity": 0,
    "type": "channel",
    "noteNumber": 82,
    "channel": 0,
    "deltaTime": 120
  },
  {
    "subtype": "noteOn",
    "velocity": 0,
    "type": "channel",
    "noteNumber": 85,
    "channel": 0,
    "deltaTime": 120
  },
  {
    "subtype": "noteOn",
    "velocity": 0,
    "type": "channel",
    "noteNumber": 80,
    "channel": 0,
    "deltaTime": 120
  },
  {
    "subtype": "noteOn",
    "velocity": 0,
    "type": "channel",
    "noteNumber": 83,
    "channel": 0,
    "deltaTime": 120
  },
  {
    "subtype": "noteOn",
    "velocity": 0,
    "type": "channel",
    "noteNumber": 82,
    "channel": 0,
    "deltaTime": 120
  },
  {
    "subtype": "noteOn",
    "velocity": 0,
    "type": "channel",
    "noteNumber": 82,
    "channel": 0,
    "deltaTime": 120
  },
  {
    "subtype": "noteOn",
    "velocity": 0,
    "type": "channel",
    "noteNumber": 80,
    "channel": 0,
    "deltaTime": 120
  },
  {
    "subtype": "noteOn",
    "velocity": 0,
    "type": "channel",
    "noteNumber": 80,
    "channel": 0,
    "deltaTime": 120
  },
  {
    "subtype": "noteOn",
    "velocity": 0,
    "type": "channel",
    "noteNumber": 79,
    "channel": 0,
    "deltaTime": 120
  },
  {
    "subtype": "noteOn",
    "velocity": 0,
    "type": "channel",
    "noteNumber": 79,
    "channel": 0,
    "deltaTime": 120
  },
  {
    "subtype": "noteOff",
    "velocity": 0,
    "type": "channel",
    "noteNumber": 79,
    "channel": 0,
    "deltaTime": 0
  },
  {
    "subtype": "noteOn",
    "velocity": 0,
    "type": "channel",
    "noteNumber": 82,
    "channel": 0,
    "deltaTime": 120
  },
  {
    "subtype": "noteOn",
    "velocity": 0,
    "type": "channel",
    "noteNumber": 85,
    "channel": 0,
    "deltaTime": 120
  },
  {
    "subtype": "noteOn",
    "velocity": 0,
    "type": "channel",
    "noteNumber": 85,
    "channel": 0,
    "deltaTime": 120
  },
  {
    "subtype": "noteOn",
    "velocity": 0,
    "type": "channel",
    "noteNumber": 83,
    "channel": 0,
    "deltaTime": 120
  },
  {
    "subtype": "noteOn",
    "velocity": 0,
    "type": "channel",
    "noteNumber": 83,
    "channel": 0,
    "deltaTime": 120
  },
  {
    "subtype": "noteOn",
    "velocity": 0,
    "type": "channel",
    "noteNumber": 83,
    "channel": 0,
    "deltaTime": 120
  },
  {
    "subtype": "noteOn",
    "velocity": 0,
    "type": "channel",
    "noteNumber": 85,
    "channel": 0,
    "deltaTime": 120
  },
  {
    "subtype": "noteOn",
    "velocity": 0,
    "type": "channel",
    "noteNumber": 85,
    "channel": 0,
    "deltaTime": 120
  },
  {
    "subtype": "noteOn",
    "velocity": 0,
    "type": "channel",
    "noteNumber": 85,
    "channel": 0,
    "deltaTime": 120
  },
  {
    "subtype": "noteOn",
    "velocity": 0,
    "type": "channel",
    "noteNumber": 85,
    "channel": 0,
    "deltaTime": 120
  },
  {
    "subtype": "noteOn",
    "velocity": 0,
    "type": "channel",
    "noteNumber": 85,
    "channel": 0,
    "deltaTime": 120
  },
  {
    "subtype": "noteOff",
    "velocity": 0,
    "type": "channel",
    "noteNumber": 85,
    "channel": 0,
    "deltaTime": 0
  },
  {
    "subtype": "noteOn",
    "velocity": 0,
    "type": "channel",
    "noteNumber": 85,
    "channel": 0,
    "deltaTime": 120
  },
  {
    "subtype": "noteOff",
    "velocity": 0,
    "type": "channel",
    "noteNumber": 85,
    "channel": 0,
    "deltaTime": 0
  },
  {
    "subtype": "noteOn",
    "velocity": 0,
    "type": "channel",
    "noteNumber": 83,
    "channel": 0,
    "deltaTime": 120
  },
  {
    "subtype": "noteOn",
    "velocity": 0,
    "type": "channel",
    "noteNumber": 83,
    "channel": 0,
    "deltaTime": 120
  },
  {
    "subtype": "noteOn",
    "velocity": 0,
    "type": "channel",
    "noteNumber": 85,
    "channel": 0,
    "deltaTime": 120
  },
  {
    "subtype": "noteOn",
    "velocity": 0,
    "type": "channel",
    "noteNumber": 85,
    "channel": 0,
    "deltaTime": 120
  },
  {
    "subtype": "noteOn",
    "velocity": 0,
    "type": "channel",
    "noteNumber": 85,
    "channel": 0,
    "deltaTime": 120
  },
  {
    "subtype": "noteOn",
    "velocity": 0,
    "type": "channel",
    "noteNumber": 85,
    "channel": 0,
    "deltaTime": 120
  },
  {
    "subtype": "noteOn",
    "velocity": 0,
    "type": "channel",
    "noteNumber": 85,
    "channel": 0,
    "deltaTime": 120
  },
  {
    "subtype": "noteOn",
    "velocity": 0,
    "type": "channel",
    "noteNumber": 83,
    "channel": 0,
    "deltaTime": 120
  },
  {
    "subtype": "noteOn",
    "velocity": 0,
    "type": "channel",
    "noteNumber": 83,
    "channel": 0,
    "deltaTime": 120
  },
  {
    "subtype": "noteOn",
    "velocity": 0,
    "type": "channel",
    "noteNumber": 82,
    "channel": 0,
    "deltaTime": 120
  },
  {
    "subtype": "noteOn",
    "velocity": 0,
    "type": "channel",
    "noteNumber": 82,
    "channel": 0,
    "deltaTime": 120
  },
  {
    "subtype": "noteOn",
    "velocity": 0,
    "type": "channel",
    "noteNumber": 80,
    "channel": 0,
    "deltaTime": 120
  },
  {
    "subtype": "noteOn",
    "velocity": 0,
    "type": "channel",
    "noteNumber": 80,
    "channel": 0,
    "deltaTime": 120
  },
  {
    "subtype": "noteOn",
    "velocity": 0,
    "type": "channel",
    "noteNumber": 79,
    "channel": 0,
    "deltaTime": 120
  },
  {
    "subtype": "noteOn",
    "velocity": 0,
    "type": "channel",
    "noteNumber": 79,
    "channel": 0,
    "deltaTime": 120
  },
  {
    "subtype": "noteOn",
    "velocity": 0,
    "type": "channel",
    "noteNumber": 80,
    "channel": 0,
    "deltaTime": 120
  },
  {
    "subtype": "noteOn",
    "velocity": 0,
    "type": "channel",
    "noteNumber": 80,
    "channel": 0,
    "deltaTime": 120
  },
  {
    "subtype": "noteOff",
    "velocity": 0,
    "type": "channel",
    "noteNumber": 80,
    "channel": 0,
    "deltaTime": 0
  },
  {
    "subtype": "noteOn",
    "velocity": 0,
    "type": "channel",
    "noteNumber": 75,
    "channel": 0,
    "deltaTime": 120
  },
  {
    "subtype": "noteOff",
    "velocity": 0,
    "type": "channel",
    "noteNumber": 75,
    "channel": 0,
    "deltaTime": 0
  },
  {
    "subtype": "noteOn",
    "velocity": 0,
    "type": "channel",
    "noteNumber": 76,
    "channel": 0,
    "deltaTime": 120
  },
  {
    "subtype": "noteOn",
    "velocity": 0,
    "type": "channel",
    "noteNumber": 72,
    "channel": 0,
    "deltaTime": 120
  },
  {
    "subtype": "noteOn",
    "velocity": 0,
    "type": "channel",
    "noteNumber": 72,
    "channel": 0,
    "deltaTime": 120
  },
  {
    "subtype": "noteOn",
    "velocity": 0,
    "type": "channel",
    "noteNumber": 75,
    "channel": 0,
    "deltaTime": 120
  },
  {
    "subtype": "noteOn",
    "velocity": 0,
    "type": "channel",
    "noteNumber": 75,
    "channel": 0,
    "deltaTime": 120
  },
  {
    "subtype": "noteOff",
    "velocity": 0,
    "type": "channel",
    "noteNumber": 75,
    "channel": 0,
    "deltaTime": 0
  },
  {
    "subtype": "noteOn",
    "velocity": 0,
    "type": "channel",
    "noteNumber": 81,
    "channel": 0,
    "deltaTime": 120
  },
  {
    "subtype": "noteOff",
    "velocity": 0,
    "type": "channel",
    "noteNumber": 81,
    "channel": 0,
    "deltaTime": 0
  },
  {
    "subtype": "noteOn",
    "velocity": 0,
    "type": "channel",
    "noteNumber": 75,
    "channel": 0,
    "deltaTime": 120
  },
  {
    "subtype": "noteOff",
    "velocity": 0,
    "type": "channel",
    "noteNumber": 75,
    "channel": 0,
    "deltaTime": 0
  },
  {
    "subtype": "noteOff",
    "velocity": 0,
    "type": "channel",
    "noteNumber": 75,
    "channel": 0,
    "deltaTime": 0
  },
  {
    "subtype": "noteOn",
    "velocity": 0,
    "type": "channel",
    "noteNumber": 71,
    "channel": 0,
    "deltaTime": 120
  },
  {
    "subtype": "noteOn",
    "velocity": 0,
    "type": "channel",
    "noteNumber": 71,
    "channel": 0,
    "deltaTime": 120
  },
  {
    "subtype": "noteOff",
    "velocity": 0,
    "type": "channel",
    "noteNumber": 71,
    "channel": 0,
    "deltaTime": 0
  },
  {
    "subtype": "noteOn",
    "velocity": 0,
    "type": "channel",
    "noteNumber": 70,
    "channel": 0,
    "deltaTime": 120
  },
  {
    "subtype": "noteOn",
    "velocity": 0,
    "type": "channel",
    "noteNumber": 71,
    "channel": 0,
    "deltaTime": 120
  },
  {
    "subtype": "noteOn",
    "velocity": 0,
    "type": "channel",
    "noteNumber": 71,
    "channel": 0,
    "deltaTime": 120
  },
  {
    "subtype": "noteOn",
    "velocity": 0,
    "type": "channel",
    "noteNumber": 68,
    "channel": 0,
    "deltaTime": 120
  },
  {
    "subtype": "noteOn",
    "velocity": 0,
    "type": "channel",
    "noteNumber": 68,
    "channel": 0,
    "deltaTime": 120
  },
  {
    "subtype": "noteOff",
    "velocity": 0,
    "type": "channel",
    "noteNumber": 68,
    "channel": 0,
    "deltaTime": 0
  },
  {
    "subtype": "noteOn",
    "velocity": 0,
    "type": "channel",
    "noteNumber": 66,
    "channel": 0,
    "deltaTime": 120
  },
  {
    "subtype": "noteOff",
    "velocity": 0,
    "type": "channel",
    "noteNumber": 66,
    "channel": 0,
    "deltaTime": 0
  },
  {
    "subtype": "noteOn",
    "velocity": 0,
    "type": "channel",
    "noteNumber": 82,
    "channel": 0,
    "deltaTime": 120
  },
  {
    "subtype": "noteOn",
    "velocity": 0,
    "type": "channel",
    "noteNumber": 80,
    "channel": 0,
    "deltaTime": 120
  },
  {
    "subtype": "noteOn",
    "velocity": 0,
    "type": "channel",
    "noteNumber": 80,
    "channel": 0,
    "deltaTime": 120
  },
  {
    "subtype": "noteOn",
    "velocity": 0,
    "type": "channel",
    "noteNumber": 78,
    "channel": 0,
    "deltaTime": 120
  },
  {
    "subtype": "noteOn",
    "velocity": 0,
    "type": "channel",
    "noteNumber": 78,
    "channel": 0,
    "deltaTime": 120
  },
  {
    "subtype": "noteOn",
    "velocity": 0,
    "type": "channel",
    "noteNumber": 76,
    "channel": 0,
    "deltaTime": 120
  },
  {
    "subtype": "noteOn",
    "velocity": 0,
    "type": "channel",
    "noteNumber": 76,
    "channel": 0,
    "deltaTime": 120
  },
  {
    "subtype": "noteOn",
    "velocity": 0,
    "type": "channel",
    "noteNumber": 75,
    "channel": 0,
    "deltaTime": 120
  },
  {
    "subtype": "noteOn",
    "velocity": 0,
    "type": "channel",
    "noteNumber": 75,
    "channel": 0,
    "deltaTime": 120
  },
  {
    "subtype": "noteOn",
    "velocity": 0,
    "type": "channel",
    "noteNumber": 76,
    "channel": 0,
    "deltaTime": 120
  },
  {
    "subtype": "noteOn",
    "velocity": 0,
    "type": "channel",
    "noteNumber": 76,
    "channel": 0,
    "deltaTime": 120
  },
  {
    "subtype": "noteOff",
    "velocity": 0,
    "type": "channel",
    "noteNumber": 76,
    "channel": 0,
    "deltaTime": 0
  },
  {
    "subtype": "noteOn",
    "velocity": 0,
    "type": "channel",
    "noteNumber": 73,
    "channel": 0,
    "deltaTime": 120
  },
  {
    "subtype": "noteOff",
    "velocity": 0,
    "type": "channel",
    "noteNumber": 73,
    "channel": 0,
    "deltaTime": 0
  },
  {
    "subtype": "noteOn",
    "velocity": 0,
    "type": "channel",
    "noteNumber": 73,
    "channel": 0,
    "deltaTime": 120
  },
  {
    "subtype": "noteOff",
    "velocity": 0,
    "type": "channel",
    "noteNumber": 73,
    "channel": 0,
    "deltaTime": 0
  },
  {
    "subtype": "noteOn",
    "velocity": 0,
    "type": "channel",
    "noteNumber": 76,
    "channel": 0,
    "deltaTime": 120
  },
  {
    "subtype": "noteOn",
    "velocity": 0,
    "type": "channel",
    "noteNumber": 85,
    "channel": 0,
    "deltaTime": 120
  },
  {
    "subtype": "noteOn",
    "velocity": 0,
    "type": "channel",
    "noteNumber": 85,
    "channel": 0,
    "deltaTime": 120
  },
  {
    "subtype": "noteOn",
    "velocity": 0,
    "type": "channel",
    "noteNumber": 85,
    "channel": 0,
    "deltaTime": 120
  },
  {
    "subtype": "noteOn",
    "velocity": 0,
    "type": "channel",
    "noteNumber": 85,
    "channel": 0,
    "deltaTime": 120
  },
  {
    "subtype": "noteOn",
    "velocity": 0,
    "type": "channel",
    "noteNumber": 83,
    "channel": 0,
    "deltaTime": 120
  },
  {
    "subtype": "noteOn",
    "velocity": 0,
    "type": "channel",
    "noteNumber": 83,
    "channel": 0,
    "deltaTime": 120
  },
  {
    "subtype": "noteOn",
    "velocity": 0,
    "type": "channel",
    "noteNumber": 83,
    "channel": 0,
    "deltaTime": 120
  },
  {
    "subtype": "noteOn",
    "velocity": 0,
    "type": "channel",
    "noteNumber": 83,
    "channel": 0,
    "deltaTime": 120
  },
  {
    "subtype": "noteOn",
    "velocity": 0,
    "type": "channel",
    "noteNumber": 82,
    "channel": 0,
    "deltaTime": 120
  },
  {
    "subtype": "noteOn",
    "velocity": 0,
    "type": "channel",
    "noteNumber": 82,
    "channel": 0,
    "deltaTime": 120
  },
  {
    "subtype": "noteOn",
    "velocity": 0,
    "type": "channel",
    "noteNumber": 80,
    "channel": 0,
    "deltaTime": 120
  },
  {
    "subtype": "noteOn",
    "velocity": 0,
    "type": "channel",
    "noteNumber": 80,
    "channel": 0,
    "deltaTime": 120
  },
  {
    "subtype": "noteOn",
    "velocity": 0,
    "type": "channel",
    "noteNumber": 78,
    "channel": 0,
    "deltaTime": 120
  },
  {
    "subtype": "noteOn",
    "velocity": 0,
    "type": "channel",
    "noteNumber": 78,
    "channel": 0,
    "deltaTime": 120
  },
  {
    "subtype": "noteOn",
    "velocity": 0,
    "type": "channel",
    "noteNumber": 85,
    "channel": 0,
    "deltaTime": 120
  },
  {
    "subtype": "noteOn",
    "velocity": 0,
    "type": "channel",
    "noteNumber": 76,
    "channel": 0,
    "deltaTime": 120
  },
  {
    "subtype": "noteOn",
    "velocity": 0,
    "type": "channel",
    "noteNumber": 75,
    "channel": 0,
    "deltaTime": 120
  },
  {
    "subtype": "noteOn",
    "velocity": 0,
    "type": "channel",
    "noteNumber": 75,
    "channel": 0,
    "deltaTime": 120
  },
  {
    "subtype": "noteOn",
    "velocity": 0,
    "type": "channel",
    "noteNumber": 73,
    "channel": 0,
    "deltaTime": 120
  },
  {
    "subtype": "noteOn",
    "velocity": 0,
    "type": "channel",
    "noteNumber": 73,
    "channel": 0,
    "deltaTime": 120
  },
  {
    "subtype": "noteOn",
    "velocity": 0,
    "type": "channel",
    "noteNumber": 75,
    "channel": 0,
    "deltaTime": 120
  },
  {
    "subtype": "noteOn",
    "velocity": 0,
    "type": "channel",
    "noteNumber": 75,
    "channel": 0,
    "deltaTime": 120
  },
  {
    "subtype": "noteOn",
    "velocity": 0,
    "type": "channel",
    "noteNumber": 76,
    "channel": 0,
    "deltaTime": 120
  },
  {
    "subtype": "noteOn",
    "velocity": 0,
    "type": "channel",
    "noteNumber": 72,
    "channel": 0,
    "deltaTime": 120
  },
  {
    "subtype": "noteOff",
    "velocity": 0,
    "type": "channel",
    "noteNumber": 72,
    "channel": 0,
    "deltaTime": 0
  },
  {
    "subtype": "noteOn",
    "velocity": 0,
    "type": "channel",
    "noteNumber": 75,
    "channel": 0,
    "deltaTime": 120
  },
  {
    "subtype": "noteOff",
    "velocity": 0,
    "type": "channel",
    "noteNumber": 75,
    "channel": 0,
    "deltaTime": 0
  },
  {
    "subtype": "noteOn",
    "velocity": 0,
    "type": "channel",
    "noteNumber": 76,
    "channel": 0,
    "deltaTime": 120
  },
  {
    "subtype": "noteOn",
    "velocity": 0,
    "type": "channel",
    "noteNumber": 75,
    "channel": 0,
    "deltaTime": 120
  },
  {
    "subtype": "noteOn",
    "velocity": 0,
    "type": "channel",
    "noteNumber": 71,
    "channel": 0,
    "deltaTime": 120
  },
  {
    "subtype": "noteOff",
    "velocity": 0,
    "type": "channel",
    "noteNumber": 71,
    "channel": 0,
    "deltaTime": 0
  },
  {
    "subtype": "noteOn",
    "velocity": 0,
    "type": "channel",
    "noteNumber": 73,
    "channel": 0,
    "deltaTime": 120
  },
  {
    "subtype": "noteOn",
    "velocity": 0,
    "type": "channel",
    "noteNumber": 75,
    "channel": 0,
    "deltaTime": 120
  },
  {
    "subtype": "noteOn",
    "velocity": 0,
    "type": "channel",
    "noteNumber": 75,
    "channel": 0,
    "deltaTime": 120
  },
  {
    "subtype": "noteOn",
    "velocity": 0,
    "type": "channel",
    "noteNumber": 76,
    "channel": 0,
    "deltaTime": 120
  },
  {
    "subtype": "noteOn",
    "velocity": 0,
    "type": "channel",
    "noteNumber": 76,
    "channel": 0,
    "deltaTime": 120
  },
  {
    "subtype": "noteOff",
    "velocity": 0,
    "type": "channel",
    "noteNumber": 76,
    "channel": 0,
    "deltaTime": 0
  },
  {
    "subtype": "noteOn",
    "velocity": 0,
    "type": "channel",
    "noteNumber": 73,
    "channel": 0,
    "deltaTime": 120
  },
  {
    "subtype": "noteOff",
    "velocity": 0,
    "type": "channel",
    "noteNumber": 73,
    "channel": 0,
    "deltaTime": 0
  },
  {
    "subtype": "noteOn",
    "velocity": 0,
    "type": "channel",
    "noteNumber": 71,
    "channel": 0,
    "deltaTime": 120
  },
  {
    "subtype": "noteOn",
    "velocity": 0,
    "type": "channel",
    "noteNumber": 70,
    "channel": 0,
    "deltaTime": 120
  },
  {
    "subtype": "noteOn",
    "velocity": 0,
    "type": "channel",
    "noteNumber": 70,
    "channel": 0,
    "deltaTime": 120
  },
  {
    "subtype": "noteOn",
    "velocity": 0,
    "type": "channel",
    "noteNumber": 68,
    "channel": 0,
    "deltaTime": 120
  },
  {
    "subtype": "noteOn",
    "velocity": 0,
    "type": "channel",
    "noteNumber": 68,
    "channel": 0,
    "deltaTime": 120
  },
  {
    "subtype": "noteOn",
    "velocity": 0,
    "type": "channel",
    "noteNumber": 66,
    "channel": 0,
    "deltaTime": 120
  },
  {
    "subtype": "noteOn",
    "velocity": 0,
    "type": "channel",
    "noteNumber": 66,
    "channel": 0,
    "deltaTime": 120
  },
  {
    "subtype": "noteOff",
    "velocity": 0,
    "type": "channel",
    "noteNumber": 66,
    "channel": 0,
    "deltaTime": 0
  },
  {
    "subtype": "noteOn",
    "velocity": 0,
    "type": "channel",
    "noteNumber": 82,
    "channel": 0,
    "deltaTime": 120
  },
  {
    "subtype": "noteOn",
    "velocity": 0,
    "type": "channel",
    "noteNumber": 63,
    "channel": 0,
    "deltaTime": 120
  },
  {
    "subtype": "noteOn",
    "velocity": 0,
    "type": "channel",
    "noteNumber": 63,
    "channel": 0,
    "deltaTime": 120
  },
  {
    "subtype": "noteOn",
    "velocity": 0,
    "type": "channel",
    "noteNumber": 66,
    "channel": 0,
    "deltaTime": 120
  },
  {
    "subtype": "noteOn",
    "velocity": 0,
    "type": "channel",
    "noteNumber": 66,
    "channel": 0,
    "deltaTime": 120
  },
  {
    "subtype": "noteOn",
    "velocity": 0,
    "type": "channel",
    "noteNumber": 70,
    "channel": 0,
    "deltaTime": 120
  },
  {
    "subtype": "noteOn",
    "velocity": 0,
    "type": "channel",
    "noteNumber": 70,
    "channel": 0,
    "deltaTime": 120
  },
  {
    "subtype": "noteOn",
    "velocity": 0,
    "type": "channel",
    "noteNumber": 63,
    "channel": 0,
    "deltaTime": 120
  },
  {
    "subtype": "noteOn",
    "velocity": 0,
    "type": "channel",
    "noteNumber": 63,
    "channel": 0,
    "deltaTime": 120
  },
  {
    "subtype": "noteOff",
    "velocity": 0,
    "type": "channel",
    "noteNumber": 63,
    "channel": 0,
    "deltaTime": 0
  },
  {
    "subtype": "noteOff",
    "velocity": 0,
    "type": "channel",
    "noteNumber": 63,
    "channel": 0,
    "deltaTime": 0
  },
  {
    "subtype": "noteOn",
    "velocity": 0,
    "type": "channel",
    "noteNumber": 82,
    "channel": 0,
    "deltaTime": 120
  },
  {
    "subtype": "noteOn",
    "velocity": 0,
    "type": "channel",
    "noteNumber": 82,
    "channel": 0,
    "deltaTime": 120
  },
  {
    "subtype": "noteOn",
    "velocity": 0,
    "type": "channel",
    "noteNumber": 80,
    "channel": 0,
    "deltaTime": 120
  },
  {
    "subtype": "noteOn",
    "velocity": 0,
    "type": "channel",
    "noteNumber": 80,
    "channel": 0,
    "deltaTime": 120
  },
  {
    "subtype": "noteOn",
    "velocity": 0,
    "type": "channel",
    "noteNumber": 80,
    "channel": 0,
    "deltaTime": 120
  },
  {
    "subtype": "noteOn",
    "velocity": 0,
    "type": "channel",
    "noteNumber": 79,
    "channel": 0,
    "deltaTime": 120
  },
  {
    "subtype": "noteOn",
    "velocity": 0,
    "type": "channel",
    "noteNumber": 76,
    "channel": 0,
    "deltaTime": 120
  },
  {
    "subtype": "noteOn",
    "velocity": 0,
    "type": "channel",
    "noteNumber": 76,
    "channel": 0,
    "deltaTime": 120
  },
  {
    "subtype": "noteOn",
    "velocity": 0,
    "type": "channel",
    "noteNumber": 75,
    "channel": 0,
    "deltaTime": 120
  },
  {
    "subtype": "noteOn",
    "velocity": 0,
    "type": "channel",
    "noteNumber": 75,
    "channel": 0,
    "deltaTime": 120
  },
  {
    "subtype": "noteOn",
    "velocity": 0,
    "type": "channel",
    "noteNumber": 73,
    "channel": 0,
    "deltaTime": 120
  },
  {
    "subtype": "noteOn",
    "velocity": 0,
    "type": "channel",
    "noteNumber": 73,
    "channel": 0,
    "deltaTime": 120
  },
  {
    "subtype": "noteOn",
    "velocity": 0,
    "type": "channel",
    "noteNumber": 71,
    "channel": 0,
    "deltaTime": 120
  },
  {
    "subtype": "noteOn",
    "velocity": 0,
    "type": "channel",
    "noteNumber": 71,
    "channel": 0,
    "deltaTime": 120
  },
  {
    "subtype": "noteOn",
    "velocity": 0,
    "type": "channel",
    "noteNumber": 70,
    "channel": 0,
    "deltaTime": 120
  },
  {
    "subtype": "noteOn",
    "velocity": 0,
    "type": "channel",
    "noteNumber": 70,
    "channel": 0,
    "deltaTime": 120
  },
  {
    "subtype": "noteOn",
    "velocity": 0,
    "type": "channel",
    "noteNumber": 71,
    "channel": 0,
    "deltaTime": 120
  },
  {
    "subtype": "noteOn",
    "velocity": 0,
    "type": "channel",
    "noteNumber": 71,
    "channel": 0,
    "deltaTime": 120
  },
  {
    "subtype": "noteOff",
    "velocity": 0,
    "type": "channel",
    "noteNumber": 71,
    "channel": 0,
    "deltaTime": 0
  },
  {
    "subtype": "noteOn",
    "velocity": 0,
    "type": "channel",
    "noteNumber": 75,
    "channel": 0,
    "deltaTime": 120
  },
  {
    "subtype": "noteOff",
    "velocity": 0,
    "type": "channel",
    "noteNumber": 75,
    "channel": 0,
    "deltaTime": 0
  },
  {
    "subtype": "noteOn",
    "velocity": 0,
    "type": "channel",
    "noteNumber": 67,
    "channel": 0,
    "deltaTime": 120
  },
  {
    "subtype": "noteOn",
    "velocity": 0,
    "type": "channel",
    "noteNumber": 76,
    "channel": 0,
    "deltaTime": 120
  },
  {
    "subtype": "noteOn",
    "velocity": 0,
    "type": "channel",
    "noteNumber": 76,
    "channel": 0,
    "deltaTime": 120
  },
  {
    "subtype": "noteOn",
    "velocity": 0,
    "type": "channel",
    "noteNumber": 75,
    "channel": 0,
    "deltaTime": 120
  },
  {
    "subtype": "noteOn",
    "velocity": 0,
    "type": "channel",
    "noteNumber": 75,
    "channel": 0,
    "deltaTime": 120
  },
  {
    "subtype": "noteOn",
    "velocity": 0,
    "type": "channel",
    "noteNumber": 73,
    "channel": 0,
    "deltaTime": 120
  },
  {
    "subtype": "noteOn",
    "velocity": 0,
    "type": "channel",
    "noteNumber": 73,
    "channel": 0,
    "deltaTime": 120
  },
  {
    "subtype": "noteOn",
    "velocity": 0,
    "type": "channel",
    "noteNumber": 71,
    "channel": 0,
    "deltaTime": 120
  },
  {
    "subtype": "noteOn",
    "velocity": 0,
    "type": "channel",
    "noteNumber": 71,
    "channel": 0,
    "deltaTime": 120
  },
  {
    "subtype": "noteOn",
    "velocity": 0,
    "type": "channel",
    "noteNumber": 70,
    "channel": 0,
    "deltaTime": 120
  },
  {
    "subtype": "noteOn",
    "velocity": 0,
    "type": "channel",
    "noteNumber": 70,
    "channel": 0,
    "deltaTime": 120
  },
  {
    "subtype": "noteOn",
    "velocity": 0,
    "type": "channel",
    "noteNumber": 68,
    "channel": 0,
    "deltaTime": 120
  },
  {
    "subtype": "noteOn",
    "velocity": 0,
    "type": "channel",
    "noteNumber": 68,
    "channel": 0,
    "deltaTime": 120
  },
  {
    "subtype": "noteOn",
    "velocity": 0,
    "type": "channel",
    "noteNumber": 67,
    "channel": 0,
    "deltaTime": 120
  },
  {
    "subtype": "noteOn",
    "velocity": 0,
    "type": "channel",
    "noteNumber": 67,
    "channel": 0,
    "deltaTime": 120
  },
  {
    "subtype": "noteOn",
    "velocity": 0,
    "type": "channel",
    "noteNumber": 68,
    "channel": 0,
    "deltaTime": 120
  },
  {
    "subtype": "noteOn",
    "velocity": 0,
    "type": "channel",
    "noteNumber": 68,
    "channel": 0,
    "deltaTime": 120
  },
  {
    "subtype": "noteOn",
    "velocity": 0,
    "type": "channel",
    "noteNumber": 75,
    "channel": 0,
    "deltaTime": 120
  },
  {
    "subtype": "noteOn",
    "velocity": 0,
    "type": "channel",
    "noteNumber": 75,
    "channel": 0,
    "deltaTime": 120
  },
  {
    "subtype": "noteOn",
    "velocity": 0,
    "type": "channel",
    "noteNumber": 75,
    "channel": 0,
    "deltaTime": 120
  },
  {
    "subtype": "noteOn",
    "velocity": 0,
    "type": "channel",
    "noteNumber": 75,
    "channel": 0,
    "deltaTime": 120
  },
  {
    "subtype": "noteOn",
    "velocity": 0,
    "type": "channel",
    "noteNumber": 63,
    "channel": 0,
    "deltaTime": 120
  },
  {
    "subtype": "noteOn",
    "velocity": 0,
    "type": "channel",
    "noteNumber": 63,
    "channel": 0,
    "deltaTime": 120
  },
  {
    "subtype": "noteOn",
    "velocity": 0,
    "type": "channel",
    "noteNumber": 64,
    "channel": 0,
    "deltaTime": 120
  },
  {
    "subtype": "noteOn",
    "velocity": 0,
    "type": "channel",
    "noteNumber": 64,
    "channel": 0,
    "deltaTime": 120
  },
  {
    "subtype": "noteOn",
    "velocity": 0,
    "type": "channel",
    "noteNumber": 63,
    "channel": 0,
    "deltaTime": 120
  },
  {
    "subtype": "noteOn",
    "velocity": 0,
    "type": "channel",
    "noteNumber": 63,
    "channel": 0,
    "deltaTime": 120
  },
  {
    "subtype": "noteOn",
    "velocity": 0,
    "type": "channel",
    "noteNumber": 61,
    "channel": 0,
    "deltaTime": 120
  },
  {
    "subtype": "noteOn",
    "velocity": 0,
    "type": "channel",
    "noteNumber": 61,
    "channel": 0,
    "deltaTime": 120
  },
  {
    "subtype": "noteOn",
    "velocity": 0,
    "type": "channel",
    "noteNumber": 63,
    "channel": 0,
    "deltaTime": 120
  },
  {
    "subtype": "noteOn",
    "velocity": 0,
    "type": "channel",
    "noteNumber": 63,
    "channel": 0,
    "deltaTime": 120
  },
  {
    "subtype": "noteOff",
    "velocity": 0,
    "type": "channel",
    "noteNumber": 63,
    "channel": 0,
    "deltaTime": 0
  },
  {
    "subtype": "noteOn",
    "velocity": 0,
    "type": "channel",
    "noteNumber": 71,
    "channel": 0,
    "deltaTime": 120
  },
  {
    "subtype": "noteOn",
    "velocity": 0,
    "type": "channel",
    "noteNumber": 70,
    "channel": 0,
    "deltaTime": 120
  },
  {
    "subtype": "noteOn",
    "velocity": 0,
    "type": "channel",
    "noteNumber": 70,
    "channel": 0,
    "deltaTime": 120
  },
  {
    "subtype": "noteOff",
    "velocity": 0,
    "type": "channel",
    "noteNumber": 70,
    "channel": 0,
    "deltaTime": 0
  },
  {
    "subtype": "noteOn",
    "velocity": 0,
    "type": "channel",
    "noteNumber": 71,
    "channel": 0,
    "deltaTime": 120
  },
  {
    "subtype": "noteOn",
    "velocity": 0,
    "type": "channel",
    "noteNumber": 75,
    "channel": 0,
    "deltaTime": 120
  },
  {
    "subtype": "noteOn",
    "velocity": 0,
    "type": "channel",
    "noteNumber": 76,
    "channel": 0,
    "deltaTime": 120
  },
  {
    "subtype": "noteOn",
    "velocity": 0,
    "type": "channel",
    "noteNumber": 75,
    "channel": 0,
    "deltaTime": 120
  },
  {
    "subtype": "noteOn",
    "velocity": 0,
    "type": "channel",
    "noteNumber": 75,
    "channel": 0,
    "deltaTime": 120
  },
  {
    "subtype": "noteOn",
    "velocity": 0,
    "type": "channel",
    "noteNumber": 78,
    "channel": 0,
    "deltaTime": 120
  },
  {
    "subtype": "noteOn",
    "velocity": 0,
    "type": "channel",
    "noteNumber": 78,
    "channel": 0,
    "deltaTime": 120
  },
  {
    "subtype": "noteOn",
    "velocity": 0,
    "type": "channel",
    "noteNumber": 82,
    "channel": 0,
    "deltaTime": 120
  },
  {
    "subtype": "noteOn",
    "velocity": 0,
    "type": "channel",
    "noteNumber": 82,
    "channel": 0,
    "deltaTime": 120
  },
  {
    "subtype": "noteOn",
    "velocity": 0,
    "type": "channel",
    "noteNumber": 73,
    "channel": 0,
    "deltaTime": 120
  },
  {
    "subtype": "noteOn",
    "velocity": 0,
    "type": "channel",
    "noteNumber": 73,
    "channel": 0,
    "deltaTime": 120
  },
  {
    "subtype": "noteOff",
    "velocity": 0,
    "type": "channel",
    "noteNumber": 73,
    "channel": 0,
    "deltaTime": 0
  },
  {
    "subtype": "noteOff",
    "velocity": 0,
    "type": "channel",
    "noteNumber": 73,
    "channel": 0,
    "deltaTime": 0
  },
  {
    "subtype": "noteOff",
    "velocity": 0,
    "type": "channel",
    "noteNumber": 73,
    "channel": 0,
    "deltaTime": 0
  },
  {
    "subtype": "noteOn",
    "velocity": 0,
    "type": "channel",
    "noteNumber": 80,
    "channel": 0,
    "deltaTime": 120
  },
  {
    "subtype": "noteOff",
    "velocity": 0,
    "type": "channel",
    "noteNumber": 80,
    "channel": 0,
    "deltaTime": 0
  },
  {
    "subtype": "noteOn",
    "velocity": 0,
    "type": "channel",
    "noteNumber": 78,
    "channel": 0,
    "deltaTime": 120
  },
  {
    "subtype": "noteOn",
    "velocity": 0,
    "type": "channel",
    "noteNumber": 76,
    "channel": 0,
    "deltaTime": 120
  },
  {
    "subtype": "noteOn",
    "velocity": 0,
    "type": "channel",
    "noteNumber": 76,
    "channel": 0,
    "deltaTime": 120
  },
  {
    "subtype": "noteOn",
    "velocity": 0,
    "type": "channel",
    "noteNumber": 75,
    "channel": 0,
    "deltaTime": 120
  },
  {
    "subtype": "noteOn",
    "velocity": 0,
    "type": "channel",
    "noteNumber": 75,
    "channel": 0,
    "deltaTime": 120
  },
  {
    "subtype": "noteOff",
    "velocity": 0,
    "type": "channel",
    "noteNumber": 75,
    "channel": 0,
    "deltaTime": 0
  },
  {
    "subtype": "noteOn",
    "velocity": 0,
    "type": "channel",
    "noteNumber": 73,
    "channel": 0,
    "deltaTime": 120
  },
  {
    "subtype": "noteOn",
    "velocity": 0,
    "type": "channel",
    "noteNumber": 75,
    "channel": 0,
    "deltaTime": 120
  },
  {
    "subtype": "noteOn",
    "velocity": 0,
    "type": "channel",
    "noteNumber": 75,
    "channel": 0,
    "deltaTime": 120
  },
  {
    "subtype": "noteOff",
    "velocity": 0,
    "type": "channel",
    "noteNumber": 75,
    "channel": 0,
    "deltaTime": 0
  },
  {
    "subtype": "noteOn",
    "velocity": 0,
    "type": "channel",
    "noteNumber": 72,
    "channel": 0,
    "deltaTime": 120
  },
  {
    "subtype": "noteOff",
    "velocity": 0,
    "type": "channel",
    "noteNumber": 72,
    "channel": 0,
    "deltaTime": 0
  },
  {
    "subtype": "noteOn",
    "velocity": 0,
    "type": "channel",
    "noteNumber": 68,
    "channel": 0,
    "deltaTime": 120
  },
  {
    "subtype": "noteOff",
    "velocity": 0,
    "type": "channel",
    "noteNumber": 68,
    "channel": 0,
    "deltaTime": 0
  },
  {
    "subtype": "noteOn",
    "velocity": 0,
    "type": "channel",
    "noteNumber": 66,
    "channel": 0,
    "deltaTime": 120
  },
  {
    "subtype": "noteOn",
    "velocity": 0,
    "type": "channel",
    "noteNumber": 64,
    "channel": 0,
    "deltaTime": 120
  },
  {
    "subtype": "noteOn",
    "velocity": 0,
    "type": "channel",
    "noteNumber": 64,
    "channel": 0,
    "deltaTime": 120
  },
  {
    "subtype": "noteOn",
    "velocity": 0,
    "type": "channel",
    "noteNumber": 63,
    "channel": 0,
    "deltaTime": 120
  },
  {
    "subtype": "noteOn",
    "velocity": 0,
    "type": "channel",
    "noteNumber": 63,
    "channel": 0,
    "deltaTime": 120
  },
  {
    "subtype": "noteOn",
    "velocity": 0,
    "type": "channel",
    "noteNumber": 64,
    "channel": 0,
    "deltaTime": 120
  },
  {
    "subtype": "noteOn",
    "velocity": 0,
    "type": "channel",
    "noteNumber": 64,
    "channel": 0,
    "deltaTime": 120
  },
  {
    "subtype": "noteOn",
    "velocity": 0,
    "type": "channel",
    "noteNumber": 66,
    "channel": 0,
    "deltaTime": 120
  },
  {
    "subtype": "noteOn",
    "velocity": 0,
    "type": "channel",
    "noteNumber": 63,
    "channel": 0,
    "deltaTime": 120
  },
  {
    "subtype": "noteOn",
    "velocity": 0,
    "type": "channel",
    "noteNumber": 64,
    "channel": 0,
    "deltaTime": 120
  },
  {
    "subtype": "noteOn",
    "velocity": 0,
    "type": "channel",
    "noteNumber": 61,
    "channel": 0,
    "deltaTime": 120
  },
  {
    "subtype": "noteOn",
    "velocity": 0,
    "type": "channel",
    "noteNumber": 63,
    "channel": 0,
    "deltaTime": 120
  },
  {
    "subtype": "noteOn",
    "velocity": 0,
    "type": "channel",
    "noteNumber": 61,
    "channel": 0,
    "deltaTime": 120
  },
  {
    "subtype": "noteOff",
    "velocity": 0,
    "type": "channel",
    "noteNumber": 61,
    "channel": 0,
    "deltaTime": 0
  },
  {
    "subtype": "noteOn",
    "velocity": 0,
    "type": "channel",
    "noteNumber": 71,
    "channel": 0,
    "deltaTime": 120
  },
  {
    "subtype": "noteOn",
    "velocity": 0,
    "type": "channel",
    "noteNumber": 80,
    "channel": 0,
    "deltaTime": 120
  },
  {
    "subtype": "noteOn",
    "velocity": 0,
    "type": "channel",
    "noteNumber": 80,
    "channel": 0,
    "deltaTime": 120
  },
  {
    "subtype": "noteOff",
    "velocity": 0,
    "type": "channel",
    "noteNumber": 80,
    "channel": 0,
    "deltaTime": 0
  },
  {
    "subtype": "noteOn",
    "velocity": 0,
    "type": "channel",
    "noteNumber": 78,
    "channel": 0,
    "deltaTime": 120
  },
  {
    "subtype": "noteOn",
    "velocity": 0,
    "type": "channel",
    "noteNumber": 75,
    "channel": 0,
    "deltaTime": 120
  },
  {
    "subtype": "noteOn",
    "velocity": 0,
    "type": "channel",
    "noteNumber": 75,
    "channel": 0,
    "deltaTime": 120
  },
  {
    "subtype": "noteOn",
    "velocity": 0,
    "type": "channel",
    "noteNumber": 71,
    "channel": 0,
    "deltaTime": 120
  },
  {
    "subtype": "noteOn",
    "velocity": 0,
    "type": "channel",
    "noteNumber": 71,
    "channel": 0,
    "deltaTime": 120
  },
  {
    "subtype": "noteOn",
    "velocity": 0,
    "type": "channel",
    "noteNumber": 68,
    "channel": 0,
    "deltaTime": 120
  },
  {
    "subtype": "noteOn",
    "velocity": 0,
    "type": "channel",
    "noteNumber": 68,
    "channel": 0,
    "deltaTime": 120
  },
  {
    "subtype": "noteOff",
    "velocity": 0,
    "type": "channel",
    "noteNumber": 68,
    "channel": 0,
    "deltaTime": 0
  },
  {
    "subtype": "noteOn",
    "velocity": 0,
    "type": "channel",
    "noteNumber": 71,
    "channel": 0,
    "deltaTime": 120
  },
  {
    "subtype": "noteOn",
    "velocity": 0,
    "type": "channel",
    "noteNumber": 73,
    "channel": 0,
    "deltaTime": 120
  },
  {
    "subtype": "noteOn",
    "velocity": 0,
    "type": "channel",
    "noteNumber": 73,
    "channel": 0,
    "deltaTime": 120
  },
  {
    "subtype": "noteOn",
    "velocity": 0,
    "type": "channel",
    "noteNumber": 75,
    "channel": 0,
    "deltaTime": 120
  },
  {
    "subtype": "noteOn",
    "velocity": 0,
    "type": "channel",
    "noteNumber": 75,
    "channel": 0,
    "deltaTime": 120
  },
  {
    "subtype": "noteOn",
    "velocity": 0,
    "type": "channel",
    "noteNumber": 76,
    "channel": 0,
    "deltaTime": 120
  },
  {
    "subtype": "noteOn",
    "velocity": 0,
    "type": "channel",
    "noteNumber": 76,
    "channel": 0,
    "deltaTime": 120
  },
  {
    "subtype": "noteOn",
    "velocity": 0,
    "type": "channel",
    "noteNumber": 78,
    "channel": 0,
    "deltaTime": 120
  },
  {
    "subtype": "noteOn",
    "velocity": 0,
    "type": "channel",
    "noteNumber": 78,
    "channel": 0,
    "deltaTime": 120
  },
  {
    "subtype": "noteOn",
    "velocity": 0,
    "type": "channel",
    "noteNumber": 75,
    "channel": 0,
    "deltaTime": 120
  },
  {
    "subtype": "noteOn",
    "velocity": 0,
    "type": "channel",
    "noteNumber": 75,
    "channel": 0,
    "deltaTime": 120
  },
  {
    "subtype": "noteOn",
    "velocity": 0,
    "type": "channel",
    "noteNumber": 71,
    "channel": 0,
    "deltaTime": 120
  },
  {
    "subtype": "noteOn",
    "velocity": 0,
    "type": "channel",
    "noteNumber": 71,
    "channel": 0,
    "deltaTime": 120
  },
  {
    "subtype": "noteOn",
    "velocity": 0,
    "type": "channel",
    "noteNumber": 70,
    "channel": 0,
    "deltaTime": 120
  },
  {
    "subtype": "noteOn",
    "velocity": 0,
    "type": "channel",
    "noteNumber": 70,
    "channel": 0,
    "deltaTime": 120
  },
  {
    "subtype": "noteOn",
    "velocity": 0,
    "type": "channel",
    "noteNumber": 71,
    "channel": 0,
    "deltaTime": 120
  },
  {
    "subtype": "noteOn",
    "velocity": 0,
    "type": "channel",
    "noteNumber": 71,
    "channel": 0,
    "deltaTime": 120
  },
  {
    "subtype": "noteOn",
    "velocity": 0,
    "type": "channel",
    "noteNumber": 68,
    "channel": 0,
    "deltaTime": 120
  },
  {
    "subtype": "noteOn",
    "velocity": 0,
    "type": "channel",
    "noteNumber": 68,
    "channel": 0,
    "deltaTime": 120
  },
  {
    "subtype": "noteOff",
    "velocity": 0,
    "type": "channel",
    "noteNumber": 68,
    "channel": 0,
    "deltaTime": 0
  },
  {
    "subtype": "noteOn",
    "velocity": 0,
    "type": "channel",
    "noteNumber": 70,
    "channel": 0,
    "deltaTime": 120
  },
  {
    "subtype": "noteOn",
    "velocity": 0,
    "type": "channel",
    "noteNumber": 66,
    "channel": 0,
    "deltaTime": 120
  },
  {
    "subtype": "noteOn",
    "velocity": 0,
    "type": "channel",
    "noteNumber": 66,
    "channel": 0,
    "deltaTime": 120
  },
  {
    "subtype": "noteOn",
    "velocity": 0,
    "type": "channel",
    "noteNumber": 70,
    "channel": 0,
    "deltaTime": 120
  },
  {
    "subtype": "noteOn",
    "velocity": 0,
    "type": "channel",
    "noteNumber": 70,
    "channel": 0,
    "deltaTime": 120
  },
  {
    "subtype": "noteOn",
    "velocity": 0,
    "type": "channel",
    "noteNumber": 73,
    "channel": 0,
    "deltaTime": 120
  },
  {
    "subtype": "noteOn",
    "velocity": 0,
    "type": "channel",
    "noteNumber": 73,
    "channel": 0,
    "deltaTime": 120
  },
  {
    "subtype": "noteOn",
    "velocity": 0,
    "type": "channel",
    "noteNumber": 76,
    "channel": 0,
    "deltaTime": 120
  },
  {
    "subtype": "noteOn",
    "velocity": 0,
    "type": "channel",
    "noteNumber": 76,
    "channel": 0,
    "deltaTime": 120
  },
  {
    "subtype": "noteOn",
    "velocity": 0,
    "type": "channel",
    "noteNumber": 75,
    "channel": 0,
    "deltaTime": 120
  },
  {
    "subtype": "noteOn",
    "velocity": 0,
    "type": "channel",
    "noteNumber": 73,
    "channel": 0,
    "deltaTime": 120
  },
  {
    "subtype": "noteOn",
    "velocity": 0,
    "type": "channel",
    "noteNumber": 71,
    "channel": 0,
    "deltaTime": 120
  },
  {
    "subtype": "noteOn",
    "velocity": 0,
    "type": "channel",
    "noteNumber": 68,
    "channel": 0,
    "deltaTime": 120
  },
  {
    "subtype": "noteOff",
    "velocity": 0,
    "type": "channel",
    "noteNumber": 68,
    "channel": 0,
    "deltaTime": 0
  },
  {
    "subtype": "noteOn",
    "velocity": 0,
    "type": "channel",
    "noteNumber": 66,
    "channel": 0,
    "deltaTime": 120
  },
  {
    "subtype": "noteOff",
    "velocity": 0,
    "type": "channel",
    "noteNumber": 66,
    "channel": 0,
    "deltaTime": 0
  },
  {
    "subtype": "noteOn",
    "velocity": 0,
    "type": "channel",
    "noteNumber": 71,
    "channel": 0,
    "deltaTime": 120
  },
  {
    "subtype": "noteOn",
    "velocity": 0,
    "type": "channel",
    "noteNumber": 73,
    "channel": 0,
    "deltaTime": 120
  },
  {
    "subtype": "noteOn",
    "velocity": 0,
    "type": "channel",
    "noteNumber": 73,
    "channel": 0,
    "deltaTime": 120
  },
  {
    "subtype": "noteOn",
    "velocity": 0,
    "type": "channel",
    "noteNumber": 70,
    "channel": 0,
    "deltaTime": 120
  },
  {
    "subtype": "noteOn",
    "velocity": 0,
    "type": "channel",
    "noteNumber": 70,
    "channel": 0,
    "deltaTime": 120
  },
  {
    "subtype": "noteOn",
    "velocity": 0,
    "type": "channel",
    "noteNumber": 71,
    "channel": 0,
    "deltaTime": 120
  },
  {
    "subtype": "noteOn",
    "velocity": 0,
    "type": "channel",
    "noteNumber": 71,
    "channel": 0,
    "deltaTime": 120
  },
  {
    "subtype": "noteOn",
    "velocity": 0,
    "type": "channel",
    "noteNumber": 75,
    "channel": 0,
    "deltaTime": 120
  },
  {
    "subtype": "noteOn",
    "velocity": 0,
    "type": "channel",
    "noteNumber": 75,
    "channel": 0,
    "deltaTime": 120
  },
  {
    "subtype": "noteOff",
    "velocity": 0,
    "type": "channel",
    "noteNumber": 75,
    "channel": 0,
    "deltaTime": 0
  },
  {
    "subtype": "noteOn",
    "velocity": 0,
    "type": "channel",
    "noteNumber": 79,
    "channel": 0,
    "deltaTime": 120
  },
  {
    "subtype": "noteOn",
    "velocity": 0,
    "type": "channel",
    "noteNumber": 79,
    "channel": 0,
    "deltaTime": 120
  },
  {
    "subtype": "noteOn",
    "velocity": 0,
    "type": "channel",
    "noteNumber": 79,
    "channel": 0,
    "deltaTime": 120
  },
  {
    "subtype": "noteOff",
    "velocity": 0,
    "type": "channel",
    "noteNumber": 79,
    "channel": 0,
    "deltaTime": 0
  },
  {
    "subtype": "noteOn",
    "velocity": 0,
    "type": "channel",
    "noteNumber": 83,
    "channel": 0,
    "deltaTime": 120
  },
  {
    "subtype": "noteOff",
    "velocity": 0,
    "type": "channel",
    "noteNumber": 83,
    "channel": 0,
    "deltaTime": 0
  },
  {
    "subtype": "noteOn",
    "velocity": 0,
    "type": "channel",
    "noteNumber": 82,
    "channel": 0,
    "deltaTime": 120
  },
  {
    "subtype": "noteOn",
    "velocity": 0,
    "type": "channel",
    "noteNumber": 83,
    "channel": 0,
    "deltaTime": 120
  },
  {
    "subtype": "noteOn",
    "velocity": 0,
    "type": "channel",
    "noteNumber": 83,
    "channel": 0,
    "deltaTime": 120
  },
  {
    "subtype": "noteOn",
    "velocity": 0,
    "type": "channel",
    "noteNumber": 80,
    "channel": 0,
    "deltaTime": 120
  },
  {
    "subtype": "noteOn",
    "velocity": 0,
    "type": "channel",
    "noteNumber": 80,
    "channel": 0,
    "deltaTime": 120
  },
  {
    "subtype": "noteOn",
    "velocity": 0,
    "type": "channel",
    "noteNumber": 73,
    "channel": 0,
    "deltaTime": 120
  },
  {
    "subtype": "noteOn",
    "velocity": 0,
    "type": "channel",
    "noteNumber": 73,
    "channel": 0,
    "deltaTime": 120
  },
  {
    "subtype": "noteOn",
    "velocity": 0,
    "type": "channel",
    "noteNumber": 83,
    "channel": 0,
    "deltaTime": 120
  },
  {
    "subtype": "noteOn",
    "velocity": 0,
    "type": "channel",
    "noteNumber": 83,
    "channel": 0,
    "deltaTime": 120
  },
  {
    "subtype": "noteOn",
    "velocity": 0,
    "type": "channel",
    "noteNumber": 82,
    "channel": 0,
    "deltaTime": 120
  },
  {
    "subtype": "noteOn",
    "velocity": 0,
    "type": "channel",
    "noteNumber": 82,
    "channel": 0,
    "deltaTime": 120
  },
  {
    "subtype": "noteOn",
    "velocity": 0,
    "type": "channel",
    "noteNumber": 80,
    "channel": 0,
    "deltaTime": 120
  },
  {
    "subtype": "noteOn",
    "velocity": 0,
    "type": "channel",
    "noteNumber": 80,
    "channel": 0,
    "deltaTime": 120
  },
  {
    "subtype": "noteOn",
    "velocity": 0,
    "type": "channel",
    "noteNumber": 75,
    "channel": 0,
    "deltaTime": 120
  },
  {
    "subtype": "noteOn",
    "velocity": 0,
    "type": "channel",
    "noteNumber": 75,
    "channel": 0,
    "deltaTime": 120
  },
  {
    "subtype": "noteOn",
    "velocity": 0,
    "type": "channel",
    "noteNumber": 65,
    "channel": 0,
    "deltaTime": 120
  },
  {
    "subtype": "noteOn",
    "velocity": 0,
    "type": "channel",
    "noteNumber": 65,
    "channel": 0,
    "deltaTime": 120
  },
  {
    "subtype": "noteOff",
    "velocity": 0,
    "type": "channel",
    "noteNumber": 65,
    "channel": 0,
    "deltaTime": 0
  },
  {
    "subtype": "noteOn",
    "velocity": 0,
    "type": "channel",
    "noteNumber": 85,
    "channel": 0,
    "deltaTime": 120
  },
  {
    "subtype": "noteOn",
    "velocity": 0,
    "type": "channel",
    "noteNumber": 82,
    "channel": 0,
    "deltaTime": 120
  },
  {
    "subtype": "noteOn",
    "velocity": 0,
    "type": "channel",
    "noteNumber": 82,
    "channel": 0,
    "deltaTime": 120
  },
  {
    "subtype": "noteOff",
    "velocity": 0,
    "type": "channel",
    "noteNumber": 82,
    "channel": 0,
    "deltaTime": 0
  },
  {
    "subtype": "noteOn",
    "velocity": 0,
    "type": "channel",
    "noteNumber": 82,
    "channel": 0,
    "deltaTime": 120
  },
  {
    "subtype": "noteOn",
    "velocity": 0,
    "type": "channel",
    "noteNumber": 85,
    "channel": 0,
    "deltaTime": 120
  },
  {
    "subtype": "noteOn",
    "velocity": 0,
    "type": "channel",
    "noteNumber": 85,
    "channel": 0,
    "deltaTime": 120
  },
  {
    "subtype": "noteOn",
    "velocity": 0,
    "type": "channel",
    "noteNumber": 85,
    "channel": 0,
    "deltaTime": 120
  },
  {
    "subtype": "noteOn",
    "velocity": 0,
    "type": "channel",
    "noteNumber": 85,
    "channel": 0,
    "deltaTime": 120
  },
  {
    "subtype": "noteOff",
    "velocity": 0,
    "type": "channel",
    "noteNumber": 85,
    "channel": 0,
    "deltaTime": 0
  },
  {
    "subtype": "noteOff",
    "velocity": 0,
    "type": "channel",
    "noteNumber": 85,
    "channel": 0,
    "deltaTime": 0
  },
  {
    "subtype": "noteOn",
    "velocity": 0,
    "type": "channel",
    "noteNumber": 73,
    "channel": 0,
    "deltaTime": 120
  },
  {
    "subtype": "noteOn",
    "velocity": 0,
    "type": "channel",
    "noteNumber": 73,
    "channel": 0,
    "deltaTime": 120
  },
  {
    "subtype": "noteOn",
    "velocity": 0,
    "type": "channel",
    "noteNumber": 75,
    "channel": 0,
    "deltaTime": 120
  },
  {
    "subtype": "noteOn",
    "velocity": 0,
    "type": "channel",
    "noteNumber": 71,
    "channel": 0,
    "deltaTime": 120
  },
  {
    "subtype": "noteOn",
    "velocity": 0,
    "type": "channel",
    "noteNumber": 73,
    "channel": 0,
    "deltaTime": 120
  },
  {
    "subtype": "noteOn",
    "velocity": 0,
    "type": "channel",
    "noteNumber": 73,
    "channel": 0,
    "deltaTime": 120
  },
  {
    "subtype": "noteOn",
    "velocity": 0,
    "type": "channel",
    "noteNumber": 71,
    "channel": 0,
    "deltaTime": 120
  },
  {
    "subtype": "noteOn",
    "velocity": 0,
    "type": "channel",
    "noteNumber": 71,
    "channel": 0,
    "deltaTime": 120
  },
  {
    "subtype": "noteOn",
    "velocity": 0,
    "type": "channel",
    "noteNumber": 70,
    "channel": 0,
    "deltaTime": 120
  },
  {
    "subtype": "noteOn",
    "velocity": 0,
    "type": "channel",
    "noteNumber": 70,
    "channel": 0,
    "deltaTime": 120
  },
  {
    "subtype": "noteOn",
    "velocity": 0,
    "type": "channel",
    "noteNumber": 71,
    "channel": 0,
    "deltaTime": 120
  },
  {
    "subtype": "noteOn",
    "velocity": 0,
    "type": "channel",
    "noteNumber": 71,
    "channel": 0,
    "deltaTime": 120
  },
  {
    "subtype": "noteOn",
    "velocity": 0,
    "type": "channel",
    "noteNumber": 68,
    "channel": 0,
    "deltaTime": 120
  },
  {
    "subtype": "noteOff",
    "velocity": 0,
    "type": "channel",
    "noteNumber": 68,
    "channel": 0,
    "deltaTime": 0
  },
  {
    "subtype": "noteOff",
    "velocity": 0,
    "type": "channel",
    "noteNumber": 68,
    "channel": 0,
    "deltaTime": 0
  },
  {
    "subtype": "noteOn",
    "velocity": 0,
    "type": "channel",
    "noteNumber": 68,
    "channel": 0,
    "deltaTime": 120
  },
  {
    "subtype": "noteOff",
    "velocity": 0,
    "type": "channel",
    "noteNumber": 68,
    "channel": 0,
    "deltaTime": 0
  },
  {
    "subtype": "noteOn",
    "velocity": 0,
    "type": "channel",
    "noteNumber": 75,
    "channel": 0,
    "deltaTime": 120
  },
  {
    "subtype": "noteOff",
    "velocity": 0,
    "type": "channel",
    "noteNumber": 75,
    "channel": 0,
    "deltaTime": 0
  },
  {
    "subtype": "noteOn",
    "velocity": 0,
    "type": "channel",
    "noteNumber": 65,
    "channel": 0,
    "deltaTime": 120
  },
  {
    "subtype": "noteOn",
    "velocity": 0,
    "type": "channel",
    "noteNumber": 68,
    "channel": 0,
    "deltaTime": 120
  },
  {
    "subtype": "noteOn",
    "velocity": 0,
    "type": "channel",
    "noteNumber": 68,
    "channel": 0,
    "deltaTime": 120
  },
  {
    "subtype": "noteOff",
    "velocity": 0,
    "type": "channel",
    "noteNumber": 68,
    "channel": 0,
    "deltaTime": 0
  },
  {
    "subtype": "noteOn",
    "velocity": 0,
    "type": "channel",
    "noteNumber": 68,
    "channel": 0,
    "deltaTime": 120
  },
  {
    "subtype": "noteOff",
    "velocity": 0,
    "type": "channel",
    "noteNumber": 68,
    "channel": 0,
    "deltaTime": 0
  },
  {
    "subtype": "noteOn",
    "velocity": 0,
    "type": "channel",
    "noteNumber": 75,
    "channel": 0,
    "deltaTime": 120
  },
  {
    "subtype": "noteOff",
    "velocity": 0,
    "type": "channel",
    "noteNumber": 75,
    "channel": 0,
    "deltaTime": 0
  },
  {
    "subtype": "noteOn",
    "velocity": 0,
    "type": "channel",
    "noteNumber": 66,
    "channel": 0,
    "deltaTime": 120
  },
  {
    "subtype": "noteOn",
    "velocity": 0,
    "type": "channel",
    "noteNumber": 68,
    "channel": 0,
    "deltaTime": 120
  },
  {
    "subtype": "noteOn",
    "velocity": 0,
    "type": "channel",
    "noteNumber": 68,
    "channel": 0,
    "deltaTime": 120
  },
  {
    "subtype": "noteOff",
    "velocity": 0,
    "type": "channel",
    "noteNumber": 68,
    "channel": 0,
    "deltaTime": 0
  },
  {
    "subtype": "noteOn",
    "velocity": 0,
    "type": "channel",
    "noteNumber": 68,
    "channel": 0,
    "deltaTime": 120
  },
  {
    "subtype": "noteOn",
    "velocity": 0,
    "type": "channel",
    "noteNumber": 71,
    "channel": 0,
    "deltaTime": 120
  },
  {
    "subtype": "noteOn",
    "velocity": 0,
    "type": "channel",
    "noteNumber": 71,
    "channel": 0,
    "deltaTime": 120
  },
  {
    "subtype": "noteOn",
    "velocity": 0,
    "type": "channel",
    "noteNumber": 75,
    "channel": 0,
    "deltaTime": 120
  },
  {
    "subtype": "noteOn",
    "velocity": 0,
    "type": "channel",
    "noteNumber": 75,
    "channel": 0,
    "deltaTime": 120
  },
  {
    "subtype": "noteOn",
    "velocity": 0,
    "type": "channel",
    "noteNumber": 76,
    "channel": 0,
    "deltaTime": 120
  },
  {
    "subtype": "noteOn",
    "velocity": 0,
    "type": "channel",
    "noteNumber": 73,
    "channel": 0,
    "deltaTime": 120
  },
  {
    "subtype": "noteOff",
    "velocity": 0,
    "type": "channel",
    "noteNumber": 73,
    "channel": 0,
    "deltaTime": 0
  },
  {
    "subtype": "noteOn",
    "velocity": 0,
    "type": "channel",
    "noteNumber": 73,
    "channel": 0,
    "deltaTime": 120
  },
  {
    "subtype": "noteOff",
    "velocity": 0,
    "type": "channel",
    "noteNumber": 73,
    "channel": 0,
    "deltaTime": 0
  },
  {
    "subtype": "noteOn",
    "velocity": 0,
    "type": "channel",
    "noteNumber": 70,
    "channel": 0,
    "deltaTime": 120
  },
  {
    "subtype": "noteOff",
    "velocity": 0,
    "type": "channel",
    "noteNumber": 70,
    "channel": 0,
    "deltaTime": 0
  },
  {
    "subtype": "noteOn",
    "velocity": 0,
    "type": "channel",
    "noteNumber": 71,
    "channel": 0,
    "deltaTime": 120
  },
  {
    "subtype": "noteOn",
    "velocity": 0,
    "type": "channel",
    "noteNumber": 65,
    "channel": 0,
    "deltaTime": 120
  },
  {
    "subtype": "noteOn",
    "velocity": 0,
    "type": "channel",
    "noteNumber": 63,
    "channel": 0,
    "deltaTime": 120
  },
  {
    "subtype": "noteOn",
    "velocity": 0,
    "type": "channel",
    "noteNumber": 66,
    "channel": 0,
    "deltaTime": 120
  },
  {
    "subtype": "noteOn",
    "velocity": 0,
    "type": "channel",
    "noteNumber": 66,
    "channel": 0,
    "deltaTime": 120
  },
  {
    "subtype": "noteOn",
    "velocity": 0,
    "type": "channel",
    "noteNumber": 68,
    "channel": 0,
    "deltaTime": 120
  },
  {
    "subtype": "noteOn",
    "velocity": 0,
    "type": "channel",
    "noteNumber": 68,
    "channel": 0,
    "deltaTime": 120
  },
  {
    "subtype": "noteOn",
    "velocity": 0,
    "type": "channel",
    "noteNumber": 71,
    "channel": 0,
    "deltaTime": 120
  },
  {
    "subtype": "noteOn",
    "velocity": 0,
    "type": "channel",
    "noteNumber": 71,
    "channel": 0,
    "deltaTime": 120
  },
  {
    "subtype": "noteOff",
    "velocity": 0,
    "type": "channel",
    "noteNumber": 71,
    "channel": 0,
    "deltaTime": 0
  },
  {
    "subtype": "noteOn",
    "velocity": 0,
    "type": "channel",
    "noteNumber": 75,
    "channel": 0,
    "deltaTime": 120
  },
  {
    "subtype": "noteOn",
    "velocity": 0,
    "type": "channel",
    "noteNumber": 67,
    "channel": 0,
    "deltaTime": 120
  },
  {
    "subtype": "noteOn",
    "velocity": 0,
    "type": "channel",
    "noteNumber": 67,
    "channel": 0,
    "deltaTime": 120
  },
  {
    "subtype": "noteOn",
    "velocity": 0,
    "type": "channel",
    "noteNumber": 68,
    "channel": 0,
    "deltaTime": 120
  },
  {
    "subtype": "noteOn",
    "velocity": 0,
    "type": "channel",
    "noteNumber": 68,
    "channel": 0,
    "deltaTime": 120
  },
  {
    "subtype": "noteOff",
    "velocity": 0,
    "type": "channel",
    "noteNumber": 68,
    "channel": 0,
    "deltaTime": 0
  },
  {
    "subtype": "noteOn",
    "velocity": 0,
    "type": "channel",
    "noteNumber": 63,
    "channel": 0,
    "deltaTime": 120
  },
  {
    "subtype": "noteOn",
    "velocity": 0,
    "type": "channel",
    "noteNumber": 75,
    "channel": 0,
    "deltaTime": 120
  },
  {
    "subtype": "noteOn",
    "velocity": 0,
    "type": "channel",
    "noteNumber": 75,
    "channel": 0,
    "deltaTime": 120
  },
  {
    "subtype": "noteOff",
    "velocity": 0,
    "type": "channel",
    "noteNumber": 75,
    "channel": 0,
    "deltaTime": 0
  },
  {
    "subtype": "noteOn",
    "velocity": 0,
    "type": "channel",
    "noteNumber": 70,
    "channel": 0,
    "deltaTime": 120
  },
  {
    "subtype": "noteOff",
    "velocity": 0,
    "type": "channel",
    "noteNumber": 70,
    "channel": 0,
    "deltaTime": 0
  },
  {
    "subtype": "noteOn",
    "velocity": 0,
    "type": "channel",
    "noteNumber": 68,
    "channel": 0,
    "deltaTime": 120
  },
  {
    "subtype": "noteOff",
    "velocity": 0,
    "type": "channel",
    "noteNumber": 68,
    "channel": 0,
    "deltaTime": 0
  },
  {
    "subtype": "noteOn",
    "velocity": 0,
    "type": "channel",
    "noteNumber": 67,
    "channel": 0,
    "deltaTime": 120
  },
  {
    "subtype": "noteOn",
    "velocity": 0,
    "type": "channel",
    "noteNumber": 75,
    "channel": 0,
    "deltaTime": 120
  },
  {
    "subtype": "noteOn",
    "velocity": 0,
    "type": "channel",
    "noteNumber": 75,
    "channel": 0,
    "deltaTime": 120
  },
  {
    "subtype": "noteOn",
    "velocity": 0,
    "type": "channel",
    "noteNumber": 71,
    "channel": 0,
    "deltaTime": 120
  },
  {
    "subtype": "noteOn",
    "velocity": 0,
    "type": "channel",
    "noteNumber": 71,
    "channel": 0,
    "deltaTime": 120
  },
  {
    "subtype": "noteOn",
    "velocity": 0,
    "type": "channel",
    "noteNumber": 68,
    "channel": 0,
    "deltaTime": 120
  },
  {
    "subtype": "noteOn",
    "velocity": 0,
    "type": "channel",
    "noteNumber": 68,
    "channel": 0,
    "deltaTime": 120
  },
  {
    "subtype": "noteOn",
    "velocity": 0,
    "type": "channel",
    "noteNumber": 83,
    "channel": 0,
    "deltaTime": 120
  },
  {
    "subtype": "noteOn",
    "velocity": 0,
    "type": "channel",
    "noteNumber": 83,
    "channel": 0,
    "deltaTime": 120
  },
  {
    "subtype": "noteOn",
    "velocity": 0,
    "type": "channel",
    "noteNumber": 66,
    "channel": 0,
    "deltaTime": 120
  },
  {
    "subtype": "noteOn",
    "velocity": 0,
    "type": "channel",
    "noteNumber": 66,
    "channel": 0,
    "deltaTime": 120
  },
  {
    "subtype": "noteOff",
    "velocity": 0,
    "type": "channel",
    "noteNumber": 66,
    "channel": 0,
    "deltaTime": 0
  },
  {
    "subtype": "noteOn",
    "velocity": 0,
    "type": "channel",
    "noteNumber": 68,
    "channel": 0,
    "deltaTime": 120
  },
  {
    "subtype": "noteOn",
    "velocity": 0,
    "type": "channel",
    "noteNumber": 71,
    "channel": 0,
    "deltaTime": 120
  },
  {
    "subtype": "noteOn",
    "velocity": 0,
    "type": "channel",
    "noteNumber": 70,
    "channel": 0,
    "deltaTime": 120
  },
  {
    "subtype": "noteOn",
    "velocity": 0,
    "type": "channel",
    "noteNumber": 75,
    "channel": 0,
    "deltaTime": 120
  },
  {
    "subtype": "noteOn",
    "velocity": 0,
    "type": "channel",
    "noteNumber": 75,
    "channel": 0,
    "deltaTime": 120
  },
  {
    "subtype": "noteOff",
    "velocity": 0,
    "type": "channel",
    "noteNumber": 75,
    "channel": 0,
    "deltaTime": 0
  },
  {
    "subtype": "noteOn",
    "velocity": 0,
    "type": "channel",
    "noteNumber": 75,
    "channel": 0,
    "deltaTime": 120
  },
  {
    "subtype": "noteOn",
    "velocity": 0,
    "type": "channel",
    "noteNumber": 75,
    "channel": 0,
    "deltaTime": 120
  },
  {
    "subtype": "noteOn",
    "velocity": 0,
    "type": "channel",
    "noteNumber": 61,
    "channel": 0,
    "deltaTime": 120
  },
  {
    "subtype": "noteOn",
    "velocity": 0,
    "type": "channel",
    "noteNumber": 73,
    "channel": 0,
    "deltaTime": 120
  },
  {
    "subtype": "noteOn",
    "velocity": 0,
    "type": "channel",
    "noteNumber": 73,
    "channel": 0,
    "deltaTime": 120
  },
  {
    "subtype": "noteOff",
    "velocity": 0,
    "type": "channel",
    "noteNumber": 73,
    "channel": 0,
    "deltaTime": 0
  },
  {
    "subtype": "noteOn",
    "velocity": 0,
    "type": "channel",
    "noteNumber": 71,
    "channel": 0,
    "deltaTime": 120
  },
  {
    "subtype": "noteOn",
    "velocity": 0,
    "type": "channel",
    "noteNumber": 67,
    "channel": 0,
    "deltaTime": 120
  },
  {
    "subtype": "noteOn",
    "velocity": 0,
    "type": "channel",
    "noteNumber": 67,
    "channel": 0,
    "deltaTime": 120
  },
  {
    "subtype": "noteOn",
    "velocity": 0,
    "type": "channel",
    "noteNumber": 65,
    "channel": 0,
    "deltaTime": 120
  },
  {
    "subtype": "noteOn",
    "velocity": 0,
    "type": "channel",
    "noteNumber": 85,
    "channel": 0,
    "deltaTime": 120
  },
  {
    "subtype": "noteOn",
    "velocity": 0,
    "type": "channel",
    "noteNumber": 82,
    "channel": 0,
    "deltaTime": 120
  },
  {
    "subtype": "noteOn",
    "velocity": 0,
    "type": "channel",
    "noteNumber": 82,
    "channel": 0,
    "deltaTime": 120
  },
  {
    "subtype": "noteOff",
    "velocity": 0,
    "type": "channel",
    "noteNumber": 82,
    "channel": 0,
    "deltaTime": 0
  },
  {
    "subtype": "noteOn",
    "velocity": 0,
    "type": "channel",
    "noteNumber": 82,
    "channel": 0,
    "deltaTime": 120
  },
  {
    "subtype": "noteOff",
    "velocity": 0,
    "type": "channel",
    "noteNumber": 82,
    "channel": 0,
    "deltaTime": 0
  },
  {
    "subtype": "noteOn",
    "velocity": 0,
    "type": "channel",
    "noteNumber": 79,
    "channel": 0,
    "deltaTime": 120
  },
  {
    "subtype": "noteOn",
    "velocity": 0,
    "type": "channel",
    "noteNumber": 80,
    "channel": 0,
    "deltaTime": 120
  },
  {
    "subtype": "noteOn",
    "velocity": 0,
    "type": "channel",
    "noteNumber": 80,
    "channel": 0,
    "deltaTime": 120
  },
  {
    "subtype": "noteOff",
    "velocity": 0,
    "type": "channel",
    "noteNumber": 80,
    "channel": 0,
    "deltaTime": 0
  },
  {
    "subtype": "noteOn",
    "velocity": 0,
    "type": "channel",
    "noteNumber": 63,
    "channel": 0,
    "deltaTime": 120
  },
  {
    "subtype": "noteOff",
    "velocity": 0,
    "type": "channel",
    "noteNumber": 63,
    "channel": 0,
    "deltaTime": 0
  },
  {
    "subtype": "noteOff",
    "velocity": 0,
    "type": "channel",
    "noteNumber": 63,
    "channel": 0,
    "deltaTime": 0
  },
  {
    "subtype": "noteOn",
    "velocity": 0,
    "type": "channel",
    "noteNumber": 75,
    "channel": 0,
    "deltaTime": 120
  },
  {
    "subtype": "noteOn",
    "velocity": 0,
    "type": "channel",
    "noteNumber": 75,
    "channel": 0,
    "deltaTime": 120
  },
  {
    "subtype": "noteOff",
    "velocity": 0,
    "type": "channel",
    "noteNumber": 75,
    "channel": 0,
    "deltaTime": 0
  },
  {
    "subtype": "noteOn",
    "velocity": 0,
    "type": "channel",
    "noteNumber": 84,
    "channel": 0,
    "deltaTime": 120
  },
  {
    "subtype": "noteOn",
    "velocity": 0,
    "type": "channel",
    "noteNumber": 80,
    "channel": 0,
    "deltaTime": 120
  },
  {
    "subtype": "noteOn",
    "velocity": 0,
    "type": "channel",
    "noteNumber": 75,
    "channel": 0,
    "deltaTime": 120
  },
  {
    "subtype": "noteOn",
    "velocity": 0,
    "type": "channel",
    "noteNumber": 79,
    "channel": 0,
    "deltaTime": 120
  },
  {
    "subtype": "noteOn",
    "velocity": 0,
    "type": "channel",
    "noteNumber": 79,
    "channel": 0,
    "deltaTime": 120
  },
  {
    "subtype": "noteOff",
    "velocity": 0,
    "type": "channel",
    "noteNumber": 79,
    "channel": 0,
    "deltaTime": 0
  },
  {
    "subtype": "noteOn",
    "velocity": 0,
    "type": "channel",
    "noteNumber": 80,
    "channel": 0,
    "deltaTime": 120
  },
  {
    "subtype": "noteOff",
    "velocity": 0,
    "type": "channel",
    "noteNumber": 80,
    "channel": 0,
    "deltaTime": 0
  },
  {
    "subtype": "noteOn",
    "velocity": 0,
    "type": "channel",
    "noteNumber": 75,
    "channel": 0,
    "deltaTime": 120
  },
  {
    "subtype": "noteOn",
    "velocity": 0,
    "type": "channel",
    "noteNumber": 73,
    "channel": 0,
    "deltaTime": 120
  },
  {
    "subtype": "noteOn",
    "velocity": 0,
    "type": "channel",
    "noteNumber": 73,
    "channel": 0,
    "deltaTime": 120
  },
  {
    "subtype": "noteOn",
    "velocity": 0,
    "type": "channel",
    "noteNumber": 73,
    "channel": 0,
    "deltaTime": 120
  },
  {
    "subtype": "noteOn",
    "velocity": 0,
    "type": "channel",
    "noteNumber": 73,
    "channel": 0,
    "deltaTime": 120
  },
  {
    "subtype": "noteOn",
    "velocity": 0,
    "type": "channel",
    "noteNumber": 73,
    "channel": 0,
    "deltaTime": 120
  },
  {
    "subtype": "noteOn",
    "velocity": 0,
    "type": "channel",
    "noteNumber": 73,
    "channel": 0,
    "deltaTime": 120
  },
  {
    "subtype": "noteOff",
    "velocity": 0,
    "type": "channel",
    "noteNumber": 73,
    "channel": 0,
    "deltaTime": 0
  },
  {
    "subtype": "noteOn",
    "velocity": 0,
    "type": "channel",
    "noteNumber": 76,
    "channel": 0,
    "deltaTime": 120
  },
  {
    "subtype": "noteOff",
    "velocity": 0,
    "type": "channel",
    "noteNumber": 76,
    "channel": 0,
    "deltaTime": 0
  },
  {
    "subtype": "noteOn",
    "velocity": 0,
    "type": "channel",
    "noteNumber": 73,
    "channel": 0,
    "deltaTime": 120
  },
  {
    "subtype": "noteOn",
    "velocity": 0,
    "type": "channel",
    "noteNumber": 82,
    "channel": 0,
    "deltaTime": 120
  },
  {
    "subtype": "noteOn",
    "velocity": 0,
    "type": "channel",
    "noteNumber": 82,
    "channel": 0,
    "deltaTime": 120
  },
  {
    "subtype": "noteOff",
    "velocity": 0,
    "type": "channel",
    "noteNumber": 82,
    "channel": 0,
    "deltaTime": 0
  },
  {
    "subtype": "noteOn",
    "velocity": 0,
    "type": "channel",
    "noteNumber": 80,
    "channel": 0,
    "deltaTime": 120
  },
  {
    "subtype": "noteOff",
    "velocity": 0,
    "type": "channel",
    "noteNumber": 80,
    "channel": 0,
    "deltaTime": 0
  },
  {
    "subtype": "noteOn",
    "velocity": 0,
    "type": "channel",
    "noteNumber": 66,
    "channel": 0,
    "deltaTime": 120
  },
  {
    "subtype": "noteOff",
    "velocity": 0,
    "type": "channel",
    "noteNumber": 66,
    "channel": 0,
    "deltaTime": 0
  },
  {
    "subtype": "noteOn",
    "velocity": 0,
    "type": "channel",
    "noteNumber": 73,
    "channel": 0,
    "deltaTime": 120
  },
  {
    "subtype": "noteOff",
    "velocity": 0,
    "type": "channel",
    "noteNumber": 73,
    "channel": 0,
    "deltaTime": 0
  },
  {
    "subtype": "noteOn",
    "velocity": 0,
    "type": "channel",
    "noteNumber": 63,
    "channel": 0,
    "deltaTime": 120
  },
  {
    "subtype": "noteOff",
    "velocity": 0,
    "type": "channel",
    "noteNumber": 63,
    "channel": 0,
    "deltaTime": 0
  },
  {
    "subtype": "noteOn",
    "velocity": 0,
    "type": "channel",
    "noteNumber": 71,
    "channel": 0,
    "deltaTime": 120
  },
  {
    "subtype": "noteOn",
    "velocity": 0,
    "type": "channel",
    "noteNumber": 73,
    "channel": 0,
    "deltaTime": 120
  },
  {
    "subtype": "noteOn",
    "velocity": 0,
    "type": "channel",
    "noteNumber": 73,
    "channel": 0,
    "deltaTime": 120
  },
  {
    "subtype": "noteOn",
    "velocity": 0,
    "type": "channel",
    "noteNumber": 73,
    "channel": 0,
    "deltaTime": 120
  },
  {
    "subtype": "noteOn",
    "velocity": 0,
    "type": "channel",
    "noteNumber": 73,
    "channel": 0,
    "deltaTime": 120
  },
  {
    "subtype": "noteOn",
    "velocity": 0,
    "type": "channel",
    "noteNumber": 73,
    "channel": 0,
    "deltaTime": 120
  },
  {
    "subtype": "noteOn",
    "velocity": 0,
    "type": "channel",
    "noteNumber": 73,
    "channel": 0,
    "deltaTime": 120
  },
  {
    "subtype": "noteOn",
    "velocity": 0,
    "type": "channel",
    "noteNumber": 70,
    "channel": 0,
    "deltaTime": 120
  },
  {
    "subtype": "noteOn",
    "velocity": 0,
    "type": "channel",
    "noteNumber": 70,
    "channel": 0,
    "deltaTime": 120
  },
  {
    "subtype": "noteOn",
    "velocity": 0,
    "type": "channel",
    "noteNumber": 70,
    "channel": 0,
    "deltaTime": 120
  },
  {
    "subtype": "noteOn",
    "velocity": 0,
    "type": "channel",
    "noteNumber": 73,
    "channel": 0,
    "deltaTime": 120
  },
  {
    "subtype": "noteOff",
    "velocity": 0,
    "type": "channel",
    "noteNumber": 73,
    "channel": 0,
    "deltaTime": 0
  },
  {
    "subtype": "noteOff",
    "velocity": 0,
    "type": "channel",
    "noteNumber": 73,
    "channel": 0,
    "deltaTime": 0
  },
  {
    "subtype": "noteOn",
    "velocity": 0,
    "type": "channel",
    "noteNumber": 83,
    "channel": 0,
    "deltaTime": 120
  },
  {
    "subtype": "noteOn",
    "velocity": 0,
    "type": "channel",
    "noteNumber": 83,
    "channel": 0,
    "deltaTime": 120
  },
  {
    "subtype": "noteOn",
    "velocity": 0,
    "type": "channel",
    "noteNumber": 83,
    "channel": 0,
    "deltaTime": 120
  },
  {
    "subtype": "noteOn",
    "velocity": 0,
    "type": "channel",
    "noteNumber": 82,
    "channel": 0,
    "deltaTime": 120
  },
  {
    "subtype": "noteOn",
    "velocity": 0,
    "type": "channel",
    "noteNumber": 85,
    "channel": 0,
    "deltaTime": 120
  },
  {
    "subtype": "noteOn",
    "velocity": 0,
    "type": "channel",
    "noteNumber": 80,
    "channel": 0,
    "deltaTime": 120
  },
  {
    "subtype": "noteOn",
    "velocity": 0,
    "type": "channel",
    "noteNumber": 82,
    "channel": 0,
    "deltaTime": 120
  },
  {
    "subtype": "noteOn",
    "velocity": 0,
    "type": "channel",
    "noteNumber": 79,
    "channel": 0,
    "deltaTime": 120
  },
  {
    "subtype": "noteOn",
    "velocity": 0,
    "type": "channel",
    "noteNumber": 79,
    "channel": 0,
    "deltaTime": 120
  },
  {
    "subtype": "noteOn",
    "velocity": 0,
    "type": "channel",
    "noteNumber": 80,
    "channel": 0,
    "deltaTime": 120
  },
  {
    "subtype": "noteOn",
    "velocity": 0,
    "type": "channel",
    "noteNumber": 80,
    "channel": 0,
    "deltaTime": 120
  },
  {
    "subtype": "noteOn",
    "velocity": 0,
    "type": "channel",
    "noteNumber": 63,
    "channel": 0,
    "deltaTime": 120
  },
  {
    "subtype": "noteOn",
    "velocity": 0,
    "type": "channel",
    "noteNumber": 63,
    "channel": 0,
    "deltaTime": 120
  },
  {
    "subtype": "noteOn",
    "velocity": 0,
    "type": "channel",
    "noteNumber": 61,
    "channel": 0,
    "deltaTime": 120
  },
  {
    "subtype": "noteOn",
    "velocity": 0,
    "type": "channel",
    "noteNumber": 76,
    "channel": 0,
    "deltaTime": 120
  },
  {
    "subtype": "noteOn",
    "velocity": 0,
    "type": "channel",
    "noteNumber": 75,
    "channel": 0,
    "deltaTime": 120
  },
  {
    "subtype": "noteOn",
    "velocity": 0,
    "type": "channel",
    "noteNumber": 75,
    "channel": 0,
    "deltaTime": 120
  },
  {
    "subtype": "noteOn",
    "velocity": 0,
    "type": "channel",
    "noteNumber": 85,
    "channel": 0,
    "deltaTime": 120
  },
  {
    "subtype": "noteOn",
    "velocity": 0,
    "type": "channel",
    "noteNumber": 85,
    "channel": 0,
    "deltaTime": 120
  },
  {
    "subtype": "noteOn",
    "velocity": 0,
    "type": "channel",
    "noteNumber": 85,
    "channel": 0,
    "deltaTime": 120
  },
  {
    "subtype": "noteOn",
    "velocity": 0,
    "type": "channel",
    "noteNumber": 85,
    "channel": 0,
    "deltaTime": 120
  },
  {
    "subtype": "noteOn",
    "velocity": 0,
    "type": "channel",
    "noteNumber": 82,
    "channel": 0,
    "deltaTime": 120
  },
  {
    "subtype": "noteOn",
    "velocity": 0,
    "type": "channel",
    "noteNumber": 82,
    "channel": 0,
    "deltaTime": 120
  },
  {
    "subtype": "noteOn",
    "velocity": 0,
    "type": "channel",
    "noteNumber": 82,
    "channel": 0,
    "deltaTime": 120
  },
  {
    "subtype": "noteOn",
    "velocity": 0,
    "type": "channel",
    "noteNumber": 82,
    "channel": 0,
    "deltaTime": 120
  },
  {
    "subtype": "noteOn",
    "velocity": 0,
    "type": "channel",
    "noteNumber": 83,
    "channel": 0,
    "deltaTime": 120
  },
  {
    "subtype": "noteOn",
    "velocity": 0,
    "type": "channel",
    "noteNumber": 83,
    "channel": 0,
    "deltaTime": 120
  },
  {
    "subtype": "noteOn",
    "velocity": 0,
    "type": "channel",
    "noteNumber": 83,
    "channel": 0,
    "deltaTime": 120
  },
  {
    "subtype": "noteOn",
    "velocity": 0,
    "type": "channel",
    "noteNumber": 83,
    "channel": 0,
    "deltaTime": 120
  },
  {
    "subtype": "noteOn",
    "velocity": 0,
    "type": "channel",
    "noteNumber": 85,
    "channel": 0,
    "deltaTime": 120
  },
  {
    "subtype": "noteOn",
    "velocity": 0,
    "type": "channel",
    "noteNumber": 85,
    "channel": 0,
    "deltaTime": 120
  },
  {
    "subtype": "noteOn",
    "velocity": 0,
    "type": "channel",
    "noteNumber": 83,
    "channel": 0,
    "deltaTime": 120
  },
  {
    "subtype": "noteOn",
    "velocity": 0,
    "type": "channel",
    "noteNumber": 83,
    "channel": 0,
    "deltaTime": 120
  },
  {
    "subtype": "noteOn",
    "velocity": 0,
    "type": "channel",
    "noteNumber": 85,
    "channel": 0,
    "deltaTime": 120
  },
  {
    "subtype": "noteOn",
    "velocity": 0,
    "type": "channel",
    "noteNumber": 85,
    "channel": 0,
    "deltaTime": 120
  },
  {
    "subtype": "noteOn",
    "velocity": 0,
    "type": "channel",
    "noteNumber": 83,
    "channel": 0,
    "deltaTime": 120
  },
  {
    "subtype": "noteOn",
    "velocity": 0,
    "type": "channel",
    "noteNumber": 83,
    "channel": 0,
    "deltaTime": 120
  },
  {
    "subtype": "noteOn",
    "velocity": 0,
    "type": "channel",
    "noteNumber": 82,
    "channel": 0,
    "deltaTime": 120
  },
  {
    "subtype": "noteOn",
    "velocity": 0,
    "type": "channel",
    "noteNumber": 82,
    "channel": 0,
    "deltaTime": 120
  },
  {
    "subtype": "noteOn",
    "velocity": 0,
    "type": "channel",
    "noteNumber": 80,
    "channel": 0,
    "deltaTime": 120
  },
  {
    "subtype": "noteOn",
    "velocity": 0,
    "type": "channel",
    "noteNumber": 80,
    "channel": 0,
    "deltaTime": 120
  },
  {
    "subtype": "noteOn",
    "velocity": 0,
    "type": "channel",
    "noteNumber": 79,
    "channel": 0,
    "deltaTime": 120
  },
  {
    "subtype": "noteOn",
    "velocity": 0,
    "type": "channel",
    "noteNumber": 78,
    "channel": 0,
    "deltaTime": 120
  },
  {
    "subtype": "noteOff",
    "velocity": 0,
    "type": "channel",
    "noteNumber": 78,
    "channel": 0,
    "deltaTime": 0
  },
  {
    "subtype": "noteOn",
    "velocity": 0,
    "type": "channel",
    "noteNumber": 85,
    "channel": 0,
    "deltaTime": 120
  },
  {
    "subtype": "noteOn",
    "velocity": 0,
    "type": "channel",
    "noteNumber": 83,
    "channel": 0,
    "deltaTime": 120
  },
  {
    "subtype": "noteOn",
    "velocity": 0,
    "type": "channel",
    "noteNumber": 83,
    "channel": 0,
    "deltaTime": 120
  },
  {
    "subtype": "noteOn",
    "velocity": 0,
    "type": "channel",
    "noteNumber": 82,
    "channel": 0,
    "deltaTime": 120
  },
  {
    "subtype": "noteOn",
    "velocity": 0,
    "type": "channel",
    "noteNumber": 82,
    "channel": 0,
    "deltaTime": 120
  },
  {
    "subtype": "noteOn",
    "velocity": 0,
    "type": "channel",
    "noteNumber": 82,
    "channel": 0,
    "deltaTime": 120
  },
  {
    "subtype": "noteOn",
    "velocity": 0,
    "type": "channel",
    "noteNumber": 82,
    "channel": 0,
    "deltaTime": 120
  },
  {
    "subtype": "noteOn",
    "velocity": 0,
    "type": "channel",
    "noteNumber": 82,
    "channel": 0,
    "deltaTime": 120
  },
  {
    "subtype": "noteOn",
    "velocity": 0,
    "type": "channel",
    "noteNumber": 73,
    "channel": 0,
    "deltaTime": 120
  },
  {
    "subtype": "noteOn",
    "velocity": 0,
    "type": "channel",
    "noteNumber": 73,
    "channel": 0,
    "deltaTime": 120
  },
  {
    "subtype": "noteOn",
    "velocity": 0,
    "type": "channel",
    "noteNumber": 73,
    "channel": 0,
    "deltaTime": 120
  },
  {
    "subtype": "noteOn",
    "velocity": 0,
    "type": "channel",
    "noteNumber": 73,
    "channel": 0,
    "deltaTime": 120
  },
  {
    "subtype": "noteOn",
    "velocity": 0,
    "type": "channel",
    "noteNumber": 73,
    "channel": 0,
    "deltaTime": 120
  },
  {
    "subtype": "noteOn",
    "velocity": 0,
    "type": "channel",
    "noteNumber": 73,
    "channel": 0,
    "deltaTime": 120
  },
  {
    "subtype": "noteOn",
    "velocity": 0,
    "type": "channel",
    "noteNumber": 73,
    "channel": 0,
    "deltaTime": 120
  },
  {
    "subtype": "noteOn",
    "velocity": 0,
    "type": "channel",
    "noteNumber": 73,
    "channel": 0,
    "deltaTime": 120
  },
  {
    "subtype": "noteOn",
    "velocity": 0,
    "type": "channel",
    "noteNumber": 73,
    "channel": 0,
    "deltaTime": 120
  },
  {
    "subtype": "noteOn",
    "velocity": 0,
    "type": "channel",
    "noteNumber": 73,
    "channel": 0,
    "deltaTime": 120
  },
  {
    "subtype": "noteOn",
    "velocity": 0,
    "type": "channel",
    "noteNumber": 73,
    "channel": 0,
    "deltaTime": 120
  },
  {
    "subtype": "noteOn",
    "velocity": 0,
    "type": "channel",
    "noteNumber": 73,
    "channel": 0,
    "deltaTime": 120
  },
  {
    "subtype": "noteOn",
    "velocity": 0,
    "type": "channel",
    "noteNumber": 73,
    "channel": 0,
    "deltaTime": 120
  },
  {
    "subtype": "noteOn",
    "velocity": 0,
    "type": "channel",
    "noteNumber": 73,
    "channel": 0,
    "deltaTime": 120
  },
  {
    "subtype": "noteOff",
    "velocity": 0,
    "type": "channel",
    "noteNumber": 73,
    "channel": 0,
    "deltaTime": 0
  },
  {
    "subtype": "noteOff",
    "velocity": 0,
    "type": "channel",
    "noteNumber": 73,
    "channel": 0,
    "deltaTime": 0
  },
  {
    "subtype": "noteOn",
    "velocity": 0,
    "type": "channel",
    "noteNumber": 78,
    "channel": 0,
    "deltaTime": 120
  },
  {
    "subtype": "noteOn",
    "velocity": 0,
    "type": "channel",
    "noteNumber": 73,
    "channel": 0,
    "deltaTime": 120
  },
  {
    "subtype": "noteOff",
    "velocity": 0,
    "type": "channel",
    "noteNumber": 73,
    "channel": 0,
    "deltaTime": 0
  },
  {
    "subtype": "noteOn",
    "velocity": 0,
    "type": "channel",
    "noteNumber": 76,
    "channel": 0,
    "deltaTime": 120
  },
  {
    "subtype": "noteOn",
    "velocity": 0,
    "type": "channel",
    "noteNumber": 75,
    "channel": 0,
    "deltaTime": 120
  },
  {
    "subtype": "noteOn",
    "velocity": 0,
    "type": "channel",
    "noteNumber": 75,
    "channel": 0,
    "deltaTime": 120
  },
  {
    "subtype": "noteOn",
    "velocity": 0,
    "type": "channel",
    "noteNumber": 73,
    "channel": 0,
    "deltaTime": 120
  },
  {
    "subtype": "noteOn",
    "velocity": 0,
    "type": "channel",
    "noteNumber": 73,
    "channel": 0,
    "deltaTime": 120
  },
  {
    "subtype": "noteOn",
    "velocity": 0,
    "type": "channel",
    "noteNumber": 71,
    "channel": 0,
    "deltaTime": 120
  },
  {
    "subtype": "noteOn",
    "velocity": 0,
    "type": "channel",
    "noteNumber": 71,
    "channel": 0,
    "deltaTime": 120
  },
  {
    "subtype": "noteOn",
    "velocity": 0,
    "type": "channel",
    "noteNumber": 70,
    "channel": 0,
    "deltaTime": 120
  },
  {
    "subtype": "noteOn",
    "velocity": 0,
    "type": "channel",
    "noteNumber": 70,
    "channel": 0,
    "deltaTime": 120
  },
  {
    "subtype": "noteOn",
    "velocity": 0,
    "type": "channel",
    "noteNumber": 71,
    "channel": 0,
    "deltaTime": 120
  },
  {
    "subtype": "noteOn",
    "velocity": 0,
    "type": "channel",
    "noteNumber": 71,
    "channel": 0,
    "deltaTime": 120
  },
  {
    "subtype": "noteOn",
    "velocity": 0,
    "type": "channel",
    "noteNumber": 68,
    "channel": 0,
    "deltaTime": 120
  },
  {
    "subtype": "noteOn",
    "velocity": 0,
    "type": "channel",
    "noteNumber": 68,
    "channel": 0,
    "deltaTime": 120
  },
  {
    "subtype": "noteOff",
    "velocity": 0,
    "type": "channel",
    "noteNumber": 68,
    "channel": 0,
    "deltaTime": 0
  },
  {
    "subtype": "noteOn",
    "velocity": 0,
    "type": "channel",
    "noteNumber": 71,
    "channel": 0,
    "deltaTime": 120
  },
  {
    "subtype": "noteOn",
    "velocity": 0,
    "type": "channel",
    "noteNumber": 75,
    "channel": 0,
    "deltaTime": 120
  },
  {
    "subtype": "noteOn",
    "velocity": 0,
    "type": "channel",
    "noteNumber": 76,
    "channel": 0,
    "deltaTime": 120
  },
  {
    "subtype": "noteOff",
    "velocity": 0,
    "type": "channel",
    "noteNumber": 76,
    "channel": 0,
    "deltaTime": 0
  },
  {
    "subtype": "noteOn",
    "velocity": 0,
    "type": "channel",
    "noteNumber": 70,
    "channel": 0,
    "deltaTime": 120
  },
  {
    "subtype": "noteOn",
    "velocity": 0,
    "type": "channel",
    "noteNumber": 68,
    "channel": 0,
    "deltaTime": 120
  },
  {
    "subtype": "noteOn",
    "velocity": 0,
    "type": "channel",
    "noteNumber": 68,
    "channel": 0,
    "deltaTime": 120
  },
  {
    "subtype": "noteOn",
    "velocity": 0,
    "type": "channel",
    "noteNumber": 71,
    "channel": 0,
    "deltaTime": 120
  },
  {
    "subtype": "noteOn",
    "velocity": 0,
    "type": "channel",
    "noteNumber": 71,
    "channel": 0,
    "deltaTime": 120
  },
  {
    "subtype": "noteOn",
    "velocity": 0,
    "type": "channel",
    "noteNumber": 70,
    "channel": 0,
    "deltaTime": 120
  },
  {
    "subtype": "noteOn",
    "velocity": 0,
    "type": "channel",
    "noteNumber": 70,
    "channel": 0,
    "deltaTime": 120
  },
  {
    "subtype": "noteOn",
    "velocity": 0,
    "type": "channel",
    "noteNumber": 68,
    "channel": 0,
    "deltaTime": 120
  },
  {
    "subtype": "noteOn",
    "velocity": 0,
    "type": "channel",
    "noteNumber": 68,
    "channel": 0,
    "deltaTime": 120
  },
  {
    "subtype": "noteOn",
    "velocity": 0,
    "type": "channel",
    "noteNumber": 71,
    "channel": 0,
    "deltaTime": 120
  },
  {
    "subtype": "noteOn",
    "velocity": 0,
    "type": "channel",
    "noteNumber": 71,
    "channel": 0,
    "deltaTime": 120
  },
  {
    "subtype": "noteOff",
    "velocity": 0,
    "type": "channel",
    "noteNumber": 71,
    "channel": 0,
    "deltaTime": 0
  },
  {
    "subtype": "noteOn",
    "velocity": 0,
    "type": "channel",
    "noteNumber": 70,
    "channel": 0,
    "deltaTime": 120
  },
  {
    "subtype": "noteOn",
    "velocity": 0,
    "type": "channel",
    "noteNumber": 71,
    "channel": 0,
    "deltaTime": 120
  },
  {
    "subtype": "noteOn",
    "velocity": 0,
    "type": "channel",
    "noteNumber": 68,
    "channel": 0,
    "deltaTime": 120
  },
  {
    "subtype": "noteOff",
    "velocity": 0,
    "type": "channel",
    "noteNumber": 68,
    "channel": 0,
    "deltaTime": 0
  },
  {
    "subtype": "noteOn",
    "velocity": 0,
    "type": "channel",
    "noteNumber": 71,
    "channel": 0,
    "deltaTime": 120
  },
  {
    "subtype": "noteOff",
    "velocity": 0,
    "type": "channel",
    "noteNumber": 71,
    "channel": 0,
    "deltaTime": 0
  },
  {
    "subtype": "noteOn",
    "velocity": 0,
    "type": "channel",
    "noteNumber": 70,
    "channel": 0,
    "deltaTime": 120
  },
  {
    "subtype": "noteOn",
    "velocity": 0,
    "type": "channel",
    "noteNumber": 68,
    "channel": 0,
    "deltaTime": 120
  },
  {
    "subtype": "noteOn",
    "velocity": 0,
    "type": "channel",
    "noteNumber": 68,
    "channel": 0,
    "deltaTime": 120
  },
  {
    "subtype": "noteOff",
    "velocity": 0,
    "type": "channel",
    "noteNumber": 68,
    "channel": 0,
    "deltaTime": 0
  },
  {
    "subtype": "noteOn",
    "velocity": 0,
    "type": "channel",
    "noteNumber": 68,
    "channel": 0,
    "deltaTime": 120
  },
  {
    "subtype": "noteOff",
    "velocity": 0,
    "type": "channel",
    "noteNumber": 68,
    "channel": 0,
    "deltaTime": 0
  },
  {
    "subtype": "noteOn",
    "velocity": 0,
    "type": "channel",
    "noteNumber": 68,
    "channel": 0,
    "deltaTime": 120
  },
  {
    "subtype": "noteOn",
    "velocity": 0,
    "type": "channel",
    "noteNumber": 67,
    "channel": 0,
    "deltaTime": 120
  },
  {
    "subtype": "noteOn",
    "velocity": 0,
    "type": "channel",
    "noteNumber": 63,
    "channel": 0,
    "deltaTime": 120
  },
  {
    "subtype": "noteOn",
    "velocity": 0,
    "type": "channel",
    "noteNumber": 75,
    "channel": 0,
    "deltaTime": 120
  },
  {
    "subtype": "noteOn",
    "velocity": 0,
    "type": "channel",
    "noteNumber": 75,
    "channel": 0,
    "deltaTime": 120
  },
  {
    "subtype": "noteOn",
    "velocity": 0,
    "type": "channel",
    "noteNumber": 70,
    "channel": 0,
    "deltaTime": 120
  },
  {
    "subtype": "noteOn",
    "velocity": 0,
    "type": "channel",
    "noteNumber": 70,
    "channel": 0,
    "deltaTime": 120
  },
  {
    "subtype": "noteOn",
    "velocity": 0,
    "type": "channel",
    "noteNumber": 68,
    "channel": 0,
    "deltaTime": 120
  },
  {
    "subtype": "noteOn",
    "velocity": 0,
    "type": "channel",
    "noteNumber": 68,
    "channel": 0,
    "deltaTime": 120
  },
  {
    "subtype": "noteOn",
    "velocity": 0,
    "type": "channel",
    "noteNumber": 67,
    "channel": 0,
    "deltaTime": 120
  },
  {
    "subtype": "noteOn",
    "velocity": 0,
    "type": "channel",
    "noteNumber": 67,
    "channel": 0,
    "deltaTime": 120
  },
  {
    "subtype": "noteOn",
    "velocity": 0,
    "type": "channel",
    "noteNumber": 68,
    "channel": 0,
    "deltaTime": 120
  },
  {
    "subtype": "noteOn",
    "velocity": 0,
    "type": "channel",
    "noteNumber": 68,
    "channel": 0,
    "deltaTime": 120
  },
  {
    "subtype": "noteOff",
    "velocity": 0,
    "type": "channel",
    "noteNumber": 68,
    "channel": 0,
    "deltaTime": 0
  },
  {
    "subtype": "noteOn",
    "velocity": 0,
    "type": "channel",
    "noteNumber": 75,
    "channel": 0,
    "deltaTime": 120
  },
  {
    "subtype": "noteOff",
    "velocity": 0,
    "type": "channel",
    "noteNumber": 75,
    "channel": 0,
    "deltaTime": 0
  },
  {
    "subtype": "noteOn",
    "velocity": 0,
    "type": "channel",
    "noteNumber": 76,
    "channel": 0,
    "deltaTime": 120
  },
  {
    "subtype": "noteOn",
    "velocity": 0,
    "type": "channel",
    "noteNumber": 63,
    "channel": 0,
    "deltaTime": 120
  },
  {
    "subtype": "noteOn",
    "velocity": 0,
    "type": "channel",
    "noteNumber": 63,
    "channel": 0,
    "deltaTime": 120
  },
  {
    "subtype": "noteOn",
    "velocity": 0,
    "type": "channel",
    "noteNumber": 76,
    "channel": 0,
    "deltaTime": 120
  },
  {
    "subtype": "noteOn",
    "velocity": 0,
    "type": "channel",
    "noteNumber": 76,
    "channel": 0,
    "deltaTime": 120
  },
  {
    "subtype": "noteOn",
    "velocity": 0,
    "type": "channel",
    "noteNumber": 75,
    "channel": 0,
    "deltaTime": 120
  },
  {
    "subtype": "noteOn",
    "velocity": 0,
    "type": "channel",
    "noteNumber": 75,
    "channel": 0,
    "deltaTime": 120
  },
  {
    "subtype": "noteOn",
    "velocity": 0,
    "type": "channel",
    "noteNumber": 73,
    "channel": 0,
    "deltaTime": 120
  },
  {
    "subtype": "noteOn",
    "velocity": 0,
    "type": "channel",
    "noteNumber": 73,
    "channel": 0,
    "deltaTime": 120
  },
  {
    "subtype": "noteOff",
    "velocity": 0,
    "type": "channel",
    "noteNumber": 73,
    "channel": 0,
    "deltaTime": 0
  },
  {
    "subtype": "noteOn",
    "velocity": 0,
    "type": "channel",
    "noteNumber": 70,
    "channel": 0,
    "deltaTime": 120
  },
  {
    "subtype": "noteOff",
    "velocity": 0,
    "type": "channel",
    "noteNumber": 70,
    "channel": 0,
    "deltaTime": 0
  },
  {
    "subtype": "noteOn",
    "velocity": 0,
    "type": "channel",
    "noteNumber": 75,
    "channel": 0,
    "deltaTime": 120
  },
  {
    "subtype": "noteOff",
    "velocity": 0,
    "type": "channel",
    "noteNumber": 75,
    "channel": 0,
    "deltaTime": 0
  },
  {
    "subtype": "noteOn",
    "velocity": 0,
    "type": "channel",
    "noteNumber": 65,
    "channel": 0,
    "deltaTime": 120
  },
  {
    "subtype": "noteOn",
    "velocity": 0,
    "type": "channel",
    "noteNumber": 75,
    "channel": 0,
    "deltaTime": 120
  },
  {
    "subtype": "noteOn",
    "velocity": 0,
    "type": "channel",
    "noteNumber": 75,
    "channel": 0,
    "deltaTime": 120
  },
  {
    "subtype": "noteOff",
    "velocity": 0,
    "type": "channel",
    "noteNumber": 75,
    "channel": 0,
    "deltaTime": 0
  },
  {
    "subtype": "noteOn",
    "velocity": 0,
    "type": "channel",
    "noteNumber": 74,
    "channel": 0,
    "deltaTime": 120
  },
  {
    "subtype": "noteOn",
    "velocity": 0,
    "type": "channel",
    "noteNumber": 75,
    "channel": 0,
    "deltaTime": 120
  },
  {
    "subtype": "noteOn",
    "velocity": 0,
    "type": "channel",
    "noteNumber": 75,
    "channel": 0,
    "deltaTime": 120
  },
  {
    "subtype": "noteOff",
    "velocity": 0,
    "type": "channel",
    "noteNumber": 75,
    "channel": 0,
    "deltaTime": 0
  },
  {
    "subtype": "noteOn",
    "velocity": 0,
    "type": "channel",
    "noteNumber": 80,
    "channel": 0,
    "deltaTime": 120
  },
  {
    "subtype": "noteOn",
    "velocity": 0,
    "type": "channel",
    "noteNumber": 82,
    "channel": 0,
    "deltaTime": 120
  },
  {
    "subtype": "noteOn",
    "velocity": 0,
    "type": "channel",
    "noteNumber": 82,
    "channel": 0,
    "deltaTime": 120
  },
  {
    "subtype": "noteOn",
    "velocity": 0,
    "type": "channel",
    "noteNumber": 83,
    "channel": 0,
    "deltaTime": 120
  },
  {
    "subtype": "noteOn",
    "velocity": 0,
    "type": "channel",
    "noteNumber": 83,
    "channel": 0,
    "deltaTime": 120
  },
  {
    "subtype": "noteOff",
    "velocity": 0,
    "type": "channel",
    "noteNumber": 83,
    "channel": 0,
    "deltaTime": 0
  },
  {
    "subtype": "noteOn",
    "velocity": 0,
    "type": "channel",
    "noteNumber": 82,
    "channel": 0,
    "deltaTime": 120
  },
  {
    "subtype": "noteOff",
    "velocity": 0,
    "type": "channel",
    "noteNumber": 82,
    "channel": 0,
    "deltaTime": 0
  },
  {
    "subtype": "noteOn",
    "velocity": 0,
    "type": "channel",
    "noteNumber": 80,
    "channel": 0,
    "deltaTime": 120
  },
  {
    "subtype": "noteOn",
    "velocity": 0,
    "type": "channel",
    "noteNumber": 79,
    "channel": 0,
    "deltaTime": 120
  },
  {
    "subtype": "noteOn",
    "velocity": 0,
    "type": "channel",
    "noteNumber": 79,
    "channel": 0,
    "deltaTime": 120
  },
  {
    "subtype": "noteOn",
    "velocity": 0,
    "type": "channel",
    "noteNumber": 80,
    "channel": 0,
    "deltaTime": 120
  },
  {
    "subtype": "noteOn",
    "velocity": 0,
    "type": "channel",
    "noteNumber": 80,
    "channel": 0,
    "deltaTime": 120
  },
  {
    "subtype": "noteOn",
    "velocity": 0,
    "type": "channel",
    "noteNumber": 75,
    "channel": 0,
    "deltaTime": 120
  },
  {
    "subtype": "noteOn",
    "velocity": 0,
    "type": "channel",
    "noteNumber": 75,
    "channel": 0,
    "deltaTime": 120
  },
  {
    "subtype": "noteOn",
    "velocity": 0,
    "type": "channel",
    "noteNumber": 80,
    "channel": 0,
    "deltaTime": 120
  },
  {
    "subtype": "noteOn",
    "velocity": 0,
    "type": "channel",
    "noteNumber": 80,
    "channel": 0,
    "deltaTime": 120
  },
  {
    "subtype": "noteOff",
    "velocity": 0,
    "type": "channel",
    "noteNumber": 80,
    "channel": 0,
    "deltaTime": 0
  },
  {
    "subtype": "noteOn",
    "velocity": 0,
    "type": "channel",
    "noteNumber": 75,
    "channel": 0,
    "deltaTime": 120
  },
  {
    "subtype": "noteOff",
    "velocity": 0,
    "type": "channel",
    "noteNumber": 75,
    "channel": 0,
    "deltaTime": 0
  },
  {
    "subtype": "noteOn",
    "velocity": 0,
    "type": "channel",
    "noteNumber": 73,
    "channel": 0,
    "deltaTime": 120
  },
  {
    "subtype": "noteOn",
    "velocity": 0,
    "type": "channel",
    "noteNumber": 75,
    "channel": 0,
    "deltaTime": 120
  },
  {
    "subtype": "noteOn",
    "velocity": 0,
    "type": "channel",
    "noteNumber": 75,
    "channel": 0,
    "deltaTime": 120
  },
  {
    "subtype": "noteOff",
    "velocity": 0,
    "type": "channel",
    "noteNumber": 75,
    "channel": 0,
    "deltaTime": 0
  },
  {
    "subtype": "noteOn",
    "velocity": 0,
    "type": "channel",
    "noteNumber": 82,
    "channel": 0,
    "deltaTime": 120
  },
  {
    "subtype": "noteOn",
    "velocity": 0,
    "type": "channel",
    "noteNumber": 80,
    "channel": 0,
    "deltaTime": 120
  },
  {
    "subtype": "noteOn",
    "velocity": 0,
    "type": "channel",
    "noteNumber": 80,
    "channel": 0,
    "deltaTime": 120
  },
  {
    "subtype": "noteOn",
    "velocity": 0,
    "type": "channel",
    "noteNumber": 82,
    "channel": 0,
    "deltaTime": 120
  },
  {
    "subtype": "noteOn",
    "velocity": 0,
    "type": "channel",
    "noteNumber": 82,
    "channel": 0,
    "deltaTime": 120
  },
  {
    "subtype": "noteOff",
    "velocity": 0,
    "type": "channel",
    "noteNumber": 82,
    "channel": 0,
    "deltaTime": 0
  },
  {
    "subtype": "noteOn",
    "velocity": 0,
    "type": "channel",
    "noteNumber": 82,
    "channel": 0,
    "deltaTime": 120
  },
  {
    "subtype": "noteOn",
    "velocity": 0,
    "type": "channel",
    "noteNumber": 80,
    "channel": 0,
    "deltaTime": 120
  },
  {
    "subtype": "noteOn",
    "velocity": 0,
    "type": "channel",
    "noteNumber": 80,
    "channel": 0,
    "deltaTime": 120
  },
  {
    "subtype": "noteOff",
    "velocity": 0,
    "type": "channel",
    "noteNumber": 80,
    "channel": 0,
    "deltaTime": 0
  },
  {
    "subtype": "noteOn",
    "velocity": 0,
    "type": "channel",
    "noteNumber": 68,
    "channel": 0,
    "deltaTime": 120
  },
  {
    "subtype": "noteOff",
    "velocity": 0,
    "type": "channel",
    "noteNumber": 68,
    "channel": 0,
    "deltaTime": 0
  },
  {
    "subtype": "noteOn",
    "velocity": 0,
    "type": "channel",
    "noteNumber": 74,
    "channel": 0,
    "deltaTime": 120
  },
  {
    "subtype": "noteOn",
    "velocity": 0,
    "type": "channel",
    "noteNumber": 68,
    "channel": 0,
    "deltaTime": 120
  },
  {
    "subtype": "noteOn",
    "velocity": 0,
    "type": "channel",
    "noteNumber": 68,
    "channel": 0,
    "deltaTime": 120
  },
  {
    "subtype": "noteOff",
    "velocity": 0,
    "type": "channel",
    "noteNumber": 68,
    "channel": 0,
    "deltaTime": 0
  },
  {
    "subtype": "noteOn",
    "velocity": 0,
    "type": "channel",
    "noteNumber": 66,
    "channel": 0,
    "deltaTime": 120
  },
  {
    "subtype": "noteOff",
    "velocity": 0,
    "type": "channel",
    "noteNumber": 66,
    "channel": 0,
    "deltaTime": 0
  },
  {
    "subtype": "noteOn",
    "velocity": 0,
    "type": "channel",
    "noteNumber": 75,
    "channel": 0,
    "deltaTime": 120
  },
  {
    "subtype": "noteOff",
    "velocity": 0,
    "type": "channel",
    "noteNumber": 75,
    "channel": 0,
    "deltaTime": 0
  },
  {
    "subtype": "noteOn",
    "velocity": 0,
    "type": "channel",
    "noteNumber": 78,
    "channel": 0,
    "deltaTime": 120
  },
  {
    "subtype": "noteOn",
    "velocity": 0,
    "type": "channel",
    "noteNumber": 82,
    "channel": 0,
    "deltaTime": 120
  },
  {
    "subtype": "noteOn",
    "velocity": 0,
    "type": "channel",
    "noteNumber": 82,
    "channel": 0,
    "deltaTime": 120
  },
  {
    "subtype": "noteOn",
    "velocity": 0,
    "type": "channel",
    "noteNumber": 85,
    "channel": 0,
    "deltaTime": 120
  },
  {
    "subtype": "noteOn",
    "velocity": 0,
    "type": "channel",
    "noteNumber": 85,
    "channel": 0,
    "deltaTime": 120
  },
  {
    "subtype": "noteOn",
    "velocity": 0,
    "type": "channel",
    "noteNumber": 85,
    "channel": 0,
    "deltaTime": 120
  },
  {
    "subtype": "noteOn",
    "velocity": 0,
    "type": "channel",
    "noteNumber": 85,
    "channel": 0,
    "deltaTime": 120
  },
  {
    "subtype": "noteOn",
    "velocity": 0,
    "type": "channel",
    "noteNumber": 85,
    "channel": 0,
    "deltaTime": 120
  },
  {
    "subtype": "noteOn",
    "velocity": 0,
    "type": "channel",
    "noteNumber": 85,
    "channel": 0,
    "deltaTime": 120
  },
  {
    "subtype": "noteOn",
    "velocity": 0,
    "type": "channel",
    "noteNumber": 85,
    "channel": 0,
    "deltaTime": 120
  },
  {
    "subtype": "noteOn",
    "velocity": 0,
    "type": "channel",
    "noteNumber": 85,
    "channel": 0,
    "deltaTime": 120
  },
  {
    "subtype": "noteOn",
    "velocity": 0,
    "type": "channel",
    "noteNumber": 85,
    "channel": 0,
    "deltaTime": 120
  },
  {
    "subtype": "noteOn",
    "velocity": 0,
    "type": "channel",
    "noteNumber": 85,
    "channel": 0,
    "deltaTime": 120
  },
  {
    "subtype": "noteOn",
    "velocity": 0,
    "type": "channel",
    "noteNumber": 85,
    "channel": 0,
    "deltaTime": 120
  },
  {
    "subtype": "noteOn",
    "velocity": 0,
    "type": "channel",
    "noteNumber": 85,
    "channel": 0,
    "deltaTime": 120
  },
  {
    "subtype": "noteOff",
    "velocity": 0,
    "type": "channel",
    "noteNumber": 85,
    "channel": 0,
    "deltaTime": 0
  },
  {
    "subtype": "noteOn",
    "velocity": 0,
    "type": "channel",
    "noteNumber": 83,
    "channel": 0,
    "deltaTime": 120
  },
  {
    "subtype": "noteOn",
    "velocity": 0,
    "type": "channel",
    "noteNumber": 85,
    "channel": 0,
    "deltaTime": 120
  },
  {
    "subtype": "noteOn",
    "velocity": 0,
    "type": "channel",
    "noteNumber": 85,
    "channel": 0,
    "deltaTime": 120
  },
  {
    "subtype": "noteOn",
    "velocity": 0,
    "type": "channel",
    "noteNumber": 85,
    "channel": 0,
    "deltaTime": 120
  },
  {
    "subtype": "noteOn",
    "velocity": 0,
    "type": "channel",
    "noteNumber": 85,
    "channel": 0,
    "deltaTime": 120
  },
  {
    "subtype": "noteOn",
    "velocity": 0,
    "type": "channel",
    "noteNumber": 85,
    "channel": 0,
    "deltaTime": 120
  },
  {
    "subtype": "noteOff",
    "velocity": 0,
    "type": "channel",
    "noteNumber": 85,
    "channel": 0,
    "deltaTime": 0
  },
  {
    "subtype": "noteOn",
    "velocity": 0,
    "type": "channel",
    "noteNumber": 83,
    "channel": 0,
    "deltaTime": 120
  },
  {
    "subtype": "noteOn",
    "velocity": 0,
    "type": "channel",
    "noteNumber": 82,
    "channel": 0,
    "deltaTime": 120
  },
  {
    "subtype": "noteOn",
    "velocity": 0,
    "type": "channel",
    "noteNumber": 82,
    "channel": 0,
    "deltaTime": 120
  },
  {
    "subtype": "noteOff",
    "velocity": 0,
    "type": "channel",
    "noteNumber": 82,
    "channel": 0,
    "deltaTime": 0
  },
  {
    "subtype": "noteOn",
    "velocity": 0,
    "type": "channel",
    "noteNumber": 83,
    "channel": 0,
    "deltaTime": 120
  },
  {
    "subtype": "noteOn",
    "velocity": 0,
    "type": "channel",
    "noteNumber": 83,
    "channel": 0,
    "deltaTime": 120
  },
  {
    "subtype": "noteOn",
    "velocity": 0,
    "type": "channel",
    "noteNumber": 85,
    "channel": 0,
    "deltaTime": 120
  },
  {
    "subtype": "noteOn",
    "velocity": 0,
    "type": "channel",
    "noteNumber": 85,
    "channel": 0,
    "deltaTime": 120
  },
  {
    "subtype": "noteOn",
    "velocity": 0,
    "type": "channel",
    "noteNumber": 85,
    "channel": 0,
    "deltaTime": 120
  },
  {
    "subtype": "noteOn",
    "velocity": 0,
    "type": "channel",
    "noteNumber": 85,
    "channel": 0,
    "deltaTime": 120
  },
  {
    "subtype": "noteOn",
    "velocity": 0,
    "type": "channel",
    "noteNumber": 85,
    "channel": 0,
    "deltaTime": 120
  },
  {
    "subtype": "noteOn",
    "velocity": 0,
    "type": "channel",
    "noteNumber": 85,
    "channel": 0,
    "deltaTime": 120
  },
  {
    "subtype": "noteOn",
    "velocity": 0,
    "type": "channel",
    "noteNumber": 85,
    "channel": 0,
    "deltaTime": 120
  },
  {
    "subtype": "noteOn",
    "velocity": 0,
    "type": "channel",
    "noteNumber": 85,
    "channel": 0,
    "deltaTime": 120
  },
  {
    "subtype": "noteOn",
    "velocity": 0,
    "type": "channel",
    "noteNumber": 85,
    "channel": 0,
    "deltaTime": 120
  },
  {
    "subtype": "noteOn",
    "velocity": 0,
    "type": "channel",
    "noteNumber": 85,
    "channel": 0,
    "deltaTime": 120
  },
  {
    "subtype": "noteOn",
    "velocity": 0,
    "type": "channel",
    "noteNumber": 85,
    "channel": 0,
    "deltaTime": 120
  },
  {
    "subtype": "noteOn",
    "velocity": 0,
    "type": "channel",
    "noteNumber": 85,
    "channel": 0,
    "deltaTime": 120
  },
  {
    "subtype": "noteOn",
    "velocity": 0,
    "type": "channel",
    "noteNumber": 85,
    "channel": 0,
    "deltaTime": 120
  },
  {
    "subtype": "noteOn",
    "velocity": 0,
    "type": "channel",
    "noteNumber": 85,
    "channel": 0,
    "deltaTime": 120
  },
  {
    "subtype": "noteOn",
    "velocity": 0,
    "type": "channel",
    "noteNumber": 85,
    "channel": 0,
    "deltaTime": 120
  },
  {
    "subtype": "noteOn",
    "velocity": 0,
    "type": "channel",
    "noteNumber": 87,
    "channel": 0,
    "deltaTime": 120
  },
  {
    "subtype": "noteOn",
    "velocity": 0,
    "type": "channel",
    "noteNumber": 85,
    "channel": 0,
    "deltaTime": 120
  },
  {
    "subtype": "noteOn",
    "velocity": 0,
    "type": "channel",
    "noteNumber": 82,
    "channel": 0,
    "deltaTime": 120
  },
  {
    "subtype": "noteOn",
    "velocity": 0,
    "type": "channel",
    "noteNumber": 85,
    "channel": 0,
    "deltaTime": 120
  },
  {
    "subtype": "noteOn",
    "velocity": 0,
    "type": "channel",
    "noteNumber": 85,
    "channel": 0,
    "deltaTime": 120
  },
  {
    "subtype": "noteOn",
    "velocity": 0,
    "type": "channel",
    "noteNumber": 85,
    "channel": 0,
    "deltaTime": 120
  },
  {
    "subtype": "noteOn",
    "velocity": 0,
    "type": "channel",
    "noteNumber": 85,
    "channel": 0,
    "deltaTime": 120
  },
  {
    "subtype": "noteOn",
    "velocity": 0,
    "type": "channel",
    "noteNumber": 85,
    "channel": 0,
    "deltaTime": 120
  },
  {
    "subtype": "noteOn",
    "velocity": 0,
    "type": "channel",
    "noteNumber": 83,
    "channel": 0,
    "deltaTime": 120
  },
  {
    "subtype": "noteOn",
    "velocity": 0,
    "type": "channel",
    "noteNumber": 83,
    "channel": 0,
    "deltaTime": 120
  },
  {
    "subtype": "noteOn",
    "velocity": 0,
    "type": "channel",
    "noteNumber": 85,
    "channel": 0,
    "deltaTime": 120
  },
  {
    "subtype": "noteOn",
    "velocity": 0,
    "type": "channel",
    "noteNumber": 85,
    "channel": 0,
    "deltaTime": 120
  },
  {
    "subtype": "noteOn",
    "velocity": 0,
    "type": "channel",
    "noteNumber": 85,
    "channel": 0,
    "deltaTime": 120
  },
  {
    "subtype": "noteOn",
    "velocity": 0,
    "type": "channel",
    "noteNumber": 85,
    "channel": 0,
    "deltaTime": 120
  },
  {
    "subtype": "noteOn",
    "velocity": 0,
    "type": "channel",
    "noteNumber": 85,
    "channel": 0,
    "deltaTime": 120
  },
  {
    "subtype": "noteOn",
    "velocity": 0,
    "type": "channel",
    "noteNumber": 85,
    "channel": 0,
    "deltaTime": 120
  },
  {
    "subtype": "noteOn",
    "velocity": 0,
    "type": "channel",
    "noteNumber": 85,
    "channel": 0,
    "deltaTime": 120
  },
  {
    "subtype": "noteOn",
    "velocity": 0,
    "type": "channel",
    "noteNumber": 85,
    "channel": 0,
    "deltaTime": 120
  },
  {
    "subtype": "noteOn",
    "velocity": 0,
    "type": "channel",
    "noteNumber": 85,
    "channel": 0,
    "deltaTime": 120
  },
  {
    "subtype": "noteOn",
    "velocity": 0,
    "type": "channel",
    "noteNumber": 85,
    "channel": 0,
    "deltaTime": 120
  },
  {
    "subtype": "noteOn",
    "velocity": 0,
    "type": "channel",
    "noteNumber": 85,
    "channel": 0,
    "deltaTime": 120
  },
  {
    "subtype": "noteOn",
    "velocity": 0,
    "type": "channel",
    "noteNumber": 85,
    "channel": 0,
    "deltaTime": 120
  },
  {
    "subtype": "noteOn",
    "velocity": 0,
    "type": "channel",
    "noteNumber": 85,
    "channel": 0,
    "deltaTime": 120
  },
  {
    "subtype": "noteOn",
    "velocity": 0,
    "type": "channel",
    "noteNumber": 85,
    "channel": 0,
    "deltaTime": 120
  },
  {
    "subtype": "noteOn",
    "velocity": 0,
    "type": "channel",
    "noteNumber": 85,
    "channel": 0,
    "deltaTime": 120
  },
  {
    "subtype": "noteOn",
    "velocity": 0,
    "type": "channel",
    "noteNumber": 85,
    "channel": 0,
    "deltaTime": 120
  },
  {
    "subtype": "noteOn",
    "velocity": 0,
    "type": "channel",
    "noteNumber": 85,
    "channel": 0,
    "deltaTime": 120
  },
  {
    "subtype": "noteOn",
    "velocity": 0,
    "type": "channel",
    "noteNumber": 85,
    "channel": 0,
    "deltaTime": 120
  },
  {
    "subtype": "noteOn",
    "velocity": 0,
    "type": "channel",
    "noteNumber": 85,
    "channel": 0,
    "deltaTime": 120
  },
  {
    "subtype": "noteOn",
    "velocity": 0,
    "type": "channel",
    "noteNumber": 85,
    "channel": 0,
    "deltaTime": 120
  },
  {
    "subtype": "noteOn",
    "velocity": 0,
    "type": "channel",
    "noteNumber": 85,
    "channel": 0,
    "deltaTime": 120
  },
  {
    "subtype": "noteOn",
    "velocity": 0,
    "type": "channel",
    "noteNumber": 85,
    "channel": 0,
    "deltaTime": 120
  },
  {
    "subtype": "noteOn",
    "velocity": 0,
    "type": "channel",
    "noteNumber": 85,
    "channel": 0,
    "deltaTime": 120
  },
  {
    "subtype": "noteOn",
    "velocity": 0,
    "type": "channel",
    "noteNumber": 85,
    "channel": 0,
    "deltaTime": 120
  },
  {
    "subtype": "noteOn",
    "velocity": 0,
    "type": "channel",
    "noteNumber": 75,
    "channel": 0,
    "deltaTime": 120
  },
  {
    "subtype": "noteOn",
    "velocity": 0,
    "type": "channel",
    "noteNumber": 75,
    "channel": 0,
    "deltaTime": 120
  },
  {
    "subtype": "noteOn",
    "velocity": 0,
    "type": "channel",
    "noteNumber": 75,
    "channel": 0,
    "deltaTime": 120
  },
  {
    "subtype": "noteOn",
    "velocity": 0,
    "type": "channel",
    "noteNumber": 76,
    "channel": 0,
    "deltaTime": 120
  },
  {
    "subtype": "noteOn",
    "velocity": 0,
    "type": "channel",
    "noteNumber": 73,
    "channel": 0,
    "deltaTime": 120
  },
  {
    "subtype": "noteOn",
    "velocity": 0,
    "type": "channel",
    "noteNumber": 73,
    "channel": 0,
    "deltaTime": 120
  },
  {
    "subtype": "noteOn",
    "velocity": 0,
    "type": "channel",
    "noteNumber": 73,
    "channel": 0,
    "deltaTime": 120
  },
  {
    "subtype": "noteOff",
    "velocity": 0,
    "type": "channel",
    "noteNumber": 73,
    "channel": 0,
    "deltaTime": 0
  },
  {
    "subtype": "noteOn",
    "velocity": 0,
    "type": "channel",
    "noteNumber": 73,
    "channel": 0,
    "deltaTime": 120
  },
  {
    "subtype": "noteOn",
    "velocity": 0,
    "type": "channel",
    "noteNumber": 73,
    "channel": 0,
    "deltaTime": 120
  },
  {
    "subtype": "noteOn",
    "velocity": 0,
    "type": "channel",
    "noteNumber": 73,
    "channel": 0,
    "deltaTime": 120
  },
  {
    "subtype": "noteOn",
    "velocity": 0,
    "type": "channel",
    "noteNumber": 73,
    "channel": 0,
    "deltaTime": 120
  },
  {
    "subtype": "noteOn",
    "velocity": 0,
    "type": "channel",
    "noteNumber": 73,
    "channel": 0,
    "deltaTime": 120
  },
  {
    "subtype": "noteOn",
    "velocity": 0,
    "type": "channel",
    "noteNumber": 73,
    "channel": 0,
    "deltaTime": 120
  },
  {
    "subtype": "noteOn",
    "velocity": 0,
    "type": "channel",
    "noteNumber": 73,
    "channel": 0,
    "deltaTime": 120
  },
  {
    "subtype": "noteOn",
    "velocity": 0,
    "type": "channel",
    "noteNumber": 73,
    "channel": 0,
    "deltaTime": 120
  },
  {
    "subtype": "noteOn",
    "velocity": 0,
    "type": "channel",
    "noteNumber": 73,
    "channel": 0,
    "deltaTime": 120
  },
  {
    "subtype": "noteOff",
    "velocity": 0,
    "type": "channel",
    "noteNumber": 73,
    "channel": 0,
    "deltaTime": 0
  },
  {
    "subtype": "noteOn",
    "velocity": 0,
    "type": "channel",
    "noteNumber": 71,
    "channel": 0,
    "deltaTime": 120
  },
  {
    "subtype": "noteOn",
    "velocity": 0,
    "type": "channel",
    "noteNumber": 73,
    "channel": 0,
    "deltaTime": 120
  },
  {
    "subtype": "noteOn",
    "velocity": 0,
    "type": "channel",
    "noteNumber": 73,
    "channel": 0,
    "deltaTime": 120
  },
  {
    "subtype": "noteOn",
    "velocity": 0,
    "type": "channel",
    "noteNumber": 73,
    "channel": 0,
    "deltaTime": 120
  },
  {
    "subtype": "noteOn",
    "velocity": 0,
    "type": "channel",
    "noteNumber": 73,
    "channel": 0,
    "deltaTime": 120
  },
  {
    "subtype": "noteOn",
    "velocity": 0,
    "type": "channel",
    "noteNumber": 71,
    "channel": 0,
    "deltaTime": 120
  },
  {
    "subtype": "noteOn",
    "velocity": 0,
    "type": "channel",
    "noteNumber": 71,
    "channel": 0,
    "deltaTime": 120
  },
  {
    "subtype": "noteOn",
    "velocity": 0,
    "type": "channel",
    "noteNumber": 70,
    "channel": 0,
    "deltaTime": 120
  },
  {
    "subtype": "noteOn",
    "velocity": 0,
    "type": "channel",
    "noteNumber": 70,
    "channel": 0,
    "deltaTime": 120
  },
  {
    "subtype": "noteOn",
    "velocity": 0,
    "type": "channel",
    "noteNumber": 68,
    "channel": 0,
    "deltaTime": 120
  },
  {
    "subtype": "noteOn",
    "velocity": 0,
    "type": "channel",
    "noteNumber": 67,
    "channel": 0,
    "deltaTime": 120
  },
  {
    "subtype": "noteOn",
    "velocity": 0,
    "type": "channel",
    "noteNumber": 67,
    "channel": 0,
    "deltaTime": 120
  },
  {
    "subtype": "noteOn",
    "velocity": 0,
    "type": "channel",
    "noteNumber": 63,
    "channel": 0,
    "deltaTime": 120
  },
  {
    "subtype": "noteOn",
    "velocity": 0,
    "type": "channel",
    "noteNumber": 63,
    "channel": 0,
    "deltaTime": 120
  },
  {
    "subtype": "noteOn",
    "velocity": 0,
    "type": "channel",
    "noteNumber": 61,
    "channel": 0,
    "deltaTime": 120
  },
  {
    "subtype": "noteOn",
    "velocity": 0,
    "type": "channel",
    "noteNumber": 73,
    "channel": 0,
    "deltaTime": 120
  },
  {
    "subtype": "noteOn",
    "velocity": 0,
    "type": "channel",
    "noteNumber": 73,
    "channel": 0,
    "deltaTime": 120
  },
  {
    "subtype": "noteOn",
    "velocity": 0,
    "type": "channel",
    "noteNumber": 73,
    "channel": 0,
    "deltaTime": 120
  },
  {
    "subtype": "noteOn",
    "velocity": 0,
    "type": "channel",
    "noteNumber": 73,
    "channel": 0,
    "deltaTime": 120
  },
  {
    "subtype": "noteOff",
    "velocity": 0,
    "type": "channel",
    "noteNumber": 73,
    "channel": 0,
    "deltaTime": 0
  },
  {
    "subtype": "noteOn",
    "velocity": 0,
    "type": "channel",
    "noteNumber": 63,
    "channel": 0,
    "deltaTime": 120
  },
  {
    "subtype": "noteOff",
    "velocity": 0,
    "type": "channel",
    "noteNumber": 63,
    "channel": 0,
    "deltaTime": 0
  },
  {
    "subtype": "noteOn",
    "velocity": 0,
    "type": "channel",
    "noteNumber": 61,
    "channel": 0,
    "deltaTime": 120
  },
  {
    "subtype": "noteOn",
    "velocity": 0,
    "type": "channel",
    "noteNumber": 63,
    "channel": 0,
    "deltaTime": 120
  },
  {
    "subtype": "noteOn",
    "velocity": 0,
    "type": "channel",
    "noteNumber": 63,
    "channel": 0,
    "deltaTime": 120
  },
  {
    "subtype": "noteOn",
    "velocity": 0,
    "type": "channel",
    "noteNumber": 75,
    "channel": 0,
    "deltaTime": 120
  },
  {
    "subtype": "noteOn",
    "velocity": 0,
    "type": "channel",
    "noteNumber": 75,
    "channel": 0,
    "deltaTime": 120
  },
  {
    "subtype": "noteOff",
    "velocity": 0,
    "type": "channel",
    "noteNumber": 75,
    "channel": 0,
    "deltaTime": 0
  },
  {
    "subtype": "noteOn",
    "velocity": 0,
    "type": "channel",
    "noteNumber": 70,
    "channel": 0,
    "deltaTime": 120
  },
  {
    "subtype": "noteOn",
    "velocity": 0,
    "type": "channel",
    "noteNumber": 71,
    "channel": 0,
    "deltaTime": 120
  },
  {
    "subtype": "noteOn",
    "velocity": 0,
    "type": "channel",
    "noteNumber": 71,
    "channel": 0,
    "deltaTime": 120
  },
  {
    "subtype": "noteOn",
    "velocity": 0,
    "type": "channel",
    "noteNumber": 73,
    "channel": 0,
    "deltaTime": 120
  },
  {
    "subtype": "noteOn",
    "velocity": 0,
    "type": "channel",
    "noteNumber": 73,
    "channel": 0,
    "deltaTime": 120
  },
  {
    "subtype": "noteOff",
    "velocity": 0,
    "type": "channel",
    "noteNumber": 73,
    "channel": 0,
    "deltaTime": 0
  },
  {
    "subtype": "noteOff",
    "velocity": 0,
    "type": "channel",
    "noteNumber": 73,
    "channel": 0,
    "deltaTime": 0
  },
  {
    "subtype": "noteOff",
    "velocity": 0,
    "type": "channel",
    "noteNumber": 73,
    "channel": 0,
    "deltaTime": 0
  },
  {
    "subtype": "noteOff",
    "velocity": 0,
    "type": "channel",
    "noteNumber": 73,
    "channel": 0,
    "deltaTime": 0
  },
  {
    "subtype": "noteOff",
    "velocity": 0,
    "type": "channel",
    "noteNumber": 73,
    "channel": 0,
    "deltaTime": 0
  },
  {
    "subtype": "noteOn",
    "velocity": 0,
    "type": "channel",
    "noteNumber": 68,
    "channel": 0,
    "deltaTime": 120
  },
  {
    "subtype": "noteOn",
    "velocity": 0,
    "type": "channel",
    "noteNumber": 67,
    "channel": 0,
    "deltaTime": 120
  },
  {
    "subtype": "noteOn",
    "velocity": 0,
    "type": "channel",
    "noteNumber": 67,
    "channel": 0,
    "deltaTime": 120
  },
  {
    "subtype": "noteOn",
    "velocity": 0,
    "type": "channel",
    "noteNumber": 68,
    "channel": 0,
    "deltaTime": 120
  },
  {
    "subtype": "noteOn",
    "velocity": 0,
    "type": "channel",
    "noteNumber": 68,
    "channel": 0,
    "deltaTime": 120
  },
  {
    "subtype": "noteOn",
    "velocity": 0,
    "type": "channel",
    "noteNumber": 83,
    "channel": 0,
    "deltaTime": 120
  },
  {
    "subtype": "noteOn",
    "velocity": 0,
    "type": "channel",
    "noteNumber": 83,
    "channel": 0,
    "deltaTime": 120
  },
  {
    "subtype": "noteOn",
    "velocity": 0,
    "type": "channel",
    "noteNumber": 82,
    "channel": 0,
    "deltaTime": 120
  },
  {
    "subtype": "noteOn",
    "velocity": 0,
    "type": "channel",
    "noteNumber": 82,
    "channel": 0,
    "deltaTime": 120
  },
  {
    "subtype": "noteOn",
    "velocity": 0,
    "type": "channel",
    "noteNumber": 85,
    "channel": 0,
    "deltaTime": 120
  },
  {
    "subtype": "noteOn",
    "velocity": 0,
    "type": "channel",
    "noteNumber": 85,
    "channel": 0,
    "deltaTime": 120
  },
  {
    "subtype": "noteOn",
    "velocity": 0,
    "type": "channel",
    "noteNumber": 85,
    "channel": 0,
    "deltaTime": 120
  },
  {
    "subtype": "noteOn",
    "velocity": 0,
    "type": "channel",
    "noteNumber": 85,
    "channel": 0,
    "deltaTime": 120
  },
  {
    "subtype": "noteOn",
    "velocity": 0,
    "type": "channel",
    "noteNumber": 85,
    "channel": 0,
    "deltaTime": 120
  },
  {
    "subtype": "noteOn",
    "velocity": 0,
    "type": "channel",
    "noteNumber": 85,
    "channel": 0,
    "deltaTime": 120
  },
  {
    "subtype": "noteOn",
    "velocity": 0,
    "type": "channel",
    "noteNumber": 85,
    "channel": 0,
    "deltaTime": 120
  },
  {
    "subtype": "noteOn",
    "velocity": 0,
    "type": "channel",
    "noteNumber": 85,
    "channel": 0,
    "deltaTime": 120
  },
  {
    "subtype": "noteOn",
    "velocity": 0,
    "type": "channel",
    "noteNumber": 85,
    "channel": 0,
    "deltaTime": 120
  },
  {
    "subtype": "noteOn",
    "velocity": 0,
    "type": "channel",
    "noteNumber": 85,
    "channel": 0,
    "deltaTime": 120
  },
  {
    "subtype": "noteOn",
    "velocity": 0,
    "type": "channel",
    "noteNumber": 85,
    "channel": 0,
    "deltaTime": 120
  },
  {
    "subtype": "noteOn",
    "velocity": 0,
    "type": "channel",
    "noteNumber": 85,
    "channel": 0,
    "deltaTime": 120
  },
  {
    "subtype": "noteOn",
    "velocity": 0,
    "type": "channel",
    "noteNumber": 85,
    "channel": 0,
    "deltaTime": 120
  },
  {
    "subtype": "noteOn",
    "velocity": 0,
    "type": "channel",
    "noteNumber": 83,
    "channel": 0,
    "deltaTime": 120
  },
  {
    "subtype": "noteOn",
    "velocity": 0,
    "type": "channel",
    "noteNumber": 83,
    "channel": 0,
    "deltaTime": 120
  },
  {
    "subtype": "noteOn",
    "velocity": 0,
    "type": "channel",
    "noteNumber": 85,
    "channel": 0,
    "deltaTime": 120
  },
  {
    "subtype": "noteOn",
    "velocity": 0,
    "type": "channel",
    "noteNumber": 85,
    "channel": 0,
    "deltaTime": 120
  },
  {
    "subtype": "noteOn",
    "velocity": 0,
    "type": "channel",
    "noteNumber": 85,
    "channel": 0,
    "deltaTime": 120
  },
  {
    "subtype": "noteOn",
    "velocity": 0,
    "type": "channel",
    "noteNumber": 85,
    "channel": 0,
    "deltaTime": 120
  },
  {
    "subtype": "noteOn",
    "velocity": 0,
    "type": "channel",
    "noteNumber": 85,
    "channel": 0,
    "deltaTime": 120
  },
  {
    "subtype": "noteOff",
    "velocity": 0,
    "type": "channel",
    "noteNumber": 85,
    "channel": 0,
    "deltaTime": 0
  },
  {
    "subtype": "noteOn",
    "velocity": 0,
    "type": "channel",
    "noteNumber": 82,
    "channel": 0,
    "deltaTime": 120
  },
  {
    "subtype": "noteOn",
    "velocity": 0,
    "type": "channel",
    "noteNumber": 73,
    "channel": 0,
    "deltaTime": 120
  },
  {
    "subtype": "noteOn",
    "velocity": 0,
    "type": "channel",
    "noteNumber": 73,
    "channel": 0,
    "deltaTime": 120
  },
  {
    "subtype": "noteOn",
    "velocity": 0,
    "type": "channel",
    "noteNumber": 73,
    "channel": 0,
    "deltaTime": 120
  },
  {
    "subtype": "noteOn",
    "velocity": 0,
    "type": "channel",
    "noteNumber": 73,
    "channel": 0,
    "deltaTime": 120
  },
  {
    "subtype": "noteOn",
    "velocity": 0,
    "type": "channel",
    "noteNumber": 73,
    "channel": 0,
    "deltaTime": 120
  },
  {
    "subtype": "noteOn",
    "velocity": 0,
    "type": "channel",
    "noteNumber": 73,
    "channel": 0,
    "deltaTime": 120
  },
  {
    "subtype": "noteOn",
    "velocity": 0,
    "type": "channel",
    "noteNumber": 73,
    "channel": 0,
    "deltaTime": 120
  },
  {
    "subtype": "noteOn",
    "velocity": 0,
    "type": "channel",
    "noteNumber": 73,
    "channel": 0,
    "deltaTime": 120
  },
  {
    "subtype": "noteOff",
    "velocity": 0,
    "type": "channel",
    "noteNumber": 73,
    "channel": 0,
    "deltaTime": 0
  },
  {
    "subtype": "noteOn",
    "velocity": 0,
    "type": "channel",
    "noteNumber": 70,
    "channel": 0,
    "deltaTime": 120
  },
  {
    "subtype": "noteOn",
    "velocity": 0,
    "type": "channel",
    "noteNumber": 73,
    "channel": 0,
    "deltaTime": 120
  },
  {
    "subtype": "noteOn",
    "velocity": 0,
    "type": "channel",
    "noteNumber": 73,
    "channel": 0,
    "deltaTime": 120
  },
  {
    "subtype": "noteOn",
    "velocity": 0,
    "type": "channel",
    "noteNumber": 82,
    "channel": 0,
    "deltaTime": 120
  },
  {
    "subtype": "noteOn",
    "velocity": 0,
    "type": "channel",
    "noteNumber": 82,
    "channel": 0,
    "deltaTime": 120
  },
  {
    "subtype": "noteOn",
    "velocity": 0,
    "type": "channel",
    "noteNumber": 80,
    "channel": 0,
    "deltaTime": 120
  },
  {
    "subtype": "noteOn",
    "velocity": 0,
    "type": "channel",
    "noteNumber": 80,
    "channel": 0,
    "deltaTime": 120
  },
  {
    "subtype": "noteOff",
    "velocity": 0,
    "type": "channel",
    "noteNumber": 80,
    "channel": 0,
    "deltaTime": 0
  },
  {
    "subtype": "noteOn",
    "velocity": 0,
    "type": "channel",
    "noteNumber": 78,
    "channel": 0,
    "deltaTime": 120
  },
  {
    "subtype": "noteOn",
    "velocity": 0,
    "type": "channel",
    "noteNumber": 76,
    "channel": 0,
    "deltaTime": 120
  },
  {
    "subtype": "noteOn",
    "velocity": 0,
    "type": "channel",
    "noteNumber": 76,
    "channel": 0,
    "deltaTime": 120
  },
  {
    "subtype": "noteOn",
    "velocity": 0,
    "type": "channel",
    "noteNumber": 75,
    "channel": 0,
    "deltaTime": 120
  },
  {
    "subtype": "noteOn",
    "velocity": 0,
    "type": "channel",
    "noteNumber": 75,
    "channel": 0,
    "deltaTime": 120
  },
  {
    "subtype": "noteOn",
    "velocity": 0,
    "type": "channel",
    "noteNumber": 76,
    "channel": 0,
    "deltaTime": 120
  },
  {
    "subtype": "noteOn",
    "velocity": 0,
    "type": "channel",
    "noteNumber": 76,
    "channel": 0,
    "deltaTime": 120
  },
  {
    "subtype": "noteOff",
    "velocity": 0,
    "type": "channel",
    "noteNumber": 76,
    "channel": 0,
    "deltaTime": 0
  },
  {
    "subtype": "noteOn",
    "velocity": 0,
    "type": "channel",
    "noteNumber": 73,
    "channel": 0,
    "deltaTime": 120
  },
  {
    "subtype": "noteOn",
    "velocity": 0,
    "type": "channel",
    "noteNumber": 73,
    "channel": 0,
    "deltaTime": 120
  },
  {
    "subtype": "noteOn",
    "velocity": 0,
    "type": "channel",
    "noteNumber": 73,
    "channel": 0,
    "deltaTime": 120
  },
  {
    "subtype": "noteOff",
    "velocity": 0,
    "type": "channel",
    "noteNumber": 73,
    "channel": 0,
    "deltaTime": 0
  },
  {
    "subtype": "noteOn",
    "velocity": 0,
    "type": "channel",
    "noteNumber": 85,
    "channel": 0,
    "deltaTime": 120
  },
  {
    "subtype": "noteOn",
    "velocity": 0,
    "type": "channel",
    "noteNumber": 85,
    "channel": 0,
    "deltaTime": 120
  },
  {
    "subtype": "noteOn",
    "velocity": 0,
    "type": "channel",
    "noteNumber": 85,
    "channel": 0,
    "deltaTime": 120
  },
  {
    "subtype": "noteOn",
    "velocity": 0,
    "type": "channel",
    "noteNumber": 85,
    "channel": 0,
    "deltaTime": 120
  },
  {
    "subtype": "noteOn",
    "velocity": 0,
    "type": "channel",
    "noteNumber": 85,
    "channel": 0,
    "deltaTime": 120
  },
  {
    "subtype": "noteOn",
    "velocity": 0,
    "type": "channel",
    "noteNumber": 85,
    "channel": 0,
    "deltaTime": 120
  },
  {
    "subtype": "noteOn",
    "velocity": 0,
    "type": "channel",
    "noteNumber": 85,
    "channel": 0,
    "deltaTime": 120
  },
  {
    "subtype": "noteOn",
    "velocity": 0,
    "type": "channel",
    "noteNumber": 85,
    "channel": 0,
    "deltaTime": 120
  },
  {
    "subtype": "noteOn",
    "velocity": 0,
    "type": "channel",
    "noteNumber": 85,
    "channel": 0,
    "deltaTime": 120
  },
  {
    "subtype": "noteOn",
    "velocity": 0,
    "type": "channel",
    "noteNumber": 85,
    "channel": 0,
    "deltaTime": 120
  },
  {
    "subtype": "noteOn",
    "velocity": 0,
    "type": "channel",
    "noteNumber": 85,
    "channel": 0,
    "deltaTime": 120
  },
  {
    "subtype": "noteOn",
    "velocity": 0,
    "type": "channel",
    "noteNumber": 85,
    "channel": 0,
    "deltaTime": 120
  },
  {
    "subtype": "noteOn",
    "velocity": 0,
    "type": "channel",
    "noteNumber": 85,
    "channel": 0,
    "deltaTime": 120
  },
  {
    "subtype": "noteOn",
    "velocity": 0,
    "type": "channel",
    "noteNumber": 85,
    "channel": 0,
    "deltaTime": 120
  },
  {
    "subtype": "noteOn",
    "velocity": 0,
    "type": "channel",
    "noteNumber": 85,
    "channel": 0,
    "deltaTime": 120
  },
  {
    "subtype": "noteOn",
    "velocity": 0,
    "type": "channel",
    "noteNumber": 85,
    "channel": 0,
    "deltaTime": 120
  },
  {
    "subtype": "noteOn",
    "velocity": 0,
    "type": "channel",
    "noteNumber": 85,
    "channel": 0,
    "deltaTime": 120
  },
  {
    "subtype": "noteOn",
    "velocity": 0,
    "type": "channel",
    "noteNumber": 83,
    "channel": 0,
    "deltaTime": 120
  },
  {
    "subtype": "noteOn",
    "velocity": 0,
    "type": "channel",
    "noteNumber": 83,
    "channel": 0,
    "deltaTime": 120
  },
  {
    "subtype": "noteOn",
    "velocity": 0,
    "type": "channel",
    "noteNumber": 83,
    "channel": 0,
    "deltaTime": 120
  },
  {
    "subtype": "noteOn",
    "velocity": 0,
    "type": "channel",
    "noteNumber": 82,
    "channel": 0,
    "deltaTime": 120
  },
  {
    "subtype": "noteOn",
    "velocity": 0,
    "type": "channel",
    "noteNumber": 82,
    "channel": 0,
    "deltaTime": 120
  },
  {
    "subtype": "noteOn",
    "velocity": 0,
    "type": "channel",
    "noteNumber": 85,
    "channel": 0,
    "deltaTime": 120
  },
  {
    "subtype": "noteOn",
    "velocity": 0,
    "type": "channel",
    "noteNumber": 85,
    "channel": 0,
    "deltaTime": 120
  },
  {
    "subtype": "noteOn",
    "velocity": 0,
    "type": "channel",
    "noteNumber": 85,
    "channel": 0,
    "deltaTime": 120
  },
  {
    "subtype": "noteOn",
    "velocity": 0,
    "type": "channel",
    "noteNumber": 85,
    "channel": 0,
    "deltaTime": 120
  },
  {
    "subtype": "noteOn",
    "velocity": 0,
    "type": "channel",
    "noteNumber": 85,
    "channel": 0,
    "deltaTime": 120
  },
  {
    "subtype": "noteOn",
    "velocity": 0,
    "type": "channel",
    "noteNumber": 85,
    "channel": 0,
    "deltaTime": 120
  },
  {
    "subtype": "noteOn",
    "velocity": 0,
    "type": "channel",
    "noteNumber": 85,
    "channel": 0,
    "deltaTime": 120
  },
  {
    "subtype": "noteOn",
    "velocity": 0,
    "type": "channel",
    "noteNumber": 83,
    "channel": 0,
    "deltaTime": 120
  },
  {
    "subtype": "noteOn",
    "velocity": 0,
    "type": "channel",
    "noteNumber": 83,
    "channel": 0,
    "deltaTime": 120
  },
  {
    "subtype": "noteOn",
    "velocity": 0,
    "type": "channel",
    "noteNumber": 83,
    "channel": 0,
    "deltaTime": 120
  },
  {
    "subtype": "noteOn",
    "velocity": 0,
    "type": "channel",
    "noteNumber": 85,
    "channel": 0,
    "deltaTime": 120
  },
  {
    "subtype": "noteOn",
    "velocity": 0,
    "type": "channel",
    "noteNumber": 67,
    "channel": 0,
    "deltaTime": 120
  },
  {
    "subtype": "noteOn",
    "velocity": 0,
    "type": "channel",
    "noteNumber": 67,
    "channel": 0,
    "deltaTime": 120
  },
  {
    "subtype": "noteOn",
    "velocity": 0,
    "type": "channel",
    "noteNumber": 73,
    "channel": 0,
    "deltaTime": 120
  },
  {
    "subtype": "noteOn",
    "velocity": 0,
    "type": "channel",
    "noteNumber": 73,
    "channel": 0,
    "deltaTime": 120
  },
  {
    "subtype": "noteOn",
    "velocity": 0,
    "type": "channel",
    "noteNumber": 73,
    "channel": 0,
    "deltaTime": 120
  },
  {
    "subtype": "noteOn",
    "velocity": 0,
    "type": "channel",
    "noteNumber": 73,
    "channel": 0,
    "deltaTime": 120
  },
  {
    "subtype": "noteOff",
    "velocity": 0,
    "type": "channel",
    "noteNumber": 73,
    "channel": 0,
    "deltaTime": 0
  },
  {
    "subtype": "noteOn",
    "velocity": 0,
    "type": "channel",
    "noteNumber": 70,
    "channel": 0,
    "deltaTime": 120
  },
  {
    "subtype": "noteOn",
    "velocity": 0,
    "type": "channel",
    "noteNumber": 70,
    "channel": 0,
    "deltaTime": 120
  },
  {
    "subtype": "noteOn",
    "velocity": 0,
    "type": "channel",
    "noteNumber": 70,
    "channel": 0,
    "deltaTime": 120
  },
  {
    "subtype": "noteOn",
    "velocity": 0,
    "type": "channel",
    "noteNumber": 73,
    "channel": 0,
    "deltaTime": 120
  },
  {
    "subtype": "noteOn",
    "velocity": 0,
    "type": "channel",
    "noteNumber": 73,
    "channel": 0,
    "deltaTime": 120
  },
  {
    "subtype": "noteOn",
    "velocity": 0,
    "type": "channel",
    "noteNumber": 70,
    "channel": 0,
    "deltaTime": 120
  },
  {
    "subtype": "noteOn",
    "velocity": 0,
    "type": "channel",
    "noteNumber": 70,
    "channel": 0,
    "deltaTime": 120
  },
  {
    "subtype": "noteOn",
    "velocity": 0,
    "type": "channel",
    "noteNumber": 70,
    "channel": 0,
    "deltaTime": 120
  },
  {
    "subtype": "noteOn",
    "velocity": 0,
    "type": "channel",
    "noteNumber": 70,
    "channel": 0,
    "deltaTime": 120
  },
  {
    "subtype": "noteOff",
    "velocity": 0,
    "type": "channel",
    "noteNumber": 70,
    "channel": 0,
    "deltaTime": 0
  },
  {
    "subtype": "noteOn",
    "velocity": 0,
    "type": "channel",
    "noteNumber": 70,
    "channel": 0,
    "deltaTime": 120
  },
  {
    "subtype": "noteOn",
    "velocity": 0,
    "type": "channel",
    "noteNumber": 70,
    "channel": 0,
    "deltaTime": 120
  },
  {
    "subtype": "noteOn",
    "velocity": 0,
    "type": "channel",
    "noteNumber": 70,
    "channel": 0,
    "deltaTime": 120
  },
  {
    "subtype": "noteOn",
    "velocity": 0,
    "type": "channel",
    "noteNumber": 71,
    "channel": 0,
    "deltaTime": 120
  },
  {
    "subtype": "noteOn",
    "velocity": 0,
    "type": "channel",
    "noteNumber": 71,
    "channel": 0,
    "deltaTime": 120
  },
  {
    "subtype": "noteOn",
    "velocity": 0,
    "type": "channel",
    "noteNumber": 73,
    "channel": 0,
    "deltaTime": 120
  },
  {
    "subtype": "noteOn",
    "velocity": 0,
    "type": "channel",
    "noteNumber": 73,
    "channel": 0,
    "deltaTime": 120
  },
  {
    "subtype": "noteOn",
    "velocity": 0,
    "type": "channel",
    "noteNumber": 70,
    "channel": 0,
    "deltaTime": 120
  },
  {
    "subtype": "noteOn",
    "velocity": 0,
    "type": "channel",
    "noteNumber": 70,
    "channel": 0,
    "deltaTime": 120
  },
  {
    "subtype": "noteOn",
    "velocity": 0,
    "type": "channel",
    "noteNumber": 71,
    "channel": 0,
    "deltaTime": 120
  },
  {
    "subtype": "noteOn",
    "velocity": 0,
    "type": "channel",
    "noteNumber": 71,
    "channel": 0,
    "deltaTime": 120
  },
  {
    "subtype": "noteOn",
    "velocity": 0,
    "type": "channel",
    "noteNumber": 75,
    "channel": 0,
    "deltaTime": 120
  },
  {
    "subtype": "noteOn",
    "velocity": 0,
    "type": "channel",
    "noteNumber": 75,
    "channel": 0,
    "deltaTime": 120
  },
  {
    "subtype": "noteOff",
    "velocity": 0,
    "type": "channel",
    "noteNumber": 75,
    "channel": 0,
    "deltaTime": 0
  },
  {
    "subtype": "noteOn",
    "velocity": 0,
    "type": "channel",
    "noteNumber": 68,
    "channel": 0,
    "deltaTime": 120
  },
  {
    "subtype": "noteOn",
    "velocity": 0,
    "type": "channel",
    "noteNumber": 83,
    "channel": 0,
    "deltaTime": 120
  },
  {
    "subtype": "noteOn",
    "velocity": 0,
    "type": "channel",
    "noteNumber": 83,
    "channel": 0,
    "deltaTime": 120
  },
  {
    "subtype": "noteOff",
    "velocity": 0,
    "type": "channel",
    "noteNumber": 83,
    "channel": 0,
    "deltaTime": 0
  },
  {
    "subtype": "noteOff",
    "velocity": 0,
    "type": "channel",
    "noteNumber": 83,
    "channel": 0,
    "deltaTime": 0
  },
  {
    "subtype": "noteOn",
    "velocity": 0,
    "type": "channel",
    "noteNumber": 85,
    "channel": 0,
    "deltaTime": 120
  },
  {
    "subtype": "noteOn",
    "velocity": 0,
    "type": "channel",
    "noteNumber": 85,
    "channel": 0,
    "deltaTime": 120
  },
  {
    "subtype": "noteOn",
    "velocity": 0,
    "type": "channel",
    "noteNumber": 87,
    "channel": 0,
    "deltaTime": 120
  },
  {
    "subtype": "noteOn",
    "velocity": 0,
    "type": "channel",
    "noteNumber": 87,
    "channel": 0,
    "deltaTime": 120
  },
  {
    "subtype": "noteOn",
    "velocity": 0,
    "type": "channel",
    "noteNumber": 85,
    "channel": 0,
    "deltaTime": 120
  },
  {
    "subtype": "noteOn",
    "velocity": 0,
    "type": "channel",
    "noteNumber": 85,
    "channel": 0,
    "deltaTime": 120
  },
  {
    "subtype": "noteOn",
    "velocity": 0,
    "type": "channel",
    "noteNumber": 83,
    "channel": 0,
    "deltaTime": 120
  },
  {
    "subtype": "noteOn",
    "velocity": 0,
    "type": "channel",
    "noteNumber": 83,
    "channel": 0,
    "deltaTime": 120
  },
  {
    "subtype": "noteOn",
    "velocity": 0,
    "type": "channel",
    "noteNumber": 82,
    "channel": 0,
    "deltaTime": 120
  },
  {
    "subtype": "noteOn",
    "velocity": 0,
    "type": "channel",
    "noteNumber": 82,
    "channel": 0,
    "deltaTime": 120
  },
  {
    "subtype": "noteOn",
    "velocity": 0,
    "type": "channel",
    "noteNumber": 80,
    "channel": 0,
    "deltaTime": 120
  },
  {
    "subtype": "noteOn",
    "velocity": 0,
    "type": "channel",
    "noteNumber": 80,
    "channel": 0,
    "deltaTime": 120
  },
  {
    "subtype": "noteOn",
    "velocity": 0,
    "type": "channel",
    "noteNumber": 79,
    "channel": 0,
    "deltaTime": 120
  },
  {
    "subtype": "noteOn",
    "velocity": 0,
    "type": "channel",
    "noteNumber": 79,
    "channel": 0,
    "deltaTime": 120
  },
  {
    "subtype": "noteOn",
    "velocity": 0,
    "type": "channel",
    "noteNumber": 80,
    "channel": 0,
    "deltaTime": 120
  },
  {
    "subtype": "noteOn",
    "velocity": 0,
    "type": "channel",
    "noteNumber": 80,
    "channel": 0,
    "deltaTime": 120
  },
  {
    "subtype": "noteOff",
    "velocity": 0,
    "type": "channel",
    "noteNumber": 80,
    "channel": 0,
    "deltaTime": 0
  },
  {
    "subtype": "noteOff",
    "velocity": 0,
    "type": "channel",
    "noteNumber": 80,
    "channel": 0,
    "deltaTime": 0
  },
  {
    "subtype": "noteOn",
    "velocity": 0,
    "type": "channel",
    "noteNumber": 76,
    "channel": 0,
    "deltaTime": 120
  },
  {
    "subtype": "noteOn",
    "velocity": 0,
    "type": "channel",
    "noteNumber": 76,
    "channel": 0,
    "deltaTime": 120
  },
  {
    "subtype": "noteOn",
    "velocity": 0,
    "type": "channel",
    "noteNumber": 75,
    "channel": 0,
    "deltaTime": 120
  },
  {
    "subtype": "noteOn",
    "velocity": 0,
    "type": "channel",
    "noteNumber": 75,
    "channel": 0,
    "deltaTime": 120
  },
  {
    "subtype": "noteOff",
    "velocity": 0,
    "type": "channel",
    "noteNumber": 75,
    "channel": 0,
    "deltaTime": 0
  },
  {
    "subtype": "noteOn",
    "velocity": 0,
    "type": "channel",
    "noteNumber": 76,
    "channel": 0,
    "deltaTime": 120
  },
  {
    "subtype": "noteOff",
    "velocity": 0,
    "type": "channel",
    "noteNumber": 76,
    "channel": 0,
    "deltaTime": 0
  },
  {
    "subtype": "noteOn",
    "velocity": 0,
    "type": "channel",
    "noteNumber": 75,
    "channel": 0,
    "deltaTime": 120
  },
  {
    "subtype": "noteOn",
    "velocity": 0,
    "type": "channel",
    "noteNumber": 73,
    "channel": 0,
    "deltaTime": 120
  },
  {
    "subtype": "noteOn",
    "velocity": 0,
    "type": "channel",
    "noteNumber": 73,
    "channel": 0,
    "deltaTime": 120
  },
  {
    "subtype": "noteOn",
    "velocity": 0,
    "type": "channel",
    "noteNumber": 73,
    "channel": 0,
    "deltaTime": 120
  },
  {
    "subtype": "noteOn",
    "velocity": 0,
    "type": "channel",
    "noteNumber": 73,
    "channel": 0,
    "deltaTime": 120
  },
  {
    "subtype": "noteOn",
    "velocity": 0,
    "type": "channel",
    "noteNumber": 82,
    "channel": 0,
    "deltaTime": 120
  },
  {
    "subtype": "noteOn",
    "velocity": 0,
    "type": "channel",
    "noteNumber": 82,
    "channel": 0,
    "deltaTime": 120
  },
  {
    "subtype": "noteOff",
    "velocity": 0,
    "type": "channel",
    "noteNumber": 82,
    "channel": 0,
    "deltaTime": 0
  },
  {
    "subtype": "noteOn",
    "velocity": 0,
    "type": "channel",
    "noteNumber": 85,
    "channel": 0,
    "deltaTime": 120
  },
  {
    "subtype": "noteOn",
    "velocity": 0,
    "type": "channel",
    "noteNumber": 85,
    "channel": 0,
    "deltaTime": 120
  },
  {
    "subtype": "noteOn",
    "velocity": 0,
    "type": "channel",
    "noteNumber": 85,
    "channel": 0,
    "deltaTime": 120
  },
  {
    "subtype": "noteOn",
    "velocity": 0,
    "type": "channel",
    "noteNumber": 82,
    "channel": 0,
    "deltaTime": 120
  },
  {
    "subtype": "noteOn",
    "velocity": 0,
    "type": "channel",
    "noteNumber": 82,
    "channel": 0,
    "deltaTime": 120
  },
  {
    "subtype": "noteOn",
    "velocity": 0,
    "type": "channel",
    "noteNumber": 73,
    "channel": 0,
    "deltaTime": 120
  },
  {
    "subtype": "noteOn",
    "velocity": 0,
    "type": "channel",
    "noteNumber": 73,
    "channel": 0,
    "deltaTime": 120
  },
  {
    "subtype": "noteOn",
    "velocity": 0,
    "type": "channel",
    "noteNumber": 73,
    "channel": 0,
    "deltaTime": 120
  },
  {
    "subtype": "noteOn",
    "velocity": 0,
    "type": "channel",
    "noteNumber": 73,
    "channel": 0,
    "deltaTime": 120
  },
  {
    "subtype": "noteOn",
    "velocity": 0,
    "type": "channel",
    "noteNumber": 73,
    "channel": 0,
    "deltaTime": 120
  },
  {
    "subtype": "noteOn",
    "velocity": 0,
    "type": "channel",
    "noteNumber": 73,
    "channel": 0,
    "deltaTime": 120
  },
  {
    "subtype": "noteOff",
    "velocity": 0,
    "type": "channel",
    "noteNumber": 73,
    "channel": 0,
    "deltaTime": 0
  },
  {
    "subtype": "noteOn",
    "velocity": 0,
    "type": "channel",
    "noteNumber": 70,
    "channel": 0,
    "deltaTime": 120
  },
  {
    "subtype": "noteOn",
    "velocity": 0,
    "type": "channel",
    "noteNumber": 68,
    "channel": 0,
    "deltaTime": 120
  },
  {
    "subtype": "noteOn",
    "velocity": 0,
    "type": "channel",
    "noteNumber": 85,
    "channel": 0,
    "deltaTime": 120
  },
  {
    "subtype": "noteOn",
    "velocity": 0,
    "type": "channel",
    "noteNumber": 83,
    "channel": 0,
    "deltaTime": 120
  },
  {
    "subtype": "noteOn",
    "velocity": 0,
    "type": "channel",
    "noteNumber": 78,
    "channel": 0,
    "deltaTime": 120
  },
  {
    "subtype": "noteOn",
    "velocity": 0,
    "type": "channel",
    "noteNumber": 75,
    "channel": 0,
    "deltaTime": 120
  },
  {
    "subtype": "noteOn",
    "velocity": 0,
    "type": "channel",
    "noteNumber": 71,
    "channel": 0,
    "deltaTime": 120
  },
  {
    "subtype": "noteOn",
    "velocity": 0,
    "type": "channel",
    "noteNumber": 71,
    "channel": 0,
    "deltaTime": 120
  },
  {
    "subtype": "noteOn",
    "velocity": 0,
    "type": "channel",
    "noteNumber": 71,
    "channel": 0,
    "deltaTime": 120
  },
  {
    "subtype": "noteOn",
    "velocity": 0,
    "type": "channel",
    "noteNumber": 73,
    "channel": 0,
    "deltaTime": 120
  },
  {
    "subtype": "noteOn",
    "velocity": 0,
    "type": "channel",
    "noteNumber": 73,
    "channel": 0,
    "deltaTime": 120
  },
  {
    "subtype": "noteOff",
    "velocity": 0,
    "type": "channel",
    "noteNumber": 73,
    "channel": 0,
    "deltaTime": 0
  },
  {
    "subtype": "noteOn",
    "velocity": 0,
    "type": "channel",
    "noteNumber": 76,
    "channel": 0,
    "deltaTime": 120
  },
  {
    "subtype": "noteOn",
    "velocity": 0,
    "type": "channel",
    "noteNumber": 85,
    "channel": 0,
    "deltaTime": 120
  },
  {
    "subtype": "noteOn",
    "velocity": 0,
    "type": "channel",
    "noteNumber": 85,
    "channel": 0,
    "deltaTime": 120
  },
  {
    "subtype": "noteOn",
    "velocity": 0,
    "type": "channel",
    "noteNumber": 83,
    "channel": 0,
    "deltaTime": 120
  },
  {
    "subtype": "noteOn",
    "velocity": 0,
    "type": "channel",
    "noteNumber": 83,
    "channel": 0,
    "deltaTime": 120
  },
  {
    "subtype": "noteOff",
    "velocity": 0,
    "type": "channel",
    "noteNumber": 83,
    "channel": 0,
    "deltaTime": 0
  },
  {
    "subtype": "noteOn",
    "velocity": 0,
    "type": "channel",
    "noteNumber": 82,
    "channel": 0,
    "deltaTime": 120
  },
  {
    "subtype": "noteOn",
    "velocity": 0,
    "type": "channel",
    "noteNumber": 80,
    "channel": 0,
    "deltaTime": 120
  },
  {
    "subtype": "noteOn",
    "velocity": 0,
    "type": "channel",
    "noteNumber": 80,
    "channel": 0,
    "deltaTime": 120
  },
  {
    "subtype": "noteOff",
    "velocity": 0,
    "type": "channel",
    "noteNumber": 80,
    "channel": 0,
    "deltaTime": 0
  },
  {
    "subtype": "noteOn",
    "velocity": 0,
    "type": "channel",
    "noteNumber": 83,
    "channel": 0,
    "deltaTime": 120
  },
  {
    "subtype": "noteOn",
    "velocity": 0,
    "type": "channel",
    "noteNumber": 83,
    "channel": 0,
    "deltaTime": 120
  },
  {
    "subtype": "noteOn",
    "velocity": 0,
    "type": "channel",
    "noteNumber": 83,
    "channel": 0,
    "deltaTime": 120
  },
  {
    "subtype": "noteOn",
    "velocity": 0,
    "type": "channel",
    "noteNumber": 80,
    "channel": 0,
    "deltaTime": 120
  },
  {
    "subtype": "noteOn",
    "velocity": 0,
    "type": "channel",
    "noteNumber": 80,
    "channel": 0,
    "deltaTime": 120
  },
  {
    "subtype": "noteOff",
    "velocity": 0,
    "type": "channel",
    "noteNumber": 80,
    "channel": 0,
    "deltaTime": 0
  },
  {
    "subtype": "noteOff",
    "velocity": 0,
    "type": "channel",
    "noteNumber": 80,
    "channel": 0,
    "deltaTime": 0
  },
  {
    "subtype": "noteOn",
    "velocity": 0,
    "type": "channel",
    "noteNumber": 76,
    "channel": 0,
    "deltaTime": 120
  },
  {
    "subtype": "noteOn",
    "velocity": 0,
    "type": "channel",
    "noteNumber": 73,
    "channel": 0,
    "deltaTime": 120
  },
  {
    "subtype": "noteOff",
    "velocity": 0,
    "type": "channel",
    "noteNumber": 73,
    "channel": 0,
    "deltaTime": 0
  },
  {
    "subtype": "noteOn",
    "velocity": 0,
    "type": "channel",
    "noteNumber": 82,
    "channel": 0,
    "deltaTime": 120
  },
  {
    "subtype": "noteOn",
    "velocity": 0,
    "type": "channel",
    "noteNumber": 83,
    "channel": 0,
    "deltaTime": 120
  },
  {
    "subtype": "noteOn",
    "velocity": 0,
    "type": "channel",
    "noteNumber": 83,
    "channel": 0,
    "deltaTime": 120
  },
  {
    "subtype": "noteOn",
    "velocity": 0,
    "type": "channel",
    "noteNumber": 83,
    "channel": 0,
    "deltaTime": 120
  },
  {
    "subtype": "noteOn",
    "velocity": 0,
    "type": "channel",
    "noteNumber": 82,
    "channel": 0,
    "deltaTime": 120
  },
  {
    "subtype": "noteOn",
    "velocity": 0,
    "type": "channel",
    "noteNumber": 82,
    "channel": 0,
    "deltaTime": 120
  },
  {
    "subtype": "noteOn",
    "velocity": 0,
    "type": "channel",
    "noteNumber": 83,
    "channel": 0,
    "deltaTime": 120
  },
  {
    "subtype": "noteOn",
    "velocity": 0,
    "type": "channel",
    "noteNumber": 83,
    "channel": 0,
    "deltaTime": 120
  },
  {
    "subtype": "noteOn",
    "velocity": 0,
    "type": "channel",
    "noteNumber": 87,
    "channel": 0,
    "deltaTime": 120
  },
  {
    "subtype": "noteOn",
    "velocity": 0,
    "type": "channel",
    "noteNumber": 85,
    "channel": 0,
    "deltaTime": 120
  },
  {
    "subtype": "noteOn",
    "velocity": 0,
    "type": "channel",
    "noteNumber": 85,
    "channel": 0,
    "deltaTime": 120
  },
  {
    "subtype": "noteOn",
    "velocity": 0,
    "type": "channel",
    "noteNumber": 83,
    "channel": 0,
    "deltaTime": 120
  },
  {
    "subtype": "noteOn",
    "velocity": 0,
    "type": "channel",
    "noteNumber": 83,
    "channel": 0,
    "deltaTime": 120
  },
  {
    "subtype": "noteOn",
    "velocity": 0,
    "type": "channel",
    "noteNumber": 85,
    "channel": 0,
    "deltaTime": 120
  },
  {
    "subtype": "noteOn",
    "velocity": 0,
    "type": "channel",
    "noteNumber": 85,
    "channel": 0,
    "deltaTime": 120
  },
  {
    "subtype": "noteOn",
    "velocity": 0,
    "type": "channel",
    "noteNumber": 83,
    "channel": 0,
    "deltaTime": 120
  },
  {
    "subtype": "noteOn",
    "velocity": 0,
    "type": "channel",
    "noteNumber": 83,
    "channel": 0,
    "deltaTime": 120
  },
  {
    "subtype": "noteOff",
    "velocity": 0,
    "type": "channel",
    "noteNumber": 83,
    "channel": 0,
    "deltaTime": 0
  },
  {
    "subtype": "noteOn",
    "velocity": 0,
    "type": "channel",
    "noteNumber": 82,
    "channel": 0,
    "deltaTime": 120
  },
  {
    "subtype": "noteOn",
    "velocity": 0,
    "type": "channel",
    "noteNumber": 80,
    "channel": 0,
    "deltaTime": 120
  },
  {
    "subtype": "noteOn",
    "velocity": 0,
    "type": "channel",
    "noteNumber": 80,
    "channel": 0,
    "deltaTime": 120
  },
  {
    "subtype": "noteOn",
    "velocity": 0,
    "type": "channel",
    "noteNumber": 78,
    "channel": 0,
    "deltaTime": 120
  },
  {
    "subtype": "noteOn",
    "velocity": 0,
    "type": "channel",
    "noteNumber": 78,
    "channel": 0,
    "deltaTime": 120
  },
  {
    "subtype": "noteOn",
    "velocity": 0,
    "type": "channel",
    "noteNumber": 85,
    "channel": 0,
    "deltaTime": 120
  },
  {
    "subtype": "noteOn",
    "velocity": 0,
    "type": "channel",
    "noteNumber": 85,
    "channel": 0,
    "deltaTime": 120
  },
  {
    "subtype": "noteOn",
    "velocity": 0,
    "type": "channel",
    "noteNumber": 76,
    "channel": 0,
    "deltaTime": 120
  },
  {
    "subtype": "noteOn",
    "velocity": 0,
    "type": "channel",
    "noteNumber": 76,
    "channel": 0,
    "deltaTime": 120
  },
  {
    "subtype": "noteOn",
    "velocity": 0,
    "type": "channel",
    "noteNumber": 75,
    "channel": 0,
    "deltaTime": 120
  },
  {
    "subtype": "noteOn",
    "velocity": 0,
    "type": "channel",
    "noteNumber": 75,
    "channel": 0,
    "deltaTime": 120
  },
  {
    "subtype": "noteOn",
    "velocity": 0,
    "type": "channel",
    "noteNumber": 73,
    "channel": 0,
    "deltaTime": 120
  },
  {
    "subtype": "noteOn",
    "velocity": 0,
    "type": "channel",
    "noteNumber": 73,
    "channel": 0,
    "deltaTime": 120
  },
  {
    "subtype": "noteOn",
    "velocity": 0,
    "type": "channel",
    "noteNumber": 75,
    "channel": 0,
    "deltaTime": 120
  },
  {
    "subtype": "noteOn",
    "velocity": 0,
    "type": "channel",
    "noteNumber": 75,
    "channel": 0,
    "deltaTime": 120
  },
  {
    "subtype": "noteOn",
    "velocity": 0,
    "type": "channel",
    "noteNumber": 83,
    "channel": 0,
    "deltaTime": 120
  },
  {
    "subtype": "noteOn",
    "velocity": 0,
    "type": "channel",
    "noteNumber": 83,
    "channel": 0,
    "deltaTime": 120
  },
  {
    "subtype": "noteOn",
    "velocity": 0,
    "type": "channel",
    "noteNumber": 75,
    "channel": 0,
    "deltaTime": 120
  },
  {
    "subtype": "noteOn",
    "velocity": 0,
    "type": "channel",
    "noteNumber": 75,
    "channel": 0,
    "deltaTime": 120
  },
  {
    "subtype": "noteOn",
    "velocity": 0,
    "type": "channel",
    "noteNumber": 76,
    "channel": 0,
    "deltaTime": 120
  },
  {
    "subtype": "noteOn",
    "velocity": 0,
    "type": "channel",
    "noteNumber": 76,
    "channel": 0,
    "deltaTime": 120
  },
  {
    "subtype": "noteOn",
    "velocity": 0,
    "type": "channel",
    "noteNumber": 73,
    "channel": 0,
    "deltaTime": 120
  },
  {
    "subtype": "noteOn",
    "velocity": 0,
    "type": "channel",
    "noteNumber": 73,
    "channel": 0,
    "deltaTime": 120
  },
  {
    "subtype": "noteOff",
    "velocity": 0,
    "type": "channel",
    "noteNumber": 73,
    "channel": 0,
    "deltaTime": 0
  },
  {
    "subtype": "noteOn",
    "velocity": 0,
    "type": "channel",
    "noteNumber": 70,
    "channel": 0,
    "deltaTime": 120
  },
  {
    "subtype": "noteOff",
    "velocity": 0,
    "type": "channel",
    "noteNumber": 70,
    "channel": 0,
    "deltaTime": 0
  },
  {
    "subtype": "noteOn",
    "velocity": 0,
    "type": "channel",
    "noteNumber": 73,
    "channel": 0,
    "deltaTime": 120
  },
  {
    "subtype": "noteOn",
    "velocity": 0,
    "type": "channel",
    "noteNumber": 70,
    "channel": 0,
    "deltaTime": 120
  },
  {
    "subtype": "noteOn",
    "velocity": 0,
    "type": "channel",
    "noteNumber": 75,
    "channel": 0,
    "deltaTime": 120
  },
  {
    "subtype": "noteOn",
    "velocity": 0,
    "type": "channel",
    "noteNumber": 71,
    "channel": 0,
    "deltaTime": 120
  },
  {
    "subtype": "noteOn",
    "velocity": 0,
    "type": "channel",
    "noteNumber": 71,
    "channel": 0,
    "deltaTime": 120
  },
  {
    "subtype": "noteOn",
    "velocity": 0,
    "type": "channel",
    "noteNumber": 68,
    "channel": 0,
    "deltaTime": 120
  },
  {
    "subtype": "noteOn",
    "velocity": 0,
    "type": "channel",
    "noteNumber": 68,
    "channel": 0,
    "deltaTime": 120
  },
  {
    "subtype": "noteOn",
    "velocity": 0,
    "type": "channel",
    "noteNumber": 71,
    "channel": 0,
    "deltaTime": 120
  },
  {
    "subtype": "noteOn",
    "velocity": 0,
    "type": "channel",
    "noteNumber": 71,
    "channel": 0,
    "deltaTime": 120
  },
  {
    "subtype": "noteOn",
    "velocity": 0,
    "type": "channel",
    "noteNumber": 75,
    "channel": 0,
    "deltaTime": 120
  },
  {
    "subtype": "noteOn",
    "velocity": 0,
    "type": "channel",
    "noteNumber": 75,
    "channel": 0,
    "deltaTime": 120
  },
  {
    "subtype": "noteOn",
    "velocity": 0,
    "type": "channel",
    "noteNumber": 67,
    "channel": 0,
    "deltaTime": 120
  },
  {
    "subtype": "noteOn",
    "velocity": 0,
    "type": "channel",
    "noteNumber": 67,
    "channel": 0,
    "deltaTime": 120
  },
  {
    "subtype": "noteOn",
    "velocity": 0,
    "type": "channel",
    "noteNumber": 68,
    "channel": 0,
    "deltaTime": 120
  },
  {
    "subtype": "noteOn",
    "velocity": 0,
    "type": "channel",
    "noteNumber": 68,
    "channel": 0,
    "deltaTime": 120
  },
  {
    "subtype": "noteOff",
    "velocity": 0,
    "type": "channel",
    "noteNumber": 68,
    "channel": 0,
    "deltaTime": 0
  },
  {
    "subtype": "noteOn",
    "velocity": 0,
    "type": "channel",
    "noteNumber": 63,
    "channel": 0,
    "deltaTime": 120
  },
  {
    "subtype": "noteOff",
    "velocity": 0,
    "type": "channel",
    "noteNumber": 63,
    "channel": 0,
    "deltaTime": 0
  },
  {
    "subtype": "noteOn",
    "velocity": 0,
    "type": "channel",
    "noteNumber": 78,
    "channel": 0,
    "deltaTime": 120
  },
  {
    "subtype": "noteOn",
    "velocity": 0,
    "type": "channel",
    "noteNumber": 77,
    "channel": 0,
    "deltaTime": 120
  },
  {
    "subtype": "noteOn",
    "velocity": 0,
    "type": "channel",
    "noteNumber": 77,
    "channel": 0,
    "deltaTime": 120
  },
  {
    "subtype": "noteOn",
    "velocity": 0,
    "type": "channel",
    "noteNumber": 75,
    "channel": 0,
    "deltaTime": 120
  },
  {
    "subtype": "noteOn",
    "velocity": 0,
    "type": "channel",
    "noteNumber": 75,
    "channel": 0,
    "deltaTime": 120
  },
  {
    "subtype": "noteOn",
    "velocity": 0,
    "type": "channel",
    "noteNumber": 74,
    "channel": 0,
    "deltaTime": 120
  },
  {
    "subtype": "noteOn",
    "velocity": 0,
    "type": "channel",
    "noteNumber": 74,
    "channel": 0,
    "deltaTime": 120
  },
  {
    "subtype": "noteOn",
    "velocity": 0,
    "type": "channel",
    "noteNumber": 75,
    "channel": 0,
    "deltaTime": 120
  },
  {
    "subtype": "noteOn",
    "velocity": 0,
    "type": "channel",
    "noteNumber": 75,
    "channel": 0,
    "deltaTime": 120
  },
  {
    "subtype": "noteOn",
    "velocity": 0,
    "type": "channel",
    "noteNumber": 69,
    "channel": 0,
    "deltaTime": 120
  },
  {
    "subtype": "noteOn",
    "velocity": 0,
    "type": "channel",
    "noteNumber": 69,
    "channel": 0,
    "deltaTime": 120
  },
  {
    "subtype": "noteOn",
    "velocity": 0,
    "type": "channel",
    "noteNumber": 64,
    "channel": 0,
    "deltaTime": 120
  },
  {
    "subtype": "noteOn",
    "velocity": 0,
    "type": "channel",
    "noteNumber": 68,
    "channel": 0,
    "deltaTime": 120
  },
  {
    "subtype": "noteOn",
    "velocity": 0,
    "type": "channel",
    "noteNumber": 77,
    "channel": 0,
    "deltaTime": 120
  },
  {
    "subtype": "noteOn",
    "velocity": 0,
    "type": "channel",
    "noteNumber": 77,
    "channel": 0,
    "deltaTime": 120
  },
  {
    "subtype": "noteOn",
    "velocity": 0,
    "type": "channel",
    "noteNumber": 75,
    "channel": 0,
    "deltaTime": 120
  },
  {
    "subtype": "noteOn",
    "velocity": 0,
    "type": "channel",
    "noteNumber": 75,
    "channel": 0,
    "deltaTime": 120
  },
  {
    "subtype": "noteOn",
    "velocity": 0,
    "type": "channel",
    "noteNumber": 74,
    "channel": 0,
    "deltaTime": 120
  },
  {
    "subtype": "noteOn",
    "velocity": 0,
    "type": "channel",
    "noteNumber": 74,
    "channel": 0,
    "deltaTime": 120
  },
  {
    "subtype": "noteOff",
    "velocity": 0,
    "type": "channel",
    "noteNumber": 74,
    "channel": 0,
    "deltaTime": 0
  },
  {
    "subtype": "noteOn",
    "velocity": 0,
    "type": "channel",
    "noteNumber": 77,
    "channel": 0,
    "deltaTime": 120
  },
  {
    "subtype": "noteOff",
    "velocity": 0,
    "type": "channel",
    "noteNumber": 77,
    "channel": 0,
    "deltaTime": 0
  },
  {
    "subtype": "noteOn",
    "velocity": 0,
    "type": "channel",
    "noteNumber": 66,
    "channel": 0,
    "deltaTime": 120
  },
  {
    "subtype": "noteOn",
    "velocity": 0,
    "type": "channel",
    "noteNumber": 75,
    "channel": 0,
    "deltaTime": 120
  },
  {
    "subtype": "noteOn",
    "velocity": 0,
    "type": "channel",
    "noteNumber": 75,
    "channel": 0,
    "deltaTime": 120
  },
  {
    "subtype": "noteOn",
    "velocity": 0,
    "type": "channel",
    "noteNumber": 76,
    "channel": 0,
    "deltaTime": 120
  },
  {
    "subtype": "noteOn",
    "velocity": 0,
    "type": "channel",
    "noteNumber": 76,
    "channel": 0,
    "deltaTime": 120
  },
  {
    "subtype": "noteOff",
    "velocity": 0,
    "type": "channel",
    "noteNumber": 76,
    "channel": 0,
    "deltaTime": 0
  },
  {
    "subtype": "noteOn",
    "velocity": 0,
    "type": "channel",
    "noteNumber": 73,
    "channel": 0,
    "deltaTime": 120
  },
  {
    "subtype": "noteOff",
    "velocity": 0,
    "type": "channel",
    "noteNumber": 73,
    "channel": 0,
    "deltaTime": 0
  },
  {
    "subtype": "noteOff",
    "velocity": 0,
    "type": "channel",
    "noteNumber": 73,
    "channel": 0,
    "deltaTime": 0
  },
  {
    "subtype": "noteOff",
    "velocity": 0,
    "type": "channel",
    "noteNumber": 73,
    "channel": 0,
    "deltaTime": 0
  },
  {
    "subtype": "noteOn",
    "velocity": 0,
    "type": "channel",
    "noteNumber": 82,
    "channel": 0,
    "deltaTime": 120
  },
  {
    "subtype": "noteOn",
    "velocity": 0,
    "type": "channel",
    "noteNumber": 82,
    "channel": 0,
    "deltaTime": 120
  },
  {
    "subtype": "noteOn",
    "velocity": 0,
    "type": "channel",
    "noteNumber": 82,
    "channel": 0,
    "deltaTime": 120
  },
  {
    "subtype": "noteOn",
    "velocity": 0,
    "type": "channel",
    "noteNumber": 79,
    "channel": 0,
    "deltaTime": 120
  },
  {
    "subtype": "noteOn",
    "velocity": 0,
    "type": "channel",
    "noteNumber": 79,
    "channel": 0,
    "deltaTime": 120
  },
  {
    "subtype": "noteOn",
    "velocity": 0,
    "type": "channel",
    "noteNumber": 75,
    "channel": 0,
    "deltaTime": 120
  },
  {
    "subtype": "noteOn",
    "velocity": 0,
    "type": "channel",
    "noteNumber": 75,
    "channel": 0,
    "deltaTime": 120
  },
  {
    "subtype": "noteOn",
    "velocity": 0,
    "type": "channel",
    "noteNumber": 73,
    "channel": 0,
    "deltaTime": 120
  },
  {
    "subtype": "noteOn",
    "velocity": 0,
    "type": "channel",
    "noteNumber": 73,
    "channel": 0,
    "deltaTime": 120
  },
  {
    "subtype": "noteOn",
    "velocity": 0,
    "type": "channel",
    "noteNumber": 71,
    "channel": 0,
    "deltaTime": 120
  },
  {
    "subtype": "noteOn",
    "velocity": 0,
    "type": "channel",
    "noteNumber": 71,
    "channel": 0,
    "deltaTime": 120
  },
  {
    "subtype": "noteOn",
    "velocity": 0,
    "type": "channel",
    "noteNumber": 75,
    "channel": 0,
    "deltaTime": 120
  },
  {
    "subtype": "noteOn",
    "velocity": 0,
    "type": "channel",
    "noteNumber": 75,
    "channel": 0,
    "deltaTime": 120
  },
  {
    "subtype": "noteOff",
    "velocity": 0,
    "type": "channel",
    "noteNumber": 75,
    "channel": 0,
    "deltaTime": 0
  },
  {
    "subtype": "noteOn",
    "velocity": 0,
    "type": "channel",
    "noteNumber": 79,
    "channel": 0,
    "deltaTime": 120
  },
  {
    "subtype": "noteOn",
    "velocity": 0,
    "type": "channel",
    "noteNumber": 80,
    "channel": 0,
    "deltaTime": 120
  },
  {
    "subtype": "noteOn",
    "velocity": 0,
    "type": "channel",
    "noteNumber": 80,
    "channel": 0,
    "deltaTime": 120
  },
  {
    "subtype": "noteOff",
    "velocity": 0,
    "type": "channel",
    "noteNumber": 80,
    "channel": 0,
    "deltaTime": 0
  },
  {
    "subtype": "noteOn",
    "velocity": 0,
    "type": "channel",
    "noteNumber": 78,
    "channel": 0,
    "deltaTime": 120
  },
  {
    "subtype": "noteOff",
    "velocity": 0,
    "type": "channel",
    "noteNumber": 78,
    "channel": 0,
    "deltaTime": 0
  },
  {
    "subtype": "noteOn",
    "velocity": 0,
    "type": "channel",
    "noteNumber": 83,
    "channel": 0,
    "deltaTime": 120
  },
  {
    "subtype": "noteOff",
    "velocity": 0,
    "type": "channel",
    "noteNumber": 83,
    "channel": 0,
    "deltaTime": 0
  },
  {
    "subtype": "noteOn",
    "velocity": 0,
    "type": "channel",
    "noteNumber": 80,
    "channel": 0,
    "deltaTime": 120
  },
  {
    "subtype": "noteOff",
    "velocity": 0,
    "type": "channel",
    "noteNumber": 80,
    "channel": 0,
    "deltaTime": 0
  },
  {
    "subtype": "noteOn",
    "velocity": 0,
    "type": "channel",
    "noteNumber": 79,
    "channel": 0,
    "deltaTime": 120
  },
  {
    "subtype": "noteOff",
    "velocity": 0,
    "type": "channel",
    "noteNumber": 79,
    "channel": 0,
    "deltaTime": 0
  },
  {
    "subtype": "noteOn",
    "velocity": 0,
    "type": "channel",
    "noteNumber": 83,
    "channel": 0,
    "deltaTime": 120
  },
  {
    "subtype": "noteOff",
    "velocity": 0,
    "type": "channel",
    "noteNumber": 83,
    "channel": 0,
    "deltaTime": 0
  },
  {
    "subtype": "noteOn",
    "velocity": 0,
    "type": "channel",
    "noteNumber": 77,
    "channel": 0,
    "deltaTime": 120
  },
  {
    "subtype": "noteOn",
    "velocity": 0,
    "type": "channel",
    "noteNumber": 79,
    "channel": 0,
    "deltaTime": 120
  },
  {
    "subtype": "noteOn",
    "velocity": 0,
    "type": "channel",
    "noteNumber": 79,
    "channel": 0,
    "deltaTime": 120
  },
  {
    "subtype": "noteOn",
    "velocity": 0,
    "type": "channel",
    "noteNumber": 80,
    "channel": 0,
    "deltaTime": 120
  },
  {
    "subtype": "noteOn",
    "velocity": 0,
    "type": "channel",
    "noteNumber": 80,
    "channel": 0,
    "deltaTime": 120
  },
  {
    "subtype": "noteOff",
    "velocity": 0,
    "type": "channel",
    "noteNumber": 80,
    "channel": 0,
    "deltaTime": 0
  },
  {
    "subtype": "noteOn",
    "velocity": 0,
    "type": "channel",
    "noteNumber": 78,
    "channel": 0,
    "deltaTime": 120
  },
  {
    "subtype": "noteOff",
    "velocity": 0,
    "type": "channel",
    "noteNumber": 78,
    "channel": 0,
    "deltaTime": 0
  },
  {
    "subtype": "noteOn",
    "velocity": 0,
    "type": "channel",
    "noteNumber": 71,
    "channel": 0,
    "deltaTime": 120
  },
  {
    "subtype": "noteOff",
    "velocity": 0,
    "type": "channel",
    "noteNumber": 71,
    "channel": 0,
    "deltaTime": 0
  },
  {
    "subtype": "noteOn",
    "velocity": 0,
    "type": "channel",
    "noteNumber": 75,
    "channel": 0,
    "deltaTime": 120
  },
  {
    "subtype": "noteOff",
    "velocity": 0,
    "type": "channel",
    "noteNumber": 75,
    "channel": 0,
    "deltaTime": 0
  },
  {
    "subtype": "noteOn",
    "velocity": 0,
    "type": "channel",
    "noteNumber": 68,
    "channel": 0,
    "deltaTime": 120
  },
  {
    "subtype": "noteOff",
    "velocity": 0,
    "type": "channel",
    "noteNumber": 68,
    "channel": 0,
    "deltaTime": 0
  },
  {
    "subtype": "noteOn",
    "velocity": 0,
    "type": "channel",
    "noteNumber": 75,
    "channel": 0,
    "deltaTime": 120
  },
  {
    "subtype": "noteOff",
    "velocity": 0,
    "type": "channel",
    "noteNumber": 75,
    "channel": 0,
    "deltaTime": 0
  },
  {
    "subtype": "noteOn",
    "velocity": 0,
    "type": "channel",
    "noteNumber": 77,
    "channel": 0,
    "deltaTime": 120
  },
  {
    "subtype": "noteOff",
    "velocity": 0,
    "type": "channel",
    "noteNumber": 77,
    "channel": 0,
    "deltaTime": 0
  },
  {
    "subtype": "noteOn",
    "velocity": 0,
    "type": "channel",
    "noteNumber": 73,
    "channel": 0,
    "deltaTime": 120
  },
  {
    "subtype": "noteOn",
    "velocity": 0,
    "type": "channel",
    "noteNumber": 70,
    "channel": 0,
    "deltaTime": 120
  },
  {
    "subtype": "noteOn",
    "velocity": 0,
    "type": "channel",
    "noteNumber": 70,
    "channel": 0,
    "deltaTime": 120
  },
  {
    "subtype": "noteOff",
    "velocity": 0,
    "type": "channel",
    "noteNumber": 70,
    "channel": 0,
    "deltaTime": 0
  },
  {
    "subtype": "noteOn",
    "velocity": 0,
    "type": "channel",
    "noteNumber": 68,
    "channel": 0,
    "deltaTime": 120
  },
  {
    "subtype": "noteOff",
    "velocity": 0,
    "type": "channel",
    "noteNumber": 68,
    "channel": 0,
    "deltaTime": 0
  },
  {
    "subtype": "noteOn",
    "velocity": 0,
    "type": "channel",
    "noteNumber": 66,
    "channel": 0,
    "deltaTime": 120
  },
  {
    "subtype": "noteOn",
    "velocity": 0,
    "type": "channel",
    "noteNumber": 80,
    "channel": 0,
    "deltaTime": 120
  },
  {
    "subtype": "noteOn",
    "velocity": 0,
    "type": "channel",
    "noteNumber": 75,
    "channel": 0,
    "deltaTime": 120
  },
  {
    "subtype": "noteOn",
    "velocity": 0,
    "type": "channel",
    "noteNumber": 82,
    "channel": 0,
    "deltaTime": 120
  },
  {
    "subtype": "noteOn",
    "velocity": 0,
    "type": "channel",
    "noteNumber": 82,
    "channel": 0,
    "deltaTime": 120
  },
  {
    "subtype": "noteOn",
    "velocity": 0,
    "type": "channel",
    "noteNumber": 82,
    "channel": 0,
    "deltaTime": 120
  },
  {
    "subtype": "noteOn",
    "velocity": 0,
    "type": "channel",
    "noteNumber": 75,
    "channel": 0,
    "deltaTime": 120
  },
  {
    "subtype": "noteOff",
    "velocity": 0,
    "type": "channel",
    "noteNumber": 75,
    "channel": 0,
    "deltaTime": 0
  },
  {
    "subtype": "noteOn",
    "velocity": 0,
    "type": "channel",
    "noteNumber": 82,
    "channel": 0,
    "deltaTime": 120
  },
  {
    "subtype": "noteOff",
    "velocity": 0,
    "type": "channel",
    "noteNumber": 82,
    "channel": 0,
    "deltaTime": 0
  },
  {
    "subtype": "noteOn",
    "velocity": 0,
    "type": "channel",
    "noteNumber": 82,
    "channel": 0,
    "deltaTime": 120
  },
  {
    "subtype": "noteOn",
    "velocity": 0,
    "type": "channel",
    "noteNumber": 80,
    "channel": 0,
    "deltaTime": 120
  },
  {
    "subtype": "noteOn",
    "velocity": 0,
    "type": "channel",
    "noteNumber": 80,
    "channel": 0,
    "deltaTime": 120
  },
  {
    "subtype": "noteOn",
    "velocity": 0,
    "type": "channel",
    "noteNumber": 78,
    "channel": 0,
    "deltaTime": 120
  },
  {
    "subtype": "noteOn",
    "velocity": 0,
    "type": "channel",
    "noteNumber": 78,
    "channel": 0,
    "deltaTime": 120
  },
  {
    "subtype": "noteOn",
    "velocity": 0,
    "type": "channel",
    "noteNumber": 77,
    "channel": 0,
    "deltaTime": 120
  },
  {
    "subtype": "noteOn",
    "velocity": 0,
    "type": "channel",
    "noteNumber": 77,
    "channel": 0,
    "deltaTime": 120
  },
  {
    "subtype": "noteOn",
    "velocity": 0,
    "type": "channel",
    "noteNumber": 75,
    "channel": 0,
    "deltaTime": 120
  },
  {
    "subtype": "noteOn",
    "velocity": 0,
    "type": "channel",
    "noteNumber": 75,
    "channel": 0,
    "deltaTime": 120
  },
  {
    "subtype": "noteOn",
    "velocity": 0,
    "type": "channel",
    "noteNumber": 74,
    "channel": 0,
    "deltaTime": 120
  },
  {
    "subtype": "noteOn",
    "velocity": 0,
    "type": "channel",
    "noteNumber": 74,
    "channel": 0,
    "deltaTime": 120
  },
  {
    "subtype": "noteOff",
    "velocity": 0,
    "type": "channel",
    "noteNumber": 74,
    "channel": 0,
    "deltaTime": 0
  },
  {
    "subtype": "noteOn",
    "velocity": 0,
    "type": "channel",
    "noteNumber": 75,
    "channel": 0,
    "deltaTime": 120
  },
  {
    "subtype": "noteOff",
    "velocity": 0,
    "type": "channel",
    "noteNumber": 75,
    "channel": 0,
    "deltaTime": 0
  },
  {
    "subtype": "noteOn",
    "velocity": 0,
    "type": "channel",
    "noteNumber": 72,
    "channel": 0,
    "deltaTime": 120
  },
  {
    "subtype": "noteOff",
    "velocity": 0,
    "type": "channel",
    "noteNumber": 72,
    "channel": 0,
    "deltaTime": 0
  },
  {
    "subtype": "noteOn",
    "velocity": 0,
    "type": "channel",
    "noteNumber": 82,
    "channel": 0,
    "deltaTime": 120
  },
  {
    "subtype": "noteOff",
    "velocity": 0,
    "type": "channel",
    "noteNumber": 82,
    "channel": 0,
    "deltaTime": 0
  },
  {
    "subtype": "noteOn",
    "velocity": 0,
    "type": "channel",
    "noteNumber": 83,
    "channel": 0,
    "deltaTime": 120
  },
  {
    "subtype": "noteOff",
    "velocity": 0,
    "type": "channel",
    "noteNumber": 83,
    "channel": 0,
    "deltaTime": 0
  },
  {
    "subtype": "noteOn",
    "velocity": 0,
    "type": "channel",
    "noteNumber": 82,
    "channel": 0,
    "deltaTime": 120
  },
  {
    "subtype": "noteOn",
    "velocity": 0,
    "type": "channel",
    "noteNumber": 85,
    "channel": 0,
    "deltaTime": 120
  },
  {
    "subtype": "noteOn",
    "velocity": 0,
    "type": "channel",
    "noteNumber": 85,
    "channel": 0,
    "deltaTime": 120
  },
  {
    "subtype": "noteOn",
    "velocity": 0,
    "type": "channel",
    "noteNumber": 85,
    "channel": 0,
    "deltaTime": 120
  },
  {
    "subtype": "noteOn",
    "velocity": 0,
    "type": "channel",
    "noteNumber": 85,
    "channel": 0,
    "deltaTime": 120
  },
  {
    "subtype": "noteOn",
    "velocity": 0,
    "type": "channel",
    "noteNumber": 83,
    "channel": 0,
    "deltaTime": 120
  },
  {
    "subtype": "noteOn",
    "velocity": 0,
    "type": "channel",
    "noteNumber": 83,
    "channel": 0,
    "deltaTime": 120
  },
  {
    "subtype": "noteOn",
    "velocity": 0,
    "type": "channel",
    "noteNumber": 82,
    "channel": 0,
    "deltaTime": 120
  },
  {
    "subtype": "noteOn",
    "velocity": 0,
    "type": "channel",
    "noteNumber": 82,
    "channel": 0,
    "deltaTime": 120
  },
  {
    "subtype": "noteOn",
    "velocity": 0,
    "type": "channel",
    "noteNumber": 80,
    "channel": 0,
    "deltaTime": 120
  },
  {
    "subtype": "noteOn",
    "velocity": 0,
    "type": "channel",
    "noteNumber": 80,
    "channel": 0,
    "deltaTime": 120
  },
  {
    "subtype": "noteOn",
    "velocity": 0,
    "type": "channel",
    "noteNumber": 79,
    "channel": 0,
    "deltaTime": 120
  },
  {
    "subtype": "noteOn",
    "velocity": 0,
    "type": "channel",
    "noteNumber": 79,
    "channel": 0,
    "deltaTime": 120
  },
  {
    "subtype": "noteOn",
    "velocity": 0,
    "type": "channel",
    "noteNumber": 80,
    "channel": 0,
    "deltaTime": 120
  },
  {
    "subtype": "noteOn",
    "velocity": 0,
    "type": "channel",
    "noteNumber": 80,
    "channel": 0,
    "deltaTime": 120
  },
  {
    "subtype": "noteOn",
    "velocity": 0,
    "type": "channel",
    "noteNumber": 75,
    "channel": 0,
    "deltaTime": 120
  },
  {
    "subtype": "noteOn",
    "velocity": 0,
    "type": "channel",
    "noteNumber": 75,
    "channel": 0,
    "deltaTime": 120
  },
  {
    "subtype": "noteOff",
    "velocity": 0,
    "type": "channel",
    "noteNumber": 75,
    "channel": 0,
    "deltaTime": 0
  },
  {
    "subtype": "noteOn",
    "velocity": 0,
    "type": "channel",
    "noteNumber": 82,
    "channel": 0,
    "deltaTime": 120
  },
  {
    "subtype": "noteOn",
    "velocity": 0,
    "type": "channel",
    "noteNumber": 75,
    "channel": 0,
    "deltaTime": 120
  },
  {
    "subtype": "noteOn",
    "velocity": 0,
    "type": "channel",
    "noteNumber": 75,
    "channel": 0,
    "deltaTime": 120
  },
  {
    "subtype": "noteOff",
    "velocity": 0,
    "type": "channel",
    "noteNumber": 75,
    "channel": 0,
    "deltaTime": 0
  },
  {
    "subtype": "noteOn",
    "velocity": 0,
    "type": "channel",
    "noteNumber": 79,
    "channel": 0,
    "deltaTime": 120
  },
  {
    "subtype": "noteOn",
    "velocity": 0,
    "type": "channel",
    "noteNumber": 80,
    "channel": 0,
    "deltaTime": 120
  },
  {
    "subtype": "noteOn",
    "velocity": 0,
    "type": "channel",
    "noteNumber": 80,
    "channel": 0,
    "deltaTime": 120
  },
  {
    "subtype": "noteOff",
    "velocity": 0,
    "type": "channel",
    "noteNumber": 80,
    "channel": 0,
    "deltaTime": 0
  },
  {
    "subtype": "noteOn",
    "velocity": 0,
    "type": "channel",
    "noteNumber": 78,
    "channel": 0,
    "deltaTime": 120
  },
  {
    "subtype": "noteOff",
    "velocity": 0,
    "type": "channel",
    "noteNumber": 78,
    "channel": 0,
    "deltaTime": 0
  },
  {
    "subtype": "noteOn",
    "velocity": 0,
    "type": "channel",
    "noteNumber": 72,
    "channel": 0,
    "deltaTime": 120
  },
  {
    "subtype": "noteOff",
    "velocity": 0,
    "type": "channel",
    "noteNumber": 72,
    "channel": 0,
    "deltaTime": 0
  },
  {
    "subtype": "noteOn",
    "velocity": 0,
    "type": "channel",
    "noteNumber": 73,
    "channel": 0,
    "deltaTime": 120
  },
  {
    "subtype": "noteOn",
    "velocity": 0,
    "type": "channel",
    "noteNumber": 75,
    "channel": 0,
    "deltaTime": 120
  },
  {
    "subtype": "noteOn",
    "velocity": 0,
    "type": "channel",
    "noteNumber": 75,
    "channel": 0,
    "deltaTime": 120
  },
  {
    "subtype": "noteOn",
    "velocity": 0,
    "type": "channel",
    "noteNumber": 77,
    "channel": 0,
    "deltaTime": 120
  },
  {
    "subtype": "noteOn",
    "velocity": 0,
    "type": "channel",
    "noteNumber": 77,
    "channel": 0,
    "deltaTime": 120
  },
  {
    "subtype": "noteOn",
    "velocity": 0,
    "type": "channel",
    "noteNumber": 78,
    "channel": 0,
    "deltaTime": 120
  },
  {
    "subtype": "noteOn",
    "velocity": 0,
    "type": "channel",
    "noteNumber": 78,
    "channel": 0,
    "deltaTime": 120
  },
  {
    "subtype": "noteOn",
    "velocity": 0,
    "type": "channel",
    "noteNumber": 68,
    "channel": 0,
    "deltaTime": 120
  },
  {
    "subtype": "noteOn",
    "velocity": 0,
    "type": "channel",
    "noteNumber": 68,
    "channel": 0,
    "deltaTime": 120
  },
  {
    "subtype": "noteOn",
    "velocity": 0,
    "type": "channel",
    "noteNumber": 75,
    "channel": 0,
    "deltaTime": 120
  },
  {
    "subtype": "noteOn",
    "velocity": 0,
    "type": "channel",
    "noteNumber": 75,
    "channel": 0,
    "deltaTime": 120
  },
  {
    "subtype": "noteOff",
    "velocity": 0,
    "type": "channel",
    "noteNumber": 75,
    "channel": 0,
    "deltaTime": 0
  },
  {
    "subtype": "noteOn",
    "velocity": 0,
    "type": "channel",
    "noteNumber": 74,
    "channel": 0,
    "deltaTime": 120
  },
  {
    "subtype": "noteOff",
    "velocity": 0,
    "type": "channel",
    "noteNumber": 74,
    "channel": 0,
    "deltaTime": 0
  },
  {
    "subtype": "noteOn",
    "velocity": 0,
    "type": "channel",
    "noteNumber": 66,
    "channel": 0,
    "deltaTime": 120
  },
  {
    "subtype": "noteOn",
    "velocity": 0,
    "type": "channel",
    "noteNumber": 70,
    "channel": 0,
    "deltaTime": 120
  },
  {
    "subtype": "noteOn",
    "velocity": 0,
    "type": "channel",
    "noteNumber": 70,
    "channel": 0,
    "deltaTime": 120
  },
  {
    "subtype": "noteOff",
    "velocity": 0,
    "type": "channel",
    "noteNumber": 70,
    "channel": 0,
    "deltaTime": 0
  },
  {
    "subtype": "noteOn",
    "velocity": 0,
    "type": "channel",
    "noteNumber": 63,
    "channel": 0,
    "deltaTime": 120
  },
  {
    "subtype": "noteOn",
    "velocity": 0,
    "type": "channel",
    "noteNumber": 75,
    "channel": 0,
    "deltaTime": 120
  },
  {
    "subtype": "noteOn",
    "velocity": 0,
    "type": "channel",
    "noteNumber": 61,
    "channel": 0,
    "deltaTime": 120
  },
  {
    "subtype": "noteOn",
    "velocity": 0,
    "type": "channel",
    "noteNumber": 76,
    "channel": 0,
    "deltaTime": 120
  },
  {
    "subtype": "noteOn",
    "velocity": 0,
    "type": "channel",
    "noteNumber": 76,
    "channel": 0,
    "deltaTime": 120
  },
  {
    "subtype": "noteOff",
    "velocity": 0,
    "type": "channel",
    "noteNumber": 76,
    "channel": 0,
    "deltaTime": 0
  },
  {
    "subtype": "noteOn",
    "velocity": 0,
    "type": "channel",
    "noteNumber": 73,
    "channel": 0,
    "deltaTime": 120
  },
  {
    "subtype": "noteOn",
    "velocity": 0,
    "type": "channel",
    "noteNumber": 85,
    "channel": 0,
    "deltaTime": 120
  },
  {
    "subtype": "noteOn",
    "velocity": 0,
    "type": "channel",
    "noteNumber": 85,
    "channel": 0,
    "deltaTime": 120
  },
  {
    "subtype": "noteOff",
    "velocity": 0,
    "type": "channel",
    "noteNumber": 85,
    "channel": 0,
    "deltaTime": 0
  },
  {
    "subtype": "noteOn",
    "velocity": 0,
    "type": "channel",
    "noteNumber": 76,
    "channel": 0,
    "deltaTime": 120
  },
  {
    "subtype": "noteOn",
    "velocity": 0,
    "type": "channel",
    "noteNumber": 75,
    "channel": 0,
    "deltaTime": 120
  },
  {
    "subtype": "noteOn",
    "velocity": 0,
    "type": "channel",
    "noteNumber": 75,
    "channel": 0,
    "deltaTime": 120
  },
  {
    "subtype": "noteOn",
    "velocity": 0,
    "type": "channel",
    "noteNumber": 73,
    "channel": 0,
    "deltaTime": 120
  },
  {
    "subtype": "noteOn",
    "velocity": 0,
    "type": "channel",
    "noteNumber": 73,
    "channel": 0,
    "deltaTime": 120
  },
  {
    "subtype": "noteOn",
    "velocity": 0,
    "type": "channel",
    "noteNumber": 71,
    "channel": 0,
    "deltaTime": 120
  },
  {
    "subtype": "noteOn",
    "velocity": 0,
    "type": "channel",
    "noteNumber": 71,
    "channel": 0,
    "deltaTime": 120
  },
  {
    "subtype": "noteOn",
    "velocity": 0,
    "type": "channel",
    "noteNumber": 73,
    "channel": 0,
    "deltaTime": 120
  },
  {
    "subtype": "noteOn",
    "velocity": 0,
    "type": "channel",
    "noteNumber": 73,
    "channel": 0,
    "deltaTime": 120
  },
  {
    "subtype": "noteOn",
    "velocity": 0,
    "type": "channel",
    "noteNumber": 70,
    "channel": 0,
    "deltaTime": 120
  },
  {
    "subtype": "noteOn",
    "velocity": 0,
    "type": "channel",
    "noteNumber": 70,
    "channel": 0,
    "deltaTime": 120
  },
  {
    "subtype": "noteOn",
    "velocity": 0,
    "type": "channel",
    "noteNumber": 71,
    "channel": 0,
    "deltaTime": 120
  },
  {
    "subtype": "noteOn",
    "velocity": 0,
    "type": "channel",
    "noteNumber": 71,
    "channel": 0,
    "deltaTime": 120
  },
  {
    "subtype": "noteOff",
    "velocity": 0,
    "type": "channel",
    "noteNumber": 71,
    "channel": 0,
    "deltaTime": 0
  },
  {
    "subtype": "noteOn",
    "velocity": 0,
    "type": "channel",
    "noteNumber": 75,
    "channel": 0,
    "deltaTime": 120
  },
  {
    "subtype": "noteOff",
    "velocity": 0,
    "type": "channel",
    "noteNumber": 75,
    "channel": 0,
    "deltaTime": 0
  },
  {
    "subtype": "noteOn",
    "velocity": 0,
    "type": "channel",
    "noteNumber": 70,
    "channel": 0,
    "deltaTime": 120
  },
  {
    "subtype": "noteOn",
    "velocity": 0,
    "type": "channel",
    "noteNumber": 68,
    "channel": 0,
    "deltaTime": 120
  },
  {
    "subtype": "noteOn",
    "velocity": 0,
    "type": "channel",
    "noteNumber": 68,
    "channel": 0,
    "deltaTime": 120
  },
  {
    "subtype": "noteOn",
    "velocity": 0,
    "type": "channel",
    "noteNumber": 71,
    "channel": 0,
    "deltaTime": 120
  },
  {
    "subtype": "noteOn",
    "velocity": 0,
    "type": "channel",
    "noteNumber": 71,
    "channel": 0,
    "deltaTime": 120
  },
  {
    "subtype": "noteOn",
    "velocity": 0,
    "type": "channel",
    "noteNumber": 75,
    "channel": 0,
    "deltaTime": 120
  },
  {
    "subtype": "noteOn",
    "velocity": 0,
    "type": "channel",
    "noteNumber": 75,
    "channel": 0,
    "deltaTime": 120
  },
  {
    "subtype": "noteOff",
    "velocity": 0,
    "type": "channel",
    "noteNumber": 75,
    "channel": 0,
    "deltaTime": 0
  },
  {
    "subtype": "noteOn",
    "velocity": 0,
    "type": "channel",
    "noteNumber": 76,
    "channel": 0,
    "deltaTime": 120
  },
  {
    "subtype": "noteOn",
    "velocity": 0,
    "type": "channel",
    "noteNumber": 80,
    "channel": 0,
    "deltaTime": 120
  },
  {
    "subtype": "noteOn",
    "velocity": 0,
    "type": "channel",
    "noteNumber": 80,
    "channel": 0,
    "deltaTime": 120
  },
  {
    "subtype": "noteOn",
    "velocity": 0,
    "type": "channel",
    "noteNumber": 78,
    "channel": 0,
    "deltaTime": 120
  },
  {
    "subtype": "noteOn",
    "velocity": 0,
    "type": "channel",
    "noteNumber": 78,
    "channel": 0,
    "deltaTime": 120
  },
  {
    "subtype": "noteOn",
    "velocity": 0,
    "type": "channel",
    "noteNumber": 78,
    "channel": 0,
    "deltaTime": 120
  },
  {
    "subtype": "noteOn",
    "velocity": 0,
    "type": "channel",
    "noteNumber": 78,
    "channel": 0,
    "deltaTime": 120
  },
  {
    "subtype": "noteOn",
    "velocity": 0,
    "type": "channel",
    "noteNumber": 76,
    "channel": 0,
    "deltaTime": 120
  },
  {
    "subtype": "noteOn",
    "velocity": 0,
    "type": "channel",
    "noteNumber": 76,
    "channel": 0,
    "deltaTime": 120
  },
  {
    "subtype": "noteOn",
    "velocity": 0,
    "type": "channel",
    "noteNumber": 75,
    "channel": 0,
    "deltaTime": 120
  },
  {
    "subtype": "noteOn",
    "velocity": 0,
    "type": "channel",
    "noteNumber": 75,
    "channel": 0,
    "deltaTime": 120
  },
  {
    "subtype": "noteOff",
    "velocity": 0,
    "type": "channel",
    "noteNumber": 75,
    "channel": 0,
    "deltaTime": 0
  },
  {
    "subtype": "noteOn",
    "velocity": 0,
    "type": "channel",
    "noteNumber": 73,
    "channel": 0,
    "deltaTime": 120
  },
  {
    "subtype": "noteOff",
    "velocity": 0,
    "type": "channel",
    "noteNumber": 73,
    "channel": 0,
    "deltaTime": 0
  },
  {
    "subtype": "noteOn",
    "velocity": 0,
    "type": "channel",
    "noteNumber": 76,
    "channel": 0,
    "deltaTime": 120
  },
  {
    "subtype": "noteOn",
    "velocity": 0,
    "type": "channel",
    "noteNumber": 73,
    "channel": 0,
    "deltaTime": 120
  },
  {
    "subtype": "noteOn",
    "velocity": 0,
    "type": "channel",
    "noteNumber": 73,
    "channel": 0,
    "deltaTime": 120
  },
  {
    "subtype": "noteOn",
    "velocity": 0,
    "type": "channel",
    "noteNumber": 70,
    "channel": 0,
    "deltaTime": 120
  },
  {
    "subtype": "noteOn",
    "velocity": 0,
    "type": "channel",
    "noteNumber": 70,
    "channel": 0,
    "deltaTime": 120
  },
  {
    "subtype": "noteOff",
    "velocity": 0,
    "type": "channel",
    "noteNumber": 70,
    "channel": 0,
    "deltaTime": 0
  },
  {
    "subtype": "noteOn",
    "velocity": 0,
    "type": "channel",
    "noteNumber": 73,
    "channel": 0,
    "deltaTime": 120
  },
  {
    "subtype": "noteOn",
    "velocity": 0,
    "type": "channel",
    "noteNumber": 76,
    "channel": 0,
    "deltaTime": 120
  },
  {
    "subtype": "noteOn",
    "velocity": 0,
    "type": "channel",
    "noteNumber": 76,
    "channel": 0,
    "deltaTime": 120
  },
  {
    "subtype": "noteOff",
    "velocity": 0,
    "type": "channel",
    "noteNumber": 76,
    "channel": 0,
    "deltaTime": 0
  },
  {
    "subtype": "noteOn",
    "velocity": 0,
    "type": "channel",
    "noteNumber": 73,
    "channel": 0,
    "deltaTime": 120
  },
  {
    "subtype": "noteOff",
    "velocity": 0,
    "type": "channel",
    "noteNumber": 73,
    "channel": 0,
    "deltaTime": 0
  },
  {
    "subtype": "noteOn",
    "velocity": 0,
    "type": "channel",
    "noteNumber": 70,
    "channel": 0,
    "deltaTime": 120
  },
  {
    "subtype": "noteOn",
    "velocity": 0,
    "type": "channel",
    "noteNumber": 70,
    "channel": 0,
    "deltaTime": 120
  },
  {
    "subtype": "noteOn",
    "velocity": 0,
    "type": "channel",
    "noteNumber": 70,
    "channel": 0,
    "deltaTime": 120
  },
  {
    "subtype": "noteOn",
    "velocity": 0,
    "type": "channel",
    "noteNumber": 70,
    "channel": 0,
    "deltaTime": 120
  },
  {
    "subtype": "noteOn",
    "velocity": 0,
    "type": "channel",
    "noteNumber": 70,
    "channel": 0,
    "deltaTime": 120
  },
  {
    "subtype": "noteOff",
    "velocity": 0,
    "type": "channel",
    "noteNumber": 70,
    "channel": 0,
    "deltaTime": 0
  },
  {
    "subtype": "noteOn",
    "velocity": 0,
    "type": "channel",
    "noteNumber": 66,
    "channel": 0,
    "deltaTime": 120
  },
  {
    "subtype": "noteOff",
    "velocity": 0,
    "type": "channel",
    "noteNumber": 66,
    "channel": 0,
    "deltaTime": 0
  },
  {
    "subtype": "noteOn",
    "velocity": 0,
    "type": "channel",
    "noteNumber": 75,
    "channel": 0,
    "deltaTime": 120
  },
  {
    "subtype": "noteOn",
    "velocity": 0,
    "type": "channel",
    "noteNumber": 76,
    "channel": 0,
    "deltaTime": 120
  },
  {
    "subtype": "noteOn",
    "velocity": 0,
    "type": "channel",
    "noteNumber": 76,
    "channel": 0,
    "deltaTime": 120
  },
  {
    "subtype": "noteOff",
    "velocity": 0,
    "type": "channel",
    "noteNumber": 76,
    "channel": 0,
    "deltaTime": 0
  },
  {
    "subtype": "noteOn",
    "velocity": 0,
    "type": "channel",
    "noteNumber": 73,
    "channel": 0,
    "deltaTime": 120
  },
  {
    "subtype": "noteOff",
    "velocity": 0,
    "type": "channel",
    "noteNumber": 73,
    "channel": 0,
    "deltaTime": 0
  },
  {
    "subtype": "noteOn",
    "velocity": 0,
    "type": "channel",
    "noteNumber": 65,
    "channel": 0,
    "deltaTime": 120
  },
  {
    "subtype": "noteOff",
    "velocity": 0,
    "type": "channel",
    "noteNumber": 65,
    "channel": 0,
    "deltaTime": 0
  },
  {
    "subtype": "noteOn",
    "velocity": 0,
    "type": "channel",
    "noteNumber": 75,
    "channel": 0,
    "deltaTime": 120
  },
  {
    "subtype": "noteOff",
    "velocity": 0,
    "type": "channel",
    "noteNumber": 75,
    "channel": 0,
    "deltaTime": 0
  },
  {
    "subtype": "noteOn",
    "velocity": 0,
    "type": "channel",
    "noteNumber": 67,
    "channel": 0,
    "deltaTime": 120
  },
  {
    "subtype": "noteOn",
    "velocity": 0,
    "type": "channel",
    "noteNumber": 76,
    "channel": 0,
    "deltaTime": 120
  },
  {
    "subtype": "noteOn",
    "velocity": 0,
    "type": "channel",
    "noteNumber": 73,
    "channel": 0,
    "deltaTime": 120
  },
  {
    "subtype": "noteOn",
    "velocity": 0,
    "type": "channel",
    "noteNumber": 73,
    "channel": 0,
    "deltaTime": 120
  },
  {
    "subtype": "noteOn",
    "velocity": 0,
    "type": "channel",
    "noteNumber": 73,
    "channel": 0,
    "deltaTime": 120
  },
  {
    "subtype": "noteOn",
    "velocity": 0,
    "type": "channel",
    "noteNumber": 75,
    "channel": 0,
    "deltaTime": 120
  },
  {
    "subtype": "noteOn",
    "velocity": 0,
    "type": "channel",
    "noteNumber": 75,
    "channel": 0,
    "deltaTime": 120
  },
  {
    "subtype": "noteOn",
    "velocity": 0,
    "type": "channel",
    "noteNumber": 73,
    "channel": 0,
    "deltaTime": 120
  },
  {
    "subtype": "noteOn",
    "velocity": 0,
    "type": "channel",
    "noteNumber": 73,
    "channel": 0,
    "deltaTime": 120
  },
  {
    "subtype": "noteOn",
    "velocity": 0,
    "type": "channel",
    "noteNumber": 71,
    "channel": 0,
    "deltaTime": 120
  },
  {
    "subtype": "noteOn",
    "velocity": 0,
    "type": "channel",
    "noteNumber": 71,
    "channel": 0,
    "deltaTime": 120
  },
  {
    "subtype": "noteOn",
    "velocity": 0,
    "type": "channel",
    "noteNumber": 70,
    "channel": 0,
    "deltaTime": 120
  },
  {
    "subtype": "noteOn",
    "velocity": 0,
    "type": "channel",
    "noteNumber": 70,
    "channel": 0,
    "deltaTime": 120
  },
  {
    "subtype": "noteOn",
    "velocity": 0,
    "type": "channel",
    "noteNumber": 71,
    "channel": 0,
    "deltaTime": 120
  },
  {
    "subtype": "noteOn",
    "velocity": 0,
    "type": "channel",
    "noteNumber": 71,
    "channel": 0,
    "deltaTime": 120
  },
  {
    "subtype": "noteOff",
    "velocity": 0,
    "type": "channel",
    "noteNumber": 71,
    "channel": 0,
    "deltaTime": 0
  },
  {
    "subtype": "noteOn",
    "velocity": 0,
    "type": "channel",
    "noteNumber": 73,
    "channel": 0,
    "deltaTime": 120
  },
  {
    "subtype": "noteOff",
    "velocity": 0,
    "type": "channel",
    "noteNumber": 73,
    "channel": 0,
    "deltaTime": 0
  },
  {
    "subtype": "noteOn",
    "velocity": 0,
    "type": "channel",
    "noteNumber": 70,
    "channel": 0,
    "deltaTime": 120
  },
  {
    "subtype": "noteOn",
    "velocity": 0,
    "type": "channel",
    "noteNumber": 68,
    "channel": 0,
    "deltaTime": 120
  },
  {
    "subtype": "noteOn",
    "velocity": 0,
    "type": "channel",
    "noteNumber": 68,
    "channel": 0,
    "deltaTime": 120
  },
  {
    "subtype": "noteOn",
    "velocity": 0,
    "type": "channel",
    "noteNumber": 71,
    "channel": 0,
    "deltaTime": 120
  },
  {
    "subtype": "noteOn",
    "velocity": 0,
    "type": "channel",
    "noteNumber": 71,
    "channel": 0,
    "deltaTime": 120
  },
  {
    "subtype": "noteOn",
    "velocity": 0,
    "type": "channel",
    "noteNumber": 75,
    "channel": 0,
    "deltaTime": 120
  },
  {
    "subtype": "noteOn",
    "velocity": 0,
    "type": "channel",
    "noteNumber": 75,
    "channel": 0,
    "deltaTime": 120
  },
  {
    "subtype": "noteOff",
    "velocity": 0,
    "type": "channel",
    "noteNumber": 75,
    "channel": 0,
    "deltaTime": 0
  },
  {
    "subtype": "noteOn",
    "velocity": 0,
    "type": "channel",
    "noteNumber": 76,
    "channel": 0,
    "deltaTime": 120
  },
  {
    "subtype": "noteOn",
    "velocity": 0,
    "type": "channel",
    "noteNumber": 80,
    "channel": 0,
    "deltaTime": 120
  },
  {
    "subtype": "noteOn",
    "velocity": 0,
    "type": "channel",
    "noteNumber": 80,
    "channel": 0,
    "deltaTime": 120
  },
  {
    "subtype": "noteOn",
    "velocity": 0,
    "type": "channel",
    "noteNumber": 78,
    "channel": 0,
    "deltaTime": 120
  },
  {
    "subtype": "noteOn",
    "velocity": 0,
    "type": "channel",
    "noteNumber": 78,
    "channel": 0,
    "deltaTime": 120
  },
  {
    "subtype": "noteOn",
    "velocity": 0,
    "type": "channel",
    "noteNumber": 78,
    "channel": 0,
    "deltaTime": 120
  },
  {
    "subtype": "noteOn",
    "velocity": 0,
    "type": "channel",
    "noteNumber": 78,
    "channel": 0,
    "deltaTime": 120
  },
  {
    "subtype": "noteOn",
    "velocity": 0,
    "type": "channel",
    "noteNumber": 76,
    "channel": 0,
    "deltaTime": 120
  },
  {
    "subtype": "noteOn",
    "velocity": 0,
    "type": "channel",
    "noteNumber": 76,
    "channel": 0,
    "deltaTime": 120
  },
  {
    "subtype": "noteOn",
    "velocity": 0,
    "type": "channel",
    "noteNumber": 75,
    "channel": 0,
    "deltaTime": 120
  },
  {
    "subtype": "noteOn",
    "velocity": 0,
    "type": "channel",
    "noteNumber": 75,
    "channel": 0,
    "deltaTime": 120
  },
  {
    "subtype": "noteOn",
    "velocity": 0,
    "type": "channel",
    "noteNumber": 73,
    "channel": 0,
    "deltaTime": 120
  },
  {
    "subtype": "noteOn",
    "velocity": 0,
    "type": "channel",
    "noteNumber": 73,
    "channel": 0,
    "deltaTime": 120
  },
  {
    "subtype": "noteOn",
    "velocity": 0,
    "type": "channel",
    "noteNumber": 71,
    "channel": 0,
    "deltaTime": 120
  },
  {
    "subtype": "noteOn",
    "velocity": 0,
    "type": "channel",
    "noteNumber": 71,
    "channel": 0,
    "deltaTime": 120
  },
  {
    "subtype": "noteOn",
    "velocity": 0,
    "type": "channel",
    "noteNumber": 73,
    "channel": 0,
    "deltaTime": 120
  },
  {
    "subtype": "noteOn",
    "velocity": 0,
    "type": "channel",
    "noteNumber": 73,
    "channel": 0,
    "deltaTime": 120
  },
  {
    "subtype": "noteOn",
    "velocity": 0,
    "type": "channel",
    "noteNumber": 70,
    "channel": 0,
    "deltaTime": 120
  },
  {
    "subtype": "noteOn",
    "velocity": 0,
    "type": "channel",
    "noteNumber": 70,
    "channel": 0,
    "deltaTime": 120
  },
  {
    "subtype": "noteOn",
    "velocity": 0,
    "type": "channel",
    "noteNumber": 71,
    "channel": 0,
    "deltaTime": 120
  },
  {
    "subtype": "noteOn",
    "velocity": 0,
    "type": "channel",
    "noteNumber": 71,
    "channel": 0,
    "deltaTime": 120
  },
  {
    "subtype": "noteOn",
    "velocity": 0,
    "type": "channel",
    "noteNumber": 78,
    "channel": 0,
    "deltaTime": 120
  },
  {
    "subtype": "noteOn",
    "velocity": 0,
    "type": "channel",
    "noteNumber": 78,
    "channel": 0,
    "deltaTime": 120
  },
  {
    "subtype": "noteOff",
    "velocity": 0,
    "type": "channel",
    "noteNumber": 78,
    "channel": 0,
    "deltaTime": 0
  },
  {
    "subtype": "noteOn",
    "velocity": 0,
    "type": "channel",
    "noteNumber": 75,
    "channel": 0,
    "deltaTime": 120
  },
  {
    "subtype": "noteOn",
    "velocity": 0,
    "type": "channel",
    "noteNumber": 73,
    "channel": 0,
    "deltaTime": 120
  },
  {
    "subtype": "noteOn",
    "velocity": 0,
    "type": "channel",
    "noteNumber": 73,
    "channel": 0,
    "deltaTime": 120
  },
  {
    "subtype": "noteOn",
    "velocity": 0,
    "type": "channel",
    "noteNumber": 71,
    "channel": 0,
    "deltaTime": 120
  },
  {
    "subtype": "noteOn",
    "velocity": 0,
    "type": "channel",
    "noteNumber": 71,
    "channel": 0,
    "deltaTime": 120
  },
  {
    "subtype": "noteOn",
    "velocity": 0,
    "type": "channel",
    "noteNumber": 71,
    "channel": 0,
    "deltaTime": 120
  },
  {
    "subtype": "noteOn",
    "velocity": 0,
    "type": "channel",
    "noteNumber": 71,
    "channel": 0,
    "deltaTime": 120
  },
  {
    "subtype": "noteOff",
    "velocity": 0,
    "type": "channel",
    "noteNumber": 71,
    "channel": 0,
    "deltaTime": 0
  },
  {
    "subtype": "noteOn",
    "velocity": 0,
    "type": "channel",
    "noteNumber": 76,
    "channel": 0,
    "deltaTime": 120
  },
  {
    "subtype": "noteOn",
    "velocity": 0,
    "type": "channel",
    "noteNumber": 73,
    "channel": 0,
    "deltaTime": 120
  },
  {
    "subtype": "noteOn",
    "velocity": 0,
    "type": "channel",
    "noteNumber": 73,
    "channel": 0,
    "deltaTime": 120
  },
  {
    "subtype": "noteOn",
    "velocity": 0,
    "type": "channel",
    "noteNumber": 71,
    "channel": 0,
    "deltaTime": 120
  },
  {
    "subtype": "noteOn",
    "velocity": 0,
    "type": "channel",
    "noteNumber": 71,
    "channel": 0,
    "deltaTime": 120
  },
  {
    "subtype": "noteOn",
    "velocity": 0,
    "type": "channel",
    "noteNumber": 73,
    "channel": 0,
    "deltaTime": 120
  },
  {
    "subtype": "noteOn",
    "velocity": 0,
    "type": "channel",
    "noteNumber": 73,
    "channel": 0,
    "deltaTime": 120
  },
  {
    "subtype": "noteOff",
    "velocity": 0,
    "type": "channel",
    "noteNumber": 73,
    "channel": 0,
    "deltaTime": 0
  },
  {
    "subtype": "noteOn",
    "velocity": 0,
    "type": "channel",
    "noteNumber": 75,
    "channel": 0,
    "deltaTime": 120
  },
  {
    "subtype": "noteOn",
    "velocity": 0,
    "type": "channel",
    "noteNumber": 71,
    "channel": 0,
    "deltaTime": 120
  },
  {
    "subtype": "noteOn",
    "velocity": 0,
    "type": "channel",
    "noteNumber": 73,
    "channel": 0,
    "deltaTime": 120
  },
  {
    "subtype": "noteOn",
    "velocity": 0,
    "type": "channel",
    "noteNumber": 70,
    "channel": 0,
    "deltaTime": 120
  },
  {
    "subtype": "noteOn",
    "velocity": 0,
    "type": "channel",
    "noteNumber": 70,
    "channel": 0,
    "deltaTime": 120
  },
  {
    "subtype": "noteOn",
    "velocity": 0,
    "type": "channel",
    "noteNumber": 71,
    "channel": 0,
    "deltaTime": 120
  },
  {
    "subtype": "noteOn",
    "velocity": 0,
    "type": "channel",
    "noteNumber": 71,
    "channel": 0,
    "deltaTime": 120
  },
  {
    "subtype": "noteOff",
    "velocity": 0,
    "type": "channel",
    "noteNumber": 71,
    "channel": 0,
    "deltaTime": 0
  },
  {
    "subtype": "noteOn",
    "velocity": 0,
    "type": "channel",
    "noteNumber": 75,
    "channel": 0,
    "deltaTime": 120
  },
  {
    "subtype": "noteOff",
    "velocity": 0,
    "type": "channel",
    "noteNumber": 75,
    "channel": 0,
    "deltaTime": 0
  },
  {
    "subtype": "noteOff",
    "velocity": 0,
    "type": "channel",
    "noteNumber": 75,
    "channel": 0,
    "deltaTime": 0
  },
  {
    "subtype": "noteOn",
    "velocity": 0,
    "type": "channel",
    "noteNumber": 68,
    "channel": 0,
    "deltaTime": 120
  },
  {
    "subtype": "noteOn",
    "velocity": 0,
    "type": "channel",
    "noteNumber": 68,
    "channel": 0,
    "deltaTime": 120
  },
  {
    "subtype": "noteOn",
    "velocity": 0,
    "type": "channel",
    "noteNumber": 71,
    "channel": 0,
    "deltaTime": 120
  },
  {
    "subtype": "noteOn",
    "velocity": 0,
    "type": "channel",
    "noteNumber": 71,
    "channel": 0,
    "deltaTime": 120
  },
  {
    "subtype": "noteOn",
    "velocity": 0,
    "type": "channel",
    "noteNumber": 75,
    "channel": 0,
    "deltaTime": 120
  },
  {
    "subtype": "noteOn",
    "velocity": 0,
    "type": "channel",
    "noteNumber": 75,
    "channel": 0,
    "deltaTime": 120
  },
  {
    "subtype": "noteOn",
    "velocity": 0,
    "type": "channel",
    "noteNumber": 76,
    "channel": 0,
    "deltaTime": 120
  },
  {
    "subtype": "noteOn",
    "velocity": 0,
    "type": "channel",
    "noteNumber": 76,
    "channel": 0,
    "deltaTime": 120
  },
  {
    "subtype": "noteOn",
    "velocity": 0,
    "type": "channel",
    "noteNumber": 80,
    "channel": 0,
    "deltaTime": 120
  },
  {
    "subtype": "noteOn",
    "velocity": 0,
    "type": "channel",
    "noteNumber": 80,
    "channel": 0,
    "deltaTime": 120
  },
  {
    "subtype": "noteOn",
    "velocity": 0,
    "type": "channel",
    "noteNumber": 71,
    "channel": 0,
    "deltaTime": 120
  },
  {
    "subtype": "noteOn",
    "velocity": 0,
    "type": "channel",
    "noteNumber": 71,
    "channel": 0,
    "deltaTime": 120
  },
  {
    "subtype": "noteOn",
    "velocity": 0,
    "type": "channel",
    "noteNumber": 65,
    "channel": 0,
    "deltaTime": 120
  },
  {
    "subtype": "noteOn",
    "velocity": 0,
    "type": "channel",
    "noteNumber": 65,
    "channel": 0,
    "deltaTime": 120
  },
  {
    "subtype": "noteOn",
    "velocity": 0,
    "type": "channel",
    "noteNumber": 73,
    "channel": 0,
    "deltaTime": 120
  },
  {
    "subtype": "noteOn",
    "velocity": 0,
    "type": "channel",
    "noteNumber": 73,
    "channel": 0,
    "deltaTime": 120
  },
  {
    "subtype": "noteOff",
    "velocity": 0,
    "type": "channel",
    "noteNumber": 73,
    "channel": 0,
    "deltaTime": 0
  },
  {
    "subtype": "noteOn",
    "velocity": 0,
    "type": "channel",
    "noteNumber": 80,
    "channel": 0,
    "deltaTime": 120
  },
  {
    "subtype": "noteOff",
    "velocity": 0,
    "type": "channel",
    "noteNumber": 80,
    "channel": 0,
    "deltaTime": 0
  },
  {
    "subtype": "noteOn",
    "velocity": 0,
    "type": "channel",
    "noteNumber": 77,
    "channel": 0,
    "deltaTime": 120
  },
  {
    "subtype": "noteOn",
    "velocity": 0,
    "type": "channel",
    "noteNumber": 79,
    "channel": 0,
    "deltaTime": 120
  },
  {
    "subtype": "noteOn",
    "velocity": 0,
    "type": "channel",
    "noteNumber": 79,
    "channel": 0,
    "deltaTime": 120
  },
  {
    "subtype": "noteOn",
    "velocity": 0,
    "type": "channel",
    "noteNumber": 80,
    "channel": 0,
    "deltaTime": 120
  },
  {
    "subtype": "noteOn",
    "velocity": 0,
    "type": "channel",
    "noteNumber": 80,
    "channel": 0,
    "deltaTime": 120
  },
  {
    "subtype": "noteOff",
    "velocity": 0,
    "type": "channel",
    "noteNumber": 80,
    "channel": 0,
    "deltaTime": 0
  },
  {
    "subtype": "noteOn",
    "velocity": 0,
    "type": "channel",
    "noteNumber": 77,
    "channel": 0,
    "deltaTime": 120
  },
  {
    "subtype": "noteOn",
    "velocity": 0,
    "type": "channel",
    "noteNumber": 71,
    "channel": 0,
    "deltaTime": 120
  },
  {
    "subtype": "noteOn",
    "velocity": 0,
    "type": "channel",
    "noteNumber": 71,
    "channel": 0,
    "deltaTime": 120
  },
  {
    "subtype": "noteOn",
    "velocity": 0,
    "type": "channel",
    "noteNumber": 70,
    "channel": 0,
    "deltaTime": 120
  },
  {
    "subtype": "noteOn",
    "velocity": 0,
    "type": "channel",
    "noteNumber": 70,
    "channel": 0,
    "deltaTime": 120
  },
  {
    "subtype": "noteOff",
    "velocity": 0,
    "type": "channel",
    "noteNumber": 70,
    "channel": 0,
    "deltaTime": 0
  },
  {
    "subtype": "noteOn",
    "velocity": 0,
    "type": "channel",
    "noteNumber": 80,
    "channel": 0,
    "deltaTime": 120
  },
  {
    "subtype": "noteOff",
    "velocity": 0,
    "type": "channel",
    "noteNumber": 80,
    "channel": 0,
    "deltaTime": 0
  },
  {
    "subtype": "noteOn",
    "velocity": 0,
    "type": "channel",
    "noteNumber": 78,
    "channel": 0,
    "deltaTime": 120
  },
  {
    "subtype": "noteOff",
    "velocity": 0,
    "type": "channel",
    "noteNumber": 78,
    "channel": 0,
    "deltaTime": 0
  },
  {
    "subtype": "noteOn",
    "velocity": 0,
    "type": "channel",
    "noteNumber": 76,
    "channel": 0,
    "deltaTime": 120
  },
  {
    "subtype": "noteOn",
    "velocity": 0,
    "type": "channel",
    "noteNumber": 75,
    "channel": 0,
    "deltaTime": 120
  },
  {
    "subtype": "noteOn",
    "velocity": 0,
    "type": "channel",
    "noteNumber": 75,
    "channel": 0,
    "deltaTime": 120
  },
  {
    "subtype": "noteOn",
    "velocity": 0,
    "type": "channel",
    "noteNumber": 76,
    "channel": 0,
    "deltaTime": 120
  },
  {
    "subtype": "noteOn",
    "velocity": 0,
    "type": "channel",
    "noteNumber": 76,
    "channel": 0,
    "deltaTime": 120
  },
  {
    "subtype": "noteOff",
    "velocity": 0,
    "type": "channel",
    "noteNumber": 76,
    "channel": 0,
    "deltaTime": 0
  },
  {
    "subtype": "noteOn",
    "velocity": 0,
    "type": "channel",
    "noteNumber": 73,
    "channel": 0,
    "deltaTime": 120
  },
  {
    "subtype": "noteOff",
    "velocity": 0,
    "type": "channel",
    "noteNumber": 73,
    "channel": 0,
    "deltaTime": 0
  },
  {
    "subtype": "noteOn",
    "velocity": 0,
    "type": "channel",
    "noteNumber": 85,
    "channel": 0,
    "deltaTime": 120
  },
  {
    "subtype": "noteOn",
    "velocity": 0,
    "type": "channel",
    "noteNumber": 83,
    "channel": 0,
    "deltaTime": 120
  },
  {
    "subtype": "noteOn",
    "velocity": 0,
    "type": "channel",
    "noteNumber": 82,
    "channel": 0,
    "deltaTime": 120
  },
  {
    "subtype": "noteOff",
    "velocity": 0,
    "type": "channel",
    "noteNumber": 82,
    "channel": 0,
    "deltaTime": 0
  },
  {
    "subtype": "noteOn",
    "velocity": 0,
    "type": "channel",
    "noteNumber": 85,
    "channel": 0,
    "deltaTime": 120
  },
  {
    "subtype": "noteOn",
    "velocity": 0,
    "type": "channel",
    "noteNumber": 85,
    "channel": 0,
    "deltaTime": 120
  },
  {
    "subtype": "noteOn",
    "velocity": 0,
    "type": "channel",
    "noteNumber": 85,
    "channel": 0,
    "deltaTime": 120
  },
  {
    "subtype": "noteOn",
    "velocity": 0,
    "type": "channel",
    "noteNumber": 85,
    "channel": 0,
    "deltaTime": 120
  },
  {
    "subtype": "noteOn",
    "velocity": 0,
    "type": "channel",
    "noteNumber": 85,
    "channel": 0,
    "deltaTime": 120
  },
  {
    "subtype": "noteOn",
    "velocity": 0,
    "type": "channel",
    "noteNumber": 85,
    "channel": 0,
    "deltaTime": 120
  },
  {
    "subtype": "noteOn",
    "velocity": 0,
    "type": "channel",
    "noteNumber": 85,
    "channel": 0,
    "deltaTime": 120
  },
  {
    "subtype": "noteOn",
    "velocity": 0,
    "type": "channel",
    "noteNumber": 85,
    "channel": 0,
    "deltaTime": 120
  },
  {
    "subtype": "noteOn",
    "velocity": 0,
    "type": "channel",
    "noteNumber": 85,
    "channel": 0,
    "deltaTime": 120
  },
  {
    "subtype": "noteOn",
    "velocity": 0,
    "type": "channel",
    "noteNumber": 85,
    "channel": 0,
    "deltaTime": 120
  },
  {
    "subtype": "noteOn",
    "velocity": 0,
    "type": "channel",
    "noteNumber": 85,
    "channel": 0,
    "deltaTime": 120
  },
  {
    "subtype": "noteOn",
    "velocity": 0,
    "type": "channel",
    "noteNumber": 85,
    "channel": 0,
    "deltaTime": 120
  },
  {
    "subtype": "noteOn",
    "velocity": 0,
    "type": "channel",
    "noteNumber": 83,
    "channel": 0,
    "deltaTime": 120
  },
  {
    "subtype": "noteOn",
    "velocity": 0,
    "type": "channel",
    "noteNumber": 83,
    "channel": 0,
    "deltaTime": 120
  },
  {
    "subtype": "noteOn",
    "velocity": 0,
    "type": "channel",
    "noteNumber": 83,
    "channel": 0,
    "deltaTime": 120
  },
  {
    "subtype": "noteOn",
    "velocity": 0,
    "type": "channel",
    "noteNumber": 85,
    "channel": 0,
    "deltaTime": 120
  },
  {
    "subtype": "noteOn",
    "velocity": 0,
    "type": "channel",
    "noteNumber": 82,
    "channel": 0,
    "deltaTime": 120
  },
  {
    "subtype": "noteOn",
    "velocity": 0,
    "type": "channel",
    "noteNumber": 82,
    "channel": 0,
    "deltaTime": 120
  },
  {
    "subtype": "noteOff",
    "velocity": 0,
    "type": "channel",
    "noteNumber": 82,
    "channel": 0,
    "deltaTime": 0
  },
  {
    "subtype": "noteOn",
    "velocity": 0,
    "type": "channel",
    "noteNumber": 85,
    "channel": 0,
    "deltaTime": 120
  },
  {
    "subtype": "noteOn",
    "velocity": 0,
    "type": "channel",
    "noteNumber": 85,
    "channel": 0,
    "deltaTime": 120
  },
  {
    "subtype": "noteOn",
    "velocity": 0,
    "type": "channel",
    "noteNumber": 85,
    "channel": 0,
    "deltaTime": 120
  },
  {
    "subtype": "noteOn",
    "velocity": 0,
    "type": "channel",
    "noteNumber": 85,
    "channel": 0,
    "deltaTime": 120
  },
  {
    "subtype": "noteOn",
    "velocity": 0,
    "type": "channel",
    "noteNumber": 85,
    "channel": 0,
    "deltaTime": 120
  },
  {
    "subtype": "noteOn",
    "velocity": 0,
    "type": "channel",
    "noteNumber": 85,
    "channel": 0,
    "deltaTime": 120
  },
  {
    "subtype": "noteOn",
    "velocity": 0,
    "type": "channel",
    "noteNumber": 85,
    "channel": 0,
    "deltaTime": 120
  },
  {
    "subtype": "noteOn",
    "velocity": 0,
    "type": "channel",
    "noteNumber": 85,
    "channel": 0,
    "deltaTime": 120
  },
  {
    "subtype": "noteOn",
    "velocity": 0,
    "type": "channel",
    "noteNumber": 85,
    "channel": 0,
    "deltaTime": 120
  },
  {
    "subtype": "noteOn",
    "velocity": 0,
    "type": "channel",
    "noteNumber": 85,
    "channel": 0,
    "deltaTime": 120
  },
  {
    "subtype": "noteOn",
    "velocity": 0,
    "type": "channel",
    "noteNumber": 85,
    "channel": 0,
    "deltaTime": 120
  },
  {
    "subtype": "noteOn",
    "velocity": 0,
    "type": "channel",
    "noteNumber": 85,
    "channel": 0,
    "deltaTime": 120
  },
  {
    "subtype": "noteOn",
    "velocity": 0,
    "type": "channel",
    "noteNumber": 85,
    "channel": 0,
    "deltaTime": 120
  },
  {
    "subtype": "noteOn",
    "velocity": 0,
    "type": "channel",
    "noteNumber": 85,
    "channel": 0,
    "deltaTime": 120
  },
  {
    "subtype": "noteOn",
    "velocity": 0,
    "type": "channel",
    "noteNumber": 83,
    "channel": 0,
    "deltaTime": 120
  },
  {
    "subtype": "noteOn",
    "velocity": 0,
    "type": "channel",
    "noteNumber": 83,
    "channel": 0,
    "deltaTime": 120
  },
  {
    "subtype": "noteOn",
    "velocity": 0,
    "type": "channel",
    "noteNumber": 87,
    "channel": 0,
    "deltaTime": 120
  },
  {
    "subtype": "noteOn",
    "velocity": 0,
    "type": "channel",
    "noteNumber": 85,
    "channel": 0,
    "deltaTime": 120
  },
  {
    "subtype": "noteOn",
    "velocity": 0,
    "type": "channel",
    "noteNumber": 80,
    "channel": 0,
    "deltaTime": 120
  },
  {
    "subtype": "noteOn",
    "velocity": 0,
    "type": "channel",
    "noteNumber": 80,
    "channel": 0,
    "deltaTime": 120
  },
  {
    "subtype": "noteOn",
    "velocity": 0,
    "type": "channel",
    "noteNumber": 78,
    "channel": 0,
    "deltaTime": 120
  },
  {
    "subtype": "noteOn",
    "velocity": 0,
    "type": "channel",
    "noteNumber": 78,
    "channel": 0,
    "deltaTime": 120
  },
  {
    "subtype": "noteOn",
    "velocity": 0,
    "type": "channel",
    "noteNumber": 76,
    "channel": 0,
    "deltaTime": 120
  },
  {
    "subtype": "noteOn",
    "velocity": 0,
    "type": "channel",
    "noteNumber": 76,
    "channel": 0,
    "deltaTime": 120
  },
  {
    "subtype": "noteOn",
    "velocity": 0,
    "type": "channel",
    "noteNumber": 75,
    "channel": 0,
    "deltaTime": 120
  },
  {
    "subtype": "noteOn",
    "velocity": 0,
    "type": "channel",
    "noteNumber": 75,
    "channel": 0,
    "deltaTime": 120
  },
  {
    "subtype": "noteOn",
    "velocity": 0,
    "type": "channel",
    "noteNumber": 76,
    "channel": 0,
    "deltaTime": 120
  },
  {
    "subtype": "noteOn",
    "velocity": 0,
    "type": "channel",
    "noteNumber": 76,
    "channel": 0,
    "deltaTime": 120
  },
  {
    "subtype": "noteOff",
    "velocity": 0,
    "type": "channel",
    "noteNumber": 76,
    "channel": 0,
    "deltaTime": 0
  },
  {
    "subtype": "noteOn",
    "velocity": 0,
    "type": "channel",
    "noteNumber": 73,
    "channel": 0,
    "deltaTime": 120
  },
  {
    "subtype": "noteOn",
    "velocity": 0,
    "type": "channel",
    "noteNumber": 79,
    "channel": 0,
    "deltaTime": 120
  },
  {
    "subtype": "noteOn",
    "velocity": 0,
    "type": "channel",
    "noteNumber": 79,
    "channel": 0,
    "deltaTime": 120
  },
  {
    "subtype": "noteOff",
    "velocity": 0,
    "type": "channel",
    "noteNumber": 79,
    "channel": 0,
    "deltaTime": 0
  },
  {
    "subtype": "noteOn",
    "velocity": 0,
    "type": "channel",
    "noteNumber": 71,
    "channel": 0,
    "deltaTime": 120
  },
  {
    "subtype": "noteOff",
    "velocity": 0,
    "type": "channel",
    "noteNumber": 71,
    "channel": 0,
    "deltaTime": 0
  },
  {
    "subtype": "noteOn",
    "velocity": 0,
    "type": "channel",
    "noteNumber": 73,
    "channel": 0,
    "deltaTime": 120
  },
  {
    "subtype": "noteOn",
    "velocity": 0,
    "type": "channel",
    "noteNumber": 76,
    "channel": 0,
    "deltaTime": 120
  },
  {
    "subtype": "noteOn",
    "velocity": 0,
    "type": "channel",
    "noteNumber": 84,
    "channel": 0,
    "deltaTime": 120
  },
  {
    "subtype": "noteOn",
    "velocity": 0,
    "type": "channel",
    "noteNumber": 83,
    "channel": 0,
    "deltaTime": 120
  },
  {
    "subtype": "noteOn",
    "velocity": 0,
    "type": "channel",
    "noteNumber": 83,
    "channel": 0,
    "deltaTime": 120
  },
  {
    "subtype": "noteOn",
    "velocity": 0,
    "type": "channel",
    "noteNumber": 82,
    "channel": 0,
    "deltaTime": 120
  },
  {
    "subtype": "noteOn",
    "velocity": 0,
    "type": "channel",
    "noteNumber": 82,
    "channel": 0,
    "deltaTime": 120
  },
  {
    "subtype": "noteOn",
    "velocity": 0,
    "type": "channel",
    "noteNumber": 80,
    "channel": 0,
    "deltaTime": 120
  },
  {
    "subtype": "noteOn",
    "velocity": 0,
    "type": "channel",
    "noteNumber": 80,
    "channel": 0,
    "deltaTime": 120
  },
  {
    "subtype": "noteOff",
    "velocity": 0,
    "type": "channel",
    "noteNumber": 80,
    "channel": 0,
    "deltaTime": 0
  },
  {
    "subtype": "noteOn",
    "velocity": 0,
    "type": "channel",
    "noteNumber": 78,
    "channel": 0,
    "deltaTime": 120
  },
  {
    "subtype": "noteOff",
    "velocity": 0,
    "type": "channel",
    "noteNumber": 78,
    "channel": 0,
    "deltaTime": 0
  },
  {
    "subtype": "noteOn",
    "velocity": 0,
    "type": "channel",
    "noteNumber": 76,
    "channel": 0,
    "deltaTime": 120
  },
  {
    "subtype": "noteOn",
    "velocity": 0,
    "type": "channel",
    "noteNumber": 87,
    "channel": 0,
    "deltaTime": 120
  },
  {
    "subtype": "noteOn",
    "velocity": 0,
    "type": "channel",
    "noteNumber": 87,
    "channel": 0,
    "deltaTime": 120
  },
  {
    "subtype": "noteOn",
    "velocity": 0,
    "type": "channel",
    "noteNumber": 85,
    "channel": 0,
    "deltaTime": 120
  },
  {
    "subtype": "noteOn",
    "velocity": 0,
    "type": "channel",
    "noteNumber": 83,
    "channel": 0,
    "deltaTime": 120
  },
  {
    "subtype": "noteOn",
    "velocity": 0,
    "type": "channel",
    "noteNumber": 83,
    "channel": 0,
    "deltaTime": 120
  },
  {
    "subtype": "noteOn",
    "velocity": 0,
    "type": "channel",
    "noteNumber": 87,
    "channel": 0,
    "deltaTime": 120
  },
  {
    "subtype": "noteOn",
    "velocity": 0,
    "type": "channel",
    "noteNumber": 87,
    "channel": 0,
    "deltaTime": 120
  },
  {
    "subtype": "noteOn",
    "velocity": 0,
    "type": "channel",
    "noteNumber": 85,
    "channel": 0,
    "deltaTime": 120
  },
  {
    "subtype": "noteOn",
    "velocity": 0,
    "type": "channel",
    "noteNumber": 85,
    "channel": 0,
    "deltaTime": 120
  },
  {
    "subtype": "noteOn",
    "velocity": 0,
    "type": "channel",
    "noteNumber": 85,
    "channel": 0,
    "deltaTime": 120
  },
  {
    "subtype": "noteOn",
    "velocity": 0,
    "type": "channel",
    "noteNumber": 83,
    "channel": 0,
    "deltaTime": 120
  },
  {
    "subtype": "noteOn",
    "velocity": 0,
    "type": "channel",
    "noteNumber": 83,
    "channel": 0,
    "deltaTime": 120
  },
  {
    "subtype": "noteOn",
    "velocity": 0,
    "type": "channel",
    "noteNumber": 83,
    "channel": 0,
    "deltaTime": 120
  },
  {
    "subtype": "noteOn",
    "velocity": 0,
    "type": "channel",
    "noteNumber": 85,
    "channel": 0,
    "deltaTime": 120
  },
  {
    "subtype": "noteOn",
    "velocity": 0,
    "type": "channel",
    "noteNumber": 85,
    "channel": 0,
    "deltaTime": 120
  },
  {
    "subtype": "noteOn",
    "velocity": 0,
    "type": "channel",
    "noteNumber": 83,
    "channel": 0,
    "deltaTime": 120
  },
  {
    "subtype": "noteOn",
    "velocity": 0,
    "type": "channel",
    "noteNumber": 83,
    "channel": 0,
    "deltaTime": 120
  },
  {
    "subtype": "noteOn",
    "velocity": 0,
    "type": "channel",
    "noteNumber": 82,
    "channel": 0,
    "deltaTime": 120
  },
  {
    "subtype": "noteOn",
    "velocity": 0,
    "type": "channel",
    "noteNumber": 82,
    "channel": 0,
    "deltaTime": 120
  },
  {
    "subtype": "noteOn",
    "velocity": 0,
    "type": "channel",
    "noteNumber": 80,
    "channel": 0,
    "deltaTime": 120
  },
  {
    "subtype": "noteOn",
    "velocity": 0,
    "type": "channel",
    "noteNumber": 75,
    "channel": 0,
    "deltaTime": 120
  },
  {
    "subtype": "noteOn",
    "velocity": 0,
    "type": "channel",
    "noteNumber": 79,
    "channel": 0,
    "deltaTime": 120
  },
  {
    "subtype": "noteOn",
    "velocity": 0,
    "type": "channel",
    "noteNumber": 79,
    "channel": 0,
    "deltaTime": 120
  },
  {
    "subtype": "noteOn",
    "velocity": 0,
    "type": "channel",
    "noteNumber": 80,
    "channel": 0,
    "deltaTime": 120
  },
  {
    "subtype": "noteOn",
    "velocity": 0,
    "type": "channel",
    "noteNumber": 75,
    "channel": 0,
    "deltaTime": 120
  },
  {
    "subtype": "noteOff",
    "velocity": 0,
    "type": "channel",
    "noteNumber": 75,
    "channel": 0,
    "deltaTime": 0
  },
  {
    "subtype": "noteOn",
    "velocity": 0,
    "type": "channel",
    "noteNumber": 76,
    "channel": 0,
    "deltaTime": 120
  },
  {
    "subtype": "noteOn",
    "velocity": 0,
    "type": "channel",
    "noteNumber": 76,
    "channel": 0,
    "deltaTime": 120
  },
  {
    "subtype": "noteOn",
    "velocity": 0,
    "type": "channel",
    "noteNumber": 85,
    "channel": 0,
    "deltaTime": 120
  },
  {
    "subtype": "noteOn",
    "velocity": 0,
    "type": "channel",
    "noteNumber": 87,
    "channel": 0,
    "deltaTime": 120
  },
  {
    "subtype": "noteOn",
    "velocity": 0,
    "type": "channel",
    "noteNumber": 87,
    "channel": 0,
    "deltaTime": 120
  },
  {
    "subtype": "noteOff",
    "velocity": 0,
    "type": "channel",
    "noteNumber": 87,
    "channel": 0,
    "deltaTime": 0
  },
  {
    "subtype": "noteOn",
    "velocity": 0,
    "type": "channel",
    "noteNumber": 85,
    "channel": 0,
    "deltaTime": 120
  },
  {
    "subtype": "noteOn",
    "velocity": 0,
    "type": "channel",
    "noteNumber": 83,
    "channel": 0,
    "deltaTime": 120
  },
  {
    "subtype": "noteOn",
    "velocity": 0,
    "type": "channel",
    "noteNumber": 83,
    "channel": 0,
    "deltaTime": 120
  },
  {
    "subtype": "noteOn",
    "velocity": 0,
    "type": "channel",
    "noteNumber": 82,
    "channel": 0,
    "deltaTime": 120
  },
  {
    "subtype": "noteOn",
    "velocity": 0,
    "type": "channel",
    "noteNumber": 82,
    "channel": 0,
    "deltaTime": 120
  },
  {
    "subtype": "noteOn",
    "velocity": 0,
    "type": "channel",
    "noteNumber": 80,
    "channel": 0,
    "deltaTime": 120
  },
  {
    "subtype": "noteOn",
    "velocity": 0,
    "type": "channel",
    "noteNumber": 80,
    "channel": 0,
    "deltaTime": 120
  },
  {
    "subtype": "noteOff",
    "velocity": 0,
    "type": "channel",
    "noteNumber": 80,
    "channel": 0,
    "deltaTime": 0
  },
  {
    "subtype": "noteOn",
    "velocity": 0,
    "type": "channel",
    "noteNumber": 78,
    "channel": 0,
    "deltaTime": 120
  },
  {
    "subtype": "noteOn",
    "velocity": 0,
    "type": "channel",
    "noteNumber": 76,
    "channel": 0,
    "deltaTime": 120
  },
  {
    "subtype": "noteOn",
    "velocity": 0,
    "type": "channel",
    "noteNumber": 76,
    "channel": 0,
    "deltaTime": 120
  },
  {
    "subtype": "noteOn",
    "velocity": 0,
    "type": "channel",
    "noteNumber": 75,
    "channel": 0,
    "deltaTime": 120
  },
  {
    "subtype": "noteOn",
    "velocity": 0,
    "type": "channel",
    "noteNumber": 75,
    "channel": 0,
    "deltaTime": 120
  },
  {
    "subtype": "noteOn",
    "velocity": 0,
    "type": "channel",
    "noteNumber": 76,
    "channel": 0,
    "deltaTime": 120
  },
  {
    "subtype": "noteOn",
    "velocity": 0,
    "type": "channel",
    "noteNumber": 76,
    "channel": 0,
    "deltaTime": 120
  },
  {
    "subtype": "noteOff",
    "velocity": 0,
    "type": "channel",
    "noteNumber": 76,
    "channel": 0,
    "deltaTime": 0
  },
  {
    "subtype": "noteOn",
    "velocity": 0,
    "type": "channel",
    "noteNumber": 75,
    "channel": 0,
    "deltaTime": 120
  },
  {
    "subtype": "noteOff",
    "velocity": 0,
    "type": "channel",
    "noteNumber": 75,
    "channel": 0,
    "deltaTime": 0
  },
  {
    "subtype": "noteOn",
    "velocity": 0,
    "type": "channel",
    "noteNumber": 73,
    "channel": 0,
    "deltaTime": 120
  },
  {
    "subtype": "noteOn",
    "velocity": 0,
    "type": "channel",
    "noteNumber": 75,
    "channel": 0,
    "deltaTime": 120
  },
  {
    "subtype": "noteOn",
    "velocity": 0,
    "type": "channel",
    "noteNumber": 75,
    "channel": 0,
    "deltaTime": 120
  },
  {
    "subtype": "noteOn",
    "velocity": 0,
    "type": "channel",
    "noteNumber": 73,
    "channel": 0,
    "deltaTime": 120
  },
  {
    "subtype": "noteOn",
    "velocity": 0,
    "type": "channel",
    "noteNumber": 73,
    "channel": 0,
    "deltaTime": 120
  },
  {
    "subtype": "noteOn",
    "velocity": 0,
    "type": "channel",
    "noteNumber": 71,
    "channel": 0,
    "deltaTime": 120
  },
  {
    "subtype": "noteOn",
    "velocity": 0,
    "type": "channel",
    "noteNumber": 71,
    "channel": 0,
    "deltaTime": 120
  },
  {
    "subtype": "noteOn",
    "velocity": 0,
    "type": "channel",
    "noteNumber": 70,
    "channel": 0,
    "deltaTime": 120
  },
  {
    "subtype": "noteOn",
    "velocity": 0,
    "type": "channel",
    "noteNumber": 70,
    "channel": 0,
    "deltaTime": 120
  },
  {
    "subtype": "noteOn",
    "velocity": 0,
    "type": "channel",
    "noteNumber": 68,
    "channel": 0,
    "deltaTime": 120
  },
  {
    "subtype": "noteOn",
    "velocity": 0,
    "type": "channel",
    "noteNumber": 68,
    "channel": 0,
    "deltaTime": 120
  },
  {
    "subtype": "noteOff",
    "velocity": 0,
    "type": "channel",
    "noteNumber": 68,
    "channel": 0,
    "deltaTime": 0
  },
  {
    "subtype": "noteOn",
    "velocity": 0,
    "type": "channel",
    "noteNumber": 68,
    "channel": 0,
    "deltaTime": 120
  },
  {
    "subtype": "noteOff",
    "velocity": 0,
    "type": "channel",
    "noteNumber": 68,
    "channel": 0,
    "deltaTime": 0
  },
  {
    "subtype": "noteOn",
    "velocity": 0,
    "type": "channel",
    "noteNumber": 65,
    "channel": 0,
    "deltaTime": 120
  },
  {
    "subtype": "noteOn",
    "velocity": 0,
    "type": "channel",
    "noteNumber": 68,
    "channel": 0,
    "deltaTime": 120
  },
  {
    "subtype": "noteOn",
    "velocity": 0,
    "type": "channel",
    "noteNumber": 68,
    "channel": 0,
    "deltaTime": 120
  },
  {
    "subtype": "noteOn",
    "velocity": 0,
    "type": "channel",
    "noteNumber": 83,
    "channel": 0,
    "deltaTime": 120
  },
  {
    "subtype": "noteOn",
    "velocity": 0,
    "type": "channel",
    "noteNumber": 83,
    "channel": 0,
    "deltaTime": 120
  },
  {
    "subtype": "noteOn",
    "velocity": 0,
    "type": "channel",
    "noteNumber": 66,
    "channel": 0,
    "deltaTime": 120
  },
  {
    "subtype": "noteOn",
    "velocity": 0,
    "type": "channel",
    "noteNumber": 66,
    "channel": 0,
    "deltaTime": 120
  },
  {
    "subtype": "noteOn",
    "velocity": 0,
    "type": "channel",
    "noteNumber": 82,
    "channel": 0,
    "deltaTime": 120
  },
  {
    "subtype": "noteOn",
    "velocity": 0,
    "type": "channel",
    "noteNumber": 82,
    "channel": 0,
    "deltaTime": 120
  },
  {
    "subtype": "noteOn",
    "velocity": 0,
    "type": "channel",
    "noteNumber": 64,
    "channel": 0,
    "deltaTime": 120
  },
  {
    "subtype": "noteOn",
    "velocity": 0,
    "type": "channel",
    "noteNumber": 64,
    "channel": 0,
    "deltaTime": 120
  },
  {
    "subtype": "noteOn",
    "velocity": 0,
    "type": "channel",
    "noteNumber": 63,
    "channel": 0,
    "deltaTime": 120
  },
  {
    "subtype": "noteOn",
    "velocity": 0,
    "type": "channel",
    "noteNumber": 63,
    "channel": 0,
    "deltaTime": 120
  },
  {
    "subtype": "noteOff",
    "velocity": 0,
    "type": "channel",
    "noteNumber": 63,
    "channel": 0,
    "deltaTime": 0
  },
  {
    "subtype": "noteOn",
    "velocity": 0,
    "type": "channel",
    "noteNumber": 61,
    "channel": 0,
    "deltaTime": 120
  },
  {
    "subtype": "noteOn",
    "velocity": 0,
    "type": "channel",
    "noteNumber": 66,
    "channel": 0,
    "deltaTime": 120
  },
  {
    "subtype": "noteOn",
    "velocity": 0,
    "type": "channel",
    "noteNumber": 66,
    "channel": 0,
    "deltaTime": 120
  },
  {
    "subtype": "noteOff",
    "velocity": 0,
    "type": "channel",
    "noteNumber": 66,
    "channel": 0,
    "deltaTime": 0
  },
  {
    "subtype": "noteOn",
    "velocity": 0,
    "type": "channel",
    "noteNumber": 63,
    "channel": 0,
    "deltaTime": 120
  },
  {
    "subtype": "noteOn",
    "velocity": 0,
    "type": "channel",
    "noteNumber": 63,
    "channel": 0,
    "deltaTime": 120
  },
  {
    "subtype": "noteOn",
    "velocity": 0,
    "type": "channel",
    "noteNumber": 63,
    "channel": 0,
    "deltaTime": 120
  },
  {
    "subtype": "noteOn",
    "velocity": 0,
    "type": "channel",
    "noteNumber": 64,
    "channel": 0,
    "deltaTime": 120
  },
  {
    "subtype": "noteOn",
    "velocity": 0,
    "type": "channel",
    "noteNumber": 64,
    "channel": 0,
    "deltaTime": 120
  },
  {
    "subtype": "noteOff",
    "velocity": 0,
    "type": "channel",
    "noteNumber": 64,
    "channel": 0,
    "deltaTime": 0
  },
  {
    "subtype": "noteOn",
    "velocity": 0,
    "type": "channel",
    "noteNumber": 71,
    "channel": 0,
    "deltaTime": 120
  },
  {
    "subtype": "noteOn",
    "velocity": 0,
    "type": "channel",
    "noteNumber": 71,
    "channel": 0,
    "deltaTime": 120
  },
  {
    "subtype": "noteOn",
    "velocity": 0,
    "type": "channel",
    "noteNumber": 71,
    "channel": 0,
    "deltaTime": 120
  },
  {
    "subtype": "noteOn",
    "velocity": 0,
    "type": "channel",
    "noteNumber": 70,
    "channel": 0,
    "deltaTime": 120
  },
  {
    "subtype": "noteOn",
    "velocity": 0,
    "type": "channel",
    "noteNumber": 70,
    "channel": 0,
    "deltaTime": 120
  },
  {
    "subtype": "noteOn",
    "velocity": 0,
    "type": "channel",
    "noteNumber": 71,
    "channel": 0,
    "deltaTime": 120
  },
  {
    "subtype": "noteOn",
    "velocity": 0,
    "type": "channel",
    "noteNumber": 71,
    "channel": 0,
    "deltaTime": 120
  },
  {
    "subtype": "noteOn",
    "velocity": 0,
    "type": "channel",
    "noteNumber": 68,
    "channel": 0,
    "deltaTime": 120
  },
  {
    "subtype": "noteOn",
    "velocity": 0,
    "type": "channel",
    "noteNumber": 68,
    "channel": 0,
    "deltaTime": 120
  },
  {
    "subtype": "noteOn",
    "velocity": 0,
    "type": "channel",
    "noteNumber": 70,
    "channel": 0,
    "deltaTime": 120
  },
  {
    "subtype": "noteOn",
    "velocity": 0,
    "type": "channel",
    "noteNumber": 70,
    "channel": 0,
    "deltaTime": 120
  },
  {
    "subtype": "noteOff",
    "velocity": 0,
    "type": "channel",
    "noteNumber": 70,
    "channel": 0,
    "deltaTime": 0
  },
  {
    "subtype": "noteOn",
    "velocity": 0,
    "type": "channel",
    "noteNumber": 68,
    "channel": 0,
    "deltaTime": 120
  },
  {
    "subtype": "noteOff",
    "velocity": 0,
    "type": "channel",
    "noteNumber": 68,
    "channel": 0,
    "deltaTime": 0
  },
  {
    "subtype": "noteOn",
    "velocity": 0,
    "type": "channel",
    "noteNumber": 66,
    "channel": 0,
    "deltaTime": 120
  },
  {
    "subtype": "noteOn",
    "velocity": 0,
    "type": "channel",
    "noteNumber": 68,
    "channel": 0,
    "deltaTime": 120
  },
  {
    "subtype": "noteOn",
    "velocity": 0,
    "type": "channel",
    "noteNumber": 68,
    "channel": 0,
    "deltaTime": 120
  },
  {
    "subtype": "noteOn",
    "velocity": 0,
    "type": "channel",
    "noteNumber": 70,
    "channel": 0,
    "deltaTime": 120
  },
  {
    "subtype": "noteOn",
    "velocity": 0,
    "type": "channel",
    "noteNumber": 70,
    "channel": 0,
    "deltaTime": 120
  },
  {
    "subtype": "noteOn",
    "velocity": 0,
    "type": "channel",
    "noteNumber": 71,
    "channel": 0,
    "deltaTime": 120
  },
  {
    "subtype": "noteOn",
    "velocity": 0,
    "type": "channel",
    "noteNumber": 71,
    "channel": 0,
    "deltaTime": 120
  },
  {
    "subtype": "noteOn",
    "velocity": 0,
    "type": "channel",
    "noteNumber": 73,
    "channel": 0,
    "deltaTime": 120
  },
  {
    "subtype": "noteOn",
    "velocity": 0,
    "type": "channel",
    "noteNumber": 73,
    "channel": 0,
    "deltaTime": 120
  },
  {
    "subtype": "noteOn",
    "velocity": 0,
    "type": "channel",
    "noteNumber": 75,
    "channel": 0,
    "deltaTime": 120
  },
  {
    "subtype": "noteOn",
    "velocity": 0,
    "type": "channel",
    "noteNumber": 75,
    "channel": 0,
    "deltaTime": 120
  },
  {
    "subtype": "noteOn",
    "velocity": 0,
    "type": "channel",
    "noteNumber": 77,
    "channel": 0,
    "deltaTime": 120
  },
  {
    "subtype": "noteOn",
    "velocity": 0,
    "type": "channel",
    "noteNumber": 77,
    "channel": 0,
    "deltaTime": 120
  },
  {
    "subtype": "noteOn",
    "velocity": 0,
    "type": "channel",
    "noteNumber": 79,
    "channel": 0,
    "deltaTime": 120
  },
  {
    "subtype": "noteOn",
    "velocity": 0,
    "type": "channel",
    "noteNumber": 79,
    "channel": 0,
    "deltaTime": 120
  },
  {
    "subtype": "noteOn",
    "velocity": 0,
    "type": "channel",
    "noteNumber": 80,
    "channel": 0,
    "deltaTime": 120
  },
  {
    "subtype": "noteOn",
    "velocity": 0,
    "type": "channel",
    "noteNumber": 80,
    "channel": 0,
    "deltaTime": 120
  },
  {
    "subtype": "noteOn",
    "velocity": 0,
    "type": "channel",
    "noteNumber": 77,
    "channel": 0,
    "deltaTime": 120
  },
  {
    "subtype": "noteOn",
    "velocity": 0,
    "type": "channel",
    "noteNumber": 77,
    "channel": 0,
    "deltaTime": 120
  },
  {
    "subtype": "noteOn",
    "velocity": 0,
    "type": "channel",
    "noteNumber": 79,
    "channel": 0,
    "deltaTime": 120
  },
  {
    "subtype": "noteOn",
    "velocity": 0,
    "type": "channel",
    "noteNumber": 82,
    "channel": 0,
    "deltaTime": 120
  },
  {
    "subtype": "noteOn",
    "velocity": 0,
    "type": "channel",
    "noteNumber": 77,
    "channel": 0,
    "deltaTime": 120
  },
  {
    "subtype": "noteOn",
    "velocity": 0,
    "type": "channel",
    "noteNumber": 77,
    "channel": 0,
    "deltaTime": 120
  },
  {
    "subtype": "noteOn",
    "velocity": 0,
    "type": "channel",
    "noteNumber": 78,
    "channel": 0,
    "deltaTime": 120
  },
  {
    "subtype": "noteOn",
    "velocity": 0,
    "type": "channel",
    "noteNumber": 78,
    "channel": 0,
    "deltaTime": 120
  },
  {
    "subtype": "noteOff",
    "velocity": 0,
    "type": "channel",
    "noteNumber": 78,
    "channel": 0,
    "deltaTime": 0
  },
  {
    "subtype": "noteOn",
    "velocity": 0,
    "type": "channel",
    "noteNumber": 79,
    "channel": 0,
    "deltaTime": 120
  },
  {
    "subtype": "noteOff",
    "velocity": 0,
    "type": "channel",
    "noteNumber": 79,
    "channel": 0,
    "deltaTime": 0
  },
  {
    "subtype": "noteOn",
    "velocity": 0,
    "type": "channel",
    "noteNumber": 75,
    "channel": 0,
    "deltaTime": 120
  },
  {
    "subtype": "noteOn",
    "velocity": 0,
    "type": "channel",
    "noteNumber": 73,
    "channel": 0,
    "deltaTime": 120
  },
  {
    "subtype": "noteOn",
    "velocity": 0,
    "type": "channel",
    "noteNumber": 73,
    "channel": 0,
    "deltaTime": 120
  },
  {
    "subtype": "noteOff",
    "velocity": 0,
    "type": "channel",
    "noteNumber": 73,
    "channel": 0,
    "deltaTime": 0
  },
  {
    "subtype": "noteOn",
    "velocity": 0,
    "type": "channel",
    "noteNumber": 82,
    "channel": 0,
    "deltaTime": 120
  },
  {
    "subtype": "noteOff",
    "velocity": 0,
    "type": "channel",
    "noteNumber": 82,
    "channel": 0,
    "deltaTime": 0
  },
  {
    "subtype": "noteOn",
    "velocity": 0,
    "type": "channel",
    "noteNumber": 82,
    "channel": 0,
    "deltaTime": 120
  },
  {
    "subtype": "noteOff",
    "velocity": 0,
    "type": "channel",
    "noteNumber": 82,
    "channel": 0,
    "deltaTime": 0
  },
  {
    "subtype": "noteOn",
    "velocity": 0,
    "type": "channel",
    "noteNumber": 82,
    "channel": 0,
    "deltaTime": 120
  },
  {
    "subtype": "noteOn",
    "velocity": 0,
    "type": "channel",
    "noteNumber": 79,
    "channel": 0,
    "deltaTime": 120
  },
  {
    "subtype": "noteOn",
    "velocity": 0,
    "type": "channel",
    "noteNumber": 79,
    "channel": 0,
    "deltaTime": 120
  },
  {
    "subtype": "noteOn",
    "velocity": 0,
    "type": "channel",
    "noteNumber": 80,
    "channel": 0,
    "deltaTime": 120
  },
  {
    "subtype": "noteOn",
    "velocity": 0,
    "type": "channel",
    "noteNumber": 80,
    "channel": 0,
    "deltaTime": 120
  },
  {
    "subtype": "noteOff",
    "velocity": 0,
    "type": "channel",
    "noteNumber": 80,
    "channel": 0,
    "deltaTime": 0
  },
  {
    "subtype": "noteOn",
    "velocity": 0,
    "type": "channel",
    "noteNumber": 78,
    "channel": 0,
    "deltaTime": 120
  },
  {
    "subtype": "noteOn",
    "velocity": 0,
    "type": "channel",
    "noteNumber": 77,
    "channel": 0,
    "deltaTime": 120
  },
  {
    "subtype": "noteOn",
    "velocity": 0,
    "type": "channel",
    "noteNumber": 77,
    "channel": 0,
    "deltaTime": 120
  },
  {
    "subtype": "noteOff",
    "velocity": 0,
    "type": "channel",
    "noteNumber": 77,
    "channel": 0,
    "deltaTime": 0
  },
  {
    "subtype": "noteOn",
    "velocity": 0,
    "type": "channel",
    "noteNumber": 75,
    "channel": 0,
    "deltaTime": 120
  },
  {
    "subtype": "noteOff",
    "velocity": 0,
    "type": "channel",
    "noteNumber": 75,
    "channel": 0,
    "deltaTime": 0
  },
  {
    "subtype": "noteOn",
    "velocity": 0,
    "type": "channel",
    "noteNumber": 74,
    "channel": 0,
    "deltaTime": 120
  },
  {
    "subtype": "noteOn",
    "velocity": 0,
    "type": "channel",
    "noteNumber": 82,
    "channel": 0,
    "deltaTime": 120
  },
  {
    "subtype": "noteOn",
    "velocity": 0,
    "type": "channel",
    "noteNumber": 82,
    "channel": 0,
    "deltaTime": 120
  },
  {
    "subtype": "noteOn",
    "velocity": 0,
    "type": "channel",
    "noteNumber": 80,
    "channel": 0,
    "deltaTime": 120
  },
  {
    "subtype": "noteOn",
    "velocity": 0,
    "type": "channel",
    "noteNumber": 80,
    "channel": 0,
    "deltaTime": 120
  },
  {
    "subtype": "noteOn",
    "velocity": 0,
    "type": "channel",
    "noteNumber": 78,
    "channel": 0,
    "deltaTime": 120
  },
  {
    "subtype": "noteOn",
    "velocity": 0,
    "type": "channel",
    "noteNumber": 78,
    "channel": 0,
    "deltaTime": 120
  },
  {
    "subtype": "noteOn",
    "velocity": 0,
    "type": "channel",
    "noteNumber": 77,
    "channel": 0,
    "deltaTime": 120
  },
  {
    "subtype": "noteOn",
    "velocity": 0,
    "type": "channel",
    "noteNumber": 77,
    "channel": 0,
    "deltaTime": 120
  },
  {
    "subtype": "noteOn",
    "velocity": 0,
    "type": "channel",
    "noteNumber": 75,
    "channel": 0,
    "deltaTime": 120
  },
  {
    "subtype": "noteOn",
    "velocity": 0,
    "type": "channel",
    "noteNumber": 75,
    "channel": 0,
    "deltaTime": 120
  },
  {
    "subtype": "noteOn",
    "velocity": 0,
    "type": "channel",
    "noteNumber": 74,
    "channel": 0,
    "deltaTime": 120
  },
  {
    "subtype": "noteOn",
    "velocity": 0,
    "type": "channel",
    "noteNumber": 74,
    "channel": 0,
    "deltaTime": 120
  },
  {
    "subtype": "noteOff",
    "velocity": 0,
    "type": "channel",
    "noteNumber": 74,
    "channel": 0,
    "deltaTime": 0
  },
  {
    "subtype": "noteOn",
    "velocity": 0,
    "type": "channel",
    "noteNumber": 65,
    "channel": 0,
    "deltaTime": 120
  },
  {
    "subtype": "noteOff",
    "velocity": 0,
    "type": "channel",
    "noteNumber": 65,
    "channel": 0,
    "deltaTime": 0
  },
  {
    "subtype": "noteOn",
    "velocity": 0,
    "type": "channel",
    "noteNumber": 82,
    "channel": 0,
    "deltaTime": 120
  },
  {
    "subtype": "noteOff",
    "velocity": 0,
    "type": "channel",
    "noteNumber": 82,
    "channel": 0,
    "deltaTime": 0
  },
  {
    "subtype": "noteOn",
    "velocity": 0,
    "type": "channel",
    "noteNumber": 79,
    "channel": 0,
    "deltaTime": 120
  },
  {
    "subtype": "noteOff",
    "velocity": 0,
    "type": "channel",
    "noteNumber": 79,
    "channel": 0,
    "deltaTime": 0
  },
  {
    "subtype": "noteOn",
    "velocity": 0,
    "type": "channel",
    "noteNumber": 78,
    "channel": 0,
    "deltaTime": 120
  },
  {
    "subtype": "noteOff",
    "velocity": 0,
    "type": "channel",
    "noteNumber": 78,
    "channel": 0,
    "deltaTime": 0
  },
  {
    "subtype": "noteOn",
    "velocity": 0,
    "type": "channel",
    "noteNumber": 77,
    "channel": 0,
    "deltaTime": 120
  },
  {
    "subtype": "noteOn",
    "velocity": 0,
    "type": "channel",
    "noteNumber": 75,
    "channel": 0,
    "deltaTime": 120
  },
  {
    "subtype": "noteOn",
    "velocity": 0,
    "type": "channel",
    "noteNumber": 75,
    "channel": 0,
    "deltaTime": 120
  },
  {
    "subtype": "noteOff",
    "velocity": 0,
    "type": "channel",
    "noteNumber": 75,
    "channel": 0,
    "deltaTime": 0
  },
  {
    "subtype": "noteOn",
    "velocity": 0,
    "type": "channel",
    "noteNumber": 74,
    "channel": 0,
    "deltaTime": 120
  },
  {
    "subtype": "noteOff",
    "velocity": 0,
    "type": "channel",
    "noteNumber": 74,
    "channel": 0,
    "deltaTime": 0
  },
  {
    "subtype": "noteOn",
    "velocity": 0,
    "type": "channel",
    "noteNumber": 82,
    "channel": 0,
    "deltaTime": 120
  },
  {
    "subtype": "noteOff",
    "velocity": 0,
    "type": "channel",
    "noteNumber": 82,
    "channel": 0,
    "deltaTime": 0
  },
  {
    "subtype": "noteOn",
    "velocity": 0,
    "type": "channel",
    "noteNumber": 75,
    "channel": 0,
    "deltaTime": 120
  },
  {
    "subtype": "noteOff",
    "velocity": 0,
    "type": "channel",
    "noteNumber": 75,
    "channel": 0,
    "deltaTime": 0
  },
  {
    "subtype": "noteOn",
    "velocity": 0,
    "type": "channel",
    "noteNumber": 79,
    "channel": 0,
    "deltaTime": 120
  },
  {
    "subtype": "noteOn",
    "velocity": 0,
    "type": "channel",
    "noteNumber": 73,
    "channel": 0,
    "deltaTime": 120
  },
  {
    "subtype": "noteOn",
    "velocity": 0,
    "type": "channel",
    "noteNumber": 73,
    "channel": 0,
    "deltaTime": 120
  },
  {
    "subtype": "noteOff",
    "velocity": 0,
    "type": "channel",
    "noteNumber": 73,
    "channel": 0,
    "deltaTime": 0
  },
  {
    "subtype": "noteOn",
    "velocity": 0,
    "type": "channel",
    "noteNumber": 68,
    "channel": 0,
    "deltaTime": 120
  },
  {
    "subtype": "noteOn",
    "velocity": 0,
    "type": "channel",
    "noteNumber": 83,
    "channel": 0,
    "deltaTime": 120
  },
  {
    "subtype": "noteOn",
    "velocity": 0,
    "type": "channel",
    "noteNumber": 83,
    "channel": 0,
    "deltaTime": 120
  },
  {
    "subtype": "noteOn",
    "velocity": 0,
    "type": "channel",
    "noteNumber": 82,
    "channel": 0,
    "deltaTime": 120
  },
  {
    "subtype": "noteOn",
    "velocity": 0,
    "type": "channel",
    "noteNumber": 82,
    "channel": 0,
    "deltaTime": 120
  },
  {
    "subtype": "noteOn",
    "velocity": 0,
    "type": "channel",
    "noteNumber": 80,
    "channel": 0,
    "deltaTime": 120
  },
  {
    "subtype": "noteOn",
    "velocity": 0,
    "type": "channel",
    "noteNumber": 80,
    "channel": 0,
    "deltaTime": 120
  },
  {
    "subtype": "noteOn",
    "velocity": 0,
    "type": "channel",
    "noteNumber": 79,
    "channel": 0,
    "deltaTime": 120
  },
  {
    "subtype": "noteOn",
    "velocity": 0,
    "type": "channel",
    "noteNumber": 79,
    "channel": 0,
    "deltaTime": 120
  },
  {
    "subtype": "noteOn",
    "velocity": 0,
    "type": "channel",
    "noteNumber": 80,
    "channel": 0,
    "deltaTime": 120
  },
  {
    "subtype": "noteOn",
    "velocity": 0,
    "type": "channel",
    "noteNumber": 80,
    "channel": 0,
    "deltaTime": 120
  },
  {
    "subtype": "noteOn",
    "velocity": 0,
    "type": "channel",
    "noteNumber": 75,
    "channel": 0,
    "deltaTime": 120
  },
  {
    "subtype": "noteOn",
    "velocity": 0,
    "type": "channel",
    "noteNumber": 75,
    "channel": 0,
    "deltaTime": 120
  },
  {
    "subtype": "noteOff",
    "velocity": 0,
    "type": "channel",
    "noteNumber": 75,
    "channel": 0,
    "deltaTime": 0
  },
  {
    "subtype": "noteOff",
    "velocity": 0,
    "type": "channel",
    "noteNumber": 75,
    "channel": 0,
    "deltaTime": 0
  },
  {
    "subtype": "noteOn",
    "velocity": 0,
    "type": "channel",
    "noteNumber": 83,
    "channel": 0,
    "deltaTime": 120
  },
  {
    "subtype": "noteOn",
    "velocity": 0,
    "type": "channel",
    "noteNumber": 83,
    "channel": 0,
    "deltaTime": 120
  },
  {
    "subtype": "noteOn",
    "velocity": 0,
    "type": "channel",
    "noteNumber": 82,
    "channel": 0,
    "deltaTime": 120
  },
  {
    "subtype": "noteOn",
    "velocity": 0,
    "type": "channel",
    "noteNumber": 82,
    "channel": 0,
    "deltaTime": 120
  },
  {
    "subtype": "noteOn",
    "velocity": 0,
    "type": "channel",
    "noteNumber": 80,
    "channel": 0,
    "deltaTime": 120
  },
  {
    "subtype": "noteOn",
    "velocity": 0,
    "type": "channel",
    "noteNumber": 80,
    "channel": 0,
    "deltaTime": 120
  },
  {
    "subtype": "noteOn",
    "velocity": 0,
    "type": "channel",
    "noteNumber": 79,
    "channel": 0,
    "deltaTime": 120
  },
  {
    "subtype": "noteOn",
    "velocity": 0,
    "type": "channel",
    "noteNumber": 79,
    "channel": 0,
    "deltaTime": 120
  },
  {
    "subtype": "noteOn",
    "velocity": 0,
    "type": "channel",
    "noteNumber": 80,
    "channel": 0,
    "deltaTime": 120
  },
  {
    "subtype": "noteOn",
    "velocity": 0,
    "type": "channel",
    "noteNumber": 80,
    "channel": 0,
    "deltaTime": 120
  },
  {
    "subtype": "noteOn",
    "velocity": 0,
    "type": "channel",
    "noteNumber": 75,
    "channel": 0,
    "deltaTime": 120
  },
  {
    "subtype": "noteOn",
    "velocity": 0,
    "type": "channel",
    "noteNumber": 75,
    "channel": 0,
    "deltaTime": 120
  },
  {
    "subtype": "noteOff",
    "velocity": 0,
    "type": "channel",
    "noteNumber": 75,
    "channel": 0,
    "deltaTime": 0
  },
  {
    "subtype": "noteOn",
    "velocity": 0,
    "type": "channel",
    "noteNumber": 74,
    "channel": 0,
    "deltaTime": 120
  },
  {
    "subtype": "noteOff",
    "velocity": 0,
    "type": "channel",
    "noteNumber": 74,
    "channel": 0,
    "deltaTime": 0
  },
  {
    "subtype": "noteOn",
    "velocity": 0,
    "type": "channel",
    "noteNumber": 75,
    "channel": 0,
    "deltaTime": 120
  },
  {
    "subtype": "noteOff",
    "velocity": 0,
    "type": "channel",
    "noteNumber": 75,
    "channel": 0,
    "deltaTime": 0
  },
  {
    "subtype": "noteOn",
    "velocity": 0,
    "type": "channel",
    "noteNumber": 79,
    "channel": 0,
    "deltaTime": 120
  },
  {
    "subtype": "noteOff",
    "velocity": 0,
    "type": "channel",
    "noteNumber": 79,
    "channel": 0,
    "deltaTime": 0
  },
  {
    "subtype": "noteOn",
    "velocity": 0,
    "type": "channel",
    "noteNumber": 75,
    "channel": 0,
    "deltaTime": 120
  },
  {
    "subtype": "noteOn",
    "velocity": 0,
    "type": "channel",
    "noteNumber": 80,
    "channel": 0,
    "deltaTime": 120
  },
  {
    "subtype": "noteOn",
    "velocity": 0,
    "type": "channel",
    "noteNumber": 82,
    "channel": 0,
    "deltaTime": 120
  },
  {
    "subtype": "noteOff",
    "velocity": 0,
    "type": "channel",
    "noteNumber": 82,
    "channel": 0,
    "deltaTime": 0
  },
  {
    "subtype": "noteOn",
    "velocity": 0,
    "type": "channel",
    "noteNumber": 75,
    "channel": 0,
    "deltaTime": 120
  },
  {
    "subtype": "noteOff",
    "velocity": 0,
    "type": "channel",
    "noteNumber": 75,
    "channel": 0,
    "deltaTime": 0
  },
  {
    "subtype": "noteOn",
    "velocity": 0,
    "type": "channel",
    "noteNumber": 76,
    "channel": 0,
    "deltaTime": 120
  },
  {
    "subtype": "noteOff",
    "velocity": 0,
    "type": "channel",
    "noteNumber": 76,
    "channel": 0,
    "deltaTime": 0
  },
  {
    "subtype": "noteOn",
    "velocity": 0,
    "type": "channel",
    "noteNumber": 75,
    "channel": 0,
    "deltaTime": 120
  },
  {
    "subtype": "noteOff",
    "velocity": 0,
    "type": "channel",
    "noteNumber": 75,
    "channel": 0,
    "deltaTime": 0
  },
  {
    "subtype": "noteOn",
    "velocity": 0,
    "type": "channel",
    "noteNumber": 76,
    "channel": 0,
    "deltaTime": 120
  },
  {
    "subtype": "noteOff",
    "velocity": 0,
    "type": "channel",
    "noteNumber": 76,
    "channel": 0,
    "deltaTime": 0
  },
  {
    "subtype": "noteOn",
    "velocity": 0,
    "type": "channel",
    "noteNumber": 80,
    "channel": 0,
    "deltaTime": 120
  },
  {
    "subtype": "noteOn",
    "velocity": 0,
    "type": "channel",
    "noteNumber": 79,
    "channel": 0,
    "deltaTime": 120
  },
  {
    "subtype": "noteOn",
    "velocity": 0,
    "type": "channel",
    "noteNumber": 79,
    "channel": 0,
    "deltaTime": 120
  },
  {
    "subtype": "noteOn",
    "velocity": 0,
    "type": "channel",
    "noteNumber": 80,
    "channel": 0,
    "deltaTime": 120
  },
  {
    "subtype": "noteOn",
    "velocity": 0,
    "type": "channel",
    "noteNumber": 80,
    "channel": 0,
    "deltaTime": 120
  },
  {
    "subtype": "noteOn",
    "velocity": 0,
    "type": "channel",
    "noteNumber": 75,
    "channel": 0,
    "deltaTime": 120
  },
  {
    "subtype": "noteOn",
    "velocity": 0,
    "type": "channel",
    "noteNumber": 77,
    "channel": 0,
    "deltaTime": 120
  },
  {
    "subtype": "noteOff",
    "velocity": 0,
    "type": "channel",
    "noteNumber": 77,
    "channel": 0,
    "deltaTime": 0
  },
  {
    "subtype": "noteOn",
    "velocity": 0,
    "type": "channel",
    "noteNumber": 83,
    "channel": 0,
    "deltaTime": 120
  },
  {
    "subtype": "noteOn",
    "velocity": 0,
    "type": "channel",
    "noteNumber": 77,
    "channel": 0,
    "deltaTime": 120
  },
  {
    "subtype": "noteOn",
    "velocity": 0,
    "type": "channel",
    "noteNumber": 77,
    "channel": 0,
    "deltaTime": 120
  },
  {
    "subtype": "noteOn",
    "velocity": 0,
    "type": "channel",
    "noteNumber": 75,
    "channel": 0,
    "deltaTime": 120
  },
  {
    "subtype": "noteOn",
    "velocity": 0,
    "type": "channel",
    "noteNumber": 75,
    "channel": 0,
    "deltaTime": 120
  },
  {
    "subtype": "noteOn",
    "velocity": 0,
    "type": "channel",
    "noteNumber": 74,
    "channel": 0,
    "deltaTime": 120
  },
  {
    "subtype": "noteOn",
    "velocity": 0,
    "type": "channel",
    "noteNumber": 74,
    "channel": 0,
    "deltaTime": 120
  },
  {
    "subtype": "noteOff",
    "velocity": 0,
    "type": "channel",
    "noteNumber": 74,
    "channel": 0,
    "deltaTime": 0
  },
  {
    "subtype": "noteOn",
    "velocity": 0,
    "type": "channel",
    "noteNumber": 75,
    "channel": 0,
    "deltaTime": 120
  },
  {
    "subtype": "noteOff",
    "velocity": 0,
    "type": "channel",
    "noteNumber": 75,
    "channel": 0,
    "deltaTime": 0
  },
  {
    "subtype": "noteOn",
    "velocity": 0,
    "type": "channel",
    "noteNumber": 70,
    "channel": 0,
    "deltaTime": 120
  },
  {
    "subtype": "noteOff",
    "velocity": 0,
    "type": "channel",
    "noteNumber": 70,
    "channel": 0,
    "deltaTime": 0
  },
  {
    "subtype": "noteOn",
    "velocity": 0,
    "type": "channel",
    "noteNumber": 68,
    "channel": 0,
    "deltaTime": 120
  },
  {
    "subtype": "noteOn",
    "velocity": 0,
    "type": "channel",
    "noteNumber": 67,
    "channel": 0,
    "deltaTime": 120
  },
  {
    "subtype": "noteOn",
    "velocity": 0,
    "type": "channel",
    "noteNumber": 67,
    "channel": 0,
    "deltaTime": 120
  },
  {
    "subtype": "noteOff",
    "velocity": 0,
    "type": "channel",
    "noteNumber": 67,
    "channel": 0,
    "deltaTime": 0
  },
  {
    "subtype": "noteOn",
    "velocity": 0,
    "type": "channel",
    "noteNumber": 75,
    "channel": 0,
    "deltaTime": 120
  },
  {
    "subtype": "noteOff",
    "velocity": 0,
    "type": "channel",
    "noteNumber": 75,
    "channel": 0,
    "deltaTime": 0
  },
  {
    "subtype": "noteOff",
    "velocity": 0,
    "type": "channel",
    "noteNumber": 75,
    "channel": 0,
    "deltaTime": 0
  },
  {
    "subtype": "noteOn",
    "velocity": 0,
    "type": "channel",
    "noteNumber": 75,
    "channel": 0,
    "deltaTime": 120
  },
  {
    "subtype": "noteOn",
    "velocity": 0,
    "type": "channel",
    "noteNumber": 75,
    "channel": 0,
    "deltaTime": 120
  },
  {
    "subtype": "noteOff",
    "velocity": 0,
    "type": "channel",
    "noteNumber": 75,
    "channel": 0,
    "deltaTime": 0
  },
  {
    "subtype": "noteOn",
    "velocity": 0,
    "type": "channel",
    "noteNumber": 68,
    "channel": 0,
    "deltaTime": 120
  },
  {
    "subtype": "noteOn",
    "velocity": 0,
    "type": "channel",
    "noteNumber": 70,
    "channel": 0,
    "deltaTime": 120
  },
  {
    "subtype": "noteOn",
    "velocity": 0,
    "type": "channel",
    "noteNumber": 70,
    "channel": 0,
    "deltaTime": 120
  },
  {
    "subtype": "noteOn",
    "velocity": 0,
    "type": "channel",
    "noteNumber": 73,
    "channel": 0,
    "deltaTime": 120
  },
  {
    "subtype": "noteOn",
    "velocity": 0,
    "type": "channel",
    "noteNumber": 73,
    "channel": 0,
    "deltaTime": 120
  },
  {
    "subtype": "noteOn",
    "velocity": 0,
    "type": "channel",
    "noteNumber": 76,
    "channel": 0,
    "deltaTime": 120
  },
  {
    "subtype": "noteOn",
    "velocity": 0,
    "type": "channel",
    "noteNumber": 76,
    "channel": 0,
    "deltaTime": 120
  },
  {
    "subtype": "noteOff",
    "velocity": 0,
    "type": "channel",
    "noteNumber": 76,
    "channel": 0,
    "deltaTime": 0
  },
  {
    "subtype": "noteOn",
    "velocity": 0,
    "type": "channel",
    "noteNumber": 75,
    "channel": 0,
    "deltaTime": 120
  },
  {
    "subtype": "noteOn",
    "velocity": 0,
    "type": "channel",
    "noteNumber": 73,
    "channel": 0,
    "deltaTime": 120
  },
  {
    "subtype": "noteOn",
    "velocity": 0,
    "type": "channel",
    "noteNumber": 73,
    "channel": 0,
    "deltaTime": 120
  },
  {
    "subtype": "noteOff",
    "velocity": 0,
    "type": "channel",
    "noteNumber": 73,
    "channel": 0,
    "deltaTime": 0
  },
  {
    "subtype": "noteOn",
    "velocity": 0,
    "type": "channel",
    "noteNumber": 72,
    "channel": 0,
    "deltaTime": 120
  },
  {
    "subtype": "noteOff",
    "velocity": 0,
    "type": "channel",
    "noteNumber": 72,
    "channel": 0,
    "deltaTime": 0
  },
  {
    "subtype": "noteOn",
    "velocity": 0,
    "type": "channel",
    "noteNumber": 73,
    "channel": 0,
    "deltaTime": 120
  },
  {
    "subtype": "noteOff",
    "velocity": 0,
    "type": "channel",
    "noteNumber": 73,
    "channel": 0,
    "deltaTime": 0
  },
  {
    "subtype": "noteOn",
    "velocity": 0,
    "type": "channel",
    "noteNumber": 68,
    "channel": 0,
    "deltaTime": 120
  },
  {
    "subtype": "noteOff",
    "velocity": 0,
    "type": "channel",
    "noteNumber": 68,
    "channel": 0,
    "deltaTime": 0
  },
  {
    "subtype": "noteOn",
    "velocity": 0,
    "type": "channel",
    "noteNumber": 65,
    "channel": 0,
    "deltaTime": 120
  },
  {
    "subtype": "noteOn",
    "velocity": 0,
    "type": "channel",
    "noteNumber": 68,
    "channel": 0,
    "deltaTime": 120
  },
  {
    "subtype": "noteOn",
    "velocity": 0,
    "type": "channel",
    "noteNumber": 68,
    "channel": 0,
    "deltaTime": 120
  },
  {
    "subtype": "noteOff",
    "velocity": 0,
    "type": "channel",
    "noteNumber": 68,
    "channel": 0,
    "deltaTime": 0
  },
  {
    "subtype": "noteOn",
    "velocity": 0,
    "type": "channel",
    "noteNumber": 65,
    "channel": 0,
    "deltaTime": 120
  },
  {
    "subtype": "noteOn",
    "velocity": 0,
    "type": "channel",
    "noteNumber": 68,
    "channel": 0,
    "deltaTime": 120
  },
  {
    "subtype": "noteOn",
    "velocity": 0,
    "type": "channel",
    "noteNumber": 68,
    "channel": 0,
    "deltaTime": 120
  },
  {
    "subtype": "noteOff",
    "velocity": 0,
    "type": "channel",
    "noteNumber": 68,
    "channel": 0,
    "deltaTime": 0
  },
  {
    "subtype": "noteOn",
    "velocity": 0,
    "type": "channel",
    "noteNumber": 70,
    "channel": 0,
    "deltaTime": 120
  },
  {
    "subtype": "noteOff",
    "velocity": 0,
    "type": "channel",
    "noteNumber": 70,
    "channel": 0,
    "deltaTime": 0
  },
  {
    "subtype": "noteOn",
    "velocity": 0,
    "type": "channel",
    "noteNumber": 66,
    "channel": 0,
    "deltaTime": 120
  },
  {
    "subtype": "noteOff",
    "velocity": 0,
    "type": "channel",
    "noteNumber": 66,
    "channel": 0,
    "deltaTime": 0
  },
  {
    "subtype": "noteOn",
    "velocity": 0,
    "type": "channel",
    "noteNumber": 77,
    "channel": 0,
    "deltaTime": 120
  },
  {
    "subtype": "noteOff",
    "velocity": 0,
    "type": "channel",
    "noteNumber": 77,
    "channel": 0,
    "deltaTime": 0
  },
  {
    "subtype": "noteOn",
    "velocity": 0,
    "type": "channel",
    "noteNumber": 82,
    "channel": 0,
    "deltaTime": 120
  },
  {
    "subtype": "noteOn",
    "velocity": 0,
    "type": "channel",
    "noteNumber": 82,
    "channel": 0,
    "deltaTime": 120
  },
  {
    "subtype": "noteOn",
    "velocity": 0,
    "type": "channel",
    "noteNumber": 82,
    "channel": 0,
    "deltaTime": 120
  },
  {
    "subtype": "noteOn",
    "velocity": 0,
    "type": "channel",
    "noteNumber": 82,
    "channel": 0,
    "deltaTime": 120
  },
  {
    "subtype": "noteOn",
    "velocity": 0,
    "type": "channel",
    "noteNumber": 82,
    "channel": 0,
    "deltaTime": 120
  },
  {
    "subtype": "noteOn",
    "velocity": 0,
    "type": "channel",
    "noteNumber": 82,
    "channel": 0,
    "deltaTime": 120
  },
  {
    "subtype": "noteOn",
    "velocity": 0,
    "type": "channel",
    "noteNumber": 82,
    "channel": 0,
    "deltaTime": 120
  },
  {
    "subtype": "noteOn",
    "velocity": 0,
    "type": "channel",
    "noteNumber": 80,
    "channel": 0,
    "deltaTime": 120
  },
  {
    "subtype": "noteOn",
    "velocity": 0,
    "type": "channel",
    "noteNumber": 80,
    "channel": 0,
    "deltaTime": 120
  },
  {
    "subtype": "noteOn",
    "velocity": 0,
    "type": "channel",
    "noteNumber": 78,
    "channel": 0,
    "deltaTime": 120
  },
  {
    "subtype": "noteOn",
    "velocity": 0,
    "type": "channel",
    "noteNumber": 78,
    "channel": 0,
    "deltaTime": 120
  },
  {
    "subtype": "noteOn",
    "velocity": 0,
    "type": "channel",
    "noteNumber": 77,
    "channel": 0,
    "deltaTime": 120
  },
  {
    "subtype": "noteOn",
    "velocity": 0,
    "type": "channel",
    "noteNumber": 77,
    "channel": 0,
    "deltaTime": 120
  },
  {
    "subtype": "noteOn",
    "velocity": 0,
    "type": "channel",
    "noteNumber": 75,
    "channel": 0,
    "deltaTime": 120
  },
  {
    "subtype": "noteOn",
    "velocity": 0,
    "type": "channel",
    "noteNumber": 75,
    "channel": 0,
    "deltaTime": 120
  },
  {
    "subtype": "noteOn",
    "velocity": 0,
    "type": "channel",
    "noteNumber": 74,
    "channel": 0,
    "deltaTime": 120
  },
  {
    "subtype": "noteOn",
    "velocity": 0,
    "type": "channel",
    "noteNumber": 74,
    "channel": 0,
    "deltaTime": 120
  },
  {
    "subtype": "noteOn",
    "velocity": 0,
    "type": "channel",
    "noteNumber": 75,
    "channel": 0,
    "deltaTime": 120
  },
  {
    "subtype": "noteOn",
    "velocity": 0,
    "type": "channel",
    "noteNumber": 75,
    "channel": 0,
    "deltaTime": 120
  },
  {
    "subtype": "noteOff",
    "velocity": 0,
    "type": "channel",
    "noteNumber": 75,
    "channel": 0,
    "deltaTime": 0
  },
  {
    "subtype": "noteOn",
    "velocity": 0,
    "type": "channel",
    "noteNumber": 69,
    "channel": 0,
    "deltaTime": 120
  },
  {
    "subtype": "noteOff",
    "velocity": 0,
    "type": "channel",
    "noteNumber": 69,
    "channel": 0,
    "deltaTime": 0
  },
  {
    "subtype": "noteOn",
    "velocity": 0,
    "type": "channel",
    "noteNumber": 71,
    "channel": 0,
    "deltaTime": 120
  },
  {
    "subtype": "noteOff",
    "velocity": 0,
    "type": "channel",
    "noteNumber": 71,
    "channel": 0,
    "deltaTime": 0
  },
  {
    "subtype": "noteOff",
    "velocity": 0,
    "type": "channel",
    "noteNumber": 71,
    "channel": 0,
    "deltaTime": 0
  },
  {
    "subtype": "noteOff",
    "velocity": 0,
    "type": "channel",
    "noteNumber": 71,
    "channel": 0,
    "deltaTime": 0
  },
  {
    "subtype": "noteOn",
    "velocity": 0,
    "type": "channel",
    "noteNumber": 77,
    "channel": 0,
    "deltaTime": 120
  },
  {
    "subtype": "noteOn",
    "velocity": 0,
    "type": "channel",
    "noteNumber": 75,
    "channel": 0,
    "deltaTime": 120
  },
  {
    "subtype": "noteOn",
    "velocity": 0,
    "type": "channel",
    "noteNumber": 75,
    "channel": 0,
    "deltaTime": 120
  },
  {
    "subtype": "noteOn",
    "velocity": 0,
    "type": "channel",
    "noteNumber": 74,
    "channel": 0,
    "deltaTime": 120
  },
  {
    "subtype": "noteOn",
    "velocity": 0,
    "type": "channel",
    "noteNumber": 74,
    "channel": 0,
    "deltaTime": 120
  },
  {
    "subtype": "noteOff",
    "velocity": 0,
    "type": "channel",
    "noteNumber": 74,
    "channel": 0,
    "deltaTime": 0
  },
  {
    "subtype": "noteOn",
    "velocity": 0,
    "type": "channel",
    "noteNumber": 77,
    "channel": 0,
    "deltaTime": 120
  },
  {
    "subtype": "noteOff",
    "velocity": 0,
    "type": "channel",
    "noteNumber": 77,
    "channel": 0,
    "deltaTime": 0
  },
  {
    "subtype": "noteOn",
    "velocity": 0,
    "type": "channel",
    "noteNumber": 68,
    "channel": 0,
    "deltaTime": 120
  },
  {
    "subtype": "noteOff",
    "velocity": 0,
    "type": "channel",
    "noteNumber": 68,
    "channel": 0,
    "deltaTime": 0
  },
  {
    "subtype": "noteOn",
    "velocity": 0,
    "type": "channel",
    "noteNumber": 67,
    "channel": 0,
    "deltaTime": 120
  },
  {
    "subtype": "noteOn",
    "velocity": 0,
    "type": "channel",
    "noteNumber": 75,
    "channel": 0,
    "deltaTime": 120
  },
  {
    "subtype": "noteOn",
    "velocity": 0,
    "type": "channel",
    "noteNumber": 75,
    "channel": 0,
    "deltaTime": 120
  },
  {
    "subtype": "noteOff",
    "velocity": 0,
    "type": "channel",
    "noteNumber": 75,
    "channel": 0,
    "deltaTime": 0
  },
  {
    "subtype": "noteOn",
    "velocity": 0,
    "type": "channel",
    "noteNumber": 77,
    "channel": 0,
    "deltaTime": 120
  },
  {
    "subtype": "noteOn",
    "velocity": 0,
    "type": "channel",
    "noteNumber": 80,
    "channel": 0,
    "deltaTime": 120
  },
  {
    "subtype": "noteOff",
    "velocity": 0,
    "type": "channel",
    "noteNumber": 80,
    "channel": 0,
    "deltaTime": 0
  },
  {
    "subtype": "noteOff",
    "velocity": 0,
    "type": "channel",
    "noteNumber": 80,
    "channel": 0,
    "deltaTime": 0
  },
  {
    "subtype": "noteOn",
    "velocity": 0,
    "type": "channel",
    "noteNumber": 80,
    "channel": 0,
    "deltaTime": 120
  },
  {
    "subtype": "noteOff",
    "velocity": 0,
    "type": "channel",
    "noteNumber": 80,
    "channel": 0,
    "deltaTime": 0
  },
  {
    "subtype": "noteOn",
    "velocity": 0,
    "type": "channel",
    "noteNumber": 63,
    "channel": 0,
    "deltaTime": 120
  },
  {
    "subtype": "noteOff",
    "velocity": 0,
    "type": "channel",
    "noteNumber": 63,
    "channel": 0,
    "deltaTime": 0
  },
  {
    "subtype": "noteOff",
    "velocity": 0,
    "type": "channel",
    "noteNumber": 63,
    "channel": 0,
    "deltaTime": 0
  },
  {
    "subtype": "noteOn",
    "velocity": 0,
    "type": "channel",
    "noteNumber": 69,
    "channel": 0,
    "deltaTime": 120
  },
  {
    "subtype": "noteOff",
    "velocity": 0,
    "type": "channel",
    "noteNumber": 69,
    "channel": 0,
    "deltaTime": 0
  },
  {
    "subtype": "noteOff",
    "velocity": 0,
    "type": "channel",
    "noteNumber": 69,
    "channel": 0,
    "deltaTime": 0
  },
  {
    "subtype": "noteOff",
    "velocity": 0,
    "type": "channel",
    "noteNumber": 69,
    "channel": 0,
    "deltaTime": 0
  },
  {
    "subtype": "noteOff",
    "velocity": 0,
    "type": "channel",
    "noteNumber": 69,
    "channel": 0,
    "deltaTime": 0
  },
  {
    "subtype": "noteOn",
    "velocity": 0,
    "type": "channel",
    "noteNumber": 71,
    "channel": 0,
    "deltaTime": 120
  },
  {
    "subtype": "noteOff",
    "velocity": 0,
    "type": "channel",
    "noteNumber": 71,
    "channel": 0,
    "deltaTime": 0
  },
  {
    "subtype": "noteOn",
    "velocity": 0,
    "type": "channel",
    "noteNumber": 77,
    "channel": 0,
    "deltaTime": 120
  },
  {
    "subtype": "noteOff",
    "velocity": 0,
    "type": "channel",
    "noteNumber": 77,
    "channel": 0,
    "deltaTime": 0
  },
  {
    "subtype": "noteOn",
    "velocity": 0,
    "type": "channel",
    "noteNumber": 80,
    "channel": 0,
    "deltaTime": 120
  },
  {
    "subtype": "noteOn",
    "velocity": 0,
    "type": "channel",
    "noteNumber": 75,
    "channel": 0,
    "deltaTime": 120
  },
  {
    "subtype": "noteOn",
    "velocity": 0,
    "type": "channel",
    "noteNumber": 82,
    "channel": 0,
    "deltaTime": 120
  },
  {
    "subtype": "noteOn",
    "velocity": 0,
    "type": "channel",
    "noteNumber": 85,
    "channel": 0,
    "deltaTime": 120
  },
  {
    "subtype": "noteOff",
    "velocity": 0,
    "type": "channel",
    "noteNumber": 85,
    "channel": 0,
    "deltaTime": 0
  },
  {
    "subtype": "noteOn",
    "velocity": 0,
    "type": "channel",
    "noteNumber": 80,
    "channel": 0,
    "deltaTime": 120
  },
  {
    "subtype": "noteOn",
    "velocity": 0,
    "type": "channel",
    "noteNumber": 80,
    "channel": 0,
    "deltaTime": 120
  },
  {
    "subtype": "noteOff",
    "velocity": 0,
    "type": "channel",
    "noteNumber": 80,
    "channel": 0,
    "deltaTime": 0
  },
  {
    "subtype": "noteOn",
    "velocity": 0,
    "type": "channel",
    "noteNumber": 82,
    "channel": 0,
    "deltaTime": 120
  },
  {
    "subtype": "noteOn",
    "velocity": 0,
    "type": "channel",
    "noteNumber": 83,
    "channel": 0,
    "deltaTime": 120
  },
  {
    "subtype": "noteOn",
    "velocity": 0,
    "type": "channel",
    "noteNumber": 80,
    "channel": 0,
    "deltaTime": 120
  },
  {
    "subtype": "noteOff",
    "velocity": 0,
    "type": "channel",
    "noteNumber": 80,
    "channel": 0,
    "deltaTime": 0
  },
  {
    "subtype": "noteOff",
    "velocity": 0,
    "type": "channel",
    "noteNumber": 80,
    "channel": 0,
    "deltaTime": 0
  },
  {
    "subtype": "noteOff",
    "velocity": 0,
    "type": "channel",
    "noteNumber": 80,
    "channel": 0,
    "deltaTime": 0
  },
  {
    "subtype": "noteOn",
    "velocity": 0,
    "type": "channel",
    "noteNumber": 65,
    "channel": 0,
    "deltaTime": 120
  },
  {
    "subtype": "noteOn",
    "velocity": 0,
    "type": "channel",
    "noteNumber": 85,
    "channel": 0,
    "deltaTime": 120
  },
  {
    "subtype": "noteOn",
    "velocity": 0,
    "type": "channel",
    "noteNumber": 87,
    "channel": 0,
    "deltaTime": 120
  },
  {
    "subtype": "noteOff",
    "velocity": 0,
    "type": "channel",
    "noteNumber": 87,
    "channel": 0,
    "deltaTime": 0
  },
  {
    "subtype": "noteOn",
    "velocity": 0,
    "type": "channel",
    "noteNumber": 85,
    "channel": 0,
    "deltaTime": 120
  },
  {
    "subtype": "noteOn",
    "velocity": 0,
    "type": "channel",
    "noteNumber": 77,
    "channel": 0,
    "deltaTime": 120
  },
  {
    "subtype": "noteOff",
    "velocity": 0,
    "type": "channel",
    "noteNumber": 77,
    "channel": 0,
    "deltaTime": 0
  },
  {
    "subtype": "noteOff",
    "velocity": 0,
    "type": "channel",
    "noteNumber": 77,
    "channel": 0,
    "deltaTime": 0
  },
  {
    "subtype": "noteOn",
    "velocity": 0,
    "type": "channel",
    "noteNumber": 66,
    "channel": 0,
    "deltaTime": 120
  },
  {
    "subtype": "noteOn",
    "velocity": 0,
    "type": "channel",
    "noteNumber": 82,
    "channel": 0,
    "deltaTime": 120
  },
  {
    "subtype": "noteOn",
    "velocity": 0,
    "type": "channel",
    "noteNumber": 82,
    "channel": 0,
    "deltaTime": 120
  },
  {
    "subtype": "noteOn",
    "velocity": 0,
    "type": "channel",
    "noteNumber": 85,
    "channel": 0,
    "deltaTime": 120
  },
  {
    "subtype": "noteOn",
    "velocity": 0,
    "type": "channel",
    "noteNumber": 85,
    "channel": 0,
    "deltaTime": 120
  },
  {
    "subtype": "noteOn",
    "velocity": 0,
    "type": "channel",
    "noteNumber": 85,
    "channel": 0,
    "deltaTime": 120
  },
  {
    "subtype": "noteOn",
    "velocity": 0,
    "type": "channel",
    "noteNumber": 85,
    "channel": 0,
    "deltaTime": 120
  },
  {
    "subtype": "noteOn",
    "velocity": 0,
    "type": "channel",
    "noteNumber": 85,
    "channel": 0,
    "deltaTime": 120
  },
  {
    "subtype": "noteOn",
    "velocity": 0,
    "type": "channel",
    "noteNumber": 85,
    "channel": 0,
    "deltaTime": 120
  },
  {
    "subtype": "noteOn",
    "velocity": 0,
    "type": "channel",
    "noteNumber": 85,
    "channel": 0,
    "deltaTime": 120
  },
  {
    "subtype": "noteOn",
    "velocity": 0,
    "type": "channel",
    "noteNumber": 85,
    "channel": 0,
    "deltaTime": 120
  },
  {
    "subtype": "noteOn",
    "velocity": 0,
    "type": "channel",
    "noteNumber": 85,
    "channel": 0,
    "deltaTime": 120
  },
  {
    "subtype": "noteOn",
    "velocity": 0,
    "type": "channel",
    "noteNumber": 85,
    "channel": 0,
    "deltaTime": 120
  },
  {
    "subtype": "noteOn",
    "velocity": 0,
    "type": "channel",
    "noteNumber": 87,
    "channel": 0,
    "deltaTime": 120
  },
  {
    "subtype": "noteOn",
    "velocity": 0,
    "type": "channel",
    "noteNumber": 87,
    "channel": 0,
    "deltaTime": 120
  },
  {
    "subtype": "noteOff",
    "velocity": 0,
    "type": "channel",
    "noteNumber": 87,
    "channel": 0,
    "deltaTime": 0
  },
  {
    "subtype": "noteOn",
    "velocity": 0,
    "type": "channel",
    "noteNumber": 85,
    "channel": 0,
    "deltaTime": 120
  },
  {
    "subtype": "noteOn",
    "velocity": 0,
    "type": "channel",
    "noteNumber": 83,
    "channel": 0,
    "deltaTime": 120
  },
  {
    "subtype": "noteOn",
    "velocity": 0,
    "type": "channel",
    "noteNumber": 83,
    "channel": 0,
    "deltaTime": 120
  },
  {
    "subtype": "noteOn",
    "velocity": 0,
    "type": "channel",
    "noteNumber": 82,
    "channel": 0,
    "deltaTime": 120
  },
  {
    "subtype": "noteOn",
    "velocity": 0,
    "type": "channel",
    "noteNumber": 82,
    "channel": 0,
    "deltaTime": 120
  },
  {
    "subtype": "noteOn",
    "velocity": 0,
    "type": "channel",
    "noteNumber": 80,
    "channel": 0,
    "deltaTime": 120
  },
  {
    "subtype": "noteOn",
    "velocity": 0,
    "type": "channel",
    "noteNumber": 80,
    "channel": 0,
    "deltaTime": 120
  },
  {
    "subtype": "noteOn",
    "velocity": 0,
    "type": "channel",
    "noteNumber": 79,
    "channel": 0,
    "deltaTime": 120
  },
  {
    "subtype": "noteOn",
    "velocity": 0,
    "type": "channel",
    "noteNumber": 79,
    "channel": 0,
    "deltaTime": 120
  },
  {
    "subtype": "noteOn",
    "velocity": 0,
    "type": "channel",
    "noteNumber": 80,
    "channel": 0,
    "deltaTime": 120
  },
  {
    "subtype": "noteOn",
    "velocity": 0,
    "type": "channel",
    "noteNumber": 80,
    "channel": 0,
    "deltaTime": 120
  },
  {
    "subtype": "noteOn",
    "velocity": 0,
    "type": "channel",
    "noteNumber": 75,
    "channel": 0,
    "deltaTime": 120
  },
  {
    "subtype": "noteOn",
    "velocity": 0,
    "type": "channel",
    "noteNumber": 75,
    "channel": 0,
    "deltaTime": 120
  },
  {
    "subtype": "noteOff",
    "velocity": 0,
    "type": "channel",
    "noteNumber": 75,
    "channel": 0,
    "deltaTime": 0
  },
  {
    "subtype": "noteOn",
    "velocity": 0,
    "type": "channel",
    "noteNumber": 76,
    "channel": 0,
    "deltaTime": 120
  },
  {
    "subtype": "noteOff",
    "velocity": 0,
    "type": "channel",
    "noteNumber": 76,
    "channel": 0,
    "deltaTime": 0
  },
  {
    "subtype": "noteOn",
    "velocity": 0,
    "type": "channel",
    "noteNumber": 71,
    "channel": 0,
    "deltaTime": 120
  },
  {
    "subtype": "noteOff",
    "velocity": 0,
    "type": "channel",
    "noteNumber": 71,
    "channel": 0,
    "deltaTime": 0
  },
  {
    "subtype": "noteOn",
    "velocity": 0,
    "type": "channel",
    "noteNumber": 71,
    "channel": 0,
    "deltaTime": 120
  },
  {
    "subtype": "noteOff",
    "velocity": 0,
    "type": "channel",
    "noteNumber": 71,
    "channel": 0,
    "deltaTime": 0
  },
  {
    "subtype": "noteOn",
    "velocity": 0,
    "type": "channel",
    "noteNumber": 85,
    "channel": 0,
    "deltaTime": 120
  },
  {
    "subtype": "noteOn",
    "velocity": 0,
    "type": "channel",
    "noteNumber": 82,
    "channel": 0,
    "deltaTime": 120
  },
  {
    "subtype": "noteOn",
    "velocity": 0,
    "type": "channel",
    "noteNumber": 82,
    "channel": 0,
    "deltaTime": 120
  },
  {
    "subtype": "noteOn",
    "velocity": 0,
    "type": "channel",
    "noteNumber": 80,
    "channel": 0,
    "deltaTime": 120
  },
  {
    "subtype": "noteOn",
    "velocity": 0,
    "type": "channel",
    "noteNumber": 80,
    "channel": 0,
    "deltaTime": 120
  },
  {
    "subtype": "noteOff",
    "velocity": 0,
    "type": "channel",
    "noteNumber": 80,
    "channel": 0,
    "deltaTime": 0
  },
  {
    "subtype": "noteOn",
    "velocity": 0,
    "type": "channel",
    "noteNumber": 83,
    "channel": 0,
    "deltaTime": 120
  },
  {
    "subtype": "noteOn",
    "velocity": 0,
    "type": "channel",
    "noteNumber": 82,
    "channel": 0,
    "deltaTime": 120
  },
  {
    "subtype": "noteOn",
    "velocity": 0,
    "type": "channel",
    "noteNumber": 82,
    "channel": 0,
    "deltaTime": 120
  },
  {
    "subtype": "noteOff",
    "velocity": 0,
    "type": "channel",
    "noteNumber": 82,
    "channel": 0,
    "deltaTime": 0
  },
  {
    "subtype": "noteOn",
    "velocity": 0,
    "type": "channel",
    "noteNumber": 75,
    "channel": 0,
    "deltaTime": 120
  },
  {
    "subtype": "noteOn",
    "velocity": 0,
    "type": "channel",
    "noteNumber": 83,
    "channel": 0,
    "deltaTime": 120
  },
  {
    "subtype": "noteOn",
    "velocity": 0,
    "type": "channel",
    "noteNumber": 83,
    "channel": 0,
    "deltaTime": 120
  },
  {
    "subtype": "noteOn",
    "velocity": 0,
    "type": "channel",
    "noteNumber": 80,
    "channel": 0,
    "deltaTime": 120
  },
  {
    "subtype": "noteOn",
    "velocity": 0,
    "type": "channel",
    "noteNumber": 79,
    "channel": 0,
    "deltaTime": 120
  },
  {
    "subtype": "noteOff",
    "velocity": 0,
    "type": "channel",
    "noteNumber": 79,
    "channel": 0,
    "deltaTime": 0
  },
  {
    "subtype": "noteOn",
    "velocity": 0,
    "type": "channel",
    "noteNumber": 79,
    "channel": 0,
    "deltaTime": 120
  },
  {
    "subtype": "noteOn",
    "velocity": 0,
    "type": "channel",
    "noteNumber": 80,
    "channel": 0,
    "deltaTime": 120
  },
  {
    "subtype": "noteOn",
    "velocity": 0,
    "type": "channel",
    "noteNumber": 80,
    "channel": 0,
    "deltaTime": 120
  },
  {
    "subtype": "noteOn",
    "velocity": 0,
    "type": "channel",
    "noteNumber": 63,
    "channel": 0,
    "deltaTime": 120
  },
  {
    "subtype": "noteOn",
    "velocity": 0,
    "type": "channel",
    "noteNumber": 63,
    "channel": 0,
    "deltaTime": 120
  },
  {
    "subtype": "noteOff",
    "velocity": 0,
    "type": "channel",
    "noteNumber": 63,
    "channel": 0,
    "deltaTime": 0
  },
  {
    "subtype": "noteOn",
    "velocity": 0,
    "type": "channel",
    "noteNumber": 61,
    "channel": 0,
    "deltaTime": 120
  },
  {
    "subtype": "noteOn",
    "velocity": 0,
    "type": "channel",
    "noteNumber": 75,
    "channel": 0,
    "deltaTime": 120
  },
  {
    "subtype": "noteOn",
    "velocity": 0,
    "type": "channel",
    "noteNumber": 75,
    "channel": 0,
    "deltaTime": 120
  }
]