MFile 1 17 480
MTrk
0 Meta TrkName "untitled"
0 SMPTE 96 0 3 0 0
0 TimeSig 3/4 24 8
0 KeySig 0 major
0 Tempo 240000
1200 Tempo 600000
1440 Meta Marker "A"
33120 Meta Marker "A'"
64800 Meta Marker "B"
121920 Tempo 1200000
121920 Meta TrkEnd
TrkEnd
MTrk
0 Meta 0x21 00
0 Meta TrkName "Solo Flute"
0 PrCh ch=1 p=73
0 Par ch=1 c=7 v=100
0 Par ch=1 c=10 v=64
1200 On ch=1 n=76 v=100
1440 On ch=1 n=76 v=0
1440 On ch=1 n=69 v=100
1560 On ch=1 n=69 v=0
1560 On ch=1 n=71 v=100
1680 On ch=1 n=71 v=0
1680 On ch=1 n=72 v=100
1800 On ch=1 n=72 v=0
1800 On ch=1 n=74 v=100
1920 On ch=1 n=74 v=0
1920 On ch=1 n=76 v=100
2160 On ch=1 n=76 v=0
2160 On ch=1 n=78 v=100
2280 On ch=1 n=78 v=0
2280 On ch=1 n=80 v=100
2400 On ch=1 n=80 v=0
2400 On ch=1 n=81 v=100
2640 On ch=1 n=81 v=0
2640 On ch=1 n=83 v=100
2880 On ch=1 n=83 v=0
2880 On ch=1 n=84 v=100
3120 On ch=1 n=84 v=0
3120 On ch=1 n=69 v=100
3360 On ch=1 n=69 v=0
3360 On ch=1 n=67 v=100
3840 On ch=1 n=67 v=0
3840 On ch=1 n=83 v=100
4320 On ch=1 n=83 v=0
4320 On ch=1 n=65 v=100
4560 On ch=1 n=65 v=0
4560 On ch=1 n=81 v=100
4680 On ch=1 n=81 v=0
4680 On ch=1 n=80 v=100
4800 On ch=1 n=80 v=0
4800 On ch=1 n=81 v=100
5040 On ch=1 n=81 v=0
5040 On ch=1 n=64 v=100
5280 On ch=1 n=64 v=0
5280 On ch=1 n=62 v=100
5520 On ch=1 n=62 v=0
5520 On ch=1 n=83 v=100
5760 On ch=1 n=83 v=0
5760 On ch=1 n=80 v=100
5760 Pb ch=1 v=12288
5820 Pb ch=1 v=8192
5880 Pb ch=1 v=12288
5940 Pb ch=1 v=8192
6480 On ch=1 n=80 v=0
6480 On ch=1 n=83 v=100
6600 On ch=1 n=83 v=0
6600 On ch=1 n=81 v=100
6720 On ch=1 n=81 v=0
6720 On ch=1 n=80 v=100
6840 On ch=1 n=80 v=0
6840 On ch=1 n=77 v=100
6960 On ch=1 n=77 v=0
6960 On ch=1 n=76 v=100
7080 On ch=1 n=76 v=0
7080 On ch=1 n=74 v=100
7200 On ch=1 n=74 v=0
7200 On ch=1 n=72 v=100
7320 On ch=1 n=72 v=0
7320 On ch=1 n=74 v=100
7440 On ch=1 n=74 v=0
7440 On ch=1 n=76 v=100
7560 On ch=1 n=76 v=0
7560 On ch=1 n=72 v=100
7680 On ch=1 n=72 v=0
7680 On ch=1 n=69 v=100
7920 On ch=1 n=69 v=0
7920 On ch=1 n=84 v=100
8040 On ch=1 n=84 v=0
8040 On ch=1 n=83 v=100
8160 On ch=1 n=83 v=0
8160 On ch=1 n=81 v=100
8280 On ch=1 n=81 v=0
8280 On ch=1 n=79 v=100
8400 On ch=1 n=79 v=0
8400 On ch=1 n=77 v=100
8520 On ch=1 n=77 v=0
8520 On ch=1 n=76 v=100
8640 On ch=1 n=76 v=0
8640 On ch=1 n=74 v=100
8760 On ch=1 n=74 v=0
8760 On ch=1 n=76 v=100
8880 On ch=1 n=76 v=0
8880 On ch=1 n=77 v=100
9000 On ch=1 n=77 v=0
9000 On ch=1 n=74 v=100
9120 On ch=1 n=74 v=0
9120 On ch=1 n=71 v=100
9360 On ch=1 n=71 v=0
9360 On ch=1 n=86 v=100
9480 On ch=1 n=86 v=0
9480 On ch=1 n=84 v=100
9600 On ch=1 n=84 v=0
9600 On ch=1 n=83 v=100
9720 On ch=1 n=83 v=0
9720 On ch=1 n=81 v=100
9840 On ch=1 n=81 v=0
9840 On ch=1 n=79 v=100
9960 On ch=1 n=79 v=0
9960 On ch=1 n=77 v=100
10080 On ch=1 n=77 v=0
10080 On ch=1 n=76 v=100
10200 On ch=1 n=76 v=0
10200 On ch=1 n=77 v=100
10320 On ch=1 n=77 v=0
10320 On ch=1 n=79 v=100
10440 On ch=1 n=79 v=0
10440 On ch=1 n=76 v=100
10560 On ch=1 n=76 v=0
10560 On ch=1 n=72 v=100
10680 On ch=1 n=72 v=0
10680 On ch=1 n=74 v=100
10800 On ch=1 n=74 v=0
10800 On ch=1 n=76 v=100
10920 On ch=1 n=76 v=0
10920 On ch=1 n=72 v=100
11040 On ch=1 n=72 v=0
11040 On ch=1 n=77 v=100
11160 On ch=1 n=77 v=0
11160 On ch=1 n=79 v=100
11280 On ch=1 n=79 v=0
11280 On ch=1 n=81 v=100
11400 On ch=1 n=81 v=0
11400 On ch=1 n=77 v=100
11520 On ch=1 n=77 v=0
11520 On ch=1 n=74 v=100
11640 On ch=1 n=74 v=0
11640 On ch=1 n=76 v=100
11760 On ch=1 n=76 v=0
11760 On ch=1 n=77 v=100
11880 On ch=1 n=77 v=0
11880 On ch=1 n=74 v=100
12000 On ch=1 n=74 v=0
12000 On ch=1 n=71 v=100
12120 On ch=1 n=71 v=0
12120 On ch=1 n=72 v=100
12240 On ch=1 n=72 v=0
12240 On ch=1 n=74 v=100
12360 On ch=1 n=74 v=0
12360 On ch=1 n=71 v=100
12480 On ch=1 n=71 v=0
12480 On ch=1 n=76 v=100
12600 On ch=1 n=76 v=0
12600 On ch=1 n=77 v=100
12720 On ch=1 n=77 v=0
12720 On ch=1 n=79 v=100
12840 On ch=1 n=79 v=0
12840 On ch=1 n=76 v=100
12960 On ch=1 n=76 v=0
12960 On ch=1 n=72 v=100
13080 On ch=1 n=72 v=0
13080 On ch=1 n=74 v=100
13200 On ch=1 n=74 v=0
13200 On ch=1 n=76 v=100
13320 On ch=1 n=76 v=0
13320 On ch=1 n=72 v=100
13440 On ch=1 n=72 v=0
13440 On ch=1 n=69 v=100
13560 On ch=1 n=69 v=0
13560 On ch=1 n=71 v=100
13680 On ch=1 n=71 v=0
13680 On ch=1 n=72 v=100
13800 On ch=1 n=72 v=0
13800 On ch=1 n=69 v=100
13920 On ch=1 n=69 v=0
13920 On ch=1 n=74 v=100
14040 On ch=1 n=74 v=0
14040 On ch=1 n=76 v=100
14160 On ch=1 n=76 v=0
14160 On ch=1 n=77 v=100
14280 On ch=1 n=77 v=0
14280 On ch=1 n=74 v=100
14400 On ch=1 n=74 v=0
14400 On ch=1 n=71 v=100
14400 Pb ch=1 v=16383
14460 Pb ch=1 v=8192
14520 Pb ch=1 v=16383
14580 Pb ch=1 v=8192
14640 Pb ch=1 v=16383
14700 Pb ch=1 v=8192
14760 Pb ch=1 v=16383
14820 On ch=1 n=71 v=0
14820 Pb ch=1 v=8192
14820 On ch=1 n=69 v=100
14880 On ch=1 n=69 v=0
14880 On ch=1 n=71 v=100
15000 On ch=1 n=71 v=0
15120 On ch=1 n=67 v=100
15240 On ch=1 n=67 v=0
15240 On ch=1 n=69 v=100
15360 On ch=1 n=69 v=0
15360 On ch=1 n=71 v=100
15480 On ch=1 n=71 v=0
15480 On ch=1 n=72 v=100
15600 On ch=1 n=72 v=0
15600 On ch=1 n=74 v=100
15720 On ch=1 n=74 v=0
15720 On ch=1 n=76 v=100
15840 On ch=1 n=76 v=0
15840 On ch=1 n=77 v=100
16080 On ch=1 n=77 v=0
16080 On ch=1 n=68 v=100
16200 On ch=1 n=68 v=0
16200 On ch=1 n=69 v=100
16320 On ch=1 n=69 v=0
16320 On ch=1 n=71 v=100
16560 On ch=1 n=71 v=0
16560 On ch=1 n=74 v=100
16800 On ch=1 n=74 v=0
16800 On ch=1 n=76 v=100
16920 On ch=1 n=76 v=0
16920 On ch=1 n=74 v=100
17040 On ch=1 n=74 v=0
17040 On ch=1 n=72 v=100
17160 On ch=1 n=72 v=0
17160 On ch=1 n=71 v=100
17280 On ch=1 n=71 v=0
17280 On ch=1 n=72 v=100
17400 On ch=1 n=72 v=0
17400 On ch=1 n=71 v=100
17520 On ch=1 n=71 v=0
17520 On ch=1 n=69 v=100
17640 On ch=1 n=69 v=0
17640 On ch=1 n=76 v=100
17760 On ch=1 n=76 v=0
17760 On ch=1 n=72 v=100
17880 On ch=1 n=72 v=0
17880 On ch=1 n=71 v=100
18000 On ch=1 n=71 v=0
18000 On ch=1 n=69 v=100
18120 On ch=1 n=69 v=0
18120 On ch=1 n=76 v=100
18240 On ch=1 n=76 v=0
18240 On ch=1 n=81 v=100
18360 On ch=1 n=81 v=0
18360 On ch=1 n=80 v=100
18480 On ch=1 n=80 v=0
18480 On ch=1 n=81 v=100
18600 On ch=1 n=81 v=0
18600 On ch=1 n=72 v=100
18720 On ch=1 n=72 v=0
18720 On ch=1 n=63 v=100
18840 On ch=1 n=63 v=0
18840 On ch=1 n=72 v=100
18960 On ch=1 n=72 v=0
18960 On ch=1 n=81 v=100
19080 On ch=1 n=81 v=0
19080 On ch=1 n=81 v=100
19200 On ch=1 n=81 v=0
19200 On ch=1 n=63 v=100
19320 On ch=1 n=63 v=0
19320 On ch=1 n=72 v=100
19440 On ch=1 n=72 v=0
19440 On ch=1 n=81 v=100
19560 On ch=1 n=81 v=0
19560 On ch=1 n=81 v=100
19680 On ch=1 n=81 v=0
19680 On ch=1 n=71 v=100
19800 On ch=1 n=71 v=0
19800 On ch=1 n=81 v=100
19920 On ch=1 n=81 v=0
19920 On ch=1 n=79 v=100
20040 On ch=1 n=79 v=0
20040 On ch=1 n=78 v=100
20160 On ch=1 n=78 v=0
20160 On ch=1 n=79 v=100
20280 On ch=1 n=79 v=0
20280 On ch=1 n=78 v=100
20400 On ch=1 n=78 v=0
20400 On ch=1 n=76 v=100
20520 On ch=1 n=76 v=0
20520 On ch=1 n=83 v=100
20640 On ch=1 n=83 v=0
20640 On ch=1 n=79 v=100
20760 On ch=1 n=79 v=0
20760 On ch=1 n=78 v=100
20880 On ch=1 n=78 v=0
20880 On ch=1 n=76 v=100
21000 On ch=1 n=76 v=0
21000 On ch=1 n=83 v=100
21120 On ch=1 n=83 v=0
21120 On ch=1 n=84 v=100
21240 On ch=1 n=84 v=0
21240 On ch=1 n=83 v=100
21360 On ch=1 n=83 v=0
21360 On ch=1 n=84 v=100
21480 On ch=1 n=84 v=0
21480 On ch=1 n=76 v=100
21600 On ch=1 n=76 v=0
21600 On ch=1 n=66 v=100
21720 On ch=1 n=66 v=0
21720 On ch=1 n=74 v=100
21840 On ch=1 n=74 v=0
21840 On ch=1 n=84 v=100
21960 On ch=1 n=84 v=0
21960 On ch=1 n=84 v=100
22080 On ch=1 n=84 v=0
22080 On ch=1 n=68 v=100
22200 On ch=1 n=68 v=0
22200 On ch=1 n=74 v=100
22320 On ch=1 n=74 v=0
22320 On ch=1 n=83 v=100
22440 On ch=1 n=83 v=0
22440 On ch=1 n=74 v=100
22560 On ch=1 n=74 v=0
22560 On ch=1 n=68 v=100
22680 On ch=1 n=68 v=0
22680 On ch=1 n=74 v=100
22800 On ch=1 n=74 v=0
22800 On ch=1 n=72 v=100
22920 On ch=1 n=72 v=0
22920 On ch=1 n=71 v=100
23040 On ch=1 n=71 v=0
23040 On ch=1 n=69 v=100
23160 On ch=1 n=69 v=0
23160 On ch=1 n=71 v=100
23280 On ch=1 n=71 v=0
23280 On ch=1 n=72 v=100
23400 On ch=1 n=72 v=0
23400 On ch=1 n=76 v=100
23520 On ch=1 n=76 v=0
23520 On ch=1 n=69 v=100
23640 On ch=1 n=69 v=0
23640 On ch=1 n=71 v=100
23760 On ch=1 n=71 v=0
23760 On ch=1 n=72 v=100
23880 On ch=1 n=72 v=0
23880 On ch=1 n=76 v=100
24000 On ch=1 n=76 v=0
24000 On ch=1 n=81 v=100
24120 On ch=1 n=81 v=0
24120 On ch=1 n=83 v=100
24240 On ch=1 n=83 v=0
24240 On ch=1 n=84 v=100
24360 On ch=1 n=84 v=0
24360 On ch=1 n=81 v=100
24480 On ch=1 n=81 v=0
24480 On ch=1 n=87 v=100
25200 On ch=1 n=87 v=0
25200 On ch=1 n=69 v=100
25320 On ch=1 n=69 v=0
25320 On ch=1 n=72 v=100
25440 On ch=1 n=72 v=0
25440 On ch=1 n=71 v=100
25560 On ch=1 n=71 v=0
25560 On ch=1 n=69 v=100
25680 On ch=1 n=69 v=0
25680 On ch=1 n=67 v=100
25800 On ch=1 n=67 v=0
25800 On ch=1 n=66 v=100
25920 On ch=1 n=66 v=0
25920 On ch=1 n=67 v=100
26040 On ch=1 n=67 v=0
26040 On ch=1 n=71 v=100
26160 On ch=1 n=71 v=0
26160 On ch=1 n=76 v=100
26280 On ch=1 n=76 v=0
26280 On ch=1 n=83 v=100
26400 On ch=1 n=83 v=0
26400 On ch=1 n=81 v=100
26520 On ch=1 n=81 v=0
26520 On ch=1 n=79 v=100
26640 On ch=1 n=79 v=0
26640 On ch=1 n=78 v=100
26760 On ch=1 n=78 v=0
26760 On ch=1 n=76 v=100
26880 On ch=1 n=76 v=0
26880 On ch=1 n=79 v=100
27000 On ch=1 n=79 v=0
27000 On ch=1 n=78 v=100
27120 On ch=1 n=78 v=0
27120 On ch=1 n=76 v=100
27240 On ch=1 n=76 v=0
27240 On ch=1 n=75 v=100
27360 On ch=1 n=75 v=0
27360 On ch=1 n=76 v=100
27600 On ch=1 n=76 v=0
27600 On ch=1 n=70 v=100
27720 On ch=1 n=70 v=0
27720 On ch=1 n=71 v=100
27840 On ch=1 n=71 v=0
27840 On ch=1 n=73 v=100
28080 On ch=1 n=73 v=0
28080 On ch=1 n=76 v=100
28320 On ch=1 n=76 v=0
28320 On ch=1 n=78 v=100
28440 On ch=1 n=78 v=0
28440 On ch=1 n=76 v=100
28560 On ch=1 n=76 v=0
28560 On ch=1 n=74 v=100
28680 On ch=1 n=74 v=0
28680 On ch=1 n=73 v=100
28800 On ch=1 n=73 v=0
28800 On ch=1 n=75 v=100
29040 On ch=1 n=75 v=0
29040 On ch=1 n=78 v=100
29160 On ch=1 n=78 v=0
29160 On ch=1 n=79 v=100
29280 On ch=1 n=79 v=0
29280 On ch=1 n=81 v=100
29520 On ch=1 n=81 v=0
29520 On ch=1 n=78 v=100
29760 On ch=1 n=78 v=0
29760 On ch=1 n=76 v=100
29880 On ch=1 n=76 v=0
29880 On ch=1 n=75 v=100
30000 On ch=1 n=75 v=0
30000 On ch=1 n=73 v=100
30120 On ch=1 n=73 v=0
30120 On ch=1 n=71 v=100
30240 On ch=1 n=71 v=0
30240 On ch=1 n=69 v=100
30360 On ch=1 n=69 v=0
30360 On ch=1 n=66 v=100
30480 On ch=1 n=66 v=0
30480 On ch=1 n=67 v=100
30600 On ch=1 n=67 v=0
30600 On ch=1 n=71 v=100
30720 On ch=1 n=71 v=0
30720 On ch=1 n=76 v=100
30840 On ch=1 n=76 v=0
30840 On ch=1 n=79 v=100
30960 On ch=1 n=79 v=0
30960 On ch=1 n=83 v=100
31080 On ch=1 n=83 v=0
31080 On ch=1 n=76 v=100
31200 On ch=1 n=76 v=0
31200 On ch=1 n=71 v=100
31440 On ch=1 n=71 v=0
31440 On ch=1 n=75 v=100
31680 On ch=1 n=75 v=0
31680 On ch=1 n=76 v=100
31800 On ch=1 n=76 v=0
31800 On ch=1 n=71 v=100
31920 On ch=1 n=71 v=0
31920 On ch=1 n=72 v=100
32040 On ch=1 n=72 v=0
32040 On ch=1 n=69 v=100
32160 On ch=1 n=69 v=0
32160 On ch=1 n=67 v=100
32280 On ch=1 n=67 v=0
32280 On ch=1 n=76 v=100
32400 On ch=1 n=76 v=0
32400 On ch=1 n=66 v=100
32520 On ch=1 n=66 v=0
32520 On ch=1 n=75 v=100
32640 On ch=1 n=75 v=0
32640 On ch=1 n=64 v=100
32880 On ch=1 n=64 v=0
32880 On ch=1 n=76 v=100
33120 On ch=1 n=76 v=0
33120 On ch=1 n=69 v=100
33240 On ch=1 n=69 v=0
33240 On ch=1 n=71 v=100
33360 On ch=1 n=71 v=0
33360 On ch=1 n=72 v=100
33480 On ch=1 n=72 v=0
33480 On ch=1 n=74 v=100
33600 On ch=1 n=74 v=0
33600 On ch=1 n=76 v=100
33840 On ch=1 n=76 v=0
33840 On ch=1 n=78 v=100
33960 On ch=1 n=78 v=0
33960 On ch=1 n=80 v=100
34080 On ch=1 n=80 v=0
34080 On ch=1 n=81 v=100
34320 On ch=1 n=81 v=0
34320 On ch=1 n=83 v=100
34560 On ch=1 n=83 v=0
34560 On ch=1 n=84 v=100
34800 On ch=1 n=84 v=0
34800 On ch=1 n=69 v=100
35040 On ch=1 n=69 v=0
35040 On ch=1 n=67 v=100
35520 On ch=1 n=67 v=0
35520 On ch=1 n=83 v=100
36000 On ch=1 n=83 v=0
36000 On ch=1 n=65 v=100
36240 On ch=1 n=65 v=0
36240 On ch=1 n=81 v=100
36360 On ch=1 n=81 v=0
36360 On ch=1 n=80 v=100
36480 On ch=1 n=80 v=0
36480 On ch=1 n=81 v=100
36720 On ch=1 n=81 v=0
36720 On ch=1 n=64 v=100
36960 On ch=1 n=64 v=0
36960 On ch=1 n=62 v=100
37200 On ch=1 n=62 v=0
37200 On ch=1 n=83 v=100
37436 Pb ch=1 v=12288
37440 On ch=1 n=83 v=0
37440 On ch=1 n=80 v=100
37500 Pb ch=1 v=8192
37560 Pb ch=1 v=12288
37620 Pb ch=1 v=8192
38160 On ch=1 n=80 v=0
38160 On ch=1 n=83 v=100
38280 On ch=1 n=83 v=0
38280 On ch=1 n=81 v=100
38400 On ch=1 n=81 v=0
38400 On ch=1 n=80 v=100
38520 On ch=1 n=80 v=0
38520 On ch=1 n=77 v=100
38640 On ch=1 n=77 v=0
38640 On ch=1 n=76 v=100
38760 On ch=1 n=76 v=0
38760 On ch=1 n=74 v=100
38880 On ch=1 n=74 v=0
38880 On ch=1 n=72 v=100
39000 On ch=1 n=72 v=0
39000 On ch=1 n=74 v=100
39120 On ch=1 n=74 v=0
39120 On ch=1 n=76 v=100
39240 On ch=1 n=76 v=0
39240 On ch=1 n=72 v=100
39360 On ch=1 n=72 v=0
39360 On ch=1 n=69 v=100
39600 On ch=1 n=69 v=0
39600 On ch=1 n=84 v=100
39720 On ch=1 n=84 v=0
39720 On ch=1 n=83 v=100
39840 On ch=1 n=83 v=0
39840 On ch=1 n=81 v=100
39960 On ch=1 n=81 v=0
39960 On ch=1 n=79 v=100
40080 On ch=1 n=79 v=0
40080 On ch=1 n=77 v=100
40200 On ch=1 n=77 v=0
40200 On ch=1 n=76 v=100
40320 On ch=1 n=76 v=0
40320 On ch=1 n=74 v=100
40440 On ch=1 n=74 v=0
40440 On ch=1 n=76 v=100
40560 On ch=1 n=76 v=0
40560 On ch=1 n=77 v=100
40680 On ch=1 n=77 v=0
40680 On ch=1 n=74 v=100
40800 On ch=1 n=74 v=0
40800 On ch=1 n=71 v=100
41040 On ch=1 n=71 v=0
41040 On ch=1 n=86 v=100
41160 On ch=1 n=86 v=0
41160 On ch=1 n=84 v=100
41280 On ch=1 n=84 v=0
41280 On ch=1 n=83 v=100
41400 On ch=1 n=83 v=0
41400 On ch=1 n=81 v=100
41520 On ch=1 n=81 v=0
41520 On ch=1 n=79 v=100
41640 On ch=1 n=79 v=0
41640 On ch=1 n=77 v=100
41760 On ch=1 n=77 v=0
41760 On ch=1 n=76 v=100
41880 On ch=1 n=76 v=0
41880 On ch=1 n=77 v=100
42000 On ch=1 n=77 v=0
42000 On ch=1 n=79 v=100
42120 On ch=1 n=79 v=0
42120 On ch=1 n=76 v=100
42240 On ch=1 n=76 v=0
42240 On ch=1 n=72 v=100
42360 On ch=1 n=72 v=0
42360 On ch=1 n=74 v=100
42480 On ch=1 n=74 v=0
42480 On ch=1 n=76 v=100
42600 On ch=1 n=76 v=0
42600 On ch=1 n=72 v=100
42720 On ch=1 n=72 v=0
42720 On ch=1 n=77 v=100
42840 On ch=1 n=77 v=0
42840 On ch=1 n=79 v=100
42960 On ch=1 n=79 v=0
42960 On ch=1 n=81 v=100
43080 On ch=1 n=81 v=0
43080 On ch=1 n=77 v=100
43200 On ch=1 n=77 v=0
43200 On ch=1 n=74 v=100
43320 On ch=1 n=74 v=0
43320 On ch=1 n=76 v=100
43440 On ch=1 n=76 v=0
43440 On ch=1 n=77 v=100
43560 On ch=1 n=77 v=0
43560 On ch=1 n=74 v=100
43680 On ch=1 n=74 v=0
43680 On ch=1 n=71 v=100
43800 On ch=1 n=71 v=0
43800 On ch=1 n=72 v=100
43920 On ch=1 n=72 v=0
43920 On ch=1 n=74 v=100
44040 On ch=1 n=74 v=0
44040 On ch=1 n=71 v=100
44160 On ch=1 n=71 v=0
44160 On ch=1 n=76 v=100
44280 On ch=1 n=76 v=0
44280 On ch=1 n=77 v=100
44400 On ch=1 n=77 v=0
44400 On ch=1 n=79 v=100
44520 On ch=1 n=79 v=0
44520 On ch=1 n=76 v=100
44640 On ch=1 n=76 v=0
44640 On ch=1 n=72 v=100
44760 On ch=1 n=72 v=0
44760 On ch=1 n=74 v=100
44880 On ch=1 n=74 v=0
44880 On ch=1 n=76 v=100
45000 On ch=1 n=76 v=0
45000 On ch=1 n=72 v=100
45120 On ch=1 n=72 v=0
45120 On ch=1 n=69 v=100
45240 On ch=1 n=69 v=0
45240 On ch=1 n=71 v=100
45360 On ch=1 n=71 v=0
45360 On ch=1 n=72 v=100
45480 On ch=1 n=72 v=0
45480 On ch=1 n=69 v=100
45600 On ch=1 n=69 v=0
45600 On ch=1 n=74 v=100
45720 On ch=1 n=74 v=0
45720 On ch=1 n=76 v=100
45840 On ch=1 n=76 v=0
45840 On ch=1 n=77 v=100
45960 On ch=1 n=77 v=0
45960 On ch=1 n=74 v=100
46080 On ch=1 n=74 v=0
46080 On ch=1 n=71 v=100
46080 Pb ch=1 v=16383
46140 Pb ch=1 v=8192
46200 Pb ch=1 v=16383
46260 Pb ch=1 v=8192
46320 Pb ch=1 v=16383
46380 Pb ch=1 v=8192
46440 Pb ch=1 v=16383
46500 On ch=1 n=71 v=0
46500 Pb ch=1 v=8192
46500 On ch=1 n=69 v=100
46560 On ch=1 n=69 v=0
46560 On ch=1 n=71 v=100
46680 On ch=1 n=71 v=0
46800 On ch=1 n=67 v=100
46920 On ch=1 n=67 v=0
46920 On ch=1 n=69 v=100
47040 On ch=1 n=69 v=0
47040 On ch=1 n=71 v=100
47160 On ch=1 n=71 v=0
47160 On ch=1 n=72 v=100
47280 On ch=1 n=72 v=0
47280 On ch=1 n=74 v=100
47400 On ch=1 n=74 v=0
47400 On ch=1 n=76 v=100
47520 On ch=1 n=76 v=0
47520 On ch=1 n=77 v=100
47760 On ch=1 n=77 v=0
47760 On ch=1 n=68 v=100
47880 On ch=1 n=68 v=0
47880 On ch=1 n=69 v=100
48000 On ch=1 n=69 v=0
48000 On ch=1 n=71 v=100
48240 On ch=1 n=71 v=0
48240 On ch=1 n=74 v=100
48480 On ch=1 n=74 v=0
48480 On ch=1 n=76 v=100
48600 On ch=1 n=76 v=0
48600 On ch=1 n=74 v=100
48720 On ch=1 n=74 v=0
48720 On ch=1 n=72 v=100
48840 On ch=1 n=72 v=0
48840 On ch=1 n=71 v=100
48960 On ch=1 n=71 v=0
48960 On ch=1 n=72 v=100
49080 On ch=1 n=72 v=0
49080 On ch=1 n=71 v=100
49200 On ch=1 n=71 v=0
49200 On ch=1 n=69 v=100
49320 On ch=1 n=69 v=0
49320 On ch=1 n=76 v=100
49440 On ch=1 n=76 v=0
49440 On ch=1 n=72 v=100
49560 On ch=1 n=72 v=0
49560 On ch=1 n=71 v=100
49680 On ch=1 n=71 v=0
49680 On ch=1 n=69 v=100
49800 On ch=1 n=69 v=0
49800 On ch=1 n=76 v=100
49920 On ch=1 n=76 v=0
49920 On ch=1 n=81 v=100
50040 On ch=1 n=81 v=0
50040 On ch=1 n=80 v=100
50160 On ch=1 n=80 v=0
50160 On ch=1 n=81 v=100
50280 On ch=1 n=81 v=0
50280 On ch=1 n=72 v=100
50400 On ch=1 n=72 v=0
50400 On ch=1 n=63 v=100
50520 On ch=1 n=63 v=0
50520 On ch=1 n=72 v=100
50640 On ch=1 n=72 v=0
50640 On ch=1 n=81 v=100
50760 On ch=1 n=81 v=0
50760 On ch=1 n=81 v=100
50880 On ch=1 n=81 v=0
50880 On ch=1 n=63 v=100
51000 On ch=1 n=63 v=0
51000 On ch=1 n=72 v=100
51120 On ch=1 n=72 v=0
51120 On ch=1 n=81 v=100
51240 On ch=1 n=81 v=0
51240 On ch=1 n=81 v=100
51360 On ch=1 n=81 v=0
51360 On ch=1 n=71 v=100
51480 On ch=1 n=71 v=0
51480 On ch=1 n=81 v=100
51600 On ch=1 n=81 v=0
51600 On ch=1 n=79 v=100
51720 On ch=1 n=79 v=0
51720 On ch=1 n=78 v=100
51840 On ch=1 n=78 v=0
51840 On ch=1 n=79 v=100
51960 On ch=1 n=79 v=0
51960 On ch=1 n=78 v=100
52080 On ch=1 n=78 v=0
52080 On ch=1 n=76 v=100
52200 On ch=1 n=76 v=0
52200 On ch=1 n=83 v=100
52320 On ch=1 n=83 v=0
52320 On ch=1 n=79 v=100
52440 On ch=1 n=79 v=0
52440 On ch=1 n=78 v=100
52560 On ch=1 n=78 v=0
52560 On ch=1 n=76 v=100
52680 On ch=1 n=76 v=0
52680 On ch=1 n=83 v=100
52800 On ch=1 n=83 v=0
52800 On ch=1 n=84 v=100
52920 On ch=1 n=84 v=0
52920 On ch=1 n=83 v=100
53040 On ch=1 n=83 v=0
53040 On ch=1 n=84 v=100
53160 On ch=1 n=84 v=0
53160 On ch=1 n=76 v=100
53280 On ch=1 n=76 v=0
53280 On ch=1 n=66 v=100
53400 On ch=1 n=66 v=0
53400 On ch=1 n=74 v=100
53520 On ch=1 n=74 v=0
53520 On ch=1 n=84 v=100
53640 On ch=1 n=84 v=0
53640 On ch=1 n=84 v=100
53760 On ch=1 n=84 v=0
53760 On ch=1 n=68 v=100
53880 On ch=1 n=68 v=0
53880 On ch=1 n=74 v=100
54000 On ch=1 n=74 v=0
54000 On ch=1 n=83 v=100
54120 On ch=1 n=83 v=0
54120 On ch=1 n=74 v=100
54240 On ch=1 n=74 v=0
54240 On ch=1 n=68 v=100
54360 On ch=1 n=68 v=0
54360 On ch=1 n=74 v=100
54480 On ch=1 n=74 v=0
54480 On ch=1 n=72 v=100
54600 On ch=1 n=72 v=0
54600 On ch=1 n=71 v=100
54720 On ch=1 n=71 v=0
54720 On ch=1 n=69 v=100
54840 On ch=1 n=69 v=0
54840 On ch=1 n=71 v=100
54960 On ch=1 n=71 v=0
54960 On ch=1 n=72 v=100
55080 On ch=1 n=72 v=0
55080 On ch=1 n=76 v=100
55200 On ch=1 n=76 v=0
55200 On ch=1 n=69 v=100
55320 On ch=1 n=69 v=0
55320 On ch=1 n=71 v=100
55440 On ch=1 n=71 v=0
55440 On ch=1 n=72 v=100
55560 On ch=1 n=72 v=0
55560 On ch=1 n=76 v=100
55680 On ch=1 n=76 v=0
55680 On ch=1 n=81 v=100
55800 On ch=1 n=81 v=0
55800 On ch=1 n=83 v=100
55920 On ch=1 n=83 v=0
55920 On ch=1 n=84 v=100
56040 On ch=1 n=84 v=0
56040 On ch=1 n=81 v=100
56160 On ch=1 n=81 v=0
56160 On ch=1 n=87 v=100
56880 On ch=1 n=87 v=0
56880 On ch=1 n=69 v=100
57000 On ch=1 n=69 v=0
57000 On ch=1 n=72 v=100
57120 On ch=1 n=72 v=0
57120 On ch=1 n=71 v=100
57240 On ch=1 n=71 v=0
57240 On ch=1 n=69 v=100
57360 On ch=1 n=69 v=0
57360 On ch=1 n=67 v=100
57480 On ch=1 n=67 v=0
57480 On ch=1 n=66 v=100
57600 On ch=1 n=66 v=0
57600 On ch=1 n=67 v=100
57720 On ch=1 n=67 v=0
57720 On ch=1 n=71 v=100
57840 On ch=1 n=71 v=0
57840 On ch=1 n=76 v=100
57960 On ch=1 n=76 v=0
57960 On ch=1 n=83 v=100
58080 On ch=1 n=83 v=0
58080 On ch=1 n=81 v=100
58200 On ch=1 n=81 v=0
58200 On ch=1 n=79 v=100
58320 On ch=1 n=79 v=0
58320 On ch=1 n=78 v=100
58440 On ch=1 n=78 v=0
58440 On ch=1 n=76 v=100
58560 On ch=1 n=76 v=0
58560 On ch=1 n=79 v=100
58680 On ch=1 n=79 v=0
58680 On ch=1 n=78 v=100
58800 On ch=1 n=78 v=0
58800 On ch=1 n=76 v=100
58920 On ch=1 n=76 v=0
58920 On ch=1 n=75 v=100
59040 On ch=1 n=75 v=0
59040 On ch=1 n=76 v=100
59280 On ch=1 n=76 v=0
59280 On ch=1 n=70 v=100
59400 On ch=1 n=70 v=0
59400 On ch=1 n=71 v=100
59520 On ch=1 n=71 v=0
59520 On ch=1 n=73 v=100
59760 On ch=1 n=73 v=0
59760 On ch=1 n=76 v=100
60000 On ch=1 n=76 v=0
60000 On ch=1 n=78 v=100
60120 On ch=1 n=78 v=0
60120 On ch=1 n=76 v=100
60240 On ch=1 n=76 v=0
60240 On ch=1 n=74 v=100
60360 On ch=1 n=74 v=0
60360 On ch=1 n=73 v=100
60480 On ch=1 n=73 v=0
60480 On ch=1 n=75 v=100
60720 On ch=1 n=75 v=0
60720 On ch=1 n=78 v=100
60840 On ch=1 n=78 v=0
60840 On ch=1 n=79 v=100
60960 On ch=1 n=79 v=0
60960 On ch=1 n=81 v=100
61200 On ch=1 n=81 v=0
61200 On ch=1 n=78 v=100
61440 On ch=1 n=78 v=0
61440 On ch=1 n=76 v=100
61560 On ch=1 n=76 v=0
61560 On ch=1 n=75 v=100
61680 On ch=1 n=75 v=0
61680 On ch=1 n=73 v=100
61800 On ch=1 n=73 v=0
61800 On ch=1 n=71 v=100
61920 On ch=1 n=71 v=0
61920 On ch=1 n=69 v=100
62040 On ch=1 n=69 v=0
62040 On ch=1 n=66 v=100
62160 On ch=1 n=66 v=0
62160 On ch=1 n=67 v=100
62280 On ch=1 n=67 v=0
62280 On ch=1 n=71 v=100
62400 On ch=1 n=71 v=0
62400 On ch=1 n=76 v=100
62520 On ch=1 n=76 v=0
62520 On ch=1 n=79 v=100
62640 On ch=1 n=79 v=0
62640 On ch=1 n=83 v=100
62760 On ch=1 n=83 v=0
62760 On ch=1 n=76 v=100
62880 On ch=1 n=76 v=0
62880 On ch=1 n=71 v=100
63120 On ch=1 n=71 v=0
63120 On ch=1 n=75 v=100
63360 On ch=1 n=75 v=0
63360 On ch=1 n=76 v=100
63480 On ch=1 n=76 v=0
63480 On ch=1 n=71 v=100
63600 On ch=1 n=71 v=0
63600 On ch=1 n=72 v=100
63720 On ch=1 n=72 v=0
63720 On ch=1 n=69 v=100
63840 On ch=1 n=69 v=0
63840 On ch=1 n=67 v=100
63960 On ch=1 n=67 v=0
63960 On ch=1 n=76 v=100
64080 On ch=1 n=76 v=0
64080 On ch=1 n=66 v=100
64200 On ch=1 n=66 v=0
64200 On ch=1 n=75 v=100
64320 On ch=1 n=75 v=0
64320 On ch=1 n=64 v=100
64560 On ch=1 n=64 v=0
64560 On ch=1 n=71 v=100
64800 On ch=1 n=71 v=0
64800 On ch=1 n=64 v=100
64920 On ch=1 n=64 v=0
64920 On ch=1 n=66 v=100
65040 On ch=1 n=66 v=0
65040 On ch=1 n=68 v=100
65160 On ch=1 n=68 v=0
65160 On ch=1 n=69 v=100
65280 On ch=1 n=69 v=0
65280 On ch=1 n=71 v=100
65400 On ch=1 n=71 v=0
65400 On ch=1 n=72 v=100
65520 On ch=1 n=72 v=0
65520 On ch=1 n=74 v=100
65640 On ch=1 n=74 v=0
65640 On ch=1 n=76 v=100
65760 On ch=1 n=76 v=0
65760 On ch=1 n=77 v=127
66000 On ch=1 n=77 v=0
66000 On ch=1 n=76 v=100
66120 On ch=1 n=76 v=0
66120 On ch=1 n=74 v=100
66240 On ch=1 n=74 v=0
66240 On ch=1 n=72 v=127
66480 On ch=1 n=72 v=0
66480 On ch=1 n=69 v=127
66720 On ch=1 n=69 v=0
66720 On ch=1 n=84 v=127
67200 On ch=1 n=84 v=0
67200 On ch=1 n=67 v=127
67680 On ch=1 n=67 v=0
67680 On ch=1 n=66 v=127
67920 On ch=1 n=66 v=0
67920 On ch=1 n=84 v=100
68040 On ch=1 n=84 v=0
68040 On ch=1 n=83 v=100
68160 On ch=1 n=83 v=0
68160 On ch=1 n=84 v=127
68400 On ch=1 n=84 v=0
68400 On ch=1 n=64 v=127
68640 On ch=1 n=64 v=0
68640 On ch=1 n=62 v=127
68880 On ch=1 n=62 v=0
68880 On ch=1 n=84 v=127
69120 On ch=1 n=84 v=0
69120 On ch=1 n=83 v=100
69240 On ch=1 n=83 v=0
69240 On ch=1 n=84 v=100
69360 On ch=1 n=84 v=0
69360 On ch=1 n=86 v=100
69480 On ch=1 n=86 v=0
69480 On ch=1 n=83 v=100
69600 On ch=1 n=83 v=0
69600 On ch=1 n=79 v=127
70200 On ch=1 n=79 v=0
70200 On ch=1 n=77 v=100
70320 On ch=1 n=77 v=0
70320 On ch=1 n=76 v=100
70440 On ch=1 n=76 v=0
70440 On ch=1 n=74 v=100
70560 On ch=1 n=74 v=0
70560 On ch=1 n=72 v=100
70680 On ch=1 n=72 v=0
70680 On ch=1 n=71 v=100
70800 On ch=1 n=71 v=0
70800 On ch=1 n=69 v=100
70920 On ch=1 n=69 v=0
70920 On ch=1 n=72 v=100
71040 On ch=1 n=72 v=0
71040 On ch=1 n=77 v=100
71160 On ch=1 n=77 v=0
71160 On ch=1 n=79 v=100
71280 On ch=1 n=79 v=0
71280 On ch=1 n=81 v=100
71400 On ch=1 n=81 v=0
71400 On ch=1 n=77 v=100
71520 On ch=1 n=77 v=0
71520 On ch=1 n=74 v=100
71640 On ch=1 n=74 v=0
71640 On ch=1 n=76 v=100
71760 On ch=1 n=76 v=0
71760 On ch=1 n=77 v=100
71880 On ch=1 n=77 v=0
71880 On ch=1 n=74 v=100
72000 On ch=1 n=74 v=0
72000 On ch=1 n=72 v=100
72120 On ch=1 n=72 v=0
72120 On ch=1 n=71 v=100
72240 On ch=1 n=71 v=0
72240 On ch=1 n=69 v=100
72360 On ch=1 n=69 v=0
72360 On ch=1 n=67 v=100
72480 On ch=1 n=67 v=0
72480 On ch=1 n=76 v=100
72600 On ch=1 n=76 v=0
72600 On ch=1 n=77 v=100
72720 On ch=1 n=77 v=0
72720 On ch=1 n=79 v=100
72840 On ch=1 n=79 v=0
72840 On ch=1 n=76 v=100
72960 On ch=1 n=76 v=0
72960 On ch=1 n=72 v=100
73080 On ch=1 n=72 v=0
73080 On ch=1 n=74 v=100
73200 On ch=1 n=74 v=0
73200 On ch=1 n=76 v=100
73320 On ch=1 n=76 v=0
73320 On ch=1 n=72 v=100
73440 On ch=1 n=72 v=0
73440 On ch=1 n=69 v=100
73560 On ch=1 n=69 v=0
73560 On ch=1 n=67 v=100
73680 On ch=1 n=67 v=0
73680 On ch=1 n=65 v=100
73800 On ch=1 n=65 v=0
73800 On ch=1 n=69 v=100
73920 On ch=1 n=69 v=0
73920 On ch=1 n=74 v=100
74040 On ch=1 n=74 v=0
74040 On ch=1 n=76 v=100
74160 On ch=1 n=76 v=0
74160 On ch=1 n=77 v=100
74280 On ch=1 n=77 v=0
74280 On ch=1 n=79 v=100
74400 On ch=1 n=79 v=0
74400 On ch=1 n=81 v=100
74520 On ch=1 n=81 v=0
74520 On ch=1 n=83 v=100
74640 On ch=1 n=83 v=0
74640 On ch=1 n=84 v=100
74760 On ch=1 n=84 v=0
74760 On ch=1 n=81 v=100
74880 On ch=1 n=81 v=0
74880 On ch=1 n=77 v=100
75000 On ch=1 n=77 v=0
75000 On ch=1 n=76 v=100
75120 On ch=1 n=76 v=0
75120 On ch=1 n=77 v=100
75240 On ch=1 n=77 v=0
75240 On ch=1 n=74 v=100
75360 On ch=1 n=74 v=0
75360 On ch=1 n=71 v=100
75480 On ch=1 n=71 v=0
75480 On ch=1 n=69 v=100
75600 On ch=1 n=69 v=0
75600 On ch=1 n=71 v=100
75720 On ch=1 n=71 v=0
75720 On ch=1 n=67 v=100
75840 On ch=1 n=67 v=0
75840 On ch=1 n=65 v=100
75960 On ch=1 n=65 v=0
75960 On ch=1 n=64 v=100
76080 On ch=1 n=64 v=0
76080 On ch=1 n=65 v=100
76200 On ch=1 n=65 v=0
76200 On ch=1 n=62 v=100
76320 On ch=1 n=62 v=0
76320 On ch=1 n=64 v=100
76440 On ch=1 n=64 v=0
76440 On ch=1 n=72 v=100
76560 On ch=1 n=72 v=0
76560 On ch=1 n=79 v=100
76680 On ch=1 n=79 v=0
76680 On ch=1 n=79 v=100
76800 On ch=1 n=79 v=0
76800 On ch=1 n=64 v=100
76920 On ch=1 n=64 v=0
76920 On ch=1 n=72 v=100
77040 On ch=1 n=72 v=0
77040 On ch=1 n=79 v=100
77160 On ch=1 n=79 v=0
77160 On ch=1 n=72 v=100
77280 On ch=1 n=72 v=0
77280 On ch=1 n=81 v=100
77400 On ch=1 n=81 v=0
77400 On ch=1 n=72 v=100
77520 On ch=1 n=72 v=0
77520 On ch=1 n=82 v=100
77640 On ch=1 n=82 v=0
77640 On ch=1 n=72 v=100
77760 On ch=1 n=72 v=0
77760 On ch=1 n=65 v=100
77880 On ch=1 n=65 v=0
77880 On ch=1 n=72 v=100
78000 On ch=1 n=72 v=0
78000 On ch=1 n=81 v=100
78120 On ch=1 n=81 v=0
78120 On ch=1 n=77 v=100
78240 On ch=1 n=77 v=0
78240 On ch=1 n=76 v=100
78360 On ch=1 n=76 v=0
78360 On ch=1 n=74 v=100
78480 On ch=1 n=74 v=0
78480 On ch=1 n=72 v=100
78600 On ch=1 n=72 v=0
78600 On ch=1 n=70 v=100
78720 On ch=1 n=70 v=0
78720 On ch=1 n=69 v=100
78840 On ch=1 n=69 v=0
78840 On ch=1 n=67 v=100
78960 On ch=1 n=67 v=0
78960 On ch=1 n=65 v=100
79080 On ch=1 n=65 v=0
79080 On ch=1 n=64 v=100
79200 On ch=1 n=64 v=0
79200 On ch=1 n=66 v=100
79320 On ch=1 n=66 v=0
79320 On ch=1 n=74 v=100
79440 On ch=1 n=74 v=0
79440 On ch=1 n=81 v=100
79560 On ch=1 n=81 v=0
79560 On ch=1 n=81 v=100
79680 On ch=1 n=81 v=0
79680 On ch=1 n=66 v=100
79800 On ch=1 n=66 v=0
79800 On ch=1 n=74 v=100
79920 On ch=1 n=74 v=0
79920 On ch=1 n=81 v=100
80040 On ch=1 n=81 v=0
80040 On ch=1 n=74 v=100
80160 On ch=1 n=74 v=0
80160 On ch=1 n=83 v=100
80280 On ch=1 n=83 v=0
80280 On ch=1 n=74 v=100
80400 On ch=1 n=74 v=0
80400 On ch=1 n=84 v=100
80520 On ch=1 n=84 v=0
80520 On ch=1 n=74 v=100
80640 On ch=1 n=74 v=0
80640 On ch=1 n=67 v=100
80760 On ch=1 n=67 v=0
80760 On ch=1 n=74 v=100
80880 On ch=1 n=74 v=0
80880 On ch=1 n=83 v=100
81000 On ch=1 n=83 v=0
81000 On ch=1 n=79 v=100
81120 On ch=1 n=79 v=0
81120 On ch=1 n=77 v=100
81240 On ch=1 n=77 v=0
81240 On ch=1 n=76 v=100
81360 On ch=1 n=76 v=0
81360 On ch=1 n=74 v=100
81480 On ch=1 n=74 v=0
81480 On ch=1 n=72 v=100
81600 On ch=1 n=72 v=0
81600 On ch=1 n=71 v=100
81720 On ch=1 n=71 v=0
81720 On ch=1 n=69 v=100
81840 On ch=1 n=69 v=0
81840 On ch=1 n=67 v=100
81960 On ch=1 n=67 v=0
81960 On ch=1 n=65 v=100
82080 On ch=1 n=65 v=0
82080 On ch=1 n=64 v=100
82200 On ch=1 n=64 v=0
82200 On ch=1 n=65 v=100
82320 On ch=1 n=65 v=0
82320 On ch=1 n=67 v=100
82440 On ch=1 n=67 v=0
82440 On ch=1 n=72 v=100
82560 On ch=1 n=72 v=0
82560 On ch=1 n=76 v=100
82680 On ch=1 n=76 v=0
82680 On ch=1 n=72 v=100
82800 On ch=1 n=72 v=0
82800 On ch=1 n=71 v=100
82920 On ch=1 n=71 v=0
82920 On ch=1 n=72 v=100
83040 On ch=1 n=72 v=0
83040 On ch=1 n=67 v=100
83160 On ch=1 n=67 v=0
83160 On ch=1 n=71 v=100
83280 On ch=1 n=71 v=0
83280 On ch=1 n=72 v=100
83400 On ch=1 n=72 v=0
83400 On ch=1 n=76 v=100
83520 On ch=1 n=76 v=0
83520 On ch=1 n=65 v=100
83640 On ch=1 n=65 v=0
83640 On ch=1 n=67 v=100
83760 On ch=1 n=67 v=0
83760 On ch=1 n=69 v=100
83880 On ch=1 n=69 v=0
83880 On ch=1 n=72 v=100
84000 On ch=1 n=72 v=0
84000 On ch=1 n=76 v=100
84120 On ch=1 n=76 v=0
84120 On ch=1 n=72 v=100
84240 On ch=1 n=72 v=0
84240 On ch=1 n=71 v=100
84360 On ch=1 n=71 v=0
84360 On ch=1 n=72 v=100
84480 On ch=1 n=72 v=0
84480 On ch=1 n=69 v=100
84600 On ch=1 n=69 v=0
84600 On ch=1 n=71 v=100
84720 On ch=1 n=71 v=0
84720 On ch=1 n=72 v=100
84840 On ch=1 n=72 v=0
84840 On ch=1 n=76 v=100
84960 On ch=1 n=76 v=0
84960 On ch=1 n=67 v=100
85080 On ch=1 n=67 v=0
85080 On ch=1 n=69 v=100
85200 On ch=1 n=69 v=0
85200 On ch=1 n=71 v=100
85320 On ch=1 n=71 v=0
85320 On ch=1 n=72 v=100
85440 On ch=1 n=72 v=0
85440 On ch=1 n=76 v=100
85560 On ch=1 n=76 v=0
85560 On ch=1 n=72 v=100
85680 On ch=1 n=72 v=0
85680 On ch=1 n=71 v=100
85800 On ch=1 n=71 v=0
85800 On ch=1 n=72 v=100
85920 On ch=1 n=72 v=0
85920 On ch=1 n=71 v=100
86040 On ch=1 n=71 v=0
86040 On ch=1 n=72 v=100
86160 On ch=1 n=72 v=0
86160 On ch=1 n=74 v=100
86280 On ch=1 n=74 v=0
86280 On ch=1 n=76 v=100
86400 On ch=1 n=76 v=0
86400 On ch=1 n=69 v=100
86520 On ch=1 n=69 v=0
86520 On ch=1 n=71 v=100
86640 On ch=1 n=71 v=0
86640 On ch=1 n=72 v=100
86760 On ch=1 n=72 v=0
86760 On ch=1 n=76 v=100
86880 On ch=1 n=76 v=0
86880 On ch=1 n=77 v=100
87000 On ch=1 n=77 v=0
87000 On ch=1 n=81 v=100
87120 On ch=1 n=81 v=0
87120 On ch=1 n=77 v=100
87240 On ch=1 n=77 v=0
87240 On ch=1 n=76 v=100
87360 On ch=1 n=76 v=0
87360 On ch=1 n=74 v=100
87480 On ch=1 n=74 v=0
87480 On ch=1 n=77 v=100
87600 On ch=1 n=77 v=0
87600 On ch=1 n=74 v=100
87720 On ch=1 n=74 v=0
87720 On ch=1 n=72 v=100
87840 On ch=1 n=72 v=0
87840 On ch=1 n=71 v=100
87960 On ch=1 n=71 v=0
87960 On ch=1 n=72 v=100
88080 On ch=1 n=72 v=0
88080 On ch=1 n=74 v=100
88200 On ch=1 n=74 v=0
88200 On ch=1 n=77 v=100
88320 On ch=1 n=77 v=0
88320 On ch=1 n=79 v=100
88440 On ch=1 n=79 v=0
88440 On ch=1 n=86 v=100
88560 On ch=1 n=86 v=0
88560 On ch=1 n=83 v=100
88680 On ch=1 n=83 v=0
88680 On ch=1 n=81 v=100
88800 On ch=1 n=81 v=0
88800 On ch=1 n=79 v=100
88920 On ch=1 n=79 v=0
88920 On ch=1 n=83 v=100
89040 On ch=1 n=83 v=0
89040 On ch=1 n=79 v=100
89160 On ch=1 n=79 v=0
89160 On ch=1 n=77 v=100
89280 On ch=1 n=77 v=0
89280 On ch=1 n=88 v=100
89400 On ch=1 n=88 v=0
89400 On ch=1 n=91 v=100
89520 On ch=1 n=91 v=0
89520 On ch=1 n=88 v=100
89640 On ch=1 n=88 v=0
89640 On ch=1 n=86 v=100
89760 On ch=1 n=86 v=0
89760 On ch=1 n=84 v=100
89880 On ch=1 n=84 v=0
89880 On ch=1 n=88 v=100
90000 On ch=1 n=88 v=0
90000 On ch=1 n=84 v=100
90120 On ch=1 n=84 v=0
90120 On ch=1 n=83 v=100
90240 On ch=1 n=83 v=0
90240 On ch=1 n=81 v=100
90360 On ch=1 n=81 v=0
90360 On ch=1 n=84 v=100
90480 On ch=1 n=84 v=0
90480 On ch=1 n=81 v=100
90600 On ch=1 n=81 v=0
90600 On ch=1 n=79 v=100
90720 On ch=1 n=79 v=0
90720 On ch=1 n=77 v=100
90840 On ch=1 n=77 v=0
90840 On ch=1 n=76 v=100
90960 On ch=1 n=76 v=0
90960 On ch=1 n=81 v=100
91080 On ch=1 n=81 v=0
91080 On ch=1 n=74 v=100
91200 On ch=1 n=74 v=0
91200 On ch=1 n=76 v=100
91320 On ch=1 n=76 v=0
91320 On ch=1 n=71 v=100
91440 On ch=1 n=71 v=0
91440 On ch=1 n=72 v=100
91560 On ch=1 n=72 v=0
91560 On ch=1 n=66 v=100
91680 On ch=1 n=66 v=0
91680 On ch=1 n=67 v=100
91800 On ch=1 n=67 v=0
91800 On ch=1 n=72 v=100
91920 On ch=1 n=72 v=0
91920 On ch=1 n=67 v=100
92040 On ch=1 n=67 v=0
92040 On ch=1 n=71 v=100
92160 On ch=1 n=71 v=0
92160 On ch=1 n=63 v=100
92280 On ch=1 n=63 v=0
92280 On ch=1 n=72 v=100
92400 On ch=1 n=72 v=0
92400 On ch=1 n=81 v=100
92760 On ch=1 n=81 v=0
92760 On ch=1 n=84 v=100
92880 On ch=1 n=84 v=0
92880 On ch=1 n=83 v=100
93000 On ch=1 n=83 v=0
93000 On ch=1 n=81 v=100
93120 On ch=1 n=81 v=0
93120 On ch=1 n=79 v=100
93240 On ch=1 n=79 v=0
93240 On ch=1 n=78 v=100
93360 On ch=1 n=78 v=0
93360 On ch=1 n=76 v=100
93480 On ch=1 n=76 v=0
93480 On ch=1 n=75 v=100
93600 On ch=1 n=75 v=0
93600 On ch=1 n=83 v=100
93720 On ch=1 n=83 v=0
93720 On ch=1 n=81 v=100
93840 On ch=1 n=81 v=0
93840 On ch=1 n=84 v=100
93960 On ch=1 n=84 v=0
93960 On ch=1 n=83 v=100
94080 On ch=1 n=83 v=0
94080 On ch=1 n=81 v=100
94200 On ch=1 n=81 v=0
94200 On ch=1 n=79 v=100
94320 On ch=1 n=79 v=0
94320 On ch=1 n=78 v=100
94440 On ch=1 n=78 v=0
94440 On ch=1 n=76 v=100
94560 On ch=1 n=76 v=0
94560 On ch=1 n=71 v=100
94800 On ch=1 n=71 v=0
94800 On ch=1 n=75 v=100
95040 On ch=1 n=75 v=0
95040 On ch=1 n=76 v=100
95640 On ch=1 n=76 v=0
95640 On ch=1 n=78 v=100
95760 On ch=1 n=78 v=0
95760 On ch=1 n=79 v=100
95880 On ch=1 n=79 v=0
95880 On ch=1 n=81 v=100
96000 On ch=1 n=81 v=0
96000 On ch=1 n=82 v=100
96120 On ch=1 n=82 v=0
96120 On ch=1 n=81 v=100
96240 On ch=1 n=81 v=0
96240 On ch=1 n=82 v=100
96360 On ch=1 n=82 v=0
96360 On ch=1 n=79 v=100
96480 On ch=1 n=79 v=0
96480 On ch=1 n=73 v=100
96600 On ch=1 n=73 v=0
96600 On ch=1 n=74 v=100
96720 On ch=1 n=74 v=0
96720 On ch=1 n=76 v=100
96840 On ch=1 n=76 v=0
96840 On ch=1 n=77 v=100
96960 On ch=1 n=77 v=0
96960 On ch=1 n=79 v=100
97080 On ch=1 n=79 v=0
97080 On ch=1 n=77 v=100
97200 On ch=1 n=77 v=0
97200 On ch=1 n=79 v=100
97320 On ch=1 n=79 v=0
97320 On ch=1 n=76 v=100
97440 On ch=1 n=76 v=0
97440 On ch=1 n=69 v=100
97560 On ch=1 n=69 v=0
97560 On ch=1 n=73 v=100
97680 On ch=1 n=73 v=0
97680 On ch=1 n=76 v=100
97800 On ch=1 n=76 v=0
97800 On ch=1 n=79 v=100
97920 On ch=1 n=79 v=0
97920 On ch=1 n=77 v=100
98160 On ch=1 n=77 v=0
98160 On ch=1 n=62 v=100
98280 On ch=1 n=62 v=0
98280 On ch=1 n=64 v=100
98400 On ch=1 n=64 v=0
98400 On ch=1 n=65 v=100
98520 On ch=1 n=65 v=0
98520 On ch=1 n=69 v=100
98640 On ch=1 n=69 v=0
98640 On ch=1 n=74 v=100
98760 On ch=1 n=74 v=0
98760 On ch=1 n=76 v=100
98880 On ch=1 n=76 v=0
98880 On ch=1 n=77 v=100
99000 On ch=1 n=77 v=0
99000 On ch=1 n=76 v=100
99120 On ch=1 n=76 v=0
99120 On ch=1 n=77 v=100
99240 On ch=1 n=77 v=0
99240 On ch=1 n=74 v=100
99360 On ch=1 n=74 v=0
99360 On ch=1 n=68 v=100
99480 On ch=1 n=68 v=0
99480 On ch=1 n=69 v=100
99600 On ch=1 n=69 v=0
99600 On ch=1 n=71 v=100
99720 On ch=1 n=71 v=0
99720 On ch=1 n=72 v=100
99840 On ch=1 n=72 v=0
99840 On ch=1 n=74 v=100
99960 On ch=1 n=74 v=0
99960 On ch=1 n=72 v=100
100080 On ch=1 n=72 v=0
100080 On ch=1 n=74 v=100
100200 On ch=1 n=74 v=0
100200 On ch=1 n=71 v=100
100320 On ch=1 n=71 v=0
100320 On ch=1 n=64 v=100
100440 On ch=1 n=64 v=0
100440 On ch=1 n=68 v=100
100560 On ch=1 n=68 v=0
100560 On ch=1 n=71 v=100
100680 On ch=1 n=71 v=0
100680 On ch=1 n=74 v=100
100800 On ch=1 n=74 v=0
100800 On ch=1 n=72 v=100
100920 On ch=1 n=72 v=0
100920 On ch=1 n=71 v=100
101040 On ch=1 n=71 v=0
101040 On ch=1 n=69 v=100
101160 On ch=1 n=69 v=0
101160 On ch=1 n=71 v=100
101280 On ch=1 n=71 v=0
101280 On ch=1 n=72 v=100
101400 On ch=1 n=72 v=0
101400 On ch=1 n=76 v=100
101520 On ch=1 n=76 v=0
101520 On ch=1 n=81 v=100
101640 On ch=1 n=81 v=0
101640 On ch=1 n=83 v=100
101760 On ch=1 n=83 v=0
101760 On ch=1 n=84 v=100
101880 On ch=1 n=84 v=0
101880 On ch=1 n=83 v=100
102000 On ch=1 n=83 v=0
102000 On ch=1 n=84 v=100
102120 On ch=1 n=84 v=0
102120 On ch=1 n=81 v=100
102240 On ch=1 n=81 v=0
102240 On ch=1 n=75 v=100
102360 On ch=1 n=75 v=0
102360 On ch=1 n=76 v=100
102480 On ch=1 n=76 v=0
102480 On ch=1 n=78 v=100
102600 On ch=1 n=78 v=0
102600 On ch=1 n=79 v=100
102720 On ch=1 n=79 v=0
102720 On ch=1 n=81 v=100
102840 On ch=1 n=81 v=0
102840 On ch=1 n=79 v=100
102960 On ch=1 n=79 v=0
102960 On ch=1 n=81 v=100
103080 On ch=1 n=81 v=0
103080 On ch=1 n=78 v=100
103200 On ch=1 n=78 v=0
103200 On ch=1 n=71 v=100
103320 On ch=1 n=71 v=0
103320 On ch=1 n=75 v=100
103440 On ch=1 n=75 v=0
103440 On ch=1 n=78 v=100
103560 On ch=1 n=78 v=0
103560 On ch=1 n=81 v=100
103680 On ch=1 n=81 v=0
103680 On ch=1 n=80 v=100
103800 On ch=1 n=80 v=0
103800 On ch=1 n=81 v=100
103920 On ch=1 n=81 v=0
103920 On ch=1 n=83 v=100
104040 On ch=1 n=83 v=0
104040 On ch=1 n=80 v=100
104160 On ch=1 n=80 v=0
104160 On ch=1 n=76 v=100
104280 On ch=1 n=76 v=0
104280 On ch=1 n=80 v=100
104400 On ch=1 n=80 v=0
104400 On ch=1 n=74 v=100
104520 On ch=1 n=74 v=0
104520 On ch=1 n=80 v=100
104640 On ch=1 n=80 v=0
104640 On ch=1 n=72 v=100
104760 On ch=1 n=72 v=0
104760 On ch=1 n=80 v=100
104880 On ch=1 n=80 v=0
104880 On ch=1 n=71 v=100
105000 On ch=1 n=71 v=0
105000 On ch=1 n=80 v=100
105120 On ch=1 n=80 v=0
105120 On ch=1 n=72 v=100
105240 On ch=1 n=72 v=0
105240 On ch=1 n=76 v=100
105360 On ch=1 n=76 v=0
105360 On ch=1 n=81 v=100
105480 On ch=1 n=81 v=0
105480 On ch=1 n=76 v=100
105600 On ch=1 n=76 v=0
105600 On ch=1 n=72 v=100
105720 On ch=1 n=72 v=0
105720 On ch=1 n=76 v=100
105840 On ch=1 n=76 v=0
105840 On ch=1 n=71 v=100
105960 On ch=1 n=71 v=0
105960 On ch=1 n=76 v=100
106080 On ch=1 n=76 v=0
106080 On ch=1 n=72 v=100
106200 On ch=1 n=72 v=0
106200 On ch=1 n=76 v=100
106320 On ch=1 n=76 v=0
106320 On ch=1 n=69 v=100
106440 On ch=1 n=69 v=0
106440 On ch=1 n=76 v=100
106560 On ch=1 n=76 v=0
106560 On ch=1 n=68 v=100
106680 On ch=1 n=68 v=0
106680 On ch=1 n=76 v=100
106800 On ch=1 n=76 v=0
106800 On ch=1 n=83 v=100
106920 On ch=1 n=83 v=0
106920 On ch=1 n=76 v=100
107040 On ch=1 n=76 v=0
107040 On ch=1 n=68 v=100
107160 On ch=1 n=68 v=0
107160 On ch=1 n=76 v=100
107280 On ch=1 n=76 v=0
107280 On ch=1 n=66 v=100
107400 On ch=1 n=66 v=0
107400 On ch=1 n=76 v=100
107520 On ch=1 n=76 v=0
107520 On ch=1 n=68 v=100
107640 On ch=1 n=68 v=0
107640 On ch=1 n=76 v=100
107760 On ch=1 n=76 v=0
107760 On ch=1 n=64 v=100
107880 On ch=1 n=64 v=0
107880 On ch=1 n=76 v=100
108000 On ch=1 n=76 v=0
108000 On ch=1 n=69 v=100
108120 On ch=1 n=69 v=0
108120 On ch=1 n=76 v=100
108240 On ch=1 n=76 v=0
108240 On ch=1 n=84 v=100
108360 On ch=1 n=84 v=0
108360 On ch=1 n=76 v=100
108480 On ch=1 n=76 v=0
108480 On ch=1 n=77 v=100
108600 On ch=1 n=77 v=0
108600 On ch=1 n=74 v=100
108720 On ch=1 n=74 v=0
108720 On ch=1 n=81 v=100
108840 On ch=1 n=81 v=0
108840 On ch=1 n=74 v=100
108960 On ch=1 n=74 v=0
108960 On ch=1 n=84 v=100
109080 On ch=1 n=84 v=0
109080 On ch=1 n=74 v=100
109200 On ch=1 n=74 v=0
109200 On ch=1 n=81 v=100
109320 On ch=1 n=81 v=0
109320 On ch=1 n=74 v=100
109440 On ch=1 n=74 v=0
109440 On ch=1 n=83 v=100
109560 On ch=1 n=83 v=0
109560 On ch=1 n=74 v=100
109680 On ch=1 n=74 v=0
109680 On ch=1 n=67 v=100
109800 On ch=1 n=67 v=0
109800 On ch=1 n=74 v=100
109920 On ch=1 n=74 v=0
109920 On ch=1 n=76 v=100
110040 On ch=1 n=76 v=0
110040 On ch=1 n=72 v=100
110160 On ch=1 n=72 v=0
110160 On ch=1 n=79 v=100
110280 On ch=1 n=79 v=0
110280 On ch=1 n=72 v=100
110400 On ch=1 n=72 v=0
110400 On ch=1 n=82 v=100
110520 On ch=1 n=82 v=0
110520 On ch=1 n=72 v=100
110640 On ch=1 n=72 v=0
110640 On ch=1 n=79 v=100
110760 On ch=1 n=79 v=0
110760 On ch=1 n=72 v=100
110880 On ch=1 n=72 v=0
110880 On ch=1 n=81 v=100
111000 On ch=1 n=81 v=0
111000 On ch=1 n=72 v=100
111120 On ch=1 n=72 v=0
111120 On ch=1 n=65 v=100
111240 On ch=1 n=65 v=0
111240 On ch=1 n=69 v=100
111360 On ch=1 n=69 v=0
111360 On ch=1 n=74 v=100
111480 On ch=1 n=74 v=0
111480 On ch=1 n=76 v=100
111600 On ch=1 n=76 v=0
111600 On ch=1 n=77 v=100
111720 On ch=1 n=77 v=0
111720 On ch=1 n=74 v=100
111840 On ch=1 n=74 v=0
111840 On ch=1 n=71 v=100
111960 On ch=1 n=71 v=0
111960 On ch=1 n=72 v=100
112080 On ch=1 n=72 v=0
112080 On ch=1 n=74 v=100
112200 On ch=1 n=74 v=0
112200 On ch=1 n=71 v=100
112320 On ch=1 n=71 v=0
112320 On ch=1 n=68 v=100
112440 On ch=1 n=68 v=0
112440 On ch=1 n=69 v=100
112560 On ch=1 n=69 v=0
112560 On ch=1 n=71 v=100
112680 On ch=1 n=71 v=0
112680 On ch=1 n=68 v=100
112800 On ch=1 n=68 v=0
112800 On ch=1 n=64 v=100
112920 On ch=1 n=64 v=0
112920 On ch=1 n=66 v=100
113040 On ch=1 n=66 v=0
113040 On ch=1 n=68 v=100
113160 On ch=1 n=68 v=0
113160 On ch=1 n=71 v=100
113280 On ch=1 n=71 v=0
113280 On ch=1 n=74 v=100
113400 On ch=1 n=74 v=0
113400 On ch=1 n=72 v=100
113520 On ch=1 n=72 v=0
113520 On ch=1 n=74 v=100
113640 On ch=1 n=74 v=0
113640 On ch=1 n=71 v=100
113760 On ch=1 n=71 v=0
113760 On ch=1 n=72 v=100
113880 On ch=1 n=72 v=0
113880 On ch=1 n=81 v=100
114000 On ch=1 n=81 v=0
114000 On ch=1 n=77 v=100
114120 On ch=1 n=77 v=0
114120 On ch=1 n=76 v=100
114240 On ch=1 n=76 v=0
114240 On ch=1 n=74 v=100
114360 On ch=1 n=74 v=0
114360 On ch=1 n=84 v=100
114480 On ch=1 n=84 v=0
114480 On ch=1 n=83 v=100
114600 On ch=1 n=83 v=0
114600 On ch=1 n=81 v=100
114720 On ch=1 n=81 v=0
114720 On ch=1 n=76 v=100
114840 On ch=1 n=76 v=0
114840 On ch=1 n=83 v=100
114960 On ch=1 n=83 v=0
114960 On ch=1 n=81 v=100
115080 On ch=1 n=81 v=0
115080 On ch=1 n=80 v=100
115200 On ch=1 n=80 v=0
115200 On ch=1 n=81 v=100
115320 On ch=1 n=81 v=0
115320 On ch=1 n=77 v=100
115440 On ch=1 n=77 v=0
115440 On ch=1 n=74 v=100
115560 On ch=1 n=74 v=0
115560 On ch=1 n=72 v=100
115680 On ch=1 n=72 v=0
115680 On ch=1 n=71 v=100
115800 On ch=1 n=71 v=0
115800 On ch=1 n=81 v=100
115920 On ch=1 n=81 v=0
115920 On ch=1 n=79 v=100
116040 On ch=1 n=79 v=0
116040 On ch=1 n=77 v=100
116160 On ch=1 n=77 v=0
116160 On ch=1 n=73 v=100
116280 On ch=1 n=73 v=0
116280 On ch=1 n=79 v=100
116400 On ch=1 n=79 v=0
116400 On ch=1 n=77 v=100
116520 On ch=1 n=77 v=0
116520 On ch=1 n=76 v=100
116640 On ch=1 n=76 v=0
116640 On ch=1 n=77 v=100
116760 On ch=1 n=77 v=0
116760 On ch=1 n=74 v=100
116880 On ch=1 n=74 v=0
116880 On ch=1 n=70 v=100
117000 On ch=1 n=70 v=0
117000 On ch=1 n=69 v=100
117120 On ch=1 n=69 v=0
117120 On ch=1 n=68 v=100
117240 On ch=1 n=68 v=0
117240 On ch=1 n=77 v=100
117360 On ch=1 n=77 v=0
117360 On ch=1 n=76 v=100
117480 On ch=1 n=76 v=0
117480 On ch=1 n=74 v=100
117600 On ch=1 n=74 v=0
117600 On ch=1 n=69 v=100
117720 On ch=1 n=69 v=0
117720 On ch=1 n=76 v=100
117840 On ch=1 n=76 v=0
117840 On ch=1 n=74 v=100
117960 On ch=1 n=74 v=0
117960 On ch=1 n=72 v=100
118080 On ch=1 n=72 v=0
118080 On ch=1 n=74 v=100
118200 On ch=1 n=74 v=0
118200 On ch=1 n=71 v=100
118320 On ch=1 n=71 v=0
118320 On ch=1 n=68 v=100
118440 On ch=1 n=68 v=0
118440 On ch=1 n=66 v=100
118560 On ch=1 n=66 v=0
118560 On ch=1 n=64 v=100
118680 On ch=1 n=64 v=0
118680 On ch=1 n=66 v=100
118800 On ch=1 n=66 v=0
118800 On ch=1 n=68 v=100
118920 On ch=1 n=68 v=0
118920 On ch=1 n=69 v=100
119040 On ch=1 n=69 v=0
119040 On ch=1 n=71 v=100
119160 On ch=1 n=71 v=0
119160 On ch=1 n=72 v=100
119280 On ch=1 n=72 v=0
119280 On ch=1 n=74 v=100
119400 On ch=1 n=74 v=0
119400 On ch=1 n=71 v=100
119520 On ch=1 n=71 v=0
119520 On ch=1 n=72 v=100
119640 On ch=1 n=72 v=0
119640 On ch=1 n=69 v=100
119760 On ch=1 n=69 v=0
119760 On ch=1 n=72 v=100
119880 On ch=1 n=72 v=0
119880 On ch=1 n=76 v=100
120000 On ch=1 n=76 v=0
120000 On ch=1 n=81 v=100
120120 On ch=1 n=81 v=0
120120 On ch=1 n=83 v=100
120240 On ch=1 n=83 v=0
120240 On ch=1 n=84 v=100
120360 On ch=1 n=84 v=0
120360 On ch=1 n=81 v=100
120480 On ch=1 n=81 v=0
120480 On ch=1 n=76 v=100
120600 On ch=1 n=76 v=0
120600 On ch=1 n=81 v=100
120720 On ch=1 n=81 v=0
120720 On ch=1 n=83 v=100
120840 On ch=1 n=83 v=0
120840 On ch=1 n=80 v=100
120960 On ch=1 n=80 v=0
120960 On ch=1 n=81 v=100
121080 On ch=1 n=81 v=0
121080 On ch=1 n=76 v=100
121200 On ch=1 n=76 v=0
121200 On ch=1 n=77 v=100
121320 On ch=1 n=77 v=0
121320 On ch=1 n=74 v=100
121440 On ch=1 n=74 v=0
121440 On ch=1 n=72 v=100
121560 On ch=1 n=72 v=0
121560 On ch=1 n=81 v=100
121680 On ch=1 n=81 v=0
121680 On ch=1 n=71 v=100
121800 On ch=1 n=71 v=0
121800 On ch=1 n=80 v=100
121920 On ch=1 n=80 v=0
121920 On ch=1 n=69 v=100
122400 On ch=1 n=69 v=0
122400 Meta TrkEnd
TrkEnd
MTrk
0 Meta 0x21 00
0 Meta TrkName "--------------------------------------"
0 Meta TrkEnd
TrkEnd
MTrk
0 Meta 0x21 00
0 Meta TrkName "Johann Sebastian Bach  (1685-1750)"
0 Meta TrkEnd
TrkEnd
MTrk
0 Meta 0x21 00
0 Meta TrkName "--------------------------------------"
0 Meta TrkEnd
TrkEnd
MTrk
0 Meta 0x21 00
0 Meta TrkName "Partita in A minor for Solo Flute - BWV 1013"
0 Meta TrkEnd
TrkEnd
MTrk
0 Meta 0x21 00
0 Meta TrkName "--------------------------------------"
0 Meta TrkEnd
TrkEnd
MTrk
0 Meta 0x21 00
0 Meta TrkName "2nd Movement: Courante"
0 Meta TrkEnd
TrkEnd
MTrk
0 Meta 0x21 00
0 Meta TrkName "--------------------------------------"
0 Meta TrkEnd
TrkEnd
MTrk
0 Meta 0x21 00
0 Meta TrkName "Sequenced with Cakewalk Pro Audio by"
0 Meta TrkEnd
TrkEnd
MTrk
0 Meta 0x21 00
0 Meta TrkName "David J. Grossman - dave@unpronounceable.com"
0 Meta TrkEnd
TrkEnd
MTrk
0 Meta 0x21 00
0 Meta TrkName "This and other Bach MIDI files can be found at:"
0 Meta TrkEnd
TrkEnd
MTrk
0 Meta 0x21 00
0 Meta TrkName "Dave's J.S. Bach Page"
0 Meta TrkEnd
TrkEnd
MTrk
0 Meta 0x21 00
0 Meta TrkName "http://www.unpronounceable.com/bach"
0 Meta TrkEnd
TrkEnd
MTrk
0 Meta 0x21 00
0 Meta TrkName "--------------------------------------"
0 Meta TrkEnd
TrkEnd
MTrk
0 Meta 0x21 00
0 Meta TrkName "Original Filename: fp-2cou.mid"
0 Meta TrkEnd
TrkEnd
MTrk
0 Meta 0x21 00
0 Meta TrkName "Last Modified: March 1, 1997"
0 Meta TrkEnd
TrkEnd