MFile 1 17 480
MTrk
0 Meta TrkName "untitled"
0 SMPTE 96 0 3 0 0
0 TimeSig 4/4 24 8
0 KeySig 0 major
0 Tempo 600000
0 Meta Marker "A"
34560 Meta Marker "1."
36480 Meta Marker "A'"
71040 Meta Marker "2."
72960 Meta Marker "B"
123840 Tempo 1200000
123840 Meta TrkEnd
TrkEnd
MTrk
0 Meta 0x21 00
0 Meta TrkName "Solo Flute"
0 PrCh ch=1 p=73
0 Par ch=1 c=7 v=100
0 Par ch=1 c=10 v=64
120 On ch=1 n=84 v=100
240 On ch=1 n=84 v=100
360 On ch=1 n=84 v=100
480 On ch=1 n=84 v=100
600 On ch=1 n=84 v=100
720 On ch=1 n=84 v=100
840 On ch=1 n=84 v=100
960 On ch=1 n=84 v=100
1080 On ch=1 n=84 v=100
1200 On ch=1 n=84 v=100
1320 On ch=1 n=84 v=100
1440 On ch=1 n=84 v=100
1560 On ch=1 n=84 v=100
1680 On ch=1 n=84 v=100
1800 On ch=1 n=84 v=100
1920 On ch=1 n=84 v=100
2040 On ch=1 n=84 v=100
2160 On ch=1 n=84 v=100
2280 On ch=1 n=84 v=100
2400 On ch=1 n=84 v=100
2520 On ch=1 n=84 v=100
2640 On ch=1 n=84 v=100
2760 On ch=1 n=84 v=100
2880 On ch=1 n=84 v=100
3000 On ch=1 n=84 v=100
3120 On ch=1 n=84 v=100
3240 On ch=1 n=84 v=100
3360 On ch=1 n=84 v=100
3480 On ch=1 n=84 v=100
3600 On ch=1 n=84 v=100
3720 On ch=1 n=84 v=100
3840 On ch=1 n=84 v=100
3960 On ch=1 n=84 v=100
4080 On ch=1 n=84 v=100
4200 On ch=1 n=84 v=100
4320 On ch=1 n=84 v=100
4440 On ch=1 n=84 v=100
4560 On ch=1 n=84 v=100
4680 On ch=1 n=84 v=100
4800 On ch=1 n=84 v=100
4920 On ch=1 n=84 v=100
5040 On ch=1 n=84 v=100
5160 On ch=1 n=84 v=100
5280 On ch=1 n=84 v=100
5400 On ch=1 n=84 v=100
5520 On ch=1 n=84 v=100
5640 On ch=1 n=84 v=100
5760 On ch=1 n=84 v=100
5880 On ch=1 n=84 v=100
6000 On ch=1 n=84 v=100
6120 On ch=1 n=84 v=100
6240 On ch=1 n=84 v=100
6360 On ch=1 n=84 v=100
6480 On ch=1 n=84 v=100
6600 On ch=1 n=84 v=100
6720 On ch=1 n=84 v=100
6840 On ch=1 n=84 v=100
6960 On ch=1 n=84 v=100
7080 On ch=1 n=84 v=100
7200 On ch=1 n=84 v=100
7320 On ch=1 n=84 v=100
7440 On ch=1 n=84 v=100
7560 On ch=1 n=84 v=100
7680 On ch=1 n=84 v=100
7800 On ch=1 n=84 v=100
7920 On ch=1 n=84 v=100
8040 On ch=1 n=84 v=100
8160 On ch=1 n=84 v=100
8280 On ch=1 n=84 v=100
8400 On ch=1 n=84 v=100
8520 On ch=1 n=84 v=100
8640 On ch=1 n=84 v=100
8760 On ch=1 n=84 v=100
8880 On ch=1 n=84 v=100
9000 On ch=1 n=84 v=100
9120 On ch=1 n=84 v=100
9240 On ch=1 n=84 v=100
9360 On ch=1 n=84 v=100
9480 On ch=1 n=84 v=100
9600 On ch=1 n=84 v=100
9720 On ch=1 n=84 v=100
9840 On ch=1 n=84 v=100
9960 On ch=1 n=84 v=100
10080 On ch=1 n=84 v=100
10200 On ch=1 n=84 v=100
10320 On ch=1 n=84 v=100
10440 On ch=1 n=84 v=100
10560 On ch=1 n=84 v=100
10680 On ch=1 n=84 v=100
10800 On ch=1 n=84 v=100
10920 On ch=1 n=84 v=100
11040 On ch=1 n=84 v=100
11160 On ch=1 n=84 v=100
11280 On ch=1 n=84 v=100
11400 On ch=1 n=84 v=100
11520 On ch=1 n=84 v=100
11640 On ch=1 n=84 v=100
11760 On ch=1 n=84 v=100
11880 On ch=1 n=84 v=100
12000 On ch=1 n=84 v=100
12120 On ch=1 n=84 v=100
12240 On ch=1 n=84 v=100
12360 On ch=1 n=84 v=100
12480 On ch=1 n=84 v=100
12600 On ch=1 n=84 v=100
12720 On ch=1 n=84 v=100
12840 On ch=1 n=84 v=100
12960 On ch=1 n=84 v=100
13080 On ch=1 n=84 v=100
13200 On ch=1 n=84 v=100
13320 On ch=1 n=84 v=100
13440 On ch=1 n=84 v=100
13560 On ch=1 n=84 v=100
13680 On ch=1 n=84 v=100
13800 On ch=1 n=84 v=100
13920 On ch=1 n=84 v=100
14040 On ch=1 n=84 v=100
14160 On ch=1 n=84 v=100
14280 On ch=1 n=84 v=100
14400 On ch=1 n=84 v=100
14520 On ch=1 n=84 v=100
14640 On ch=1 n=84 v=100
14760 On ch=1 n=84 v=100
14880 On ch=1 n=84 v=100
15000 On ch=1 n=84 v=100
15120 On ch=1 n=84 v=100
15240 On ch=1 n=84 v=100
15360 On ch=1 n=84 v=100
15480 On ch=1 n=84 v=100
15600 On ch=1 n=84 v=100
15720 On ch=1 n=84 v=100
15840 On ch=1 n=84 v=100
15960 On ch=1 n=84 v=100
16080 On ch=1 n=84 v=100
16200 On ch=1 n=84 v=100
16320 On ch=1 n=84 v=100
16440 On ch=1 n=84 v=100
16560 On ch=1 n=84 v=100
16680 On ch=1 n=84 v=100
16800 On ch=1 n=84 v=100
16920 On ch=1 n=84 v=100
17040 On ch=1 n=84 v=100
17160 On ch=1 n=84 v=100
17280 On ch=1 n=84 v=100
17400 On ch=1 n=84 v=100
17520 On ch=1 n=84 v=100
17640 On ch=1 n=84 v=100
17760 On ch=1 n=84 v=100
17880 On ch=1 n=84 v=100
18000 On ch=1 n=84 v=100
18120 On ch=1 n=84 v=100
18240 On ch=1 n=84 v=100
18360 On ch=1 n=84 v=100
18480 On ch=1 n=84 v=100
18600 On ch=1 n=84 v=100
18720 On ch=1 n=84 v=100
18840 On ch=1 n=84 v=100
18960 On ch=1 n=84 v=100
19080 On ch=1 n=84 v=100
19200 On ch=1 n=84 v=100
19320 On ch=1 n=84 v=100
19440 On ch=1 n=84 v=100
19560 On ch=1 n=84 v=100
19680 On ch=1 n=84 v=100
19800 On ch=1 n=84 v=100
19920 On ch=1 n=84 v=100
20040 On ch=1 n=84 v=100
20160 On ch=1 n=84 v=100
20280 On ch=1 n=84 v=100
20400 On ch=1 n=84 v=100
20520 On ch=1 n=84 v=100
20640 On ch=1 n=84 v=100
20760 On ch=1 n=84 v=100
20880 On ch=1 n=84 v=100
21000 On ch=1 n=84 v=100
21120 On ch=1 n=84 v=100
21240 On ch=1 n=84 v=100
21360 On ch=1 n=84 v=100
21480 On ch=1 n=84 v=100
21600 On ch=1 n=84 v=100
21720 On ch=1 n=84 v=100
21840 On ch=1 n=84 v=100
21960 On ch=1 n=84 v=100
22080 On ch=1 n=84 v=100
22200 On ch=1 n=84 v=100
22320 On ch=1 n=84 v=100
22440 On ch=1 n=84 v=100
22560 On ch=1 n=84 v=100
22680 On ch=1 n=84 v=100
22800 On ch=1 n=84 v=100
22920 On ch=1 n=84 v=100
23040 On ch=1 n=84 v=100
23160 On ch=1 n=84 v=100
23280 On ch=1 n=84 v=100
23400 On ch=1 n=84 v=100
23520 On ch=1 n=84 v=100
23640 On ch=1 n=84 v=100
23760 On ch=1 n=84 v=100
23880 On ch=1 n=84 v=100
24000 On ch=1 n=84 v=100
24120 On ch=1 n=84 v=100
24240 On ch=1 n=84 v=100
24360 On ch=1 n=84 v=100
24480 On ch=1 n=84 v=100
24600 On ch=1 n=84 v=100
24720 On ch=1 n=84 v=100
24840 On ch=1 n=84 v=100
24960 On ch=1 n=84 v=100
25080 On ch=1 n=84 v=100
25200 On ch=1 n=84 v=100
25320 On ch=1 n=84 v=100
25440 On ch=1 n=84 v=100
25560 On ch=1 n=84 v=100
25680 On ch=1 n=84 v=100
25800 On ch=1 n=84 v=100
25920 On ch=1 n=84 v=100
26040 On ch=1 n=84 v=100
26160 On ch=1 n=84 v=100
26280 On ch=1 n=84 v=100
26400 On ch=1 n=84 v=100
26520 On ch=1 n=84 v=100
26640 On ch=1 n=84 v=100
26760 On ch=1 n=84 v=100
26880 On ch=1 n=84 v=100
27000 On ch=1 n=84 v=100
27120 On ch=1 n=84 v=100
27240 On ch=1 n=84 v=100
27360 On ch=1 n=84 v=100
27480 On ch=1 n=84 v=100
27600 On ch=1 n=84 v=100
27720 On ch=1 n=84 v=100
27840 On ch=1 n=84 v=100
27960 On ch=1 n=84 v=100
28080 On ch=1 n=84 v=100
28200 On ch=1 n=84 v=100
28320 On ch=1 n=84 v=100
28440 On ch=1 n=84 v=100
28560 On ch=1 n=84 v=100
28680 On ch=1 n=84 v=100
28800 On ch=1 n=84 v=100
28920 On ch=1 n=84 v=100
29040 On ch=1 n=84 v=100
29160 On ch=1 n=84 v=100
29280 On ch=1 n=84 v=100
29400 On ch=1 n=84 v=100
29520 On ch=1 n=84 v=100
29640 On ch=1 n=84 v=100
29760 On ch=1 n=84 v=100
29880 On ch=1 n=84 v=100
30000 On ch=1 n=84 v=100
30120 On ch=1 n=84 v=100
30240 On ch=1 n=84 v=100
30360 On ch=1 n=84 v=100
30480 On ch=1 n=84 v=100
30600 On ch=1 n=84 v=100
30720 On ch=1 n=84 v=100
30840 On ch=1 n=84 v=100
30960 On ch=1 n=84 v=100
31080 On ch=1 n=84 v=100
31200 On ch=1 n=84 v=100
31320 On ch=1 n=84 v=100
31440 On ch=1 n=84 v=100
31560 On ch=1 n=84 v=100
31680 On ch=1 n=84 v=100
31800 On ch=1 n=84 v=100
31920 On ch=1 n=84 v=100
32040 On ch=1 n=84 v=100
32160 On ch=1 n=84 v=100
32280 On ch=1 n=84 v=100
32400 On ch=1 n=84 v=100
32520 On ch=1 n=84 v=100
32640 On ch=1 n=84 v=100
32760 On ch=1 n=84 v=100
32880 On ch=1 n=84 v=100
33000 On ch=1 n=84 v=100
33120 On ch=1 n=84 v=100
33240 On ch=1 n=84 v=100
33360 On ch=1 n=84 v=100
33480 On ch=1 n=84 v=100
33600 On ch=1 n=84 v=100
33720 On ch=1 n=84 v=100
33840 On ch=1 n=84 v=100
33960 On ch=1 n=84 v=100
34080 On ch=1 n=84 v=100
34200 On ch=1 n=84 v=100
34320 On ch=1 n=84 v=100
34440 On ch=1 n=84 v=100
34560 On ch=1 n=84 v=100
34680 On ch=1 n=84 v=100
34800 On ch=1 n=84 v=100
34920 On ch=1 n=84 v=100
35040 On ch=1 n=84 v=100
35160 On ch=1 n=84 v=100
35280 On ch=1 n=84 v=100
35400 On ch=1 n=84 v=100
35520 On ch=1 n=84 v=100
35640 On ch=1 n=84 v=100
35760 On ch=1 n=84 v=100
35880 On ch=1 n=84 v=100
36000 On ch=1 n=84 v=100
36120 On ch=1 n=84 v=100
36240 On ch=1 n=84 v=100
36360 On ch=1 n=84 v=100
36480 On ch=1 n=84 v=100
36600 On ch=1 n=84 v=100
36720 On ch=1 n=84 v=100
36840 On ch=1 n=84 v=100
36960 On ch=1 n=84 v=100
37080 On ch=1 n=84 v=100
37200 On ch=1 n=84 v=100
37320 On ch=1 n=84 v=100
37440 On ch=1 n=84 v=100
37560 On ch=1 n=84 v=100
37680 On ch=1 n=84 v=100
37800 On ch=1 n=84 v=100
37920 On ch=1 n=84 v=100
38040 On ch=1 n=84 v=100
38160 On ch=1 n=84 v=100
38280 On ch=1 n=84 v=100
38400 On ch=1 n=84 v=100
38520 On ch=1 n=84 v=100
38640 On ch=1 n=84 v=100
38760 On ch=1 n=84 v=100
38880 On ch=1 n=84 v=100
39000 On ch=1 n=84 v=100
39120 On ch=1 n=84 v=100
39240 On ch=1 n=84 v=100
39360 On ch=1 n=84 v=100
39480 On ch=1 n=84 v=100
39600 On ch=1 n=84 v=100
39720 On ch=1 n=84 v=100
39840 On ch=1 n=84 v=100
39960 On ch=1 n=84 v=100
40080 On ch=1 n=84 v=100
40200 On ch=1 n=84 v=100
40320 On ch=1 n=84 v=100
40440 On ch=1 n=84 v=100
40560 On ch=1 n=84 v=100
40680 On ch=1 n=84 v=100
40800 On ch=1 n=84 v=100
40920 On ch=1 n=84 v=100
41040 On ch=1 n=84 v=100
41160 On ch=1 n=84 v=100
41280 On ch=1 n=84 v=100
41400 On ch=1 n=84 v=100
41520 On ch=1 n=84 v=100
41640 On ch=1 n=84 v=100
41760 On ch=1 n=84 v=100
41880 On ch=1 n=84 v=100
42000 On ch=1 n=84 v=100
42120 On ch=1 n=84 v=100
42240 On ch=1 n=84 v=100
42360 On ch=1 n=84 v=100
42480 On ch=1 n=84 v=100
42600 On ch=1 n=84 v=100
42720 On ch=1 n=84 v=100
42840 On ch=1 n=84 v=100
42960 On ch=1 n=84 v=100
43080 On ch=1 n=84 v=100
43200 On ch=1 n=84 v=100
43320 On ch=1 n=84 v=100
43440 On ch=1 n=84 v=100
43560 On ch=1 n=84 v=100
43680 On ch=1 n=84 v=100
43800 On ch=1 n=84 v=100
43920 On ch=1 n=84 v=100
44040 On ch=1 n=84 v=100
44160 On ch=1 n=84 v=100
44280 On ch=1 n=84 v=100
44400 On ch=1 n=84 v=100
44520 On ch=1 n=84 v=100
44640 On ch=1 n=84 v=100
44760 On ch=1 n=84 v=100
44880 On ch=1 n=84 v=100
45000 On ch=1 n=84 v=100
45120 On ch=1 n=84 v=100
45240 On ch=1 n=84 v=100
45360 On ch=1 n=84 v=100
45480 On ch=1 n=84 v=100
45600 On ch=1 n=84 v=100
45720 On ch=1 n=84 v=100
45840 On ch=1 n=84 v=100
45960 On ch=1 n=84 v=100
46080 On ch=1 n=84 v=100
46200 On ch=1 n=84 v=100
46320 On ch=1 n=84 v=100
46440 On ch=1 n=84 v=100
46560 On ch=1 n=84 v=100
46680 On ch=1 n=84 v=100
46800 On ch=1 n=84 v=100
46920 On ch=1 n=84 v=100
47040 On ch=1 n=84 v=100
47160 On ch=1 n=84 v=100
47280 On ch=1 n=84 v=100
47400 On ch=1 n=84 v=100
47520 On ch=1 n=84 v=100
47640 On ch=1 n=84 v=100
47760 On ch=1 n=84 v=100
47880 On ch=1 n=84 v=100
48000 On ch=1 n=84 v=100
48120 On ch=1 n=84 v=100
48240 On ch=1 n=84 v=100
48360 On ch=1 n=84 v=100
48480 On ch=1 n=84 v=100
48600 On ch=1 n=84 v=100
48720 On ch=1 n=84 v=100
48840 On ch=1 n=84 v=100
48960 On ch=1 n=84 v=100
49080 On ch=1 n=84 v=100
49200 On ch=1 n=84 v=100
49320 On ch=1 n=84 v=100
49440 On ch=1 n=84 v=100
49560 On ch=1 n=84 v=100
49680 On ch=1 n=84 v=100
49800 On ch=1 n=84 v=100
49920 On ch=1 n=84 v=100
50040 On ch=1 n=84 v=100
50160 On ch=1 n=84 v=100
50280 On ch=1 n=84 v=100
50400 On ch=1 n=84 v=100
50520 On ch=1 n=84 v=100
50640 On ch=1 n=84 v=100
50760 On ch=1 n=84 v=100
50880 On ch=1 n=84 v=100
51000 On ch=1 n=84 v=100
51120 On ch=1 n=84 v=100
51240 On ch=1 n=84 v=100
51360 On ch=1 n=84 v=100
51480 On ch=1 n=84 v=100
51600 On ch=1 n=84 v=100
51720 On ch=1 n=84 v=100
51840 On ch=1 n=84 v=100
51960 On ch=1 n=84 v=100
52080 On ch=1 n=84 v=100
52200 On ch=1 n=84 v=100
52320 On ch=1 n=84 v=100
52440 On ch=1 n=84 v=100
52560 On ch=1 n=84 v=100
52680 On ch=1 n=84 v=100
52800 On ch=1 n=84 v=100
52920 On ch=1 n=84 v=100
53040 On ch=1 n=84 v=100
53160 On ch=1 n=84 v=100
53280 On ch=1 n=84 v=100
53400 On ch=1 n=84 v=100
53520 On ch=1 n=84 v=100
53640 On ch=1 n=84 v=100
53760 On ch=1 n=84 v=100
53880 On ch=1 n=84 v=100
54000 On ch=1 n=84 v=100
54120 On ch=1 n=84 v=100
54240 On ch=1 n=84 v=100
54360 On ch=1 n=84 v=100
54480 On ch=1 n=84 v=100
54600 On ch=1 n=84 v=100
54720 On ch=1 n=84 v=100
54840 On ch=1 n=84 v=100
54960 On ch=1 n=84 v=100
55080 On ch=1 n=84 v=100
55200 On ch=1 n=84 v=100
55320 On ch=1 n=84 v=100
55440 On ch=1 n=84 v=100
55560 On ch=1 n=84 v=100
55680 On ch=1 n=84 v=100
55800 On ch=1 n=84 v=100
55920 On ch=1 n=84 v=100
56040 On ch=1 n=84 v=100
56160 On ch=1 n=84 v=100
56280 On ch=1 n=84 v=100
56400 On ch=1 n=84 v=100
56520 On ch=1 n=84 v=100
56640 On ch=1 n=84 v=100
56760 On ch=1 n=84 v=100
56880 On ch=1 n=84 v=100
57000 On ch=1 n=84 v=100
57120 On ch=1 n=84 v=100
57240 On ch=1 n=84 v=100
57360 On ch=1 n=84 v=100
57480 On ch=1 n=84 v=100
57600 On ch=1 n=84 v=100
57720 On ch=1 n=84 v=100
57840 On ch=1 n=84 v=100
57960 On ch=1 n=84 v=100
58080 On ch=1 n=84 v=100
58200 On ch=1 n=84 v=100
58320 On ch=1 n=84 v=100
58440 On ch=1 n=84 v=100
58560 On ch=1 n=84 v=100
58680 On ch=1 n=84 v=100
58800 On ch=1 n=84 v=100
58920 On ch=1 n=84 v=100
59040 On ch=1 n=84 v=100
59160 On ch=1 n=84 v=100
59280 On ch=1 n=84 v=100
59400 On ch=1 n=84 v=100
59520 On ch=1 n=84 v=100
59640 On ch=1 n=84 v=100
59760 On ch=1 n=84 v=100
59880 On ch=1 n=84 v=100
60000 On ch=1 n=84 v=100
60120 On ch=1 n=84 v=100
60240 On ch=1 n=84 v=100
60360 On ch=1 n=84 v=100
60480 On ch=1 n=84 v=100
60600 On ch=1 n=84 v=100
60720 On ch=1 n=84 v=100
60840 On ch=1 n=84 v=100
60960 On ch=1 n=84 v=100
61080 On ch=1 n=84 v=100
61200 On ch=1 n=84 v=100
61320 On ch=1 n=84 v=100
61440 On ch=1 n=84 v=100
61560 On ch=1 n=84 v=100
61680 On ch=1 n=84 v=100
61800 On ch=1 n=84 v=100
61920 On ch=1 n=84 v=100
62040 On ch=1 n=84 v=100
62160 On ch=1 n=84 v=100
62280 On ch=1 n=84 v=100
62400 On ch=1 n=84 v=100
62520 On ch=1 n=84 v=100
62640 On ch=1 n=84 v=100
62760 On ch=1 n=84 v=100
62880 On ch=1 n=84 v=100
63000 On ch=1 n=84 v=100
63120 On ch=1 n=84 v=100
63240 On ch=1 n=84 v=100
63360 On ch=1 n=84 v=100
63480 On ch=1 n=84 v=100
63600 On ch=1 n=84 v=100
63720 On ch=1 n=84 v=100
63840 On ch=1 n=84 v=100
63960 On ch=1 n=84 v=100
64080 On ch=1 n=84 v=100
64200 On ch=1 n=84 v=100
64320 On ch=1 n=84 v=100
64440 On ch=1 n=84 v=100
64560 On ch=1 n=84 v=100
64680 On ch=1 n=84 v=100
64800 On ch=1 n=84 v=100
64920 On ch=1 n=84 v=100
65040 On ch=1 n=84 v=100
65160 On ch=1 n=84 v=100
65280 On ch=1 n=84 v=100
65400 On ch=1 n=84 v=100
65520 On ch=1 n=84 v=100
65640 On ch=1 n=84 v=100
65760 On ch=1 n=84 v=100
65880 On ch=1 n=84 v=100
66000 On ch=1 n=84 v=100
66120 On ch=1 n=84 v=100
66240 On ch=1 n=84 v=100
66360 On ch=1 n=84 v=100
66480 On ch=1 n=84 v=100
66600 On ch=1 n=84 v=100
66720 On ch=1 n=84 v=100
66840 On ch=1 n=84 v=100
66960 On ch=1 n=84 v=100
67080 On ch=1 n=84 v=100
67200 On ch=1 n=84 v=100
67320 On ch=1 n=84 v=100
67440 On ch=1 n=84 v=100
67560 On ch=1 n=84 v=100
67680 On ch=1 n=84 v=100
67800 On ch=1 n=84 v=100
67920 On ch=1 n=84 v=100
68040 On ch=1 n=84 v=100
68160 On ch=1 n=84 v=100
68280 On ch=1 n=84 v=100
68400 On ch=1 n=84 v=100
68520 On ch=1 n=84 v=100
68640 On ch=1 n=84 v=100
68760 On ch=1 n=84 v=100
68880 On ch=1 n=84 v=100
69000 On ch=1 n=84 v=100
69120 On ch=1 n=84 v=100
69240 On ch=1 n=84 v=100
69360 On ch=1 n=84 v=100
69480 On ch=1 n=84 v=100
69600 On ch=1 n=84 v=100
69720 On ch=1 n=84 v=100
69840 On ch=1 n=84 v=100
69960 On ch=1 n=84 v=100
70080 On ch=1 n=84 v=100
70200 On ch=1 n=84 v=100
70320 On ch=1 n=84 v=100
70440 On ch=1 n=84 v=100
70560 On ch=1 n=84 v=100
70680 On ch=1 n=84 v=100
70800 On ch=1 n=84 v=100
70920 On ch=1 n=84 v=100
71040 On ch=1 n=84 v=100
71160 On ch=1 n=84 v=100
71280 On ch=1 n=84 v=100
71400 On ch=1 n=84 v=100
71520 On ch=1 n=84 v=100
71640 On ch=1 n=84 v=100
71760 On ch=1 n=84 v=100
71880 On ch=1 n=84 v=100
72000 On ch=1 n=84 v=100
72120 On ch=1 n=84 v=100
72240 On ch=1 n=84 v=100
72360 On ch=1 n=84 v=100
72480 On ch=1 n=84 v=100
72600 On ch=1 n=84 v=100
72720 On ch=1 n=84 v=100
72840 On ch=1 n=84 v=100
72960 On ch=1 n=84 v=100
73080 On ch=1 n=84 v=100
73200 On ch=1 n=84 v=100
73320 On ch=1 n=84 v=100
73440 On ch=1 n=84 v=100
73560 On ch=1 n=84 v=100
73680 On ch=1 n=84 v=100
73800 On ch=1 n=84 v=100
73920 On ch=1 n=84 v=100
74040 On ch=1 n=84 v=100
74160 On ch=1 n=84 v=100
74280 On ch=1 n=84 v=100
74400 On ch=1 n=84 v=100
74520 On ch=1 n=84 v=100
74640 On ch=1 n=84 v=100
74760 On ch=1 n=84 v=100
74880 On ch=1 n=84 v=100
75000 On ch=1 n=84 v=100
75120 On ch=1 n=84 v=100
75240 On ch=1 n=84 v=100
75360 On ch=1 n=84 v=100
75480 On ch=1 n=84 v=100
75600 On ch=1 n=84 v=100
75720 On ch=1 n=84 v=100
75840 On ch=1 n=84 v=100
75960 On ch=1 n=84 v=100
76080 On ch=1 n=84 v=100
76200 On ch=1 n=84 v=100
76320 On ch=1 n=84 v=100
76440 On ch=1 n=84 v=100
76560 On ch=1 n=84 v=100
76680 On ch=1 n=84 v=100
76800 On ch=1 n=84 v=100
76920 On ch=1 n=84 v=100
77040 On ch=1 n=84 v=100
77160 On ch=1 n=84 v=100
77280 On ch=1 n=84 v=100
77400 On ch=1 n=84 v=100
77520 On ch=1 n=84 v=100
77640 On ch=1 n=84 v=100
77760 On ch=1 n=84 v=100
77880 On ch=1 n=84 v=100
78000 On ch=1 n=84 v=100
78120 On ch=1 n=84 v=100
78240 On ch=1 n=84 v=100
78360 On ch=1 n=84 v=100
78480 On ch=1 n=84 v=100
78600 On ch=1 n=84 v=100
78720 On ch=1 n=84 v=100
78840 On ch=1 n=84 v=100
78960 On ch=1 n=84 v=100
79080 On ch=1 n=84 v=100
79200 On ch=1 n=84 v=100
79320 On ch=1 n=84 v=100
79440 On ch=1 n=84 v=100
79560 On ch=1 n=84 v=100
79680 On ch=1 n=84 v=100
79800 On ch=1 n=84 v=100
79920 On ch=1 n=84 v=100
80040 On ch=1 n=84 v=100
80160 On ch=1 n=84 v=100
80280 On ch=1 n=84 v=100
80400 On ch=1 n=84 v=100
80520 On ch=1 n=84 v=100
80640 On ch=1 n=84 v=100
80760 On ch=1 n=84 v=100
80880 On ch=1 n=84 v=100
81000 On ch=1 n=84 v=100
81120 On ch=1 n=84 v=100
81240 On ch=1 n=84 v=100
81360 On ch=1 n=84 v=100
81480 On ch=1 n=84 v=100
81600 On ch=1 n=84 v=100
81720 On ch=1 n=84 v=100
81840 On ch=1 n=84 v=100
81960 On ch=1 n=84 v=100
82080 On ch=1 n=84 v=100
82200 On ch=1 n=84 v=100
82320 On ch=1 n=84 v=100
82440 On ch=1 n=84 v=100
82560 On ch=1 n=84 v=100
82680 On ch=1 n=84 v=100
82800 On ch=1 n=84 v=100
82920 On ch=1 n=84 v=100
83040 On ch=1 n=84 v=100
83160 On ch=1 n=84 v=100
83280 On ch=1 n=84 v=100
83400 On ch=1 n=84 v=100
83520 On ch=1 n=84 v=100
83640 On ch=1 n=84 v=100
83760 On ch=1 n=84 v=100
83880 On ch=1 n=84 v=100
84000 On ch=1 n=84 v=100
84120 On ch=1 n=84 v=100
84240 On ch=1 n=84 v=100
84360 On ch=1 n=84 v=100
84480 On ch=1 n=84 v=100
84600 On ch=1 n=84 v=100
84720 On ch=1 n=84 v=100
84840 On ch=1 n=84 v=100
84960 On ch=1 n=84 v=100
85080 On ch=1 n=84 v=100
85200 On ch=1 n=84 v=100
85320 On ch=1 n=84 v=100
85440 On ch=1 n=84 v=100
85560 On ch=1 n=84 v=100
85680 On ch=1 n=84 v=100
85800 On ch=1 n=84 v=100
85920 On ch=1 n=84 v=100
86040 On ch=1 n=84 v=100
86160 On ch=1 n=84 v=100
86280 On ch=1 n=84 v=100
86400 On ch=1 n=84 v=100
86520 On ch=1 n=84 v=100
86640 On ch=1 n=84 v=100
86760 On ch=1 n=84 v=100
86880 On ch=1 n=84 v=100
87000 On ch=1 n=84 v=100
87120 On ch=1 n=84 v=100
87240 On ch=1 n=84 v=100
87360 On ch=1 n=84 v=100
87480 On ch=1 n=84 v=100
87600 On ch=1 n=84 v=100
87720 On ch=1 n=84 v=100
87840 On ch=1 n=84 v=100
87960 On ch=1 n=84 v=100
88080 On ch=1 n=84 v=100
88200 On ch=1 n=84 v=100
88320 On ch=1 n=84 v=100
88440 On ch=1 n=84 v=100
88560 On ch=1 n=84 v=100
88680 On ch=1 n=84 v=100
88800 On ch=1 n=84 v=100
88920 On ch=1 n=84 v=100
89040 On ch=1 n=84 v=100
89160 On ch=1 n=84 v=100
89280 On ch=1 n=84 v=100
89400 On ch=1 n=84 v=100
89520 On ch=1 n=84 v=100
89640 On ch=1 n=84 v=100
89760 On ch=1 n=84 v=100
89880 On ch=1 n=84 v=100
90000 On ch=1 n=84 v=100
90120 On ch=1 n=84 v=100
90240 On ch=1 n=84 v=100
90360 On ch=1 n=84 v=100
90480 On ch=1 n=84 v=100
90600 On ch=1 n=84 v=100
90720 On ch=1 n=84 v=100
90840 On ch=1 n=84 v=100
90960 On ch=1 n=84 v=100
91080 On ch=1 n=84 v=100
91200 On ch=1 n=84 v=100
91320 On ch=1 n=84 v=100
91440 On ch=1 n=84 v=100
91560 On ch=1 n=84 v=100
91680 On ch=1 n=84 v=100
91800 On ch=1 n=84 v=100
91920 On ch=1 n=84 v=100
92040 On ch=1 n=84 v=100
92160 On ch=1 n=84 v=100
92280 On ch=1 n=84 v=100
92400 On ch=1 n=84 v=100
92520 On ch=1 n=84 v=100
92640 On ch=1 n=84 v=100
92760 On ch=1 n=84 v=100
92880 On ch=1 n=84 v=100
93000 On ch=1 n=84 v=100
93120 On ch=1 n=84 v=100
93240 On ch=1 n=84 v=100
93360 On ch=1 n=84 v=100
93480 On ch=1 n=84 v=100
93600 On ch=1 n=84 v=100
93720 On ch=1 n=84 v=100
93840 On ch=1 n=84 v=100
93960 On ch=1 n=84 v=100
94080 On ch=1 n=84 v=100
94200 On ch=1 n=84 v=100
94320 On ch=1 n=84 v=100
94440 On ch=1 n=84 v=100
94560 On ch=1 n=84 v=100
94680 On ch=1 n=84 v=100
94800 On ch=1 n=84 v=100
94920 On ch=1 n=84 v=100
95040 On ch=1 n=84 v=100
95160 On ch=1 n=84 v=100
95280 On ch=1 n=84 v=100
95400 On ch=1 n=84 v=100
95520 On ch=1 n=84 v=100
95640 On ch=1 n=84 v=100
95760 On ch=1 n=84 v=100
95880 On ch=1 n=84 v=100
96000 On ch=1 n=84 v=100
96120 On ch=1 n=84 v=100
96240 On ch=1 n=84 v=100
96360 On ch=1 n=84 v=100
96480 On ch=1 n=84 v=100
96600 On ch=1 n=84 v=100
96720 On ch=1 n=84 v=100
96840 On ch=1 n=84 v=100
96960 On ch=1 n=84 v=100
97080 On ch=1 n=84 v=100
97200 On ch=1 n=84 v=100
97320 On ch=1 n=84 v=100
97440 On ch=1 n=84 v=100
97560 On ch=1 n=84 v=100
97680 On ch=1 n=84 v=100
97800 On ch=1 n=84 v=100
97920 On ch=1 n=84 v=100
98040 On ch=1 n=84 v=100
98160 On ch=1 n=84 v=100
98280 On ch=1 n=84 v=100
98400 On ch=1 n=84 v=100
98520 On ch=1 n=84 v=100
98640 On ch=1 n=84 v=100
98760 On ch=1 n=84 v=100
98880 On ch=1 n=84 v=100
99000 On ch=1 n=84 v=100
99120 On ch=1 n=84 v=100
99240 On ch=1 n=84 v=100
99360 On ch=1 n=84 v=100
99480 On ch=1 n=84 v=100
99600 On ch=1 n=84 v=100
99720 On ch=1 n=84 v=100
99840 On ch=1 n=84 v=100
99960 On ch=1 n=84 v=100
100080 On ch=1 n=84 v=100
100200 On ch=1 n=84 v=100
100320 On ch=1 n=84 v=100
100440 On ch=1 n=84 v=100
100560 On ch=1 n=84 v=100
100680 On ch=1 n=84 v=100
100800 On ch=1 n=84 v=100
100920 On ch=1 n=84 v=100
101040 On ch=1 n=84 v=100
101160 On ch=1 n=84 v=100
101280 On ch=1 n=84 v=100
101400 On ch=1 n=84 v=100
101520 On ch=1 n=84 v=100
101640 On ch=1 n=84 v=100
101760 On ch=1 n=84 v=100
101880 On ch=1 n=84 v=100
102000 On ch=1 n=84 v=100
102120 On ch=1 n=84 v=100
102240 On ch=1 n=84 v=100
102360 On ch=1 n=84 v=100
102480 On ch=1 n=84 v=100
102600 On ch=1 n=84 v=100
102720 On ch=1 n=84 v=100
102840 On ch=1 n=84 v=100
102960 On ch=1 n=84 v=100
103080 On ch=1 n=84 v=100
103200 On ch=1 n=84 v=100
103320 On ch=1 n=84 v=100
103440 On ch=1 n=84 v=100
103560 On ch=1 n=84 v=100
103680 On ch=1 n=84 v=100
103800 On ch=1 n=84 v=100
103920 On ch=1 n=84 v=100
104040 On ch=1 n=84 v=100
104160 On ch=1 n=84 v=100
104280 On ch=1 n=84 v=100
104400 On ch=1 n=84 v=100
104520 On ch=1 n=84 v=100
104640 On ch=1 n=84 v=100
104760 On ch=1 n=84 v=100
104880 On ch=1 n=84 v=100
105000 On ch=1 n=84 v=100
105120 On ch=1 n=84 v=100
105240 On ch=1 n=84 v=100
105360 On ch=1 n=84 v=100
105480 On ch=1 n=84 v=100
105600 On ch=1 n=84 v=100
105720 On ch=1 n=84 v=100
105840 On ch=1 n=84 v=100
105960 On ch=1 n=84 v=100
106080 On ch=1 n=84 v=100
106200 On ch=1 n=84 v=100
106320 On ch=1 n=84 v=100
106440 On ch=1 n=84 v=100
106560 On ch=1 n=84 v=100
106680 On ch=1 n=84 v=100
106800 On ch=1 n=84 v=100
106920 On ch=1 n=84 v=100
107040 On ch=1 n=84 v=100
107160 On ch=1 n=84 v=100
107280 On ch=1 n=84 v=100
107400 On ch=1 n=84 v=100
107520 On ch=1 n=84 v=100
107640 On ch=1 n=84 v=100
107760 On ch=1 n=84 v=100
107880 On ch=1 n=84 v=100
108000 On ch=1 n=84 v=100
108120 On ch=1 n=84 v=100
108240 On ch=1 n=84 v=100
108360 On ch=1 n=84 v=100
108480 On ch=1 n=84 v=100
108600 On ch=1 n=84 v=100
108720 On ch=1 n=84 v=100
108840 On ch=1 n=84 v=100
108960 On ch=1 n=84 v=100
109080 On ch=1 n=84 v=100
109200 On ch=1 n=84 v=100
109320 On ch=1 n=84 v=100
109440 On ch=1 n=84 v=100
109560 On ch=1 n=84 v=100
109680 On ch=1 n=84 v=100
109800 On ch=1 n=84 v=100
109920 On ch=1 n=84 v=100
110040 On ch=1 n=84 v=100
110160 On ch=1 n=84 v=100
110280 On ch=1 n=84 v=100
110400 On ch=1 n=84 v=100
110520 On ch=1 n=84 v=100
110640 On ch=1 n=84 v=100
110760 On ch=1 n=84 v=100
110880 On ch=1 n=84 v=100
111000 On ch=1 n=84 v=100
111120 On ch=1 n=84 v=100
111240 On ch=1 n=84 v=100
111360 On ch=1 n=84 v=100
111480 On ch=1 n=84 v=100
111600 On ch=1 n=84 v=100
111720 On ch=1 n=84 v=100
111840 On ch=1 n=84 v=100
111960 On ch=1 n=84 v=100
112080 On ch=1 n=84 v=100
112200 On ch=1 n=84 v=100
112320 On ch=1 n=84 v=100
112440 On ch=1 n=84 v=100
112560 On ch=1 n=84 v=100
112680 On ch=1 n=84 v=100
112800 On ch=1 n=84 v=100
112920 On ch=1 n=84 v=100
113040 On ch=1 n=84 v=100
113160 On ch=1 n=84 v=100
113280 On ch=1 n=84 v=100
113400 On ch=1 n=84 v=100
113520 On ch=1 n=84 v=100
113640 On ch=1 n=84 v=100
113760 On ch=1 n=84 v=100
113880 On ch=1 n=84 v=100
114000 On ch=1 n=84 v=100
114120 On ch=1 n=84 v=100
114240 On ch=1 n=84 v=100
114360 On ch=1 n=84 v=100
114480 On ch=1 n=84 v=100
114600 On ch=1 n=84 v=100
114720 On ch=1 n=84 v=100
114840 On ch=1 n=84 v=100
114960 On ch=1 n=84 v=100
115080 On ch=1 n=84 v=100
115200 On ch=1 n=84 v=100
115320 On ch=1 n=84 v=100
115440 On ch=1 n=84 v=100
115560 On ch=1 n=84 v=100
115680 On ch=1 n=84 v=100
115800 On ch=1 n=84 v=100
115920 On ch=1 n=84 v=100
116040 On ch=1 n=84 v=100
116160 On ch=1 n=84 v=100
116280 On ch=1 n=84 v=100
116400 On ch=1 n=84 v=100
116520 On ch=1 n=84 v=100
116640 On ch=1 n=84 v=100
116760 On ch=1 n=84 v=100
116880 On ch=1 n=84 v=100
117000 On ch=1 n=84 v=100
117120 On ch=1 n=84 v=100
117240 On ch=1 n=84 v=100
117360 On ch=1 n=84 v=100
117480 On ch=1 n=84 v=100
117600 On ch=1 n=84 v=100
117720 On ch=1 n=84 v=100
117840 On ch=1 n=84 v=100
117960 On ch=1 n=84 v=100
118080 On ch=1 n=84 v=100
118200 On ch=1 n=84 v=100
118320 On ch=1 n=84 v=100
118440 On ch=1 n=84 v=100
118560 On ch=1 n=84 v=100
118680 On ch=1 n=84 v=100
118800 On ch=1 n=84 v=100
118920 On ch=1 n=84 v=100
119040 On ch=1 n=84 v=100
119160 On ch=1 n=84 v=100
119280 On ch=1 n=84 v=100
119400 On ch=1 n=84 v=100
119520 On ch=1 n=84 v=100
119640 On ch=1 n=84 v=100
119760 On ch=1 n=84 v=100
119880 On ch=1 n=84 v=100
120000 On ch=1 n=84 v=100
120120 On ch=1 n=84 v=100
120240 On ch=1 n=84 v=100
120360 On ch=1 n=84 v=100
120480 On ch=1 n=84 v=100
120600 On ch=1 n=84 v=100
120720 On ch=1 n=84 v=100
120840 On ch=1 n=84 v=100
120960 On ch=1 n=84 v=100
121080 On ch=1 n=84 v=100
121200 On ch=1 n=84 v=100
121320 On ch=1 n=84 v=100
121440 On ch=1 n=84 v=100
121560 On ch=1 n=84 v=100
121680 On ch=1 n=84 v=100
121800 On ch=1 n=84 v=100
121920 On ch=1 n=84 v=100
122040 On ch=1 n=84 v=100
122160 On ch=1 n=84 v=100
122280 On ch=1 n=84 v=100
122400 On ch=1 n=84 v=100
122520 On ch=1 n=84 v=100
122640 On ch=1 n=84 v=100
122760 On ch=1 n=84 v=100
122880 On ch=1 n=84 v=100
123000 On ch=1 n=84 v=100
123120 On ch=1 n=84 v=100
123240 On ch=1 n=84 v=100
123360 On ch=1 n=84 v=100
123480 On ch=1 n=84 v=100
123600 On ch=1 n=84 v=100
123720 On ch=1 n=84 v=100
123840 On ch=1 n=84 v=100
123960 On ch=1 n=84 v=100
124080 On ch=1 n=84 v=100
124200 On ch=1 n=84 v=100
124320 On ch=1 n=84 v=100
124440 On ch=1 n=84 v=100
124560 On ch=1 n=84 v=100
124680 On ch=1 n=84 v=100
124800 On ch=1 n=84 v=100
124920 On ch=1 n=84 v=100
125040 On ch=1 n=84 v=100
125160 On ch=1 n=84 v=100
125280 On ch=1 n=84 v=100
125400 On ch=1 n=84 v=100
125520 On ch=1 n=84 v=100
125640 On ch=1 n=84 v=100
125760 On ch=1 n=84 v=100
125880 On ch=1 n=84 v=100
126000 On ch=1 n=84 v=100
126120 On ch=1 n=84 v=100
126240 On ch=1 n=84 v=100
126360 On ch=1 n=84 v=100
126480 On ch=1 n=84 v=100
126600 On ch=1 n=84 v=100
126720 On ch=1 n=84 v=100
126840 On ch=1 n=84 v=100
126960 On ch=1 n=84 v=100
127080 On ch=1 n=84 v=100
127200 On ch=1 n=84 v=100
127320 On ch=1 n=84 v=100
127440 On ch=1 n=84 v=100
127560 On ch=1 n=84 v=100
127680 On ch=1 n=84 v=100
127800 On ch=1 n=84 v=100
127920 On ch=1 n=84 v=100
128040 On ch=1 n=84 v=100
128160 On ch=1 n=84 v=100
128280 On ch=1 n=84 v=100
128400 On ch=1 n=84 v=100
128520 On ch=1 n=84 v=100
128640 On ch=1 n=84 v=100
128760 On ch=1 n=84 v=100
128880 On ch=1 n=84 v=100
129000 On ch=1 n=84 v=100
129120 On ch=1 n=84 v=100
129240 On ch=1 n=84 v=100
129360 On ch=1 n=84 v=100
129480 On ch=1 n=84 v=100
129600 On ch=1 n=84 v=100
129720 On ch=1 n=84 v=100
129840 On ch=1 n=84 v=100
129960 On ch=1 n=84 v=100
130080 On ch=1 n=84 v=100
130200 On ch=1 n=84 v=100
130320 On ch=1 n=84 v=100
130440 On ch=1 n=84 v=100
130560 On ch=1 n=84 v=100
130680 On ch=1 n=84 v=100
130800 On ch=1 n=84 v=100
130920 On ch=1 n=84 v=100
131040 On ch=1 n=84 v=100
131160 On ch=1 n=84 v=100
131280 On ch=1 n=84 v=100
131400 On ch=1 n=84 v=100
131520 On ch=1 n=84 v=100
131640 On ch=1 n=84 v=100
131760 On ch=1 n=84 v=100
131880 On ch=1 n=84 v=100
132000 On ch=1 n=84 v=100
132120 On ch=1 n=84 v=100
132240 On ch=1 n=84 v=100
132360 On ch=1 n=84 v=100
132480 On ch=1 n=84 v=100
132600 On ch=1 n=84 v=100
132720 On ch=1 n=84 v=100
132840 On ch=1 n=84 v=100
132960 On ch=1 n=84 v=100
133080 On ch=1 n=84 v=100
133200 On ch=1 n=84 v=100
133320 On ch=1 n=84 v=100
133440 On ch=1 n=84 v=100
133560 On ch=1 n=84 v=100
133680 On ch=1 n=84 v=100
133800 On ch=1 n=84 v=100
133920 On ch=1 n=84 v=100
134040 On ch=1 n=84 v=100
134160 On ch=1 n=84 v=100
134280 On ch=1 n=84 v=100
134400 On ch=1 n=84 v=100
134520 On ch=1 n=84 v=100
134640 On ch=1 n=84 v=100
134760 On ch=1 n=84 v=100
134880 On ch=1 n=84 v=100
135000 On ch=1 n=84 v=100
135120 On ch=1 n=84 v=100
135240 On ch=1 n=84 v=100
135360 On ch=1 n=84 v=100
135480 On ch=1 n=84 v=100
135600 On ch=1 n=84 v=100
135720 On ch=1 n=84 v=100
135840 On ch=1 n=84 v=100
135960 On ch=1 n=84 v=100
136080 On ch=1 n=84 v=100
136200 On ch=1 n=84 v=100
136320 On ch=1 n=84 v=100
136440 On ch=1 n=84 v=100
136560 On ch=1 n=84 v=100
136680 On ch=1 n=84 v=100
136800 On ch=1 n=84 v=100
136920 On ch=1 n=84 v=100
137040 On ch=1 n=84 v=100
137160 On ch=1 n=84 v=100
137280 On ch=1 n=84 v=100
137400 On ch=1 n=84 v=100
137520 On ch=1 n=84 v=100
137640 On ch=1 n=84 v=100
137760 On ch=1 n=84 v=100
137880 On ch=1 n=84 v=100
138000 On ch=1 n=84 v=100
138120 On ch=1 n=84 v=100
138240 On ch=1 n=84 v=100
138360 On ch=1 n=84 v=100
138480 On ch=1 n=84 v=100
138600 On ch=1 n=84 v=100
138720 On ch=1 n=84 v=100
138840 On ch=1 n=84 v=100
138960 On ch=1 n=84 v=100
139080 On ch=1 n=84 v=100
139200 On ch=1 n=84 v=100
139320 On ch=1 n=84 v=100
139440 On ch=1 n=84 v=100
139560 On ch=1 n=84 v=100
139680 On ch=1 n=84 v=100
139800 On ch=1 n=84 v=100
139920 On ch=1 n=84 v=100
140040 On ch=1 n=84 v=100
140160 On ch=1 n=84 v=100
140280 On ch=1 n=84 v=100
140400 On ch=1 n=84 v=100
140520 On ch=1 n=84 v=100
140640 On ch=1 n=84 v=100
140760 On ch=1 n=84 v=100
140880 On ch=1 n=84 v=100
141000 On ch=1 n=84 v=100
141120 On ch=1 n=84 v=100
141240 On ch=1 n=84 v=100
141360 On ch=1 n=84 v=100
141480 On ch=1 n=84 v=100
141600 On ch=1 n=84 v=100
141720 On ch=1 n=84 v=100
141840 On ch=1 n=84 v=100
141960 On ch=1 n=84 v=100
142080 On ch=1 n=84 v=100
142200 On ch=1 n=84 v=100
142320 On ch=1 n=84 v=100
142440 On ch=1 n=84 v=100
142560 On ch=1 n=84 v=100
142680 On ch=1 n=84 v=100
142800 On ch=1 n=84 v=100
142920 On ch=1 n=84 v=100
143040 On ch=1 n=84 v=100
143160 On ch=1 n=84 v=100
143280 On ch=1 n=84 v=100
143400 On ch=1 n=84 v=100
143520 On ch=1 n=84 v=100
143640 On ch=1 n=84 v=100
143760 On ch=1 n=84 v=100
143880 On ch=1 n=84 v=100
144000 On ch=1 n=84 v=100
144120 On ch=1 n=84 v=100
144240 On ch=1 n=84 v=100
144360 On ch=1 n=84 v=100
144480 On ch=1 n=84 v=100
144600 On ch=1 n=84 v=100
144720 On ch=1 n=84 v=100
144840 On ch=1 n=84 v=100
144960 On ch=1 n=84 v=100
145080 On ch=1 n=84 v=100
145200 On ch=1 n=84 v=100
145320 On ch=1 n=84 v=100
145440 On ch=1 n=84 v=100
145560 On ch=1 n=84 v=100
145680 On ch=1 n=84 v=100
145800 On ch=1 n=84 v=100
145920 On ch=1 n=84 v=100
146040 On ch=1 n=84 v=100
146160 On ch=1 n=84 v=100
146280 On ch=1 n=84 v=100
146400 On ch=1 n=84 v=100
146520 On ch=1 n=84 v=100
146640 On ch=1 n=84 v=100
146760 On ch=1 n=84 v=100
146880 On ch=1 n=84 v=100
147000 On ch=1 n=84 v=100
147120 On ch=1 n=84 v=100
147240 On ch=1 n=84 v=100
147360 On ch=1 n=84 v=100
147480 On ch=1 n=84 v=100
147600 On ch=1 n=84 v=100
147720 On ch=1 n=84 v=100
147840 On ch=1 n=84 v=100
147960 On ch=1 n=84 v=100
148080 On ch=1 n=84 v=100
148200 On ch=1 n=84 v=100
148320 On ch=1 n=84 v=100
148440 On ch=1 n=84 v=100
148560 On ch=1 n=84 v=100
148680 On ch=1 n=84 v=100
148800 On ch=1 n=84 v=100
148920 On ch=1 n=84 v=100
149040 On ch=1 n=84 v=100
149160 On ch=1 n=84 v=100
149280 On ch=1 n=84 v=100
149400 On ch=1 n=84 v=100
149520 On ch=1 n=84 v=100
149640 On ch=1 n=84 v=100
149760 On ch=1 n=84 v=100
149880 On ch=1 n=84 v=100
150000 On ch=1 n=84 v=100
150120 On ch=1 n=84 v=100
150240 On ch=1 n=84 v=100
150360 On ch=1 n=84 v=100
150480 On ch=1 n=84 v=100
150600 On ch=1 n=84 v=100
150720 On ch=1 n=84 v=100
150840 On ch=1 n=84 v=100
150960 On ch=1 n=84 v=100
151080 On ch=1 n=84 v=100
151200 On ch=1 n=84 v=100
151320 On ch=1 n=84 v=100
151440 On ch=1 n=84 v=100
151560 On ch=1 n=84 v=100
151680 On ch=1 n=84 v=100
151800 On ch=1 n=84 v=100
151920 On ch=1 n=84 v=100
152040 On ch=1 n=84 v=100
152160 On ch=1 n=84 v=100
152280 On ch=1 n=84 v=100
152400 On ch=1 n=84 v=100
152520 On ch=1 n=84 v=100
152640 On ch=1 n=84 v=100
152760 On ch=1 n=84 v=100
152880 On ch=1 n=84 v=100
153000 On ch=1 n=84 v=100
153120 On ch=1 n=84 v=100
153240 On ch=1 n=84 v=100
153360 On ch=1 n=84 v=100
153480 On ch=1 n=84 v=100
153600 On ch=1 n=84 v=100
153720 On ch=1 n=84 v=100
153840 On ch=1 n=84 v=100
153960 On ch=1 n=84 v=100
154080 On ch=1 n=84 v=100
154200 On ch=1 n=84 v=100
154320 On ch=1 n=84 v=100
154440 On ch=1 n=84 v=100
154560 On ch=1 n=84 v=100
154680 On ch=1 n=84 v=100
154800 On ch=1 n=84 v=100
154920 On ch=1 n=84 v=100
155040 On ch=1 n=84 v=100
155160 On ch=1 n=84 v=100
155280 On ch=1 n=84 v=100
155400 On ch=1 n=84 v=100
155520 On ch=1 n=84 v=100
155640 On ch=1 n=84 v=100
155760 On ch=1 n=84 v=100
155880 On ch=1 n=84 v=100
156000 On ch=1 n=84 v=100
156120 On ch=1 n=84 v=100
156240 On ch=1 n=84 v=100
156360 On ch=1 n=84 v=100
156480 On ch=1 n=84 v=100
156600 On ch=1 n=84 v=100
156720 On ch=1 n=84 v=100
156840 On ch=1 n=84 v=100
156960 On ch=1 n=84 v=100
157080 On ch=1 n=84 v=100
157200 On ch=1 n=84 v=100
157320 On ch=1 n=84 v=100
157440 On ch=1 n=84 v=100
157560 On ch=1 n=84 v=100
157680 On ch=1 n=84 v=100
157800 On ch=1 n=84 v=100
157920 On ch=1 n=84 v=100
158040 On ch=1 n=84 v=100
158160 On ch=1 n=84 v=100
158280 On ch=1 n=84 v=100
158400 On ch=1 n=84 v=100
158520 On ch=1 n=84 v=100
158640 On ch=1 n=84 v=100
158760 On ch=1 n=84 v=100
158880 On ch=1 n=84 v=100
159000 On ch=1 n=84 v=100
159120 On ch=1 n=84 v=100
159240 On ch=1 n=84 v=100
159360 On ch=1 n=84 v=100
159480 On ch=1 n=84 v=100
159600 On ch=1 n=84 v=100
159720 On ch=1 n=84 v=100
159840 On ch=1 n=84 v=100
159960 On ch=1 n=84 v=100
160080 On ch=1 n=84 v=100
160200 On ch=1 n=84 v=100
160320 On ch=1 n=84 v=100
160440 On ch=1 n=84 v=100
160560 On ch=1 n=84 v=100
160680 On ch=1 n=84 v=100
160800 On ch=1 n=84 v=100
160920 On ch=1 n=84 v=100
161040 On ch=1 n=84 v=100
161160 On ch=1 n=84 v=100
161280 On ch=1 n=84 v=100
161400 On ch=1 n=84 v=100
161520 On ch=1 n=84 v=100
161640 On ch=1 n=84 v=100
161760 On ch=1 n=84 v=100
161880 On ch=1 n=84 v=100
162000 On ch=1 n=84 v=100
162120 On ch=1 n=84 v=100
162240 On ch=1 n=84 v=100
162360 On ch=1 n=84 v=100
162480 On ch=1 n=84 v=100
162600 On ch=1 n=84 v=100
162720 On ch=1 n=84 v=100
162840 On ch=1 n=84 v=100
162960 On ch=1 n=84 v=100
163080 On ch=1 n=84 v=100
163200 On ch=1 n=84 v=100
163320 On ch=1 n=84 v=100
163440 On ch=1 n=84 v=100
163560 On ch=1 n=84 v=100
163680 On ch=1 n=84 v=100
163800 On ch=1 n=84 v=100
163920 On ch=1 n=84 v=100
164040 On ch=1 n=84 v=100
164160 On ch=1 n=84 v=100
164280 On ch=1 n=84 v=100
164400 On ch=1 n=84 v=100
164520 On ch=1 n=84 v=100
164640 On ch=1 n=84 v=100
164760 On ch=1 n=84 v=100
164880 On ch=1 n=84 v=100
165000 On ch=1 n=84 v=100
165120 On ch=1 n=84 v=100
165240 On ch=1 n=84 v=100
165360 On ch=1 n=84 v=100
165480 On ch=1 n=84 v=100
165600 On ch=1 n=84 v=100
165720 On ch=1 n=84 v=100
165840 On ch=1 n=84 v=100
165960 On ch=1 n=84 v=100
166080 On ch=1 n=84 v=100
166200 On ch=1 n=84 v=100
166320 On ch=1 n=84 v=100
166440 On ch=1 n=84 v=100
166560 On ch=1 n=84 v=100
166680 On ch=1 n=84 v=100
166800 On ch=1 n=84 v=100
166920 On ch=1 n=84 v=100
167040 On ch=1 n=84 v=100
167160 On ch=1 n=84 v=100
167280 On ch=1 n=84 v=100
167400 On ch=1 n=84 v=100
167520 On ch=1 n=84 v=100
167640 On ch=1 n=84 v=100
167760 On ch=1 n=84 v=100
167880 On ch=1 n=84 v=100
168000 On ch=1 n=84 v=100
168120 On ch=1 n=84 v=100
168240 On ch=1 n=84 v=100
168360 On ch=1 n=84 v=100
168480 On ch=1 n=84 v=100
168600 On ch=1 n=84 v=100
168720 On ch=1 n=84 v=100
168840 On ch=1 n=84 v=100
168960 On ch=1 n=84 v=100
169080 On ch=1 n=84 v=100
169200 On ch=1 n=84 v=100
169320 On ch=1 n=84 v=100
169440 On ch=1 n=84 v=100
169560 On ch=1 n=84 v=100
169680 On ch=1 n=84 v=100
169800 On ch=1 n=84 v=100
169920 On ch=1 n=84 v=100
170040 On ch=1 n=84 v=100
170160 On ch=1 n=84 v=100
170280 On ch=1 n=84 v=100
170400 On ch=1 n=84 v=100
170520 On ch=1 n=84 v=100
170640 On ch=1 n=84 v=100
170760 On ch=1 n=84 v=100
170880 On ch=1 n=84 v=100
171000 On ch=1 n=84 v=100
171120 On ch=1 n=84 v=100
171240 On ch=1 n=84 v=100
171360 On ch=1 n=84 v=100
171480 On ch=1 n=84 v=100
171600 On ch=1 n=84 v=100
171720 On ch=1 n=84 v=100
171840 On ch=1 n=84 v=100
171960 On ch=1 n=84 v=100
172080 On ch=1 n=84 v=100
172200 On ch=1 n=84 v=100
172320 On ch=1 n=84 v=100
172440 On ch=1 n=84 v=100
172560 On ch=1 n=84 v=100
172680 On ch=1 n=84 v=100
172800 On ch=1 n=84 v=100
172920 On ch=1 n=84 v=100
173040 On ch=1 n=84 v=100
173160 On ch=1 n=84 v=100
173280 On ch=1 n=84 v=100
173400 On ch=1 n=84 v=100
173520 On ch=1 n=84 v=100
173640 On ch=1 n=84 v=100
173760 On ch=1 n=84 v=100
173880 On ch=1 n=84 v=100
174000 On ch=1 n=84 v=100
174120 On ch=1 n=84 v=100
174240 On ch=1 n=84 v=100
174360 On ch=1 n=84 v=100
174480 On ch=1 n=84 v=100
174600 On ch=1 n=84 v=100
174720 On ch=1 n=84 v=100
174840 On ch=1 n=84 v=100
174960 On ch=1 n=84 v=100
175080 On ch=1 n=84 v=100
175200 On ch=1 n=84 v=100
175320 On ch=1 n=84 v=100
175440 On ch=1 n=84 v=100
175560 On ch=1 n=84 v=100
175680 On ch=1 n=84 v=100
175800 On ch=1 n=84 v=100
175920 On ch=1 n=84 v=100
176040 On ch=1 n=84 v=100
176160 On ch=1 n=84 v=100
176280 On ch=1 n=84 v=100
176400 On ch=1 n=84 v=100
176520 On ch=1 n=84 v=100
176640 On ch=1 n=84 v=100
176760 On ch=1 n=84 v=100
176880 On ch=1 n=84 v=100
177000 On ch=1 n=84 v=100
177120 On ch=1 n=84 v=100
177240 On ch=1 n=84 v=100
177360 On ch=1 n=84 v=100
177480 On ch=1 n=84 v=100
177600 On ch=1 n=84 v=100
177720 On ch=1 n=84 v=100
177840 On ch=1 n=84 v=100
177960 On ch=1 n=84 v=100
178080 On ch=1 n=84 v=100
178200 On ch=1 n=84 v=100
178320 On ch=1 n=84 v=100
178440 On ch=1 n=84 v=100
178560 On ch=1 n=84 v=100
178680 On ch=1 n=84 v=100
178800 On ch=1 n=84 v=100
178920 On ch=1 n=84 v=100
179040 On ch=1 n=84 v=100
179160 On ch=1 n=84 v=100
179280 On ch=1 n=84 v=100
179400 On ch=1 n=84 v=100
179520 On ch=1 n=84 v=100
179640 On ch=1 n=84 v=100
179760 On ch=1 n=84 v=100
179880 On ch=1 n=84 v=100
180000 On ch=1 n=84 v=100
180120 On ch=1 n=84 v=100
180240 On ch=1 n=84 v=100
180360 On ch=1 n=84 v=100
180480 On ch=1 n=84 v=100
180600 On ch=1 n=84 v=100
180720 On ch=1 n=84 v=100
180840 On ch=1 n=84 v=100
180960 On ch=1 n=84 v=100
181080 On ch=1 n=84 v=100
181200 On ch=1 n=84 v=100
181320 On ch=1 n=84 v=100
181440 On ch=1 n=84 v=100
181560 On ch=1 n=84 v=100
181680 On ch=1 n=84 v=100
181800 On ch=1 n=84 v=100
181920 On ch=1 n=84 v=100
182040 On ch=1 n=84 v=100
182160 On ch=1 n=84 v=100
182280 On ch=1 n=84 v=100
182400 On ch=1 n=84 v=100
182520 On ch=1 n=84 v=100
182640 On ch=1 n=84 v=100
182760 On ch=1 n=84 v=100
182880 On ch=1 n=84 v=100
183000 On ch=1 n=84 v=100
183120 On ch=1 n=84 v=100
183240 On ch=1 n=84 v=100
183360 On ch=1 n=84 v=100
183480 On ch=1 n=84 v=100
183600 On ch=1 n=84 v=100
183720 On ch=1 n=84 v=100
183840 On ch=1 n=84 v=100
183960 On ch=1 n=84 v=100
184080 On ch=1 n=84 v=100
184200 On ch=1 n=84 v=100
184320 On ch=1 n=84 v=100
184440 On ch=1 n=84 v=100
184560 On ch=1 n=84 v=100
184680 On ch=1 n=84 v=100
184800 On ch=1 n=84 v=100
184920 On ch=1 n=84 v=100
185040 On ch=1 n=84 v=100
185160 On ch=1 n=84 v=100
185280 On ch=1 n=84 v=100
185400 On ch=1 n=84 v=100
185520 On ch=1 n=84 v=100
185640 On ch=1 n=84 v=100
185760 On ch=1 n=84 v=100
185880 On ch=1 n=84 v=100
186000 On ch=1 n=84 v=100
186120 On ch=1 n=84 v=100
186240 On ch=1 n=84 v=100
186360 On ch=1 n=84 v=100
186480 On ch=1 n=84 v=100
186600 On ch=1 n=84 v=100
186720 On ch=1 n=84 v=100
186840 On ch=1 n=84 v=100
186960 On ch=1 n=84 v=100
187080 On ch=1 n=84 v=100
187200 On ch=1 n=84 v=100
187320 On ch=1 n=84 v=100
187440 On ch=1 n=84 v=100
187560 On ch=1 n=84 v=100
187680 On ch=1 n=84 v=100
187800 On ch=1 n=84 v=100
187920 On ch=1 n=84 v=100
188040 On ch=1 n=84 v=100
188160 On ch=1 n=84 v=100
188280 On ch=1 n=84 v=100
188400 On ch=1 n=84 v=100
188520 On ch=1 n=84 v=100
188640 On ch=1 n=84 v=100
188760 On ch=1 n=84 v=100
188880 On ch=1 n=84 v=100
189000 On ch=1 n=84 v=100
189120 On ch=1 n=84 v=100
189240 On ch=1 n=84 v=100
189360 On ch=1 n=84 v=100
189480 On ch=1 n=84 v=100
189600 On ch=1 n=84 v=100
189720 On ch=1 n=84 v=100
189840 On ch=1 n=84 v=100
189960 On ch=1 n=84 v=100
190080 On ch=1 n=84 v=100
190200 On ch=1 n=84 v=100
190320 On ch=1 n=84 v=100
190440 On ch=1 n=84 v=100
190560 On ch=1 n=84 v=100
190680 On ch=1 n=84 v=100
190800 On ch=1 n=84 v=100
190920 On ch=1 n=84 v=100
191040 On ch=1 n=84 v=100
191160 On ch=1 n=84 v=100
191280 On ch=1 n=84 v=100
191400 On ch=1 n=84 v=100
191520 On ch=1 n=84 v=100
191640 On ch=1 n=84 v=100
191760 On ch=1 n=84 v=100
191880 On ch=1 n=84 v=100
192000 On ch=1 n=84 v=100
192120 On ch=1 n=84 v=100
192240 On ch=1 n=84 v=100
192360 On ch=1 n=84 v=100
192480 On ch=1 n=84 v=100
192600 On ch=1 n=84 v=100
192720 On ch=1 n=84 v=100
192840 On ch=1 n=84 v=100
192960 On ch=1 n=84 v=100
193080 On ch=1 n=84 v=100
193200 On ch=1 n=84 v=100
193320 On ch=1 n=84 v=100
193440 On ch=1 n=84 v=100
193560 On ch=1 n=84 v=100
193680 On ch=1 n=84 v=100
193800 On ch=1 n=84 v=100
193920 On ch=1 n=84 v=100
194040 On ch=1 n=84 v=100
194160 On ch=1 n=84 v=100
194280 On ch=1 n=84 v=100
194400 On ch=1 n=84 v=100
194520 On ch=1 n=84 v=100
194640 On ch=1 n=84 v=100
194760 On ch=1 n=84 v=100
194880 On ch=1 n=84 v=100
195000 On ch=1 n=84 v=100
195120 On ch=1 n=84 v=100
195240 On ch=1 n=84 v=100
195360 On ch=1 n=84 v=100
195480 On ch=1 n=84 v=100
195600 On ch=1 n=84 v=100
195720 On ch=1 n=84 v=100
195840 On ch=1 n=84 v=100
195960 On ch=1 n=84 v=100
196080 On ch=1 n=84 v=100
196200 On ch=1 n=84 v=100
196320 On ch=1 n=84 v=100
196440 On ch=1 n=84 v=100
196560 On ch=1 n=84 v=100
196680 On ch=1 n=84 v=100
196800 On ch=1 n=84 v=100
196920 On ch=1 n=84 v=100
197040 On ch=1 n=84 v=100
197160 On ch=1 n=84 v=100
197280 On ch=1 n=84 v=100
197400 On ch=1 n=84 v=100
197520 On ch=1 n=84 v=100
197640 On ch=1 n=84 v=100
197760 On ch=1 n=84 v=100
197880 On ch=1 n=84 v=100
198000 On ch=1 n=84 v=100
198120 On ch=1 n=84 v=100
198240 On ch=1 n=84 v=100
198360 On ch=1 n=84 v=100
198480 On ch=1 n=84 v=100
198600 On ch=1 n=84 v=100
198720 On ch=1 n=84 v=100
198840 On ch=1 n=84 v=100
198960 On ch=1 n=84 v=100
199080 On ch=1 n=84 v=100
199200 On ch=1 n=84 v=100
199320 On ch=1 n=84 v=100
199440 On ch=1 n=84 v=100
199560 On ch=1 n=84 v=100
199680 On ch=1 n=84 v=100
199800 On ch=1 n=84 v=100
199920 On ch=1 n=84 v=100
200040 On ch=1 n=84 v=100
200160 On ch=1 n=84 v=100
200280 On ch=1 n=84 v=100
200400 On ch=1 n=84 v=100
200520 On ch=1 n=84 v=100
200640 On ch=1 n=84 v=100
200760 On ch=1 n=84 v=100
200880 On ch=1 n=84 v=100
201000 On ch=1 n=84 v=100
201120 On ch=1 n=84 v=100
201240 On ch=1 n=84 v=100
201360 On ch=1 n=84 v=100
201480 On ch=1 n=84 v=100
201600 On ch=1 n=84 v=100
201720 On ch=1 n=84 v=100
201840 On ch=1 n=84 v=100
201960 On ch=1 n=84 v=100
202080 On ch=1 n=84 v=100
202200 On ch=1 n=84 v=100
202320 On ch=1 n=84 v=100
202440 On ch=1 n=84 v=100
202560 On ch=1 n=84 v=100
202680 On ch=1 n=84 v=100
202800 On ch=1 n=84 v=100
202920 On ch=1 n=84 v=100
203040 On ch=1 n=84 v=100
203160 On ch=1 n=84 v=100
203280 On ch=1 n=84 v=100
203400 On ch=1 n=84 v=100
203520 On ch=1 n=84 v=100
203640 On ch=1 n=84 v=100
203760 On ch=1 n=84 v=100
203880 On ch=1 n=84 v=100
204000 On ch=1 n=84 v=100
204120 On ch=1 n=84 v=100
204240 On ch=1 n=84 v=100
204360 On ch=1 n=84 v=100
204480 On ch=1 n=84 v=100
204600 On ch=1 n=84 v=100
204720 On ch=1 n=84 v=100
204840 On ch=1 n=84 v=100
204960 On ch=1 n=84 v=100
205080 On ch=1 n=84 v=100
205200 On ch=1 n=84 v=100
205320 On ch=1 n=84 v=100
205440 On ch=1 n=84 v=100
205560 On ch=1 n=84 v=100
205680 On ch=1 n=84 v=100
205800 On ch=1 n=84 v=100
205920 On ch=1 n=84 v=100
206040 On ch=1 n=84 v=100
206160 On ch=1 n=84 v=100
206280 On ch=1 n=84 v=100
206400 On ch=1 n=84 v=100
206520 On ch=1 n=84 v=100
206640 On ch=1 n=84 v=100
206760 On ch=1 n=84 v=100
206880 On ch=1 n=84 v=100
207000 On ch=1 n=84 v=100
207120 On ch=1 n=84 v=100
207240 On ch=1 n=84 v=100
207360 On ch=1 n=84 v=100
207480 On ch=1 n=84 v=100
207600 On ch=1 n=84 v=100
207720 On ch=1 n=84 v=100
207840 On ch=1 n=84 v=100
207960 On ch=1 n=84 v=100
208080 On ch=1 n=84 v=100
208200 On ch=1 n=84 v=100
208320 On ch=1 n=84 v=100
208440 On ch=1 n=84 v=100
208560 On ch=1 n=84 v=100
208680 On ch=1 n=84 v=100
208800 On ch=1 n=84 v=100
208920 On ch=1 n=84 v=100
209040 On ch=1 n=84 v=100
209160 On ch=1 n=84 v=100
209280 On ch=1 n=84 v=100
209400 On ch=1 n=84 v=100
209520 On ch=1 n=84 v=100
209640 On ch=1 n=84 v=100
209760 On ch=1 n=84 v=100
209880 On ch=1 n=84 v=100
210000 On ch=1 n=84 v=100
210120 On ch=1 n=84 v=100
210240 On ch=1 n=84 v=100
210360 On ch=1 n=84 v=100
210480 On ch=1 n=84 v=100
210600 On ch=1 n=84 v=100
210720 On ch=1 n=84 v=100
210840 On ch=1 n=84 v=100
210960 On ch=1 n=84 v=100
211080 On ch=1 n=84 v=100
211200 On ch=1 n=84 v=100
211320 On ch=1 n=84 v=100
211440 On ch=1 n=84 v=100
211560 On ch=1 n=84 v=100
211680 On ch=1 n=84 v=100
211800 On ch=1 n=84 v=100
211920 On ch=1 n=84 v=100
212040 On ch=1 n=84 v=100
212160 On ch=1 n=84 v=100
212280 On ch=1 n=84 v=100
212400 On ch=1 n=84 v=100
212520 On ch=1 n=84 v=100
212640 On ch=1 n=84 v=100
212760 On ch=1 n=84 v=100
212880 On ch=1 n=84 v=100
213000 On ch=1 n=84 v=100
213120 On ch=1 n=84 v=100
213240 On ch=1 n=84 v=100
213360 On ch=1 n=84 v=100
213480 On ch=1 n=84 v=100
213600 On ch=1 n=84 v=100
213720 On ch=1 n=84 v=100
213840 On ch=1 n=84 v=100
213960 On ch=1 n=84 v=100
214080 On ch=1 n=84 v=100
214200 On ch=1 n=84 v=100
214320 On ch=1 n=84 v=100
214440 On ch=1 n=84 v=100
214560 On ch=1 n=84 v=100
214680 On ch=1 n=84 v=100
214800 On ch=1 n=84 v=100
214920 On ch=1 n=84 v=100
215040 On ch=1 n=84 v=100
215160 On ch=1 n=84 v=100
215280 On ch=1 n=84 v=100
215400 On ch=1 n=84 v=100
215520 On ch=1 n=84 v=100
215640 On ch=1 n=84 v=100
215760 On ch=1 n=84 v=100
215880 On ch=1 n=84 v=100
216000 On ch=1 n=84 v=100
216120 On ch=1 n=84 v=100
216240 On ch=1 n=84 v=100
216360 On ch=1 n=84 v=100
216480 On ch=1 n=84 v=100
216600 On ch=1 n=84 v=100
216720 On ch=1 n=84 v=100
216840 On ch=1 n=84 v=100
216960 On ch=1 n=84 v=100
217080 On ch=1 n=84 v=100
217200 On ch=1 n=84 v=100
217320 On ch=1 n=84 v=100
217440 On ch=1 n=84 v=100
217560 On ch=1 n=84 v=100
217680 On ch=1 n=84 v=100
217800 On ch=1 n=84 v=100
217920 On ch=1 n=84 v=100
218040 On ch=1 n=84 v=100
218160 On ch=1 n=84 v=100
218280 On ch=1 n=84 v=100
218400 On ch=1 n=84 v=100
218520 On ch=1 n=84 v=100
218640 On ch=1 n=84 v=100
218760 On ch=1 n=84 v=100
218880 On ch=1 n=84 v=100
219000 On ch=1 n=84 v=100
219120 On ch=1 n=84 v=100
219240 On ch=1 n=84 v=100
219360 On ch=1 n=84 v=100
219480 On ch=1 n=84 v=100
219600 On ch=1 n=84 v=100
219720 On ch=1 n=84 v=100
219840 On ch=1 n=84 v=100
219960 On ch=1 n=84 v=100
220080 On ch=1 n=84 v=100
220200 On ch=1 n=84 v=100
220320 On ch=1 n=84 v=100
220440 On ch=1 n=84 v=100
220560 On ch=1 n=84 v=100
220680 On ch=1 n=84 v=100
220800 On ch=1 n=84 v=100
220920 On ch=1 n=84 v=100
221040 On ch=1 n=84 v=100
221160 On ch=1 n=84 v=100
221280 On ch=1 n=84 v=100
221400 On ch=1 n=84 v=100
221520 On ch=1 n=84 v=100
221640 On ch=1 n=84 v=100
221760 On ch=1 n=84 v=100
221880 On ch=1 n=84 v=100
222000 On ch=1 n=84 v=100
222120 On ch=1 n=84 v=100
222240 On ch=1 n=84 v=100
222360 On ch=1 n=84 v=100
222480 On ch=1 n=84 v=100
222600 On ch=1 n=84 v=100
222720 On ch=1 n=84 v=100
222840 On ch=1 n=84 v=100
222960 On ch=1 n=84 v=100
223080 On ch=1 n=84 v=100
223200 On ch=1 n=84 v=100
223320 On ch=1 n=84 v=100
223440 On ch=1 n=84 v=100
223560 On ch=1 n=84 v=100
223680 On ch=1 n=84 v=100
223800 On ch=1 n=84 v=100
223920 On ch=1 n=84 v=100
224040 On ch=1 n=84 v=100
224160 On ch=1 n=84 v=100
224280 On ch=1 n=84 v=100
224400 On ch=1 n=84 v=100
224520 On ch=1 n=84 v=100
224640 On ch=1 n=84 v=100
224760 On ch=1 n=84 v=100
224880 On ch=1 n=84 v=100
225000 On ch=1 n=84 v=100
225120 On ch=1 n=84 v=100
225240 On ch=1 n=84 v=100
225360 On ch=1 n=84 v=100
225480 On ch=1 n=84 v=100
225600 On ch=1 n=84 v=100
225720 On ch=1 n=84 v=100
225840 On ch=1 n=84 v=100
225960 On ch=1 n=84 v=100
226080 On ch=1 n=84 v=100
226200 On ch=1 n=84 v=100
226320 On ch=1 n=84 v=100
226440 On ch=1 n=84 v=100
226560 On ch=1 n=84 v=100
226680 On ch=1 n=84 v=100
226800 On ch=1 n=84 v=100
226920 On ch=1 n=84 v=100
227040 On ch=1 n=84 v=100
227160 On ch=1 n=84 v=100
227280 On ch=1 n=84 v=100
227400 On ch=1 n=84 v=100
227520 On ch=1 n=84 v=100
227640 On ch=1 n=84 v=100
227760 On ch=1 n=84 v=100
227880 On ch=1 n=84 v=100
228000 On ch=1 n=84 v=100
228120 On ch=1 n=84 v=100
228240 On ch=1 n=84 v=100
228360 On ch=1 n=84 v=100
228480 On ch=1 n=84 v=100
228600 On ch=1 n=84 v=100
228720 On ch=1 n=84 v=100
228840 On ch=1 n=84 v=100
228960 On ch=1 n=84 v=100
229080 On ch=1 n=84 v=100
229200 On ch=1 n=84 v=100
229320 On ch=1 n=84 v=100
229440 On ch=1 n=84 v=100
229560 On ch=1 n=84 v=100
229680 On ch=1 n=84 v=100
229800 On ch=1 n=84 v=100
229920 On ch=1 n=84 v=100
230040 On ch=1 n=84 v=100
230160 On ch=1 n=84 v=100
230280 On ch=1 n=84 v=100
230400 On ch=1 n=84 v=100
230520 On ch=1 n=84 v=100
230640 On ch=1 n=84 v=100
230760 On ch=1 n=84 v=100
230880 On ch=1 n=84 v=100
231000 On ch=1 n=84 v=100
231120 On ch=1 n=84 v=100
231240 On ch=1 n=84 v=100
231360 On ch=1 n=84 v=100
231480 On ch=1 n=84 v=100
231600 On ch=1 n=84 v=100
231720 On ch=1 n=84 v=100
231840 On ch=1 n=84 v=100
231960 On ch=1 n=84 v=100
232080 On ch=1 n=84 v=100
232200 On ch=1 n=84 v=100
232320 On ch=1 n=84 v=100
232440 On ch=1 n=84 v=100
232560 On ch=1 n=84 v=100
232680 On ch=1 n=84 v=100
232800 On ch=1 n=84 v=100
232920 On ch=1 n=84 v=100
233040 On ch=1 n=84 v=100
233160 On ch=1 n=84 v=100
233280 On ch=1 n=84 v=100
233400 On ch=1 n=84 v=100
233520 On ch=1 n=84 v=100
233640 On ch=1 n=84 v=100
233760 On ch=1 n=84 v=100
233880 On ch=1 n=84 v=100
234000 On ch=1 n=84 v=100
234120 On ch=1 n=84 v=100
234240 On ch=1 n=84 v=100
234360 On ch=1 n=84 v=100
234480 On ch=1 n=84 v=100
234600 On ch=1 n=84 v=100
234720 On ch=1 n=84 v=100
234840 On ch=1 n=84 v=100
234960 On ch=1 n=84 v=100
235080 On ch=1 n=84 v=100
235200 On ch=1 n=84 v=100
235320 On ch=1 n=84 v=100
235440 On ch=1 n=84 v=100
235560 On ch=1 n=84 v=100
235680 On ch=1 n=84 v=100
235800 On ch=1 n=84 v=100
235920 On ch=1 n=84 v=100
236040 On ch=1 n=84 v=100
236160 On ch=1 n=84 v=100
236280 On ch=1 n=84 v=100
236400 On ch=1 n=84 v=100
236520 On ch=1 n=84 v=100
236640 On ch=1 n=84 v=100
236760 On ch=1 n=84 v=100
236880 On ch=1 n=84 v=100
237000 On ch=1 n=84 v=100
237120 On ch=1 n=84 v=100
237240 On ch=1 n=84 v=100
237360 On ch=1 n=84 v=100
237480 On ch=1 n=84 v=100
237600 On ch=1 n=84 v=100
237720 On ch=1 n=84 v=100
237840 On ch=1 n=84 v=100
237960 On ch=1 n=84 v=100
238080 On ch=1 n=84 v=100
238200 On ch=1 n=84 v=100
238320 On ch=1 n=84 v=100
238440 On ch=1 n=84 v=100
238560 On ch=1 n=84 v=100
238680 On ch=1 n=84 v=100
238800 On ch=1 n=84 v=100
238920 On ch=1 n=84 v=100
239040 On ch=1 n=84 v=100
239160 On ch=1 n=84 v=100
239280 On ch=1 n=84 v=100
239400 On ch=1 n=84 v=100
239520 On ch=1 n=84 v=100
239640 On ch=1 n=84 v=100
239760 On ch=1 n=84 v=100
239880 On ch=1 n=84 v=100
240000 On ch=1 n=84 v=100
240120 On ch=1 n=84 v=100
240240 On ch=1 n=84 v=100
240360 On ch=1 n=84 v=100
240480 On ch=1 n=84 v=100
240600 On ch=1 n=84 v=100
240720 On ch=1 n=84 v=100
240840 On ch=1 n=84 v=100
240960 On ch=1 n=84 v=100
241080 On ch=1 n=84 v=100
241200 On ch=1 n=84 v=100
241320 On ch=1 n=84 v=100
241440 On ch=1 n=84 v=100
241560 On ch=1 n=84 v=100
241680 On ch=1 n=84 v=100
241800 On ch=1 n=84 v=100
241920 On ch=1 n=84 v=100
242040 On ch=1 n=84 v=100
242160 On ch=1 n=84 v=100
242280 On ch=1 n=84 v=100
242400 On ch=1 n=84 v=100
242520 On ch=1 n=84 v=100
242640 On ch=1 n=84 v=100
242760 On ch=1 n=84 v=100
242880 On ch=1 n=84 v=100
243000 On ch=1 n=84 v=100
243120 On ch=1 n=84 v=100
243240 On ch=1 n=84 v=100
243360 On ch=1 n=84 v=100
243480 On ch=1 n=84 v=100
243600 On ch=1 n=84 v=100
243720 On ch=1 n=84 v=100
243840 On ch=1 n=84 v=100
243960 On ch=1 n=84 v=100
244080 On ch=1 n=84 v=100
244200 On ch=1 n=84 v=100
244320 On ch=1 n=84 v=100
244440 On ch=1 n=84 v=100
124800 Meta TrkEnd
TrkEnd
MTrk
0 Meta 0x21 00
0 Meta TrkName "--------------------------------------"
0 Meta TrkEnd
TrkEnd
MTrk
0 Meta 0x21 00
0 Meta TrkName "Johann Sebastian Bach  (1685-1750)"
0 Meta TrkEnd
TrkEnd
MTrk
0 Meta 0x21 00
0 Meta TrkName "--------------------------------------"
0 Meta TrkEnd
TrkEnd
MTrk
0 Meta 0x21 00
0 Meta TrkName "Partita in A minor for Solo Flute - BWV 1013"
0 Meta TrkEnd
TrkEnd
MTrk
0 Meta 0x21 00
0 Meta TrkName "--------------------------------------"
0 Meta TrkEnd
TrkEnd
MTrk
0 Meta 0x21 00
0 Meta TrkName "1st Movement: Allemande"
0 Meta TrkEnd
TrkEnd
MTrk
0 Meta 0x21 00
0 Meta TrkName "--------------------------------------"
0 Meta TrkEnd
TrkEnd
MTrk
0 Meta 0x21 00
0 Meta TrkName "Sequenced with Cakewalk Pro Audio by"
0 Meta TrkEnd
TrkEnd
MTrk
0 Meta 0x21 00
0 Meta TrkName "David J. Grossman - dave@unpronounceable.com"
0 Meta TrkEnd
TrkEnd
MTrk
0 Meta 0x21 00
0 Meta TrkName "This and other Bach MIDI files can be found at:"
0 Meta TrkEnd
TrkEnd
MTrk
0 Meta 0x21 00
0 Meta TrkName "Dave's J.S. Bach Page"
0 Meta TrkEnd
TrkEnd
MTrk
0 Meta 0x21 00
0 Meta TrkName "http://www.unpronounceable.com/bach"
0 Meta TrkEnd
TrkEnd
MTrk
0 Meta 0x21 00
0 Meta TrkName "--------------------------------------"
0 Meta TrkEnd
TrkEnd
MTrk
0 Meta 0x21 00
0 Meta TrkName "Original Filename: fp-1all.mid"
0 Meta TrkEnd
TrkEnd
MTrk
0 Meta 0x21 00
0 Meta TrkName "Last Modified: March 1, 1997"
0 Meta TrkEnd
TrkEnd